<svg xmlns="http://www.w3.org/2000/svg" width="108" height="29" viewBox="0 0 108 29" fill="none">
<g clip-path="url(#clip0_916_4662)">
<path d="M1.87212 10.6815H12.6579V13.7614L8.60168 14.0782C2.05193 14.575 0 16.3392 0 21.2745V22.2707C0 25.8904 2.49615 28.0627 6.33029 28.0627C9.36058 28.0627 11.0899 27.3377 13.2397 25.109H13.5861V27.4639H17.9094V5.875H1.87212V10.6815ZM12.6579 21.0919C11.3358 22.4506 9.31563 23.3556 7.66563 23.3556C5.88342 23.3556 5.12716 22.6762 5.16947 21.1832C5.21442 19.0995 5.96274 18.6028 9.40024 18.2859L12.6526 17.9691L12.6579 21.0919Z" fill="white"/>
<path d="M33.5484 6.47398H25.2137V0H19.9094V28.0629H25.2137V11.3154H32.7895V28.0629H38.0938V10.8643H33.5484V6.47398Z" fill="white"/>
<path d="M40.0938 28.063H45.3981V11.5411H53.2885V6.47412H40.0938V28.063Z" fill="white"/>
<path d="M73.7427 14.9831C73.7427 8.00163 71.3787 5.56885 64.6042 5.56885C57.9196 5.56885 55.2886 8.73468 55.2886 16.6103C55.2886 25.2029 57.6076 28.0626 65.096 28.0626C70.4876 28.0626 72.7643 26.3898 73.5179 21.68H68.3934C67.8143 23.13 67.1903 23.4468 65.0061 23.4468C61.7088 23.4468 60.86 22.4963 60.6828 18.4685H73.3751C73.5938 17.3192 73.7167 16.1533 73.7427 14.9831ZM60.7278 14.2125C60.7727 11.1809 61.9758 10.0477 64.8263 10.0477C67.5472 10.0477 68.6604 11.1809 68.7503 14.2125H60.7278Z" fill="white"/>
<path d="M75.7424 7.42185V28.0629H81.0468V11.0818H87.4194V6.47398H81.0468V5.88324C81.0917 4.61583 81.4037 4.25602 82.4297 4.25602H88.2232V0H81.9828C77.7494 0 75.7424 1.31306 75.7424 7.42185Z" fill="white"/>
<path d="M100.877 14.5833L97.6669 14.261C95.8847 14.0811 95.4378 13.6273 95.4378 12.18C95.4378 10.5501 96.0618 10.142 98.558 10.142C100.787 10.142 101.411 10.5045 101.731 12.0431H106.723C106.589 6.88215 105.028 5.57178 98.833 5.57178C92.0585 5.57178 90.3715 6.88215 90.3715 12.18C90.3715 17.0134 91.6195 18.3345 96.6568 18.8312L99.2878 19.0997C101.649 19.328 102.228 19.7791 102.228 21.2291C102.228 22.9933 101.514 23.4471 98.6188 23.4471C96.0777 23.4471 95.4087 23.0389 95.2765 21.3633H90.2234C90.3556 26.7042 91.9606 28.0629 98.3808 28.0629C105.52 28.0629 107.295 26.6156 107.295 20.7296C107.295 16.3474 106.002 15.08 100.877 14.5833Z" fill="white"/>
</g>
<defs>
<clipPath id="clip0_916_4662">
<rect width="107.294" height="28.0629" fill="white"/>
</clipPath>
</defs>
</svg>