<svg xmlns="http://www.w3.org/2000/svg" width="128" height="51" viewBox="0 0 128 51" fill="none">
  <path d="M104.214 21.7055H104.152V18.7151H102.294V34.6836H104.152V26.8536C104.152 23.2775 105.266 20.1949 109.445 20.2874V18.2836C106.752 18.2836 105.235 19.1467 104.214 21.7055ZM57.4325 22.6917C57.4325 21.058 58.7016 19.9484 61.054 19.9484C63.3757 19.9484 65.0475 20.8421 65.3882 23.3089H67.2763C66.8122 19.7016 64.5522 18.2839 61.0853 18.2839C57.5254 18.2839 55.4513 20.1952 55.4513 22.8462C55.4513 29.1353 65.7287 25.8676 65.7287 30.4914C65.7287 32.0328 64.4593 33.4509 61.7662 33.4509C58.9801 33.4509 57.5564 32.4333 56.9679 29.69H55.0796C55.2345 32.7109 57.4015 35.1157 61.1779 35.1157C64.9549 35.1157 67.7097 33.5128 67.7097 30.4608C67.7097 24.3257 57.4325 27.0384 57.4325 22.6917ZM77.092 33.4503C73.7175 33.4503 71.6746 30.3675 71.6746 26.7608C71.6746 22.9076 73.5939 19.9481 77.092 19.9481C80.2185 19.9481 82.5402 22.1985 82.5709 26.2061C82.7258 30.2135 80.9304 33.4503 77.092 33.4503ZM77.3086 18.2836C75.2654 18.2836 72.8201 19.424 71.7365 21.5204H71.6746V18.7151H69.8172V40.9722H71.6746V32.1251C72.8508 34.067 75.1415 35.1152 77.4015 35.1152C82.2924 35.1152 84.5521 31.1383 84.5521 26.6685C84.5521 21.952 82.4782 18.2836 77.3086 18.2836ZM93.3425 33.4503C89.7827 33.4503 87.8944 30.6762 87.8944 26.6994C87.8944 23.2466 89.4423 19.9484 93.3425 19.9484C97.2741 19.9484 98.7597 22.9385 98.791 26.6994C98.7907 30.1213 97.2428 33.4503 93.3425 33.4503ZM93.3425 18.2836C88.3899 18.2836 85.9134 22.0445 85.9134 26.6994C85.9134 32.279 89.2564 35.0532 93.3425 35.1152C97.8313 35.1152 100.772 31.755 100.772 26.6994C100.772 22.0137 98.3573 18.2836 93.3425 18.2836ZM116.276 33.4503C114.728 33.4503 114.667 32.7718 114.667 31.2003V20.2566H117.669V18.7151H114.667V14.2762H112.809V18.7151H110.55V20.2566H112.809V31.94C112.809 34.3132 113.831 35.1152 115.657 35.1152C116.555 35.1152 117.359 34.8376 117.793 34.745V33.2347C117.298 33.3581 116.771 33.4503 116.276 33.4503Z" fill="white"/>
  <path d="M36.7736 22.7047C37.2572 23.2268 37.5383 24.0292 37.6197 25.1131H31.4533C31.4927 24.0697 31.7951 23.2671 32.3602 22.7047C32.9239 22.1433 33.6495 21.8618 34.5364 21.8618C35.5036 21.8614 36.2489 22.1433 36.7736 22.7047ZM29.0345 20.5974C27.7846 22.0426 27.1604 24.0498 27.1604 26.6181C27.1604 29.3073 27.8046 31.3747 29.0949 32.8196C30.3843 34.305 32.1783 35.0472 34.4756 35.0472C36.3697 35.0472 37.9415 34.5865 39.1914 33.6625C40.4401 32.78 41.2862 31.495 41.7304 29.8089H38.7075C38.2238 29.8089 37.851 29.9103 37.5893 30.11C37.3263 30.3111 37.1755 30.4713 37.1357 30.5916C37.0146 30.7123 36.9034 30.823 36.803 30.9227C36.7019 31.0234 36.5914 31.0939 36.4705 31.1334C35.9869 31.4146 35.4025 31.5552 34.7179 31.5552C33.6696 31.5552 32.8832 31.2345 32.3602 30.5916C31.7948 29.9897 31.4927 29.067 31.4533 27.8219H41.912C41.9757 27.6302 41.9727 26.7384 41.9727 26.7384C41.9727 24.0894 41.3272 22.0226 40.0382 20.5372C38.7078 19.0921 36.8337 18.3695 34.4149 18.3695C32.1179 18.3698 30.3242 19.113 29.0345 20.5974ZM25.2189 44.9211C14.2339 44.9211 5.32895 36.0529 5.32895 25.1137C5.32895 14.1745 14.2339 5.30606 25.2189 5.30606C36.2042 5.30606 45.1095 14.1745 45.1095 25.1137C45.1095 36.0529 36.2039 44.9211 25.2189 44.9211ZM25.2189 0C11.2907 0 0 11.244 0 25.1137C0 38.9838 11.2911 50.2278 25.2189 50.2278C39.147 50.2278 50.4381 38.9838 50.4381 25.1137C50.4381 11.244 39.147 0 25.2189 0ZM21.0785 30.2902C20.4737 31.1331 19.6066 31.5549 18.4788 31.5549C17.3903 31.5549 16.5439 31.1331 15.9394 30.2902C15.3744 29.5287 15.093 28.3042 15.093 26.6177C15.093 25.1729 15.3951 24.0289 15.9999 23.186C16.604 22.3836 17.4704 21.9821 18.5989 21.9821C19.6469 21.9821 20.4734 22.4035 21.0781 23.2464C21.6826 24.0498 21.985 25.1736 21.985 26.6181C21.9853 28.2238 21.6829 29.4476 21.0785 30.2902ZM19.688 18.3698C18.6396 18.3698 17.7535 18.5712 17.0279 18.9717C16.1814 19.4537 15.5363 20.0759 15.0933 20.8384V16.0216C15.0933 15.4602 14.8911 14.9786 14.4886 14.5771C14.0854 14.1762 13.6017 13.9748 13.038 13.9748H10.9823V27.7621C10.9823 30.6123 11.8077 32.5387 13.4609 33.5418C15.113 34.5456 16.907 35.0472 18.8416 35.0472C19.8489 35.0472 20.8669 34.8757 21.8949 34.5353C22.9222 34.1946 23.7386 33.6425 24.3434 32.8797C25.5523 31.3142 26.1568 29.2881 26.1568 26.7989C26.1568 24.3101 25.5523 22.2829 24.3434 20.7174C23.1342 19.1526 21.5821 18.3698 19.688 18.3698Z" fill="white"/>
  <path d="M128 14.2722C128 14.8559 127.901 15.3794 127.701 15.8429C127.502 16.3069 127.234 16.698 126.9 17.0176C126.565 17.337 126.177 17.5808 125.735 17.7489C125.293 17.9169 124.831 18.0015 124.346 18.0015C123.862 18.0015 123.399 17.9172 122.957 17.7489C122.516 17.5808 122.127 17.3367 121.793 17.0176C121.458 16.698 121.191 16.3069 120.991 15.8429C120.792 15.3794 120.692 14.8559 120.692 14.2722C120.692 13.6883 120.792 13.1645 120.991 12.701C121.191 12.2373 121.458 11.8458 121.793 11.5265C122.127 11.2072 122.516 10.9633 122.957 10.7953C123.399 10.6267 123.862 10.5427 124.346 10.5427C124.831 10.5427 125.293 10.6267 125.735 10.7953C126.177 10.9633 126.565 11.2072 126.9 11.5265C127.234 11.8458 127.502 12.2373 127.701 12.701C127.901 13.1645 128 13.6883 128 14.2722ZM127.22 14.2722C127.22 13.8188 127.149 13.4051 127.007 13.0307C126.864 12.6566 126.667 12.3351 126.414 12.0673C126.161 11.7996 125.858 11.5935 125.506 11.4491C125.153 11.3053 124.767 11.2332 124.347 11.2332C123.926 11.2332 123.54 11.305 123.188 11.4491C122.835 11.5935 122.532 11.7996 122.279 12.0673C122.027 12.3351 121.829 12.6566 121.686 13.0307C121.544 13.4051 121.473 13.8188 121.473 14.2722C121.473 14.7256 121.544 15.1393 121.686 15.5134C121.829 15.8878 122.027 16.2088 122.279 16.4768C122.532 16.7446 122.835 16.9506 123.188 17.095C123.54 17.2391 123.926 17.3109 124.347 17.3109C124.767 17.3109 125.153 17.2389 125.506 17.095C125.858 16.9506 126.161 16.7448 126.414 16.4768C126.667 16.2088 126.864 15.8878 127.007 15.5134C127.149 15.139 127.22 14.7253 127.22 14.2722ZM125.404 16.3223C125.24 16.0131 125.057 15.7195 124.854 15.4414C124.651 15.1632 124.474 14.9417 124.325 14.7769H123.61V16.3223H122.851V12.3247C123.044 12.2838 123.246 12.2527 123.46 12.2322C123.674 12.2115 123.869 12.2011 124.048 12.2011C124.66 12.2011 125.127 12.3109 125.447 12.5311C125.768 12.7507 125.928 13.0839 125.928 13.5301C125.928 13.7843 125.858 14.0058 125.719 14.1948C125.581 14.3836 125.383 14.5296 125.127 14.6325C125.198 14.7152 125.28 14.8178 125.372 14.9417C125.465 15.0651 125.561 15.2026 125.661 15.3536C125.761 15.5047 125.86 15.6629 125.96 15.8275C126.06 15.9923 126.149 16.1569 126.227 16.322H125.404V16.3223ZM123.61 14.1794H124.015C124.336 14.1794 124.603 14.1363 124.817 14.0507C125.03 13.9651 125.137 13.788 125.137 13.52C125.137 13.2663 125.036 13.0892 124.832 12.9892C124.63 12.89 124.385 12.8401 124.101 12.8401C124.022 12.8401 123.941 12.8419 123.855 12.8454C123.769 12.8491 123.687 12.8539 123.609 12.8608L123.61 14.1794Z" fill="white"/>
</svg>