<svg xmlns="http://www.w3.org/2000/svg" width="114" height="44" viewBox="0 0 114 44" fill="none">
  <path d="M2.64915 34V9.27273H7.87713V19.4751H18.4901V9.27273H23.706V34H18.4901V23.7855H7.87713V34H2.64915Z" fill="white"/>
  <path fill-rule="evenodd" clip-rule="evenodd" d="M41.1512 8.98132C41.4741 8.23814 40.4869 7.63185 39.9701 8.25591L28.052 22.6471C27.7143 23.0549 27.9341 23.6755 28.4532 23.7799L33.8221 24.8595C34.0532 24.9059 34.2854 24.7847 34.3793 24.5685L41.1512 8.98132ZM31.9598 34.9129C31.6555 35.6383 32.5944 36.2366 33.1234 35.6545L46.0298 21.4518C46.4093 21.0342 46.164 20.3622 45.6048 20.2872L38.8746 19.3847C38.6507 19.3547 38.4345 19.4785 38.3471 19.6868L31.9598 34.9129Z" fill="white"/>
  <path d="M49.7615 34V9.27273H59.5171C61.3926 9.27273 62.9904 9.63092 64.3105 10.3473C65.6305 11.0556 66.6367 12.0417 67.3289 13.3054C68.0292 14.5611 68.3794 16.0099 68.3794 17.652C68.3794 19.294 68.0252 20.7429 67.3169 21.9986C66.6085 23.2543 65.5822 24.2322 64.238 24.9325C62.9018 25.6328 61.2839 25.983 59.3843 25.983H53.1663V21.7933H58.5392C59.5453 21.7933 60.3744 21.6203 61.0264 21.2741C61.6864 20.92 62.1774 20.433 62.4994 19.8132C62.8294 19.1854 62.9944 18.465 62.9944 17.652C62.9944 16.831 62.8294 16.1146 62.4994 15.5028C62.1774 14.883 61.6864 14.4041 61.0264 14.0661C60.3663 13.7199 59.5292 13.5469 58.515 13.5469H54.9894V34H49.7615ZM71.7751 34V9.27273H88.4371V13.5831H77.0031V19.4751H87.5798V23.7855H77.0031V29.6896H88.4854V34H71.7751ZM92.5935 34V9.27273H102.349C104.217 9.27273 105.81 9.60677 107.13 10.2749C108.459 10.9349 109.469 11.8726 110.161 13.0881C110.861 14.2955 111.211 15.7161 111.211 17.3501C111.211 18.9922 110.857 20.4048 110.149 21.5881C109.441 22.7633 108.414 23.6648 107.07 24.2926C105.734 24.9205 104.116 25.2344 102.216 25.2344H95.6844V21.0327H101.371C102.369 21.0327 103.198 20.8958 103.858 20.6222C104.518 20.3485 105.009 19.938 105.331 19.3906C105.661 18.8433 105.826 18.1631 105.826 17.3501C105.826 16.5291 105.661 15.8369 105.331 15.2734C105.009 14.71 104.514 14.2834 103.846 13.9936C103.186 13.6958 102.353 13.5469 101.347 13.5469H97.8215V34H92.5935ZM105.947 22.7472L112.093 34H106.321L100.309 22.7472H105.947Z" fill="white"/>
</svg>