<?xml version="1.0" encoding="UTF-8" standalone="no"?>
<svg
   width="109.44385"
   height="27.892246"
   viewBox="0 0 109.44385 27.892246"
   fill="none"
   version="1.1"
   id="svg3"
   sodipodi:docname="hyper.svg"
   inkscape:version="1.4 (e7c3feb100, 2024-10-09)"
   xmlns:inkscape="http://www.inkscape.org/namespaces/inkscape"
   xmlns:sodipodi="http://sodipodi.sourceforge.net/DTD/sodipodi-0.dtd"
   xmlns="http://www.w3.org/2000/svg"
   xmlns:svg="http://www.w3.org/2000/svg">
  <defs
     id="defs3" />
  <sodipodi:namedview
     id="namedview3"
     pagecolor="#ffffff"
     bordercolor="#000000"
     borderopacity="0.25"
     inkscape:showpageshadow="2"
     inkscape:pageopacity="0.0"
     inkscape:pagecheckerboard="0"
     inkscape:deskcolor="#d1d1d1"
     inkscape:zoom="11.078947"
     inkscape:cx="54.382423"
     inkscape:cy="13.990499"
     inkscape:window-width="1368"
     inkscape:window-height="831"
     inkscape:window-x="0"
     inkscape:window-y="32"
     inkscape:window-maximized="1"
     inkscape:current-layer="svg3" />
  <path
     d="M 0,26.003278 V 1.2760081 H 5.22798 V 11.478378 H 15.84095 V 1.2760081 h 5.2159 V 26.003278 h -5.2159 v -10.2145 H 5.22798 v 10.2145 z"
     fill="#ffffff"
     id="path1" />
  <path
     fill-rule="evenodd"
     clip-rule="evenodd"
     d="m 38.50205,0.98459809 c 0.3229,-0.74318 -0.6643,-1.34947 -1.1811,-0.72541 L 25.40285,14.650378 c -0.3377,0.4078 -0.1179,1.0284 0.4012,1.1328 l 5.3689,1.0796 c 0.2311,0.0464 0.4633,-0.0748 0.5572,-0.291 z M 29.31065,26.916178 c -0.3043,0.7254 0.6346,1.3237 1.1636,0.7416 l 12.9064,-14.2027 c 0.3795,-0.4176 0.1342,-1.0896 -0.425,-1.1646 l -6.7302,-0.9025 c -0.2239,-0.03 -0.4401,0.0938 -0.5275,0.3021 z"
     fill="#ffffff"
     id="path2" />
  <path
     d="M 47.11235,26.003278 V 1.2760081 h 9.7556 c 1.8755,0 3.4733,0.35819 4.7934,1.07457 1.32,0.7083 2.3262,1.6944 3.0184,2.9581 0.7003,1.2557 1.0505,2.7045 1.0505,4.3466 0,1.6419999 -0.3542,3.0908999 -1.0625,4.3465999 -0.7084,1.2557 -1.7347,2.2336 -3.0789,2.9339 -1.3362,0.7003 -2.9541,1.0505 -4.8537,1.0505 h -6.218 v -4.1897 h 5.3729 c 1.0061,0 1.8352,-0.173 2.4872,-0.5192 0.66,-0.3541 1.151,-0.8411 1.473,-1.4609 0.33,-0.6278 0.495,-1.3482 0.495,-2.1611999 0,-0.821 -0.165,-1.5374 -0.495,-2.1492 -0.322,-0.6198 -0.813,-1.0987 -1.473,-1.4367 -0.6601,-0.3462 -1.4972,-0.5192 -2.5114,-0.5192 h -3.5256 V 26.003278 Z m 22.0136,0 V 1.2760081 h 16.662 v 4.31037 h -11.434 v 5.8919999 h 10.5767 v 4.3104 h -10.5767 v 5.9041 h 11.4823 v 4.3104 z m 20.8184,0 V 1.2760081 h 9.7555 c 1.868,0 3.461,0.33404 4.781,1.00217 1.329,0.66 2.339,1.5977 3.031,2.8132 0.7,1.2074 1.05,2.628 1.05,4.262 0,1.6420999 -0.354,3.0546999 -1.062,4.2379999 -0.708,1.1752 -1.735,2.0767 -3.079,2.7045 -1.336,0.6279 -2.954,0.9418 -4.854,0.9418 h -6.5316 v -4.2017 h 5.6866 c 0.998,0 1.827,-0.1369 2.487,-0.4105 0.66,-0.2737 1.151,-0.6842 1.473,-1.2316 0.33,-0.5473 0.495,-1.2275 0.495,-2.0404999 0,-0.821 -0.165,-1.5132 -0.495,-2.0767 -0.322,-0.5634 -0.817,-0.99 -1.485,-1.2798 -0.66,-0.2978 -1.493,-0.4467 -2.499,-0.4467 h -3.5255 V 26.003278 Z m 13.3535,-11.2528 6.146,11.2528 h -5.772 l -6.012,-11.2528 z"
     fill="#ffffff"
     id="path3" />
</svg>
