<svg xmlns="http://www.w3.org/2000/svg" width="125" height="50" viewBox="0 0 125 50" fill="none">
  <path d="M74.7717 20.3534C75.8149 20.3534 76.5986 19.9159 77.1346 19.3149V16.9303C75.214 17.0481 73.3414 17.5313 73.3414 19.1046C73.3414 19.8462 73.9183 20.3534 74.7717 20.3534ZM77.1346 15.0565V13.9724C77.1346 13.0433 76.5986 12.4892 75.4207 12.4892C74.2428 12.4892 72.9928 12.9772 71.4664 13.7152L70.2645 11.2164C71.9279 10.3858 73.8702 9.80772 75.5613 9.80772C79.1202 9.80772 80.5096 11.5409 80.5096 14.0854V19.2681C80.5096 19.9351 80.9051 20.2404 81.5289 20.2404V22.5733C79.1911 22.5733 78.2188 22.226 77.5241 21.0469C76.4868 22.1563 75.3318 22.7801 73.6659 22.7801C71.4904 22.7801 69.964 21.4652 69.964 19.4988C69.964 16.7897 72.5289 15.381 77.1346 15.0565ZM83.6226 10.0842H86.8149L86.9748 11.5169C87.881 10.5733 89.1959 9.78488 90.7488 9.78488C93.5253 9.78488 94.7032 11.494 94.7032 14.2969V22.5036H91.3041V14.202C91.3041 13.0902 90.839 12.3294 89.6839 12.3294C88.6419 12.3294 87.7404 12.8594 86.9988 13.7837V22.5036H83.6226M64.125 6.31493V17.095C64.125 18.756 63.3125 19.7056 61.9039 19.7056C60.9544 19.7056 60.214 19.2404 59.6322 18.4556L57.3125 20.5553C58.5096 22.0012 60.1286 22.7849 62.0866 22.7849C65.4628 22.7849 67.6178 20.8642 67.6178 17.1599V6.31493M63.7584 33.0157C61.9832 32.5649 60.4483 32.1743 60.4483 30.8558C60.4483 29.7572 61.5 29.0157 63.0637 29.0157C64.5325 29.0157 66.0445 29.3762 67.4435 30.0529L68.6599 27.4664C66.7488 26.5733 64.8618 26.137 62.8991 26.137C59.4195 26.137 56.988 28.0998 56.988 30.9027C56.988 34.4664 59.9039 35.2224 62.4808 35.8931C64.2837 36.3618 65.8426 36.7669 65.8426 38.119C65.8426 39.3017 64.8053 40.006 63.0637 40.006C61.5565 40.006 59.8618 39.4988 58.2741 38.5697L56.702 41.1515C58.4291 42.2092 60.9219 42.8846 63.0866 42.8846C66.9231 42.8846 69.3077 41.0397 69.3077 38.0721C69.3077 34.4147 66.232 33.6395 63.7584 33.0157ZM72.0445 32.5878H70.0782V30.1839H72.0445V27.0854H75.4447V30.1839H78.2236V32.5878H75.4447V38.7657C75.4447 39.6875 75.7921 40.1515 76.5806 40.1515C77.2056 40.1515 77.7825 39.9447 78.2656 39.5986L79.5156 41.6298C78.4743 42.431 77.1997 42.87 75.8858 42.8798C73.2933 42.8798 72.0445 41.6118 72.0445 38.833M81.0589 30.1839H84.1815L84.4111 32.1046C85.3606 30.4375 86.5385 29.8366 87.952 29.8366C88.5289 29.8366 89.0601 29.9303 89.4784 30.0902L88.9892 33.1887C88.4562 32.9977 87.8931 32.9041 87.327 32.9123C86.0553 32.9123 85.1995 33.7008 84.4351 35.1322V42.6022H81.0589M117.343 32.5878H115.375V30.1839H117.343V27.0854H120.742V30.1839H123.522V32.5878H120.742V38.7657C120.742 39.6875 121.09 40.1515 121.873 40.1515C122.498 40.1515 123.075 39.9447 123.564 39.5986L124.813 41.6298C123.771 42.431 122.497 42.87 121.183 42.8798C118.591 42.8798 117.343 41.6118 117.343 38.833M103.051 12.2068C104.671 12.2068 105.272 13.4087 105.272 14.982H100.252C100.577 13.1791 101.661 12.2068 103.051 12.2068ZM102.957 9.75604C99.5108 9.75604 96.7356 12.208 96.7356 16.1887C96.7356 20.3474 99.3282 22.7753 102.981 22.7753C104.811 22.7788 106.598 22.2144 108.094 21.1599L106.68 19.006C105.643 19.6539 104.483 20.0709 103.234 20.0709C101.52 20.0709 100.543 19.1935 100.248 17.4279H108.257C108.347 16.8979 108.483 16.3438 108.483 15.4231C108.483 12.0902 106.52 9.75604 102.957 9.75604ZM108.966 32.3113C110.582 32.3113 111.183 33.5133 111.183 35.0854H106.163C106.488 33.2825 107.577 32.3113 108.966 32.3113ZM108.873 29.8594C105.427 29.8594 102.647 32.3113 102.647 36.2921C102.647 40.452 105.239 42.8846 108.897 42.8846C110.746 42.8846 112.478 42.3258 114.005 41.2645L112.596 39.1094C111.553 39.7584 110.399 40.1755 109.149 40.1755C107.43 40.1755 106.454 39.2981 106.163 37.5313H114.168C114.262 37.0024 114.399 36.4471 114.399 35.5277C114.399 32.1935 112.432 29.8594 108.873 29.8594ZM95.9796 32.3113C97.5998 32.3113 98.2008 33.5133 98.2008 35.0854H93.1815C93.506 33.2825 94.595 32.3113 95.9796 32.3113ZM95.8906 29.8594C92.4447 29.8594 89.6647 32.3113 89.6647 36.2921C89.6647 40.452 92.2572 42.8846 95.9099 42.8846C97.7645 42.8846 99.4964 42.3258 101.028 41.2645L99.6142 39.1094C98.5721 39.7584 97.4171 40.1755 96.1683 40.1755C94.4495 40.1755 93.4736 39.2981 93.1767 37.5313H101.188C101.281 37.0024 101.416 36.4471 101.416 35.5277C101.416 32.1983 99.4495 29.8594 95.8906 29.8594ZM7.7885 33.9351C11.1178 39.6166 17.2957 43.4339 24.3438 43.4147C34.8846 43.3822 43.4387 34.7849 43.4099 24.2404C43.3822 13.6959 34.7801 5.14186 24.2356 5.1695C13.6947 5.19714 5.14066 13.8029 5.16951 24.3438C5.17544 25.6021 5.30426 26.8569 5.55412 28.0902C5.59138 28.2452 5.75124 28.3306 5.90268 28.2921L8.56374 27.631C8.60121 27.6228 8.63669 27.6072 8.66811 27.5852C8.69954 27.5632 8.72631 27.5352 8.74686 27.5028C8.76742 27.4704 8.78136 27.4342 8.78789 27.3964C8.79442 27.3586 8.7934 27.3199 8.78489 27.2825H8.7885C8.60018 26.311 8.5044 25.3238 8.50244 24.3342C8.4784 15.6298 15.5409 8.52647 24.2452 8.50243C32.9544 8.47839 40.0577 15.5457 40.077 24.25C40.1046 32.9544 33.0385 40.0577 24.3342 40.0818C18.5685 40.095 13.5072 37.0012 10.7428 32.381C10.7058 32.3132 10.6443 32.2619 10.5709 32.2376C10.4975 32.2133 10.4176 32.2177 10.3474 32.25L7.91109 33.5361C7.84202 33.5728 7.79033 33.6355 7.76735 33.7103C7.74437 33.7851 7.75197 33.8659 7.7885 33.9351Z" fill="white" fill-opacity="0.87"/>
  <path d="M34.3535 28.4229L36.7814 29.7234C36.9256 29.7991 37.118 29.757 37.1757 29.602C37.8645 27.957 38.2251 26.1931 38.2369 24.4097C38.3019 16.7186 32.0951 10.4133 24.4052 10.3472H24.2874C16.6624 10.3472 10.4088 16.5491 10.3427 24.1741C10.2826 31.8652 16.4845 38.1753 24.1744 38.2366L24.2922 38.2402C27.9353 38.2402 31.2598 36.8219 33.7526 34.513C33.8752 34.4049 33.898 34.2174 33.785 34.0948L31.7153 32.227C31.5927 32.1188 31.41 32.1428 31.3019 32.245L31.297 32.2402C29.3677 33.9574 26.8751 34.9065 24.2922 34.9073H24.2033C18.3487 34.8556 13.63 30.0575 13.6769 24.2029C13.7237 18.4001 18.4845 13.6765 24.2874 13.6765H24.3812C30.2309 13.7282 34.9545 18.5311 34.9028 24.3808C34.8929 25.6258 34.6625 26.8592 34.2225 28.0239C34.19 28.0946 34.1855 28.1751 34.2098 28.2491C34.2341 28.3231 34.2854 28.3851 34.3535 28.4229Z" fill="white" fill-opacity="0.87"/>
  <path d="M38.3353 4.47958C38.2031 4.38943 38.0252 4.41347 37.9363 4.54929L36.3762 6.8029C36.2861 6.93511 36.3005 7.1178 36.4327 7.21155C41.7692 11.0192 45.2632 17.2536 45.2584 24.2969C45.2584 35.8558 35.8546 45.2548 24.2957 45.2548C12.7368 45.2548 3.33173 35.851 3.33173 24.2873C3.33173 12.7332 12.7368 3.32934 24.3005 3.33294C26.7439 3.33097 29.1686 3.75855 31.4639 4.59616C31.5357 4.62181 31.6147 4.61861 31.6842 4.58723C31.7537 4.55584 31.8083 4.49873 31.8365 4.4279L32.8173 1.85458C32.8429 1.78464 32.8406 1.70753 32.8108 1.63927C32.781 1.57101 32.7261 1.51683 32.6574 1.48799C29.9823 0.50118 27.1531 -0.00263865 24.3017 1.03921e-05C10.9014 -0.0047973 0.00480769 10.893 0 24.2909C0 37.6863 10.9014 48.589 24.2969 48.589C37.6911 48.589 48.5937 37.6911 48.5937 24.2969C48.5937 16.1238 44.5373 8.88342 38.3353 4.47958Z" fill="white" fill-opacity="0.87"/>
</svg>