<svg xmlns="http://www.w3.org/2000/svg" width="125" height="29" viewBox="0 0 125 29" fill="none">
<g clip-path="url(#clip0_920_4721)">
<mask id="mask0_920_4721" style="mask-type:luminance" maskUnits="userSpaceOnUse" x="-78" y="-86" width="282" height="200">
<path d="M203.075 -85.4458H-77.708V113.093H203.075V-85.4458Z" fill="white"/>
</mask>
<g mask="url(#mask0_920_4721)">
<mask id="mask1_920_4721" style="mask-type:luminance" maskUnits="userSpaceOnUse" x="-78" y="-86" width="282" height="200">
<path d="M203.075 -85.4458H-77.708V113.093H203.075V-85.4458Z" fill="white"/>
</mask>
<g mask="url(#mask1_920_4721)">
<path d="M36.0861 26.6807V25.0132H34.4185C33.4847 25.0132 32.751 25.7469 32.751 26.6807C32.751 27.6146 33.4847 28.3483 34.4185 28.3483C35.319 28.3483 36.0861 27.6146 36.0861 26.6807Z" fill="white"/>
</g>
<mask id="mask2_920_4721" style="mask-type:luminance" maskUnits="userSpaceOnUse" x="-78" y="-86" width="282" height="200">
<path d="M203.075 -85.4458H-77.708V113.093H203.075V-85.4458Z" fill="white"/>
</mask>
<g mask="url(#mask2_920_4721)">
<path d="M13.0739 25.4134L11.9066 24.2461L10.7393 25.4134C10.0723 26.0804 10.0723 27.1143 10.7393 27.7813C11.4063 28.4483 12.4402 28.4483 13.1072 27.7813C13.7409 27.1143 13.7409 26.0471 13.0739 25.4134Z" fill="white"/>
</g>
<mask id="mask3_920_4721" style="mask-type:luminance" maskUnits="userSpaceOnUse" x="-78" y="-86" width="282" height="200">
<path d="M203.075 -85.4458H-77.708V113.093H203.075V-85.4458Z" fill="white"/>
</mask>
<g mask="url(#mask3_920_4721)">
<path d="M81.9771 14.6411L79.9761 17.6094L82.0438 20.5109L84.0449 17.5427L81.9771 14.6411Z" fill="white"/>
</g>
<mask id="mask4_920_4721" style="mask-type:luminance" maskUnits="userSpaceOnUse" x="-78" y="-86" width="282" height="200">
<path d="M203.075 -85.4458H-77.708V113.093H203.075V-85.4458Z" fill="white"/>
</mask>
<g mask="url(#mask4_920_4721)">
<path d="M56.3302 17.5758C56.3302 17.0088 56.3636 16.4418 56.497 15.9082H54.6627C53.7288 15.9082 52.9951 16.6419 52.9951 17.5758C52.9951 18.5096 53.7288 19.2433 54.6627 19.2433H56.4636C56.3969 18.6763 56.3302 18.1094 56.3302 17.5758Z" fill="white"/>
</g>
<mask id="mask5_920_4721" style="mask-type:luminance" maskUnits="userSpaceOnUse" x="-78" y="-86" width="282" height="200">
<path d="M203.075 -85.4458H-77.708V113.093H203.075V-85.4458Z" fill="white"/>
</mask>
<g mask="url(#mask5_920_4721)">
<path d="M71.0046 15.9082H69.2036C69.3037 16.4752 69.3704 17.0421 69.3704 17.5758C69.3704 18.4429 70.0374 19.1766 70.9045 19.2433H71.0046C71.9384 19.2433 72.6721 18.5096 72.6721 17.5758C72.6721 16.6419 71.9384 15.9082 71.0046 15.9082Z" fill="white"/>
</g>
<mask id="mask6_920_4721" style="mask-type:luminance" maskUnits="userSpaceOnUse" x="-78" y="-86" width="282" height="200">
<path d="M203.075 -85.4458H-77.708V113.093H203.075V-85.4458Z" fill="white"/>
</mask>
<g mask="url(#mask6_920_4721)">
<path d="M100.087 1.66756C100.087 2.60139 100.821 3.33511 101.754 3.33511H103.422V1.66756C103.422 0.733725 102.688 0 101.754 0C100.821 0 100.087 0.733725 100.087 1.66756Z" fill="white"/>
</g>
<mask id="mask7_920_4721" style="mask-type:luminance" maskUnits="userSpaceOnUse" x="-78" y="-86" width="282" height="200">
<path d="M203.075 -85.4458H-77.708V113.093H203.075V-85.4458Z" fill="white"/>
</mask>
<g mask="url(#mask7_920_4721)">
<path d="M100.087 14.4742C100.087 15.408 100.821 16.1418 101.754 16.1418H103.422V12.8066H101.754C100.821 12.84 100.087 13.5737 100.087 14.4742Z" fill="white"/>
</g>
<mask id="mask8_920_4721" style="mask-type:luminance" maskUnits="userSpaceOnUse" x="-78" y="-86" width="282" height="200">
<path d="M203.075 -85.4458H-77.708V113.093H203.075V-85.4458Z" fill="white"/>
</mask>
<g mask="url(#mask8_920_4721)">
<g opacity="0.7">
<mask id="mask9_920_4721" style="mask-type:luminance" maskUnits="userSpaceOnUse" x="10" y="9" width="20" height="20">
<path d="M29.4826 9.00439H10.239V28.248H29.4826V9.00439Z" fill="white"/>
</mask>
<g mask="url(#mask9_920_4721)">
<mask id="mask10_920_4721" style="mask-type:luminance" maskUnits="userSpaceOnUse" x="10" y="9" width="20" height="20">
<path d="M29.4826 9.00439H10.239V28.248H29.4826V9.00439Z" fill="white"/>
</mask>
<g mask="url(#mask10_920_4721)">
<path d="M11.9066 28.2481C11.473 28.2481 11.0394 28.0814 10.7393 27.7479C10.0723 27.0808 10.0723 26.047 10.7393 25.3799L26.6478 9.47146C27.3148 8.80444 28.3487 8.80444 29.0157 9.47146C29.6827 10.1385 29.6827 11.1724 29.0157 11.8394L13.1072 27.7479C12.7737 28.0814 12.3401 28.2481 11.9066 28.2481Z" fill="white"/>
</g>
</g>
</g>
</g>
<mask id="mask11_920_4721" style="mask-type:luminance" maskUnits="userSpaceOnUse" x="-78" y="-86" width="282" height="200">
<path d="M203.075 -85.4458H-77.708V113.093H203.075V-85.4458Z" fill="white"/>
</mask>
<g mask="url(#mask11_920_4721)">
<g opacity="0.7">
<mask id="mask12_920_4721" style="mask-type:luminance" maskUnits="userSpaceOnUse" x="0" y="14" width="14" height="15">
<path d="M13.5739 14.6743H0V28.2482H13.5739V14.6743Z" fill="white"/>
</mask>
<g mask="url(#mask12_920_4721)">
<mask id="mask13_920_4721" style="mask-type:luminance" maskUnits="userSpaceOnUse" x="0" y="14" width="14" height="15">
<path d="M13.5739 14.6743H0V28.2482H13.5739V14.6743Z" fill="white"/>
</mask>
<g mask="url(#mask13_920_4721)">
<path d="M11.9064 28.2484C11.4728 28.2484 11.0392 28.0816 10.7391 27.7481L0.500267 17.5093C-0.166756 16.8423 -0.166756 15.8084 0.500267 15.1414C1.16729 14.4744 2.20118 14.4744 2.8682 15.1414L13.107 25.3802C13.774 26.0472 13.774 27.0811 13.107 27.7481C12.7735 28.0816 12.3399 28.2484 11.9064 28.2484Z" fill="white"/>
</g>
</g>
</g>
</g>
<mask id="mask14_920_4721" style="mask-type:luminance" maskUnits="userSpaceOnUse" x="-78" y="-86" width="282" height="200">
<path d="M203.075 -85.4458H-77.708V113.093H203.075V-85.4458Z" fill="white"/>
</mask>
<g mask="url(#mask14_920_4721)">
<g opacity="0.7">
<mask id="mask15_920_4721" style="mask-type:luminance" maskUnits="userSpaceOnUse" x="7" y="6" width="9" height="9">
<path d="M15.2416 6.70312H7.93774V14.007H15.2416V6.70312Z" fill="white"/>
</mask>
<g mask="url(#mask15_920_4721)">
<mask id="mask16_920_4721" style="mask-type:luminance" maskUnits="userSpaceOnUse" x="7" y="6" width="9" height="9">
<path d="M15.2416 6.70312H7.93774V14.007H15.2416V6.70312Z" fill="white"/>
</mask>
<g mask="url(#mask16_920_4721)">
<path d="M13.5741 14.0072C13.1405 14.0072 12.707 13.8404 12.4068 13.5069L8.43801 9.53811C7.77099 8.87109 7.77099 7.83721 8.43801 7.17019C9.10503 6.50317 10.1389 6.50317 10.8059 7.17019L14.7747 11.139C15.4417 11.806 15.4417 12.8399 14.7747 13.5069C14.4079 13.8404 13.9743 14.0072 13.5741 14.0072Z" fill="white"/>
</g>
</g>
</g>
</g>
<mask id="mask17_920_4721" style="mask-type:luminance" maskUnits="userSpaceOnUse" x="-78" y="-86" width="282" height="200">
<path d="M203.075 -85.4458H-77.708V113.093H203.075V-85.4458Z" fill="white"/>
</mask>
<g mask="url(#mask17_920_4721)">
<g opacity="0.7">
<mask id="mask18_920_4721" style="mask-type:luminance" maskUnits="userSpaceOnUse" x="32" y="0" width="5" height="29">
<path d="M36.0861 0H32.751V28.3485H36.0861V0Z" fill="white"/>
</mask>
<g mask="url(#mask18_920_4721)">
<mask id="mask19_920_4721" style="mask-type:luminance" maskUnits="userSpaceOnUse" x="32" y="0" width="5" height="29">
<path d="M36.0861 0H32.751V28.3485H36.0861V0Z" fill="white"/>
</mask>
<g mask="url(#mask19_920_4721)">
<path d="M34.4185 28.3485C33.4847 28.3485 32.751 27.6147 32.751 26.6809V1.66756C32.751 0.733725 33.4847 0 34.4185 0C35.3524 0 36.0861 0.733725 36.0861 1.66756V26.6809C36.0861 27.6147 35.3524 28.3485 34.4185 28.3485Z" fill="white"/>
</g>
</g>
</g>
</g>
<mask id="mask20_920_4721" style="mask-type:luminance" maskUnits="userSpaceOnUse" x="-78" y="-86" width="282" height="200">
<path d="M203.075 -85.4458H-77.708V113.093H203.075V-85.4458Z" fill="white"/>
</mask>
<g mask="url(#mask20_920_4721)">
<g opacity="0.7">
<mask id="mask21_920_4721" style="mask-type:luminance" maskUnits="userSpaceOnUse" x="32" y="25" width="21" height="4">
<path d="M52.228 25.0132H32.751V28.3483H52.228V25.0132Z" fill="white"/>
</mask>
<g mask="url(#mask21_920_4721)">
<mask id="mask22_920_4721" style="mask-type:luminance" maskUnits="userSpaceOnUse" x="32" y="25" width="21" height="4">
<path d="M52.228 25.0132H32.751V28.3483H52.228V25.0132Z" fill="white"/>
</mask>
<g mask="url(#mask22_920_4721)">
<path d="M50.5605 28.3483H34.4185C33.4847 28.3483 32.751 27.6146 32.751 26.6807C32.751 25.7469 33.4847 25.0132 34.4185 25.0132H50.5605C51.4943 25.0132 52.228 25.7469 52.228 26.6807C52.228 27.6146 51.4943 28.3483 50.5605 28.3483Z" fill="white"/>
</g>
</g>
</g>
</g>
<mask id="mask23_920_4721" style="mask-type:luminance" maskUnits="userSpaceOnUse" x="-78" y="-86" width="282" height="200">
<path d="M203.075 -85.4458H-77.708V113.093H203.075V-85.4458Z" fill="white"/>
</mask>
<g mask="url(#mask23_920_4721)">
<g opacity="0.7">
<mask id="mask24_920_4721" style="mask-type:luminance" maskUnits="userSpaceOnUse" x="100" y="0" width="4" height="29">
<path d="M103.422 0H100.087V28.3485H103.422V0Z" fill="white"/>
</mask>
<g mask="url(#mask24_920_4721)">
<mask id="mask25_920_4721" style="mask-type:luminance" maskUnits="userSpaceOnUse" x="100" y="0" width="4" height="29">
<path d="M103.422 0H100.087V28.3485H103.422V0Z" fill="white"/>
</mask>
<g mask="url(#mask25_920_4721)">
<path d="M101.754 28.3485C100.821 28.3485 100.087 27.6147 100.087 26.6809V1.66756C100.087 0.733725 100.821 0 101.754 0C102.688 0 103.422 0.733725 103.422 1.66756V26.6809C103.422 27.6147 102.688 28.3485 101.754 28.3485Z" fill="white"/>
</g>
</g>
</g>
</g>
<mask id="mask26_920_4721" style="mask-type:luminance" maskUnits="userSpaceOnUse" x="-78" y="-86" width="282" height="200">
<path d="M203.075 -85.4458H-77.708V113.093H203.075V-85.4458Z" fill="white"/>
</mask>
<g mask="url(#mask26_920_4721)">
<g opacity="0.7">
<mask id="mask27_920_4721" style="mask-type:luminance" maskUnits="userSpaceOnUse" x="100" y="0" width="19" height="4">
<path d="M118.297 0H100.087V3.33511H118.297V0Z" fill="white"/>
</mask>
<g mask="url(#mask27_920_4721)">
<mask id="mask28_920_4721" style="mask-type:luminance" maskUnits="userSpaceOnUse" x="100" y="0" width="19" height="4">
<path d="M118.297 0H100.087V3.33511H118.297V0Z" fill="white"/>
</mask>
<g mask="url(#mask28_920_4721)">
<path d="M116.629 3.33511H101.754C100.821 3.33511 100.087 2.60139 100.087 1.66756C100.087 0.733725 100.821 0 101.754 0H116.629C117.563 0 118.297 0.733725 118.297 1.66756C118.297 2.56804 117.563 3.33511 116.629 3.33511Z" fill="white"/>
</g>
</g>
</g>
</g>
<mask id="mask29_920_4721" style="mask-type:luminance" maskUnits="userSpaceOnUse" x="-78" y="-86" width="282" height="200">
<path d="M203.075 -85.4458H-77.708V113.093H203.075V-85.4458Z" fill="white"/>
</mask>
<g mask="url(#mask29_920_4721)">
<g opacity="0.7">
<mask id="mask30_920_4721" style="mask-type:luminance" maskUnits="userSpaceOnUse" x="100" y="12" width="16" height="5">
<path d="M115.028 12.8398H100.087V16.175H115.028V12.8398Z" fill="white"/>
</mask>
<g mask="url(#mask30_920_4721)">
<mask id="mask31_920_4721" style="mask-type:luminance" maskUnits="userSpaceOnUse" x="100" y="12" width="16" height="5">
<path d="M115.028 12.8398H100.087V16.175H115.028V12.8398Z" fill="white"/>
</mask>
<g mask="url(#mask31_920_4721)">
<path d="M113.394 16.175H101.788C100.854 16.175 100.12 15.4412 100.12 14.5074C100.12 13.5736 100.854 12.8398 101.788 12.8398H113.394C114.328 12.8398 115.062 13.5736 115.062 14.5074C115.062 15.4079 114.295 16.175 113.394 16.175Z" fill="white"/>
</g>
</g>
</g>
</g>
<mask id="mask32_920_4721" style="mask-type:luminance" maskUnits="userSpaceOnUse" x="-78" y="-86" width="282" height="200">
<path d="M203.075 -85.4458H-77.708V113.093H203.075V-85.4458Z" fill="white"/>
</mask>
<g mask="url(#mask32_920_4721)">
<g opacity="0.7">
<mask id="mask33_920_4721" style="mask-type:luminance" maskUnits="userSpaceOnUse" x="93" y="6" width="4" height="23">
<path d="M96.685 6.60352H93.3499V28.3151H96.685V6.60352Z" fill="white"/>
</mask>
<g mask="url(#mask33_920_4721)">
<mask id="mask34_920_4721" style="mask-type:luminance" maskUnits="userSpaceOnUse" x="93" y="6" width="4" height="23">
<path d="M96.685 6.60352H93.3499V28.3151H96.685V6.60352Z" fill="white"/>
</mask>
<g mask="url(#mask34_920_4721)">
<path d="M95.0174 28.3485C94.0836 28.3485 93.3499 27.6147 93.3499 26.6809V8.27107C93.3499 7.33724 94.0836 6.60352 95.0174 6.60352C95.9512 6.60352 96.685 7.33724 96.685 8.27107V26.6475C96.685 27.6147 95.9179 28.3485 95.0174 28.3485Z" fill="white"/>
</g>
</g>
</g>
</g>
<mask id="mask35_920_4721" style="mask-type:luminance" maskUnits="userSpaceOnUse" x="-78" y="-86" width="282" height="200">
<path d="M203.075 -85.4458H-77.708V113.093H203.075V-85.4458Z" fill="white"/>
</mask>
<g mask="url(#mask35_920_4721)">
<g opacity="0.7">
<mask id="mask36_920_4721" style="mask-type:luminance" maskUnits="userSpaceOnUse" x="53" y="15" width="20" height="5">
<path d="M72.7055 15.9082H53.0283V19.2433H72.7055V15.9082Z" fill="white"/>
</mask>
<g mask="url(#mask36_920_4721)">
<mask id="mask37_920_4721" style="mask-type:luminance" maskUnits="userSpaceOnUse" x="53" y="15" width="20" height="5">
<path d="M72.7055 15.9082H53.0283V19.2433H72.7055V15.9082Z" fill="white"/>
</mask>
<g mask="url(#mask37_920_4721)">
<path d="M71.0379 19.2433H54.6959C53.762 19.2433 53.0283 18.5096 53.0283 17.5758C53.0283 16.6419 53.762 15.9082 54.6959 15.9082H71.0379C71.9718 15.9082 72.7055 16.6419 72.7055 17.5758C72.7055 18.4762 71.9384 19.2433 71.0379 19.2433Z" fill="white"/>
</g>
</g>
</g>
</g>
<mask id="mask38_920_4721" style="mask-type:luminance" maskUnits="userSpaceOnUse" x="-78" y="-86" width="282" height="200">
<path d="M203.075 -85.4458H-77.708V113.093H203.075V-85.4458Z" fill="white"/>
</mask>
<g mask="url(#mask38_920_4721)">
<g opacity="0.7">
<mask id="mask39_920_4721" style="mask-type:luminance" maskUnits="userSpaceOnUse" x="73" y="6" width="18" height="23">
<path d="M90.2148 6.56982H73.6726V28.3481H90.2148V6.56982Z" fill="white"/>
</mask>
<g mask="url(#mask39_920_4721)">
<mask id="mask40_920_4721" style="mask-type:luminance" maskUnits="userSpaceOnUse" x="73" y="6" width="18" height="23">
<path d="M90.2148 6.56982H73.6726V28.3481H90.2148V6.56982Z" fill="white"/>
</mask>
<g mask="url(#mask40_920_4721)">
<path d="M88.5472 28.3479C88.0136 28.3479 87.5134 28.1144 87.1798 27.6475L73.9728 9.20435C73.4392 8.47063 73.6059 7.40339 74.373 6.86978C75.1067 6.33616 76.174 6.50292 76.7076 7.26999L89.9146 25.7132C90.4483 26.4469 90.2815 27.5141 89.5144 28.0477C89.2143 28.2478 88.8808 28.3479 88.5472 28.3479Z" fill="white"/>
</g>
</g>
</g>
</g>
<mask id="mask41_920_4721" style="mask-type:luminance" maskUnits="userSpaceOnUse" x="-78" y="-86" width="282" height="200">
<path d="M203.075 -85.4458H-77.708V113.093H203.075V-85.4458Z" fill="white"/>
</mask>
<g mask="url(#mask41_920_4721)">
<g opacity="0.7">
<mask id="mask42_920_4721" style="mask-type:luminance" maskUnits="userSpaceOnUse" x="74" y="6" width="16" height="23">
<path d="M89.9481 6.60352H74.2397V28.3151H89.9481V6.60352Z" fill="white"/>
</mask>
<g mask="url(#mask42_920_4721)">
<mask id="mask43_920_4721" style="mask-type:luminance" maskUnits="userSpaceOnUse" x="74" y="6" width="16" height="23">
<path d="M89.9481 6.60352H74.2397V28.3151H89.9481V6.60352Z" fill="white"/>
</mask>
<g mask="url(#mask43_920_4721)">
<path d="M75.9073 28.3486C75.5738 28.3486 75.2737 28.2485 74.9735 28.0484C74.2064 27.5481 74.0063 26.5143 74.5066 25.7472L86.8799 7.37072C87.3801 6.60364 88.414 6.40354 89.1811 6.90381C89.9482 7.40407 90.1483 8.43795 89.648 9.20503L77.2747 27.6149C76.9746 28.0818 76.441 28.3486 75.9073 28.3486Z" fill="white"/>
</g>
</g>
</g>
</g>
<mask id="mask44_920_4721" style="mask-type:luminance" maskUnits="userSpaceOnUse" x="-78" y="-86" width="282" height="200">
<path d="M203.075 -85.4458H-77.708V113.093H203.075V-85.4458Z" fill="white"/>
</mask>
<g mask="url(#mask44_920_4721)">
<g opacity="0.7">
<mask id="mask45_920_4721" style="mask-type:luminance" maskUnits="userSpaceOnUse" x="53" y="6" width="20" height="23">
<path d="M72.7388 6.80322H53.0283V28.3481H72.7388V6.80322Z" fill="white"/>
</mask>
<g mask="url(#mask45_920_4721)">
<mask id="mask46_920_4721" style="mask-type:luminance" maskUnits="userSpaceOnUse" x="53" y="6" width="20" height="23">
<path d="M72.7388 6.80322H53.0283V28.3481H72.7388V6.80322Z" fill="white"/>
</mask>
<g mask="url(#mask46_920_4721)">
<path d="M62.8668 28.3481C57.1638 28.3481 52.9949 23.8123 52.9949 17.5756C52.9949 11.339 57.1304 6.80322 62.8668 6.80322C68.5698 6.80322 72.7054 11.339 72.7054 17.5756C72.7054 18.5095 71.9717 19.2432 71.0378 19.2432C70.104 19.2432 69.3703 18.5095 69.3703 17.5756C69.3703 14.0071 67.3359 10.1383 62.8668 10.1383C58.3978 10.1383 56.33 14.0071 56.33 17.5756C56.33 21.1442 58.3644 25.0129 62.8668 25.0129C66.6021 25.0129 68.2697 22.8785 68.3364 22.7784C68.87 22.0113 69.9039 21.8446 70.671 22.3782C71.438 22.9118 71.6048 23.9457 71.0712 24.7128C70.9378 24.8462 68.4031 28.3481 62.8668 28.3481Z" fill="white"/>
</g>
</g>
</g>
</g>
<mask id="mask47_920_4721" style="mask-type:luminance" maskUnits="userSpaceOnUse" x="-78" y="-86" width="282" height="200">
<path d="M203.075 -85.4458H-77.708V113.093H203.075V-85.4458Z" fill="white"/>
</mask>
<g mask="url(#mask47_920_4721)">
<g opacity="0.7">
<mask id="mask48_920_4721" style="mask-type:luminance" maskUnits="userSpaceOnUse" x="93" y="0" width="4" height="4">
<path d="M96.9851 0H93.0164V3.96878H96.9851V0Z" fill="white"/>
</mask>
<g mask="url(#mask48_920_4721)">
<mask id="mask49_920_4721" style="mask-type:luminance" maskUnits="userSpaceOnUse" x="93" y="0" width="4" height="4">
<path d="M96.9851 0H93.0164V3.96878H96.9851V0Z" fill="white"/>
</mask>
<g mask="url(#mask49_920_4721)">
<path d="M95.0175 0C93.9169 0 93.0498 0.900478 93.0498 1.96771C93.0498 3.0683 93.9503 3.93543 95.0175 3.93543C96.1181 3.93543 96.9852 3.03495 96.9852 1.96771C96.9852 0.900478 96.0848 0 95.0175 0Z" fill="white"/>
</g>
</g>
</g>
</g>
<mask id="mask50_920_4721" style="mask-type:luminance" maskUnits="userSpaceOnUse" x="-78" y="-86" width="282" height="200">
<path d="M203.075 -85.4458H-77.708V113.093H203.075V-85.4458Z" fill="white"/>
</mask>
<g mask="url(#mask50_920_4721)">
<g opacity="0.7">
<mask id="mask51_920_4721" style="mask-type:luminance" maskUnits="userSpaceOnUse" x="121" y="6" width="4" height="23">
<path d="M124.7 6.60352H121.365V28.3151H124.7V6.60352Z" fill="white"/>
</mask>
<g mask="url(#mask51_920_4721)">
<mask id="mask52_920_4721" style="mask-type:luminance" maskUnits="userSpaceOnUse" x="121" y="6" width="4" height="23">
<path d="M124.7 6.60352H121.365V28.3151H124.7V6.60352Z" fill="white"/>
</mask>
<g mask="url(#mask52_920_4721)">
<path d="M123.032 28.3485C122.098 28.3485 121.365 27.6147 121.365 26.6809V8.27107C121.365 7.33724 122.098 6.60352 123.032 6.60352C123.966 6.60352 124.7 7.33724 124.7 8.27107V26.6475C124.7 27.6147 123.933 28.3485 123.032 28.3485Z" fill="white"/>
</g>
</g>
</g>
</g>
<mask id="mask53_920_4721" style="mask-type:luminance" maskUnits="userSpaceOnUse" x="-78" y="-86" width="282" height="200">
<path d="M203.075 -85.4458H-77.708V113.093H203.075V-85.4458Z" fill="white"/>
</mask>
<g mask="url(#mask53_920_4721)">
<g opacity="0.7">
<mask id="mask54_920_4721" style="mask-type:luminance" maskUnits="userSpaceOnUse" x="121" y="0" width="4" height="4">
<path d="M125 0H121.031V3.96878H125V0Z" fill="white"/>
</mask>
<g mask="url(#mask54_920_4721)">
<mask id="mask55_920_4721" style="mask-type:luminance" maskUnits="userSpaceOnUse" x="121" y="0" width="4" height="4">
<path d="M125 0H121.031V3.96878H125V0Z" fill="white"/>
</mask>
<g mask="url(#mask55_920_4721)">
<path d="M123.032 0C121.932 0 121.065 0.900478 121.065 1.96771C121.065 3.0683 121.965 3.93543 123.032 3.93543C124.133 3.93543 125 3.03495 125 1.96771C125 0.900478 124.1 0 123.032 0Z" fill="white"/>
</g>
</g>
</g>
</g>
</g>
</g>
<defs>
<clipPath id="clip0_920_4721">
<rect width="125" height="28.3485" fill="white"/>
</clipPath>
</defs>
</svg>