<?xml version="1.0" encoding="UTF-8" standalone="no"?>
<!-- Created with Inkscape (http://www.inkscape.org/) -->

<svg
   width="9.7588396mm"
   height="2.998383mm"
   viewBox="0 0 9.7588396 2.998383"
   version="1.1"
   id="svg1"
   inkscape:version="1.4 (e7c3feb100, 2024-10-09)"
   sodipodi:docname="robur.svg"
   xmlns:inkscape="http://www.inkscape.org/namespaces/inkscape"
   xmlns:sodipodi="http://sodipodi.sourceforge.net/DTD/sodipodi-0.dtd"
   xmlns="http://www.w3.org/2000/svg"
   xmlns:svg="http://www.w3.org/2000/svg">
  <sodipodi:namedview
     id="namedview1"
     pagecolor="#ffffff"
     bordercolor="#000000"
     borderopacity="0.25"
     inkscape:showpageshadow="2"
     inkscape:pageopacity="0.0"
     inkscape:pagecheckerboard="0"
     inkscape:deskcolor="#d1d1d1"
     inkscape:document-units="mm"
     inkscape:zoom="13.455443"
     inkscape:cx="24.785509"
     inkscape:cy="22.964684"
     inkscape:window-width="1617"
     inkscape:window-height="1211"
     inkscape:window-x="1558"
     inkscape:window-y="501"
     inkscape:window-maximized="0"
     inkscape:current-layer="layer1" />
  <defs
     id="defs1" />
  <g
     inkscape:label="Layer 1"
     inkscape:groupmode="layer"
     id="layer1"
     transform="translate(-100.12058,-123.43519)">
    <path
       style="font-weight:bold;font-size:3.175px;fill:#ffffff;stroke:none;stroke-width:0.264583"
       d="m 101.50487,124.58396 q -0.0729,-0.0341 -0.14573,-0.0496 -0.0713,-0.017 -0.14418,-0.017 -0.21394,0 -0.33021,0.13797 -0.11472,0.13643 -0.11472,0.39223 v 0.79995 h -0.55501 v -1.73633 h 0.55501 v 0.28526 q 0.10697,-0.17054 0.24494,-0.24805 0.13953,-0.0791 0.33332,-0.0791 0.0279,0 0.0605,0.003 0.0326,0.002 0.0946,0.009 z m 1.10225,-0.11782 q -0.18448,0 -0.28215,0.13332 -0.0961,0.13178 -0.0961,0.38138 0,0.24959 0.0961,0.38292 0.0977,0.13177 0.28215,0.13177 0.18139,0 0.27751,-0.13177 0.0961,-0.13333 0.0961,-0.38292 0,-0.2496 -0.0961,-0.38138 -0.0961,-0.13332 -0.27751,-0.13332 z m 0,-0.39688 q 0.44804,0 0.69919,0.24185 0.25269,0.24185 0.25269,0.66973 0,0.42788 -0.25269,0.66972 -0.25115,0.24185 -0.69919,0.24185 -0.44958,0 -0.70383,-0.24185 -0.2527,-0.24184 -0.2527,-0.66972 0,-0.42788 0.2527,-0.66973 0.25425,-0.24185 0.70383,-0.24185 z m 2.27894,1.42007 q 0.17828,0 0.2713,-0.13022 0.0946,-0.13023 0.0946,-0.37827 0,-0.24805 -0.0946,-0.37827 -0.093,-0.13023 -0.2713,-0.13023 -0.17829,0 -0.27441,0.13178 -0.0946,0.13022 -0.0946,0.37672 0,0.24649 0.0946,0.37827 0.0961,0.13022 0.27441,0.13022 z m -0.36897,-1.12396 q 0.11472,-0.15193 0.25424,-0.22324 0.13953,-0.0729 0.32091,-0.0729 0.32091,0 0.5271,0.2558 0.20619,0.25425 0.20619,0.65578 0,0.40152 -0.20619,0.65732 -0.20619,0.25425 -0.5271,0.25425 -0.18138,0 -0.32091,-0.0713 -0.13952,-0.0729 -0.25424,-0.2248 v 0.25115 h -0.55501 v -2.41226 h 0.55501 z m 1.69912,0.80615 v -1.0604 h 0.5581 v 0.17363 q 0,0.14108 -0.002,0.35502 -0.002,0.21239 -0.002,0.28371 0,0.20929 0.0109,0.3023 0.0109,0.0915 0.0372,0.13333 0.0341,0.0543 0.0884,0.0837 0.0558,0.0295 0.12712,0.0295 0.17363,0 0.27285,-0.13333 0.0992,-0.13332 0.0992,-0.37052 v -0.85731 h 0.55501 v 1.73633 h -0.55501 v -0.25115 q -0.12557,0.15193 -0.26665,0.2248 -0.13953,0.0713 -0.30851,0.0713 -0.30075,0 -0.45888,-0.18449 -0.15658,-0.18448 -0.15658,-0.5364 z m 3.56877,-0.58756 q -0.0729,-0.0341 -0.14573,-0.0496 -0.0713,-0.017 -0.14417,-0.017 -0.21394,0 -0.33022,0.13797 -0.11472,0.13643 -0.11472,0.39223 v 0.79995 h -0.555 v -1.73633 h 0.555 v 0.28526 q 0.10697,-0.17054 0.24495,-0.24805 0.13952,-0.0791 0.33331,-0.0791 0.0279,0 0.0605,0.003 0.0326,0.002 0.0946,0.009 z"
       id="text1"
       aria-label="robur" />
    <path
       style="fill:#ffffff;stroke:#ffffff;stroke-width:0.198015;stroke-dasharray:none;stroke-opacity:1"
       d="m 100.12058,126.33457 h 9.75884"
       id="path5" />
  </g>
</svg>
