<?xml version="1.0" encoding="UTF-8" standalone="no"?>
<svg
   id="Layer_1"
   data-name="Layer 1"
   version="1.1"
   viewBox="0 0 1162.0101 241.42"
   sodipodi:docname="terrateam.svg"
   width="1162.01"
   height="241.42"
   inkscape:version="1.4 (e7c3feb100, 2024-10-09)"
   xmlns:inkscape="http://www.inkscape.org/namespaces/inkscape"
   xmlns:sodipodi="http://sodipodi.sourceforge.net/DTD/sodipodi-0.dtd"
   xmlns="http://www.w3.org/2000/svg"
   xmlns:svg="http://www.w3.org/2000/svg">
  <defs
     id="defs10" />
  <sodipodi:namedview
     id="namedview10"
     pagecolor="#ffffff"
     bordercolor="#000000"
     borderopacity="0.25"
     inkscape:showpageshadow="2"
     inkscape:pageopacity="0.0"
     inkscape:pagecheckerboard="0"
     inkscape:deskcolor="#d1d1d1"
     inkscape:zoom="0.97617911"
     inkscape:cx="581.34823"
     inkscape:cy="119.85505"
     inkscape:window-width="1368"
     inkscape:window-height="831"
     inkscape:window-x="0"
     inkscape:window-y="32"
     inkscape:window-maximized="1"
     inkscape:current-layer="Layer_1" />
  <g
     id="g9"
     style="fill:#ffffff"
     transform="translate(-65.9,-73.29)">
    <path
       d="m 466.43,131.33 v 24.96 H 430.69 V 263.7 H 404.6 V 156.29 h -35.55 v -24.96 z"
       fill="#000"
       stroke-width="0"
       id="path1"
       style="fill:#ffffff" />
    <path
       d="m 479.48,226.45 c 3.28,11.85 12.16,17.77 26.66,17.77 9.33,0 16.39,-3.15 21.18,-9.45 l 19.67,11.34 c -9.33,13.49 -23.07,20.23 -41.22,20.23 -15.63,0 -28.18,-4.73 -37.63,-14.18 -9.45,-9.46 -14.18,-21.37 -14.18,-35.74 0,-14.37 4.66,-26.12 13.99,-35.64 9.33,-9.52 21.3,-14.28 35.93,-14.28 13.87,0 25.31,4.79 34.32,14.37 9.01,9.58 13.52,21.43 13.52,35.55 0,3.15 -0.32,6.49 -0.95,10.02 h -71.29 v 0 z m -0.38,-18.91 h 48.22 c -1.39,-6.43 -4.25,-11.22 -8.6,-14.37 -4.35,-3.15 -9.3,-4.73 -14.84,-4.73 -6.56,0 -11.98,1.67 -16.26,5.01 -4.29,3.34 -7.12,8.04 -8.51,14.09 z"
       fill="#000"
       stroke-width="0"
       id="path2"
       style="fill:#ffffff" />
    <path
       d="m 589.34,185.42 c 2.27,-6.05 6.02,-10.59 11.25,-13.61 5.23,-3.03 11.06,-4.54 17.49,-4.54 v 27.23 c -7.44,-0.88 -14.09,0.63 -19.95,4.54 -5.86,3.91 -8.79,10.4 -8.79,19.48 v 45.19 h -24.39 v -94.55 h 24.39 z"
       fill="#000"
       stroke-width="0"
       id="path3"
       style="fill:#ffffff" />
    <path
       d="m 652.88,185.42 c 2.27,-6.05 6.02,-10.59 11.25,-13.61 5.23,-3.03 11.06,-4.54 17.49,-4.54 v 27.23 c -7.44,-0.88 -14.09,0.63 -19.95,4.54 -5.86,3.91 -8.79,10.4 -8.79,19.48 v 45.19 h -24.39 v -94.55 h 24.39 z"
       fill="#000"
       stroke-width="0"
       id="path4"
       style="fill:#ffffff" />
    <path
       d="m 760.28,169.15 h 24.39 v 94.55 h -24.39 v -11.16 c -7.31,9.2 -17.59,13.8 -30.82,13.8 -13.23,0 -23.42,-4.82 -32.43,-14.47 -9.01,-9.64 -13.52,-21.46 -13.52,-35.46 0,-14 4.51,-25.81 13.52,-35.45 9.01,-9.64 19.82,-14.47 32.43,-14.47 13.24,0 23.51,4.6 30.82,13.8 v -11.16 z m -45,66.47 c 4.92,4.98 11.16,7.47 18.72,7.47 7.56,0 13.83,-2.49 18.81,-7.47 4.98,-4.98 7.47,-11.38 7.47,-19.19 0,-7.81 -2.49,-14.21 -7.47,-19.19 -4.98,-4.98 -11.25,-7.47 -18.81,-7.47 -7.56,0 -13.8,2.49 -18.72,7.47 -4.92,4.98 -7.38,11.38 -7.38,19.19 0,7.81 2.46,14.21 7.38,19.19 z"
       fill="#000"
       stroke-width="0"
       id="path5"
       style="fill:#ffffff" />
    <path
       d="m 857.1,192.6 h -21.37 v 39.33 c 0,3.28 0.82,5.67 2.46,7.19 1.64,1.51 4.03,2.36 7.19,2.55 3.15,0.19 7.06,0.16 11.72,-0.09 v 22.12 c -16.77,1.89 -28.59,0.31 -35.46,-4.73 -6.87,-5.04 -10.31,-14.06 -10.31,-27.04 V 192.6 h -16.45 v -23.45 h 16.45 v -19.1 l 24.39,-7.37 v 26.47 h 21.37 v 23.45 z"
       fill="#000"
       stroke-width="0"
       id="path6"
       style="fill:#ffffff" />
    <path
       d="m 888.3,226.45 c 3.28,11.85 12.16,17.77 26.66,17.77 9.33,0 16.39,-3.15 21.18,-9.45 l 19.67,11.34 c -9.33,13.49 -23.07,20.23 -41.22,20.23 -15.63,0 -28.17,-4.73 -37.63,-14.18 -9.45,-9.46 -14.18,-21.37 -14.18,-35.74 0,-14.37 4.66,-26.12 13.99,-35.64 9.33,-9.52 21.3,-14.28 35.93,-14.28 13.87,0 25.31,4.79 34.32,14.37 9.01,9.58 13.52,21.43 13.52,35.55 0,3.15 -0.32,6.49 -0.95,10.02 H 888.3 Z m -0.38,-18.91 h 48.22 c -1.39,-6.43 -4.25,-11.22 -8.6,-14.37 -4.35,-3.15 -9.3,-4.73 -14.84,-4.73 -6.56,0 -11.98,1.67 -16.26,5.01 -4.29,3.34 -7.12,8.04 -8.51,14.09 z"
       fill="#000"
       stroke-width="0"
       id="path7"
       style="fill:#ffffff" />
    <path
       d="m 1044.87,169.15 h 24.39 v 94.55 h -24.39 v -11.16 c -7.31,9.2 -17.59,13.8 -30.82,13.8 -13.23,0 -23.42,-4.82 -32.43,-14.47 -9.02,-9.64 -13.52,-21.46 -13.52,-35.46 0,-14 4.51,-25.81 13.52,-35.45 9.01,-9.64 19.82,-14.47 32.43,-14.47 13.24,0 23.51,4.6 30.82,13.8 v -11.16 z m -45.01,66.47 c 4.92,4.98 11.16,7.47 18.72,7.47 7.56,0 13.83,-2.49 18.82,-7.47 4.98,-4.98 7.47,-11.38 7.47,-19.19 0,-7.81 -2.49,-14.21 -7.47,-19.19 -4.98,-4.98 -11.25,-7.47 -18.82,-7.47 -7.57,0 -13.8,2.49 -18.72,7.47 -4.92,4.98 -7.38,11.38 -7.38,19.19 0,7.81 2.46,14.21 7.38,19.19 z"
       fill="#000"
       stroke-width="0"
       id="path8"
       style="fill:#ffffff" />
    <path
       d="m 1192.17,166.51 c 10.84,0 19.51,3.53 26,10.59 6.49,7.06 9.74,16.52 9.74,28.36 v 58.24 h -24.39 v -56.54 c 0,-5.67 -1.39,-10.08 -4.16,-13.24 -2.77,-3.15 -6.68,-4.73 -11.72,-4.73 -5.55,0 -9.87,1.83 -12.95,5.48 -3.09,3.66 -4.63,8.95 -4.63,15.88 v 53.14 h -24.39 v -56.54 c 0,-5.67 -1.39,-10.08 -4.16,-13.24 -2.77,-3.15 -6.68,-4.73 -11.72,-4.73 -5.42,0 -9.74,1.83 -12.95,5.48 -3.21,3.66 -4.82,8.95 -4.82,15.88 v 53.14 h -24.39 v -94.55 h 24.39 v 10.02 c 5.67,-8.44 14.43,-12.67 26.28,-12.67 11.85,0 20.17,4.54 25.72,13.62 6.3,-9.08 15.69,-13.62 28.17,-13.62 z"
       fill="#000"
       stroke-width="0"
       id="path9"
       style="fill:#ffffff" />
  </g>
  <path
     d="M 120.71,0 C 54.04,0 0,54.04 0,120.71 c 0,66.67 54.04,120.71 120.71,120.71 66.67,0 120.71,-54.04 120.71,-120.71 C 241.42,54.04 187.38,0 120.71,0 Z m 20.83,220.98 -37.11,-31.72 v -86.38 l 37.11,24.3 z M 83.3,107.39 45.5,74.33 l 103.25,-35.1 37.8,32.4 z"
     fill="#e64415"
     stroke-width="0"
     id="path10"
     style="fill:#ffffff" />
</svg>
