<svg xmlns="http://www.w3.org/2000/svg" width="80" height="80" viewBox="0 0 80 80" fill="none">
<rect width="80" height="80" rx="5" fill="white"/>
<path d="M23.2211 15V26.0526H49.8138V32.1002L39.1556 33.143C23.8542 34.6028 19 38.2522 19 49.409V52.3285C19 60.8787 25.2263 65.3622 32.9297 65.3622C36.4121 65.3622 40.211 64.5282 44.0101 62.547L49.8141 59.6274V64.7368H61V15H23.2211ZM49.8138 48.7834L42.638 52.433C39.8944 53.997 37.0452 54.8311 34.8292 54.8311C32.0856 54.8311 30.1858 53.8925 30.1858 50.4516V48.1576C30.3969 44.5082 32.824 43.5696 41.0551 42.7356L49.8138 41.797V48.7834Z" fill="#FF8800"/>
</svg>
