<svg id="Logo" xmlns="http://www.w3.org/2000/svg" viewBox="0 0 1300.67 586.9"><defs><style>.cls-1{fill:#054ada;}.cls-2{fill:#f80;}</style></defs><path id="hrefs" class="cls-1" d="M1034,373.43l53.34,0V346.78h-26.67V320.12L1034,320V293.35l-26.66,0V240.21L1034,240V213.5l80,.11v26.48l-53.33,0v26.66h26.67v26.69l26.45.1v26.69l26.88,0v53.17l-26.67,0-.21,26.69H1034ZM1007.34,347l26.45,0v26.48l-26.45,0ZM1114.22,240.3l26.45-.09v26.48l-26.45.09Zm-203.75-.18H883.81V213.45h26.66V187l26.67-.19V160.3l80-.18v26.47l-53.33.19v26.67h26.66v26.67H963.81v160H910.47Zm-48,80v-80H835.82V213.45H729.15v26.67H702.48V373.45h26.67v26.67H835.82V373.45h-80V320.12Zm-106.66-80h53.33v53.33H755.82ZM862.48,373.45H835.82V346.78h26.66ZM546,213.45h53.33v26.67H626V213.45h53.33v53.33h-80V400.12H546ZM354.29,160.12h53.33v53.33h80v26.67h26.67v160H461v-160H407.62v160H354.29Z"/><path id="a" class="cls-2" d="M186.67,293.45h80V240.12h-80V213.45H293.33v26.67H320v160H186.69V373.43H160V320.12h26.67Zm26.66,26.67v53.33h53.34V320.12Zm-53.33-80h26.67v26.66H160Z"/></svg>