<svg width="601" height="156" viewBox="0 0 601 156" fill="none" xmlns="http://www.w3.org/2000/svg">
<path d="M283 46C279.8 45.9 277.2 48.4 277.1 51.5C277.1 51.6 277.1 51.8 277.1 51.9V80.3C263.4 69.3 243.3 71.5 232.3 85.2C227.8 90.9 225.3 97.9 225.3 105.2C225 122.8 239 137.3 256.6 137.6C274.2 137.9 288.7 123.9 289 106.3C289 105.9 289 105.6 289 105.2V51.9C289 50.3 288.4 48.8 287.3 47.7C286.1 46.6 284.6 46 283 46ZM275.5 112.9C273.5 117.7 269.7 121.5 264.9 123.6C259.9 125.7 254.3 125.7 249.3 123.6C244.5 121.6 240.8 117.7 238.8 113C236.7 108.1 236.7 102.5 238.8 97.5C240.8 92.7 244.6 88.9 249.3 86.9C254.3 84.8 259.9 84.8 264.9 86.9C269.7 89 273.5 92.8 275.5 97.6C277.6 102.4 277.6 108 275.5 112.9Z" fill="#0091E2"/>
<path d="M349.5 82.7C337.1 70.3 316.9 70.3 304.5 82.7C298.5 88.7 295.2 96.8 295.2 105.2C294.9 122.8 308.9 137.3 326.5 137.6C344.1 137.9 358.6 123.9 358.9 106.3C358.9 105.9 358.9 105.6 358.9 105.2C358.9 101 358.1 96.9 356.5 93C354.9 89.1 352.5 85.6 349.5 82.7ZM345.4 112.8C344.4 115.2 342.9 117.3 341.1 119.1C339.3 120.9 337.1 122.4 334.8 123.4C329.8 125.5 324.2 125.5 319.2 123.4C314.4 121.4 310.6 117.5 308.6 112.8C306.5 107.9 306.5 102.3 308.6 97.3C310.6 92.5 314.4 88.8 319.2 86.7C324.2 84.6 329.8 84.6 334.8 86.7C337.2 87.7 339.3 89.2 341.1 91C342.9 92.8 344.4 95 345.4 97.3C347.5 102.4 347.5 108 345.4 112.8Z" fill="#0091E2"/>
<path d="M481.2 79.2C481.2 78.4 481 77.6 480.7 76.9C480.4 76.2 479.9 75.6 479.4 75C478.9 74.5 478.2 74 477.5 73.7C476.8 73.4 476 73.2 475.2 73.2C474.1 73.2 473 73.5 472 74.1L438 96.2V52C438 50.4 437.4 48.9 436.3 47.8C435.2 46.7 433.7 46 432.1 46C428.8 46 426.2 48.6 426.1 51.9C426.1 51.9 426.1 51.9 426.1 52V131C426.1 132.6 426.7 134.1 427.8 135.2C428.9 136.4 430.4 137 432 137C433.6 137 435.1 136.4 436.2 135.2C437.3 134.1 438 132.6 437.9 131V110.5L444.8 106L471.1 135.5C472.2 136.5 473.6 137.1 475.1 137C475.9 137 476.7 136.9 477.4 136.5C478.1 136.2 478.7 135.8 479.3 135.2C479.8 134.6 480.3 134 480.6 133.3C480.9 132.6 481.1 131.8 481.1 131C481.1 129.5 480.5 128 479.5 126.9L455.1 99.4L478.9 83.9C480.5 82.9 481.3 81.1 481.2 79.2Z" fill="#0091E2"/>
<path d="M382.5 91C384.3 89.2 386.5 87.7 388.9 86.7C391.4 85.7 394 85.1 396.7 85.1C399.1 85.1 401.4 85.5 403.6 86.3C405.8 87.2 407.9 88.4 409.7 90C410.8 90.9 412.2 91.3 413.6 91.3C415.2 91.4 416.8 90.8 417.9 89.6C419 88.5 419.6 86.9 419.6 85.3C419.6 83.6 418.9 81.9 417.5 80.8C411.8 75.7 404.4 72.9 396.7 73.1C379.1 73.1 364.8 87.4 364.8 105C364.8 122.6 379 136.8 396.5 136.9C404.2 136.9 411.6 134.2 417.4 129.2C418.6 128.1 419.3 126.5 419.3 124.8C419.4 121.6 416.9 119 413.8 118.9C413.7 118.9 413.5 118.9 413.4 118.9C412 118.9 410.7 119.3 409.6 120.1C407.8 121.7 405.8 122.9 403.6 123.8C401.4 124.6 399 125 396.7 125C394 125 391.4 124.5 388.9 123.4C386.5 122.4 384.4 120.9 382.5 119.1C374.7 111.3 374.7 98.7 382.4 90.9C382.5 91.1 382.5 91.1 382.5 91Z" fill="#0091E2"/>
<path d="M599.3 77.3C598.1 76.2 596.8 75.4 595.3 74.9C593.6 74.3 591.8 73.9 590 73.7C588.2 73.5 586.4 73.4 584.6 73.4C581 73.4 577.3 74 573.9 75.3C570.5 76.5 567.4 78.3 564.6 80.5V79.3C564.5 76 561.7 73.5 558.4 73.6C555.3 73.7 552.8 76.2 552.7 79.3V131.2C552.8 134.5 555.6 137 558.9 136.9C562 136.8 564.5 134.3 564.6 131.2V105.3C564.6 102.6 565.1 100 566.2 97.5C567.2 95.1 568.6 93 570.5 91.2C572.3 89.4 574.5 87.9 576.8 86.9C579.3 85.9 581.9 85.3 584.6 85.3C587.3 85.3 589.9 85.8 592.4 86.7C593.2 87.1 594 87.3 594.9 87.3C595.7 87.3 596.5 87.2 597.2 86.8C597.9 86.5 598.5 86.1 599.1 85.5C599.6 85 600.1 84.3 600.4 83.6C600.7 82.9 600.9 82.1 600.9 81.3C601 79.8 600.4 78.4 599.3 77.3Z" fill="#0091E2"/>
<path d="M544.1 93C539 81.2 527.4 73.5 514.6 73.4C497 73.4 482.8 87.6 482.7 105.2C482.7 122.8 497 137.1 514.6 137.1C522.2 137.1 529.6 134.4 535.4 129.4C535.5 129.3 535.6 129.2 535.6 129.2C536.1 128.8 536.6 128.3 536.9 127.7C538.8 124.9 538.1 121.2 535.4 119.3C533.1 117.8 530.1 118.1 528.1 120C527.9 120.2 527.3 120.7 527.3 120.8L527.2 120.9C525.5 122.3 523.6 123.5 521.5 124.2C519.3 125 517 125.4 514.6 125.3C512.4 125.3 510.3 125 508.2 124.3C506.2 123.6 504.3 122.7 502.6 121.4C500.9 120.2 499.4 118.7 498.2 117C496.9 115.3 496 113.3 495.4 111.3H540.4C542 111.3 543.5 110.7 544.6 109.6C545.8 108.5 546.4 107 546.3 105.4C546.4 101.1 545.6 96.9 544.1 93ZM495.4 99.4C496 97.3 496.9 95.4 498.2 93.7C499.4 92 500.9 90.5 502.6 89.3C504.3 88.1 506.2 87.1 508.2 86.4C510.2 85.7 512.4 85.4 514.5 85.4C516.6 85.4 518.8 85.7 520.8 86.4C524.8 87.7 528.3 90.3 530.8 93.7C532.1 95.4 533 97.4 533.7 99.4H495.4V99.4Z" fill="#0091E2"/>
<path d="M579 128.4C576.7 128.4 574.9 130.3 574.9 132.6C574.9 134.9 576.8 136.7 579.1 136.7C581.4 136.7 583.2 134.8 583.2 132.6C583.2 130.2 581.3 128.4 579 128.4ZM579 135.8C577.2 135.9 575.7 134.5 575.6 132.7C575.5 130.9 576.9 129.4 578.7 129.3C580.5 129.2 582 130.6 582.1 132.4C582.1 132.5 582.1 132.5 582.1 132.6C582.2 134.3 580.8 135.8 579.1 135.8C579.1 135.8 579.1 135.8 579 135.8Z" fill="#0091E2"/>
<path d="M580 132.6C580.5 132.5 580.8 132.1 580.8 131.6C580.8 131.2 580.7 130.9 580.4 130.7C580 130.5 579.5 130.4 579 130.4C578.5 130.4 577.9 130.4 577.4 130.5V134.6H578.3V133H578.7C579.2 133 579.5 133.2 579.6 133.6C579.7 133.9 579.8 134.3 579.9 134.6H580.9C580.7 134.3 580.6 133.9 580.6 133.6C580.7 133.2 580.4 132.8 580 132.6ZM578.8 132.3H578.3V131.1C578.5 131.1 578.7 131.1 578.8 131.1C579.4 131.1 579.7 131.4 579.7 131.7C579.8 132.1 579.3 132.4 578.8 132.3Z" fill="#0091E2"/>
<path d="M214.4 59.4C213.8 58.9 208.4 54.8 196.8 54.8C193.8 54.8 190.7 55.1 187.7 55.6C185.5 40.3 172.8 32.9 172.3 32.5L169.2 30.7L167.2 33.6C164.7 37.5 162.8 41.9 161.7 46.4C159.6 55.1 160.9 63.3 165.3 70.3C160 73.3 151.4 74 149.6 74.1H7.60002C3.90002 74.1 0.900015 77.1 0.900015 80.8C0.700015 93.2 2.80001 105.6 7.10002 117.3C12 130.1 19.3 139.6 28.7 145.4C39.3 151.9 56.6 155.6 76.1 155.6C84.9 155.6 93.7 154.8 102.4 153.2C114.5 151 126.1 146.8 136.8 140.7C145.6 135.6 153.5 129.1 160.2 121.5C171.5 108.8 178.2 94.6 183.1 82C183.8 82 184.4 82 185.1 82C197.4 82 205 77.1 209.2 72.9C212 70.3 214.1 67.1 215.6 63.5L216.5 60.9L214.4 59.4Z" fill="#0091E2"/>
<path d="M20.8 70H39.8C40.7 70 41.5 69.3 41.5 68.3V51.3C41.5 50.4 40.8 49.6 39.8 49.6H20.8C19.9 49.6 19.1 50.3 19.1 51.3V68.3C19.2 69.3 19.9 70 20.8 70Z" fill="#0091E2"/>
<path d="M47 70H66C66.9 70 67.7 69.3 67.7 68.3V51.3C67.7 50.4 67 49.6 66 49.6H47C46.1 49.6 45.3 50.3 45.3 51.3V68.3C45.4 69.3 46.1 70 47 70Z" fill="#0091E2"/>
<path d="M73.7 70H92.7C93.6 70 94.4 69.3 94.4 68.3V51.3C94.4 50.4 93.7 49.6 92.7 49.6H73.7C72.8 49.6 72 50.3 72 51.3V68.3C72 69.3 72.7 70 73.7 70Z" fill="#0091E2"/>
<path d="M100 70H119C119.9 70 120.7 69.3 120.7 68.3V51.3C120.7 50.4 120 49.6 119 49.6H100C99.1 49.6 98.3 50.3 98.3 51.3V68.3C98.3 69.3 99.1 70 100 70Z" fill="#0091E2"/>
<path d="M47 45.7H66C66.9 45.7 67.7 44.9 67.7 44V27C67.7 26.1 67 25.3 66 25.3H47C46.1 25.3 45.3 26 45.3 27V44C45.4 44.9 46.1 45.7 47 45.7Z" fill="#0091E2"/>
<path d="M73.7 45.7H92.7C93.6 45.7 94.4 44.9 94.4 44V27C94.4 26.1 93.7 25.3 92.7 25.3H73.7C72.8 25.3 72 26 72 27V44C72 44.9 72.7 45.7 73.7 45.7Z" fill="#0091E2"/>
<path d="M100 45.7H119C119.9 45.7 120.7 44.9 120.7 44V27C120.7 26.1 119.9 25.3 119 25.3H100C99.1 25.3 98.3 26 98.3 27V44C98.3 44.9 99.1 45.7 100 45.7Z" fill="#0091E2"/>
<path d="M100 21.3H119C119.9 21.3 120.7 20.6 120.7 19.6V2.60001C120.7 1.70001 119.9 0.899994 119 0.899994H100C99.1 0.899994 98.3 1.60001 98.3 2.60001V19.6C98.3 20.5 99.1 21.3 100 21.3Z" fill="#0091E2"/>
<path d="M126.5 70H145.5C146.4 70 147.2 69.3 147.2 68.3V51.3C147.2 50.4 146.5 49.6 145.5 49.6H126.5C125.6 49.6 124.8 50.3 124.8 51.3V68.3C124.9 69.3 125.6 70 126.5 70Z" fill="#0091E2"/>
</svg>
