<?xml version="1.0" encoding="utf-8"?>
<svg viewBox="0 0 62.488 12.094" width="62.488" height="12.094" xmlns="http://www.w3.org/2000/svg">
  <g transform="matrix(0.076238, 0, 0, 0.076238, -9.869545, -16.954924)" style="">
    <path class="cls-1" d="M 193.587 247.245 C 183.937 247.245 181.147 251.525 181.147 260.965 L 181.147 276.625 L 206.887 276.625 L 204.307 301.925 L 181.157 301.925 L 181.157 378.705 L 150.267 378.705 L 150.267 301.925 L 129.457 301.925 L 129.457 276.625 L 150.267 276.625 L 150.267 261.395 C 150.267 235.875 160.557 222.395 189.267 222.395 C 195.283 222.381 201.295 222.738 207.267 223.465 L 207.267 247.275 Z" style="fill: rgb(24, 119, 242);"/>
    <path class="cls-1" d="M 209.027 324.445 C 209.027 295.925 222.537 274.445 250.847 274.445 C 266.287 274.445 275.717 282.385 280.227 292.245 L 280.227 276.625 L 309.817 276.625 L 309.817 378.705 L 280.227 378.705 L 280.227 363.265 C 275.937 373.135 266.287 380.855 250.847 380.855 C 222.537 380.855 209.027 359.405 209.027 330.855 Z M 239.907 331.315 C 239.907 346.535 245.477 356.615 259.847 356.615 C 272.507 356.615 278.937 347.395 278.937 332.815 L 278.937 322.565 C 278.937 307.985 272.507 298.765 259.847 298.765 C 245.477 298.765 239.907 308.845 239.907 324.065 Z" style="fill: rgb(24, 119, 242);"/>
    <path class="cls-1" d="M 374.157 274.475 C 386.157 274.475 397.527 277.055 403.747 281.335 L 396.887 303.215 C 390.453 300.151 383.423 298.539 376.297 298.495 C 359.567 298.495 352.297 308.145 352.297 324.665 L 352.297 330.665 C 352.297 347.185 359.587 356.835 376.297 356.835 C 383.423 356.79 390.453 355.179 396.887 352.115 L 403.747 373.985 C 397.527 378.275 386.167 380.855 374.157 380.855 C 337.907 380.855 321.397 361.335 321.397 330.025 L 321.397 325.305 C 321.397 293.995 337.907 274.475 374.157 274.475 Z" style="fill: rgb(24, 119, 242);"/>
    <path class="cls-1" d="M 407.817 331.565 L 407.817 322.565 C 407.817 293.615 424.327 274.565 458.007 274.565 C 489.747 274.565 503.687 293.865 503.687 322.175 L 503.687 338.475 L 438.687 338.475 C 439.337 352.415 445.557 358.635 462.687 358.635 C 474.277 358.635 486.497 356.275 495.507 352.415 L 501.157 373.565 C 493.007 377.865 476.277 381.075 461.487 381.075 C 422.397 381.065 407.817 361.565 407.817 331.565 Z M 438.697 318.265 L 476.017 318.265 L 476.017 315.695 C 476.017 304.545 471.517 295.695 458.017 295.695 C 444.067 295.705 438.697 304.505 438.697 318.225 Z" style="fill: rgb(24, 119, 242);"/>
    <path class="cls-1" d="M 618.157 330.885 C 618.157 359.405 604.437 380.885 576.157 380.885 C 560.717 380.885 549.997 373.165 545.707 363.295 L 545.707 378.735 L 516.547 378.735 L 516.547 225.365 L 547.427 222.565 L 547.427 290.765 C 551.927 281.765 561.797 274.465 576.167 274.465 C 604.477 274.465 618.167 295.915 618.167 324.465 Z M 587.277 323.805 C 587.277 309.435 581.707 298.715 566.907 298.715 C 554.247 298.715 547.387 307.715 547.387 322.305 L 547.387 333.025 C 547.387 347.605 554.247 356.615 566.907 356.615 C 581.707 356.615 587.277 345.895 587.277 331.525 Z" style="fill: rgb(24, 119, 242);"/>
    <path class="cls-1" d="M 628.487 330.235 L 628.487 325.095 C 628.487 295.705 645.217 274.475 679.317 274.475 C 713.417 274.475 730.157 295.705 730.157 325.095 L 730.157 330.235 C 730.157 359.615 713.427 380.855 679.327 380.855 C 645.227 380.855 628.487 359.615 628.487 330.235 Z M 699.267 322.945 C 699.267 309.435 693.687 298.715 679.267 298.715 C 664.847 298.715 659.317 309.435 659.317 322.945 L 659.317 332.385 C 659.317 345.895 664.897 356.615 679.267 356.615 C 693.637 356.615 699.267 345.895 699.267 332.385 Z" style="fill: rgb(24, 119, 242);"/>
    <path class="cls-1" d="M 740.427 330.235 L 740.427 325.095 C 740.427 295.705 757.157 274.475 791.257 274.475 C 825.357 274.475 842.087 295.705 842.087 325.095 L 842.087 330.235 C 842.087 359.615 825.357 380.855 791.257 380.855 C 757.157 380.855 740.427 359.615 740.427 330.235 Z M 811.207 322.945 C 811.207 309.435 805.627 298.715 791.257 298.715 C 776.887 298.715 771.317 309.435 771.317 322.945 L 771.317 332.385 C 771.317 345.895 776.887 356.615 791.257 356.615 C 805.627 356.615 811.207 345.895 811.207 332.385 Z" style="fill: rgb(24, 119, 242);"/>
    <path class="cls-1" d="M 884.547 325.305 L 914.997 276.625 L 947.807 276.625 L 915.857 327.025 L 949.097 378.705 L 916.287 378.705 L 884.547 328.705 L 884.547 378.705 L 853.657 378.705 L 853.657 225.365 L 884.547 222.565 Z" style="fill: rgb(24, 119, 242);"/>
  </g>
</svg>