<svg width="104" height="41" xmlns="http://www.w3.org/2000/svg"><path d="M62.21 16.934c.868 0 1.52-.364 1.966-.864v-1.984c-1.598.098-3.156.5-3.156 1.809 0 .617.48 1.039 1.19 1.039m1.966-4.407v-.902c0-.773-.446-1.234-1.426-1.234s-2.02.406-3.29 1.02l-1-2.079c1.384-.691 3-1.172 4.407-1.172 2.961 0 4.117 1.442 4.117 3.559v4.312c0 .555.329.809.848.809v1.941c-1.945 0-2.754-.289-3.332-1.27-.863.923-1.824 1.442-3.21 1.442-1.81 0-3.08-1.094-3.08-2.73 0-2.254 2.134-3.426 5.966-3.696m5.398-4.137h2.656l.133 1.192c.754-.785 1.848-1.441 3.14-1.441 2.31 0 3.29 1.422 3.29 3.754v6.828h-2.828v-6.907c0-.925-.387-1.558-1.348-1.558-.867 0-1.617.441-2.234 1.21v7.255h-2.809M53.352 5.254v8.969c0 1.382-.676 2.172-1.848 2.172-.79 0-1.406-.387-1.89-1.04l-1.93 1.747c.996 1.203 2.343 1.855 3.972 1.855 2.809 0 4.602-1.598 4.602-4.68V5.254m-3.211 22.215c-1.477-.375-2.754-.7-2.754-1.797 0-.914.875-1.531 2.176-1.531 1.222 0 2.48.3 3.644.863l1.012-2.152c-1.59-.743-3.16-1.106-4.793-1.106-2.895 0-4.918 1.633-4.918 3.965 0 2.965 2.426 3.594 4.57 4.152 1.5.39 2.797.727 2.797 1.852 0 .984-.863 1.57-2.312 1.57-1.254 0-2.664-.422-3.985-1.195l-1.308 2.148c1.437.88 3.511 1.442 5.312 1.442 3.192 0 5.176-1.535 5.176-4.004 0-3.043-2.559-3.688-4.617-4.207m6.894-.356h-1.636v-2h1.636v-2.578h2.829v2.578h2.312v2H62.77v5.14c0 .767.289 1.153.945 1.153.52 0 1-.172 1.402-.46l1.04 1.69a5.014 5.014 0 0 1-3.02 1.04c-2.157 0-3.196-1.055-3.196-3.367m7.5-7.196h2.598l.191 1.598c.79-1.387 1.77-1.887 2.946-1.887.48 0 .922.078 1.27.211l-.407 2.578a3.93 3.93 0 0 0-1.383-.23c-1.058 0-1.77.656-2.406 1.847v6.215h-2.809m30.188-8.332h-1.637v-2h1.637v-2.578h2.828v2.578h2.313v2h-2.313v5.14c0 .767.29 1.153.941 1.153.52 0 1-.172 1.407-.46l1.039 1.69a5.014 5.014 0 0 1-3.02 1.04c-2.156 0-3.195-1.055-3.195-3.367M85.738 10.156c1.348 0 1.848 1 1.848 2.309H83.41c.27-1.5 1.172-2.309 2.328-2.309m-.078-2.039c-2.867 0-5.176 2.04-5.176 5.352 0 3.46 2.157 5.48 5.196 5.48a7.36 7.36 0 0 0 4.254-1.344l-1.176-1.792c-.863.539-1.828.886-2.867.886-1.426 0-2.239-.73-2.485-2.199h6.664c.075-.441.188-.902.188-1.668 0-2.773-1.633-4.715-4.598-4.715m5 18.766c1.344 0 1.844 1 1.844 2.308h-4.176c.27-1.5 1.176-2.308 2.332-2.308m-.078-2.04c-2.867 0-5.18 2.04-5.18 5.352 0 3.461 2.157 5.485 5.2 5.485 1.539 0 2.98-.465 4.25-1.348l-1.172-1.793c-.868.54-1.828.887-2.868.887-1.43 0-2.242-.73-2.484-2.2h6.66c.078-.44.192-.902.192-1.667 0-2.774-1.637-4.715-4.598-4.715m-10.727 2.039c1.348 0 1.848 1 1.848 2.308h-4.176c.27-1.5 1.176-2.308 2.328-2.308m-.074-2.04c-2.867 0-5.18 2.04-5.18 5.352 0 3.461 2.157 5.485 5.196 5.485 1.543 0 2.984-.465 4.258-1.348l-1.176-1.793c-.867.54-1.828.887-2.867.887-1.43 0-2.242-.73-2.489-2.2h6.665c.078-.44.19-.902.19-1.667 0-2.77-1.636-4.715-4.597-4.715M6.48 28.234c2.77 4.727 7.91 7.903 13.774 7.887 8.77-.027 15.887-7.18 15.863-15.953-.023-8.773-7.18-15.89-15.953-15.867-8.77.023-15.887 7.183-15.863 15.953a16.08 16.08 0 0 0 .32 3.117c.031.129.164.2.29.168l2.214-.55a.242.242 0 0 0 .184-.29h.003a13.026 13.026 0 0 1-.238-2.453c-.02-7.242 5.856-13.152 13.098-13.172 7.246-.02 13.156 5.86 13.172 13.102.023 7.242-5.856 13.152-13.098 13.172-4.797.011-9.008-2.563-11.308-6.407a.254.254 0 0 0-.329-.109l-2.027 1.07a.246.246 0 0 0-.102.332"/><path d="M28.582 23.648l2.02 1.082c.12.063.28.028.328-.101a11.38 11.38 0 0 0 .883-4.32c.054-6.399-5.11-11.645-11.508-11.7h-.098c-6.344 0-11.547 5.16-11.602 11.504-.05 6.399 5.11 11.649 11.508 11.7l.098.003c3.031 0 5.797-1.18 7.871-3.101.102-.09.121-.246.027-.348l-1.722-1.554c-.102-.09-.254-.07-.344.015l-.004-.004a8.77 8.77 0 0 1-5.828 2.219h-.074c-4.871-.043-8.797-4.035-8.758-8.906.039-4.828 4-8.758 8.828-8.758h.078c4.867.043 8.797 4.039 8.754 8.906a8.775 8.775 0 0 1-.566 3.031.257.257 0 0 0 .109.332"/><path d="M31.895 3.727c-.11-.075-.258-.055-.332.058L30.265 5.66c-.075.11-.063.262.047.34 4.44 3.168 7.347 8.355 7.343 14.215 0 9.617-7.824 17.437-17.441 17.437-9.617 0-17.442-7.824-17.442-17.445 0-9.613 7.825-17.437 17.446-17.434a17.345 17.345 0 0 1 5.96 1.051.245.245 0 0 0 .31-.14l.816-2.141a.241.241 0 0 0-.133-.305A20.034 20.034 0 0 0 20.219 0C9.07-.004.004 9.063 0 20.21c0 11.145 9.07 20.216 20.215 20.216 11.144 0 20.215-9.067 20.215-20.211 0-6.8-3.375-12.824-8.535-16.488"/></svg>