<svg width="486" height="348" viewBox="0 0 486 348" fill="none" xmlns="http://www.w3.org/2000/svg">
<g clip-path="url(#clip0_110:494)">
<path opacity="0.1" d="M478.304 233.958C467.032 257.222 444.144 272.777 420.425 283.036C388.492 296.851 353.327 302.331 318.645 300.013C312.567 299.609 306.507 298.962 300.466 298.074C279.484 295.011 259.029 289.052 239.685 280.366C234.102 277.851 228.632 275.104 223.275 272.128C214.328 267.166 205.755 261.557 197.625 255.346C195.58 253.784 193.564 252.182 191.575 250.541C190.197 249.403 188.831 248.24 187.443 247.111C184.516 244.73 181.504 242.468 178.144 240.775C177.13 240.263 176.091 239.804 175.03 239.399C164.39 235.35 152.121 236.878 141.044 240.036C132.618 242.438 124.405 245.728 115.988 248.075C112.244 249.151 108.429 249.962 104.572 250.503C95.959 251.593 87.2127 250.825 78.9219 248.249L78.2134 248.028C77.0256 247.655 75.8476 247.246 74.6795 246.802L73.971 246.53C72.8397 246.094 71.7324 245.626 70.6492 245.125L69.9407 244.803C68.8094 244.276 67.7021 243.72 66.6189 243.134C66.2286 242.931 65.8425 242.71 65.4607 242.502C59.2976 239.058 53.6954 234.694 48.8473 229.561C48.7073 229.421 48.5758 229.277 48.4231 229.137C47.7486 228.407 47.0867 227.664 46.4461 226.904C46.2086 226.624 45.971 226.344 45.7376 226.055C44.9768 225.127 44.2429 224.178 43.5358 223.207C43.4298 223.067 43.3279 222.923 43.2261 222.783C40.3292 218.773 37.9275 214.428 36.0734 209.842C36.014 209.702 35.9588 209.557 35.9079 209.417C35.3423 207.96 34.8261 206.479 34.3594 204.973C34.1685 204.345 33.9861 203.7 33.8249 203.072C33.7697 202.885 33.7188 202.694 33.6722 202.507C31.3304 193.284 31.0631 183.696 31.0631 174.163C31.0631 173.051 31.0631 171.941 31.0631 170.832C31.131 155.412 31.3685 139.729 33.6425 124.521C33.6425 124.415 33.6722 124.309 33.6891 124.207C34.4502 119.088 35.4854 114.013 36.7904 109.004C38.1561 103.749 39.9015 98.5993 42.0128 93.5969C47.2437 81.2882 54.8504 70.0873 63.2971 59.7056C84.5728 33.5815 112.475 11.6508 145.134 3.44223C180.324 -5.39879 219.435 3.07297 247.822 25.6827C256.476 32.5756 264.252 40.7375 273.972 46.0217C282.457 50.6226 292.388 52.5284 301.476 48.9079C308.985 45.9156 313.872 44.4301 322.306 44.8842C339.766 45.8725 356.979 49.4794 373.368 55.5843C374.03 55.8262 374.691 56.0766 375.349 56.3271C418.074 72.6806 454.801 105.171 473.892 146.923C474.398 148.027 474.889 149.139 475.364 150.259C486.747 176.859 490.862 208.034 478.304 233.958Z" fill="#DC5402"/>
<path opacity="0.1" d="M51.0364 315.352C71.7207 315.352 88.4886 312.658 88.4886 309.334C88.4886 306.01 71.7207 303.315 51.0364 303.315C30.3522 303.315 13.5843 306.01 13.5843 309.334C13.5843 312.658 30.3522 315.352 51.0364 315.352Z" fill="#DC5402"/>
<path opacity="0.1" d="M387.02 348C423.695 348 453.427 345.112 453.427 341.549C453.427 337.986 423.695 335.097 387.02 335.097C350.344 335.097 320.613 337.986 320.613 341.549C320.613 345.112 350.344 348 387.02 348Z" fill="#DC5402"/>
<path d="M447.144 45.733H54.5704C51.6439 45.733 49.2716 48.1065 49.2716 51.0342V268.919C49.2716 271.847 51.6439 274.22 54.5704 274.22H447.144C450.07 274.22 452.442 271.847 452.442 268.919V51.0342C452.442 48.1065 450.07 45.733 447.144 45.733Z" fill="url(#paint0_linear_110:494)"/>
<path d="M446.55 48.946H55.211C52.2845 48.946 49.9122 51.3195 49.9122 54.2473V268.159C49.9122 271.087 52.2845 273.46 55.211 273.46H446.55C449.476 273.46 451.848 271.087 451.848 268.159V54.2473C451.848 51.3195 449.476 48.946 446.55 48.946Z" fill="white"/>
<path d="M446.55 48.946H55.211C52.2845 48.946 49.9122 51.3195 49.9122 54.2473V268.159C49.9122 271.087 52.2845 273.46 55.211 273.46H446.55C449.476 273.46 451.848 271.087 451.848 268.159V54.2473C451.848 51.3195 449.476 48.946 446.55 48.946Z" fill="white"/>
<path opacity="0.04" d="M446.55 48.946H55.211C52.2845 48.946 49.9122 51.3195 49.9122 54.2473V268.159C49.9122 271.087 52.2845 273.46 55.211 273.46H446.55C449.476 273.46 451.848 271.087 451.848 268.159V54.2473C451.848 51.3195 449.476 48.946 446.55 48.946Z" fill="white"/>
<path d="M449.808 46.3698H51.9528C51.4116 46.3698 50.8925 46.5848 50.5099 46.9677C50.1272 47.3506 49.9122 47.8698 49.9122 48.4113V57.0401H451.832V48.4113C451.832 47.8728 451.619 47.3561 451.24 46.9737C450.861 46.5913 450.346 46.3742 449.808 46.3698Z" fill="#5A5773"/>
<path d="M57.9389 54.4637C59.4618 54.4637 60.6964 53.2286 60.6964 51.7049C60.6964 50.1812 59.4618 48.946 57.9389 48.946C56.4159 48.946 55.1813 50.1812 55.1813 51.7049C55.1813 53.2286 56.4159 54.4637 57.9389 54.4637Z" fill="white"/>
<path d="M65.3631 54.4637C66.8861 54.4637 68.1207 53.2286 68.1207 51.7049C68.1207 50.1812 66.8861 48.946 65.3631 48.946C63.8401 48.946 62.6055 50.1812 62.6055 51.7049C62.6055 53.2286 63.8401 54.4637 65.3631 54.4637Z" fill="white"/>
<path d="M72.7874 54.4637C74.3103 54.4637 75.545 53.2286 75.545 51.7049C75.545 50.1812 74.3103 48.946 72.7874 48.946C71.2644 48.946 70.0298 50.1812 70.0298 51.7049C70.0298 53.2286 71.2644 54.4637 72.7874 54.4637Z" fill="white"/>
<path opacity="0.2" d="M190.88 77.1074H83.0159V86.2668H190.88V77.1074Z" fill="#DC5402"/>
<path opacity="0.1" d="M418.745 113.834H83.0159V254.73H418.745V113.834Z" fill="#5A5773"/>
<path opacity="0.1" d="M279.589 123.023H273.84V111.852C273.84 99.2461 263.794 88.7667 251.194 88.5757C248.156 88.5438 245.141 89.1137 242.324 90.2527C239.507 91.3917 236.943 93.0772 234.78 95.212C232.617 97.3469 230.898 99.8889 229.721 102.692C228.544 105.494 227.934 108.502 227.924 111.542V123.023H222.189C219.654 123.031 217.225 124.042 215.433 125.835C213.64 127.628 212.63 130.058 212.622 132.594V178.527C212.63 181.063 213.64 183.493 215.433 185.286C217.225 187.079 219.654 188.09 222.189 188.098H279.589C282.123 188.09 284.552 187.079 286.343 185.285C288.135 183.492 289.145 181.062 289.151 178.527V132.594C289.145 130.058 288.135 127.629 286.343 125.835C284.552 124.042 282.123 123.031 279.589 123.023ZM254.24 152.882V169.333C254.246 170.204 253.92 171.045 253.329 171.685C252.739 172.325 251.927 172.716 251.058 172.78C250.605 172.801 250.152 172.73 249.727 172.571C249.302 172.412 248.913 172.169 248.585 171.855C248.257 171.542 247.995 171.165 247.817 170.747C247.638 170.33 247.546 169.881 247.546 169.427V152.874C245.994 152.116 244.744 150.855 244.001 149.296C243.257 147.737 243.064 145.972 243.452 144.288C243.841 142.605 244.788 141.103 246.139 140.028C247.491 138.952 249.166 138.367 250.893 138.367C252.62 138.367 254.296 138.952 255.647 140.028C256.998 141.103 257.945 142.605 258.334 144.288C258.722 145.972 258.529 147.737 257.785 149.296C257.042 150.855 255.792 152.116 254.24 152.874V152.882ZM267.154 123.023H234.619V111.542C234.619 107.227 236.332 103.089 239.382 100.038C242.431 96.9874 246.568 95.2734 250.88 95.2734C255.193 95.2734 259.329 96.9874 262.379 100.038C265.428 103.089 267.142 107.227 267.142 111.542L267.154 123.023Z" fill="black"/>
<path d="M279.589 122.174H273.84V111.003C273.84 98.3972 263.794 87.9179 251.194 87.7269C248.156 87.6949 245.141 88.2649 242.324 89.4038C239.507 90.5428 236.943 92.2283 234.78 94.3631C232.617 96.498 230.898 99.04 229.721 101.843C228.544 104.645 227.934 107.653 227.924 110.693V122.174H222.189C219.654 122.182 217.225 123.193 215.433 124.986C213.64 126.779 212.63 129.209 212.622 131.745V177.678C212.63 180.214 213.64 182.644 215.433 184.437C217.225 186.23 219.654 187.241 222.189 187.249H279.589C282.123 187.241 284.552 186.23 286.343 184.437C288.135 182.643 289.145 180.213 289.151 177.678V131.745C289.145 129.21 288.135 126.78 286.343 124.986C284.552 123.193 282.123 122.182 279.589 122.174ZM254.24 152.033V168.484C254.246 169.356 253.92 170.196 253.329 170.836C252.739 171.476 251.927 171.867 251.058 171.931C250.605 171.952 250.152 171.881 249.727 171.722C249.302 171.563 248.913 171.32 248.585 171.006C248.257 170.693 247.995 170.316 247.817 169.899C247.638 169.481 247.546 169.032 247.546 168.578V152.025C245.994 151.268 244.744 150.006 244.001 148.447C243.257 146.888 243.064 145.123 243.452 143.44C243.841 141.756 244.788 140.254 246.139 139.179C247.491 138.104 249.166 137.518 250.893 137.518C252.62 137.518 254.296 138.104 255.647 139.179C256.998 140.254 257.945 141.756 258.334 143.44C258.722 145.123 258.529 146.888 257.785 148.447C257.042 150.006 255.792 151.268 254.24 152.025V152.033ZM267.154 122.174H234.619V110.693C234.619 106.378 236.332 102.24 239.382 99.1895C242.431 96.1385 246.568 94.4245 250.88 94.4245C255.193 94.4245 259.329 96.1385 262.379 99.1895C265.428 102.24 267.142 106.378 267.142 110.693L267.154 122.174Z" fill="#DC5402"/>
<path opacity="0.1" d="M418.745 100.273H384.763V108.299H418.745V100.273Z" fill="#5A5773"/>
<path d="M430.31 343.492C430.086 342.367 429.703 341.28 429.173 340.262L424.082 332.657H424.111C424.111 332.657 423.31 328.837 424.111 326.961C424.913 325.085 421.252 320.471 421.252 320.471C421.252 320.471 420.807 319.312 421.969 317.886C423.131 316.46 421.252 312.284 421.252 312.284C421.252 312.284 420.361 303.561 420.272 302.229C420.183 300.896 419.466 293.511 419.466 293.511L417.769 277.853L414.748 236.356L414.693 235.579C415.067 235.397 415.266 235.282 415.266 235.282L414.664 212.337L415.185 211.866C419.742 207.741 430.25 198.191 430.144 197.983C430.038 197.775 428.871 182.037 428.736 178.098C428.619 175.299 428.007 172.543 426.928 169.957C426.665 169.435 425.906 165.993 425.592 164.537C425.507 164.138 425.452 163.888 425.452 163.888C425.452 163.888 422.372 158.014 422.639 155.344C422.907 152.674 423.441 150.675 416.874 149.741C416.874 149.741 411.359 148.918 408.075 146.673C406.133 145.328 404.011 144.265 401.771 143.515C401.771 143.515 399.93 140.119 398.648 141.27C398.106 140.058 397.7 138.789 397.439 137.488L397.401 137.25C399.833 135.553 401.583 133.047 402.339 130.179C402.382 130.018 402.416 129.852 402.454 129.691C402.581 129.734 402.714 129.758 402.848 129.763C403.964 129.763 404.651 128.519 405.695 128.125C406.119 127.959 406.641 127.934 406.968 127.598C407.075 127.469 407.156 127.319 407.204 127.158C407.252 126.997 407.267 126.828 407.248 126.66C407.258 126.545 407.258 126.428 407.248 126.312C407.25 126.271 407.25 126.23 407.248 126.189V126.232C406.964 124.687 405.767 123.316 405.899 121.745C406.026 120.268 407.324 118.97 407.218 117.531C407.217 117.417 407.207 117.304 407.188 117.191V117.242C407.03 116.68 406.739 116.165 406.34 115.74C405.883 115.117 405.284 114.614 404.592 114.271C404.002 114.012 403.319 113.953 402.768 113.643C401.147 112.76 401.151 110.46 400.188 108.889C399.776 108.234 399.19 107.705 398.496 107.361C397.802 107.017 397.027 106.872 396.256 106.941C395.051 107.06 393.96 107.701 392.768 107.909C391.139 108.197 389.48 107.667 387.936 107.06C386.392 106.453 384.827 105.787 383.168 105.787C381.509 105.787 379.714 106.635 379.214 108.202C378.947 109.051 379.078 109.963 378.874 110.825C378.51 112.344 377.177 113.431 375.799 114.186C374.95 114.657 373.94 115.196 373.677 116.088C373.677 116.062 373.677 116.041 373.677 116.02C373.658 116.091 373.644 116.163 373.635 116.236C373.627 116.331 373.627 116.426 373.635 116.521C373.635 117.132 373.957 117.713 374.174 118.295C374.577 119.401 374.568 120.616 374.148 121.716C373.834 122.522 373.3 123.231 372.994 124.033C372.85 124.407 372.756 124.798 372.714 125.196V125.128C372.704 125.309 372.704 125.491 372.714 125.671C372.709 126.291 372.855 126.903 373.139 127.454C373.333 127.835 373.602 128.172 373.929 128.447C374.256 128.722 374.635 128.928 375.043 129.054C375.892 129.249 376.422 128.418 377.317 128.63C377.478 128.668 377.635 128.718 377.788 128.778C377.818 128.969 377.848 129.16 377.882 129.347C378.423 132.204 379.945 134.781 382.184 136.635C382.184 136.737 382.217 136.838 382.23 136.945C382.501 138.637 382.619 140.35 382.582 142.063C382.582 142.063 381.246 140.107 379.413 143.884C379.413 143.884 374.632 146.643 372.982 146.957C371.331 147.271 365.473 149.313 365.473 149.313C364.589 149.952 363.526 150.295 362.435 150.293C360.607 150.293 359.088 154.296 359.308 156.473C359.529 158.65 359.177 160.255 357.476 160.344C355.774 160.433 356.703 163.884 356.716 163.943L356.559 164.686C356.228 166.205 355.507 169.465 355.253 169.974C354.174 172.56 353.561 175.316 353.441 178.115C353.31 182.054 352.168 197.732 352.037 198C351.948 198.174 359.147 204.757 364.208 209.358L364.942 210.02L362.613 231.785C362.681 232.624 362.93 233.437 363.343 234.17C363.756 234.903 364.324 235.537 365.006 236.029C365.006 236.284 365.006 236.543 364.98 236.81C364.879 239.357 364.675 242.438 364.268 243.245C363.555 244.671 363.733 252.319 363.733 252.319C363.733 252.319 363.016 267.888 362.125 269.581C361.234 271.275 361.052 274.827 361.319 275.523C361.587 276.219 360.424 294.916 360.424 294.916L359.533 303.281C359.533 303.281 359.8 311.286 358.994 311.464C358.188 311.643 357.743 317.16 357.743 317.16C357.743 317.16 354.888 321.074 356.135 322.496C357.382 323.917 355.953 324.546 355.821 324.898C355.69 325.25 353.097 326.596 354.973 331.57C354.99 331.619 355.01 331.667 355.032 331.714C353.276 334.155 347.71 342.028 348.049 343.225C348.299 343.986 348.83 344.624 349.534 345.008C350.845 345.793 353.093 346.158 356.67 345.008C362.609 343.093 362.185 341.714 362.185 341.714C362.215 341.069 362.492 340.46 362.957 340.014C363.423 339.567 364.042 339.315 364.688 339.312C367.144 339.133 368.977 336.867 368.977 336.867L368.688 335.793L368.294 334.308C368.34 333.883 368.642 333.14 369.991 332.729C372.048 332.105 371.51 328.192 371.51 328.192C371.51 328.192 371.331 324.1 372.222 323.565C373.113 323.03 372.761 316.269 372.761 316.269C372.761 316.269 373.745 311.375 375.171 308.082C376.596 304.788 378.302 285.222 378.302 285.222C378.302 285.222 379.46 275.612 380.533 272.853C381.607 270.095 382.591 262.357 382.591 262.357C382.591 262.357 389.205 249.543 389.29 246.695C389.29 246.695 390.138 244.026 390.987 246.963C391.835 249.9 394.219 256.929 394.219 256.929L396.54 265.557L399.31 278.456L401.1 289.313C401.1 289.313 400.829 293.405 401.525 294.831C402.22 296.257 403.222 299.542 402.687 300.166C402.153 300.79 403.756 303.727 404.206 304.347C404.656 304.966 404.206 318.137 404.206 318.137C404.206 318.137 406.259 329.346 409.208 331.294C409.413 331.429 409.632 331.543 409.861 331.634C409.819 332.848 409.776 334.473 409.831 335.322C409.825 335.512 409.857 335.701 409.925 335.878C410.192 336.235 413.23 338.637 413.857 338.637C414.485 338.637 416.713 340.195 416.806 340.95C416.899 341.706 423.335 344.906 424.247 344.999C425.159 345.093 429.58 345.886 430.187 344.643C430.337 344.279 430.379 343.88 430.31 343.492ZM414.498 183.174L414.956 183.569C414.956 183.569 415.427 187.24 415.762 188.34C416.097 189.439 415.694 191.578 415.694 191.578C415.725 192.376 415.884 193.165 416.165 193.912C416.564 194.715 415.359 196.459 415.359 196.459H414.286L413.951 182.716L414.498 183.174ZM382.582 142.14V142.059C382.574 142.084 382.57 142.114 382.57 142.14H382.582ZM366.1 195.046C365.935 194.69 365.911 194.285 366.033 193.912C366.128 193.711 366.203 193.501 366.257 193.284C366.389 192.727 366.472 192.159 366.503 191.587C366.504 191.579 366.504 191.572 366.503 191.565C366.465 191.362 366.122 189.392 366.44 188.348C366.758 187.304 367.242 183.577 367.242 183.577L367.547 183.318L368.256 182.703C368.256 182.703 368.256 182.474 368.307 182.096C368.455 185.322 368.574 188.887 368.383 189.065C368.027 189.418 366.728 192.885 367.042 193.021C367.144 193.068 367.004 194.456 366.767 196.323C366.5 195.922 366.276 195.494 366.1 195.046Z" fill="url(#paint1_linear_110:494)"/>
<path d="M400.294 145.531V150.811L389.468 156.256C389.468 156.256 378.717 149.75 381.369 147.161C383.066 145.522 382.739 141.023 382.281 137.929C382.014 136.13 381.704 134.81 381.704 134.81C381.704 134.81 401.016 129.292 398.097 133.481C397.121 134.882 397.045 136.694 397.371 138.489C398.033 142.05 400.294 145.531 400.294 145.531Z" fill="#C3A6B4"/>
<path d="M370.636 197.164L369.24 214.362C369.24 214.362 367.148 212.465 364.442 209.994C359.423 205.415 352.296 198.866 352.381 198.692C352.512 198.424 353.653 182.822 353.776 178.9C353.892 176.116 354.498 173.375 355.567 170.802C355.821 170.293 356.538 167.05 356.839 165.535C356.941 165.064 357.005 164.758 357.005 164.758L359.347 163.816C359.347 163.816 369.104 174.707 369.104 174.906C369.104 175.106 368.438 183.471 368.438 183.471L367.747 184.074L367.445 184.333C367.445 184.333 366.979 187.987 366.648 189.082C366.317 190.177 366.673 192.079 366.711 192.283C366.68 192.855 366.599 193.423 366.47 193.98C366.414 194.195 366.339 194.404 366.245 194.604C366.125 194.976 366.149 195.379 366.313 195.733C366.501 196.225 366.746 196.694 367.042 197.13L370.636 197.164Z" fill="#3F3D56"/>
<path d="M429.771 198.692C429.873 198.9 419.466 208.403 414.956 212.507L412.911 214.362L411.528 197.164H415.113C415.113 197.164 416.31 195.436 415.911 194.638C415.633 193.894 415.477 193.11 415.448 192.317C415.448 192.317 415.843 190.194 415.512 189.095C415.181 187.996 414.715 184.346 414.715 184.346L414.261 183.955L413.722 183.484C413.722 183.484 413.056 175.118 413.056 174.919C413.056 174.719 422.813 163.828 422.813 163.828L425.138 164.758C425.138 164.758 425.189 165.008 425.274 165.407C425.588 166.855 426.339 170.28 426.598 170.802C427.666 173.375 428.272 176.116 428.388 178.9C428.498 182.822 429.635 198.424 429.771 198.692Z" fill="#3F3D56"/>
<path d="M429.813 344.672C429.19 345.912 424.811 345.097 423.908 345.029C423.004 344.961 416.624 341.748 416.534 340.997C416.445 340.246 414.235 338.696 413.616 338.696C412.996 338.696 409.988 336.303 409.721 335.95C409.653 335.775 409.623 335.587 409.632 335.399C409.539 333.943 409.721 330.195 409.721 330.195L422.554 330.904L428.791 340.288C429.316 341.301 429.696 342.382 429.919 343.501C429.995 343.894 429.958 344.3 429.813 344.672Z" fill="#3F3D56"/>
<path opacity="0.1" d="M429.813 344.672C429.19 345.912 424.811 345.097 423.908 345.029C423.004 344.961 416.624 341.748 416.534 340.997C416.445 340.246 414.235 338.696 413.616 338.696C412.996 338.696 409.988 336.303 409.721 335.95C409.653 335.775 409.623 335.587 409.632 335.399C409.539 333.943 409.721 330.195 409.721 330.195L422.554 330.904L428.791 340.288C429.316 341.301 429.696 342.382 429.919 343.501C429.995 343.894 429.958 344.3 429.813 344.672Z" fill="black"/>
<path opacity="0.1" d="M429.813 344.672C429.19 345.912 424.811 345.097 423.908 345.029C423.004 344.961 416.624 341.748 416.534 340.997C416.445 340.246 414.235 338.696 413.616 338.696C412.996 338.696 409.988 336.303 409.721 335.95C409.653 335.775 409.623 335.587 409.632 335.399L413.79 338.03C413.79 338.03 416.445 339.728 417.154 340.734C417.862 341.74 423.445 343.832 423.908 343.875C424.251 343.908 427.917 343.204 429.919 343.501C429.995 343.894 429.958 344.3 429.813 344.672Z" fill="black"/>
<path d="M369.147 336.926C369.147 336.926 367.331 339.184 364.904 339.358C364.264 339.363 363.65 339.614 363.189 340.059C362.728 340.503 362.455 341.108 362.427 341.748C362.427 341.748 362.851 343.123 356.983 345.029C353.441 346.171 351.214 345.81 349.916 345.029C349.219 344.644 348.693 344.011 348.443 343.255C348.045 341.841 355.876 331.082 355.876 331.082L363.003 330.657L368.094 332.958L368.875 335.874L369.147 336.926Z" fill="#3F3D56"/>
<path opacity="0.1" d="M369.147 336.926C369.147 336.926 367.331 339.184 364.904 339.358C364.264 339.363 363.65 339.614 363.189 340.059C362.728 340.503 362.455 341.108 362.427 341.748C362.427 341.748 362.851 343.123 356.983 345.029C353.441 346.171 351.214 345.81 349.916 345.029C349.219 344.644 348.693 344.011 348.443 343.255C348.045 341.841 355.876 331.082 355.876 331.082L363.003 330.657L368.094 332.958L368.875 335.874L369.147 336.926Z" fill="black"/>
<path opacity="0.1" d="M369.146 336.926C369.146 336.926 367.331 339.185 364.904 339.359C364.264 339.363 363.65 339.614 363.189 340.059C362.728 340.503 362.455 341.108 362.427 341.748C362.427 341.748 362.851 343.123 356.983 345.029C353.441 346.171 351.214 345.81 349.916 345.029C353.254 344.681 360.632 342.572 361.37 341.841C362.257 340.954 363.364 338.518 364.115 338.476C364.637 338.442 367.288 336.846 368.879 335.857L369.146 336.926Z" fill="black"/>
<path d="M423.793 327.054C422.996 328.913 423.793 332.72 423.793 332.72C423.793 332.72 411.915 333.34 409.013 331.392C406.111 329.444 404.058 318.285 404.058 318.285C404.058 318.285 404.482 305.183 404.058 304.563C403.633 303.943 402.021 301.023 402.551 300.404C403.082 299.784 402.127 296.507 401.402 295.09C400.676 293.672 400.978 289.602 400.978 289.602L399.204 278.796L396.464 265.961L394.134 257.37C394.134 257.37 391.746 250.375 390.936 247.455C390.125 244.535 389.268 247.188 389.268 247.188C389.184 250.023 382.633 262.773 382.633 262.773C382.633 262.773 381.658 270.477 380.597 273.218C379.536 275.96 378.382 285.527 378.382 285.527C378.382 285.527 376.685 305.005 375.285 308.281C373.885 311.558 372.922 316.426 372.922 316.426C372.922 316.426 373.279 323.158 372.392 323.688C371.505 324.219 371.65 328.293 371.65 328.293C371.65 328.293 372.18 332.185 370.144 332.809C368.107 333.433 368.447 334.758 368.447 334.758C368.447 334.758 357.119 336.617 355.261 331.655C353.403 326.693 355.97 325.373 356.11 325.017C356.25 324.66 357.662 324.045 356.423 322.623C355.185 321.201 358.014 317.313 358.014 317.313C358.014 317.313 358.46 311.825 359.253 311.647C360.047 311.469 359.788 303.502 359.788 303.502L360.67 295.179C360.67 295.179 361.824 276.584 361.557 275.875C361.29 275.167 361.468 271.631 362.354 269.933C363.241 268.236 363.945 252.752 363.945 252.752C363.945 252.752 363.767 245.142 364.476 243.724C364.9 242.922 365.078 239.837 365.18 237.32C365.256 235.397 365.273 233.805 365.273 233.805L375.184 230.087L387.911 226.017L398.619 231.153L414.286 234.162L414.481 236.865L417.472 278.167L419.169 293.748C419.169 293.748 419.878 301.095 419.967 302.424C420.056 303.752 420.938 312.432 420.938 312.432C420.938 312.432 422.796 316.592 421.647 318.009C420.497 319.427 420.938 320.556 420.938 320.556C420.938 320.556 424.591 325.195 423.793 327.054Z" fill="#3F3D56"/>
<path opacity="0.1" d="M398.105 133.481C397.13 134.882 397.053 136.694 397.38 138.489C395.15 140.063 392.466 140.86 389.739 140.758C387.013 140.656 384.395 139.661 382.29 137.925C382.022 136.125 381.713 134.805 381.713 134.805C381.713 134.805 401.024 129.296 398.105 133.481Z" fill="black"/>
<path d="M402.619 128.065C402.619 130.525 401.89 132.929 400.524 134.974C399.159 137.019 397.217 138.613 394.946 139.555C392.675 140.496 390.175 140.742 387.764 140.262C385.353 139.783 383.138 138.598 381.399 136.859C379.661 135.12 378.477 132.904 377.998 130.491C377.518 128.079 377.764 125.579 378.705 123.306C379.646 121.034 381.239 119.092 383.283 117.725C385.327 116.359 387.731 115.629 390.189 115.629C391.824 115.621 393.443 115.938 394.955 116.56C396.467 117.182 397.84 118.098 398.996 119.254C400.152 120.411 401.067 121.785 401.689 123.297C402.311 124.809 402.627 126.43 402.619 128.065Z" fill="#C3A6B4"/>
<path opacity="0.1" d="M405.207 148.731L401.134 221.289L379.01 216.641L374.628 187.554L378.968 148.506L382.234 148.926L387.996 149.661L393.702 150.013L399.887 149.325L405.207 148.731Z" fill="black"/>
<path d="M405.207 149.262L401.134 221.819L379.01 217.172L374.628 188.085L378.968 149.041L382.234 149.457L387.996 150.191L393.702 150.544L399.887 149.856L405.207 149.262Z" fill="#586BDA"/>
<path d="M387.02 151.21L394.987 151.477L392.747 154.614C392.747 154.614 392.904 160.951 393.969 162.767C395.034 164.584 394.72 192.648 394.72 192.648L392.599 196.676L388.971 192.159L389.018 155.106L387.02 151.21Z" fill="#3F3D56"/>
<path opacity="0.1" d="M387.02 151.21L394.987 151.477L392.747 154.614C392.747 154.614 392.904 160.951 393.969 162.767C395.034 164.584 394.72 192.648 394.72 192.648L392.599 196.676L388.971 192.159L389.018 155.106L387.02 151.21Z" fill="black"/>
<path opacity="0.1" d="M399.497 142.976L392.064 151.21L396.311 155.637L403.349 148.774L399.497 142.976Z" fill="black"/>
<path d="M399.497 142.445L392.064 150.679L396.311 155.106L403.349 148.243L399.497 142.445Z" fill="#DC5402"/>
<path d="M399.497 142.445L392.064 150.679L396.311 155.106L403.349 148.243L399.497 142.445Z" fill="#3148D3"/>
<path opacity="0.1" d="M388.925 150.811L381.399 143.286L380.69 147.224L384.144 155.857L388.925 150.811Z" fill="black"/>
<path d="M389.188 150.28L381.666 142.755L380.957 146.694L384.411 155.327L389.188 150.28Z" fill="#DC5402"/>
<path d="M389.188 150.28L381.666 142.755L380.957 146.694L384.411 155.327L389.188 150.28Z" fill="#3148D3"/>
<path opacity="0.1" d="M414.519 236.878C410.907 238.6 407.038 239.72 403.065 240.193C395.764 241.123 390.987 231.827 390.987 231.827L388.199 235.456C387.313 239.31 373.817 240.282 368.332 238.822C367.194 238.541 366.123 238.034 365.184 237.332C365.261 235.41 365.277 233.818 365.277 233.818L375.188 230.1L387.915 226.03L398.623 231.165L414.29 234.175L414.519 236.878Z" fill="black"/>
<path opacity="0.1" d="M405.207 149.266L401.139 221.819L379.01 217.172L374.619 188.089L378.955 149.041L382.222 149.465C382.138 150.888 381.978 152.305 381.742 153.71C381.212 156.193 384.487 173.811 384.487 173.811C384.487 173.811 390.711 193.569 393.511 190.721C396.311 187.873 400.299 172.835 400.299 172.835C403.001 167.258 400.345 151.613 400.146 151.299C400.007 150.836 399.922 150.359 399.891 149.877L405.207 149.266Z" fill="black"/>
<path opacity="0.1" d="M414.765 205.41L414.952 212.52L412.907 214.374L411.528 197.164H414.583L414.765 205.41Z" fill="black"/>
<path opacity="0.1" d="M366.716 192.295C366.684 192.867 366.603 193.435 366.474 193.993C366.474 193.836 366.474 193.747 366.44 193.734C366.313 193.7 366.465 193.051 366.716 192.295Z" fill="black"/>
<path opacity="0.1" d="M370.636 197.164L369.24 214.362C369.24 214.362 367.148 212.465 364.442 209.994L364.764 206.947C364.764 206.947 365.905 199.46 366.321 195.767C366.51 196.259 366.754 196.728 367.051 197.164H370.636Z" fill="black"/>
<path d="M382.638 143.018C382.638 143.018 381.314 141.07 379.498 144.83C379.498 144.83 374.764 147.577 373.134 147.886C371.505 148.196 365.71 150.234 365.71 150.234C364.835 150.867 363.782 151.207 362.702 151.206C360.887 151.206 359.38 155.191 359.601 157.36C359.822 159.529 359.47 161.125 357.79 161.214C356.11 161.303 357.034 164.796 357.034 164.796L368.23 177.635C368.23 177.635 368.939 189.456 368.587 189.812C368.234 190.169 366.949 193.632 367.259 193.751C367.568 193.87 365.562 206.943 365.562 206.943L362.864 232.311C362.864 232.311 362.864 236.556 368.353 238.02C373.843 239.484 387.347 238.516 388.216 234.663L391.004 231.029C391.004 231.029 395.781 240.329 403.082 239.399C410.383 238.47 415.033 235.813 415.033 235.813L414.235 205.41L413.705 183.497L425.104 164.758C425.104 164.758 422.05 158.913 422.317 156.269C422.584 153.625 423.11 151.621 416.607 150.692C416.607 150.692 411.121 149.873 407.888 147.636C405.967 146.301 403.868 145.244 401.652 144.495C401.652 144.495 399.828 141.1 398.559 142.263C398.559 142.263 399.832 147.063 399.726 147.78C399.62 148.498 399.925 151.74 400.125 152.076C400.324 152.411 402.98 168.034 400.278 173.612C400.278 173.612 396.311 188.649 393.49 191.497C390.668 194.345 384.466 174.588 384.466 174.588C384.466 174.588 381.191 156.965 381.721 154.486C382.251 152.008 382.638 143.018 382.638 143.018Z" fill="#3F3D56"/>
<path d="M392.107 201.06C393.182 201.06 394.054 200.188 394.054 199.112C394.054 198.036 393.182 197.164 392.107 197.164C391.031 197.164 390.159 198.036 390.159 199.112C390.159 200.188 391.031 201.06 392.107 201.06Z" fill="#3F3D56"/>
<path d="M392.107 210.245C393.182 210.245 394.054 209.372 394.054 208.297C394.054 207.221 393.182 206.348 392.107 206.348C391.031 206.348 390.159 207.221 390.159 208.297C390.159 209.372 391.031 210.245 392.107 210.245Z" fill="#3F3D56"/>
<path opacity="0.1" d="M392.107 201.06C393.182 201.06 394.054 200.188 394.054 199.112C394.054 198.036 393.182 197.164 392.107 197.164C391.031 197.164 390.159 198.036 390.159 199.112C390.159 200.188 391.031 201.06 392.107 201.06Z" fill="black"/>
<path opacity="0.1" d="M392.107 210.245C393.182 210.245 394.054 209.372 394.054 208.297C394.054 207.221 393.182 206.348 392.107 206.348C391.031 206.348 390.159 207.221 390.159 208.297C390.159 209.372 391.031 210.245 392.107 210.245Z" fill="black"/>
<path opacity="0.1" d="M409.607 324.397C409.607 324.397 417.599 325.017 418.393 325.636C419.186 326.256 409.607 324.397 409.607 324.397Z" fill="black" stroke="#DC5402" stroke-miterlimit="10"/>
<path opacity="0.1" d="M362.019 318.111C362.019 318.111 363.716 320.233 362.995 321.21C362.274 322.186 362.019 318.111 362.019 318.111Z" fill="black" stroke="#DC5402" stroke-miterlimit="10"/>
<path opacity="0.1" d="M364.056 325.764C364.056 325.764 367.153 323.726 368.391 325.08C369.63 326.434 364.056 325.764 364.056 325.764Z" fill="black" stroke="#DC5402" stroke-miterlimit="10"/>
<path opacity="0.1" d="M402.619 128.065C402.622 129.126 402.488 130.183 402.22 131.21C401.959 131.091 401.74 130.895 401.593 130.647C401.446 130.4 401.378 130.114 401.397 129.827C401.453 129.322 401.788 128.859 401.716 128.358C401.61 127.586 400.676 127.272 400.184 126.66C399.577 125.922 399.709 124.848 399.76 123.893C399.811 122.938 399.569 121.771 398.674 121.444C398.407 121.346 398.114 121.338 397.855 121.228C397.151 120.931 396.934 120.056 396.464 119.453C395.522 118.24 393.651 118.265 392.221 118.842C391.599 119.141 390.962 119.407 390.312 119.64C389.987 119.755 389.641 119.801 389.297 119.775C388.953 119.75 388.619 119.653 388.314 119.492C388.034 119.313 387.809 119.067 387.52 118.889C386.562 118.312 385.306 118.889 384.474 119.632C383.643 120.375 382.977 121.372 381.929 121.826C381.458 122.038 380.877 122.166 380.656 122.624C380.547 122.874 380.5 123.146 380.52 123.418C380.52 125.069 380.716 126.745 380.372 128.362C380.151 129.402 379.422 130.582 378.365 130.455C378.234 130.435 378.104 130.403 377.979 130.357C377.661 128.657 377.701 126.91 378.096 125.226C378.492 123.543 379.234 121.96 380.275 120.579C381.316 119.199 382.633 118.051 384.143 117.208C385.653 116.366 387.322 115.848 389.043 115.687C390.764 115.527 392.5 115.727 394.139 116.275C395.779 116.824 397.286 117.708 398.564 118.872C399.843 120.036 400.864 121.455 401.564 123.036C402.264 124.617 402.626 126.327 402.628 128.057L402.619 128.065Z" fill="black"/>
<path d="M377.424 129.653C377.742 129.725 378.043 129.89 378.37 129.933C379.426 130.06 380.156 128.88 380.376 127.84C380.72 126.223 380.542 124.547 380.529 122.896C380.505 122.624 380.551 122.351 380.661 122.102C380.902 121.644 381.484 121.516 381.933 121.304C382.96 120.846 383.63 119.869 384.479 119.11C385.327 118.35 386.562 117.79 387.521 118.367C387.805 118.537 388.034 118.791 388.314 118.97C388.62 119.129 388.956 119.224 389.3 119.25C389.644 119.275 389.99 119.231 390.316 119.118C390.974 118.923 391.589 118.579 392.221 118.32C393.638 117.743 395.513 117.722 396.464 118.927C396.934 119.534 397.151 120.404 397.855 120.701C398.114 120.812 398.407 120.824 398.674 120.922C399.569 121.257 399.798 122.416 399.76 123.371C399.722 124.326 399.594 125.4 400.184 126.138C400.676 126.741 401.61 127.055 401.716 127.836C401.784 128.337 401.453 128.804 401.397 129.305C401.385 129.491 401.409 129.678 401.469 129.854C401.529 130.031 401.624 130.194 401.748 130.334C401.871 130.473 402.021 130.587 402.189 130.668C402.357 130.75 402.539 130.797 402.725 130.807C403.828 130.807 404.511 129.572 405.542 129.177C405.967 129.012 406.48 128.986 406.815 128.651C406.94 128.49 407.028 128.304 407.073 128.105C407.119 127.906 407.12 127.7 407.078 127.501C406.87 125.875 405.568 124.462 405.708 122.832C405.839 121.27 407.286 119.908 406.981 118.371C406.825 117.805 406.534 117.285 406.132 116.856C405.677 116.239 405.084 115.738 404.401 115.392C403.811 115.137 403.128 115.078 402.59 114.768C400.986 113.889 400.99 111.597 400.044 110.035C399.638 109.39 399.062 108.868 398.38 108.529C397.697 108.189 396.935 108.043 396.175 108.108C394.983 108.227 393.901 108.86 392.722 109.072C391.105 109.36 389.468 108.83 387.936 108.223C386.405 107.616 384.856 106.95 383.214 106.95C381.573 106.95 379.795 107.798 379.294 109.352C379.031 110.201 379.163 111.109 378.959 111.962C378.603 113.477 377.262 114.555 375.913 115.307C374.984 115.825 373.868 116.419 373.758 117.476C373.686 118.146 374.055 118.749 374.288 119.398C374.685 120.497 374.676 121.701 374.263 122.794C373.953 123.596 373.436 124.301 373.122 125.099C372.899 125.64 372.794 126.223 372.813 126.808C372.832 127.393 372.975 127.968 373.232 128.494C373.43 128.877 373.704 129.216 374.037 129.49C374.371 129.764 374.756 129.967 375.171 130.086C376.007 130.285 376.533 129.457 377.424 129.653Z" fill="#3F3D56"/>
<g opacity="0.1">
<path opacity="0.1" d="M380.376 126.915C380.156 127.955 379.422 129.135 378.365 129.008C378.039 128.965 377.742 128.8 377.419 128.727C376.533 128.532 376.006 129.364 375.171 129.152C374.756 129.033 374.369 128.83 374.035 128.556C373.701 128.283 373.426 127.944 373.228 127.56C373.006 127.128 372.872 126.656 372.833 126.172C372.749 126.924 372.886 127.684 373.228 128.358C373.426 128.742 373.701 129.081 374.035 129.354C374.369 129.628 374.756 129.831 375.171 129.95C376.019 130.145 376.533 129.313 377.419 129.525C377.73 129.633 378.045 129.726 378.365 129.801C379.422 129.933 380.156 128.753 380.376 127.713C380.55 126.794 380.619 125.859 380.58 124.924C380.576 125.593 380.508 126.26 380.376 126.915Z" fill="black"/>
<path opacity="0.1" d="M374.564 120.523C374.618 119.828 374.523 119.129 374.284 118.473C374.092 118.037 373.929 117.589 373.796 117.132C373.778 117.203 373.764 117.275 373.754 117.348C373.682 118.015 374.055 118.622 374.284 119.271C374.432 119.674 374.526 120.095 374.564 120.523Z" fill="black"/>
<path opacity="0.1" d="M406.976 118.286C406.777 119.492 405.801 120.625 405.704 121.894C405.68 122.111 405.68 122.33 405.704 122.548C405.916 121.066 407.227 119.755 406.976 118.286Z" fill="black"/>
<path opacity="0.1" d="M407.048 127.242C407.012 127.419 406.929 127.584 406.807 127.717C406.493 128.053 405.958 128.078 405.534 128.244C404.503 128.638 403.837 129.886 402.717 129.873C402.43 129.857 402.155 129.754 401.928 129.579C401.701 129.403 401.532 129.162 401.444 128.889C401.418 128.981 401.398 129.074 401.385 129.169C401.373 129.355 401.398 129.541 401.458 129.717C401.518 129.893 401.613 130.056 401.736 130.195C401.86 130.334 402.01 130.448 402.177 130.529C402.345 130.61 402.527 130.657 402.713 130.667C403.82 130.667 404.499 129.432 405.53 129.042C405.954 128.876 406.471 128.851 406.802 128.515C406.927 128.354 407.015 128.168 407.06 127.969C407.106 127.77 407.108 127.564 407.065 127.365C407.061 127.314 407.053 127.28 407.048 127.242Z" fill="black"/>
<path opacity="0.1" d="M401.728 126.89C401.622 126.117 400.689 125.803 400.197 125.192C399.895 124.79 399.731 124.302 399.73 123.8C399.696 124.589 399.709 125.396 400.197 125.99C400.685 126.584 401.427 126.839 401.665 127.45C401.725 127.27 401.746 127.079 401.728 126.89Z" fill="black"/>
<path opacity="0.1" d="M399.756 122.446C399.79 121.491 399.56 120.324 398.665 119.997C398.402 119.899 398.11 119.886 397.851 119.78C397.147 119.483 396.926 118.609 396.459 118.006C395.513 116.797 393.642 116.818 392.217 117.395C391.58 117.654 390.974 117.998 390.312 118.193C389.987 118.308 389.641 118.354 389.297 118.328C388.953 118.303 388.619 118.206 388.314 118.044C388.034 117.866 387.805 117.62 387.52 117.442C386.557 116.864 385.302 117.442 384.474 118.184C383.647 118.927 382.977 119.92 381.929 120.379C381.454 120.591 380.877 120.718 380.631 121.177C380.523 121.427 380.478 121.699 380.499 121.97C380.499 122.136 380.499 122.301 380.499 122.467C380.505 122.296 380.547 122.128 380.622 121.975C380.868 121.516 381.445 121.389 381.92 121.177C382.947 120.718 383.617 119.742 384.466 118.982C385.314 118.223 386.549 117.662 387.512 118.24C387.796 118.409 388.025 118.664 388.305 118.838C388.61 119.001 388.945 119.098 389.289 119.123C389.633 119.149 389.978 119.102 390.303 118.987C390.952 118.756 391.588 118.491 392.208 118.193C393.63 117.616 395.5 117.59 396.451 118.8C396.917 119.403 397.138 120.277 397.842 120.574C398.101 120.684 398.394 120.697 398.657 120.795C399.382 121.066 399.671 121.881 399.734 122.688L399.756 122.446Z" fill="black"/>
</g>
<g opacity="0.1">
<path opacity="0.1" d="M378.862 126.89C378.886 126.185 379.138 125.508 379.58 124.959C380.023 124.41 380.631 124.02 381.314 123.846C383.206 123.384 385.19 123.474 387.033 124.105C391.059 125.438 386.524 130.234 386.524 130.234C386.524 130.234 383.507 133.205 380.694 131.13C379.864 130.502 379.282 129.599 379.053 128.583C378.915 128.029 378.851 127.46 378.862 126.89Z" fill="black"/>
<path opacity="0.1" d="M400.994 126.89C400.97 126.185 400.717 125.507 400.274 124.958C399.831 124.409 399.222 124.019 398.538 123.846C396.648 123.385 394.664 123.474 392.823 124.105C388.797 125.438 393.333 130.234 393.333 130.234C393.333 130.234 396.345 133.205 399.162 131.13C399.992 130.502 400.574 129.599 400.803 128.583C400.941 128.029 401.005 127.46 400.994 126.89Z" fill="black"/>
<path opacity="0.1" d="M386.273 123.715V123.914H393.625V123.677L386.273 123.715Z" fill="black"/>
<path opacity="0.1" d="M388.619 125.841H388.853V125.166C388.853 125.166 389.599 124.585 390.838 125.166V125.769H391.262V125.374H391.054C391.054 125.374 391.139 124.555 389.756 124.687C389.756 124.687 388.645 124.581 388.67 125.285H388.416L388.619 125.841Z" fill="black"/>
</g>
<path d="M378.862 126.614C378.886 125.909 379.138 125.232 379.58 124.683C380.023 124.134 380.631 123.744 381.314 123.571C383.206 123.111 385.19 123.201 387.033 123.829C391.059 125.166 386.524 129.958 386.524 129.958C386.524 129.958 383.507 132.929 380.694 130.854C379.862 130.227 379.28 129.324 379.053 128.307C378.914 127.754 378.85 127.184 378.862 126.614Z" fill="#0E1524"/>
<path d="M400.994 126.614C400.97 125.909 400.717 125.231 400.274 124.682C399.831 124.133 399.222 123.743 398.538 123.571C396.647 123.111 394.665 123.201 392.824 123.829C388.797 125.166 393.333 129.958 393.333 129.958C393.333 129.958 396.345 132.929 399.162 130.854C399.994 130.227 400.576 129.324 400.804 128.307C400.942 127.754 401.006 127.184 400.994 126.614Z" fill="#0E1524"/>
<path d="M386.273 123.447V123.651H393.625V123.409L386.273 123.447Z" fill="#DC5402"/>
<path d="M388.619 125.574H388.853V124.899C388.853 124.899 389.599 124.322 390.838 124.899V125.506H391.262V125.107H391.054C391.054 125.107 391.139 124.292 389.756 124.419C389.756 124.419 388.645 124.318 388.67 125.018H388.416L388.619 125.574Z" fill="#DC5402"/>
<path d="M52.2413 194.048H49.8316V248.334H52.2413V194.048Z" fill="#535461"/>
<path d="M67.3868 248.168L67.234 250.613L67.0219 254.064L66.9328 255.503L66.7207 258.957L66.6274 260.396L66.4152 263.847L63.9843 303.095C63.8806 304.784 63.1369 306.37 61.9048 307.529C60.6726 308.688 59.0449 309.334 57.3534 309.334H44.7195C43.0284 309.334 41.4012 308.688 40.1697 307.529C38.9383 306.369 38.1954 304.783 38.0928 303.095L35.6491 263.847L35.437 260.396L35.3479 258.957L35.1401 255.494L35.051 254.055L34.8388 250.605L34.6861 248.16C34.6571 247.691 34.7245 247.22 34.8842 246.778C35.0438 246.336 35.2922 245.931 35.6142 245.589C35.9362 245.247 36.3248 244.974 36.7562 244.787C37.1876 244.601 37.6526 244.505 38.1225 244.505H63.9546C64.4251 244.505 64.8907 244.601 65.3224 244.788C65.7542 244.975 66.143 245.249 66.4648 245.592C66.7866 245.935 67.0344 246.341 67.193 246.784C67.3516 247.228 67.4175 247.699 67.3868 248.168Z" fill="#3F3D56"/>
<path d="M67.234 250.613L67.0219 254.064H35.0467L34.8346 250.613H67.234Z" fill="#9D9CB5"/>
<path d="M66.9328 255.502L66.7207 258.957H35.3522L35.1358 255.502H66.9328Z" fill="#9D9CB5"/>
<path d="M66.6274 260.396L66.4152 263.847H35.6576L35.4413 260.396H66.6274Z" fill="#9D9CB5"/>
<path d="M31.1564 214.396C45.1904 224.553 51.0364 240.444 51.0364 240.444C51.0364 240.444 34.1219 239.862 20.0667 229.705C6.01153 219.548 0.186676 203.658 0.186676 203.658C0.186676 203.658 17.1182 204.239 31.1564 214.396Z" fill="#DC5402"/>
<path d="M0.207886 203.658C0.207886 203.658 17.7631 213.42 23.3928 221.484C29.0225 229.548 51.0364 240.448 51.0364 240.448" stroke="#535461" stroke-width="2" stroke-miterlimit="10"/>
<path d="M40.214 193.951C47.8504 199.468 51.0364 208.127 51.0364 208.127C51.0364 208.127 41.8304 207.813 34.1897 202.282C26.5491 196.752 23.3716 188.106 23.3716 188.106C23.3716 188.106 32.5776 188.399 40.214 193.951Z" fill="#DC5402"/>
<path d="M23.3716 188.085C23.3716 188.085 32.9255 193.39 35.9885 197.783C39.0516 202.176 51.0364 208.106 51.0364 208.106" stroke="#535461" stroke-width="2" stroke-miterlimit="10"/>
<path d="M62.1389 207.668C53.3613 217.316 51.5074 229.922 51.5074 229.922C51.5074 229.922 63.8783 226.887 72.6516 217.24C81.425 207.592 83.2831 194.982 83.2831 194.982C83.2831 194.982 70.9122 198.017 62.1389 207.668Z" fill="#DC5402"/>
<path d="M83.2831 194.982C83.2831 194.982 71.854 204.871 68.948 211.688C66.0419 218.504 51.5074 229.939 51.5074 229.939" stroke="#535461" stroke-width="2" stroke-miterlimit="10"/>
</g>
<defs>
<linearGradient id="paint0_linear_110:494" x1="250.855" y1="274.22" x2="250.855" y2="45.733" gradientUnits="userSpaceOnUse">
<stop stop-color="#808080" stop-opacity="0.25"/>
<stop offset="0.54" stop-color="#808080" stop-opacity="0.12"/>
<stop offset="1" stop-color="#808080" stop-opacity="0.1"/>
</linearGradient>
<linearGradient id="paint1_linear_110:494" x1="78074.9" y1="205187" x2="78074.9" y2="69521.9" gradientUnits="userSpaceOnUse">
<stop stop-color="#808080" stop-opacity="0.25"/>
<stop offset="0.54" stop-color="#808080" stop-opacity="0.12"/>
<stop offset="1" stop-color="#808080" stop-opacity="0.1"/>
</linearGradient>
<clipPath id="clip0_110:494">
<rect width="486" height="348" fill="white"/>
</clipPath>
</defs>
</svg>
