<svg width="620" height="378" viewBox="0 0 620 378" fill="none" xmlns="http://www.w3.org/2000/svg">
<path d="M13 232.1L4.27273 232.1L4.27273 230.826L7.51562 230.826L7.51562 230.749C7.37926 230.675 7.22159 230.569 7.04261 230.429C6.86364 230.29 6.70739 230.097 6.57386 229.85C6.4375 229.603 6.36932 229.276 6.36932 228.87C6.36932 228.341 6.50284 227.87 6.76989 227.455C7.03693 227.04 7.42187 226.715 7.92472 226.479C8.42756 226.24 9.03267 226.121 9.74006 226.121C10.4474 226.121 11.054 226.239 11.5597 226.475C12.0625 226.711 12.4503 227.034 12.723 227.446C12.9929 227.858 13.1278 228.328 13.1278 228.857C13.1278 229.255 13.0611 229.58 12.9276 229.833C12.794 230.083 12.6378 230.279 12.4588 230.421C12.2798 230.563 12.1207 230.672 11.9815 230.749L11.9815 230.855L13 230.855L13 232.1ZM9.72727 230.851C10.1875 230.851 10.5909 230.784 10.9375 230.651C11.2841 230.517 11.5554 230.324 11.7514 230.071C11.9446 229.819 12.0412 229.509 12.0412 229.142C12.0412 228.762 11.9403 228.444 11.7386 228.188C11.5341 227.932 11.2571 227.739 10.9077 227.608C10.5582 227.475 10.1648 227.408 9.72727 227.408C9.29545 227.408 8.90767 227.473 8.56392 227.604C8.22017 227.732 7.94886 227.925 7.75 228.184C7.55114 228.439 7.4517 228.759 7.4517 229.142C7.4517 229.512 7.54687 229.824 7.73722 230.08C7.92756 230.333 8.19318 230.525 8.53409 230.655C8.875 230.786 9.27273 230.851 9.72727 230.851ZM10.2855 220.544L6.45454 220.544L6.45454 219.266L13 219.266L13 220.518L11.8665 220.518L11.8665 220.587C12.2159 220.737 12.5071 220.979 12.7401 221.311C12.9702 221.641 13.0852 222.051 13.0852 222.543C13.0852 222.963 12.9929 223.335 12.8082 223.659C12.6207 223.98 12.3437 224.233 11.9773 224.418C11.6108 224.599 11.1577 224.69 10.6179 224.69L6.45454 224.69L6.45454 223.416L10.4645 223.416C10.9105 223.416 11.2656 223.293 11.5298 223.045C11.794 222.798 11.9261 222.477 11.9261 222.082C11.9261 221.844 11.8665 221.607 11.7472 221.371C11.6278 221.132 11.4474 220.935 11.206 220.778C10.9645 220.619 10.6577 220.541 10.2855 220.544ZM13 217.554L6.45454 217.554L6.45454 216.279L13 216.279L13 217.554ZM5.4446 216.91C5.4446 217.132 5.37074 217.322 5.22301 217.481C5.07244 217.637 4.89346 217.716 4.68608 217.716C4.47585 217.716 4.29687 217.637 4.14915 217.481C3.99858 217.322 3.92329 217.132 3.92329 216.91C3.92329 216.689 3.99858 216.5 4.14915 216.343C4.29687 216.184 4.47585 216.105 4.68608 216.105C4.89346 216.105 5.07244 216.184 5.22301 216.343C5.37074 216.5 5.4446 216.689 5.4446 216.91ZM4.27273 213.291L13 213.291L13 214.565L4.27273 214.565L4.27273 213.291ZM13.1278 209.127C13.1278 209.655 12.9929 210.127 12.723 210.542C12.4503 210.953 12.0625 211.277 11.5597 211.513C11.054 211.746 10.4474 211.863 9.74006 211.863C9.03267 211.863 8.42756 211.745 7.92471 211.509C7.42187 211.27 7.03693 210.944 6.76989 210.529C6.50284 210.114 6.36932 209.644 6.36932 209.118C6.36932 208.712 6.4375 208.385 6.57386 208.138C6.70738 207.888 6.86363 207.695 7.04261 207.559C7.22159 207.419 7.37926 207.311 7.51562 207.235L7.51562 207.158L4.27273 207.158L4.27273 205.884L13 205.884L13 207.128L11.9815 207.128L11.9815 207.235C12.1207 207.311 12.2798 207.422 12.4588 207.567C12.6378 207.709 12.794 207.905 12.9276 208.155C13.0611 208.405 13.1278 208.729 13.1278 209.127ZM12.0412 208.846C12.0412 208.479 11.9446 208.169 11.7514 207.917C11.5554 207.661 11.2841 207.468 10.9375 207.337C10.5909 207.203 10.1875 207.137 9.72727 207.137C9.27273 207.137 8.875 207.202 8.53409 207.333C8.19318 207.463 7.92756 207.655 7.73721 207.908C7.54687 208.161 7.4517 208.473 7.4517 208.846C7.4517 209.229 7.55114 209.549 7.75 209.804C7.94886 210.06 8.22017 210.253 8.56392 210.384C8.90767 210.512 9.29545 210.576 9.72727 210.576C10.1648 210.576 10.5582 210.51 10.9077 210.38C11.2571 210.249 11.5341 210.056 11.7386 209.8C11.9403 209.542 12.0412 209.223 12.0412 208.846ZM6.45454 197.834L7.47727 197.834L7.47727 201.409L6.45454 201.409L6.45454 197.834ZM4.88636 200.451L4.88636 199.176L11.0781 199.176C11.3253 199.176 11.5114 199.14 11.6364 199.066C11.7585 198.992 11.8423 198.897 11.8878 198.78C11.9304 198.661 11.9517 198.532 11.9517 198.392C11.9517 198.29 11.9446 198.201 11.9304 198.124C11.9162 198.047 11.9048 197.988 11.8963 197.945L12.9489 197.715C12.9773 197.789 13.0057 197.894 13.0341 198.03C13.0653 198.167 13.0824 198.337 13.0852 198.542C13.0909 198.877 13.0312 199.189 12.9062 199.479C12.7812 199.769 12.5881 200.003 12.3267 200.182C12.0653 200.361 11.7372 200.451 11.3423 200.451L4.88636 200.451ZM13 196.425L6.45454 196.425L6.45454 195.151L13 195.151L13 196.425ZM5.4446 195.781C5.4446 196.003 5.37074 196.193 5.22301 196.352C5.07244 196.509 4.89346 196.587 4.68608 196.587C4.47585 196.587 4.29687 196.509 4.14915 196.352C3.99858 196.193 3.92329 196.003 3.92329 195.781C3.92329 195.56 3.99858 195.371 4.14915 195.214C4.29687 195.055 4.47585 194.976 4.68608 194.976C4.89346 194.976 5.07244 195.055 5.22301 195.214C5.37074 195.371 5.4446 195.56 5.4446 195.781ZM13 193.436L6.45454 193.436L6.45454 192.213L7.51988 192.213L7.51988 192.132C7.15909 191.996 6.87784 191.773 6.67613 191.463C6.47159 191.154 6.36932 190.783 6.36932 190.351C6.36932 189.914 6.47159 189.547 6.67613 189.252C6.88068 188.953 7.16193 188.733 7.51988 188.591L7.51988 188.523C7.17045 188.367 6.89204 188.118 6.68466 187.777C6.47443 187.436 6.36932 187.03 6.36932 186.559C6.36932 185.965 6.5554 185.48 6.92755 185.105C7.29971 184.728 7.86079 184.539 8.61079 184.539L13 184.539L13 185.813L8.73011 185.813C8.28693 185.813 7.96591 185.934 7.76704 186.175C7.56818 186.417 7.46875 186.705 7.46875 187.04C7.46875 187.455 7.59659 187.777 7.85227 188.007C8.10511 188.238 8.4304 188.353 8.82812 188.353L13 188.353L13 189.623L8.64915 189.623C8.29403 189.623 8.00852 189.733 7.79261 189.955C7.5767 190.176 7.46875 190.465 7.46875 190.82C7.46875 191.061 7.53267 191.284 7.66051 191.489C7.78551 191.691 7.96023 191.854 8.18466 191.979C8.40909 192.101 8.66903 192.162 8.96449 192.162L13 192.162L13 193.436ZM13.1321 180.01C13.1321 180.655 12.9943 181.21 12.7187 181.676C12.4403 182.139 12.0497 182.497 11.5469 182.75C11.0412 183 10.4489 183.125 9.76988 183.125C9.09943 183.125 8.50852 183 7.99716 182.75C7.48579 182.497 7.08665 182.145 6.79971 181.693C6.51278 181.239 6.36932 180.707 6.36932 180.099C6.36932 179.73 6.4304 179.372 6.55255 179.026C6.67471 178.679 6.86647 178.368 7.12784 178.092C7.3892 177.817 7.72869 177.599 8.1463 177.44C8.56108 177.281 9.06534 177.202 9.65909 177.202L10.1108 177.202L10.1108 182.405L9.15625 182.405L9.15625 178.45C8.82102 178.45 8.52415 178.518 8.26562 178.655C8.00426 178.791 7.79829 178.983 7.64772 179.23C7.49716 179.474 7.42187 179.761 7.42187 180.091C7.42187 180.449 7.50994 180.761 7.68608 181.028C7.85937 181.293 8.08665 181.497 8.3679 181.642C8.6463 181.784 8.94886 181.855 9.27557 181.855L10.0213 181.855C10.4588 181.855 10.831 181.778 11.1378 181.625C11.4446 181.469 11.679 181.251 11.8409 180.973C12 180.695 12.0795 180.369 12.0795 179.997C12.0795 179.756 12.0455 179.536 11.9773 179.337C11.9062 179.138 11.8011 178.966 11.6619 178.821C11.5227 178.676 11.3508 178.565 11.1463 178.489L11.3636 177.283C11.7187 177.379 12.0298 177.553 12.2969 177.803C12.5611 178.05 12.767 178.361 12.9148 178.736C13.0597 179.108 13.1321 179.533 13.1321 180.01ZM9.37784 172.241C8.30966 172.241 7.3267 172.101 6.42897 171.82C5.53125 171.538 4.70312 171.128 3.9446 170.588L3.9446 169.42C4.22585 169.631 4.57102 169.827 4.98011 170.009C5.3892 170.19 5.83807 170.349 6.3267 170.486C6.8125 170.622 7.31676 170.729 7.83949 170.805C8.35937 170.882 8.87216 170.92 9.37784 170.92C10.054 170.92 10.7386 170.854 11.4318 170.72C12.125 170.587 12.7685 170.406 13.3622 170.179C13.956 169.952 14.4403 169.699 14.8153 169.42L14.8153 170.588C14.0568 171.128 13.2287 171.538 12.331 171.82C11.4332 172.101 10.4489 172.241 9.37784 172.241ZM8.05255 163.172L8.2571 164.327C8.10937 164.375 7.96875 164.452 7.83522 164.557C7.7017 164.659 7.59233 164.799 7.5071 164.975C7.42187 165.151 7.37926 165.371 7.37926 165.635C7.37926 165.996 7.46022 166.297 7.62216 166.539C7.78125 166.78 7.98721 166.901 8.24005 166.901C8.4588 166.901 8.63494 166.82 8.76846 166.658C8.90199 166.496 9.01136 166.235 9.09659 165.874L9.33522 164.834C9.47443 164.232 9.68892 163.783 9.97869 163.488C10.2685 163.192 10.6449 163.044 11.108 163.044C11.5 163.044 11.8494 163.158 12.1562 163.385C12.4602 163.61 12.6989 163.924 12.8722 164.327C13.0455 164.728 13.1321 165.192 13.1321 165.721C13.1321 166.453 12.9758 167.051 12.6633 167.515C12.348 167.978 11.9006 168.262 11.321 168.367L11.1335 167.135C11.4545 167.059 11.6974 166.901 11.8622 166.662C12.0241 166.424 12.1051 166.113 12.1051 165.729C12.1051 165.311 12.0185 164.978 11.8452 164.728C11.669 164.478 11.4545 164.353 11.2017 164.353C10.9972 164.353 10.8253 164.429 10.6861 164.583C10.5469 164.733 10.4418 164.965 10.3707 165.277L10.1278 166.385C9.98863 166.996 9.76704 167.448 9.46307 167.74C9.15909 168.03 8.77414 168.175 8.30824 168.175C7.92187 168.175 7.5838 168.067 7.29403 167.851C7.00426 167.635 6.77841 167.337 6.61647 166.956C6.4517 166.576 6.36932 166.14 6.36932 165.648C6.36932 164.941 6.52272 164.384 6.82954 163.978C7.13352 163.571 7.54119 163.303 8.05255 163.172ZM13.1321 158.822C13.1321 159.467 12.9943 160.023 12.7187 160.489C12.4403 160.952 12.0497 161.31 11.5469 161.562C11.0412 161.812 10.4489 161.937 9.76988 161.937C9.09943 161.937 8.50852 161.812 7.99716 161.562C7.48579 161.31 7.08664 160.957 6.79971 160.506C6.51278 160.051 6.36931 159.52 6.36931 158.912C6.36931 158.543 6.43039 158.185 6.55255 157.838C6.67471 157.491 6.86647 157.18 7.12784 156.905C7.3892 156.629 7.72869 156.412 8.1463 156.253C8.56108 156.094 9.06534 156.014 9.65909 156.014L10.1108 156.014L10.1108 161.217L9.15625 161.217L9.15625 157.263C8.82102 157.263 8.52414 157.331 8.26562 157.467C8.00426 157.604 7.79829 157.795 7.64772 158.043C7.49716 158.287 7.42187 158.574 7.42187 158.903C7.42187 159.261 7.50994 159.574 7.68608 159.841C7.85937 160.105 8.08664 160.31 8.36789 160.455C8.6463 160.597 8.94886 160.668 9.27556 160.668L10.0213 160.668C10.4588 160.668 10.831 160.591 11.1378 160.437C11.4446 160.281 11.679 160.064 11.8409 159.786C12 159.507 12.0795 159.182 12.0795 158.81C12.0795 158.568 12.0455 158.348 11.9773 158.149C11.9062 157.95 11.8011 157.778 11.6619 157.634C11.5227 157.489 11.3508 157.378 11.1463 157.301L11.3636 156.095C11.7187 156.192 12.0298 156.365 12.2969 156.615C12.5611 156.862 12.767 157.173 12.9148 157.548C13.0597 157.92 13.1321 158.345 13.1321 158.822ZM13.1321 151.843C13.1321 152.477 12.9886 153.022 12.7017 153.48C12.4119 153.934 12.0128 154.284 11.5043 154.528C10.9957 154.772 10.4133 154.895 9.7571 154.895C9.09233 154.895 8.50568 154.77 7.99716 154.52C7.48579 154.27 7.08664 153.917 6.79971 153.463C6.51278 153.008 6.36931 152.473 6.36931 151.856C6.36931 151.359 6.46164 150.916 6.6463 150.527C6.82812 150.137 7.0838 149.824 7.41335 149.585C7.74289 149.343 8.12784 149.2 8.56818 149.154L8.56818 150.395C8.26136 150.463 7.99716 150.619 7.77556 150.863C7.55397 151.105 7.44318 151.429 7.44318 151.835C7.44318 152.19 7.53693 152.501 7.72443 152.768C7.90909 153.032 8.17329 153.238 8.51704 153.386C8.85795 153.534 9.26136 153.608 9.72727 153.608C10.2045 153.608 10.6165 153.535 10.9631 153.39C11.3097 153.245 11.5781 153.041 11.7685 152.777C11.9588 152.51 12.054 152.196 12.054 151.835C12.054 151.593 12.0099 151.375 11.9219 151.179C11.831 150.98 11.7017 150.814 11.5341 150.68C11.3665 150.544 11.1648 150.449 10.929 150.395L10.929 149.154C11.3523 149.2 11.7301 149.338 12.0625 149.568C12.3949 149.798 12.6562 150.106 12.8466 150.493C13.0369 150.876 13.1321 151.326 13.1321 151.843ZM13.1321 145.035C13.1321 145.648 12.9915 146.184 12.7102 146.641C12.429 147.099 12.0355 147.454 11.5298 147.707C11.0241 147.96 10.4332 148.086 9.7571 148.086C9.07812 148.086 8.48437 147.96 7.97585 147.707C7.46733 147.454 7.07244 147.099 6.79119 146.641C6.50994 146.184 6.36931 145.648 6.36931 145.035C6.36931 144.421 6.50994 143.886 6.79119 143.428C7.07244 142.971 7.46733 142.616 7.97585 142.363C8.48437 142.11 9.07812 141.984 9.7571 141.984C10.4332 141.984 11.0241 142.11 11.5298 142.363C12.0355 142.616 12.429 142.971 12.7102 143.428C12.9915 143.886 13.1321 144.421 13.1321 145.035ZM12.0625 145.031C12.0625 144.633 11.9574 144.303 11.7472 144.042C11.5369 143.781 11.2571 143.587 10.9077 143.462C10.5582 143.335 10.1733 143.271 9.75284 143.271C9.33522 143.271 8.9517 143.335 8.60227 143.462C8.25 143.587 7.96733 143.781 7.75426 144.042C7.54119 144.303 7.43465 144.633 7.43465 145.031C7.43465 145.431 7.54119 145.763 7.75426 146.028C7.96733 146.289 8.25 146.484 8.60227 146.612C8.9517 146.737 9.33522 146.799 9.75284 146.799C10.1733 146.799 10.5582 146.737 10.9077 146.612C11.2571 146.484 11.5369 146.289 11.7472 146.028C11.9574 145.763 12.0625 145.431 12.0625 145.031ZM9.11363 139.287L13 139.287L13 140.561L6.45454 140.561L6.45454 139.338L7.51988 139.338L7.51988 139.257C7.17329 139.107 6.89488 138.871 6.68465 138.55C6.47443 138.226 6.36931 137.819 6.36931 137.327C6.36931 136.881 6.46306 136.49 6.65056 136.155C6.83522 135.82 7.11079 135.56 7.47727 135.375C7.84375 135.191 8.29687 135.098 8.83664 135.098L13 135.098L13 136.373L8.99005 136.373C8.51562 136.373 8.14488 136.496 7.87784 136.743C7.60795 136.99 7.47301 137.33 7.47301 137.762C7.47301 138.057 7.53693 138.32 7.66477 138.55C7.79261 138.777 7.98011 138.958 8.22727 139.091C8.47159 139.222 8.76704 139.287 9.11363 139.287ZM13.1278 130.939C13.1278 131.468 12.9929 131.939 12.723 132.354C12.4503 132.766 12.0625 133.09 11.5597 133.326C11.054 133.559 10.4474 133.675 9.74005 133.675C9.03267 133.675 8.42755 133.557 7.92471 133.321C7.42187 133.083 7.03693 132.756 6.76988 132.341C6.50284 131.926 6.36931 131.456 6.36931 130.931C6.36931 130.525 6.4375 130.198 6.57386 129.951C6.70738 129.701 6.86363 129.507 7.04261 129.371C7.22159 129.232 7.37926 129.124 7.51562 129.047L7.51562 128.971L4.27272 128.971L4.27272 127.696L13 127.696L13 128.941L11.9815 128.941L11.9815 129.047C12.1207 129.124 12.2798 129.235 12.4588 129.38C12.6378 129.522 12.794 129.718 12.9276 129.968C13.0611 130.218 13.1278 130.542 13.1278 130.939ZM12.0412 130.658C12.0412 130.292 11.9446 129.982 11.7514 129.729C11.5554 129.473 11.2841 129.28 10.9375 129.15C10.5909 129.016 10.1875 128.949 9.72727 128.949C9.27272 128.949 8.875 129.015 8.53409 129.145C8.19318 129.276 7.92755 129.468 7.73721 129.721C7.54687 129.973 7.4517 130.286 7.4517 130.658C7.4517 131.042 7.55113 131.361 7.75 131.617C7.94886 131.873 8.22017 132.066 8.56392 132.196C8.90767 132.324 9.29545 132.388 9.72727 132.388C10.1648 132.388 10.5582 132.323 10.9077 132.192C11.2571 132.061 11.5341 131.868 11.7386 131.613C11.9403 131.354 12.0412 131.036 12.0412 130.658ZM8.05255 120.973L8.2571 122.128C8.10937 122.176 7.96874 122.253 7.83522 122.358C7.7017 122.46 7.59232 122.599 7.5071 122.776C7.42187 122.952 7.37926 123.172 7.37926 123.436C7.37926 123.797 7.46022 124.098 7.62215 124.339C7.78124 124.581 7.98721 124.702 8.24005 124.702C8.4588 124.702 8.63494 124.621 8.76846 124.459C8.90198 124.297 9.01136 124.036 9.09659 123.675L9.33522 122.635C9.47443 122.033 9.68892 121.584 9.97869 121.288C10.2685 120.993 10.6449 120.845 11.1079 120.845C11.5 120.845 11.8494 120.959 12.1562 121.186C12.4602 121.411 12.6989 121.724 12.8722 122.128C13.0454 122.528 13.1321 122.993 13.1321 123.521C13.1321 124.254 12.9758 124.852 12.6633 125.315C12.348 125.778 11.9006 126.062 11.321 126.168L11.1335 124.936C11.4545 124.859 11.6974 124.702 11.8622 124.463C12.0241 124.224 12.1051 123.913 12.1051 123.53C12.1051 123.112 12.0185 122.778 11.8452 122.528C11.669 122.278 11.4545 122.153 11.2017 122.153C10.9972 122.153 10.8253 122.23 10.6861 122.384C10.5469 122.534 10.4418 122.766 10.3707 123.078L10.1278 124.186C9.98863 124.797 9.76704 125.249 9.46306 125.541C9.15909 125.831 8.77414 125.976 8.30823 125.976C7.92187 125.976 7.5838 125.868 7.29403 125.652C7.00426 125.436 6.7784 125.138 6.61647 124.757C6.4517 124.376 6.36931 123.94 6.36931 123.449C6.36931 122.741 6.52272 122.185 6.82954 121.778C7.13352 121.372 7.54119 121.104 8.05255 120.973ZM9.37784 116.994C10.4489 116.994 11.4332 117.135 12.331 117.416C13.2287 117.697 14.0568 118.108 14.8153 118.647L14.8153 119.815C14.5341 119.605 14.1889 119.409 13.7798 119.227C13.3707 119.045 12.9233 118.886 12.4375 118.75C11.9489 118.613 11.4432 118.507 10.9204 118.43C10.3977 118.353 9.88352 118.315 9.37784 118.315C8.70454 118.315 8.0213 118.382 7.32812 118.515C6.63494 118.649 5.99147 118.829 5.39772 119.056C4.80397 119.284 4.3196 119.537 3.9446 119.815L3.9446 118.647C4.70312 118.108 5.53124 117.697 6.42897 117.416C7.3267 117.135 8.30965 116.994 9.37784 116.994Z" fill="#667085"/>
<rect x="302.5" width="37" height="20" rx="10" fill="#1A202C"/>
<path d="M309.527 14V5.27273H311.108V12.6747H314.952V14H309.527ZM323.782 9.63636C323.782 10.5767 323.606 11.3821 323.254 12.0526C322.904 12.7202 322.427 13.2315 321.822 13.5866C321.22 13.9418 320.536 14.1193 319.772 14.1193C319.008 14.1193 318.323 13.9418 317.718 13.5866C317.116 13.2287 316.639 12.7159 316.286 12.0483C315.937 11.3778 315.762 10.5739 315.762 9.63636C315.762 8.69602 315.937 7.89205 316.286 7.22443C316.639 6.55398 317.116 6.04119 317.718 5.68608C318.323 5.33097 319.008 5.15341 319.772 5.15341C320.536 5.15341 321.22 5.33097 321.822 5.68608C322.427 6.04119 322.904 6.55398 323.254 7.22443C323.606 7.89205 323.782 8.69602 323.782 9.63636ZM322.193 9.63636C322.193 8.97443 322.089 8.41619 321.882 7.96165C321.677 7.50426 321.393 7.15909 321.029 6.92614C320.666 6.69034 320.247 6.57244 319.772 6.57244C319.298 6.57244 318.879 6.69034 318.515 6.92614C318.151 7.15909 317.866 7.50426 317.659 7.96165C317.454 8.41619 317.352 8.97443 317.352 9.63636C317.352 10.2983 317.454 10.858 317.659 11.3153C317.866 11.7699 318.151 12.1151 318.515 12.3509C318.879 12.5838 319.298 12.7003 319.772 12.7003C320.247 12.7003 320.666 12.5838 321.029 12.3509C321.393 12.1151 321.677 11.7699 321.882 11.3153C322.089 10.858 322.193 10.2983 322.193 9.63636ZM332.747 8.21733H331.153C331.108 7.95597 331.024 7.72443 330.902 7.52273C330.78 7.31818 330.628 7.14489 330.446 7.00284C330.264 6.8608 330.057 6.75426 329.824 6.68324C329.594 6.60938 329.345 6.57244 329.078 6.57244C328.604 6.57244 328.183 6.69176 327.817 6.9304C327.45 7.16619 327.163 7.51278 326.956 7.97017C326.748 8.42472 326.645 8.98011 326.645 9.63636C326.645 10.304 326.748 10.8665 326.956 11.3239C327.166 11.7784 327.453 12.1222 327.817 12.3551C328.183 12.5852 328.602 12.7003 329.074 12.7003C329.335 12.7003 329.579 12.6662 329.807 12.598C330.037 12.527 330.243 12.4233 330.425 12.2869C330.609 12.1506 330.764 11.983 330.889 11.7841C331.017 11.5852 331.105 11.358 331.153 11.1023L332.747 11.1108C332.687 11.5256 332.558 11.9148 332.359 12.2784C332.163 12.642 331.906 12.9631 331.588 13.2415C331.27 13.517 330.898 13.733 330.471 13.8892C330.045 14.0426 329.572 14.1193 329.052 14.1193C328.285 14.1193 327.601 13.9418 326.998 13.5866C326.396 13.2315 325.922 12.7188 325.575 12.0483C325.229 11.3778 325.055 10.5739 325.055 9.63636C325.055 8.69602 325.23 7.89205 325.579 7.22443C325.929 6.55398 326.405 6.04119 327.007 5.68608C327.609 5.33097 328.291 5.15341 329.052 5.15341C329.538 5.15341 329.99 5.22159 330.407 5.35795C330.825 5.49432 331.197 5.6946 331.524 5.95881C331.851 6.22017 332.119 6.54119 332.329 6.92188C332.542 7.29972 332.682 7.73153 332.747 8.21733Z" fill="white"/>
<path d="M33.2301 30.7102V29.8409L37.0653 23.7727H37.696V25.1193H37.2699L34.3722 29.7045V29.7727H39.5369V30.7102H33.2301ZM37.3381 32.5V30.446V30.0412V23.7727H38.3438V32.5H37.3381ZM43.9805 32.6193C43.3384 32.6193 42.7915 32.4446 42.3398 32.0952C41.8881 31.7429 41.543 31.233 41.3043 30.5653C41.0657 29.8949 40.9464 29.0852 40.9464 28.1364C40.9464 27.1932 41.0657 26.3878 41.3043 25.7202C41.5458 25.0497 41.8924 24.5384 42.3441 24.1861C42.7987 23.831 43.3441 23.6534 43.9805 23.6534C44.6168 23.6534 45.1609 23.831 45.6126 24.1861C46.0671 24.5384 46.4137 25.0497 46.6523 25.7202C46.8938 26.3878 47.0146 27.1932 47.0146 28.1364C47.0146 29.0852 46.8952 29.8949 46.6566 30.5653C46.418 31.233 46.0728 31.7429 45.6211 32.0952C45.1694 32.4446 44.6225 32.6193 43.9805 32.6193ZM43.9805 31.6818C44.6168 31.6818 45.1112 31.375 45.4634 30.7614C45.8157 30.1477 45.9918 29.2727 45.9918 28.1364C45.9918 27.3807 45.9109 26.7372 45.7489 26.206C45.5898 25.6747 45.3597 25.2699 45.0586 24.9915C44.7603 24.7131 44.4009 24.5739 43.9805 24.5739C43.3498 24.5739 42.8569 24.8849 42.5018 25.5071C42.1467 26.1264 41.9691 27.0028 41.9691 28.1364C41.9691 28.892 42.0487 29.5341 42.2077 30.0625C42.3668 30.5909 42.5955 30.9929 42.8938 31.2685C43.195 31.544 43.5572 31.6818 43.9805 31.6818ZM53.2873 27.4205L52.3839 27.6761C52.3271 27.5256 52.2433 27.3793 52.1325 27.2372C52.0245 27.0923 51.8768 26.973 51.6893 26.8793C51.5018 26.7855 51.2617 26.7386 50.9691 26.7386C50.5685 26.7386 50.2347 26.831 49.9677 27.0156C49.7035 27.1974 49.5714 27.429 49.5714 27.7102C49.5714 27.9602 49.6623 28.1577 49.8441 28.3026C50.0259 28.4474 50.31 28.5682 50.6964 28.6648L51.668 28.9034C52.2532 29.0455 52.6893 29.2628 52.9762 29.5554C53.2631 29.8452 53.4066 30.2187 53.4066 30.6761C53.4066 31.0511 53.2987 31.3864 53.0827 31.6818C52.8697 31.9773 52.5714 32.2102 52.1879 32.3807C51.8043 32.5511 51.3583 32.6364 50.8498 32.6364C50.1822 32.6364 49.6296 32.4915 49.1921 32.2017C48.7546 31.9119 48.4776 31.4886 48.3612 30.9318L49.3157 30.6932C49.4066 31.0455 49.5785 31.3097 49.8313 31.4858C50.087 31.6619 50.4208 31.75 50.8327 31.75C51.3015 31.75 51.6737 31.6506 51.9492 31.4517C52.2276 31.25 52.3668 31.0085 52.3668 30.7273C52.3668 30.5 52.2873 30.3097 52.1282 30.1562C51.9691 30 51.7248 29.8835 51.3952 29.8068L50.3043 29.5511C49.7049 29.4091 49.2646 29.1889 48.9833 28.8906C48.7049 28.5895 48.5657 28.2131 48.5657 27.7614C48.5657 27.392 48.6694 27.0653 48.8768 26.7812C49.087 26.4972 49.3725 26.2741 49.7333 26.1122C50.0969 25.9503 50.5089 25.8693 50.9691 25.8693C51.6168 25.8693 52.1254 26.0114 52.4947 26.2955C52.8668 26.5795 53.131 26.9545 53.2873 27.4205Z" fill="#667085"/>
<line x1="62.5" y1="28.5" x2="619.5" y2="28.5" stroke="#F2F4F7" stroke-linecap="round"/>
<path d="M36.4421 113.369C35.8796 113.369 35.3782 113.273 34.9379 113.08C34.5004 112.886 34.1523 112.618 33.8938 112.274C33.6381 111.928 33.4989 111.526 33.4762 111.068H34.5501C34.5728 111.349 34.6694 111.592 34.8398 111.797C35.0103 111.999 35.2333 112.155 35.5089 112.266C35.7844 112.376 36.0898 112.432 36.4251 112.432C36.8001 112.432 37.1325 112.366 37.4222 112.236C37.712 112.105 37.9393 111.923 38.104 111.69C38.2688 111.457 38.3512 111.188 38.3512 110.881C38.3512 110.56 38.2717 110.277 38.1126 110.033C37.9535 109.786 37.7205 109.592 37.4137 109.453C37.1069 109.314 36.7319 109.244 36.2887 109.244H35.5898V108.307H36.2887C36.6353 108.307 36.9393 108.244 37.2006 108.119C37.4648 107.994 37.6708 107.818 37.8185 107.591C37.9691 107.364 38.0444 107.097 38.0444 106.79C38.0444 106.494 37.979 106.237 37.8484 106.018C37.7177 105.8 37.533 105.629 37.2944 105.507C37.0586 105.385 36.7802 105.324 36.4592 105.324C36.158 105.324 35.8739 105.379 35.6069 105.49C35.3427 105.598 35.1268 105.756 34.9592 105.963C34.7915 106.168 34.7006 106.415 34.6864 106.705H33.6637C33.6808 106.247 33.8185 105.847 34.0771 105.503C34.3356 105.156 34.6737 104.886 35.0913 104.693C35.5117 104.5 35.9734 104.403 36.4762 104.403C37.016 104.403 37.479 104.513 37.8654 104.732C38.2518 104.947 38.5487 105.233 38.756 105.588C38.9634 105.943 39.0671 106.327 39.0671 106.739C39.0671 107.23 38.9379 107.649 38.6793 107.996C38.4237 108.342 38.0756 108.582 37.6353 108.716V108.784C38.1864 108.875 38.6168 109.109 38.9265 109.487C39.2362 109.862 39.391 110.327 39.391 110.881C39.391 111.355 39.2617 111.781 39.0032 112.159C38.7475 112.534 38.3981 112.83 37.9549 113.045C37.5117 113.261 37.0075 113.369 36.4421 113.369ZM43.9805 113.369C43.3384 113.369 42.7915 113.195 42.3398 112.845C41.8881 112.493 41.543 111.983 41.3043 111.315C41.0657 110.645 40.9464 109.835 40.9464 108.886C40.9464 107.943 41.0657 107.138 41.3043 106.47C41.5458 105.8 41.8924 105.288 42.3441 104.936C42.7987 104.581 43.3441 104.403 43.9805 104.403C44.6168 104.403 45.1609 104.581 45.6126 104.936C46.0671 105.288 46.4137 105.8 46.6523 106.47C46.8938 107.138 47.0146 107.943 47.0146 108.886C47.0146 109.835 46.8952 110.645 46.6566 111.315C46.418 111.983 46.0728 112.493 45.6211 112.845C45.1694 113.195 44.6225 113.369 43.9805 113.369ZM43.9805 112.432C44.6168 112.432 45.1112 112.125 45.4634 111.511C45.8157 110.898 45.9918 110.023 45.9918 108.886C45.9918 108.131 45.9109 107.487 45.7489 106.956C45.5898 106.425 45.3597 106.02 45.0586 105.741C44.7603 105.463 44.4009 105.324 43.9805 105.324C43.3498 105.324 42.8569 105.635 42.5018 106.257C42.1467 106.876 41.9691 107.753 41.9691 108.886C41.9691 109.642 42.0487 110.284 42.2077 110.812C42.3668 111.341 42.5955 111.743 42.8938 112.018C43.195 112.294 43.5572 112.432 43.9805 112.432ZM53.2873 108.17L52.3839 108.426C52.3271 108.276 52.2433 108.129 52.1325 107.987C52.0245 107.842 51.8768 107.723 51.6893 107.629C51.5018 107.536 51.2617 107.489 50.9691 107.489C50.5685 107.489 50.2347 107.581 49.9677 107.766C49.7035 107.947 49.5714 108.179 49.5714 108.46C49.5714 108.71 49.6623 108.908 49.8441 109.053C50.0259 109.197 50.31 109.318 50.6964 109.415L51.668 109.653C52.2532 109.795 52.6893 110.013 52.9762 110.305C53.2631 110.595 53.4066 110.969 53.4066 111.426C53.4066 111.801 53.2987 112.136 53.0827 112.432C52.8697 112.727 52.5714 112.96 52.1879 113.131C51.8043 113.301 51.3583 113.386 50.8498 113.386C50.1822 113.386 49.6296 113.241 49.1921 112.952C48.7546 112.662 48.4776 112.239 48.3612 111.682L49.3157 111.443C49.4066 111.795 49.5785 112.06 49.8313 112.236C50.087 112.412 50.4208 112.5 50.8327 112.5C51.3015 112.5 51.6737 112.401 51.9492 112.202C52.2276 112 52.3668 111.759 52.3668 111.477C52.3668 111.25 52.2873 111.06 52.1282 110.906C51.9691 110.75 51.7248 110.634 51.3952 110.557L50.3043 110.301C49.7049 110.159 49.2646 109.939 48.9833 109.641C48.7049 109.339 48.5657 108.963 48.5657 108.511C48.5657 108.142 48.6694 107.815 48.8768 107.531C49.087 107.247 49.3725 107.024 49.7333 106.862C50.0969 106.7 50.5089 106.619 50.9691 106.619C51.6168 106.619 52.1254 106.761 52.4947 107.045C52.8668 107.33 53.131 107.705 53.2873 108.17Z" fill="#667085"/>
<line x1="62.5" y1="109.25" x2="619.5" y2="109.25" stroke="#F2F4F7" stroke-linecap="round"/>
<path d="M33.8683 194V193.233L36.7489 190.08C37.087 189.71 37.3654 189.389 37.5842 189.116C37.8029 188.841 37.9648 188.582 38.07 188.341C38.1779 188.097 38.2319 187.841 38.2319 187.574C38.2319 187.267 38.158 187.001 38.0103 186.777C37.8654 186.553 37.6665 186.379 37.4137 186.257C37.1609 186.135 36.8768 186.074 36.5614 186.074C36.2262 186.074 35.9336 186.143 35.6836 186.283C35.4364 186.419 35.2447 186.611 35.1083 186.858C34.9748 187.105 34.908 187.395 34.908 187.727H33.9023C33.9023 187.216 34.0202 186.767 34.256 186.381C34.4918 185.994 34.8129 185.693 35.2191 185.477C35.6282 185.261 36.087 185.153 36.5955 185.153C37.1069 185.153 37.56 185.261 37.9549 185.477C38.3498 185.693 38.6594 185.984 38.8839 186.351C39.1083 186.717 39.2205 187.125 39.2205 187.574C39.2205 187.895 39.1623 188.209 39.0458 188.516C38.9322 188.82 38.7333 189.159 38.4492 189.534C38.168 189.906 37.7773 190.361 37.2773 190.898L35.3171 192.994V193.062H39.3739V194H33.8683ZM43.9805 194.119C43.3384 194.119 42.7915 193.945 42.3398 193.595C41.8881 193.243 41.543 192.733 41.3043 192.065C41.0657 191.395 40.9464 190.585 40.9464 189.636C40.9464 188.693 41.0657 187.888 41.3043 187.22C41.5458 186.55 41.8924 186.038 42.3441 185.686C42.7987 185.331 43.3441 185.153 43.9805 185.153C44.6168 185.153 45.1609 185.331 45.6126 185.686C46.0671 186.038 46.4137 186.55 46.6523 187.22C46.8938 187.888 47.0146 188.693 47.0146 189.636C47.0146 190.585 46.8952 191.395 46.6566 192.065C46.418 192.733 46.0728 193.243 45.6211 193.595C45.1694 193.945 44.6225 194.119 43.9805 194.119ZM43.9805 193.182C44.6168 193.182 45.1112 192.875 45.4634 192.261C45.8157 191.648 45.9918 190.773 45.9918 189.636C45.9918 188.881 45.9109 188.237 45.7489 187.706C45.5898 187.175 45.3597 186.77 45.0586 186.491C44.7603 186.213 44.4009 186.074 43.9805 186.074C43.3498 186.074 42.8569 186.385 42.5018 187.007C42.1467 187.626 41.9691 188.503 41.9691 189.636C41.9691 190.392 42.0487 191.034 42.2077 191.562C42.3668 192.091 42.5955 192.493 42.8938 192.768C43.195 193.044 43.5572 193.182 43.9805 193.182ZM53.2873 188.92L52.3839 189.176C52.3271 189.026 52.2433 188.879 52.1325 188.737C52.0245 188.592 51.8768 188.473 51.6893 188.379C51.5018 188.286 51.2617 188.239 50.9691 188.239C50.5685 188.239 50.2347 188.331 49.9677 188.516C49.7035 188.697 49.5714 188.929 49.5714 189.21C49.5714 189.46 49.6623 189.658 49.8441 189.803C50.0259 189.947 50.31 190.068 50.6964 190.165L51.668 190.403C52.2532 190.545 52.6893 190.763 52.9762 191.055C53.2631 191.345 53.4066 191.719 53.4066 192.176C53.4066 192.551 53.2987 192.886 53.0827 193.182C52.8697 193.477 52.5714 193.71 52.1879 193.881C51.8043 194.051 51.3583 194.136 50.8498 194.136C50.1822 194.136 49.6296 193.991 49.1921 193.702C48.7546 193.412 48.4776 192.989 48.3612 192.432L49.3157 192.193C49.4066 192.545 49.5785 192.81 49.8313 192.986C50.087 193.162 50.4208 193.25 50.8327 193.25C51.3015 193.25 51.6737 193.151 51.9492 192.952C52.2276 192.75 52.3668 192.509 52.3668 192.227C52.3668 192 52.2873 191.81 52.1282 191.656C51.9691 191.5 51.7248 191.384 51.3952 191.307L50.3043 191.051C49.7049 190.909 49.2646 190.689 48.9833 190.391C48.7049 190.089 48.5657 189.713 48.5657 189.261C48.5657 188.892 48.6694 188.565 48.8768 188.281C49.087 187.997 49.3725 187.774 49.7333 187.612C50.0969 187.45 50.5089 187.369 50.9691 187.369C51.6168 187.369 52.1254 187.511 52.4947 187.795C52.8668 188.08 53.131 188.455 53.2873 188.92Z" fill="#667085"/>
<line x1="62.5" y1="190" x2="619.5" y2="190" stroke="#F2F4F7" stroke-linecap="round"/>
<path d="M38.6239 266.023V274.75H37.5671V267.131H37.516L35.3853 268.545V267.472L37.5671 266.023H38.6239ZM43.9805 274.869C43.3384 274.869 42.7915 274.695 42.3398 274.345C41.8881 273.993 41.543 273.483 41.3043 272.815C41.0657 272.145 40.9464 271.335 40.9464 270.386C40.9464 269.443 41.0657 268.638 41.3043 267.97C41.5458 267.3 41.8924 266.788 42.3441 266.436C42.7987 266.081 43.3441 265.903 43.9805 265.903C44.6168 265.903 45.1609 266.081 45.6126 266.436C46.0671 266.788 46.4137 267.3 46.6523 267.97C46.8938 268.638 47.0146 269.443 47.0146 270.386C47.0146 271.335 46.8952 272.145 46.6566 272.815C46.418 273.483 46.0728 273.993 45.6211 274.345C45.1694 274.695 44.6225 274.869 43.9805 274.869ZM43.9805 273.932C44.6168 273.932 45.1112 273.625 45.4634 273.011C45.8157 272.398 45.9918 271.523 45.9918 270.386C45.9918 269.631 45.9109 268.987 45.7489 268.456C45.5898 267.925 45.3597 267.52 45.0586 267.241C44.7603 266.963 44.4009 266.824 43.9805 266.824C43.3498 266.824 42.8569 267.135 42.5018 267.757C42.1467 268.376 41.9691 269.253 41.9691 270.386C41.9691 271.142 42.0487 271.784 42.2077 272.312C42.3668 272.841 42.5955 273.243 42.8938 273.518C43.195 273.794 43.5572 273.932 43.9805 273.932ZM53.2873 269.67L52.3839 269.926C52.3271 269.776 52.2433 269.629 52.1325 269.487C52.0245 269.342 51.8768 269.223 51.6893 269.129C51.5018 269.036 51.2617 268.989 50.9691 268.989C50.5685 268.989 50.2347 269.081 49.9677 269.266C49.7035 269.447 49.5714 269.679 49.5714 269.96C49.5714 270.21 49.6623 270.408 49.8441 270.553C50.0259 270.697 50.31 270.818 50.6964 270.915L51.668 271.153C52.2532 271.295 52.6893 271.513 52.9762 271.805C53.2631 272.095 53.4066 272.469 53.4066 272.926C53.4066 273.301 53.2987 273.636 53.0827 273.932C52.8697 274.227 52.5714 274.46 52.1879 274.631C51.8043 274.801 51.3583 274.886 50.8498 274.886C50.1822 274.886 49.6296 274.741 49.1921 274.452C48.7546 274.162 48.4776 273.739 48.3612 273.182L49.3157 272.943C49.4066 273.295 49.5785 273.56 49.8313 273.736C50.087 273.912 50.4208 274 50.8327 274C51.3015 274 51.6737 273.901 51.9492 273.702C52.2276 273.5 52.3668 273.259 52.3668 272.977C52.3668 272.75 52.2873 272.56 52.1282 272.406C51.9691 272.25 51.7248 272.134 51.3952 272.057L50.3043 271.801C49.7049 271.659 49.2646 271.439 48.9833 271.141C48.7049 270.839 48.5657 270.463 48.5657 270.011C48.5657 269.642 48.6694 269.315 48.8768 269.031C49.087 268.747 49.3725 268.524 49.7333 268.362C50.0969 268.2 50.5089 268.119 50.9691 268.119C51.6168 268.119 52.1254 268.261 52.4947 268.545C52.8668 268.83 53.131 269.205 53.2873 269.67Z" fill="#667085"/>
<line x1="62.5" y1="270.75" x2="619.5" y2="270.75" stroke="#F2F4F7" stroke-linecap="round"/>
<path d="M50.25 355.619C49.608 355.619 49.0611 355.445 48.6094 355.095C48.1577 354.743 47.8125 354.233 47.5739 353.565C47.3352 352.895 47.2159 352.085 47.2159 351.136C47.2159 350.193 47.3352 349.388 47.5739 348.72C47.8153 348.05 48.1619 347.538 48.6136 347.186C49.0682 346.831 49.6136 346.653 50.25 346.653C50.8864 346.653 51.4304 346.831 51.8821 347.186C52.3366 347.538 52.6832 348.05 52.9219 348.72C53.1634 349.388 53.2841 350.193 53.2841 351.136C53.2841 352.085 53.1648 352.895 52.9261 353.565C52.6875 354.233 52.3423 354.743 51.8906 355.095C51.4389 355.445 50.892 355.619 50.25 355.619ZM50.25 354.682C50.8864 354.682 51.3807 354.375 51.733 353.761C52.0852 353.148 52.2614 352.273 52.2614 351.136C52.2614 350.381 52.1804 349.737 52.0185 349.206C51.8594 348.675 51.6293 348.27 51.3281 347.991C51.0298 347.713 50.6705 347.574 50.25 347.574C49.6193 347.574 49.1264 347.885 48.7713 348.507C48.4162 349.126 48.2386 350.003 48.2386 351.136C48.2386 351.892 48.3182 352.534 48.4773 353.062C48.6364 353.591 48.8651 353.993 49.1634 354.268C49.4645 354.544 49.8267 354.682 50.25 354.682Z" fill="#667085"/>
<line x1="62.5" y1="351.5" x2="619.5" y2="351.5" stroke="#E1E2E3" stroke-linecap="round"/>
<path d="M118.322 373V366.455H119.796V367.567H119.873C120.009 367.192 120.235 366.899 120.551 366.689C120.866 366.476 121.242 366.369 121.68 366.369C122.123 366.369 122.497 366.477 122.801 366.693C123.107 366.906 123.323 367.197 123.448 367.567H123.517C123.661 367.203 123.906 366.913 124.249 366.697C124.596 366.479 125.007 366.369 125.481 366.369C126.083 366.369 126.575 366.56 126.955 366.94C127.336 367.321 127.526 367.876 127.526 368.607V373H125.98V368.845C125.98 368.439 125.872 368.142 125.656 367.955C125.44 367.764 125.176 367.669 124.863 367.669C124.491 367.669 124.2 367.786 123.99 368.018C123.782 368.249 123.678 368.548 123.678 368.918V373H122.166V368.781C122.166 368.443 122.063 368.173 121.859 367.972C121.657 367.77 121.393 367.669 121.066 367.669C120.845 367.669 120.643 367.726 120.461 367.839C120.279 367.95 120.134 368.108 120.026 368.312C119.919 368.514 119.865 368.75 119.865 369.02V373H118.322ZM131.989 373.128C131.333 373.128 130.766 372.991 130.289 372.719C129.814 372.443 129.449 372.054 129.194 371.551C128.938 371.045 128.81 370.45 128.81 369.766C128.81 369.092 128.938 368.501 129.194 367.993C129.452 367.482 129.813 367.084 130.276 366.8C130.739 366.513 131.283 366.369 131.908 366.369C132.312 366.369 132.692 366.435 133.05 366.565C133.411 366.693 133.729 366.892 134.005 367.162C134.283 367.432 134.502 367.776 134.661 368.193C134.82 368.608 134.9 369.102 134.9 369.676V370.149H129.535V369.109H133.421C133.418 368.814 133.354 368.551 133.229 368.321C133.104 368.088 132.93 367.905 132.705 367.771C132.483 367.638 132.225 367.571 131.93 367.571C131.614 367.571 131.337 367.648 131.099 367.801C130.86 367.952 130.674 368.151 130.54 368.398C130.41 368.642 130.343 368.911 130.34 369.203V370.111C130.34 370.491 130.41 370.818 130.549 371.091C130.688 371.361 130.883 371.568 131.133 371.713C131.383 371.855 131.675 371.926 132.01 371.926C132.235 371.926 132.438 371.895 132.62 371.832C132.802 371.767 132.959 371.672 133.093 371.547C133.226 371.422 133.327 371.267 133.395 371.082L134.836 371.244C134.745 371.625 134.572 371.957 134.316 372.241C134.063 372.523 133.739 372.741 133.344 372.898C132.949 373.051 132.498 373.128 131.989 373.128ZM137.747 369.165V373H136.205V366.455H137.679V367.567H137.756C137.906 367.2 138.146 366.909 138.476 366.693C138.808 366.477 139.219 366.369 139.708 366.369C140.159 366.369 140.553 366.466 140.888 366.659C141.226 366.852 141.487 367.132 141.672 367.499C141.86 367.865 141.952 368.31 141.949 368.832V373H140.406V369.071C140.406 368.634 140.293 368.291 140.066 368.044C139.841 367.797 139.53 367.673 139.132 367.673C138.862 367.673 138.622 367.733 138.412 367.852C138.205 367.969 138.041 368.138 137.922 368.359C137.806 368.581 137.747 368.849 137.747 369.165ZM145.06 369.165V373H143.517V364.273H145.026V367.567H145.102C145.256 367.197 145.493 366.906 145.814 366.693C146.138 366.477 146.55 366.369 147.05 366.369C147.504 366.369 147.901 366.464 148.239 366.655C148.577 366.845 148.838 367.124 149.023 367.49C149.21 367.857 149.304 368.304 149.304 368.832V373H147.762V369.071C147.762 368.631 147.648 368.288 147.421 368.044C147.196 367.797 146.881 367.673 146.475 367.673C146.202 367.673 145.958 367.733 145.742 367.852C145.529 367.969 145.361 368.138 145.239 368.359C145.119 368.581 145.06 368.849 145.06 369.165ZM150.877 373V366.455H152.419V373H150.877ZM151.652 365.526C151.408 365.526 151.198 365.445 151.021 365.283C150.845 365.118 150.757 364.92 150.757 364.69C150.757 364.457 150.845 364.26 151.021 364.098C151.198 363.933 151.408 363.851 151.652 363.851C151.899 363.851 152.11 363.933 152.283 364.098C152.459 364.26 152.547 364.457 152.547 364.69C152.547 364.92 152.459 365.118 152.283 365.283C152.11 365.445 151.899 365.526 151.652 365.526ZM154.006 373V366.455H155.501V367.545H155.569C155.689 367.168 155.893 366.876 156.183 366.672C156.476 366.464 156.809 366.361 157.184 366.361C157.27 366.361 157.365 366.365 157.47 366.374C157.578 366.379 157.667 366.389 157.738 366.403V367.822C157.673 367.8 157.569 367.78 157.427 367.763C157.288 367.743 157.153 367.733 157.023 367.733C156.741 367.733 156.488 367.794 156.264 367.916C156.042 368.036 155.868 368.202 155.74 368.415C155.612 368.628 155.548 368.874 155.548 369.152V373H154.006Z" fill="#667085"/>
<path d="M260.667 373.128C260.028 373.128 259.474 372.987 259.005 372.706C258.537 372.425 258.173 372.031 257.914 371.526C257.659 371.02 257.531 370.429 257.531 369.753C257.531 369.077 257.659 368.484 257.914 367.976C258.173 367.467 258.537 367.072 259.005 366.791C259.474 366.51 260.028 366.369 260.667 366.369C261.306 366.369 261.86 366.51 262.329 366.791C262.798 367.072 263.16 367.467 263.416 367.976C263.674 368.484 263.804 369.077 263.804 369.753C263.804 370.429 263.674 371.02 263.416 371.526C263.16 372.031 262.798 372.425 262.329 372.706C261.86 372.987 261.306 373.128 260.667 373.128ZM260.676 371.892C261.022 371.892 261.312 371.797 261.545 371.607C261.778 371.413 261.951 371.155 262.065 370.831C262.181 370.507 262.24 370.146 262.24 369.749C262.24 369.348 262.181 368.986 262.065 368.662C261.951 368.335 261.778 368.075 261.545 367.882C261.312 367.689 261.022 367.592 260.676 367.592C260.321 367.592 260.025 367.689 259.789 367.882C259.556 368.075 259.382 368.335 259.265 368.662C259.152 368.986 259.095 369.348 259.095 369.749C259.095 370.146 259.152 370.507 259.265 370.831C259.382 371.155 259.556 371.413 259.789 371.607C260.025 371.797 260.321 371.892 260.676 371.892ZM265.113 375.455V366.455H266.63V367.537H266.719C266.799 367.378 266.911 367.209 267.056 367.03C267.201 366.848 267.397 366.693 267.644 366.565C267.891 366.435 268.207 366.369 268.59 366.369C269.096 366.369 269.552 366.499 269.958 366.757C270.367 367.013 270.691 367.392 270.93 367.895C271.171 368.395 271.292 369.009 271.292 369.736C271.292 370.455 271.174 371.065 270.938 371.568C270.702 372.071 270.381 372.455 269.975 372.719C269.569 372.983 269.109 373.115 268.594 373.115C268.219 373.115 267.908 373.053 267.661 372.928C267.414 372.803 267.215 372.652 267.065 372.476C266.917 372.297 266.802 372.128 266.719 371.969H266.656V375.455H265.113ZM266.626 369.727C266.626 370.151 266.685 370.521 266.805 370.839C266.927 371.158 267.102 371.406 267.329 371.585C267.559 371.761 267.837 371.849 268.164 371.849C268.505 371.849 268.79 371.759 269.021 371.577C269.251 371.392 269.424 371.141 269.54 370.822C269.66 370.501 269.719 370.136 269.719 369.727C269.719 369.321 269.661 368.96 269.545 368.645C269.428 368.33 269.255 368.082 269.025 367.903C268.795 367.724 268.508 367.635 268.164 367.635C267.835 367.635 267.555 367.722 267.325 367.895C267.094 368.068 266.92 368.311 266.8 368.624C266.684 368.936 266.626 369.304 266.626 369.727ZM274.496 373.132C274.082 373.132 273.708 373.058 273.376 372.911C273.046 372.76 272.785 372.538 272.592 372.246C272.401 371.953 272.306 371.592 272.306 371.163C272.306 370.794 272.374 370.489 272.511 370.247C272.647 370.006 272.833 369.812 273.069 369.668C273.305 369.523 273.57 369.413 273.866 369.339C274.164 369.263 274.472 369.207 274.79 369.173C275.174 369.134 275.485 369.098 275.724 369.067C275.962 369.033 276.136 368.982 276.244 368.913C276.354 368.842 276.41 368.733 276.41 368.585V368.56C276.41 368.239 276.315 367.99 276.124 367.814C275.934 367.638 275.66 367.55 275.302 367.55C274.924 367.55 274.624 367.632 274.403 367.797C274.184 367.962 274.036 368.156 273.96 368.381L272.519 368.176C272.633 367.778 272.82 367.446 273.082 367.179C273.343 366.909 273.663 366.707 274.04 366.574C274.418 366.438 274.836 366.369 275.293 366.369C275.609 366.369 275.923 366.406 276.235 366.48C276.548 366.554 276.833 366.676 277.092 366.847C277.35 367.014 277.558 367.243 277.714 367.533C277.873 367.822 277.952 368.185 277.952 368.619V373H276.469V372.101H276.418C276.325 372.283 276.192 372.453 276.022 372.612C275.854 372.768 275.643 372.895 275.387 372.991C275.134 373.085 274.837 373.132 274.496 373.132ZM274.897 371.999C275.207 371.999 275.475 371.937 275.702 371.815C275.93 371.69 276.104 371.526 276.227 371.321C276.352 371.116 276.414 370.893 276.414 370.652V369.881C276.366 369.92 276.283 369.957 276.167 369.991C276.053 370.026 275.925 370.055 275.783 370.081C275.641 370.107 275.501 370.129 275.362 370.149C275.222 370.169 275.102 370.186 274.999 370.2C274.769 370.232 274.563 370.283 274.381 370.354C274.2 370.425 274.056 370.524 273.951 370.652C273.846 370.777 273.793 370.939 273.793 371.138C273.793 371.422 273.897 371.636 274.104 371.781C274.312 371.926 274.576 371.999 274.897 371.999ZM279.504 373V366.455H280.978V367.567H281.055C281.191 367.192 281.417 366.899 281.732 366.689C282.048 366.476 282.424 366.369 282.862 366.369C283.305 366.369 283.678 366.477 283.982 366.693C284.289 366.906 284.505 367.197 284.63 367.567H284.698C284.843 367.203 285.087 366.913 285.431 366.697C285.778 366.479 286.188 366.369 286.663 366.369C287.265 366.369 287.756 366.56 288.137 366.94C288.518 367.321 288.708 367.876 288.708 368.607V373H287.161V368.845C287.161 368.439 287.053 368.142 286.837 367.955C286.621 367.764 286.357 367.669 286.045 367.669C285.673 367.669 285.381 367.786 285.171 368.018C284.964 368.249 284.86 368.548 284.86 368.918V373H283.347V368.781C283.347 368.443 283.245 368.173 283.04 367.972C282.839 367.77 282.575 367.669 282.248 367.669C282.026 367.669 281.825 367.726 281.643 367.839C281.461 367.95 281.316 368.108 281.208 368.312C281.1 368.514 281.046 368.75 281.046 369.02V373H279.504Z" fill="#667085"/>
<path d="M389.521 373V366.455H390.996V367.567H391.072C391.209 367.192 391.434 366.899 391.75 366.689C392.065 366.476 392.442 366.369 392.879 366.369C393.322 366.369 393.696 366.477 394 366.693C394.307 366.906 394.523 367.197 394.648 367.567H394.716C394.861 367.203 395.105 366.913 395.449 366.697C395.795 366.479 396.206 366.369 396.68 366.369C397.282 366.369 397.774 366.56 398.155 366.94C398.535 367.321 398.726 367.876 398.726 368.607V373H397.179V368.845C397.179 368.439 397.071 368.142 396.855 367.955C396.639 367.764 396.375 367.669 396.062 367.669C395.69 367.669 395.399 367.786 395.189 368.018C394.981 368.249 394.878 368.548 394.878 368.918V373H393.365V368.781C393.365 368.443 393.263 368.173 393.058 367.972C392.856 367.77 392.592 367.669 392.265 367.669C392.044 367.669 391.842 367.726 391.66 367.839C391.479 367.95 391.334 368.108 391.226 368.312C391.118 368.514 391.064 368.75 391.064 369.02V373H389.521ZM400.291 373V366.455H401.833V373H400.291ZM401.066 365.526C400.822 365.526 400.612 365.445 400.436 365.283C400.259 365.118 400.171 364.92 400.171 364.69C400.171 364.457 400.259 364.26 400.436 364.098C400.612 363.933 400.822 363.851 401.066 363.851C401.313 363.851 401.524 363.933 401.697 364.098C401.873 364.26 401.961 364.457 401.961 364.69C401.961 364.92 401.873 365.118 401.697 365.283C401.524 365.445 401.313 365.526 401.066 365.526ZM403.42 373V366.455H404.915V367.545H404.983C405.103 367.168 405.307 366.876 405.597 366.672C405.89 366.464 406.224 366.361 406.599 366.361C406.684 366.361 406.779 366.365 406.884 366.374C406.992 366.379 407.081 366.389 407.153 366.403V367.822C407.087 367.8 406.983 367.78 406.841 367.763C406.702 367.743 406.567 367.733 406.437 367.733C406.155 367.733 405.903 367.794 405.678 367.916C405.456 368.036 405.282 368.202 405.154 368.415C405.026 368.628 404.962 368.874 404.962 369.152V373H403.42ZM409.944 373.132C409.529 373.132 409.155 373.058 408.823 372.911C408.493 372.76 408.232 372.538 408.039 372.246C407.849 371.953 407.753 371.592 407.753 371.163C407.753 370.794 407.822 370.489 407.958 370.247C408.094 370.006 408.28 369.812 408.516 369.668C408.752 369.523 409.018 369.413 409.313 369.339C409.611 369.263 409.92 369.207 410.238 369.173C410.621 369.134 410.932 369.098 411.171 369.067C411.41 369.033 411.583 368.982 411.691 368.913C411.802 368.842 411.857 368.733 411.857 368.585V368.56C411.857 368.239 411.762 367.99 411.572 367.814C411.381 367.638 411.107 367.55 410.749 367.55C410.371 367.55 410.072 367.632 409.85 367.797C409.631 367.962 409.483 368.156 409.407 368.381L407.966 368.176C408.08 367.778 408.268 367.446 408.529 367.179C408.79 366.909 409.11 366.707 409.488 366.574C409.866 366.438 410.283 366.369 410.741 366.369C411.056 366.369 411.37 366.406 411.682 366.48C411.995 366.554 412.28 366.676 412.539 366.847C412.797 367.014 413.005 367.243 413.161 367.533C413.32 367.822 413.4 368.185 413.4 368.619V373H411.917V372.101H411.866C411.772 372.283 411.64 372.453 411.469 372.612C411.302 372.768 411.09 372.895 410.834 372.991C410.581 373.085 410.285 373.132 409.944 373.132ZM410.344 371.999C410.654 371.999 410.922 371.937 411.15 371.815C411.377 371.69 411.552 371.526 411.674 371.321C411.799 371.116 411.861 370.893 411.861 370.652V369.881C411.813 369.92 411.731 369.957 411.614 369.991C411.501 370.026 411.373 370.055 411.231 370.081C411.089 370.107 410.948 370.129 410.809 370.149C410.67 370.169 410.549 370.186 410.447 370.2C410.216 370.232 410.01 370.283 409.829 370.354C409.647 370.425 409.503 370.524 409.398 370.652C409.293 370.777 409.241 370.939 409.241 371.138C409.241 371.422 409.344 371.636 409.552 371.781C409.759 371.926 410.023 371.999 410.344 371.999ZM417.797 375.591C417.243 375.591 416.768 375.516 416.37 375.365C415.972 375.217 415.653 375.018 415.411 374.768C415.17 374.518 415.002 374.241 414.908 373.938L416.297 373.601C416.36 373.729 416.451 373.855 416.57 373.98C416.689 374.108 416.85 374.213 417.052 374.295C417.256 374.381 417.513 374.423 417.823 374.423C418.26 374.423 418.623 374.317 418.91 374.104C419.197 373.893 419.34 373.547 419.34 373.064V371.824H419.263C419.184 371.983 419.067 372.146 418.914 372.314C418.763 372.482 418.563 372.622 418.313 372.736C418.066 372.849 417.755 372.906 417.38 372.906C416.877 372.906 416.421 372.788 416.012 372.553C415.606 372.314 415.282 371.959 415.04 371.487C414.802 371.013 414.682 370.419 414.682 369.706C414.682 368.987 414.802 368.381 415.04 367.886C415.282 367.389 415.607 367.013 416.016 366.757C416.425 366.499 416.881 366.369 417.384 366.369C417.768 366.369 418.083 366.435 418.33 366.565C418.58 366.693 418.779 366.848 418.927 367.03C419.074 367.209 419.187 367.378 419.263 367.537H419.349V366.455H420.87V373.107C420.87 373.666 420.736 374.129 420.469 374.496C420.202 374.862 419.837 375.136 419.374 375.318C418.911 375.5 418.385 375.591 417.797 375.591ZM417.81 371.696C418.137 371.696 418.415 371.616 418.645 371.457C418.876 371.298 419.05 371.07 419.17 370.771C419.289 370.473 419.349 370.115 419.349 369.697C419.349 369.286 419.289 368.925 419.17 368.615C419.053 368.305 418.88 368.065 418.65 367.895C418.422 367.722 418.143 367.635 417.81 367.635C417.466 367.635 417.18 367.724 416.949 367.903C416.719 368.082 416.546 368.328 416.43 368.641C416.313 368.95 416.255 369.303 416.255 369.697C416.255 370.098 416.313 370.449 416.43 370.75C416.549 371.048 416.724 371.281 416.954 371.449C417.187 371.614 417.472 371.696 417.81 371.696ZM425.349 373.128C424.692 373.128 424.126 372.991 423.648 372.719C423.174 372.443 422.809 372.054 422.553 371.551C422.297 371.045 422.17 370.45 422.17 369.766C422.17 369.092 422.297 368.501 422.553 367.993C422.812 367.482 423.172 367.084 423.635 366.8C424.099 366.513 424.643 366.369 425.268 366.369C425.671 366.369 426.052 366.435 426.41 366.565C426.77 366.693 427.089 366.892 427.364 367.162C427.643 367.432 427.861 367.776 428.02 368.193C428.18 368.608 428.259 369.102 428.259 369.676V370.149H422.894V369.109H426.78C426.778 368.814 426.714 368.551 426.589 368.321C426.464 368.088 426.289 367.905 426.064 367.771C425.843 367.638 425.584 367.571 425.289 367.571C424.974 367.571 424.697 367.648 424.458 367.801C424.219 367.952 424.033 368.151 423.9 368.398C423.769 368.642 423.702 368.911 423.699 369.203V370.111C423.699 370.491 423.769 370.818 423.908 371.091C424.047 371.361 424.242 371.568 424.492 371.713C424.742 371.855 425.035 371.926 425.37 371.926C425.594 371.926 425.797 371.895 425.979 371.832C426.161 371.767 426.319 371.672 426.452 371.547C426.586 371.422 426.687 371.267 426.755 371.082L428.195 371.244C428.104 371.625 427.931 371.957 427.675 372.241C427.422 372.523 427.099 372.741 426.704 372.898C426.309 373.051 425.857 373.128 425.349 373.128Z" fill="#667085"/>
<path d="M532.829 373.115C532.315 373.115 531.855 372.983 531.448 372.719C531.042 372.455 530.721 372.071 530.485 371.568C530.249 371.065 530.132 370.455 530.132 369.736C530.132 369.009 530.251 368.395 530.49 367.895C530.731 367.392 531.056 367.013 531.465 366.757C531.874 366.499 532.33 366.369 532.833 366.369C533.217 366.369 533.532 366.435 533.779 366.565C534.026 366.693 534.222 366.848 534.367 367.03C534.512 367.209 534.624 367.378 534.704 367.537H534.768V364.273H536.315V373H534.798V371.969H534.704C534.624 372.128 534.509 372.297 534.359 372.476C534.208 372.652 534.009 372.803 533.762 372.928C533.515 373.053 533.204 373.115 532.829 373.115ZM533.259 371.849C533.586 371.849 533.865 371.761 534.095 371.585C534.325 371.406 534.499 371.158 534.619 370.839C534.738 370.521 534.798 370.151 534.798 369.727C534.798 369.304 534.738 368.936 534.619 368.624C534.502 368.311 534.329 368.068 534.099 367.895C533.872 367.722 533.592 367.635 533.259 367.635C532.916 367.635 532.629 367.724 532.399 367.903C532.169 368.082 531.995 368.33 531.879 368.645C531.762 368.96 531.704 369.321 531.704 369.727C531.704 370.136 531.762 370.501 531.879 370.822C531.998 371.141 532.173 371.392 532.403 371.577C532.636 371.759 532.921 371.849 533.259 371.849ZM542.131 370.247V366.455H543.673V373H542.177V371.837H542.109C541.961 372.203 541.719 372.503 541.381 372.736C541.045 372.969 540.632 373.085 540.14 373.085C539.711 373.085 539.332 372.99 539.003 372.8C538.676 372.607 538.42 372.327 538.236 371.96C538.051 371.591 537.959 371.145 537.959 370.622V366.455H539.501V370.384C539.501 370.798 539.615 371.128 539.842 371.372C540.069 371.616 540.368 371.739 540.737 371.739C540.964 371.739 541.184 371.683 541.398 371.572C541.611 371.462 541.785 371.297 541.922 371.078C542.061 370.857 542.131 370.58 542.131 370.247ZM546.802 369.165V373H545.259V366.455H546.734V367.567H546.811C546.961 367.2 547.201 366.909 547.531 366.693C547.863 366.477 548.274 366.369 548.762 366.369C549.214 366.369 549.607 366.466 549.943 366.659C550.281 366.852 550.542 367.132 550.727 367.499C550.914 367.865 551.007 368.31 551.004 368.832V373H549.461V369.071C549.461 368.634 549.347 368.291 549.12 368.044C548.896 367.797 548.585 367.673 548.187 367.673C547.917 367.673 547.677 367.733 547.467 367.852C547.259 367.969 547.096 368.138 546.977 368.359C546.86 368.581 546.802 368.849 546.802 369.165ZM555.47 373.128C554.813 373.128 554.247 372.991 553.769 372.719C553.295 372.443 552.93 372.054 552.674 371.551C552.419 371.045 552.291 370.45 552.291 369.766C552.291 369.092 552.419 368.501 552.674 367.993C552.933 367.482 553.294 367.084 553.757 366.8C554.22 366.513 554.764 366.369 555.389 366.369C555.792 366.369 556.173 366.435 556.531 366.565C556.892 366.693 557.21 366.892 557.485 367.162C557.764 367.432 557.982 367.776 558.142 368.193C558.301 368.608 558.38 369.102 558.38 369.676V370.149H553.015V369.109H556.901C556.899 368.814 556.835 368.551 556.71 368.321C556.585 368.088 556.41 367.905 556.186 367.771C555.964 367.638 555.705 367.571 555.41 367.571C555.095 367.571 554.818 367.648 554.579 367.801C554.34 367.952 554.154 368.151 554.021 368.398C553.89 368.642 553.823 368.911 553.82 369.203V370.111C553.82 370.491 553.89 370.818 554.029 371.091C554.169 371.361 554.363 371.568 554.613 371.713C554.863 371.855 555.156 371.926 555.491 371.926C555.715 371.926 555.919 371.895 556.1 371.832C556.282 371.767 556.44 371.672 556.573 371.547C556.707 371.422 556.808 371.267 556.876 371.082L558.316 371.244C558.225 371.625 558.052 371.957 557.796 372.241C557.544 372.523 557.22 372.741 556.825 372.898C556.43 373.051 555.978 373.128 555.47 373.128Z" fill="#667085"/>
<path opacity="0.1" d="M567 108C397.445 253.943 140.352 341.309 60 351.5H114H567V108Z" fill="url(#paint0_linear_1363_13175)"/>
<rect x="120" y="271" width="35" height="20" rx="10" fill="#1A202C"/>
<path d="M130.224 285.119C129.656 285.119 129.147 285.013 128.698 284.8C128.249 284.584 127.893 284.288 127.629 283.913C127.367 283.538 127.228 283.109 127.211 282.626H128.745C128.773 282.984 128.928 283.277 129.21 283.504C129.491 283.729 129.829 283.841 130.224 283.841C130.533 283.841 130.809 283.77 131.05 283.628C131.292 283.486 131.482 283.288 131.621 283.036C131.761 282.783 131.829 282.494 131.826 282.17C131.829 281.841 131.759 281.548 131.617 281.293C131.475 281.037 131.281 280.837 131.033 280.692C130.786 280.544 130.502 280.47 130.181 280.47C129.92 280.467 129.663 280.516 129.41 280.615C129.157 280.714 128.957 280.845 128.809 281.007L127.381 280.773L127.837 276.273H132.9V277.594H129.146L128.894 279.908H128.945C129.107 279.717 129.336 279.56 129.631 279.435C129.927 279.307 130.251 279.243 130.603 279.243C131.131 279.243 131.603 279.368 132.018 279.618C132.433 279.865 132.759 280.206 132.998 280.641C133.237 281.075 133.356 281.572 133.356 282.132C133.356 282.709 133.222 283.223 132.955 283.675C132.691 284.124 132.323 284.477 131.852 284.736C131.383 284.991 130.84 285.119 130.224 285.119ZM137.886 285.119C137.252 285.119 136.69 285.013 136.198 284.8C135.71 284.587 135.326 284.295 135.048 283.926C134.772 283.554 134.636 283.132 134.638 282.661C134.636 282.294 134.715 281.957 134.877 281.651C135.039 281.344 135.258 281.088 135.533 280.884C135.812 280.676 136.121 280.544 136.462 280.487V280.428C136.013 280.328 135.65 280.099 135.371 279.741C135.096 279.381 134.96 278.964 134.962 278.493C134.96 278.044 135.085 277.643 135.337 277.291C135.59 276.939 135.937 276.662 136.377 276.46C136.817 276.256 137.32 276.153 137.886 276.153C138.445 276.153 138.944 276.256 139.381 276.46C139.822 276.662 140.168 276.939 140.421 277.291C140.677 277.643 140.805 278.044 140.805 278.493C140.805 278.964 140.664 279.381 140.383 279.741C140.104 280.099 139.745 280.328 139.305 280.428V280.487C139.646 280.544 139.952 280.676 140.225 280.884C140.501 281.088 140.719 281.344 140.881 281.651C141.046 281.957 141.129 282.294 141.129 282.661C141.129 283.132 140.989 283.554 140.711 283.926C140.433 284.295 140.049 284.587 139.56 284.8C139.075 285.013 138.516 285.119 137.886 285.119ZM137.886 283.901C138.212 283.901 138.496 283.845 138.738 283.734C138.979 283.621 139.167 283.462 139.3 283.257C139.434 283.053 139.502 282.817 139.505 282.55C139.502 282.271 139.43 282.026 139.288 281.812C139.148 281.597 138.957 281.428 138.712 281.305C138.471 281.183 138.195 281.122 137.886 281.122C137.573 281.122 137.295 281.183 137.05 281.305C136.806 281.428 136.613 281.597 136.471 281.812C136.332 282.026 136.263 282.271 136.266 282.55C136.263 282.817 136.329 283.053 136.462 283.257C136.596 283.459 136.783 283.616 137.025 283.73C137.269 283.844 137.556 283.901 137.886 283.901ZM137.886 279.925C138.153 279.925 138.388 279.871 138.593 279.763C138.8 279.655 138.964 279.504 139.083 279.311C139.202 279.118 139.263 278.895 139.266 278.642C139.263 278.392 139.204 278.173 139.087 277.986C138.971 277.795 138.809 277.649 138.602 277.547C138.394 277.442 138.156 277.389 137.886 277.389C137.61 277.389 137.367 277.442 137.157 277.547C136.95 277.649 136.788 277.795 136.671 277.986C136.558 278.173 136.502 278.392 136.505 278.642C136.502 278.895 136.559 279.118 136.675 279.311C136.795 279.501 136.958 279.652 137.165 279.763C137.376 279.871 137.616 279.925 137.886 279.925ZM143.953 282.946L143.949 281.084H144.196L146.548 278.455H148.35L145.457 281.676H145.137L143.953 282.946ZM142.547 285V276.273H144.089V285H142.547ZM146.654 285L144.524 282.021L145.564 280.935L148.5 285H146.654Z" fill="white"/>
<rect opacity="0.4" x="114" y="297" width="47" height="55" rx="4" fill="#EE6A1A"/>
<rect x="255" y="230" width="35" height="20" rx="10" fill="#1A202C"/>
<path d="M265.095 244.119C264.527 244.119 264.018 244.013 263.569 243.8C263.12 243.584 262.764 243.288 262.5 242.913C262.238 242.538 262.099 242.109 262.082 241.626H263.616C263.645 241.984 263.799 242.277 264.081 242.504C264.362 242.729 264.7 242.841 265.095 242.841C265.404 242.841 265.68 242.77 265.922 242.628C266.163 242.486 266.353 242.288 266.493 242.036C266.632 241.783 266.7 241.494 266.697 241.17C266.7 240.841 266.63 240.548 266.488 240.293C266.346 240.037 266.152 239.837 265.904 239.692C265.657 239.544 265.373 239.47 265.052 239.47C264.791 239.467 264.534 239.516 264.281 239.615C264.028 239.714 263.828 239.845 263.68 240.007L262.252 239.773L262.708 235.273H267.771V236.594H264.017L263.765 238.908H263.816C263.978 238.717 264.207 238.56 264.502 238.435C264.798 238.307 265.122 238.243 265.474 238.243C266.002 238.243 266.474 238.368 266.889 238.618C267.304 238.865 267.63 239.206 267.869 239.641C268.108 240.075 268.227 240.572 268.227 241.132C268.227 241.709 268.093 242.223 267.826 242.675C267.562 243.124 267.194 243.477 266.723 243.736C266.254 243.991 265.711 244.119 265.095 244.119ZM272.88 244.166C272.179 244.166 271.576 243.989 271.074 243.634C270.574 243.276 270.189 242.76 269.919 242.087C269.652 241.411 269.518 240.597 269.518 239.645C269.521 238.693 269.656 237.884 269.923 237.216C270.193 236.545 270.578 236.034 271.078 235.682C271.581 235.33 272.181 235.153 272.88 235.153C273.579 235.153 274.18 235.33 274.683 235.682C275.186 236.034 275.571 236.545 275.838 237.216C276.108 237.886 276.243 238.696 276.243 239.645C276.243 240.599 276.108 241.415 275.838 242.091C275.571 242.764 275.186 243.278 274.683 243.634C274.183 243.989 273.582 244.166 272.88 244.166ZM272.88 242.832C273.426 242.832 273.856 242.564 274.172 242.027C274.49 241.487 274.649 240.693 274.649 239.645C274.649 238.952 274.576 238.369 274.431 237.898C274.287 237.426 274.082 237.071 273.818 236.832C273.554 236.591 273.241 236.47 272.88 236.47C272.338 236.47 271.909 236.74 271.593 237.28C271.278 237.817 271.119 238.605 271.116 239.645C271.113 240.341 271.183 240.926 271.325 241.401C271.47 241.875 271.674 242.233 271.939 242.474C272.203 242.713 272.517 242.832 272.88 242.832ZM279.082 241.946L279.077 240.084H279.325L281.677 237.455H283.479L280.586 240.676H280.266L279.082 241.946ZM277.675 244V235.273H279.218V244H277.675ZM281.783 244L279.653 241.021L280.692 239.935L283.629 244H281.783Z" fill="white"/>
<rect opacity="0.6" x="249" y="256" width="47" height="96" rx="4" fill="#EE6A1A"/>
<rect x="392" y="175" width="33" height="20" rx="10" fill="#1A202C"/>
<path d="M402.525 180.273V189H400.944V181.811H400.892L398.851 183.115V181.666L401.02 180.273H402.525ZM407.966 189.166C407.265 189.166 406.662 188.989 406.159 188.634C405.659 188.276 405.275 187.76 405.005 187.087C404.738 186.411 404.604 185.597 404.604 184.645C404.607 183.693 404.742 182.884 405.009 182.216C405.279 181.545 405.664 181.034 406.164 180.682C406.667 180.33 407.267 180.153 407.966 180.153C408.665 180.153 409.266 180.33 409.769 180.682C410.272 181.034 410.657 181.545 410.924 182.216C411.194 182.886 411.328 183.696 411.328 184.645C411.328 185.599 411.194 186.415 410.924 187.091C410.657 187.764 410.272 188.278 409.769 188.634C409.269 188.989 408.668 189.166 407.966 189.166ZM407.966 187.832C408.512 187.832 408.942 187.564 409.257 187.027C409.576 186.487 409.735 185.693 409.735 184.645C409.735 183.952 409.662 183.369 409.517 182.898C409.373 182.426 409.168 182.071 408.904 181.832C408.64 181.591 408.327 181.47 407.966 181.47C407.424 181.47 406.995 181.74 406.679 182.28C406.364 182.817 406.205 183.605 406.202 184.645C406.199 185.341 406.269 185.926 406.411 186.401C406.556 186.875 406.76 187.233 407.025 187.474C407.289 187.713 407.603 187.832 407.966 187.832ZM414.168 186.946L414.163 185.084H414.411L416.763 182.455H418.565L415.672 185.676H415.352L414.168 186.946ZM412.761 189V180.273H414.304V189H412.761ZM416.869 189L414.739 186.021L415.778 184.935L418.714 189H416.869Z" fill="white"/>
<rect opacity="0.8" x="385" y="201" width="47" height="151" rx="4" fill="#EE6A1A"/>
<rect x="526.5" y="81" width="34" height="20" rx="10" fill="#1A202C"/>
<path d="M536.594 86.1534C537.012 86.1562 537.418 86.2301 537.813 86.375C538.211 86.517 538.569 86.75 538.887 87.0739C539.205 87.3949 539.458 87.8253 539.646 88.3651C539.833 88.9048 539.927 89.5724 539.927 90.3679C539.93 91.1179 539.85 91.7884 539.688 92.3793C539.529 92.9673 539.3 93.4645 539.002 93.8707C538.704 94.277 538.344 94.5866 537.924 94.7997C537.504 95.0128 537.031 95.1193 536.505 95.1193C535.954 95.1193 535.465 95.0114 535.039 94.7955C534.616 94.5795 534.273 94.2841 534.012 93.9091C533.751 93.5341 533.59 93.1051 533.531 92.6222H535.086C535.165 92.9687 535.327 93.2443 535.572 93.4489C535.819 93.6506 536.13 93.7514 536.505 93.7514C537.11 93.7514 537.576 93.4886 537.903 92.9631C538.229 92.4375 538.393 91.7074 538.393 90.7727H538.333C538.194 91.0227 538.013 91.2386 537.792 91.4205C537.57 91.5994 537.319 91.7372 537.038 91.8338C536.759 91.9304 536.464 91.9787 536.151 91.9787C535.64 91.9787 535.18 91.8565 534.771 91.6122C534.364 91.3679 534.042 91.0327 533.803 90.6065C533.567 90.1804 533.448 89.6932 533.445 89.1449C533.445 88.5767 533.576 88.0668 533.837 87.6151C534.102 87.1605 534.469 86.8026 534.941 86.5412C535.413 86.277 535.964 86.1477 536.594 86.1534ZM536.599 87.4318C536.292 87.4318 536.015 87.5071 535.768 87.6577C535.523 87.8054 535.33 88.0071 535.188 88.2628C535.049 88.5156 534.979 88.7983 534.979 89.1108C534.982 89.4205 535.052 89.7017 535.188 89.9545C535.327 90.2074 535.516 90.4077 535.755 90.5554C535.996 90.7031 536.272 90.777 536.582 90.777C536.812 90.777 537.026 90.733 537.225 90.6449C537.424 90.5568 537.597 90.4347 537.745 90.2784C537.896 90.1193 538.012 89.9389 538.094 89.7372C538.18 89.5355 538.221 89.3224 538.218 89.098C538.218 88.7997 538.147 88.5241 538.005 88.2713C537.866 88.0185 537.674 87.8153 537.43 87.6619C537.188 87.5085 536.911 87.4318 536.599 87.4318ZM541.431 95L545.143 87.6534V87.5938H540.835V86.2727H546.779V87.6236L543.072 95H541.431ZM549.578 92.946L549.574 91.0838H549.821L552.173 88.4545H553.975L551.082 91.6761H550.762L549.578 92.946ZM548.172 95V86.2727H549.714V95H548.172ZM552.279 95L550.149 92.0213L551.189 90.9347L554.125 95H552.279Z" fill="white"/>
<rect opacity="0.8" x="520" y="107" width="47" height="245" rx="4" fill="#EE6A1A"/>
<defs>
<linearGradient id="paint0_linear_1363_13175" x1="310.5" y1="239" x2="354.5" y2="352" gradientUnits="userSpaceOnUse">
<stop stop-color="#EE6A1A"/>
<stop offset="1" stop-color="white" stop-opacity="0"/>
</linearGradient>
</defs>
</svg>
