<svg width="620" height="378" viewBox="0 0 620 378" fill="none" xmlns="http://www.w3.org/2000/svg">
<path d="M13 203.248L4.27273 203.248L4.27273 201.974L7.51562 201.974L7.51562 201.897C7.37926 201.824 7.22159 201.717 7.04261 201.578C6.86364 201.439 6.70739 201.245 6.57386 200.998C6.4375 200.751 6.36932 200.424 6.36932 200.018C6.36932 199.49 6.50284 199.018 6.76989 198.603C7.03693 198.189 7.42187 197.863 7.92472 197.627C8.42756 197.389 9.03267 197.27 9.74006 197.27C10.4474 197.27 11.054 197.387 11.5597 197.623C12.0625 197.859 12.4503 198.183 12.723 198.595C12.9929 199.007 13.1278 199.477 13.1278 200.005C13.1278 200.403 13.0611 200.728 12.9276 200.981C12.794 201.231 12.6378 201.427 12.4588 201.569C12.2798 201.711 12.1207 201.821 11.9815 201.897L11.9815 202.004L13 202.004L13 203.248ZM9.72727 202C10.1875 202 10.5909 201.933 10.9375 201.799C11.2841 201.666 11.5554 201.473 11.7514 201.22C11.9446 200.967 12.0412 200.657 12.0412 200.291C12.0412 199.91 11.9403 199.592 11.7386 199.336C11.5341 199.081 11.2571 198.887 10.9077 198.757C10.5582 198.623 10.1648 198.556 9.72727 198.556C9.29545 198.556 8.90767 198.622 8.56392 198.752C8.22017 198.88 7.94886 199.074 7.75 199.332C7.55114 199.588 7.4517 199.907 7.4517 200.291C7.4517 200.66 7.54687 200.973 7.73722 201.228C7.92756 201.481 8.19318 201.673 8.53409 201.804C8.875 201.934 9.27273 202 9.72727 202ZM10.2855 191.692L6.45454 191.692L6.45454 190.414L13 190.414L13 191.667L11.8665 191.667L11.8665 191.735C12.2159 191.886 12.5071 192.127 12.7401 192.46C12.9702 192.789 13.0852 193.2 13.0852 193.691C13.0852 194.112 12.9929 194.484 12.8082 194.808C12.6207 195.129 12.3437 195.381 11.9773 195.566C11.6108 195.748 11.1577 195.839 10.6179 195.839L6.45454 195.839L6.45454 194.565L10.4645 194.565C10.9105 194.565 11.2656 194.441 11.5298 194.194C11.794 193.947 11.9261 193.626 11.9261 193.231C11.9261 192.992 11.8665 192.755 11.7472 192.519C11.6278 192.281 11.4474 192.083 11.206 191.927C10.9645 191.768 10.6577 191.69 10.2855 191.692ZM13 188.702L6.45454 188.702L6.45454 187.428L13 187.428L13 188.702ZM5.4446 188.059C5.4446 188.28 5.37074 188.471 5.22301 188.63C5.07244 188.786 4.89346 188.864 4.68608 188.864C4.47585 188.864 4.29687 188.786 4.14915 188.63C3.99858 188.471 3.92329 188.28 3.92329 188.059C3.92329 187.837 3.99858 187.648 4.14915 187.492C4.29687 187.333 4.47585 187.253 4.68608 187.253C4.89346 187.253 5.07244 187.333 5.22301 187.492C5.37074 187.648 5.4446 187.837 5.4446 188.059ZM4.27273 184.44L13 184.44L13 185.714L4.27273 185.714L4.27273 184.44ZM13.1278 180.275C13.1278 180.804 12.9929 181.275 12.723 181.69C12.4503 182.102 12.0625 182.426 11.5597 182.662C11.054 182.895 10.4474 183.011 9.74006 183.011C9.03267 183.011 8.42756 182.893 7.92471 182.657C7.42187 182.419 7.03693 182.092 6.76989 181.677C6.50284 181.262 6.36932 180.792 6.36932 180.267C6.36932 179.86 6.4375 179.534 6.57386 179.287C6.70738 179.037 6.86363 178.843 7.04261 178.707C7.22159 178.568 7.37926 178.46 7.51562 178.383L7.51562 178.306L4.27273 178.306L4.27273 177.032L13 177.032L13 178.277L11.9815 178.277L11.9815 178.383C12.1207 178.46 12.2798 178.571 12.4588 178.716C12.6378 178.858 12.794 179.054 12.9276 179.304C13.0611 179.554 13.1278 179.877 13.1278 180.275ZM12.0412 179.994C12.0412 179.627 11.9446 179.318 11.7514 179.065C11.5554 178.809 11.2841 178.616 10.9375 178.485C10.5909 178.352 10.1875 178.285 9.72727 178.285C9.27273 178.285 8.875 178.35 8.53409 178.481C8.19318 178.612 7.92756 178.804 7.73721 179.056C7.54687 179.309 7.4517 179.622 7.4517 179.994C7.4517 180.377 7.55114 180.697 7.75 180.953C7.94886 181.208 8.22017 181.402 8.56392 181.532C8.90767 181.66 9.29545 181.724 9.72727 181.724C10.1648 181.724 10.5582 181.659 10.9077 181.528C11.2571 181.397 11.5341 181.204 11.7386 180.949C11.9403 180.69 12.0412 180.372 12.0412 179.994ZM6.45454 168.983L7.47727 168.983L7.47727 172.558L6.45454 172.558L6.45454 168.983ZM4.88636 171.599L4.88636 170.325L11.0781 170.325C11.3253 170.325 11.5114 170.288 11.6364 170.214C11.7585 170.14 11.8423 170.045 11.8878 169.929C11.9304 169.809 11.9517 169.68 11.9517 169.541C11.9517 169.439 11.9446 169.349 11.9304 169.272C11.9162 169.196 11.9048 169.136 11.8963 169.093L12.9489 168.863C12.9773 168.937 13.0057 169.042 13.0341 169.179C13.0653 169.315 13.0824 169.485 13.0852 169.69C13.0909 170.025 13.0312 170.338 12.9062 170.627C12.7812 170.917 12.5881 171.152 12.3267 171.331C12.0653 171.51 11.7372 171.599 11.3423 171.599L4.88636 171.599ZM13 167.573L6.45454 167.573L6.45454 166.299L13 166.299L13 167.573ZM5.4446 166.93C5.4446 167.151 5.37074 167.342 5.22301 167.501C5.07244 167.657 4.89346 167.735 4.68608 167.735C4.47585 167.735 4.29687 167.657 4.14915 167.501C3.99858 167.342 3.92329 167.151 3.92329 166.93C3.92329 166.708 3.99858 166.519 4.14915 166.363C4.29687 166.204 4.47585 166.124 4.68608 166.124C4.89346 166.124 5.07244 166.204 5.22301 166.363C5.37074 166.519 5.4446 166.708 5.4446 166.93ZM13 164.585L6.45454 164.585L6.45454 163.362L7.51988 163.362L7.51988 163.281C7.15909 163.145 6.87784 162.922 6.67613 162.612C6.47159 162.302 6.36932 161.931 6.36932 161.5C6.36932 161.062 6.47159 160.696 6.67613 160.4C6.88068 160.102 7.16193 159.882 7.51988 159.74L7.51988 159.672C7.17045 159.515 6.89204 159.267 6.68466 158.926C6.47443 158.585 6.36932 158.179 6.36932 157.707C6.36932 157.113 6.5554 156.629 6.92755 156.254C7.29971 155.876 7.86079 155.687 8.61079 155.687L13 155.687L13 156.961L8.73011 156.961C8.28693 156.961 7.96591 157.082 7.76704 157.324C7.56818 157.565 7.46875 157.853 7.46875 158.189C7.46875 158.603 7.59659 158.926 7.85227 159.156C8.10511 159.386 8.4304 159.501 8.82812 159.501L13 159.501L13 160.771L8.64915 160.771C8.29403 160.771 8.00852 160.882 7.79261 161.103C7.5767 161.325 7.46875 161.613 7.46875 161.968C7.46875 162.21 7.53267 162.433 7.66051 162.637C7.78551 162.839 7.96023 163.002 8.18466 163.127C8.40909 163.25 8.66903 163.311 8.96449 163.311L13 163.311L13 164.585ZM13.1321 151.158C13.1321 151.803 12.9943 152.359 12.7187 152.825C12.4403 153.288 12.0497 153.646 11.5469 153.898C11.0412 154.148 10.4489 154.273 9.76988 154.273C9.09943 154.273 8.50852 154.148 7.99716 153.898C7.48579 153.646 7.08665 153.293 6.79971 152.842C6.51278 152.387 6.36932 151.856 6.36932 151.248C6.36932 150.879 6.4304 150.521 6.55255 150.174C6.67471 149.827 6.86647 149.516 7.12784 149.241C7.3892 148.965 7.72869 148.748 8.1463 148.589C8.56108 148.43 9.06534 148.35 9.65909 148.35L10.1108 148.35L10.1108 153.553L9.15625 153.553L9.15625 149.599C8.82102 149.599 8.52415 149.667 8.26562 149.803C8.00426 149.94 7.79829 150.131 7.64772 150.379C7.49716 150.623 7.42187 150.91 7.42187 151.239C7.42187 151.597 7.50994 151.91 7.68608 152.177C7.85937 152.441 8.08665 152.646 8.3679 152.79C8.6463 152.933 8.94886 153.004 9.27557 153.004L10.0213 153.004C10.4588 153.004 10.831 152.927 11.1378 152.773C11.4446 152.617 11.679 152.4 11.8409 152.121C12 151.843 12.0795 151.518 12.0795 151.146C12.0795 150.904 12.0455 150.684 11.9773 150.485C11.9062 150.286 11.8011 150.114 11.6619 149.969C11.5227 149.825 11.3508 149.714 11.1463 149.637L11.3636 148.431C11.7187 148.528 12.0298 148.701 12.2969 148.951C12.5611 149.198 12.767 149.509 12.9148 149.884C13.0597 150.256 13.1321 150.681 13.1321 151.158Z" fill="#667085"/>
<rect x="302.5" width="37" height="20" rx="10" fill="#1A202C"/>
<path d="M309.527 14V5.27273H311.108V12.6747H314.952V14H309.527ZM323.782 9.63636C323.782 10.5767 323.606 11.3821 323.254 12.0526C322.904 12.7202 322.427 13.2315 321.822 13.5866C321.22 13.9418 320.536 14.1193 319.772 14.1193C319.008 14.1193 318.323 13.9418 317.718 13.5866C317.116 13.2287 316.639 12.7159 316.286 12.0483C315.937 11.3778 315.762 10.5739 315.762 9.63636C315.762 8.69602 315.937 7.89205 316.286 7.22443C316.639 6.55398 317.116 6.04119 317.718 5.68608C318.323 5.33097 319.008 5.15341 319.772 5.15341C320.536 5.15341 321.22 5.33097 321.822 5.68608C322.427 6.04119 322.904 6.55398 323.254 7.22443C323.606 7.89205 323.782 8.69602 323.782 9.63636ZM322.193 9.63636C322.193 8.97443 322.089 8.41619 321.882 7.96165C321.677 7.50426 321.393 7.15909 321.029 6.92614C320.666 6.69034 320.247 6.57244 319.772 6.57244C319.298 6.57244 318.879 6.69034 318.515 6.92614C318.151 7.15909 317.866 7.50426 317.659 7.96165C317.454 8.41619 317.352 8.97443 317.352 9.63636C317.352 10.2983 317.454 10.858 317.659 11.3153C317.866 11.7699 318.151 12.1151 318.515 12.3509C318.879 12.5838 319.298 12.7003 319.772 12.7003C320.247 12.7003 320.666 12.5838 321.029 12.3509C321.393 12.1151 321.677 11.7699 321.882 11.3153C322.089 10.858 322.193 10.2983 322.193 9.63636ZM332.747 8.21733H331.153C331.108 7.95597 331.024 7.72443 330.902 7.52273C330.78 7.31818 330.628 7.14489 330.446 7.00284C330.264 6.8608 330.057 6.75426 329.824 6.68324C329.594 6.60938 329.345 6.57244 329.078 6.57244C328.604 6.57244 328.183 6.69176 327.817 6.9304C327.45 7.16619 327.163 7.51278 326.956 7.97017C326.748 8.42472 326.645 8.98011 326.645 9.63636C326.645 10.304 326.748 10.8665 326.956 11.3239C327.166 11.7784 327.453 12.1222 327.817 12.3551C328.183 12.5852 328.602 12.7003 329.074 12.7003C329.335 12.7003 329.579 12.6662 329.807 12.598C330.037 12.527 330.243 12.4233 330.425 12.2869C330.609 12.1506 330.764 11.983 330.889 11.7841C331.017 11.5852 331.105 11.358 331.153 11.1023L332.747 11.1108C332.687 11.5256 332.558 11.9148 332.359 12.2784C332.163 12.642 331.906 12.9631 331.588 13.2415C331.27 13.517 330.898 13.733 330.471 13.8892C330.045 14.0426 329.572 14.1193 329.052 14.1193C328.285 14.1193 327.601 13.9418 326.998 13.5866C326.396 13.2315 325.922 12.7188 325.575 12.0483C325.229 11.3778 325.055 10.5739 325.055 9.63636C325.055 8.69602 325.23 7.89205 325.579 7.22443C325.929 6.55398 326.405 6.04119 327.007 5.68608C327.609 5.33097 328.291 5.15341 329.052 5.15341C329.538 5.15341 329.99 5.22159 330.407 5.35795C330.825 5.49432 331.197 5.6946 331.524 5.95881C331.851 6.22017 332.119 6.54119 332.329 6.92188C332.542 7.29972 332.682 7.73153 332.747 8.21733Z" fill="white"/>
<path d="M39.4996 30.7102V29.8409L43.3349 23.7727H43.9656V25.1193H43.5394L40.6417 29.7045V29.7727H45.8065V30.7102H39.4996ZM43.6076 32.5V30.446V30.0412V23.7727H44.6133V32.5H43.6076ZM50.25 32.6193C49.608 32.6193 49.0611 32.4446 48.6094 32.0952C48.1577 31.7429 47.8125 31.233 47.5739 30.5653C47.3352 29.8949 47.2159 29.0852 47.2159 28.1364C47.2159 27.1932 47.3352 26.3878 47.5739 25.7202C47.8153 25.0497 48.1619 24.5384 48.6136 24.1861C49.0682 23.831 49.6136 23.6534 50.25 23.6534C50.8864 23.6534 51.4304 23.831 51.8821 24.1861C52.3366 24.5384 52.6832 25.0497 52.9219 25.7202C53.1634 26.3878 53.2841 27.1932 53.2841 28.1364C53.2841 29.0852 53.1648 29.8949 52.9261 30.5653C52.6875 31.233 52.3423 31.7429 51.8906 32.0952C51.4389 32.4446 50.892 32.6193 50.25 32.6193ZM50.25 31.6818C50.8864 31.6818 51.3807 31.375 51.733 30.7614C52.0852 30.1477 52.2614 29.2727 52.2614 28.1364C52.2614 27.3807 52.1804 26.7372 52.0185 26.206C51.8594 25.6747 51.6293 25.2699 51.3281 24.9915C51.0298 24.7131 50.6705 24.5739 50.25 24.5739C49.6193 24.5739 49.1264 24.8849 48.7713 25.5071C48.4162 26.1264 48.2386 27.0028 48.2386 28.1364C48.2386 28.892 48.3182 29.5341 48.4773 30.0625C48.6364 30.5909 48.8651 30.9929 49.1634 31.2685C49.4645 31.544 49.8267 31.6818 50.25 31.6818Z" fill="#667085"/>
<line x1="62.5" y1="28.5" x2="619.5" y2="28.5" stroke="#F2F4F7" stroke-linecap="round"/>
<path d="M42.7116 113.369C42.1491 113.369 41.6477 113.273 41.2074 113.08C40.7699 112.886 40.4219 112.618 40.1634 112.274C39.9077 111.928 39.7685 111.526 39.7457 111.068H40.8196C40.8423 111.349 40.9389 111.592 41.1094 111.797C41.2798 111.999 41.5028 112.155 41.7784 112.266C42.054 112.376 42.3594 112.432 42.6946 112.432C43.0696 112.432 43.402 112.366 43.6918 112.236C43.9815 112.105 44.2088 111.923 44.3736 111.69C44.5384 111.457 44.6207 111.188 44.6207 110.881C44.6207 110.56 44.5412 110.277 44.3821 110.033C44.223 109.786 43.9901 109.592 43.6832 109.453C43.3764 109.314 43.0014 109.244 42.5582 109.244H41.8594V108.307H42.5582C42.9048 108.307 43.2088 108.244 43.4702 108.119C43.7344 107.994 43.9403 107.818 44.0881 107.591C44.2386 107.364 44.3139 107.097 44.3139 106.79C44.3139 106.494 44.2486 106.237 44.1179 106.018C43.9872 105.8 43.8026 105.629 43.5639 105.507C43.3281 105.385 43.0497 105.324 42.7287 105.324C42.4276 105.324 42.1435 105.379 41.8764 105.49C41.6122 105.598 41.3963 105.756 41.2287 105.963C41.0611 106.168 40.9702 106.415 40.956 106.705H39.9332C39.9503 106.247 40.0881 105.847 40.3466 105.503C40.6051 105.156 40.9432 104.886 41.3608 104.693C41.7813 104.5 42.2429 104.403 42.7457 104.403C43.2855 104.403 43.7486 104.513 44.1349 104.732C44.5213 104.947 44.8182 105.233 45.0256 105.588C45.233 105.943 45.3366 106.327 45.3366 106.739C45.3366 107.23 45.2074 107.649 44.9489 107.996C44.6932 108.342 44.3452 108.582 43.9048 108.716V108.784C44.456 108.875 44.8864 109.109 45.196 109.487C45.5057 109.862 45.6605 110.327 45.6605 110.881C45.6605 111.355 45.5313 111.781 45.2727 112.159C45.017 112.534 44.6676 112.83 44.2244 113.045C43.7813 113.261 43.277 113.369 42.7116 113.369ZM50.25 113.369C49.608 113.369 49.0611 113.195 48.6094 112.845C48.1577 112.493 47.8125 111.983 47.5739 111.315C47.3352 110.645 47.2159 109.835 47.2159 108.886C47.2159 107.943 47.3352 107.138 47.5739 106.47C47.8153 105.8 48.1619 105.288 48.6136 104.936C49.0682 104.581 49.6136 104.403 50.25 104.403C50.8864 104.403 51.4304 104.581 51.8821 104.936C52.3366 105.288 52.6832 105.8 52.9219 106.47C53.1634 107.138 53.2841 107.943 53.2841 108.886C53.2841 109.835 53.1648 110.645 52.9261 111.315C52.6875 111.983 52.3423 112.493 51.8906 112.845C51.4389 113.195 50.892 113.369 50.25 113.369ZM50.25 112.432C50.8864 112.432 51.3807 112.125 51.733 111.511C52.0852 110.898 52.2614 110.023 52.2614 108.886C52.2614 108.131 52.1804 107.487 52.0185 106.956C51.8594 106.425 51.6293 106.02 51.3281 105.741C51.0298 105.463 50.6705 105.324 50.25 105.324C49.6193 105.324 49.1264 105.635 48.7713 106.257C48.4162 106.876 48.2386 107.753 48.2386 108.886C48.2386 109.642 48.3182 110.284 48.4773 110.812C48.6364 111.341 48.8651 111.743 49.1634 112.018C49.4645 112.294 49.8267 112.432 50.25 112.432Z" fill="#667085"/>
<line x1="62.5" y1="109.25" x2="619.5" y2="109.25" stroke="#F2F4F7" stroke-linecap="round"/>
<path d="M40.1378 194V193.233L43.0185 190.08C43.3565 189.71 43.6349 189.389 43.8537 189.116C44.0724 188.841 44.2344 188.582 44.3395 188.341C44.4474 188.097 44.5014 187.841 44.5014 187.574C44.5014 187.267 44.4276 187.001 44.2798 186.777C44.1349 186.553 43.9361 186.379 43.6832 186.257C43.4304 186.135 43.1463 186.074 42.831 186.074C42.4957 186.074 42.2031 186.143 41.9531 186.283C41.706 186.419 41.5142 186.611 41.3778 186.858C41.2443 187.105 41.1776 187.395 41.1776 187.727H40.1719C40.1719 187.216 40.2898 186.767 40.5256 186.381C40.7614 185.994 41.0824 185.693 41.4886 185.477C41.8977 185.261 42.3565 185.153 42.8651 185.153C43.3764 185.153 43.8295 185.261 44.2244 185.477C44.6193 185.693 44.929 185.984 45.1534 186.351C45.3778 186.717 45.4901 187.125 45.4901 187.574C45.4901 187.895 45.4318 188.209 45.3153 188.516C45.2017 188.82 45.0028 189.159 44.7188 189.534C44.4375 189.906 44.0469 190.361 43.5469 190.898L41.5866 192.994V193.062H45.6435V194H40.1378ZM50.25 194.119C49.608 194.119 49.0611 193.945 48.6094 193.595C48.1577 193.243 47.8125 192.733 47.5739 192.065C47.3352 191.395 47.2159 190.585 47.2159 189.636C47.2159 188.693 47.3352 187.888 47.5739 187.22C47.8153 186.55 48.1619 186.038 48.6136 185.686C49.0682 185.331 49.6136 185.153 50.25 185.153C50.8864 185.153 51.4304 185.331 51.8821 185.686C52.3366 186.038 52.6832 186.55 52.9219 187.22C53.1634 187.888 53.2841 188.693 53.2841 189.636C53.2841 190.585 53.1648 191.395 52.9261 192.065C52.6875 192.733 52.3423 193.243 51.8906 193.595C51.4389 193.945 50.892 194.119 50.25 194.119ZM50.25 193.182C50.8864 193.182 51.3807 192.875 51.733 192.261C52.0852 191.648 52.2614 190.773 52.2614 189.636C52.2614 188.881 52.1804 188.237 52.0185 187.706C51.8594 187.175 51.6293 186.77 51.3281 186.491C51.0298 186.213 50.6705 186.074 50.25 186.074C49.6193 186.074 49.1264 186.385 48.7713 187.007C48.4162 187.626 48.2386 188.503 48.2386 189.636C48.2386 190.392 48.3182 191.034 48.4773 191.562C48.6364 192.091 48.8651 192.493 49.1634 192.768C49.4645 193.044 49.8267 193.182 50.25 193.182Z" fill="#667085"/>
<line x1="62.5" y1="190" x2="619.5" y2="190" stroke="#F2F4F7" stroke-linecap="round"/>
<path d="M44.8935 266.023V274.75H43.8366V267.131H43.7855L41.6548 268.545V267.472L43.8366 266.023H44.8935ZM50.25 274.869C49.608 274.869 49.0611 274.695 48.6094 274.345C48.1577 273.993 47.8125 273.483 47.5739 272.815C47.3352 272.145 47.2159 271.335 47.2159 270.386C47.2159 269.443 47.3352 268.638 47.5739 267.97C47.8153 267.3 48.1619 266.788 48.6136 266.436C49.0682 266.081 49.6136 265.903 50.25 265.903C50.8864 265.903 51.4304 266.081 51.8821 266.436C52.3366 266.788 52.6832 267.3 52.9219 267.97C53.1634 268.638 53.2841 269.443 53.2841 270.386C53.2841 271.335 53.1648 272.145 52.9261 272.815C52.6875 273.483 52.3423 273.993 51.8906 274.345C51.4389 274.695 50.892 274.869 50.25 274.869ZM50.25 273.932C50.8864 273.932 51.3807 273.625 51.733 273.011C52.0852 272.398 52.2614 271.523 52.2614 270.386C52.2614 269.631 52.1804 268.987 52.0185 268.456C51.8594 267.925 51.6293 267.52 51.3281 267.241C51.0298 266.963 50.6705 266.824 50.25 266.824C49.6193 266.824 49.1264 267.135 48.7713 267.757C48.4162 268.376 48.2386 269.253 48.2386 270.386C48.2386 271.142 48.3182 271.784 48.4773 272.312C48.6364 272.841 48.8651 273.243 49.1634 273.518C49.4645 273.794 49.8267 273.932 50.25 273.932Z" fill="#667085"/>
<line x1="62.5" y1="270.75" x2="619.5" y2="270.75" stroke="#F2F4F7" stroke-linecap="round"/>
<path d="M50.25 355.619C49.608 355.619 49.0611 355.445 48.6094 355.095C48.1577 354.743 47.8125 354.233 47.5739 353.565C47.3352 352.895 47.2159 352.085 47.2159 351.136C47.2159 350.193 47.3352 349.388 47.5739 348.72C47.8153 348.05 48.1619 347.538 48.6136 347.186C49.0682 346.831 49.6136 346.653 50.25 346.653C50.8864 346.653 51.4304 346.831 51.8821 347.186C52.3366 347.538 52.6832 348.05 52.9219 348.72C53.1634 349.388 53.2841 350.193 53.2841 351.136C53.2841 352.085 53.1648 352.895 52.9261 353.565C52.6875 354.233 52.3423 354.743 51.8906 355.095C51.4389 355.445 50.892 355.619 50.25 355.619ZM50.25 354.682C50.8864 354.682 51.3807 354.375 51.733 353.761C52.0852 353.148 52.2614 352.273 52.2614 351.136C52.2614 350.381 52.1804 349.737 52.0185 349.206C51.8594 348.675 51.6293 348.27 51.3281 347.991C51.0298 347.713 50.6705 347.574 50.25 347.574C49.6193 347.574 49.1264 347.885 48.7713 348.507C48.4162 349.126 48.2386 350.003 48.2386 351.136C48.2386 351.892 48.3182 352.534 48.4773 353.062C48.6364 353.591 48.8651 353.993 49.1634 354.268C49.4645 354.544 49.8267 354.682 50.25 354.682Z" fill="#667085"/>
<line x1="62.5" y1="351.5" x2="619.5" y2="351.5" stroke="#E1E2E3" stroke-linecap="round"/>
<path d="M118.322 373V366.455H119.796V367.567H119.873C120.009 367.192 120.235 366.899 120.551 366.689C120.866 366.476 121.242 366.369 121.68 366.369C122.123 366.369 122.497 366.477 122.801 366.693C123.107 366.906 123.323 367.197 123.448 367.567H123.517C123.661 367.203 123.906 366.913 124.249 366.697C124.596 366.479 125.007 366.369 125.481 366.369C126.083 366.369 126.575 366.56 126.955 366.94C127.336 367.321 127.526 367.876 127.526 368.607V373H125.98V368.845C125.98 368.439 125.872 368.142 125.656 367.955C125.44 367.764 125.176 367.669 124.863 367.669C124.491 367.669 124.2 367.786 123.99 368.018C123.782 368.249 123.678 368.548 123.678 368.918V373H122.166V368.781C122.166 368.443 122.063 368.173 121.859 367.972C121.657 367.77 121.393 367.669 121.066 367.669C120.845 367.669 120.643 367.726 120.461 367.839C120.279 367.95 120.134 368.108 120.026 368.312C119.919 368.514 119.865 368.75 119.865 369.02V373H118.322ZM131.989 373.128C131.333 373.128 130.766 372.991 130.289 372.719C129.814 372.443 129.449 372.054 129.194 371.551C128.938 371.045 128.81 370.45 128.81 369.766C128.81 369.092 128.938 368.501 129.194 367.993C129.452 367.482 129.813 367.084 130.276 366.8C130.739 366.513 131.283 366.369 131.908 366.369C132.312 366.369 132.692 366.435 133.05 366.565C133.411 366.693 133.729 366.892 134.005 367.162C134.283 367.432 134.502 367.776 134.661 368.193C134.82 368.608 134.9 369.102 134.9 369.676V370.149H129.535V369.109H133.421C133.418 368.814 133.354 368.551 133.229 368.321C133.104 368.088 132.93 367.905 132.705 367.771C132.483 367.638 132.225 367.571 131.93 367.571C131.614 367.571 131.337 367.648 131.099 367.801C130.86 367.952 130.674 368.151 130.54 368.398C130.41 368.642 130.343 368.911 130.34 369.203V370.111C130.34 370.491 130.41 370.818 130.549 371.091C130.688 371.361 130.883 371.568 131.133 371.713C131.383 371.855 131.675 371.926 132.01 371.926C132.235 371.926 132.438 371.895 132.62 371.832C132.802 371.767 132.959 371.672 133.093 371.547C133.226 371.422 133.327 371.267 133.395 371.082L134.836 371.244C134.745 371.625 134.572 371.957 134.316 372.241C134.063 372.523 133.739 372.741 133.344 372.898C132.949 373.051 132.498 373.128 131.989 373.128ZM137.747 369.165V373H136.205V366.455H137.679V367.567H137.756C137.906 367.2 138.146 366.909 138.476 366.693C138.808 366.477 139.219 366.369 139.708 366.369C140.159 366.369 140.553 366.466 140.888 366.659C141.226 366.852 141.487 367.132 141.672 367.499C141.86 367.865 141.952 368.31 141.949 368.832V373H140.406V369.071C140.406 368.634 140.293 368.291 140.066 368.044C139.841 367.797 139.53 367.673 139.132 367.673C138.862 367.673 138.622 367.733 138.412 367.852C138.205 367.969 138.041 368.138 137.922 368.359C137.806 368.581 137.747 368.849 137.747 369.165ZM145.06 369.165V373H143.517V364.273H145.026V367.567H145.102C145.256 367.197 145.493 366.906 145.814 366.693C146.138 366.477 146.55 366.369 147.05 366.369C147.504 366.369 147.901 366.464 148.239 366.655C148.577 366.845 148.838 367.124 149.023 367.49C149.21 367.857 149.304 368.304 149.304 368.832V373H147.762V369.071C147.762 368.631 147.648 368.288 147.421 368.044C147.196 367.797 146.881 367.673 146.475 367.673C146.202 367.673 145.958 367.733 145.742 367.852C145.529 367.969 145.361 368.138 145.239 368.359C145.119 368.581 145.06 368.849 145.06 369.165ZM150.877 373V366.455H152.419V373H150.877ZM151.652 365.526C151.408 365.526 151.198 365.445 151.021 365.283C150.845 365.118 150.757 364.92 150.757 364.69C150.757 364.457 150.845 364.26 151.021 364.098C151.198 363.933 151.408 363.851 151.652 363.851C151.899 363.851 152.11 363.933 152.283 364.098C152.459 364.26 152.547 364.457 152.547 364.69C152.547 364.92 152.459 365.118 152.283 365.283C152.11 365.445 151.899 365.526 151.652 365.526ZM154.006 373V366.455H155.501V367.545H155.569C155.689 367.168 155.893 366.876 156.183 366.672C156.476 366.464 156.809 366.361 157.184 366.361C157.27 366.361 157.365 366.365 157.47 366.374C157.578 366.379 157.667 366.389 157.738 366.403V367.822C157.673 367.8 157.569 367.78 157.427 367.763C157.288 367.743 157.153 367.733 157.023 367.733C156.741 367.733 156.488 367.794 156.264 367.916C156.042 368.036 155.868 368.202 155.74 368.415C155.612 368.628 155.548 368.874 155.548 369.152V373H154.006Z" fill="#667085"/>
<path d="M260.667 373.128C260.028 373.128 259.474 372.987 259.005 372.706C258.537 372.425 258.173 372.031 257.914 371.526C257.659 371.02 257.531 370.429 257.531 369.753C257.531 369.077 257.659 368.484 257.914 367.976C258.173 367.467 258.537 367.072 259.005 366.791C259.474 366.51 260.028 366.369 260.667 366.369C261.306 366.369 261.86 366.51 262.329 366.791C262.798 367.072 263.16 367.467 263.416 367.976C263.674 368.484 263.804 369.077 263.804 369.753C263.804 370.429 263.674 371.02 263.416 371.526C263.16 372.031 262.798 372.425 262.329 372.706C261.86 372.987 261.306 373.128 260.667 373.128ZM260.676 371.892C261.022 371.892 261.312 371.797 261.545 371.607C261.778 371.413 261.951 371.155 262.065 370.831C262.181 370.507 262.24 370.146 262.24 369.749C262.24 369.348 262.181 368.986 262.065 368.662C261.951 368.335 261.778 368.075 261.545 367.882C261.312 367.689 261.022 367.592 260.676 367.592C260.321 367.592 260.025 367.689 259.789 367.882C259.556 368.075 259.382 368.335 259.265 368.662C259.152 368.986 259.095 369.348 259.095 369.749C259.095 370.146 259.152 370.507 259.265 370.831C259.382 371.155 259.556 371.413 259.789 371.607C260.025 371.797 260.321 371.892 260.676 371.892ZM265.113 375.455V366.455H266.63V367.537H266.719C266.799 367.378 266.911 367.209 267.056 367.03C267.201 366.848 267.397 366.693 267.644 366.565C267.891 366.435 268.207 366.369 268.59 366.369C269.096 366.369 269.552 366.499 269.958 366.757C270.367 367.013 270.691 367.392 270.93 367.895C271.171 368.395 271.292 369.009 271.292 369.736C271.292 370.455 271.174 371.065 270.938 371.568C270.702 372.071 270.381 372.455 269.975 372.719C269.569 372.983 269.109 373.115 268.594 373.115C268.219 373.115 267.908 373.053 267.661 372.928C267.414 372.803 267.215 372.652 267.065 372.476C266.917 372.297 266.802 372.128 266.719 371.969H266.656V375.455H265.113ZM266.626 369.727C266.626 370.151 266.685 370.521 266.805 370.839C266.927 371.158 267.102 371.406 267.329 371.585C267.559 371.761 267.837 371.849 268.164 371.849C268.505 371.849 268.79 371.759 269.021 371.577C269.251 371.392 269.424 371.141 269.54 370.822C269.66 370.501 269.719 370.136 269.719 369.727C269.719 369.321 269.661 368.96 269.545 368.645C269.428 368.33 269.255 368.082 269.025 367.903C268.795 367.724 268.508 367.635 268.164 367.635C267.835 367.635 267.555 367.722 267.325 367.895C267.094 368.068 266.92 368.311 266.8 368.624C266.684 368.936 266.626 369.304 266.626 369.727ZM274.496 373.132C274.082 373.132 273.708 373.058 273.376 372.911C273.046 372.76 272.785 372.538 272.592 372.246C272.401 371.953 272.306 371.592 272.306 371.163C272.306 370.794 272.374 370.489 272.511 370.247C272.647 370.006 272.833 369.812 273.069 369.668C273.305 369.523 273.57 369.413 273.866 369.339C274.164 369.263 274.472 369.207 274.79 369.173C275.174 369.134 275.485 369.098 275.724 369.067C275.962 369.033 276.136 368.982 276.244 368.913C276.354 368.842 276.41 368.733 276.41 368.585V368.56C276.41 368.239 276.315 367.99 276.124 367.814C275.934 367.638 275.66 367.55 275.302 367.55C274.924 367.55 274.624 367.632 274.403 367.797C274.184 367.962 274.036 368.156 273.96 368.381L272.519 368.176C272.633 367.778 272.82 367.446 273.082 367.179C273.343 366.909 273.663 366.707 274.04 366.574C274.418 366.438 274.836 366.369 275.293 366.369C275.609 366.369 275.923 366.406 276.235 366.48C276.548 366.554 276.833 366.676 277.092 366.847C277.35 367.014 277.558 367.243 277.714 367.533C277.873 367.822 277.952 368.185 277.952 368.619V373H276.469V372.101H276.418C276.325 372.283 276.192 372.453 276.022 372.612C275.854 372.768 275.643 372.895 275.387 372.991C275.134 373.085 274.837 373.132 274.496 373.132ZM274.897 371.999C275.207 371.999 275.475 371.937 275.702 371.815C275.93 371.69 276.104 371.526 276.227 371.321C276.352 371.116 276.414 370.893 276.414 370.652V369.881C276.366 369.92 276.283 369.957 276.167 369.991C276.053 370.026 275.925 370.055 275.783 370.081C275.641 370.107 275.501 370.129 275.362 370.149C275.222 370.169 275.102 370.186 274.999 370.2C274.769 370.232 274.563 370.283 274.381 370.354C274.2 370.425 274.056 370.524 273.951 370.652C273.846 370.777 273.793 370.939 273.793 371.138C273.793 371.422 273.897 371.636 274.104 371.781C274.312 371.926 274.576 371.999 274.897 371.999ZM279.504 373V366.455H280.978V367.567H281.055C281.191 367.192 281.417 366.899 281.732 366.689C282.048 366.476 282.424 366.369 282.862 366.369C283.305 366.369 283.678 366.477 283.982 366.693C284.289 366.906 284.505 367.197 284.63 367.567H284.698C284.843 367.203 285.087 366.913 285.431 366.697C285.778 366.479 286.188 366.369 286.663 366.369C287.265 366.369 287.756 366.56 288.137 366.94C288.518 367.321 288.708 367.876 288.708 368.607V373H287.161V368.845C287.161 368.439 287.053 368.142 286.837 367.955C286.621 367.764 286.357 367.669 286.045 367.669C285.673 367.669 285.381 367.786 285.171 368.018C284.964 368.249 284.86 368.548 284.86 368.918V373H283.347V368.781C283.347 368.443 283.245 368.173 283.04 367.972C282.839 367.77 282.575 367.669 282.248 367.669C282.026 367.669 281.825 367.726 281.643 367.839C281.461 367.95 281.316 368.108 281.208 368.312C281.1 368.514 281.046 368.75 281.046 369.02V373H279.504Z" fill="#667085"/>
<path d="M389.521 373V366.455H390.996V367.567H391.072C391.209 367.192 391.434 366.899 391.75 366.689C392.065 366.476 392.442 366.369 392.879 366.369C393.322 366.369 393.696 366.477 394 366.693C394.307 366.906 394.523 367.197 394.648 367.567H394.716C394.861 367.203 395.105 366.913 395.449 366.697C395.795 366.479 396.206 366.369 396.68 366.369C397.282 366.369 397.774 366.56 398.155 366.94C398.535 367.321 398.726 367.876 398.726 368.607V373H397.179V368.845C397.179 368.439 397.071 368.142 396.855 367.955C396.639 367.764 396.375 367.669 396.062 367.669C395.69 367.669 395.399 367.786 395.189 368.018C394.981 368.249 394.878 368.548 394.878 368.918V373H393.365V368.781C393.365 368.443 393.263 368.173 393.058 367.972C392.856 367.77 392.592 367.669 392.265 367.669C392.044 367.669 391.842 367.726 391.66 367.839C391.479 367.95 391.334 368.108 391.226 368.312C391.118 368.514 391.064 368.75 391.064 369.02V373H389.521ZM400.291 373V366.455H401.833V373H400.291ZM401.066 365.526C400.822 365.526 400.612 365.445 400.436 365.283C400.259 365.118 400.171 364.92 400.171 364.69C400.171 364.457 400.259 364.26 400.436 364.098C400.612 363.933 400.822 363.851 401.066 363.851C401.313 363.851 401.524 363.933 401.697 364.098C401.873 364.26 401.961 364.457 401.961 364.69C401.961 364.92 401.873 365.118 401.697 365.283C401.524 365.445 401.313 365.526 401.066 365.526ZM403.42 373V366.455H404.915V367.545H404.983C405.103 367.168 405.307 366.876 405.597 366.672C405.89 366.464 406.224 366.361 406.599 366.361C406.684 366.361 406.779 366.365 406.884 366.374C406.992 366.379 407.081 366.389 407.153 366.403V367.822C407.087 367.8 406.983 367.78 406.841 367.763C406.702 367.743 406.567 367.733 406.437 367.733C406.155 367.733 405.903 367.794 405.678 367.916C405.456 368.036 405.282 368.202 405.154 368.415C405.026 368.628 404.962 368.874 404.962 369.152V373H403.42ZM409.944 373.132C409.529 373.132 409.155 373.058 408.823 372.911C408.493 372.76 408.232 372.538 408.039 372.246C407.849 371.953 407.753 371.592 407.753 371.163C407.753 370.794 407.822 370.489 407.958 370.247C408.094 370.006 408.28 369.812 408.516 369.668C408.752 369.523 409.018 369.413 409.313 369.339C409.611 369.263 409.92 369.207 410.238 369.173C410.621 369.134 410.932 369.098 411.171 369.067C411.41 369.033 411.583 368.982 411.691 368.913C411.802 368.842 411.857 368.733 411.857 368.585V368.56C411.857 368.239 411.762 367.99 411.572 367.814C411.381 367.638 411.107 367.55 410.749 367.55C410.371 367.55 410.072 367.632 409.85 367.797C409.631 367.962 409.483 368.156 409.407 368.381L407.966 368.176C408.08 367.778 408.268 367.446 408.529 367.179C408.79 366.909 409.11 366.707 409.488 366.574C409.866 366.438 410.283 366.369 410.741 366.369C411.056 366.369 411.37 366.406 411.682 366.48C411.995 366.554 412.28 366.676 412.539 366.847C412.797 367.014 413.005 367.243 413.161 367.533C413.32 367.822 413.4 368.185 413.4 368.619V373H411.917V372.101H411.866C411.772 372.283 411.64 372.453 411.469 372.612C411.302 372.768 411.09 372.895 410.834 372.991C410.581 373.085 410.285 373.132 409.944 373.132ZM410.344 371.999C410.654 371.999 410.922 371.937 411.15 371.815C411.377 371.69 411.552 371.526 411.674 371.321C411.799 371.116 411.861 370.893 411.861 370.652V369.881C411.813 369.92 411.731 369.957 411.614 369.991C411.501 370.026 411.373 370.055 411.231 370.081C411.089 370.107 410.948 370.129 410.809 370.149C410.67 370.169 410.549 370.186 410.447 370.2C410.216 370.232 410.01 370.283 409.829 370.354C409.647 370.425 409.503 370.524 409.398 370.652C409.293 370.777 409.241 370.939 409.241 371.138C409.241 371.422 409.344 371.636 409.552 371.781C409.759 371.926 410.023 371.999 410.344 371.999ZM417.797 375.591C417.243 375.591 416.768 375.516 416.37 375.365C415.972 375.217 415.653 375.018 415.411 374.768C415.17 374.518 415.002 374.241 414.908 373.938L416.297 373.601C416.36 373.729 416.451 373.855 416.57 373.98C416.689 374.108 416.85 374.213 417.052 374.295C417.256 374.381 417.513 374.423 417.823 374.423C418.26 374.423 418.623 374.317 418.91 374.104C419.197 373.893 419.34 373.547 419.34 373.064V371.824H419.263C419.184 371.983 419.067 372.146 418.914 372.314C418.763 372.482 418.563 372.622 418.313 372.736C418.066 372.849 417.755 372.906 417.38 372.906C416.877 372.906 416.421 372.788 416.012 372.553C415.606 372.314 415.282 371.959 415.04 371.487C414.802 371.013 414.682 370.419 414.682 369.706C414.682 368.987 414.802 368.381 415.04 367.886C415.282 367.389 415.607 367.013 416.016 366.757C416.425 366.499 416.881 366.369 417.384 366.369C417.768 366.369 418.083 366.435 418.33 366.565C418.58 366.693 418.779 366.848 418.927 367.03C419.074 367.209 419.187 367.378 419.263 367.537H419.349V366.455H420.87V373.107C420.87 373.666 420.736 374.129 420.469 374.496C420.202 374.862 419.837 375.136 419.374 375.318C418.911 375.5 418.385 375.591 417.797 375.591ZM417.81 371.696C418.137 371.696 418.415 371.616 418.645 371.457C418.876 371.298 419.05 371.07 419.17 370.771C419.289 370.473 419.349 370.115 419.349 369.697C419.349 369.286 419.289 368.925 419.17 368.615C419.053 368.305 418.88 368.065 418.65 367.895C418.422 367.722 418.143 367.635 417.81 367.635C417.466 367.635 417.18 367.724 416.949 367.903C416.719 368.082 416.546 368.328 416.43 368.641C416.313 368.95 416.255 369.303 416.255 369.697C416.255 370.098 416.313 370.449 416.43 370.75C416.549 371.048 416.724 371.281 416.954 371.449C417.187 371.614 417.472 371.696 417.81 371.696ZM425.349 373.128C424.692 373.128 424.126 372.991 423.648 372.719C423.174 372.443 422.809 372.054 422.553 371.551C422.297 371.045 422.17 370.45 422.17 369.766C422.17 369.092 422.297 368.501 422.553 367.993C422.812 367.482 423.172 367.084 423.635 366.8C424.099 366.513 424.643 366.369 425.268 366.369C425.671 366.369 426.052 366.435 426.41 366.565C426.77 366.693 427.089 366.892 427.364 367.162C427.643 367.432 427.861 367.776 428.02 368.193C428.18 368.608 428.259 369.102 428.259 369.676V370.149H422.894V369.109H426.78C426.778 368.814 426.714 368.551 426.589 368.321C426.464 368.088 426.289 367.905 426.064 367.771C425.843 367.638 425.584 367.571 425.289 367.571C424.974 367.571 424.697 367.648 424.458 367.801C424.219 367.952 424.033 368.151 423.9 368.398C423.769 368.642 423.702 368.911 423.699 369.203V370.111C423.699 370.491 423.769 370.818 423.908 371.091C424.047 371.361 424.242 371.568 424.492 371.713C424.742 371.855 425.035 371.926 425.37 371.926C425.594 371.926 425.797 371.895 425.979 371.832C426.161 371.767 426.319 371.672 426.452 371.547C426.586 371.422 426.687 371.267 426.755 371.082L428.195 371.244C428.104 371.625 427.931 371.957 427.675 372.241C427.422 372.523 427.099 372.741 426.704 372.898C426.309 373.051 425.857 373.128 425.349 373.128Z" fill="#667085"/>
<path d="M532.829 373.115C532.315 373.115 531.855 372.983 531.448 372.719C531.042 372.455 530.721 372.071 530.485 371.568C530.249 371.065 530.132 370.455 530.132 369.736C530.132 369.009 530.251 368.395 530.49 367.895C530.731 367.392 531.056 367.013 531.465 366.757C531.874 366.499 532.33 366.369 532.833 366.369C533.217 366.369 533.532 366.435 533.779 366.565C534.026 366.693 534.222 366.848 534.367 367.03C534.512 367.209 534.624 367.378 534.704 367.537H534.768V364.273H536.315V373H534.798V371.969H534.704C534.624 372.128 534.509 372.297 534.359 372.476C534.208 372.652 534.009 372.803 533.762 372.928C533.515 373.053 533.204 373.115 532.829 373.115ZM533.259 371.849C533.586 371.849 533.865 371.761 534.095 371.585C534.325 371.406 534.499 371.158 534.619 370.839C534.738 370.521 534.798 370.151 534.798 369.727C534.798 369.304 534.738 368.936 534.619 368.624C534.502 368.311 534.329 368.068 534.099 367.895C533.872 367.722 533.592 367.635 533.259 367.635C532.916 367.635 532.629 367.724 532.399 367.903C532.169 368.082 531.995 368.33 531.879 368.645C531.762 368.96 531.704 369.321 531.704 369.727C531.704 370.136 531.762 370.501 531.879 370.822C531.998 371.141 532.173 371.392 532.403 371.577C532.636 371.759 532.921 371.849 533.259 371.849ZM542.131 370.247V366.455H543.673V373H542.177V371.837H542.109C541.961 372.203 541.719 372.503 541.381 372.736C541.045 372.969 540.632 373.085 540.14 373.085C539.711 373.085 539.332 372.99 539.003 372.8C538.676 372.607 538.42 372.327 538.236 371.96C538.051 371.591 537.959 371.145 537.959 370.622V366.455H539.501V370.384C539.501 370.798 539.615 371.128 539.842 371.372C540.069 371.616 540.368 371.739 540.737 371.739C540.964 371.739 541.184 371.683 541.398 371.572C541.611 371.462 541.785 371.297 541.922 371.078C542.061 370.857 542.131 370.58 542.131 370.247ZM546.802 369.165V373H545.259V366.455H546.734V367.567H546.811C546.961 367.2 547.201 366.909 547.531 366.693C547.863 366.477 548.274 366.369 548.762 366.369C549.214 366.369 549.607 366.466 549.943 366.659C550.281 366.852 550.542 367.132 550.727 367.499C550.914 367.865 551.007 368.31 551.004 368.832V373H549.461V369.071C549.461 368.634 549.347 368.291 549.12 368.044C548.896 367.797 548.585 367.673 548.187 367.673C547.917 367.673 547.677 367.733 547.467 367.852C547.259 367.969 547.096 368.138 546.977 368.359C546.86 368.581 546.802 368.849 546.802 369.165ZM555.47 373.128C554.813 373.128 554.247 372.991 553.769 372.719C553.295 372.443 552.93 372.054 552.674 371.551C552.419 371.045 552.291 370.45 552.291 369.766C552.291 369.092 552.419 368.501 552.674 367.993C552.933 367.482 553.294 367.084 553.757 366.8C554.22 366.513 554.764 366.369 555.389 366.369C555.792 366.369 556.173 366.435 556.531 366.565C556.892 366.693 557.21 366.892 557.485 367.162C557.764 367.432 557.982 367.776 558.142 368.193C558.301 368.608 558.38 369.102 558.38 369.676V370.149H553.015V369.109H556.901C556.899 368.814 556.835 368.551 556.71 368.321C556.585 368.088 556.41 367.905 556.186 367.771C555.964 367.638 555.705 367.571 555.41 367.571C555.095 367.571 554.818 367.648 554.579 367.801C554.34 367.952 554.154 368.151 554.021 368.398C553.89 368.642 553.823 368.911 553.82 369.203V370.111C553.82 370.491 553.89 370.818 554.029 371.091C554.169 371.361 554.363 371.568 554.613 371.713C554.863 371.855 555.156 371.926 555.491 371.926C555.715 371.926 555.919 371.895 556.1 371.832C556.282 371.767 556.44 371.672 556.573 371.547C556.707 371.422 556.808 371.267 556.876 371.082L558.316 371.244C558.225 371.625 558.052 371.957 557.796 372.241C557.544 372.523 557.22 372.741 556.825 372.898C556.43 373.051 555.978 373.128 555.47 373.128Z" fill="#667085"/>
<path opacity="0.1" d="M567 108C397.445 253.943 140.352 341.309 60 351.5H114H567V108Z" fill="url(#paint0_linear_1363_13175)"/>
<rect x="120" y="271" width="35" height="20" rx="10" fill="#1A202C"/>
<path d="M130.224 285.119C129.656 285.119 129.147 285.013 128.698 284.8C128.249 284.584 127.893 284.288 127.629 283.913C127.367 283.538 127.228 283.109 127.211 282.626H128.745C128.773 282.984 128.928 283.277 129.21 283.504C129.491 283.729 129.829 283.841 130.224 283.841C130.533 283.841 130.809 283.77 131.05 283.628C131.292 283.486 131.482 283.288 131.621 283.036C131.761 282.783 131.829 282.494 131.826 282.17C131.829 281.841 131.759 281.548 131.617 281.293C131.475 281.037 131.281 280.837 131.033 280.692C130.786 280.544 130.502 280.47 130.181 280.47C129.92 280.467 129.663 280.516 129.41 280.615C129.157 280.714 128.957 280.845 128.809 281.007L127.381 280.773L127.837 276.273H132.9V277.594H129.146L128.894 279.908H128.945C129.107 279.717 129.336 279.56 129.631 279.435C129.927 279.307 130.251 279.243 130.603 279.243C131.131 279.243 131.603 279.368 132.018 279.618C132.433 279.865 132.759 280.206 132.998 280.641C133.237 281.075 133.356 281.572 133.356 282.132C133.356 282.709 133.222 283.223 132.955 283.675C132.691 284.124 132.323 284.477 131.852 284.736C131.383 284.991 130.84 285.119 130.224 285.119ZM137.886 285.119C137.252 285.119 136.69 285.013 136.198 284.8C135.71 284.587 135.326 284.295 135.048 283.926C134.772 283.554 134.636 283.132 134.638 282.661C134.636 282.294 134.715 281.957 134.877 281.651C135.039 281.344 135.258 281.088 135.533 280.884C135.812 280.676 136.121 280.544 136.462 280.487V280.428C136.013 280.328 135.65 280.099 135.371 279.741C135.096 279.381 134.96 278.964 134.962 278.493C134.96 278.044 135.085 277.643 135.337 277.291C135.59 276.939 135.937 276.662 136.377 276.46C136.817 276.256 137.32 276.153 137.886 276.153C138.445 276.153 138.944 276.256 139.381 276.46C139.822 276.662 140.168 276.939 140.421 277.291C140.677 277.643 140.805 278.044 140.805 278.493C140.805 278.964 140.664 279.381 140.383 279.741C140.104 280.099 139.745 280.328 139.305 280.428V280.487C139.646 280.544 139.952 280.676 140.225 280.884C140.501 281.088 140.719 281.344 140.881 281.651C141.046 281.957 141.129 282.294 141.129 282.661C141.129 283.132 140.989 283.554 140.711 283.926C140.433 284.295 140.049 284.587 139.56 284.8C139.075 285.013 138.516 285.119 137.886 285.119ZM137.886 283.901C138.212 283.901 138.496 283.845 138.738 283.734C138.979 283.621 139.167 283.462 139.3 283.257C139.434 283.053 139.502 282.817 139.505 282.55C139.502 282.271 139.43 282.026 139.288 281.812C139.148 281.597 138.957 281.428 138.712 281.305C138.471 281.183 138.195 281.122 137.886 281.122C137.573 281.122 137.295 281.183 137.05 281.305C136.806 281.428 136.613 281.597 136.471 281.812C136.332 282.026 136.263 282.271 136.266 282.55C136.263 282.817 136.329 283.053 136.462 283.257C136.596 283.459 136.783 283.616 137.025 283.73C137.269 283.844 137.556 283.901 137.886 283.901ZM137.886 279.925C138.153 279.925 138.388 279.871 138.593 279.763C138.8 279.655 138.964 279.504 139.083 279.311C139.202 279.118 139.263 278.895 139.266 278.642C139.263 278.392 139.204 278.173 139.087 277.986C138.971 277.795 138.809 277.649 138.602 277.547C138.394 277.442 138.156 277.389 137.886 277.389C137.61 277.389 137.367 277.442 137.157 277.547C136.95 277.649 136.788 277.795 136.671 277.986C136.558 278.173 136.502 278.392 136.505 278.642C136.502 278.895 136.559 279.118 136.675 279.311C136.795 279.501 136.958 279.652 137.165 279.763C137.376 279.871 137.616 279.925 137.886 279.925ZM143.953 282.946L143.949 281.084H144.196L146.548 278.455H148.35L145.457 281.676H145.137L143.953 282.946ZM142.547 285V276.273H144.089V285H142.547ZM146.654 285L144.524 282.021L145.564 280.935L148.5 285H146.654Z" fill="white"/>
<rect opacity="0.4" x="114" y="297" width="47" height="55" rx="4" fill="#EE6A1A"/>
<rect x="255" y="230" width="35" height="20" rx="10" fill="#1A202C"/>
<path d="M265.095 244.119C264.527 244.119 264.018 244.013 263.569 243.8C263.12 243.584 262.764 243.288 262.5 242.913C262.238 242.538 262.099 242.109 262.082 241.626H263.616C263.645 241.984 263.799 242.277 264.081 242.504C264.362 242.729 264.7 242.841 265.095 242.841C265.404 242.841 265.68 242.77 265.922 242.628C266.163 242.486 266.353 242.288 266.493 242.036C266.632 241.783 266.7 241.494 266.697 241.17C266.7 240.841 266.63 240.548 266.488 240.293C266.346 240.037 266.152 239.837 265.904 239.692C265.657 239.544 265.373 239.47 265.052 239.47C264.791 239.467 264.534 239.516 264.281 239.615C264.028 239.714 263.828 239.845 263.68 240.007L262.252 239.773L262.708 235.273H267.771V236.594H264.017L263.765 238.908H263.816C263.978 238.717 264.207 238.56 264.502 238.435C264.798 238.307 265.122 238.243 265.474 238.243C266.002 238.243 266.474 238.368 266.889 238.618C267.304 238.865 267.63 239.206 267.869 239.641C268.108 240.075 268.227 240.572 268.227 241.132C268.227 241.709 268.093 242.223 267.826 242.675C267.562 243.124 267.194 243.477 266.723 243.736C266.254 243.991 265.711 244.119 265.095 244.119ZM272.88 244.166C272.179 244.166 271.576 243.989 271.074 243.634C270.574 243.276 270.189 242.76 269.919 242.087C269.652 241.411 269.518 240.597 269.518 239.645C269.521 238.693 269.656 237.884 269.923 237.216C270.193 236.545 270.578 236.034 271.078 235.682C271.581 235.33 272.181 235.153 272.88 235.153C273.579 235.153 274.18 235.33 274.683 235.682C275.186 236.034 275.571 236.545 275.838 237.216C276.108 237.886 276.243 238.696 276.243 239.645C276.243 240.599 276.108 241.415 275.838 242.091C275.571 242.764 275.186 243.278 274.683 243.634C274.183 243.989 273.582 244.166 272.88 244.166ZM272.88 242.832C273.426 242.832 273.856 242.564 274.172 242.027C274.49 241.487 274.649 240.693 274.649 239.645C274.649 238.952 274.576 238.369 274.431 237.898C274.287 237.426 274.082 237.071 273.818 236.832C273.554 236.591 273.241 236.47 272.88 236.47C272.338 236.47 271.909 236.74 271.593 237.28C271.278 237.817 271.119 238.605 271.116 239.645C271.113 240.341 271.183 240.926 271.325 241.401C271.47 241.875 271.674 242.233 271.939 242.474C272.203 242.713 272.517 242.832 272.88 242.832ZM279.082 241.946L279.077 240.084H279.325L281.677 237.455H283.479L280.586 240.676H280.266L279.082 241.946ZM277.675 244V235.273H279.218V244H277.675ZM281.783 244L279.653 241.021L280.692 239.935L283.629 244H281.783Z" fill="white"/>
<rect opacity="0.6" x="249" y="256" width="47" height="96" rx="4" fill="#EE6A1A"/>
<rect x="392" y="175" width="33" height="20" rx="10" fill="#1A202C"/>
<path d="M402.525 180.273V189H400.944V181.811H400.892L398.851 183.115V181.666L401.02 180.273H402.525ZM407.966 189.166C407.265 189.166 406.662 188.989 406.159 188.634C405.659 188.276 405.275 187.76 405.005 187.087C404.738 186.411 404.604 185.597 404.604 184.645C404.607 183.693 404.742 182.884 405.009 182.216C405.279 181.545 405.664 181.034 406.164 180.682C406.667 180.33 407.267 180.153 407.966 180.153C408.665 180.153 409.266 180.33 409.769 180.682C410.272 181.034 410.657 181.545 410.924 182.216C411.194 182.886 411.328 183.696 411.328 184.645C411.328 185.599 411.194 186.415 410.924 187.091C410.657 187.764 410.272 188.278 409.769 188.634C409.269 188.989 408.668 189.166 407.966 189.166ZM407.966 187.832C408.512 187.832 408.942 187.564 409.257 187.027C409.576 186.487 409.735 185.693 409.735 184.645C409.735 183.952 409.662 183.369 409.517 182.898C409.373 182.426 409.168 182.071 408.904 181.832C408.64 181.591 408.327 181.47 407.966 181.47C407.424 181.47 406.995 181.74 406.679 182.28C406.364 182.817 406.205 183.605 406.202 184.645C406.199 185.341 406.269 185.926 406.411 186.401C406.556 186.875 406.76 187.233 407.025 187.474C407.289 187.713 407.603 187.832 407.966 187.832ZM414.168 186.946L414.163 185.084H414.411L416.763 182.455H418.565L415.672 185.676H415.352L414.168 186.946ZM412.761 189V180.273H414.304V189H412.761ZM416.869 189L414.739 186.021L415.778 184.935L418.714 189H416.869Z" fill="white"/>
<rect opacity="0.8" x="385" y="201" width="47" height="151" rx="4" fill="#EE6A1A"/>
<rect x="526.5" y="81" width="34" height="20" rx="10" fill="#1A202C"/>
<path d="M536.594 86.1534C537.012 86.1562 537.418 86.2301 537.813 86.375C538.211 86.517 538.569 86.75 538.887 87.0739C539.205 87.3949 539.458 87.8253 539.646 88.3651C539.833 88.9048 539.927 89.5724 539.927 90.3679C539.93 91.1179 539.85 91.7884 539.688 92.3793C539.529 92.9673 539.3 93.4645 539.002 93.8707C538.704 94.277 538.344 94.5866 537.924 94.7997C537.504 95.0128 537.031 95.1193 536.505 95.1193C535.954 95.1193 535.465 95.0114 535.039 94.7955C534.616 94.5795 534.273 94.2841 534.012 93.9091C533.751 93.5341 533.59 93.1051 533.531 92.6222H535.086C535.165 92.9687 535.327 93.2443 535.572 93.4489C535.819 93.6506 536.13 93.7514 536.505 93.7514C537.11 93.7514 537.576 93.4886 537.903 92.9631C538.229 92.4375 538.393 91.7074 538.393 90.7727H538.333C538.194 91.0227 538.013 91.2386 537.792 91.4205C537.57 91.5994 537.319 91.7372 537.038 91.8338C536.759 91.9304 536.464 91.9787 536.151 91.9787C535.64 91.9787 535.18 91.8565 534.771 91.6122C534.364 91.3679 534.042 91.0327 533.803 90.6065C533.567 90.1804 533.448 89.6932 533.445 89.1449C533.445 88.5767 533.576 88.0668 533.837 87.6151C534.102 87.1605 534.469 86.8026 534.941 86.5412C535.413 86.277 535.964 86.1477 536.594 86.1534ZM536.599 87.4318C536.292 87.4318 536.015 87.5071 535.768 87.6577C535.523 87.8054 535.33 88.0071 535.188 88.2628C535.049 88.5156 534.979 88.7983 534.979 89.1108C534.982 89.4205 535.052 89.7017 535.188 89.9545C535.327 90.2074 535.516 90.4077 535.755 90.5554C535.996 90.7031 536.272 90.777 536.582 90.777C536.812 90.777 537.026 90.733 537.225 90.6449C537.424 90.5568 537.597 90.4347 537.745 90.2784C537.896 90.1193 538.012 89.9389 538.094 89.7372C538.18 89.5355 538.221 89.3224 538.218 89.098C538.218 88.7997 538.147 88.5241 538.005 88.2713C537.866 88.0185 537.674 87.8153 537.43 87.6619C537.188 87.5085 536.911 87.4318 536.599 87.4318ZM541.431 95L545.143 87.6534V87.5938H540.835V86.2727H546.779V87.6236L543.072 95H541.431ZM549.578 92.946L549.574 91.0838H549.821L552.173 88.4545H553.975L551.082 91.6761H550.762L549.578 92.946ZM548.172 95V86.2727H549.714V95H548.172ZM552.279 95L550.149 92.0213L551.189 90.9347L554.125 95H552.279Z" fill="white"/>
<rect opacity="0.8" x="520" y="107" width="47" height="245" rx="4" fill="#EE6A1A"/>
<defs>
<linearGradient id="paint0_linear_1363_13175" x1="310.5" y1="239" x2="354.5" y2="352" gradientUnits="userSpaceOnUse">
<stop stop-color="#EE6A1A"/>
<stop offset="1" stop-color="white" stop-opacity="0"/>
</linearGradient>
</defs>
</svg>
