<svg xmlns="http://www.w3.org/2000/svg" width="63" height="63" viewBox="0 0 63 63" fill="none">
<path d="M56.9324 43.0184C57.0306 43.0307 57.1287 43.0307 57.1901 43.0675V43.0552C57.141 43.0184 57.0674 42.9571 56.9815 42.8712L56.4661 42.3436L56.1839 42.9571L56.9324 43.0184ZM57.0183 24.0859C57.1287 24.4785 57.4723 24.7976 58.1349 24.6135C58.6747 24.4663 58.9447 24.135 58.8097 23.6442L58.6993 23.2638L57.0183 23.7301C56.9324 23.7546 56.9201 23.8037 56.9447 23.8528L57.0183 24.0859ZM10.4171 15.0061L10.5643 14.8221C10.8097 14.5031 10.8833 14.0368 10.3434 13.6074C9.914 13.2638 9.48455 13.227 9.16553 13.6319L8.92013 13.9387L10.2821 15.0307C10.3312 15.0798 10.3803 15.0552 10.4171 15.0061ZM58.8588 33.7914C58.1103 33.7055 57.8526 33.9877 57.8158 34.319C57.779 34.638 57.9631 34.9816 58.7115 35.0552C59.4723 35.1411 59.7299 34.8466 59.7668 34.5276C59.8036 34.2331 59.6318 33.8773 58.8588 33.7914ZM60.0244 32.7853L60.0612 31.1779H59.9999L59.9263 31.3865C59.914 31.4356 59.8895 31.4356 59.8036 31.4356L58.098 31.3988C58.0244 31.3988 57.9999 31.3865 57.9876 31.3497L57.9263 31.1411H57.8772L57.8526 32.1473H57.9017L57.9753 31.8773C57.9876 31.8405 58.0244 31.8282 58.098 31.8282L58.8588 31.8405L58.8465 32.4049C58.8465 32.4785 58.8342 32.5031 58.7974 32.5154L58.5888 32.5767V32.6626L59.2269 32.6749V32.589L59.0428 32.5154C59.006 32.5031 59.006 32.4785 59.006 32.4049L59.0183 31.8405L59.8526 31.8528L59.8404 32.4908C59.8404 32.5767 59.8036 32.6135 59.7668 32.6258L59.5582 32.6749V32.773L60.0244 32.7853ZM58.9079 33.3252C58.1594 33.2393 57.7299 33.6442 57.6563 34.2945C57.5827 34.908 57.9999 35.4479 58.6625 35.5215C59.46 35.6074 59.8649 35.1534 59.9263 34.5522C59.9999 33.9877 59.6195 33.4111 58.9079 33.3252ZM59.6563 36.2454L59.6072 36.2331L59.4968 36.4172C59.4723 36.454 59.4477 36.454 59.3741 36.4417L57.7054 36.0982C57.6318 36.0859 57.6072 36.0736 57.595 36.0368L57.5704 35.816L57.5214 35.8037L57.325 36.7239L57.3741 36.7362L57.4845 36.5522C57.5091 36.5153 57.5336 36.5153 57.6072 36.5276L59.3618 36.8957L59.3373 37.043C59.276 37.3374 59.1533 37.5338 58.7852 37.4601C58.4539 37.3865 58.368 37.1411 58.4293 36.8712L58.4416 36.7853L57.1901 37.3374L57.0674 37.9141L57.1164 37.9264L57.1901 37.8528C57.2269 37.816 57.2637 37.7914 57.3128 37.7669L58.2944 37.3006C58.2944 37.5828 58.4048 37.8773 58.7361 37.9387C59.1655 38.0246 59.3373 37.6565 59.4232 37.2638L59.6563 36.2454ZM59.0674 38.9571L59.0183 38.9325L58.8833 39.1166C58.8588 39.1534 58.822 39.1534 58.7606 39.1288L57.1533 38.6012C57.0796 38.5767 57.0551 38.5644 57.0551 38.5153V38.2945L57.006 38.2822L56.7606 39.0184L56.8097 39.0307L56.9447 38.8344C56.9692 38.7976 57.006 38.7976 57.0796 38.8221L58.2821 39.2147C58.4293 39.2638 58.4907 39.2884 58.5398 39.3006V39.3129C58.4539 39.3006 58.368 39.3129 58.2698 39.3129L56.6379 39.4111L56.5766 39.6074L57.8404 40.6626C57.9508 40.7607 58.0367 40.8221 58.0735 40.8466V40.8589C57.9999 40.8344 57.9017 40.7976 57.8158 40.773L56.5766 40.3681C56.5029 40.3436 56.4784 40.3313 56.4784 40.2822V40.0982L56.4293 40.0859L56.1349 40.9693L56.1839 40.9816L56.3066 40.8098C56.3312 40.773 56.368 40.773 56.4293 40.7976L58.049 41.3252C58.1226 41.3497 58.1471 41.362 58.1471 41.4111V41.6319L58.1962 41.6442L58.4293 40.9203L57.2637 39.9387C57.1655 39.865 57.1042 39.8037 57.0183 39.7546V39.7423C57.1165 39.7546 57.1901 39.7546 57.325 39.7546L58.8342 39.681L59.0674 38.9571ZM57.5704 43.1779L56.098 41.6196C56.049 41.5706 56.0367 41.5338 56.0244 41.4847L56.0122 41.362L55.9631 41.3374L55.6809 41.9632L55.7299 41.9877L55.8772 41.8405C55.914 41.8037 55.9508 41.7914 55.9999 41.8528L56.3557 42.2209L56.0244 42.9448L55.5214 42.8957C55.4477 42.8834 55.4232 42.8589 55.4355 42.8098L55.46 42.6012L55.4109 42.5767L55.0306 43.3988L55.0796 43.4233L55.1778 43.3497C55.2146 43.3252 55.2391 43.3129 55.3128 43.3129L57.4355 43.4601L57.5704 43.1779ZM56.8465 44.589L56.3925 44.3313L56.3434 44.4172L56.552 44.6135C56.5888 44.6503 56.5888 44.6994 56.552 44.7607L56.3312 45.1534L54.7852 44.2822C54.7238 44.2454 54.6993 44.2209 54.7115 44.1841L54.7606 43.9509L54.7115 43.9264L54.233 44.773L54.2821 44.7976L54.4539 44.638C54.4907 44.6012 54.5152 44.6135 54.5766 44.6503L56.1226 45.5215L55.9017 45.9141C55.8649 45.9877 55.8158 46.0123 55.7668 45.9877L55.4968 45.9141L55.4477 46L55.9017 46.2577L56.8465 44.589ZM55.5582 46.7976L55.5091 46.773L55.3373 46.908C55.3005 46.9325 55.276 46.9325 55.2146 46.8834L53.7913 45.9387C53.7299 45.9019 53.7054 45.8773 53.7177 45.8282L53.779 45.6196L53.7422 45.5951L53.2146 46.3804L53.2514 46.4049L53.4232 46.2699C53.46 46.2454 53.4846 46.2577 53.5459 46.2945L54.9692 47.2393C55.0306 47.2761 55.0551 47.3006 55.0428 47.3374L54.9815 47.546L55.0306 47.5706L55.5582 46.7976ZM53.8526 47.3988C53.2637 46.9325 52.687 47.0552 52.2821 47.5706C51.9017 48.0614 51.9753 48.7362 52.503 49.1411C53.141 49.6319 53.7177 49.4479 54.0858 48.9816C54.4416 48.5153 54.4171 47.8282 53.8526 47.3988ZM53.006 50.2331L52.9692 50.1963L52.7361 50.3436C52.6993 50.3681 52.6747 50.3436 52.6134 50.2945L51.3864 49.1288C51.3373 49.0798 51.3128 49.0552 51.3373 49.0184L51.4232 48.8221L51.3864 48.7853L50.822 49.3742L50.8588 49.4111L51.0919 49.2638C51.1287 49.2393 51.1533 49.2515 51.2146 49.3006L52.1103 50.1595C52.1717 50.2209 52.233 50.27 52.2698 50.3068L52.2576 50.319C52.1962 50.2945 52.1103 50.2822 52.0367 50.2699L50.1226 50.0614L49.9508 50.2454L51.3864 51.6074C51.4355 51.6565 51.46 51.681 51.4355 51.7178L51.3373 51.9141L51.3741 51.9509L51.9385 51.362L51.9017 51.3252L51.6686 51.4724C51.6318 51.4969 51.6072 51.4847 51.5582 51.4356L50.7729 50.6994C50.6993 50.6258 50.6134 50.5522 50.5766 50.5276L50.5888 50.5153C50.6502 50.5522 50.7852 50.5644 50.871 50.5767L52.5152 50.773L53.006 50.2331ZM56.0858 31.3865C56.0858 17.7669 45.0428 6.71167 31.4109 6.71167C17.7913 6.71167 6.73608 17.7546 6.73608 31.3865C6.73608 45.0184 17.7913 56.0491 31.4109 56.0491C45.0428 56.0491 56.0858 45.0061 56.0858 31.3865ZM46.2207 54.6871C46.0735 54.454 45.8281 54.3681 45.5704 54.5276C45.2882 54.6994 45.2391 55.0184 45.3741 55.2515C45.5214 55.4847 45.779 55.546 46.0367 55.3865C46.3189 55.227 46.368 54.9325 46.2207 54.6871ZM39.3864 59.3988L39.3741 59.3252L39.0919 59.3129C39.0306 59.3129 39.0183 59.2761 38.9937 59.1779L38.4171 56.9939C38.3925 56.8957 38.3925 56.8589 38.4416 56.8221L38.687 56.6626L38.6625 56.589L37.46 56.908L37.4845 56.9816L37.7668 57.0061C37.8281 57.0061 37.8404 57.043 37.8649 57.1411L38.4416 59.3252C38.4661 59.4233 38.4661 59.4601 38.4171 59.4969L38.1717 59.6565L38.1839 59.7178L39.3864 59.3988ZM36.8588 59.092C36.7974 58.6871 36.4784 58.5031 36.1103 58.3926L35.8281 58.3068C35.5459 58.2209 35.3005 58.1472 35.2514 57.8773C35.2023 57.5951 35.46 57.4356 35.6809 57.4111C35.8281 57.3865 35.9631 57.3988 36.0858 57.4356C36.1717 57.4601 36.2085 57.4969 36.2453 57.5706L36.3557 57.8282L36.4907 57.8037L36.3925 57.1902C36.1226 57.1166 35.8036 57.1534 35.6563 57.1779C35.1165 57.2638 34.7361 57.6687 34.8097 58.1718C34.8711 58.5767 35.2023 58.7239 35.5582 58.8344L35.8404 58.9203C36.0735 58.9939 36.3434 59.092 36.3925 59.3742C36.4416 59.6933 36.1962 59.9018 35.914 59.9509C35.7545 59.9755 35.5704 59.9632 35.46 59.9141C35.3618 59.8773 35.3373 59.8405 35.3005 59.7669L35.1778 59.4724L35.0306 59.4969L35.141 60.1595C35.3496 60.2209 35.6441 60.2331 35.8895 60.1841C36.4661 60.135 36.9569 59.7423 36.8588 59.092ZM33.7545 59.5215C33.7299 59.1043 33.4355 58.8957 33.0919 58.7485L32.822 58.638C32.552 58.5276 32.3189 58.4172 32.3066 58.1595C32.2944 57.8773 32.552 57.7546 32.7852 57.7423C32.9324 57.7301 33.0674 57.7546 33.1778 57.8037C33.2514 57.8405 33.2882 57.8896 33.3128 57.9632L33.3987 58.2331L33.5459 58.2209L33.5214 57.6074C33.2637 57.5092 32.9324 57.5092 32.7974 57.5215C32.2453 57.546 31.8281 57.9018 31.8526 58.4172C31.8772 58.8221 32.1839 59.0184 32.5152 59.1534L32.7852 59.2638C33.006 59.362 33.2637 59.4847 33.276 59.7792C33.2882 60.1104 33.0306 60.2945 32.7361 60.3068C32.5766 60.319 32.3925 60.2822 32.2944 60.2209C32.2085 60.1718 32.1839 60.135 32.1471 60.0614L32.0612 59.7546L31.914 59.7669L31.9508 60.4417C32.1471 60.5276 32.4539 60.5644 32.6993 60.5522C33.2514 60.5153 33.779 60.1718 33.7545 59.5215ZM30.8588 57.6442L29.779 57.5583L29.7668 57.6319L30.1103 57.7546C30.1717 57.7669 30.1717 57.816 30.1594 57.9141L30.049 59.3374C30.0367 59.4847 30.0367 59.6196 30.0244 59.681H30.0122C29.9999 59.5951 29.9017 59.4233 29.8404 59.3374L28.6747 57.4724L27.7177 57.3988L27.7054 57.4847L28.049 57.6074C28.1103 57.6319 28.1103 57.6687 28.098 57.7669L27.914 60C27.9017 60.0982 27.9017 60.135 27.8404 60.1472L27.5582 60.2209V60.2945L28.6379 60.3804V60.3068L28.2944 60.1841C28.233 60.1595 28.233 60.1227 28.233 60.0245L28.3557 58.3926C28.368 58.2822 28.368 58.1718 28.368 58.1104H28.3925C28.4048 58.1963 28.4661 58.2945 28.5275 58.3804L29.9017 60.5276L30.233 60.5522L30.4416 57.9509C30.4539 57.8528 30.4539 57.816 30.5152 57.8037L30.7974 57.7423L30.8588 57.6442ZM26.3066 60.0245L26.1839 59.9141C26.1349 59.865 26.1226 59.8405 26.1103 59.7423L25.7422 56.9448L25.3373 56.8466L23.7054 59.1779C23.6441 59.2515 23.6072 59.2884 23.5459 59.3006L23.3864 59.3497L23.3741 59.4111L24.2576 59.6196L24.2698 59.5583L24.0244 59.4111C23.9753 59.3865 23.9508 59.3374 24.0122 59.2515L24.3925 58.6871L25.4232 58.9203L25.4968 59.5951C25.5091 59.6933 25.4723 59.7301 25.4109 59.7301L25.1287 59.7546L25.1165 59.816L26.2821 60.0859L26.3066 60.0245ZM17.325 54.5767C17.0428 54.4049 16.7361 54.5031 16.5888 54.7362C16.4416 54.9693 16.5152 55.2393 16.7729 55.3865C17.0551 55.5583 17.3496 55.4601 17.4845 55.227C17.6318 54.9939 17.5827 54.7362 17.325 54.5767ZM12.8588 50.2822L12.3925 49.7792L12.3557 49.816L12.4416 50.0123C12.4661 50.0491 12.4539 50.0859 12.3925 50.1227L11.914 50.319L11.3619 49.7301L11.595 49.2761C11.6318 49.2025 11.6686 49.2025 11.7054 49.227L11.8895 49.3252L11.9263 49.2884L11.3128 48.6258L11.276 48.6626L11.3005 48.7853C11.3128 48.8344 11.3128 48.8589 11.276 48.9325L10.3312 50.8466L10.5398 51.0798L12.5398 50.3068C12.6134 50.2822 12.6379 50.2822 12.687 50.2945L12.8097 50.3313L12.8588 50.2822ZM10.3189 49.1288C10.8833 48.6871 10.9569 48.0982 10.503 47.5092C10.3189 47.2761 10.1103 47.0675 9.86492 46.8957L9.34958 47.2884C9.28823 47.3374 9.26369 47.3497 9.22688 47.3252L9.04283 47.2025L8.99375 47.2393L9.61952 48.0491L9.6686 48.0123L9.5459 47.7423C9.53363 47.7055 9.5459 47.681 9.60725 47.6319L10.0244 47.3129C10.1226 47.362 10.2207 47.4356 10.3189 47.5583C10.6625 48 10.4293 48.4417 9.97535 48.7853C9.55817 49.1043 9.09191 49.1534 8.74835 48.7117C8.62565 48.5644 8.5643 48.4172 8.53976 48.27C8.52749 48.2086 8.52749 48.1718 8.5643 48.1227L8.67473 47.9632L8.61338 47.8773L8.24529 48.1595C8.31891 48.3927 8.46615 48.6135 8.61338 48.8221C9.0551 49.3865 9.72995 49.5828 10.3189 49.1288ZM7.81584 47.1902L9.25142 46.2699C9.31277 46.2331 9.33731 46.2209 9.37412 46.2454L9.5459 46.3804L9.59498 46.3558L8.71154 44.9816L8.2821 45.1534L8.31891 45.2515L8.58884 45.227C8.63792 45.227 8.687 45.2393 8.72381 45.3006L9.03056 45.7792C9.06737 45.8282 9.06737 45.8773 9.00602 45.9264L8.31891 46.3558L8.02443 45.9019C7.98762 45.8405 7.97535 45.816 7.99989 45.7792L8.11032 45.6319L8.06124 45.5706L7.5459 45.9019L7.58271 45.9632L7.76676 45.9264C7.81584 45.9141 7.82811 45.9387 7.86492 46L8.1594 46.454L7.50909 46.8712L7.1778 46.3558C7.14099 46.2945 7.14099 46.2454 7.16553 46.1963L7.28823 46.0491L7.23915 45.9632L6.88332 46.1963L7.74222 47.5338L7.7913 47.5092L7.74222 47.3006C7.72995 47.2515 7.74222 47.2393 7.81584 47.1902ZM6.58884 45.1902L8.08578 44.4172C8.14713 44.3804 8.17167 44.3804 8.20848 44.4049L8.36799 44.5522L8.41707 44.5276L8.04897 43.8037L7.99989 43.8282L8.04897 44.0982C8.06124 44.1473 8.0367 44.1595 7.97535 44.1963L6.87105 44.7607C6.79743 44.7976 6.72381 44.8466 6.687 44.8589L6.67473 44.8466C6.72381 44.8098 6.76062 44.7239 6.79743 44.6503L7.61952 42.908L7.50909 42.6871L5.75449 43.5951C5.69314 43.6319 5.6686 43.6442 5.63179 43.6074L5.47228 43.4601L5.4232 43.4847L5.80357 44.2086L5.85265 44.1841L5.7913 43.9141C5.77903 43.865 5.80357 43.8528 5.86492 43.816L6.82197 43.3252C6.92013 43.2761 7.01829 43.227 7.0551 43.2025L7.06737 43.2147C7.01829 43.2638 6.94467 43.3865 6.92013 43.4601L6.19621 44.9448L6.5275 45.5828L6.57657 45.5583L6.51523 45.2884C6.50296 45.2393 6.5275 45.2147 6.58884 45.1902ZM6.19621 42.5399C6.82197 42.2945 7.06737 41.6933 6.82197 41.0675C6.71154 40.7976 6.52749 40.589 6.30664 40.4417L6.22075 40.5399C6.34345 40.638 6.46615 40.773 6.53977 40.9571C6.74835 41.4847 6.44161 41.9141 5.96308 42.1104C5.5459 42.2822 5.04283 42.2945 4.84651 41.8037C4.8097 41.6933 4.78516 41.5828 4.78516 41.4601C4.79743 41.3865 4.82197 41.3497 4.87105 41.3129L5.06737 41.1657L5.03056 41.0552L4.55203 41.2515C4.55203 41.4233 4.58885 41.6319 4.687 41.865C4.94467 42.5031 5.52136 42.8098 6.19621 42.5399ZM4.44161 40.2945L6.07351 39.7914C6.14713 39.7669 6.17167 39.7669 6.19621 39.8037L6.31891 39.9877L6.36799 39.9755L5.88946 38.4172L5.4232 38.4663L5.43547 38.5644L5.69314 38.6135C5.74222 38.6258 5.77903 38.6503 5.80357 38.7117L5.97535 39.2638C5.98762 39.3252 5.98762 39.362 5.90173 39.3865L5.15326 39.6196L4.99375 39.1043C4.96921 39.0307 4.96921 39.0061 5.00602 38.9816L5.15326 38.8712L5.12872 38.7976L4.53977 38.9816L4.56431 39.0552L4.74835 39.0675C4.79743 39.0675 4.8097 39.092 4.82197 39.1657L4.98148 39.681L4.23302 39.9141L4.04897 39.3252C4.02443 39.2515 4.0367 39.2025 4.08578 39.1779L4.23302 39.0675L4.20848 38.9693L3.80357 39.092L4.26983 40.6135L4.31891 40.6012L4.33118 40.3926C4.34345 40.3313 4.35572 40.319 4.44161 40.2945ZM3.52136 36.7485L5.19007 36.4785C5.26369 36.4663 5.28823 36.4663 5.31277 36.5153L5.41093 36.6994L5.46001 36.6871L5.33731 35.8773L5.28823 35.8896L5.25142 36.1718C5.25142 36.2209 5.22688 36.2331 5.14099 36.2454L3.914 36.4417C3.82811 36.454 3.75449 36.4663 3.70541 36.4785V36.4663C3.76676 36.4417 3.82811 36.3804 3.87719 36.319L5.20234 34.9325L5.16553 34.6871L3.21461 34.9939C3.14099 35.0061 3.11645 35.0061 3.09191 34.9693L2.99375 34.773L2.9324 34.7853L3.06737 35.5951L3.12872 35.5828L3.15326 35.3006C3.15326 35.2515 3.1778 35.2515 3.25142 35.2393L4.30664 35.0675C4.41707 35.0552 4.51523 35.0307 4.56431 35.0184V35.0307C4.50296 35.0552 4.39253 35.1534 4.34345 35.2147L3.19007 36.3926L3.3005 37.1043L3.36185 37.092L3.38639 36.8098C3.4232 36.773 3.44774 36.7607 3.52136 36.7485ZM2.78516 33.2761L4.82197 33.9509C4.89559 33.9755 4.92013 34 4.94467 34.0368L5.01829 34.135H5.06737L5.03056 33.4479H4.98148L4.92013 33.6565C4.90786 33.7055 4.88332 33.7301 4.8097 33.7055L4.31891 33.546L4.26983 32.7485L4.73608 32.5522C4.8097 32.5276 4.83424 32.5399 4.84651 32.589L4.92013 32.7853H4.96921L4.92013 31.8896H4.87105L4.8097 32C4.78516 32.0491 4.77289 32.0614 4.69927 32.0982L2.74835 32.9693L2.78516 33.2761ZM2.76062 31.6933L3.28823 31.7055V31.6074L3.01829 31.5338C2.96921 31.5215 2.94467 31.4847 2.94467 31.3988L2.95694 30.9448L4.72381 30.9816C4.79743 30.9816 4.82197 30.9939 4.83424 31.0307L4.89559 31.2515H4.94467L4.96921 30.2822H4.92013L4.84651 30.5031C4.83424 30.5522 4.8097 30.5522 4.73608 30.5522L2.95694 30.5153L2.96921 30.0736C2.96921 29.9877 3.00602 29.9509 3.04283 29.9387L3.32504 29.8773V29.7792L2.79743 29.7669L2.76062 31.6933ZM2.85878 29.1411H2.90786L2.99375 28.9448C3.00602 28.908 3.03056 28.908 3.11645 28.908L4.8097 29.0675C4.88332 29.0798 4.90786 29.0798 4.92013 29.1288L4.96921 29.3374H5.01829L5.10418 28.3927H5.0551L4.96921 28.589C4.95694 28.6258 4.92013 28.638 4.84651 28.6258L3.15326 28.4663C3.07964 28.454 3.0551 28.454 3.04283 28.4049L2.99375 28.1963H2.9324L2.85878 29.1411ZM4.07351 27.8037C4.8097 27.9264 5.26369 27.5583 5.37412 26.908C5.47228 26.2945 5.09191 25.7423 4.44161 25.6319C3.65633 25.4969 3.22688 25.9264 3.12872 26.5276C3.03056 27.092 3.38639 27.6933 4.07351 27.8037ZM3.48455 24.8957L3.5459 24.908L3.69314 24.6749C3.71768 24.638 3.74222 24.638 3.81584 24.6626L5.44774 25.1166C5.52136 25.1411 5.5459 25.1534 5.5459 25.1902L5.55817 25.3988L5.60725 25.4111L5.82811 24.6258L5.77903 24.6135L5.63179 24.8466C5.60725 24.8834 5.58271 24.8834 5.50909 24.8712L4.31891 24.5399C4.23302 24.5153 4.1594 24.5031 4.11032 24.4908V24.4785C4.17167 24.4785 4.25756 24.454 4.33118 24.4172L6.11032 23.7055L6.18394 23.4601L4.2821 22.9325C4.20848 22.908 4.18394 22.908 4.18394 22.8589L4.17167 22.638L4.12259 22.6258L3.90173 23.4111L3.95081 23.4233L4.09805 23.1902C4.12259 23.1534 4.14713 23.1534 4.22075 23.1779L5.26369 23.4601C5.36185 23.4847 5.47228 23.5092 5.50909 23.5215V23.5338C5.43547 23.5338 5.3005 23.5828 5.23915 23.6074L3.69314 24.2086L3.48455 24.8957ZM4.58884 21.2025L6.1594 22.6626C6.20848 22.7117 6.23302 22.7485 6.23302 22.7976L6.25756 22.9203L6.30664 22.9448L6.55203 22.3068L6.50296 22.2822L6.36799 22.4417C6.34345 22.4785 6.30664 22.4908 6.24529 22.4417L5.86492 22.0982L6.14713 21.3497L6.65019 21.362C6.72381 21.362 6.74835 21.3865 6.73608 21.4356L6.72381 21.6442L6.77289 21.6565L7.09191 20.8221L7.04283 20.7976L6.94467 20.8712C6.90786 20.908 6.88332 20.908 6.8097 20.908L4.67473 20.8834L4.58884 21.2025ZM5.34958 19.4847L5.39866 19.5092L5.5459 19.3497C5.57044 19.3129 5.59498 19.3252 5.6686 19.362L7.20234 20.1104C7.26369 20.1473 7.28823 20.1595 7.28823 20.1963L7.25142 20.4172L7.3005 20.4417L8.01216 19.0061L7.58271 18.6994L7.52136 18.773L7.72995 19.0307C7.75449 19.0675 7.76676 19.1166 7.74222 19.1779L7.50909 19.6442C7.48455 19.6933 7.44774 19.7301 7.37412 19.6933L5.87719 18.9571C5.80357 18.9203 5.77903 18.908 5.7913 18.8589L5.84038 18.6012L5.7913 18.5767L5.34958 19.4847ZM6.38026 17.4479L6.42934 17.4724L6.58884 17.3252C6.62565 17.2884 6.65019 17.3006 6.71154 17.3497L8.17167 18.2209C8.23302 18.2577 8.25756 18.27 8.24529 18.319L8.19621 18.5276L8.24529 18.5522L9.07964 17.1411L8.72381 16.8344L8.65019 16.908L8.78516 17.1411C8.8097 17.1779 8.82197 17.227 8.78516 17.2884L8.49069 17.7792C8.46615 17.8282 8.41707 17.8528 8.35572 17.816L7.68087 17.4111L7.96308 16.9448C7.99989 16.8834 8.02443 16.8589 8.06124 16.8712L8.24529 16.908L8.2821 16.8344L7.75449 16.5154L7.71768 16.589L7.82811 16.7362C7.85265 16.773 7.84038 16.7976 7.80357 16.8589L7.52136 17.3252L6.85878 16.9203L7.1778 16.3927C7.21461 16.319 7.26369 16.3068 7.31277 16.319L7.49682 16.3558L7.5459 16.27L7.19007 16.0491L6.38026 17.4479ZM8.35572 14.3681L8.39253 14.4049L8.57657 14.2945C8.61338 14.27 8.63792 14.2822 8.69927 14.3313L10.0244 15.3988C10.0858 15.4479 10.098 15.4601 10.0858 15.5092L10.0122 15.7178L10.049 15.7546L10.7115 14.9203C11.1778 14.3436 11.1533 13.6442 10.6134 13.227C10.0244 12.7485 9.49682 12.9693 9.06737 13.4969L8.35572 14.3681ZM10.2085 12.1227L10.2453 12.1595L10.4293 12.0614C10.4661 12.0368 10.4907 12.0491 10.552 12.1104L11.779 13.2884C11.8281 13.3374 11.8526 13.362 11.8281 13.3988L11.7299 13.5951L11.7668 13.6319L12.9079 12.454L12.6379 12.0736L12.552 12.1227L12.6379 12.3804C12.6502 12.4295 12.6502 12.4785 12.6011 12.5276L12.2085 12.9448C12.1717 12.9816 12.1226 13.0061 12.0612 12.9448L11.4968 12.3927L11.8772 12C11.9263 11.9509 11.9508 11.9264 11.9876 11.9509L12.1594 12.0246L12.2207 11.9632L11.779 11.5338L11.7177 11.5951L11.8036 11.7669C11.8281 11.8037 11.8036 11.8282 11.7545 11.8773L11.3741 12.27L10.8097 11.7301L11.2392 11.2884C11.3005 11.227 11.3373 11.227 11.3864 11.2515L11.5582 11.3374L11.6318 11.2638L11.325 10.9693L10.2085 12.1227ZM12.822 9.58284L12.8588 9.61964L13.0674 9.54603C13.1042 9.53376 13.1287 9.54603 13.1778 9.60737L14.2453 10.9325C14.2944 10.9939 14.3066 11.0061 14.2821 11.0552L14.1594 11.2393L14.1962 11.2761L15.4355 10.2822L15.1778 9.81596L15.0796 9.85277L15.1533 10.1718C15.1655 10.2209 15.1533 10.27 15.1042 10.319L14.6993 10.6503C14.6625 10.6871 14.6134 10.6994 14.552 10.638L13.5091 9.33744C13.46 9.27609 13.4477 9.25155 13.4723 9.21474L13.6318 9.00615L13.595 8.96934L12.822 9.58284ZM15.3864 7.5951L15.8281 9.69326C15.8404 9.76688 15.8404 9.80369 15.8158 9.8405L15.7668 9.95093L15.7913 9.98774L16.368 9.60737L16.3434 9.57056L16.1471 9.63191C16.098 9.64418 16.0612 9.63191 16.049 9.5583L15.914 9.05523L16.5766 8.61351L16.9815 8.92026C17.0428 8.96934 17.0428 8.99388 17.006 9.04296L16.8833 9.21474L16.9079 9.25155L17.6563 8.74848L17.6318 8.71167H17.5091C17.46 8.71167 17.4355 8.71167 17.3741 8.66259L15.6441 7.42333L15.3864 7.5951ZM18.4048 6.52762C18.5398 6.80983 18.8097 6.83437 19.0919 6.83437H19.3128C19.4845 6.83437 19.7054 6.84664 19.8158 7.04296C19.9263 7.26382 19.7913 7.47241 19.595 7.57057C19.4846 7.61965 19.3496 7.65645 19.2637 7.64418C19.1901 7.64418 19.1533 7.61965 19.1165 7.57057L18.9692 7.38652L18.8711 7.4356L19.0919 7.88958C19.2514 7.88958 19.4723 7.82823 19.6441 7.74234C20.0367 7.54603 20.2944 7.15339 20.0858 6.71167C19.9508 6.42946 19.6809 6.38038 19.3864 6.38038H19.1655C18.9447 6.38038 18.7484 6.38038 18.6625 6.19633C18.5643 6.00001 18.7115 5.8405 18.8588 5.75461C18.9569 5.70553 19.0551 5.68099 19.1533 5.68099C19.2146 5.68099 19.2514 5.70553 19.3005 5.74234L19.4355 5.90185L19.5336 5.85277L19.325 5.4356C19.1165 5.44787 18.8956 5.54603 18.7974 5.59511C18.4171 5.80369 18.2207 6.17179 18.4048 6.52762ZM19.9508 5.11658L19.9753 5.16566L20.1839 5.15339C20.233 5.15339 20.2453 5.17793 20.2698 5.23928L20.9079 6.8221C20.9324 6.89572 20.9447 6.92026 20.9079 6.9448L20.7484 7.09204L20.7729 7.14112L22.2944 6.52762L22.1839 6.07363L22.0858 6.0859L22.0612 6.35584C22.049 6.40492 22.0367 6.454 21.9631 6.47854L21.4355 6.68713C21.3741 6.71167 21.3373 6.71167 21.3005 6.62578L21.006 5.88958L21.5091 5.69326C21.5827 5.66872 21.6072 5.65645 21.6318 5.69326L21.7545 5.82823L21.8281 5.80369L21.595 5.23928L21.5214 5.26382V5.46014C21.5214 5.50922 21.4968 5.52149 21.4355 5.54603L20.9447 5.74234L20.6502 5.01842L21.2146 4.78529C21.2882 4.76075 21.3373 4.77302 21.3741 4.80983L21.4968 4.95707L21.595 4.92026L21.4355 4.52762L19.9508 5.11658ZM20.5398 4.68713L20.6257 4.72394L21.0306 4.03682C21.0674 3.97547 21.0551 3.93866 21.0428 3.88958L20.6625 4.04909L20.5398 4.68713ZM22.4539 5.3129C22.6502 5.95093 23.2269 6.25768 23.8649 6.06136C24.1471 5.97547 24.368 5.80369 24.5398 5.60738L24.4539 5.50922C24.3434 5.61964 24.1962 5.73007 23.9999 5.79142C23.46 5.9632 23.0551 5.61965 22.9079 5.11658C22.7729 4.68713 22.8097 4.18406 23.3128 4.02455C23.4232 3.98774 23.5336 3.97547 23.6686 4.00001C23.7422 4.01228 23.779 4.03682 23.8036 4.09817L23.9385 4.30676L24.049 4.26995L23.9017 3.77915C23.7299 3.76688 23.5091 3.79142 23.2882 3.85277C22.6011 4.06136 22.2453 4.61351 22.4539 5.3129ZM24.5398 3.5583L24.552 3.60738L24.7606 3.63192C24.7974 3.63192 24.822 3.65645 24.8342 3.73007L25.0674 4.88345C25.1655 5.34971 25.4355 5.64418 26.049 5.52149C26.6993 5.38652 26.7974 4.9448 26.7115 4.47854L26.4907 3.39879C26.4784 3.32517 26.4784 3.30063 26.5152 3.27609L26.6993 3.16566L26.687 3.11658L25.914 3.27609L25.9263 3.32517L26.1349 3.34971C26.1717 3.34971 26.1839 3.37425 26.2085 3.44787L26.4416 4.58897C26.5152 4.9448 26.4416 5.21474 26.0858 5.28836C25.7299 5.36198 25.5582 5.10431 25.4968 4.8221L25.2514 3.63192C25.2392 3.5583 25.2392 3.53376 25.276 3.50922L25.46 3.39879L25.4477 3.34971L24.5398 3.5583ZM27.3373 3.01842V3.0675L27.5459 3.11658C27.5827 3.12885 27.595 3.15339 27.6072 3.22701L27.7913 4.92026C27.8036 4.99388 27.8036 5.01842 27.7545 5.04296L27.5582 5.12885V5.17793L28.503 5.07977V5.03069L28.2944 4.98161C28.2576 4.96934 28.2453 4.9448 28.233 4.87118L28.049 3.07977L28.1962 3.0675C28.4907 3.03069 28.7238 3.09204 28.7606 3.46014C28.7974 3.79142 28.5888 3.95093 28.3066 3.98774L28.2207 4.00001L29.1287 5.01842L29.7054 4.95707L29.6931 4.90799L29.595 4.85891C29.5459 4.83437 29.5214 4.80983 29.4723 4.76075L28.7361 3.9632C28.9938 3.87731 29.2391 3.68099 29.2023 3.34971C29.1533 2.92026 28.7484 2.85891 28.3557 2.90799L27.3373 3.01842ZM30.0735 2.77302V2.8221L30.2821 2.88345C30.3312 2.89572 30.3312 2.92026 30.3312 2.99388L30.3803 4.6994C30.3803 4.77302 30.3803 4.79756 30.3312 4.8221L30.1226 4.89572V4.9448L31.0674 4.92026V4.87118L30.8588 4.80983C30.822 4.79756 30.8097 4.77302 30.8097 4.6994L30.7729 2.99388C30.7729 2.92026 30.7729 2.89572 30.822 2.87118L31.0183 2.79756V2.73621L30.0735 2.77302ZM31.6072 3.25155L31.7054 3.26382L31.779 2.99388C31.7913 2.9448 31.8281 2.92026 31.914 2.92026L32.368 2.9448L32.2944 4.71167C32.2944 4.78529 32.2821 4.80983 32.2453 4.8221L32.0244 4.88345V4.93253L32.9938 4.96934V4.92026L32.7729 4.84664C32.7361 4.83437 32.7238 4.79756 32.7361 4.72394L32.8097 2.9448L33.2514 2.96934C33.3373 2.96934 33.3741 3.00615 33.3864 3.05523L33.4355 3.33744H33.5336L33.5582 2.80983L31.6318 2.73621L31.6072 3.25155ZM33.914 5.03069L35.5336 5.23928L35.6686 4.79756L35.5704 4.76075L35.4232 4.98161C35.3987 5.01842 35.3496 5.05523 35.276 5.04296L34.7115 4.96934C34.6502 4.95707 34.6134 4.9448 34.6257 4.85891L34.7238 4.07363L35.2637 4.14725C35.3373 4.15952 35.3618 4.15952 35.3741 4.2086L35.4232 4.39265L35.4968 4.40492L35.5704 3.80369L35.4968 3.79142L35.4109 3.9632C35.3864 4.00001 35.3618 4.00001 35.2882 3.98774L34.7484 3.91412L34.8465 3.14112L35.46 3.21474C35.5336 3.22701 35.5704 3.26382 35.5827 3.3129L35.6195 3.49695L35.7177 3.50922L35.7668 3.09204L34.1839 2.89572L34.1717 2.9448L34.368 3.04296C34.4171 3.05523 34.4171 3.09204 34.4048 3.16566L34.1962 4.85891C34.1839 4.93253 34.1839 4.95707 34.1349 4.96934L33.9263 5.00615L33.914 5.03069ZM34.9079 2.77302L34.9692 2.84664L35.6563 2.44173C35.7054 2.40492 35.7299 2.36811 35.7299 2.31903L35.3128 2.26995L34.9079 2.77302ZM37.2269 5.54603L38.2453 5.82823C38.9569 6.02455 39.5827 5.7178 39.7668 5.05523C39.9631 4.31903 39.5582 3.92639 38.8956 3.74234L37.7913 3.44787L37.779 3.49695L37.9631 3.61965C37.9999 3.64419 37.9999 3.66873 37.9753 3.74234L37.5336 5.37425C37.5091 5.44787 37.5091 5.47241 37.46 5.47241L37.2391 5.48468L37.2269 5.54603ZM39.8404 6.28222L41.3741 6.84664L41.6072 6.44173L41.5214 6.38038L41.325 6.55216C41.2882 6.58897 41.2392 6.60124 41.1778 6.5767L40.6379 6.38038C40.5888 6.35584 40.552 6.3313 40.5766 6.24541L40.8465 5.50922L41.3496 5.69326C41.4232 5.7178 41.4477 5.73007 41.4477 5.77915V5.9632L41.5214 5.98774L41.7299 5.41106L41.6563 5.38652L41.5336 5.53376C41.5091 5.57057 41.4723 5.5583 41.4109 5.53376L40.9079 5.34971L41.1778 4.62578L41.7545 4.83437C41.8281 4.85891 41.8526 4.90799 41.8526 4.95707L41.8404 5.14112L41.9385 5.17793L42.0858 4.78529L40.5888 4.23314L40.5643 4.28222L40.7361 4.41719C40.7729 4.44173 40.7606 4.46627 40.7361 4.53989L40.1471 6.13498C40.1226 6.2086 40.1103 6.23314 40.0612 6.23314L39.8404 6.22087V6.28222ZM42.1962 6.58897L41.9876 7.04296C42.0858 7.16566 42.2698 7.30063 42.4416 7.37425C42.8342 7.5583 43.3128 7.52149 43.5091 7.0675C43.6441 6.78529 43.5214 6.53989 43.3373 6.31903L43.2023 6.14725C43.0551 5.97547 42.9447 5.82823 43.0306 5.64418C43.1165 5.44787 43.3373 5.46014 43.4968 5.53376C43.595 5.58284 43.6809 5.64419 43.7422 5.7178C43.779 5.76688 43.7913 5.81596 43.779 5.87731L43.7422 6.0859L43.8404 6.13498L44.0367 5.7178C43.9017 5.5583 43.6809 5.44787 43.5827 5.39879C43.2023 5.22701 42.7974 5.3129 42.6379 5.66873C42.503 5.95093 42.6502 6.18406 42.822 6.39265L42.9692 6.56443C43.0796 6.6994 43.2146 6.88345 43.1165 7.07977C43.006 7.30063 42.7729 7.32517 42.5643 7.23928C42.4539 7.1902 42.3434 7.10431 42.2944 7.03069C42.2576 6.96934 42.2453 6.93253 42.2576 6.87118L42.3066 6.63805L42.1962 6.58897ZM44.822 8.49081C44.9079 8.62578 45.0796 8.78529 45.2392 8.88345C45.6072 9.11658 46.0858 9.12885 46.3434 8.71167C46.5152 8.44173 46.4171 8.18406 46.2576 7.95093L46.1349 7.76688C46.0122 7.58284 45.914 7.41106 46.0244 7.23928C46.1349 7.05523 46.3557 7.09204 46.503 7.17793C46.6011 7.23928 46.6625 7.3129 46.7238 7.38652C46.7606 7.4356 46.7606 7.48468 46.7484 7.54603L46.687 7.74234L46.7729 7.80369L47.0183 7.41106C46.8956 7.23928 46.6993 7.10431 46.6011 7.04296C46.2453 6.8221 45.8281 6.85891 45.6318 7.1902C45.4723 7.44787 45.5827 7.70553 45.7299 7.93866L45.8526 8.12271C45.9508 8.26995 46.049 8.46627 45.9385 8.65032C45.8036 8.85891 45.5704 8.85891 45.3741 8.74848C45.276 8.68713 45.1778 8.58897 45.1287 8.50308C45.0919 8.44173 45.0919 8.40492 45.1165 8.34357L45.1901 8.11044L45.0919 8.04909L44.822 8.49081ZM47.006 9.85277L46.7974 9.77915L46.7729 9.81596L47.5336 10.3804L47.5704 10.3436L47.4477 10.1718C47.4232 10.135 47.4355 10.1104 47.4723 10.0491L47.8649 9.50922L48.9447 9.01842C49.0183 8.98161 49.0428 8.98161 49.0919 8.98161L49.2146 8.99388L49.2514 8.9448L48.687 8.52762L48.6502 8.56443L48.7852 8.74848C48.8097 8.78529 48.8097 8.83437 48.7483 8.85891L47.9017 9.26382L48.0367 8.3313C48.049 8.26995 48.0858 8.24541 48.1349 8.25768L48.3312 8.31903L48.368 8.26995L47.6195 7.7178L47.5827 7.76688L47.6318 7.87731C47.6441 7.92639 47.6441 7.95093 47.6441 8.02455L47.4968 9.25155L47.1164 9.76688C47.0674 9.85277 47.0551 9.86504 47.006 9.85277ZM49.276 9.75461C49.0796 9.98774 49.141 10.2577 49.2514 10.5031L49.3373 10.7117C49.4109 10.8712 49.4845 11.0798 49.3373 11.2515C49.1778 11.4356 48.9324 11.3988 48.7729 11.2515C48.687 11.1779 48.6011 11.0552 48.5766 10.9816C48.552 10.908 48.5643 10.8712 48.5888 10.8221L48.6993 10.6135L48.6134 10.5399L48.2821 10.9203C48.3434 11.0675 48.4907 11.2515 48.6257 11.3742C48.9569 11.6565 49.4232 11.7546 49.7422 11.3865C49.9508 11.1534 49.9017 10.8834 49.779 10.6135L49.6931 10.4172C49.6072 10.2209 49.5336 10.0368 49.6563 9.87731C49.8036 9.7178 50.0122 9.77915 50.1349 9.90185C50.2207 9.97547 50.2821 10.0614 50.3189 10.1473C50.3434 10.2086 50.3434 10.2454 50.3189 10.3068L50.2207 10.4908L50.3066 10.5644L50.6134 10.2086C50.5275 10.0246 50.3434 9.85277 50.2698 9.77915C49.9508 9.48468 49.5336 9.46014 49.276 9.75461ZM50.7852 10.9939L50.8588 11.0675L51.1042 10.9203C51.141 10.8957 51.1901 10.908 51.2514 10.9571L51.5704 11.2761L50.3066 12.5153C50.2576 12.5644 50.233 12.5767 50.1962 12.5644L49.9876 12.454L49.9508 12.4908L50.6379 13.1902L50.6747 13.1534L50.5643 12.9448C50.5398 12.908 50.5643 12.8834 50.6134 12.8344L51.8772 11.5951L52.1839 11.9141C52.2453 11.9755 52.2453 12.0246 52.2207 12.0614L52.0735 12.3068L52.1471 12.3804L52.5152 12.0123L51.1533 10.6258L50.7852 10.9939ZM52.8833 12.5031L52.9569 12.6994C52.9815 12.7362 52.9569 12.7607 52.8956 12.8098L51.5827 13.9019C51.5214 13.9509 51.5091 13.9632 51.46 13.9387L51.276 13.8282L51.2391 13.8528L52.2821 15.1166L52.687 14.8957L52.6379 14.8098L52.3803 14.8589C52.3312 14.8712 52.2821 14.8712 52.233 14.8098L51.8649 14.3681C51.8281 14.319 51.8158 14.2822 51.8772 14.2209L52.4907 13.7178L52.8342 14.135C52.8833 14.1963 52.8956 14.2086 52.8711 14.2577L52.7852 14.4172L52.8342 14.4785L53.3005 14.0859L53.2514 14.0246L53.0674 14.0859C53.0183 14.0982 53.006 14.0859 52.9569 14.0246L52.6134 13.6074L53.2146 13.1166L53.6072 13.5828C53.6563 13.6442 53.6563 13.6933 53.6318 13.7423L53.5336 13.9019L53.595 13.9755L53.914 13.7055L52.8956 12.4785L52.8833 12.5031ZM53.6318 12.3681L53.6686 13.1657L53.7668 13.1779L53.9631 12.5522L53.6931 12.2331C53.6563 12.2577 53.6318 12.2945 53.6318 12.3681ZM54.3803 14.6503L52.9692 15.5951C52.9079 15.6319 52.8833 15.6442 52.8465 15.6196L52.6747 15.4847L52.6257 15.5092L53.0551 16.1595L53.1042 16.135L53.0306 15.9019C53.0183 15.8528 53.0428 15.8405 53.1042 15.7914L54.1594 15.0798C54.2944 14.9939 54.3434 14.9571 54.3803 14.9325L54.3925 14.9448C54.3312 15.0061 54.2821 15.0798 54.233 15.1534L53.3005 16.5031L53.4109 16.6749L55.0183 16.3313C55.1533 16.3068 55.2637 16.2822 55.3128 16.27L55.325 16.2822C55.2637 16.319 55.1655 16.3804 55.1042 16.4295L54.0122 17.1534C53.9508 17.1902 53.9263 17.2025 53.8895 17.1779L53.7177 17.043L53.6809 17.0675L54.1962 17.8405L54.2453 17.816L54.1839 17.6074C54.1717 17.5706 54.1962 17.546 54.2576 17.4969L55.6686 16.5522C55.7299 16.5154 55.7545 16.5031 55.7913 16.5276L55.9631 16.6626L56.0122 16.638L55.595 16.0123L54.1103 16.3313C53.9876 16.3558 53.9017 16.3804 53.8281 16.4172V16.4049C53.9017 16.3436 53.9508 16.2822 54.0244 16.1718L54.8956 14.9448L54.4539 14.2945L54.4048 14.3313L54.4661 14.5522C54.4661 14.589 54.4416 14.6135 54.3803 14.6503ZM56.2453 17.5828L54.7361 18.3804C54.6747 18.4172 54.6502 18.4172 54.6134 18.3927L54.4539 18.2454L54.4048 18.27L55.1655 19.7178L55.6072 19.5828L55.5827 19.4847H55.3128C55.2637 19.4847 55.2146 19.4724 55.1778 19.4111L54.9079 18.908C54.8833 18.8589 54.871 18.8098 54.9447 18.773L55.6441 18.4049L55.9017 18.8834C55.9385 18.9448 55.9508 18.9693 55.914 19.0061L55.7913 19.1534L55.8281 19.227L56.368 18.9448L56.3312 18.8712L56.1471 18.8957C56.098 18.8957 56.0858 18.8834 56.049 18.8098L55.7913 18.3313L56.4784 17.9632L56.7606 18.5031C56.7974 18.5767 56.7852 18.6258 56.7606 18.6626L56.6257 18.7976L56.6747 18.8834L57.0428 18.6871L56.2944 17.2761L56.2453 17.3006L56.2821 17.5092C56.3312 17.5215 56.3066 17.546 56.2453 17.5828ZM56.8956 19.6319C56.6134 19.7546 56.5643 20.0246 56.552 20.2945L56.5398 20.5153C56.5275 20.6994 56.503 20.9203 56.3066 21.0061C56.0735 21.1043 55.8772 20.9693 55.7913 20.7607C55.7422 20.6503 55.7177 20.5153 55.7299 20.4295C55.7422 20.3558 55.7668 20.319 55.8036 20.2822L55.9999 20.135L55.9508 20.0368L55.4845 20.2331C55.4723 20.3927 55.5214 20.6135 55.6072 20.7853C55.779 21.1779 56.1594 21.4724 56.6134 21.2761C56.8956 21.1534 56.9692 20.8834 56.9815 20.6012L56.9937 20.3804C57.006 20.1595 57.0183 19.9632 57.2023 19.8896C57.3987 19.8037 57.5582 19.9509 57.6318 20.1104C57.6686 20.2086 57.6931 20.3068 57.6931 20.4049C57.6931 20.4663 57.6686 20.5031 57.6195 20.5399L57.46 20.6749L57.4968 20.773L57.9263 20.589C57.9263 20.3804 57.8404 20.1473 57.7913 20.0491C57.6195 19.6933 57.2514 19.4847 56.8956 19.6319ZM58.5275 22.8589L56.8833 23.3129C56.8097 23.3374 56.7852 23.3374 56.7606 23.3006L56.6379 23.1166L56.5888 23.1288L56.8711 24.1473C57.0674 24.8589 57.6563 25.2393 58.3066 25.0552C59.0428 24.8466 59.1655 24.2945 58.9815 23.6319L58.6747 22.5399L58.6256 22.5522L58.6134 22.7607C58.6257 22.8221 58.6011 22.8344 58.5275 22.8589ZM58.7361 25.5706L58.6502 25.6442C58.822 25.865 59.0796 26.0491 59.3741 25.9877C59.5214 25.9632 59.7299 25.8528 59.6931 25.7055C59.6809 25.6687 59.6563 25.6196 59.6072 25.5706L59.46 25.4356L59.4109 25.4479C59.4109 25.6074 59.2882 25.7178 59.1533 25.7423C59.006 25.7669 58.8588 25.7055 58.7361 25.5706ZM59.7913 27.5215L59.6441 26.589L59.595 26.6012L59.5582 26.8098C59.5459 26.8589 59.5336 26.8589 59.4477 26.8712L57.7668 27.1288C57.6931 27.1411 57.6686 27.1411 57.6441 27.1043L57.5459 26.908L57.4968 26.9203L57.6441 27.8528L57.6931 27.8405L57.7299 27.6196C57.7422 27.5706 57.7668 27.5706 57.8404 27.5583L59.5214 27.3006C59.595 27.2884 59.6195 27.2884 59.6441 27.3252L59.7422 27.5215H59.7913ZM59.8281 28.1595L59.779 28.4295C59.7668 28.4785 59.7422 28.4785 59.6686 28.4908L57.9876 28.6135C57.914 28.6135 57.8895 28.6135 57.8772 28.5767L57.7913 28.3804H57.7422L57.8036 29.1902H57.8526L57.914 28.9203C57.9263 28.8712 57.9508 28.8712 58.0244 28.8589L59.2637 28.773C59.3496 28.7607 59.4355 28.7607 59.4723 28.7485V28.7607C59.4109 28.7853 59.3373 28.8344 59.2882 28.8957L57.8158 30.1595L57.8281 30.4049L59.7913 30.2699C59.8649 30.2577 59.8895 30.27 59.914 30.3068L59.9999 30.5031H60.049L59.9876 29.6933H59.9385L59.8772 29.9632C59.8649 30.0123 59.8404 30.0123 59.7668 30.0246L58.6993 30.0982C58.5888 30.1104 58.4784 30.1104 58.4416 30.1227V30.1104C58.503 30.0982 58.6134 30 58.6747 29.9509L59.9385 28.8712L59.8895 28.1595H59.8281ZM62.0858 31.3865C62.0858 48.3313 48.3557 62.0614 31.4109 62.0614C14.4661 62.0614 0.736084 48.3313 0.736084 31.3865C0.736084 14.4417 14.4661 0.71167 31.4109 0.71167C48.3557 0.71167 62.0858 14.4417 62.0858 31.3865ZM4.1594 27.3497C4.90786 27.4724 5.16553 27.2025 5.22688 26.8834C5.27596 26.5644 5.11645 26.2209 4.36799 26.0982C3.60725 25.9755 3.33731 26.2454 3.28823 26.5522C3.23915 26.8466 3.38639 27.2147 4.1594 27.3497ZM5.22688 21.3129C5.12872 21.3129 5.03056 21.3129 4.95694 21.2884V21.3006C5.01829 21.3252 5.09191 21.3988 5.1778 21.4724L5.72995 21.9755L5.97535 21.3374L5.22688 21.3129ZM3.4232 33.1166C3.33731 33.1534 3.25142 33.1902 3.16553 33.2025V33.2147C3.22688 33.2147 3.32504 33.2515 3.43547 33.2761L4.14713 33.4969L4.11032 32.8221L3.4232 33.1166ZM16.4293 8.50308L15.8404 8.06136C15.7668 8.00001 15.6809 7.95093 15.6441 7.88958L15.6318 7.90185C15.6563 7.95093 15.6809 8.06136 15.7054 8.17179L15.8649 8.89572L16.4293 8.50308ZM39.3005 4.95707C39.4477 4.41719 39.3128 4.01228 38.8097 3.87731L38.4293 3.77915L37.9753 5.46014C37.9508 5.54603 37.9876 5.57057 38.049 5.59511L38.2821 5.65646C38.6625 5.75461 39.1164 5.63191 39.3005 4.95707ZM25.2882 57.3497H25.276C25.2514 57.4233 25.1778 57.546 25.0919 57.6687L24.5398 58.4785L25.4109 58.6749L25.3005 57.7055C25.2882 57.5828 25.276 57.4479 25.2882 57.3497ZM53.5704 47.7669C52.9692 47.3006 52.6134 47.4111 52.4171 47.6687C52.2207 47.9264 52.1962 48.3068 52.7974 48.773C53.4109 49.2393 53.7668 49.1288 53.9753 48.8834C54.1471 48.638 54.1839 48.2454 53.5704 47.7669ZM11.276 49.8896L11.7422 50.3804L11.0551 50.6626C10.9447 50.6994 10.8588 50.7485 10.8097 50.7853L10.7974 50.773C10.8465 50.7239 10.8956 50.638 10.9447 50.5522L11.276 49.8896Z" fill="black" fill-opacity="0.5"/>
<path d="M19.9018 13.914C20.1349 13.6564 20.3681 13.3864 20.3681 13.3864C20.3681 13.3864 20.0981 13.5582 19.9754 13.6686C19.865 13.7791 19.7791 13.8895 19.7791 13.8895C19.7791 13.8895 19.6932 13.9018 19.6196 13.9999C19.546 14.0981 19.4724 14.1349 19.4724 14.1349L19.5337 14.2085C19.546 14.2208 19.6687 14.1717 19.9018 13.914ZM20.4417 13.1165C20.4417 13.1165 20.3681 13.1533 20.3435 13.1533H20.319C20.319 13.1533 20.1963 13.2146 20.1227 13.276C20.049 13.3496 20.049 13.4232 20.049 13.4232C20.049 13.4232 19.9754 13.4478 19.9141 13.5459C19.8527 13.6441 19.7055 13.7791 19.7055 13.7791L19.6319 13.73L19.4233 13.9386C19.4233 13.9386 19.4478 13.9631 19.4478 14.0122V14.0613C19.4478 14.0613 19.7546 13.8159 19.9632 13.6564C20.1717 13.4969 20.4417 13.2883 20.4417 13.2883C20.4417 13.2883 20.4294 13.2637 20.5398 13.1656C20.6625 13.0674 21.0429 12.7116 21.0429 12.7116L21.0674 12.6257C21.0674 12.6257 20.7607 12.822 20.6257 12.9324C20.5153 13.0061 20.4417 13.1165 20.4417 13.1165ZM20.3803 12.9202C20.4908 12.822 20.7116 12.6625 20.7116 12.6625C20.7116 12.6625 20.5276 12.6134 20.4171 12.7361C20.2944 12.8588 20.1717 13.0306 20.1717 13.0306C20.1717 13.0306 20.2699 13.0183 20.3803 12.9202ZM19.8405 13.0919C19.8405 13.0919 19.7178 13.1656 19.6073 13.2515C19.4969 13.3373 19.4355 13.4355 19.4355 13.4355V13.5091L19.6932 13.3251C19.6932 13.3251 19.7178 13.3128 19.7668 13.2637C19.8282 13.2146 19.9141 13.2269 19.9141 13.2269L20.0122 13.141C20.0122 13.141 20.0245 13.1165 20.049 13.0183C20.0736 12.9324 20.1963 12.822 20.1963 12.822C20.1963 12.822 20.049 12.8956 19.9754 12.957C19.8773 13.0183 19.8405 13.0919 19.8405 13.0919ZM11.2883 43.8281C11.3128 43.914 11.5705 44.2208 11.5705 44.2208L11.7178 44.2576C11.7178 44.2576 11.6441 44.1349 11.546 44.0245C11.4355 43.914 11.2883 43.8281 11.2883 43.8281ZM19.0306 13.3128L18.6748 13.595C18.6748 13.595 18.9325 13.5214 19.1288 13.411C19.3251 13.2883 19.3865 13.2024 19.4601 13.1778C19.5337 13.1533 19.5705 13.1533 19.5705 13.1533L19.9263 12.8956C19.9263 12.8956 19.865 12.9202 19.8527 12.8956C19.8405 12.8588 19.8282 12.8465 19.8282 12.8465C19.8282 12.8465 19.5337 12.9815 19.3619 13.0429C19.2024 13.0919 19.092 13.0919 18.9202 13.2024C18.7484 13.3128 18.7116 13.3619 18.6257 13.4478C18.5398 13.5337 18.4908 13.5827 18.4908 13.5827L18.6748 13.5214L19.0306 13.3128ZM19.3742 14.4171C19.411 14.3067 19.3987 14.184 19.1656 14.4539L19.1165 14.6748L19.2392 14.6011C19.2392 14.6011 19.3251 14.5153 19.3742 14.4171ZM15.411 17.1165C15.411 17.1656 15.3497 17.276 15.1779 17.5214C15.0061 17.7668 14.8098 18.0858 14.8098 18.0858C14.8098 18.0858 14.9202 18.0122 15.0552 17.9263C15.1901 17.8404 15.276 17.865 15.276 17.865C15.276 17.865 15.3128 17.8036 15.3742 17.7177C15.4355 17.6318 15.5951 17.5705 15.8527 17.2883C16.1104 17.0061 15.9141 17.0306 15.9141 17.0306C15.9141 17.0306 16 16.9692 16.1717 16.8711C16.3435 16.7729 16.5644 16.5398 16.5644 16.5398C16.5644 16.5398 16.3313 16.4171 16.5767 16.4416C16.7239 16.4539 16.7116 16.3067 16.7116 16.3067L16.503 16.2821C16.3067 16.2576 16.1963 16.4416 16.1963 16.4416C16.1963 16.4416 16.1227 16.5643 16 16.7238C15.8895 16.8834 15.6564 17.0429 15.6564 17.0429L15.9386 16.6502C15.9386 16.6502 15.9509 16.5766 15.7914 16.6993C15.6319 16.8343 15.411 17.0797 15.411 17.1165ZM16.0981 16.1103C16 16.2208 15.7791 16.4784 15.7791 16.4784C15.7791 16.4784 16.0122 16.3803 16.1595 16.2699C16.3067 16.1472 16.4171 15.9754 16.4171 15.9754C16.4171 15.9754 16.3803 15.9386 16.4171 15.8404L16.2208 15.9386C16.2208 15.9263 16.1963 15.9999 16.0981 16.1103ZM11.3619 43.3987L11.3374 43.2637L11.2515 43.2269C11.1779 43.1901 11.0306 42.9815 11.0306 42.9815L10.6871 42.5275L10.6012 42.4662C10.5153 42.4048 10.0736 41.7791 10.0736 41.7791C9.97542 41.6686 9.85272 41.6564 9.85272 41.6564L9.88953 41.8772L10.0245 41.9386C10.0245 41.9386 10.0122 41.8281 10.1595 42.0367C10.3067 42.2453 10.5889 42.6257 10.5889 42.6257L10.7484 42.7484C10.7484 42.7484 10.773 42.8097 10.8466 42.9324C10.9202 43.0551 10.9938 43.141 10.9938 43.141L11.1901 43.3496L11.1779 43.411C11.1656 43.4723 11.227 43.5459 11.227 43.5459C11.227 43.5459 11.2883 43.5582 11.3619 43.6073C11.4478 43.6564 11.5214 43.7545 11.5214 43.7545L11.7178 43.7913C11.7178 43.7423 11.6564 43.6318 11.5828 43.5459C11.4969 43.4478 11.3619 43.3987 11.3619 43.3987ZM15.8895 17.73C15.8895 17.73 16.4049 17.3864 16.6625 17.1778C16.9202 16.9815 16.7362 16.9079 16.7362 16.9079L16.8343 16.6993C16.8343 16.6993 16.8098 16.4662 16.4171 16.8588C16.0368 17.2515 15.9263 17.3128 15.73 17.5091C15.546 17.7054 15.3619 17.8772 15.3619 17.8772V17.9877C15.3619 17.9877 15.5951 17.8527 15.7668 17.6686C15.9632 17.4723 15.8895 17.73 15.8895 17.73ZM28.822 11.6809C28.9325 11.7054 29.3128 11.914 29.3128 11.914C29.3128 11.914 29.3374 11.8404 29.411 11.7668C29.4846 11.6932 29.6564 11.6318 29.6564 11.6318C29.6564 11.6318 29.2883 11.6318 29.2147 11.5091C29.1288 11.3864 28.822 11.3373 28.822 11.3373C28.822 11.3373 28.773 11.2269 28.4662 11.1042C28.2699 11.0306 27.9386 11.0429 27.9386 11.0429C27.9386 11.0429 28.2822 11.1533 28.4049 11.2515C28.5276 11.3496 28.2454 11.3373 28.0613 11.2392C27.8773 11.141 27.5582 11.1165 27.5582 11.1165C27.5582 11.1165 28.3926 11.4478 28.503 11.5705C28.6135 11.6932 28.4049 11.8895 28.4049 11.8895L28.6748 12.1472C28.6748 12.1472 28.8711 12.0981 29.0429 12.1472L29.2147 12.1962L29.4969 12.0367C29.4969 12.0367 28.8466 11.8527 28.8834 11.865C28.8957 11.8895 28.4662 11.595 28.822 11.6809ZM18.9202 15.0061C18.9816 15.0183 19.0552 14.9692 19.1288 14.8956C19.2147 14.822 19.227 14.7116 19.227 14.7116C19.227 14.7116 18.9079 15.0061 18.9202 15.0061ZM20.5767 13.4846C20.5153 13.5827 20.4294 13.6318 20.4294 13.6318L20.4908 13.5214C20.4908 13.5214 20.4417 13.5459 20.3803 13.5827C20.319 13.6196 20.1717 13.7668 20.0613 13.8772C19.9509 13.9877 19.73 14.2453 19.73 14.2453L19.6564 14.6748L19.6687 14.7607L19.4846 14.6993C19.4846 14.6993 19.276 14.9447 19.2147 14.9938C19.1533 15.0429 19.092 15.1778 19.092 15.1778L19.0306 15.2637L18.957 15.1533C18.957 15.1533 18.7852 15.2637 18.6994 15.2883C18.6135 15.3251 18.6871 15.2269 18.6871 15.2269L18.6012 15.2024L18.5889 15.1288L18.773 14.9079L18.8343 14.7975L18.8466 14.7484C18.8589 14.6993 18.8711 14.6625 18.8711 14.6625L18.7607 14.6993L18.4908 14.9938C18.4908 14.9938 18.454 15.0429 18.3926 15.1165C18.3313 15.1901 18.2944 15.1901 18.2944 15.1901C18.2944 15.1901 18.2822 15.3742 18.2086 15.46C18.1472 15.5459 18.0736 15.6196 18.0736 15.6196C18.0736 15.6196 18.0368 15.6809 17.9386 15.7791C17.8527 15.8772 17.7791 15.8895 17.7791 15.8895L17.5828 16.0613C17.5828 16.0613 17.4233 16.233 17.3374 16.3435C17.1165 16.6011 17.2392 16.7484 17.2147 16.7852C17.1533 16.8834 17.2147 17.0061 17.2147 17.0061L17.3374 17.0919L17.3619 17.1656L17.4601 17.1288L17.4355 17.2269L17.4601 17.3373L17.5705 17.276L17.6196 17.3373C17.6196 17.3373 17.7178 17.2146 17.7791 17.1778C17.8405 17.141 17.8527 17.1778 17.8527 17.1778L17.9263 17.0306H17.865L18.0736 16.9202L18.2576 16.6134L18.1963 16.5766C18.1963 16.5766 18.2331 16.5275 18.2699 16.4784C18.3067 16.4294 18.3067 16.368 18.3067 16.368L18.1717 16.3926L18.2086 16.2699C18.2086 16.2699 18.1227 16.2821 18.049 16.2944C17.9754 16.3067 17.9386 16.2699 17.9386 16.2699L17.9754 16.0245L17.9263 16.0367C17.8773 16.049 18 15.9386 18 15.9386L18.1717 15.7054L18.2822 15.4846C18.2822 15.4846 18.2699 15.5337 18.2576 15.5827C18.2454 15.6318 18.2699 15.6809 18.2699 15.6809L18.4294 15.5459C18.4294 15.5459 18.4171 15.6809 18.4171 15.7668C18.4171 15.8527 18.3803 15.9263 18.3803 15.9263L18.4171 15.9631C18.4171 15.9631 18.4294 15.9631 18.454 15.9263C18.4908 15.8772 18.5276 15.8527 18.5276 15.8527L18.5521 16.0122L18.6257 16.0245C18.6871 16.0367 18.6748 16.0735 18.6257 16.1349C18.5889 16.1962 18.454 16.2821 18.454 16.2821L18.5153 16.3067C18.5153 16.3067 18.6135 16.2576 18.7116 16.1962C18.7975 16.1349 18.7607 16.2208 18.7607 16.2208L18.9202 16.1103C18.9202 16.1103 18.9938 16.049 19.0674 15.9508C19.1411 15.8527 19.1533 15.8036 19.1533 15.8036L19.1043 15.8159C19.0552 15.8281 19.1288 15.7545 19.1779 15.6932C19.227 15.6318 19.4355 15.4969 19.4355 15.4969C19.4355 15.4969 19.5705 15.3987 19.6932 15.2392C19.8036 15.0797 19.8895 15.2024 19.8895 15.2024L20.2454 14.8465L20.4662 14.6748C20.4662 14.6748 20.4908 14.6257 20.5398 14.503C20.5889 14.3803 20.6503 14.4907 20.6503 14.4907L20.8098 14.2821C20.8098 14.2821 20.7484 14.2576 20.7607 14.184C20.7852 14.1103 20.773 14.1472 20.9447 14.0981C21.1165 14.049 21.1656 14.0981 21.1656 14.0981L21.3987 13.8527L21.3619 13.8036H21.4601C21.4601 13.8036 21.8773 13.4355 22.0981 13.2883C22.3067 13.1288 22.4049 12.957 22.4049 12.957L22.5521 12.822C22.5521 12.822 22.9202 12.5153 23.1043 12.2085C23.3006 11.9018 23.546 11.2883 23.546 11.2883L23.5092 11.276C23.5092 11.276 23.4233 11.3251 23.3251 11.3987C23.2392 11.46 22.9325 11.6318 22.9325 11.6318C22.9325 11.6318 22.8711 11.6564 22.6993 11.7791C22.5276 11.9018 22.4662 11.8895 22.4662 11.8895L22.3067 12.0122C22.3067 12.0122 22.2822 12.0367 22.2208 12.0981C22.1595 12.1594 22.1104 12.1472 22.1104 12.1472C22.1104 12.1472 21.9754 12.2453 21.8527 12.3557C21.7178 12.4662 21.7055 12.4171 21.7055 12.4171L21.5705 12.5521C21.4355 12.687 21.2147 12.8343 21.0797 12.9447C20.9325 13.0674 20.6748 13.3005 20.6748 13.3005C20.6748 13.3005 20.638 13.3864 20.5767 13.4846ZM13.3128 18.7484C13.3251 18.8956 13.4233 18.9324 13.4233 18.9324C13.4233 18.9324 13.5951 18.822 13.6319 18.687C13.6687 18.5521 13.7178 18.4539 13.7178 18.4539C13.7178 18.4539 13.7914 18.503 13.7914 18.6011C13.7914 18.6993 13.7668 18.7238 13.7668 18.7238C13.7668 18.7238 14.0368 18.5153 14.1227 18.3312C14.2086 18.1472 14.3313 17.8404 14.503 17.6318C14.6748 17.4232 14.8098 17.3742 14.8098 17.3742C14.8098 17.3742 14.9938 17.1288 15.2638 16.8834C15.5214 16.638 15.7055 16.4907 15.7055 16.4907C15.7055 16.4907 16 16.184 16.049 16.0735C16.0981 15.9631 16.1104 15.914 16.1104 15.914L15.1043 16.7729C15.1043 16.7729 15.5582 16.3312 15.6809 16.1717C15.8036 16.0122 15.5582 16.184 15.5582 16.184C15.5582 16.184 15.7178 15.9876 15.8895 15.7668C16.0613 15.5459 16.2699 15.2883 16.2699 15.2883C16.2699 15.2883 15.8527 15.3005 15.5092 15.5214C15.1656 15.7545 15.0674 15.8772 15.0674 15.8772C15.0674 15.8772 15.092 15.9508 15.0674 16.0367C15.0429 16.1226 15.0061 16.1717 15.0061 16.1717L14.8711 15.9999L14.5153 16.3803C14.5153 16.3803 14.503 16.4171 14.4908 16.5275C14.4785 16.638 14.4662 16.7607 14.3681 16.9079C14.2699 17.0674 14.1595 17.2269 14.1595 17.2269C14.1595 17.2269 14.1472 17.0674 14.1963 16.9447C14.2454 16.8343 14.2576 16.8097 14.2576 16.8097L14.2208 16.6011C14.2208 16.6011 13.9018 16.822 13.7668 17.0429C13.6441 17.2637 13.6564 17.3742 13.5092 17.5337C13.3497 17.6932 13.1288 17.914 13.1288 17.914C13.1288 17.914 13.1656 17.9631 13.1656 18.0613C13.1656 18.1594 13.1288 18.2453 13.1288 18.2453L13.3865 18.1472L13.411 18.2453L13.6564 18.1226L13.4846 18.2944C13.4846 18.2944 13.4601 18.5398 13.3251 18.4784C13.2024 18.4171 13.1901 18.3557 13.1901 18.3557C13.1901 18.3557 13.0797 18.4294 13.0306 18.5275C12.9693 18.638 12.9693 18.6625 12.9693 18.6625C12.9693 18.6625 13.0552 18.6502 13.1165 18.638C13.1901 18.6257 13.2147 18.6502 13.1779 18.7238L13.1411 18.7975C13.1165 18.822 13.3128 18.6011 13.3128 18.7484ZM10.6503 28.4416C10.6503 28.4416 10.9079 28.368 10.9079 28.3557V28.049L10.6994 28.1104L10.6503 28.4416ZM12.3313 24.8343C12.3313 24.8343 12.2086 24.8588 12.1349 25.0183C12.0736 25.1656 12.0736 25.1901 12.0736 25.1901V25.3742L12.3803 24.9447L12.3313 24.8343ZM12.184 24.5153C12.2576 24.4171 12.2331 24.4416 12.2331 24.4416L12.049 24.3312C12.049 24.3312 11.9018 24.3803 11.8282 24.4907C11.7546 24.6011 11.7668 24.7238 11.7668 24.7238C11.7668 24.7238 12.1104 24.6134 12.184 24.5153ZM18.7362 14.4907L18.6257 14.503L18.5644 14.5766L18.7239 14.5398L18.7362 14.4907ZM12.773 44.7484C12.9079 44.7729 13.1656 44.9202 13.1656 44.9202C13.1656 44.7975 13.0429 44.7238 12.9079 44.6257C12.773 44.5275 12.5521 44.2821 12.3435 44.1594C12.1349 44.0367 11.9018 43.9508 11.9018 43.9508C11.9018 43.9508 12 44.0367 12.0613 44.1226C12.1227 44.2085 12.184 44.3067 12.184 44.3067L12.2454 44.3558C12.3067 44.4048 12.319 44.4907 12.319 44.4907L11.9018 44.2331L12.0981 44.4785C12.0981 44.4785 12.2208 44.5153 12.3558 44.6012C12.503 44.687 12.6257 44.8711 12.6257 44.8711C12.6257 44.8711 12.6503 44.7361 12.773 44.7484ZM9.95088 29.4969L9.86499 29.6441C9.86499 29.6441 10.0368 29.8527 10.0368 29.8281C10.0368 29.8036 10.0613 29.7423 10.0368 29.6196C9.99996 29.4846 9.95088 29.4969 9.95088 29.4969ZM27.1901 54.6748C27.1901 54.6748 27.3251 54.5153 27.546 54.4785C27.7668 54.4416 28.0245 54.4785 28.0245 54.4785L28.1227 54.3312C28.1227 54.3312 27.9018 54.2944 27.9141 54.1717L27.9263 54.049C27.9263 54.049 27.7791 53.9018 27.5092 53.6564C27.2392 53.411 26.9079 53.2392 26.9079 53.2392C26.9079 53.2392 27.092 53.0551 27.0429 52.9324L27.0061 52.7975C27.0061 52.7975 27.2638 52.5889 27.2515 52.4294C27.2392 52.2699 27.1779 52.184 27.1779 52.184L26.5767 51.7423C26.5767 51.7423 26.454 51.7177 26.3313 51.7177C26.2086 51.7177 26.1104 51.7545 26.1104 51.7545L25.6564 51.6318L25.2638 51.4846C25.2638 51.4846 24.957 51.3496 24.6257 51.3373C24.2944 51.3128 24.2576 51.3987 24.2576 51.3987L24.0981 51.3373L23.4724 51.276L23.3251 51.411L23.1779 51.2392C23.1779 51.2392 23.1288 51.1901 23.0306 51.141C22.9325 51.0919 22.7975 51.141 22.7975 51.141L22.6625 51.0797L21.9632 50.9079C21.9632 50.9079 21.8405 50.8956 21.8527 50.9692C21.865 51.0429 21.7914 51.0797 21.7914 51.0797L21.6932 50.8343L21.4724 50.7607C21.4724 50.7607 21.3742 50.8465 21.276 50.8097C21.1779 50.7729 21.0797 50.7607 21.0797 50.7607L21.1288 50.9079L20.8466 50.8956L20.8098 50.7238C20.8098 50.7238 20.9816 50.6134 20.9447 50.4662C20.8957 50.3189 20.7362 50.3189 20.7362 50.3189L20.2208 49.9508L20.0613 49.7545L19.73 49.6196L19.4355 49.4355L18.5889 49.1533C18.5889 49.1533 18.5276 49.1901 18.3558 49.1533C18.184 49.1288 18.049 49.1042 18.049 49.1042L17.9754 49.0061L17.6319 48.8097L17.5214 48.8588L17.4478 48.7116L16.6871 48.233L16.4294 48.184L16.454 48.0981L15.7178 47.6073H15.9263C15.9263 47.6073 15.8405 47.5337 15.6319 47.4846C15.4355 47.4478 15.2515 47.5337 15.2515 47.5337L14.9938 47.3373C14.9938 47.3373 14.6994 47.3005 14.5889 47.2269C14.4785 47.1533 14.3926 46.9815 14.3926 46.9815L13.9632 46.7607H13.8036L14.1227 47.2269L14.0613 47.2515C14.0613 47.2515 13.8527 47.0674 13.8405 46.9692C13.8282 46.8834 13.8159 46.8465 13.7546 46.7484C13.6932 46.6502 13.5951 46.5521 13.5951 46.5521L13.6564 46.4907L13.4724 46.3067L13.3497 46.4539L13.1043 46.3435C13.1043 46.3435 13.1165 46.5153 13.1779 46.5766C13.2392 46.638 13.2392 46.7975 13.2392 46.7975L12.6871 46.2331L12.5767 46.1962C12.6625 46.3067 12.7484 46.4171 12.8466 46.5275C12.8343 46.4784 12.8466 46.4539 12.9202 46.5275C13.1901 46.8097 13.8405 47.5459 14.1104 47.865C14.2086 47.9754 14.2699 48.0735 14.2944 48.1472C17.9754 51.9018 22.8957 54.4539 28.3803 55.1533C28.2208 55.0429 28.0245 54.9324 27.865 54.8711C27.5337 54.8097 27.1901 54.6748 27.1901 54.6748ZM48.1717 44.184C48.1963 44.368 48.2331 44.3803 48.2331 44.3803C48.2331 44.3803 48.1472 44.6257 48.2944 44.638C48.3926 44.638 48.4171 44.638 48.4171 44.638C48.4171 44.6502 48.454 44.7116 48.4417 44.7729C48.4294 44.8465 48.4049 44.8956 48.4049 44.8956L48.6012 44.8465L48.4908 44.4416L48.3313 44.4171C48.3313 44.4171 48.4049 44.2085 48.3681 44.049C48.3313 43.8772 48.2331 43.9018 48.2086 43.7545C48.2331 43.7668 48.1472 43.9999 48.1717 44.184ZM48.9202 43.2392C48.9202 43.2392 49.3619 42.8588 49.5092 42.4907C49.6564 42.1226 49.8405 41.865 49.8405 41.865C49.8405 41.865 49.5092 41.9508 49.3128 42.1226C49.1165 42.2944 48.9938 42.4171 48.9938 42.4171L48.9202 43.2392ZM49.3251 44.5398H49.2024C49.2024 44.5398 49.2147 44.7852 49.1656 44.957C49.1043 45.1656 49.0061 45.2637 49.0061 45.2637V45.6318H49.1901C49.1901 45.6318 49.1533 45.3496 49.2515 45.141C49.3619 44.9202 49.3251 44.5398 49.3251 44.5398ZM38.0736 45.8527C38 45.6318 37.9754 45.5582 37.9754 45.5582C37.9754 45.5582 37.865 45.9018 37.3128 45.46L37.2147 45.6686C37.2147 45.6686 37.6564 45.6441 37.8282 45.7913C38 45.9386 38.0122 46.1349 38.0122 46.1349C38.0122 46.1349 38.1595 46.0735 38.0736 45.8527ZM50.503 19.4478L50.0122 18.6134L49.8773 18.7484L50.2208 19.4478H50.503ZM49.7791 16.8834L49.6319 16.638L49.4601 16.6625C49.2883 16.687 49.0184 16.3803 49.0184 16.3803C49.1656 16.6993 49.5582 16.9447 49.5582 16.9447L49.7791 16.8834ZM49.5092 21.9386C49.3497 21.6686 49.1901 21.5459 49.0061 21.2515C49.0061 21.2515 49.1165 21.6196 49.0797 21.7668C49.0552 21.914 49.0061 22.0245 49.0061 22.0245L49.3374 22.6257L49.5582 22.4662C49.5828 22.4662 49.6687 22.2085 49.5092 21.9386ZM55.411 30.9202C55.3374 30.3558 55.227 29.4355 55.1288 28.9692C54.9938 28.2576 54.8343 27.7177 54.8343 27.7177V28.4416L54.6257 28.1349L54.5521 27.9877C54.4908 27.8404 54.3435 27.9263 54.3435 27.9263L54.0859 27.5214C54.0859 27.5214 53.9754 27.9877 53.7178 28.4907C53.4601 28.9938 53.0674 29.2883 53.0674 29.2883L52.7607 28.8956L52.5889 29.5214L52.3926 29.6686C52.3926 29.6686 52.3313 29.595 52.1227 29.6073C51.9141 29.6196 51.8036 29.7177 51.8036 29.7177C51.8036 29.7177 51.276 29.1288 51.0552 29.3619C50.8343 29.6073 51.0184 29.8159 51.0184 29.8159L50.8957 29.9754H51.0674L51.3619 30.3312L51.5092 30.2699L52.1349 30.9447L52.049 30.3558C52.049 30.3558 52.1472 30.503 52.2454 30.7729C52.3435 31.0429 52.4417 31.0551 52.4417 31.0551L52.5276 30.7607C52.5276 30.7607 52.7852 30.6134 52.8221 30.2208C52.8466 29.8281 52.8343 29.2146 52.8343 29.2146C52.8343 29.2146 52.9325 29.4232 53.0306 29.7054C53.1288 29.9754 53.2883 29.9877 53.2883 29.9877L53.5092 29.7054L53.7546 29.9508C53.7546 29.9508 53.7914 30.4907 53.7546 30.8711C53.7178 31.2392 53.8282 31.46 53.8282 31.46C53.8282 31.46 53.7791 31.5459 53.7055 31.7423C53.6319 31.9386 53.7055 32.049 53.7055 32.049C53.7055 32.049 53.6687 32.1349 53.5582 32.3189C53.4478 32.503 53.5582 32.7116 53.5582 32.7116C53.5582 32.7116 53.3742 33.0551 53.227 33.2515C53.0797 33.4478 53.1779 33.73 53.1779 33.73L52.7239 34.6257C52.7239 34.6257 52.6871 34.822 52.5276 35.141C52.3803 35.46 52.0859 35.6809 52.0859 35.6809C52.0859 35.6809 52.0122 35.8404 51.9509 36.049C51.8895 36.2453 51.6564 36.3926 51.6564 36.3926L51.3006 35.6932C51.3006 35.6932 51.3374 35.3987 51.2147 35.2637C51.092 35.1165 50.7484 35.0061 50.7484 35.0061C50.7484 35.0061 50.773 34.9202 50.6257 34.7729C50.4785 34.6257 50.2454 34.687 50.2454 34.687L49.9754 34.5643C49.9754 34.5643 49.9754 34.2576 49.73 33.9508C49.4724 33.6318 49.2515 33.865 49.2515 33.865C49.2515 33.865 49.0797 33.6073 48.6257 33.2515C48.1717 32.8956 48.0368 33.0551 48.0368 33.0551L47.8895 32.5153C47.8895 32.5153 47.865 32.6257 47.8895 32.8465C47.9141 33.0674 47.9141 33.2883 47.9141 33.2883L47.73 33.2515C47.546 33.2146 47.1165 32.9324 47.1165 32.9324C47.1165 32.9324 47.1411 33.0183 47.2638 33.1778C47.3865 33.3251 47.9141 33.595 47.9141 33.595C47.9141 33.595 48.0368 33.7791 48.184 33.9263C48.3313 34.0735 48.7607 34.3067 48.7607 34.3067L48.8098 34.5643C48.8589 34.822 49.0797 34.638 49.0797 34.638L49.3497 34.7484L49.7914 35.6441C49.7914 35.6441 50.2454 35.6686 50.3067 35.8036C50.3681 35.9386 50.6135 36.3926 50.6135 36.3926L50.9202 36.2576C50.9202 36.2576 51.2638 36.3312 51.4724 36.4907C51.6809 36.638 51.5337 36.822 51.5337 36.822C51.5337 36.822 51.7055 36.9079 51.8282 36.9938C51.9509 37.0674 52.2208 36.5643 52.6012 36.049C52.9816 35.5337 53.1901 35.1288 53.1901 35.1288C53.1901 35.1288 53.227 35.276 53.1901 35.5582C53.1656 35.8527 53.0552 36.4539 52.8589 37.46C52.6625 38.4662 51.8405 39.865 51.3497 40.8834C50.8589 41.8895 50.4662 42.8097 50.4662 42.8097L50.5766 42.8343C50.5766 42.8343 50.6012 42.9079 50.5276 43.0919C50.4417 43.276 50.4294 43.6932 50.4294 43.6932L50.5766 43.6318C50.5766 43.6318 50.5521 43.73 50.4294 44.1472C50.3067 44.5643 50.0368 45.1165 49.5582 45.73C49.0797 46.3435 48.4908 46.8956 48.4908 46.8956C48.4908 46.8956 48.3681 47.4846 48.184 47.7668C48 48.049 47.3987 48.5275 47.3987 48.5275C47.3987 48.5275 47.3128 48.7238 46.957 49.1165C46.5889 49.4969 45.4601 50.5521 44.957 50.9324C44.4417 51.3128 43.5582 51.6932 43.5582 51.6932C43.5582 51.6932 43.6932 51.5091 43.73 51.3864C43.7668 51.2515 43.6687 51.1165 43.6687 51.1165L43.4478 51.0306C43.4478 51.0306 43.4724 50.4171 43.2638 50.1594C43.0552 49.9018 42.8098 49.9263 42.8098 49.9263C42.8098 49.9263 42.8098 49.7791 42.8711 49.4969C42.9325 49.2146 43.0306 48.957 43.0306 48.957C43.0306 48.957 43.5214 48.4416 43.5337 48.2944C43.546 48.1472 43.2392 47.914 43.2392 47.914C43.2392 47.914 43.3742 47.6564 43.1533 47.411C42.9447 47.1656 42.7362 47.0919 42.1963 47.0061C41.6564 46.9324 41.5951 46.6502 41.5951 46.6502C41.5951 46.6502 41.7178 46.5275 41.7178 46.368C41.7178 46.2085 41.6932 46.1349 41.7668 46.0367C41.8405 45.9263 42.0245 45.5214 41.6441 45.3373C41.2638 45.1533 40.9325 45.5214 40.6993 45.6809C40.4662 45.8404 40.1227 45.8527 40.1227 45.8527C40.1227 45.8527 40.0122 45.6686 39.8036 45.5827C39.5828 45.5091 39.1779 45.6196 39.1779 45.6196L37.8282 46.503L37.276 46.822C37.276 46.822 37.227 46.8465 36.957 46.8711C36.6871 46.8956 36.3926 47.0674 35.9754 47.1656C35.5582 47.2637 35.2147 47.6318 35.2147 47.6318C35.2147 47.6318 34.7239 47.595 34.184 47.5337C37.4355 45.1165 41.6073 41.3619 44.1717 36.6134C44.6994 35.6441 45.1533 34.5521 45.546 33.3742L45.9877 33.2024C45.9877 33.2024 46.0736 33.0183 46.2331 32.7361C46.3926 32.4539 46.6503 32.4662 46.8957 32.3557C47.1411 32.2453 47.2883 32.0981 47.2883 32.0981C47.2883 32.0981 47.3128 31.6196 47.2883 31.0061C47.2638 30.4048 46.9693 30.1104 46.9693 30.1104L46.9202 29.9386C46.9202 29.9386 46.9325 29.7423 46.8957 29.7054C46.8098 29.6196 46.7362 29.914 46.7362 29.914L46.4908 29.9754C46.4908 29.9754 46.4785 30.1472 46.4049 30.3189C46.3926 30.3435 46.3803 30.368 46.3681 30.3926C46.5767 29.4355 46.7607 28.4294 46.8957 27.3987C46.9079 27.3987 46.9079 27.3987 46.9079 27.3987C46.9079 27.3987 47.1043 27.141 47.092 26.9815C47.092 26.9079 47.0429 26.8097 46.9816 26.7116C47.0797 25.9263 47.1411 25.1165 47.2024 24.2944L47.4601 24.8834C47.4601 24.8834 47.7055 24.8343 47.9141 25.0797C48.1104 25.3373 49.1779 25.5705 49.1779 25.5705C49.1779 25.5705 48.9325 25.8404 49.1779 26.2453C49.4233 26.6502 49.5828 26.8465 49.5828 26.8465L49.865 26.6625C49.865 26.6625 50.1595 26.8465 50.3926 26.5275C50.6257 26.2085 50.7239 26.0613 50.7239 26.0613C50.7239 26.0613 50.5398 25.9631 50.3681 25.7177C50.2086 25.46 50.1349 25.3373 50.1349 25.3373C50.1349 25.3373 49.8159 25.3864 49.6564 25.141C49.4969 24.8834 49.4355 24.7975 49.4355 24.7975C49.4355 24.7975 49.0674 24.6625 49.0184 24.4784C48.9693 24.3067 48.9325 24.2453 48.9325 24.2453L48.7362 24.3803L48.0368 24.1594L48.1963 23.8772C48.1963 23.8772 47.865 23.6932 48 23.5459C48.1349 23.3987 48.2822 23.276 48.2822 23.276C48.2822 23.276 48.0245 23.1042 47.9632 22.957C47.9018 22.8097 47.7546 22.7238 47.7546 22.7238C47.7546 22.7238 47.4601 22.822 47.3497 23.2392C47.3006 23.411 47.2638 23.6196 47.2392 23.7913C47.276 22.9324 47.3006 22.0735 47.3006 21.1901C47.3006 21.1901 46.9938 20.7607 43.7791 19.0797C41.8405 18.0735 39.9141 17.1778 38.1472 16.4294L38.1717 16.3926L37.9632 15.914C37.9632 15.914 38.0245 15.7913 37.9877 15.595C37.9509 15.3987 37.9754 15.2637 37.9754 15.2637L38.2208 15.4846C38.2208 15.4846 38.2576 15.7054 38.3558 15.6073C38.454 15.5091 38.4171 15.3987 38.4171 15.3987L38.319 15.2024C38.319 15.2024 38.4662 15.1288 38.4294 14.9815C38.3926 14.8343 38.3558 14.687 38.3558 14.687L38.7484 14.9202L38.8098 14.822L38.6257 14.7238L38.5766 14.5153L38.0368 14.3926C38.0368 14.3926 37.9386 14.4907 37.8527 14.4416C37.7791 14.3926 37.7178 14.3926 37.7178 14.3926L37.73 14.4662C37.73 14.4662 37.5828 14.4662 37.4478 14.3926C37.3006 14.3312 37.2515 14.2453 37.2515 14.2453C37.2515 14.2453 37.7178 14.3557 37.8895 14.2453C38.0613 14.1349 38.1595 13.9263 38.1595 13.9263H38.4049L38.5644 13.9876L38.5276 13.8772L38.9816 13.8036L39.4846 13.8527L38.9938 13.5459L38.9447 13.6318C38.9447 13.6318 38.9079 13.6441 38.7607 13.6073C38.6012 13.5705 38.5153 13.5459 38.5153 13.5459L38.6257 13.6932L38.1104 13.5459C38.1104 13.5459 38.1472 13.5091 38 13.4478C37.8527 13.3864 37.4601 13.3496 37.4601 13.3496L37.1779 13.2269L36.9938 12.9938L35.9018 12.5275L36.0368 12.3435L36.2331 12.2699L35.9018 12.0367L36.2944 11.8159L35.8282 11.595L36.2331 11.5459L35.4969 11.4355C35.4969 11.4355 35.5214 11.3251 35.3987 11.141C35.276 10.957 35.1533 10.8588 35.1533 10.8588L35.3865 10.8956C35.3865 10.8956 35.276 10.7484 34.9938 10.822C34.7116 10.8956 34.7607 11.0183 34.2086 10.7975C33.6564 10.5889 33.2883 10.3067 33.1411 10.2944C32.9938 10.2699 32.7607 10.2453 32.7607 10.2453L32.6993 10.1226L32.8466 10.0858C32.8466 10.0858 32.7484 10.0367 32.638 10.0122C32.5276 9.98765 32.4417 9.93857 32.4417 9.93857L32.2331 9.97538L32.1717 9.82814C32.1717 9.82814 32.1349 9.84041 32.0122 9.86495C31.8895 9.88949 31.6441 9.87722 31.3128 9.85268C30.9816 9.82814 30.4785 9.79133 30.4785 9.79133L30.6748 9.6809C30.6748 9.6809 30.8466 9.76679 30.957 9.70544C31.0552 9.65636 31.0429 9.60728 31.0429 9.60728H31.6809C31.6809 9.60728 31.5582 9.57047 31.3987 9.57047L31.2392 9.5582L30.9938 9.47231C30.9938 9.47231 31.3251 9.3128 31.73 9.26372C32.1349 9.21464 33.1533 9.28826 33.6073 9.34961C34.0613 9.41096 34.822 9.52139 34.822 9.52139C34.822 9.52139 34.503 9.36188 34.2699 9.33734C34.0368 9.3128 33.9632 9.32507 33.9632 9.32507L33.5828 9.25145L33.546 9.14102L33.7914 9.11648L33.2883 8.9079L33.6441 8.84655C33.6441 8.84655 33.6687 8.74839 33.4478 8.68704C33.227 8.62569 32.7239 8.68704 32.7239 8.68704L32.5521 8.6625L32.4417 8.52753C32.4417 8.52753 32.7239 8.4171 33.0306 8.36802C33.3374 8.31894 33.4355 8.40483 33.4355 8.40483L33.9509 8.15943L32.9325 8.23305L33.092 8.15943L32.9938 8.09808C32.9938 8.09808 32.822 8.13489 32.6012 8.09808C32.3803 8.06127 32.2208 8.01219 32.2208 8.01219C32.2208 8.01219 31.9877 8.07354 31.7055 8.12262C31.4233 8.1717 31.1656 8.20851 31.1656 8.20851L30.7484 8.06127C30.7484 8.06127 30.4785 8.11035 30.3803 8.07354C30.2944 8.03673 30.822 7.81587 30.822 7.81587C30.822 7.81587 30.7362 7.79133 30.3803 7.81587C30.0245 7.84041 29.7668 7.85268 29.7668 7.85268C29.7668 7.85268 29.8282 7.77906 29.9877 7.72998C30.1472 7.6809 30.2208 7.65636 30.2208 7.65636C30.2208 7.65636 29.4355 7.66863 29.1779 7.71771C28.9202 7.76679 28.6503 7.85268 28.6503 7.85268C28.6503 7.85268 29.092 7.64409 28.7362 7.71771C28.3803 7.77906 28.3558 7.90176 28.3558 7.90176C28.3558 7.90176 28.2331 7.90176 28.0368 7.93857C27.8405 7.97538 27.6687 8.01219 27.6687 8.01219C27.6687 8.01219 27.3497 7.97538 27.092 7.98765C26.8343 8.01219 26.7607 8.01219 26.7607 8.01219L26.8466 7.95084L26.4049 8.12262L26.1472 8.14716L26.4908 7.90176C28.0859 7.57047 29.73 7.39869 31.411 7.39869C44.5153 7.38642 55.1533 17.8772 55.411 30.9202ZM12.7484 24.7116L12.8711 24.6625L12.9202 24.5153L12.8711 24.4048H12.7852L12.7484 24.7116ZM50.6257 44.7729C50.4417 45.0797 50.3926 45.3128 50.3926 45.3128C50.3926 45.3128 50.2454 45.6196 50.0613 45.8527C49.8773 46.0735 49.5092 46.7729 49.5092 46.7729H49.6073C49.6073 46.7729 50.0859 46.2576 50.4662 45.6932C50.4662 45.6932 51.3374 44.3312 51.5828 43.8527C51.8405 43.3742 52 42.8711 51.9877 42.6625C51.9877 42.6625 51.6687 43.3128 51.3742 43.7545C51.0797 44.1962 50.8098 44.4662 50.6257 44.7729ZM30.5398 8.26986L30.0981 8.50299L30.9325 8.35575L30.5398 8.26986ZM12.5153 22.8343C12.184 23.3128 12.1472 23.3864 12.1472 23.3864C12.1472 23.3864 12.0859 23.3251 12.0122 23.4723L11.9386 23.6196C11.9386 23.6196 12.0981 23.595 12.0122 23.7423C11.9141 23.9018 11.8895 23.9754 11.8895 23.9754C11.8895 23.9754 12.0122 24.0245 12.1104 23.9263L12.1963 23.8281L12.2944 23.8159C12.2944 23.8159 12.3926 23.6073 12.454 23.6196C12.5276 23.6318 12.4294 23.7668 12.4294 23.7668C12.4294 23.7668 12.5398 23.8036 12.4908 23.8772C12.4417 23.9508 12.3926 23.9999 12.3926 23.9999L12.5276 24.233C12.5276 24.233 12.6871 24.1594 12.7362 24.0122C12.773 23.8772 12.6135 23.8527 12.6135 23.8527C12.6135 23.8527 12.773 23.7423 12.7852 23.4846C12.7975 23.2392 12.8343 23.0429 12.8343 23.0429C12.8343 23.0429 12.8098 22.8956 12.8466 22.687C12.8957 22.4784 12.9202 22.4171 12.9202 22.4171C12.9202 22.4171 12.8466 22.3557 12.5153 22.8343ZM13.9018 18.9815C13.7914 19.0429 13.7914 19.0797 13.73 19.1533C13.6564 19.2392 13.4969 19.2269 13.4969 19.2269C13.4969 19.2269 13.4724 19.2269 13.411 19.4232C13.3374 19.6196 13.3251 19.9018 13.3251 19.9018L13.5582 19.8159C13.5582 19.8159 13.5705 19.73 13.6564 19.6196C13.73 19.5214 13.9141 19.3742 13.9141 19.3742C13.9141 19.3742 13.8773 19.3251 13.8773 19.2269C13.8773 19.1288 14.0368 18.9447 14.0368 18.9447C14.0368 18.9447 14.0122 18.9079 13.9018 18.9815ZM12.9938 24.4048V24.6625C12.9938 24.6625 13.1165 24.6257 13.1165 24.5153C13.1043 24.3926 12.9938 24.4048 12.9938 24.4048ZM11.1165 31.4478L11.1411 31.3005C11.1411 31.3005 10.9447 31.2515 10.8589 31.3987C10.7852 31.5582 10.8098 31.6686 10.8098 31.6686L11.1165 31.4478ZM10.6257 32.6625C10.6257 32.6625 10.5276 32.4416 10.5644 32.2944L10.3681 32.368L10.6257 32.6625ZM9.95088 34.2453C9.95088 34.2453 9.86499 34.1226 9.81592 34.2085L9.76684 34.3067C9.76684 34.3067 9.73003 34.1717 9.60733 34.1226C9.48463 34.0735 9.32512 34.1226 9.34966 34.2576C9.3742 34.4171 9.59506 34.4171 9.59506 34.4171C9.59506 34.4171 9.69322 34.6502 9.80365 34.638C9.92634 34.6257 9.95088 34.2453 9.95088 34.2453ZM9.36193 34.4662C9.26377 34.3926 9.16561 34.4662 9.16561 34.4662C9.16561 34.4662 9.11653 34.2576 8.99383 34.3435L8.87113 34.4294C8.87113 34.4294 8.7607 34.368 8.80978 34.2208C8.80978 34.2208 8.638 34.4907 8.7607 34.6625C8.87113 34.822 9.42328 34.6625 9.42328 34.6625C9.42328 34.6625 9.46009 34.5521 9.36193 34.4662ZM8.82205 33.0061C8.82205 33.2637 8.71162 33.5459 8.71162 33.5459C8.71162 33.5459 8.95702 33.411 8.90794 33.6932C8.87113 33.9754 8.87113 34.1104 8.87113 34.1104L9.01837 33.9877C9.01837 33.9877 9.03064 33.7668 9.07972 33.595C9.1288 33.4232 9.15334 33.3251 9.15334 33.3251L9.28831 33.6932L9.38647 33.5705L9.26377 32.8588C9.26377 32.8588 8.8834 32.4784 8.84659 32.2576C8.79751 32.0245 8.83432 31.4969 8.83432 31.4969C8.83432 31.4969 8.71162 31.3987 8.72389 31.2269C8.73616 31.0429 8.74843 30.9447 8.74843 30.9447L8.57665 30.5766C8.57665 30.5766 8.49076 30.7975 8.36806 30.8343C8.24536 30.8711 8.15947 30.8343 8.15947 30.8343L7.99996 31.0797H8.1472C8.1472 31.0797 8.07358 31.3987 8.23309 31.3987C8.3926 31.411 8.47849 31.3128 8.47849 31.3128C8.47849 31.3128 8.3926 31.4723 8.45395 31.6932C8.52757 31.914 8.72389 31.9999 8.72389 31.9999L8.83432 32.4784C8.83432 32.4784 8.77297 32.3435 8.638 32.233C8.50303 32.1226 8.34352 32.1226 8.2699 32.5398C8.19628 32.957 8.17174 33.5459 8.20855 33.7177C8.23309 33.8895 8.29444 33.9018 8.29444 33.9018C8.29444 33.9018 8.40487 33.7668 8.41714 33.3496C8.44168 32.9324 8.5153 32.7484 8.5153 32.7484L8.69935 32.5275C8.68708 32.5398 8.82205 32.7484 8.82205 33.0061ZM8.638 30.4539L8.73616 30.049L8.638 29.9631C8.638 29.9631 8.58892 30.0367 8.55211 30.2085C8.52757 30.368 8.638 30.4539 8.638 30.4539ZM12 30.2085C12.0736 30.3435 12.2454 30.4171 12.2454 30.4171C12.2454 30.4171 12.1717 30.2699 12.184 30.184C12.1963 30.0981 12.2331 30.0245 12.2576 30.0981L12.2944 30.1717L12.3803 30.0858C12.3803 30.0858 12.3681 30.0122 12.319 29.9263C12.2699 29.8404 12.1963 29.7791 12.1963 29.7791C12.1963 29.7791 11.9263 30.0735 12 30.2085ZM12.9079 30.687C12.8711 30.7852 12.8711 30.822 12.8711 30.822L12.9693 31.0797C12.9693 31.0797 12.9325 30.8588 13.0061 30.7484C13.1165 30.5889 13.1533 30.7729 13.2515 30.7852C13.3497 30.7975 13.4478 30.7484 13.4478 30.7484V30.5275C13.4478 30.5275 13.2638 30.6011 13.2638 30.4539C13.276 30.3067 13.2515 30.2699 13.2515 30.2699C13.2515 30.2699 13.1901 30.5275 13.0306 30.4784C12.8711 30.4294 12.8589 30.4048 12.8589 30.4048C12.8589 30.4048 12.9447 30.5889 12.9079 30.687ZM13.9018 30.9447C13.9018 30.9447 14.0122 31.0797 14 31.1533C13.9754 31.2269 13.9509 31.3251 13.9509 31.3251L14.3558 30.9938L14.2699 30.9447C14.2699 30.9447 14.1472 31.1042 13.9018 30.9447ZM11.8895 34.9202C11.8895 34.9202 11.7546 34.8711 11.276 34.9938C10.7975 35.1165 10.9447 35.4969 11.0552 35.7177C11.1779 35.9263 11.0552 35.9508 11.0552 35.9508C11.0552 35.9508 11.0674 35.9877 10.822 35.9877C10.5767 35.9877 10.638 36.0981 10.638 36.0981C10.638 36.0981 10.6012 36.1103 10.3681 36.0858C10.1227 36.0613 10.2208 36.4294 10.2208 36.4294C10.2208 36.4294 9.99996 36.957 9.95088 37.3251C9.9018 37.7054 9.99996 37.9386 9.99996 37.9386L9.92634 38.1962C9.92634 38.1962 9.88953 38.1962 9.73003 38.2576C9.57052 38.3312 9.48463 38.6134 9.48463 38.6134L9.32512 38.638C9.32512 38.638 9.28831 38.7238 9.30058 38.9202C9.31285 39.1165 9.47236 39.6441 9.71776 40.2576C9.96315 40.8711 10.0368 41.2883 10.0368 41.2883H9.96315C9.96315 41.2883 9.76684 40.8956 9.52144 40.3803C9.27604 39.8527 9.03064 39.0429 9.03064 39.0429H8.90794C8.90794 39.0429 8.96929 38.9202 8.66254 38.4171C8.35579 37.914 8.56438 38.5643 8.56438 38.5643L8.47849 38.4171C7.80365 36.1962 7.43555 33.8404 7.43555 31.3864C7.43555 23.3987 11.3374 16.3312 17.3374 11.9631C17.092 12.2085 17.1288 12.2085 17.3006 12.1103C17.5337 11.9754 18.1227 11.7177 18.1227 11.7177L17.8773 11.9386H18.2699C18.2699 11.9386 18.2454 11.9631 18.1595 12.0367C18.0736 12.1226 18.1963 12.1226 18.1963 12.1226C18.1963 12.1226 17.8405 12.2821 17.6319 12.4416C17.4355 12.6011 17.1288 12.7852 16.6257 13.141C16.1227 13.4969 16.0736 13.6686 16.0736 13.6686C16.0736 13.6686 15.5337 14.1226 15.2392 14.368C14.9447 14.6257 14.7484 14.8711 14.7484 14.8711L14.9693 14.8343C14.9693 14.8343 14.9447 14.8465 14.8466 15.1288C14.7484 15.411 15.1288 15.1778 15.1288 15.1778C15.1288 15.1778 14.822 15.46 14.4417 15.7668C14.0613 16.0735 14.503 15.8281 14.503 15.8281L14.2699 15.9999C14.0368 16.1717 14.2331 16.1349 14.2331 16.1349C14.2331 16.1349 14.1472 16.3189 14.0245 16.4539C13.9018 16.5889 13.7055 16.8711 13.4478 17.3619C13.2024 17.8527 13.0552 17.8895 13.0552 17.8895C13.0552 17.8895 13.0797 17.6318 12.8711 17.9508C12.6748 18.2699 12.6503 18.4784 12.7484 18.4784C12.8343 18.4907 12.8957 18.4907 12.8957 18.4907C12.8957 18.4907 12.3558 19.2269 12.5767 19.0306C12.7975 18.8343 12.822 18.8097 12.822 18.8097L13.092 18.7607L13.1533 18.8097C13.1533 18.8097 12.9447 19.0061 12.9202 19.141C12.8957 19.276 12.9079 19.3251 12.9079 19.3251C12.9079 19.3251 12.6503 19.7913 12.7607 19.7668L12.8711 19.7423C12.8711 19.7423 12.8466 20.1472 12.9816 19.9386L13.1043 19.73C13.1043 19.73 13.3128 19.5582 13.276 19.8036L13.227 20.0613C13.227 20.0613 12.7239 20.503 12.9202 20.3926C13.1165 20.2821 13.1901 20.2085 13.1901 20.2085C13.1901 20.2085 13.3251 20.3067 13.4969 20.0858C13.6564 19.8649 13.6441 19.8036 13.6441 19.8036C13.6441 19.8036 13.7546 19.6932 13.8773 19.6073C13.9263 19.5705 13.9754 19.5459 14 19.5337C14 19.4355 14.0122 19.3251 14.0613 19.2146C14.1963 18.8711 14.3681 18.7361 14.4662 18.6748L14.5644 18.6134C14.5644 18.6134 14.7607 18.3557 14.9202 18.2208C15.092 18.0858 15.2392 18.0245 15.3742 17.9018V17.9877C15.3742 17.9877 15.2638 18.233 15.0797 18.4907C14.8957 18.7484 14.7484 18.8956 14.6257 19.141C14.4908 19.3864 14.4908 19.3619 14.4908 19.3619C14.4908 19.3619 14.2208 19.46 14.184 19.5705C14.1472 19.6564 14.2086 19.8772 14.2086 19.8772L14.1595 19.914C14.1104 19.9508 14.0368 19.9999 13.9754 20.0735C13.8895 20.1962 13.8895 20.3067 14.0122 20.2085C14.1349 20.1103 14.1717 20.0613 14.1717 20.0613C14.1717 20.0613 14.1595 20.3067 14.0122 20.503C13.865 20.6993 13.6441 20.8465 13.546 21.0674C13.4478 21.276 13.3742 21.5091 13.3742 21.5091C13.3742 21.5091 13.5705 21.3005 13.7546 21.1778C13.9386 21.0551 14.1472 20.7238 14.1472 20.7238C14.1472 20.7238 14.2699 20.7729 14.3558 20.6134C14.4417 20.4539 14.4662 20.3803 14.5767 20.2576C14.6871 20.1349 14.7852 20.1472 14.7852 20.1472C14.7852 20.1472 14.8711 20.4784 14.7607 20.7607C14.6503 21.0551 14.5276 21.2024 14.5276 21.2024L14.3681 21.276L14.3313 21.0919C14.3313 21.0919 14.2086 21.2146 14.1104 21.5459C14.0122 21.8772 14.0122 21.9386 14.0122 21.9386C14.0122 21.9386 13.8895 22.0858 13.7055 22.1962C13.5214 22.3189 13.276 22.3926 13.276 22.3926C13.276 22.3926 13.1901 22.233 13.1901 22.2208C13.1901 22.1962 13.276 22.0245 13.276 22.0245C13.276 22.0245 13.227 22.0981 13.1901 22.0245C13.1533 21.9508 13.1411 21.9386 13.1411 21.9386C13.1411 21.9386 13.0429 22.0245 13.0429 22.1103C13.0552 22.1962 13.0429 22.2453 13.0429 22.2453C13.0429 22.2453 12.9325 22.2944 12.7852 22.4294C12.638 22.5643 12.5889 22.6134 12.5889 22.6134C12.5889 22.6134 12.503 22.5521 12.5398 22.3435C12.5767 22.1349 12.6135 22.0245 12.6135 22.0245C12.6135 22.0245 12.4171 22.2699 12.4294 22.4294C12.4417 22.5889 12.5398 22.6993 12.5398 22.6993L11.9386 23.2392C11.9386 23.2392 11.9632 22.8588 11.8159 23.0551C11.6564 23.2515 11.5337 23.2392 11.5337 23.2392C11.5337 23.2392 11.5582 23.3864 11.4233 23.4723C11.2883 23.5582 11.227 23.3864 11.227 23.3864C11.227 23.3864 11.2392 23.4232 11.1288 23.5582C11.0184 23.6932 10.8343 23.73 10.8343 23.73C10.8343 23.73 10.7484 23.8772 10.5889 24.0367C10.4294 24.1962 10.184 24.4048 10.0122 24.7607C9.84045 25.1288 9.81592 25.2269 9.81592 25.2269C9.81592 25.2269 9.97542 25.276 9.87726 25.46C9.77911 25.6441 9.71776 25.8895 9.69322 26.0245L9.66868 26.1472L9.47236 26.3189C9.47236 26.3189 9.7423 26.2821 9.76684 26.4907C9.79137 26.6993 9.85272 26.8711 9.84045 27.1165C9.82818 27.3619 9.80365 27.4723 9.80365 27.4723C9.80365 27.4723 9.85272 27.6196 9.88953 27.7054C9.92634 27.7913 9.93861 27.8772 9.93861 27.9877C9.93861 28.0981 9.92634 28.1594 9.92634 28.1594C9.92634 28.1594 10.0122 28.1594 10.0859 28.2699C10.1595 28.3803 10.1717 28.4294 10.1717 28.4294L10.2822 28.4539L10.0859 28.9079C10.0859 28.9079 10.0981 29.0797 9.99996 29.276C9.9018 29.46 9.85272 29.6073 9.88953 29.8895C9.92634 30.1717 9.93861 30.3189 9.92634 30.4171L9.91407 30.5153L10.0245 30.7116C10.0245 30.7116 10.049 30.5766 10.1595 30.4784C10.2699 30.3803 10.319 30.3312 10.319 30.3312C10.319 30.3312 10.3067 29.9877 10.4171 29.6564C10.5153 29.3251 10.5276 28.9324 10.5276 28.9324C10.5276 28.9324 10.8589 28.9202 11.0429 28.7729C11.227 28.6134 11.3987 28.3312 11.4478 28.0367C11.4969 27.7423 11.546 27.4232 11.5337 27.276C11.5214 27.1288 11.4969 27.0919 11.4969 27.0919L11.5582 26.9324C11.5582 26.9324 11.8036 26.7484 11.9263 26.5643C12.049 26.3803 12.1472 25.8404 12.1472 25.8404C12.1472 25.8404 12.3926 25.7423 12.4171 25.5705C12.4417 25.3864 12.4294 25.3251 12.4294 25.3251L12.5889 25.0061L12.7484 24.957C12.7484 24.957 12.8711 25.2392 13.0184 25.3128C13.1656 25.3742 13.2147 25.3251 13.2147 25.3251C13.2147 25.3251 13.276 25.4355 13.2515 25.7791C13.227 26.1226 13.2147 26.2453 13.3619 26.3312C13.5092 26.4171 13.5337 26.4539 13.5337 26.4539C13.5337 26.4539 13.4601 26.5521 13.3374 26.8097C13.2147 27.0674 13.2147 27.2024 13.2147 27.2024C13.2147 27.2024 13.0306 27.5091 13.092 27.6686C13.1656 27.8404 13.1779 27.8772 13.1779 27.8772C13.1779 27.8772 13.1288 28.184 13.3374 28.1104C13.5337 28.0367 13.6073 27.8895 13.6073 27.8895C13.6073 27.8895 13.6932 27.9508 13.8405 27.6932L13.9877 27.4232L14.2208 27.0551L14.3067 27.0797C14.3067 27.0797 14.2331 27.3496 14.2331 27.5827C14.2331 27.8159 14.2454 27.9018 14.2454 27.9018C14.2454 27.9018 14.1717 28.2699 14.2086 28.5889C14.2454 28.9079 14.3067 29.2146 14.3067 29.2146C14.3067 29.2146 13.9877 29.3742 14.1104 29.6196C14.2208 29.8772 14.3313 30.049 14.3313 30.049C14.3313 30.049 14.2208 30.1349 14.3558 30.2085C14.4908 30.2821 14.5767 30.3312 14.5767 30.3312C14.5767 30.3312 14.503 30.4294 14.638 30.5153C14.773 30.6011 14.9202 30.6134 14.9202 30.6134L14.4049 30.9324C14.4049 30.9324 14.7607 30.8343 14.8343 30.9324C14.9079 31.0306 14.7484 31.1901 14.7484 31.1901C14.7484 31.1901 15.0184 31.0429 15.1043 31.2392C15.1901 31.4355 14.9938 31.73 14.9938 31.73C14.9938 31.73 15.1656 31.8281 15.0306 32.0122C14.8957 32.1962 14.638 32.3067 14.638 32.3067C14.638 32.3067 14.3803 32.1717 14.2576 32.3067C14.1472 32.4416 14.1472 32.5398 14.1472 32.5398L13.8405 32.7238C13.8405 32.7238 13.7423 32.7361 13.2392 32.5766C12.7239 32.4171 12.4294 32.2699 12.4294 32.2699C12.4294 32.2699 12.2208 32.4416 12.1717 32.5398C12.1227 32.638 12.1227 32.7238 12.1227 32.7238C12.1227 32.7238 11.9509 32.6011 11.7178 32.8711C11.4846 33.141 11.1656 33.4969 11.1656 33.4969H11.3006C11.3006 33.4969 11.5951 33.0919 11.8405 32.9815C12.0859 32.8711 12.4908 32.7975 12.638 33.0306C12.7852 33.2637 12.4662 33.4969 12.4662 33.4969L12.319 33.3864L12.184 33.3987C12.184 33.3987 12.2699 33.411 12.319 33.4969C12.3681 33.5827 12.3681 33.6196 12.3681 33.6196L12.503 33.5582L12.6012 33.6441C12.6012 33.6441 12.454 33.7423 12.4785 33.9754C12.503 34.2085 12.5276 34.3312 12.5276 34.3312C12.5276 34.3312 12.6625 34.4048 12.6871 34.4294C12.9816 34.8588 13.1288 34.6625 13.1288 34.6625L13.3251 34.9815C13.3251 34.9815 12.9202 35.0674 12.6625 35.1533C12.4049 35.2392 12.3681 35.3987 12.3681 35.3987L12.184 35.4969C12.184 35.4969 12.0245 35.1288 12.0981 34.9815C12.184 34.8465 12.3435 34.7361 12.1227 34.7238C11.8036 34.7116 11.8895 34.9202 11.8895 34.9202ZM28.6012 14.3926C28.6012 14.3926 28.6871 14.368 28.9325 14.5643C29.1901 14.7484 29.2515 14.9079 29.2515 14.9079L29.5582 14.8711L29.4233 14.4662C29.4233 14.4662 28.3926 14.1226 28.1963 13.9386C28.0122 13.7668 28.6135 13.7423 28.6135 13.7423L28.319 13.1901L27.3987 13.0919C27.3987 13.0919 27.6319 13.2637 27.5092 13.6318C27.411 13.9263 27.2147 14.0613 27.2147 14.0613C27.2147 14.0613 27.3742 14.503 27.9754 14.8097C28.2208 14.9324 28.5644 15.3373 28.5644 15.3373L28.9079 15.4969C29.0061 15.4723 29.092 15.4355 29.1779 15.411L28.6012 14.3926ZM28.4049 9.05513L29.0674 8.98151L30.0981 8.65023H28.7116L28.2086 8.77293C28.2086 8.77293 28.503 8.82201 28.454 8.9447L28.4049 9.05513ZM18.6503 14.3067L18.3926 14.5398L18.3681 14.6134L18.6625 14.3557L18.6503 14.3067ZM28.9325 10.2944C29.6319 10.2085 29.9141 9.97538 29.9141 9.97538L30.638 9.98765L29.6809 9.8036C29.6809 9.8036 29.0061 9.99992 28.6012 10.0613C28.1963 10.1103 27.2147 10.2208 27.2147 10.2208C27.2147 10.2208 28.2331 10.3803 28.9325 10.2944ZM13.7914 45.2515L13.8159 45.1533C13.8159 45.1533 13.7178 45.0429 13.4233 44.9815L13.4724 45.141L13.7914 45.2515ZM12.8711 34.6257L13.0429 34.3803C13.0429 34.3803 12.7975 34.368 12.5767 34.2085L12.8711 34.6257ZM13.6196 34.7607C13.6196 34.7361 13.3865 34.687 13.411 34.2576L13.1165 34.6257L13.2638 34.9324C13.2515 34.9202 13.6196 34.7729 13.6196 34.7607ZM15.0306 34.638L15.411 34.7238C15.411 34.7238 15.4969 34.503 15.5092 34.3189C15.5214 34.1226 15.4724 33.9631 15.3619 34.0858L15.2515 34.2085C15.2515 34.2085 15.2024 34.0367 15.3128 33.9263L15.4233 33.8159L15.4355 33.6932C15.4355 33.6932 15.1656 33.9263 15.2392 33.7423C15.3006 33.5582 15.3742 33.4355 15.3742 33.4355C15.3742 33.4355 15.3619 33.2392 15.1165 33.2637C14.8589 33.3005 14.8834 33.0797 14.8834 33.0797C14.8834 33.0797 14.638 33.0061 14.7362 32.7852C14.8343 32.5643 14.9938 32.2944 14.9938 32.2944C14.9938 32.2944 14.7607 32.1717 14.4785 32.638C14.184 33.1165 13.9877 33.6441 13.9018 33.7177C13.8282 33.7913 13.73 33.8527 13.73 33.8527L13.8036 34.0735C13.8036 34.0735 13.9877 34.0245 14.184 34.0735C14.3681 34.1226 14.3558 34.1226 14.3558 34.1226C14.3558 34.1226 14.7116 34.1594 14.7116 34.2576C14.7116 34.3557 14.5276 34.503 14.5276 34.503H14.7852C14.7852 34.503 14.9079 34.3557 14.9816 34.2453C15.0674 34.1349 15.1656 34.0735 15.092 34.3312C15.0306 34.5889 15.0306 34.638 15.0306 34.638ZM16.2454 47.8527L16.1595 47.6318H15.9877C15.9877 47.6318 16.049 47.6809 16.0859 47.7177C16.1227 47.7668 16.0859 47.8036 16.0859 47.8036L16.2454 47.8527ZM35.9018 12.3189L35.3987 12.2208L35.4724 12.3435L35.8036 12.4662L35.9018 12.3189ZM33.1165 11.914L32.3681 11.73L32.4539 11.9386C32.4539 11.9386 32.5889 11.9754 32.822 12.1226C33.0552 12.2699 32.8711 12.4784 32.8711 12.4784L33.6319 13.276C33.6319 13.276 33.73 13.2269 34.3558 13.6564C34.9938 14.0858 35.4478 14.368 35.4478 14.368C35.4478 14.368 35.6441 14.7361 36.3067 14.8097C36.9693 14.8956 37.2638 14.5521 37.2638 14.5521L37.0552 14.368C37.0552 14.368 36.8098 14.4416 36.4294 14.368C36.0368 14.3067 35.3865 13.8895 34.4908 13.2392C33.5828 12.5889 33.1165 11.914 33.1165 11.914ZM13.1165 32.8834C12.8466 32.6134 12.7362 32.6257 12.7362 32.6257C12.7362 32.6257 12.638 32.7607 12.8957 32.9815C13.1411 33.2146 13.2515 33.2269 13.2515 33.2269C13.2515 33.2269 13.3865 33.1533 13.1165 32.8834ZM36.9447 15.8159C36.9816 15.8281 37.5337 16.184 37.5337 16.184L37.4846 15.7054C37.4846 15.6932 36.9079 15.7913 36.9447 15.8159ZM18.4294 14.957L18.6503 14.6993C18.6503 14.6993 18.5644 14.7729 18.5767 14.6993C18.5889 14.6257 18.6135 14.6011 18.6135 14.6011C18.6135 14.6011 18.4294 14.6993 18.3803 14.7607C18.3313 14.822 18.2822 14.8711 18.2822 14.8711C18.2822 14.8711 18.2576 14.8343 18.3067 14.7729C18.3558 14.7116 18.4049 14.6625 18.4049 14.6625C18.4049 14.6625 18.3435 14.6993 18.319 14.6502L18.3067 14.5889C18.3067 14.5889 18.1963 14.6502 18.1717 14.6993C18.1472 14.7607 18.1349 14.7975 18.1349 14.7975L18.0736 14.7729L18.0245 14.8834L17.8773 14.9324V15.0061L17.73 15.1165C17.73 15.1165 17.7791 15.1778 17.7914 15.2392C17.8036 15.3005 17.8036 15.3128 17.73 15.3251C17.6564 15.3251 17.5951 15.3373 17.5951 15.3373L17.3006 15.6073L17.3251 15.7668C17.3251 15.7668 17.4478 15.6686 17.5582 15.5827C17.6687 15.4969 17.7423 15.4846 17.7423 15.4846C17.7423 15.4846 17.9263 15.3128 18.0613 15.2146C18.2208 15.1288 18.4294 14.957 18.4294 14.957ZM18.2331 13.7668C18.1349 13.8281 18.0981 13.9018 18.0981 13.9018L18.5889 13.6564H18.503C18.5153 13.6441 18.3313 13.7054 18.2331 13.7668ZM17.1656 16.3803C17.1656 16.3803 17.3619 16.1717 17.5092 16.0245C17.6687 15.8772 17.7914 15.6686 17.7914 15.6686H17.7178C17.7178 15.6686 17.5092 15.7913 17.3251 15.9754C17.1533 16.1349 17.1656 16.3803 17.1656 16.3803ZM17.3374 14.6257C17.3374 14.6257 17.1533 14.7361 17.0674 14.8465C16.9816 14.957 17.0674 14.9938 17.1779 14.9815C17.2883 14.9692 17.3374 14.9692 17.3374 14.9692L17.2883 15.141C17.2883 15.141 17.3742 15.1656 17.5337 15.0674C17.6932 14.9692 17.73 14.9202 17.73 14.9202C17.73 14.9202 17.8773 14.8834 18.0368 14.7361C18.1963 14.5889 18.2208 14.5398 18.2208 14.5398L18.0981 14.5275C18.0981 14.5275 18.1963 14.4539 18.3803 14.2944C18.5644 14.1349 18.8957 13.8772 18.8957 13.8772C18.8957 13.8772 18.6625 13.9386 18.4662 14.1103C18.2699 14.2821 18.2331 14.3189 18.1963 14.3435C18.1595 14.3557 18.1227 14.368 18.1227 14.368C18.1227 14.368 17.9018 14.6134 17.8527 14.5889C17.8159 14.5643 17.8282 14.503 17.8282 14.503C17.8282 14.503 18.2208 14.1962 18.4294 14.0122C18.638 13.8281 18.773 13.6686 18.773 13.6686L18.7484 13.6318L17.8036 14.1103C17.8036 14.1103 17.5828 14.2699 17.5337 14.4048C17.4846 14.5398 17.5582 14.6748 17.5582 14.6748L17.5214 14.6993L17.3374 14.6257ZM17.4969 15.141C17.411 15.2269 17.3987 15.3005 17.3987 15.3005L17.4724 15.276L17.6932 15.0551C17.6809 15.0551 17.5828 15.0674 17.4969 15.141ZM17.7668 15.5827H17.6809L17.5828 15.6809L17.7178 15.6318L17.7668 15.5827ZM46.4417 31.1656C46.6135 31.0183 46.6748 30.8097 46.6748 30.8097C46.6748 30.8097 46.6503 30.7116 46.7239 30.4539C46.7239 30.4539 46.6012 30.7361 46.503 30.7729C46.4049 30.8097 46.319 30.8465 46.319 30.8465C46.319 30.8465 46.4049 30.9447 46.319 30.9938C46.2944 31.0061 46.2699 31.0183 46.2576 31.0183C46.2454 31.0674 46.2331 31.1165 46.2208 31.1656C46.2454 31.2146 46.3313 31.2637 46.4417 31.1656ZM15.0429 21.0061C15.092 20.9447 15.0429 20.9202 15.0429 20.9202L14.7239 21.1533L14.7852 21.2269C14.7852 21.2269 14.9938 21.0797 15.0429 21.0061ZM14.3681 23.8159C14.3681 23.8159 14.319 23.9508 14.2454 24.0613C14.1717 24.1717 14.0368 24.2944 14.0368 24.2944L14.2944 24.4171C14.2944 24.4171 14.3435 24.3067 14.3681 24.1226V23.8159ZM15.546 24.4539C15.4969 24.5521 15.4724 24.6257 15.4724 24.6257L15.3497 24.3803C15.3497 24.3803 15.3865 24.2085 15.3987 23.9631C15.411 23.7177 15.3497 23.3987 15.3497 23.3987C15.3497 23.3987 15.1656 23.73 15.0552 23.9877C14.9447 24.233 15.0552 24.4662 15.0552 24.4662C15.1043 24.7975 15.0306 24.9324 15.0306 24.9324C14.9938 25.0797 15.0306 25.2515 15.0306 25.2515C15.0306 25.2515 14.9938 25.3619 14.8589 25.595C14.7116 25.8281 14.638 25.9877 14.638 25.9877C14.638 25.9877 14.6135 25.6932 14.5398 25.4969C14.4662 25.3005 14.2454 24.957 14.2454 24.957C14.2454 24.957 14.3067 25.3742 14.3313 25.6073C14.3558 25.8404 14.2944 26.2208 14.2944 26.2208C14.2944 26.2208 14.049 25.9877 13.8895 25.6932C13.7178 25.3987 13.7178 24.9692 13.7178 24.9692L13.8773 24.8711C13.8773 24.8711 13.8405 24.8097 13.8036 24.6134C13.7791 24.4171 13.8159 24.1962 13.8159 24.1962L13.6687 24.1594C13.5214 24.1226 13.2392 24.1104 13.2392 24.1104C13.2392 24.1104 13.2024 24.0367 13.2392 23.8159C13.276 23.595 13.5214 23.5459 13.5214 23.5459L13.6196 23.3251C13.6196 23.3251 13.6687 23.4846 13.7914 23.6196C13.9141 23.7545 14.1472 23.6441 14.1472 23.6441L14.2331 23.2269C14.2331 23.2269 14.5767 22.9447 14.7239 22.8097C14.8711 22.687 14.8711 22.7607 14.8711 22.7607L15.2515 22.0367L15.1779 21.9508C15.092 21.865 15.2147 21.7668 15.2147 21.7668L15.0306 21.8036C15.0306 21.8036 15.0674 21.7054 15.1288 21.6073C15.1901 21.5091 15.2392 21.46 15.2392 21.46L15.0306 21.4846L15.1043 21.3128C15.1043 21.3128 15.1656 21.3251 15.2392 21.3128C15.3128 21.3005 15.3006 21.2024 15.3128 21.0306C15.3251 20.8711 15.3497 20.7238 15.3497 20.7238L15.6196 20.3557L15.5337 20.3435L15.6196 20.0367C15.6196 20.0367 15.4846 20.0367 15.4724 20.1717C15.4601 20.3067 15.3251 20.5766 15.3251 20.5766L15.227 20.5398C15.227 20.5398 15.227 20.4048 15.1533 20.3926C15.0797 20.3803 15.1533 20.6257 15.1533 20.6257L15.0552 20.6625C15.0552 20.6625 15.0429 20.4294 14.9938 20.2944C14.9447 20.1594 14.8466 20.0981 14.8466 20.0981L14.8589 20.0122C14.8711 19.9263 14.7607 19.9508 14.7607 19.9508L14.8589 19.7054C14.8589 19.7054 14.6871 19.6318 14.7975 19.411C14.9202 19.1901 15.1043 18.9938 15.1043 18.9938V19.2269H15.1901L15.2515 19.0306C15.2515 19.0306 15.1411 18.8588 15.2883 18.687C15.4355 18.5153 15.6564 18.2944 15.9632 18.0122C16.2699 17.73 16.5644 17.4846 16.7852 17.4232C16.9938 17.3619 16.9202 17.6196 16.9202 17.6196C16.9202 17.6196 16.7607 17.7177 16.6012 17.8281C16.4417 17.9386 16.0736 18.3312 16.0736 18.3312C16.0736 18.3312 16.3435 18.1349 16.5644 17.9508C16.7852 17.7668 17.1043 17.7913 17.1901 17.9508C17.276 18.1103 17.2638 18.233 17.1901 18.4539C17.1043 18.6625 16.9202 18.8343 16.9202 18.8343C16.9202 18.8343 16.9325 18.7852 16.8466 18.687C16.7607 18.5889 16.5153 18.8711 16.5153 18.8711C16.5153 18.8711 16.7484 18.7975 16.8098 18.8588C16.8589 18.9202 16.8466 19.1042 16.8466 19.1042C16.8466 19.1042 16.822 19.1656 16.7484 19.46C16.6871 19.6809 16.6994 20.1472 16.6871 20.5521C15.8773 20.9692 15.4724 21.2146 15.4724 21.2146C15.4355 22.3067 15.4724 23.3864 15.546 24.4539ZM15.1411 15.6196L15.1779 15.6318C15.1779 15.6318 15.3128 15.5705 15.4478 15.4723C15.5828 15.3742 15.7055 15.3742 15.7055 15.3742C15.7055 15.3742 15.8527 15.2515 15.9754 15.2392C16.0859 15.2269 16.3067 15.2392 16.3067 15.2392L17.0306 14.6011C17.0306 14.6011 17.0184 14.5398 17.092 14.4539C17.1533 14.3557 17.3374 14.1717 17.3374 14.1717C17.3374 14.1717 17.276 14.184 17.2515 14.1472C17.227 14.1103 17.2515 14.0735 17.2515 14.0735C17.2515 14.0735 16.8957 14.3435 16.7852 14.3926C16.6871 14.4416 16.3926 14.5766 16.3926 14.5766C16.3926 14.5766 16.2086 14.6993 16.0613 14.7729C15.9141 14.8588 15.73 14.9079 15.73 14.9079C15.73 14.9079 15.6319 15.0306 15.4846 15.1778C15.3374 15.3251 15.092 15.5337 15.092 15.5337C15.092 15.5337 15.1656 15.5337 15.2147 15.5459C15.2638 15.5459 15.1411 15.6196 15.1411 15.6196ZM14.3558 26.6502L14.4785 26.4539L14.4417 26.233L14.2699 26.4539L14.3558 26.6502ZM23.0674 13.4355L23.2638 12.5398L22.8957 13.2392L23.1165 12.5398L22.7239 12.8097L21.4969 14.0245L21.5582 14.1717L21.0061 14.8097L20.9693 14.6993L20.773 14.7975C20.5767 14.8956 20.2944 14.9938 20.184 15.2269C20.0736 15.4478 19.9509 15.8159 19.9509 15.8159L20.0859 15.8281C20.2208 15.8404 20.0613 16.0613 20.0613 16.0613L19.9141 15.9754L19.8895 16.1962L19.7546 15.9754C19.7546 15.9754 19.5582 16.1962 19.5582 16.3803C19.5582 16.5643 19.3128 16.638 19.3128 16.638L19.2515 17.1042L19.6932 16.9938L19.8773 17.6196L19.6564 17.9877L19.3251 19.2392C19.7914 19.0183 20.3067 18.7852 20.8589 18.5398C22.0368 18.0245 23.1779 17.5582 24.2576 17.141C24.2576 17.1165 24.2699 17.1042 24.2699 17.0797C24.319 16.8711 24.4662 16.9324 24.5889 17.0183C24.6257 17.0061 24.6748 16.9815 24.7116 16.9692L24.6993 16.6502L24.3803 16.1594L24.5398 16.1226C24.5398 16.1226 24.503 15.4969 24.6012 15.0183C24.6993 14.5398 25.0061 13.7423 24.9693 13.5337C24.9447 13.3128 24.6257 13.2883 24.6257 13.2883L23.9754 14.4416C23.9754 14.4416 24 14.2453 24.1227 14.0245C24.2331 13.8036 24.3681 13.2024 24.3681 13.2024L24.0245 13.5337L24.1717 13.1901L24 13.1778L23.6687 13.4846C23.6687 13.4846 23.73 13.276 23.7668 13.2269C23.8036 13.1901 24.0613 12.9938 24.2086 12.9938C24.3558 12.9938 24.4294 12.6502 24.3067 12.3435C24.184 12.0367 24.0368 11.7668 24.0368 11.7668C24.0368 11.7668 23.8895 11.865 23.7423 12.0245C23.5951 12.184 23.411 12.5153 23.411 12.5153L23.0674 13.4355ZM14.9816 22.2821L15.0429 22.1103L14.9816 21.9386L14.822 22.184L14.9816 22.2821ZM13.8405 46.5643L13.7914 46.6502L14.0245 46.8097L13.8405 46.5643ZM14.9079 21.7054C14.9079 21.7054 14.9816 21.9386 14.7484 22.1472C14.5153 22.3557 14.3558 22.3435 14.3558 22.3435C14.3558 22.3435 14.454 22.1103 14.6012 21.9263C14.7362 21.7423 14.9079 21.7054 14.9079 21.7054Z" fill="black" fill-opacity="0.5"/>
<path d="M43.7795 19.1043C36.7489 15.4478 29.9881 13.4355 29.9881 13.4355C33.1292 16.8589 35.3624 20.6625 36.6016 24.5767H36.663C37.5832 24.5767 38.6016 24.4662 39.7427 24.2331C39.9513 24.1963 40.1231 24.2944 40.2212 24.4785C40.3071 24.638 40.2949 24.8221 40.1967 24.957C36.982 29.6196 36.9452 33.4724 40.074 36.4049C40.1967 36.5153 40.2335 36.6748 40.1844 36.8098C40.1231 36.9693 39.939 37.0429 39.755 36.9938C38.9084 36.7239 38.0127 36.5644 37.1538 36.5276C36.0495 41.4601 33.3501 46.5153 29.4482 50.638C29.4482 50.638 39.4728 45.3006 44.1722 36.6257C46.2213 32.8343 47.301 27.227 47.301 21.2147C47.301 21.2147 47.0065 20.7852 43.7795 19.1043Z" fill="black" fill-opacity="0.5"/>
<path d="M31.4846 48.2821C27.7423 45.0183 24.6994 37.9386 24.6994 31.7177C24.6994 31.3987 24.7116 31.0674 24.7239 30.7484C23.8282 29.9631 22.6748 29.3496 21.2883 28.8956C21.0797 28.822 20.9447 28.6625 20.957 28.4785C20.9693 28.2944 21.1288 28.1472 21.3374 28.1104C22.8221 27.8772 24.1227 27.4232 25.2515 26.7484C26.2576 22.1104 28.5767 17.7545 31.5582 15.2883C31.4355 15.1288 31.3006 14.9693 31.1779 14.822C30.1717 15.1042 25.7423 16.3803 20.8466 18.5521C17.2883 20.1226 15.4355 21.2269 15.4355 21.2269C15.4355 27.2392 16.503 32.8588 18.5521 36.638C22.503 43.9263 29.1288 47.8404 31.0674 48.7975C31.2147 48.6257 31.3497 48.4539 31.4846 48.2821Z" fill="black" fill-opacity="0.5"/>
<path d="M39.1903 36.2823C36.4418 33.2761 36.6013 29.3252 39.6565 24.8099C38.5522 25.0185 37.5706 25.1289 36.6626 25.1289C33.5706 25.1289 31.4602 23.9019 30.0246 21.2761C28.724 25.3129 26.0123 27.7669 21.9387 28.5522C24.3804 29.4479 26.0737 30.8958 26.8835 32.7731C27.632 34.5031 27.5706 36.5645 26.724 38.4786C27.632 38.5154 28.7117 38.7853 29.7547 39.043C30.5399 39.2393 31.362 39.4356 32.0737 39.5338C31.9142 38.8344 32.0492 38.1841 32.4541 37.6197C33.1903 36.6013 34.8099 35.9878 36.7608 35.9878C37.5584 35.9878 38.3804 36.0859 39.1903 36.2823Z" fill="black" fill-opacity="0.5"/>
</svg>