<svg xmlns="http://www.w3.org/2000/svg" width="80" height="80" viewBox="0 0 80 80" fill="none">
  <path d="M64.9324 51.0184C65.0306 51.0307 65.1287 51.0307 65.1901 51.0675V51.0552C65.141 51.0184 65.0674 50.9571 64.9815 50.8712L64.4661 50.3436L64.1839 50.9571L64.9324 51.0184ZM65.0183 32.0859C65.1287 32.4785 65.4723 32.7976 66.1349 32.6135C66.6747 32.4663 66.9447 32.135 66.8097 31.6442L66.6993 31.2638L65.0183 31.7301C64.9324 31.7546 64.9201 31.8037 64.9447 31.8528L65.0183 32.0859ZM18.4171 23.0061L18.5643 22.8221C18.8097 22.5031 18.8833 22.0368 18.3434 21.6074C17.914 21.2638 17.4846 21.227 17.1655 21.6319L16.9201 21.9387L18.2821 23.0307C18.3312 23.0798 18.3803 23.0552 18.4171 23.0061ZM66.8588 41.7914C66.1103 41.7055 65.8526 41.9877 65.8158 42.319C65.779 42.638 65.9631 42.9816 66.7115 43.0552C67.4723 43.1411 67.7299 42.8466 67.7668 42.5276C67.8036 42.2331 67.6318 41.8773 66.8588 41.7914ZM68.0244 40.7853L68.0612 39.1779H67.9999L67.9263 39.3865C67.914 39.4356 67.8895 39.4356 67.8036 39.4356L66.098 39.3988C66.0244 39.3988 65.9999 39.3865 65.9876 39.3497L65.9263 39.1411H65.8772L65.8526 40.1473H65.9017L65.9753 39.8773C65.9876 39.8405 66.0244 39.8282 66.098 39.8282L66.8588 39.8405L66.8465 40.4049C66.8465 40.4785 66.8342 40.5031 66.7974 40.5154L66.5888 40.5767V40.6626L67.2269 40.6749V40.589L67.0428 40.5154C67.006 40.5031 67.006 40.4785 67.006 40.4049L67.0183 39.8405L67.8526 39.8528L67.8404 40.4908C67.8404 40.5767 67.8036 40.6135 67.7668 40.6258L67.5582 40.6749V40.773L68.0244 40.7853ZM66.9079 41.3252C66.1594 41.2393 65.7299 41.6442 65.6563 42.2945C65.5827 42.908 65.9999 43.4479 66.6625 43.5215C67.46 43.6074 67.8649 43.1534 67.9263 42.5522C67.9999 41.9877 67.6195 41.4111 66.9079 41.3252ZM67.6563 44.2454L67.6072 44.2331L67.4968 44.4172C67.4723 44.454 67.4477 44.454 67.3741 44.4417L65.7054 44.0982C65.6318 44.0859 65.6073 44.0736 65.595 44.0368L65.5704 43.816L65.5214 43.8037L65.325 44.7239L65.3741 44.7362L65.4845 44.5522C65.5091 44.5154 65.5336 44.5153 65.6072 44.5276L67.3618 44.8957L67.3373 45.043C67.276 45.3374 67.1533 45.5338 66.7852 45.4601C66.4539 45.3865 66.368 45.1411 66.4293 44.8712L66.4416 44.7853L65.1901 45.3374L65.0674 45.9141L65.1164 45.9264L65.1901 45.8528C65.2269 45.816 65.2637 45.7914 65.3128 45.7669L66.2944 45.3006C66.2944 45.5828 66.4048 45.8773 66.7361 45.9387C67.1655 46.0246 67.3373 45.6565 67.4232 45.2638L67.6563 44.2454ZM67.0674 46.9571L67.0183 46.9325L66.8833 47.1166C66.8588 47.1534 66.822 47.1534 66.7606 47.1288L65.1533 46.6012C65.0796 46.5767 65.0551 46.5644 65.0551 46.5154V46.2945L65.006 46.2822L64.7606 47.0184L64.8097 47.0307L64.9447 46.8344C64.9692 46.7976 65.006 46.7976 65.0796 46.8221L66.2821 47.2147C66.4293 47.2638 66.4907 47.2884 66.5398 47.3006V47.3129C66.4539 47.3006 66.368 47.3129 66.2698 47.3129L64.6379 47.4111L64.5766 47.6074L65.8404 48.6626C65.9508 48.7607 66.0367 48.8221 66.0735 48.8466V48.8589C65.9999 48.8344 65.9017 48.7976 65.8158 48.773L64.5766 48.3681C64.5029 48.3436 64.4784 48.3313 64.4784 48.2822V48.0982L64.4293 48.0859L64.1349 48.9693L64.1839 48.9816L64.3066 48.8098C64.3312 48.773 64.368 48.773 64.4293 48.7976L66.049 49.3252C66.1226 49.3497 66.1471 49.362 66.1471 49.4111V49.6319L66.1962 49.6442L66.4293 48.9203L65.2637 47.9387C65.1655 47.865 65.1042 47.8037 65.0183 47.7546V47.7423C65.1165 47.7546 65.1901 47.7546 65.325 47.7546L66.8342 47.681L67.0674 46.9571ZM65.5704 51.1779L64.098 49.6196C64.049 49.5706 64.0367 49.5338 64.0244 49.4847L64.0122 49.362L63.9631 49.3374L63.6809 49.9632L63.7299 49.9877L63.8772 49.8405C63.914 49.8037 63.9508 49.7914 63.9999 49.8528L64.3557 50.2209L64.0244 50.9448L63.5214 50.8957C63.4477 50.8834 63.4232 50.8589 63.4355 50.8098L63.46 50.6012L63.4109 50.5767L63.0306 51.3988L63.0796 51.4233L63.1778 51.3497C63.2146 51.3252 63.2391 51.3129 63.3128 51.3129L65.4355 51.4601L65.5704 51.1779ZM64.8465 52.589L64.3925 52.3313L64.3434 52.4172L64.552 52.6135C64.5888 52.6503 64.5888 52.6994 64.552 52.7607L64.3312 53.1534L62.7852 52.2822C62.7238 52.2454 62.6993 52.2209 62.7115 52.1841L62.7606 51.9509L62.7115 51.9264L62.233 52.773L62.2821 52.7976L62.4539 52.638C62.4907 52.6012 62.5152 52.6135 62.5766 52.6503L64.1226 53.5215L63.9017 53.9141C63.8649 53.9877 63.8158 54.0123 63.7668 53.9877L63.4968 53.9141L63.4477 54L63.9017 54.2577L64.8465 52.589ZM63.5582 54.7976L63.5091 54.773L63.3373 54.908C63.3005 54.9325 63.276 54.9325 63.2146 54.8834L61.7913 53.9387C61.7299 53.9019 61.7054 53.8773 61.7177 53.8282L61.779 53.6196L61.7422 53.5951L61.2146 54.3804L61.2514 54.4049L61.4232 54.2699C61.46 54.2454 61.4846 54.2577 61.5459 54.2945L62.9692 55.2393C63.0306 55.2761 63.0551 55.3006 63.0428 55.3374L62.9815 55.546L63.0306 55.5706L63.5582 54.7976ZM61.8526 55.3988C61.2637 54.9325 60.687 55.0552 60.2821 55.5706C59.9017 56.0614 59.9753 56.7362 60.503 57.1411C61.141 57.6319 61.7177 57.4479 62.0858 56.9816C62.4416 56.5153 62.4171 55.8282 61.8526 55.3988ZM61.006 58.2331L60.9692 58.1963L60.7361 58.3436C60.6993 58.3681 60.6747 58.3436 60.6134 58.2945L59.3864 57.1288C59.3373 57.0798 59.3128 57.0552 59.3373 57.0184L59.4232 56.8221L59.3864 56.7853L58.822 57.3742L58.8588 57.4111L59.0919 57.2638C59.1287 57.2393 59.1533 57.2515 59.2146 57.3006L60.1103 58.1595C60.1717 58.2209 60.233 58.27 60.2698 58.3068L60.2576 58.319C60.1962 58.2945 60.1103 58.2822 60.0367 58.2699L58.1226 58.0614L57.9508 58.2454L59.3864 59.6074C59.4355 59.6565 59.46 59.681 59.4355 59.7178L59.3373 59.9141L59.3741 59.9509L59.9385 59.362L59.9017 59.3252L59.6686 59.4724C59.6318 59.4969 59.6073 59.4847 59.5582 59.4356L58.7729 58.6994C58.6993 58.6258 58.6134 58.5522 58.5766 58.5276L58.5888 58.5153C58.6502 58.5522 58.7852 58.5644 58.871 58.5767L60.5152 58.773L61.006 58.2331ZM64.0858 39.3865C64.0858 25.7669 53.0428 14.7117 39.4109 14.7117C25.7913 14.7117 14.7361 25.7546 14.7361 39.3865C14.7361 53.0184 25.7913 64.0491 39.4109 64.0491C53.0428 64.0491 64.0858 53.0061 64.0858 39.3865ZM54.2207 62.6871C54.0735 62.454 53.8281 62.3681 53.5704 62.5276C53.2882 62.6994 53.2391 63.0184 53.3741 63.2515C53.5214 63.4847 53.779 63.546 54.0367 63.3865C54.3189 63.227 54.368 62.9325 54.2207 62.6871ZM47.3864 67.3988L47.3741 67.3252L47.0919 67.3129C47.0306 67.3129 47.0183 67.2761 46.9937 67.1779L46.4171 64.9939C46.3925 64.8957 46.3925 64.8589 46.4416 64.8221L46.687 64.6626L46.6625 64.589L45.46 64.908L45.4845 64.9816L45.7668 65.0061C45.8281 65.0061 45.8404 65.043 45.8649 65.1411L46.4416 67.3252C46.4661 67.4233 46.4661 67.4601 46.4171 67.4969L46.1717 67.6565L46.1839 67.7178L47.3864 67.3988ZM44.8588 67.092C44.7974 66.6871 44.4784 66.5031 44.1103 66.3927L43.8281 66.3068C43.5459 66.2209 43.3005 66.1472 43.2514 65.8773C43.2023 65.5951 43.46 65.4356 43.6809 65.4111C43.8281 65.3865 43.9631 65.3988 44.0858 65.4356C44.1717 65.4601 44.2085 65.4969 44.2453 65.5706L44.3557 65.8282L44.4907 65.8037L44.3925 65.1902C44.1226 65.1166 43.8036 65.1534 43.6563 65.1779C43.1165 65.2638 42.7361 65.6687 42.8097 66.1718C42.8711 66.5767 43.2023 66.7239 43.5582 66.8344L43.8404 66.9203C44.0735 66.9939 44.3434 67.092 44.3925 67.3742C44.4416 67.6933 44.1962 67.9018 43.914 67.9509C43.7545 67.9755 43.5704 67.9632 43.46 67.9141C43.3619 67.8773 43.3373 67.8405 43.3005 67.7669L43.1778 67.4724L43.0306 67.4969L43.141 68.1595C43.3496 68.2209 43.6441 68.2331 43.8895 68.1841C44.4661 68.135 44.9569 67.7423 44.8588 67.092ZM41.7545 67.5215C41.7299 67.1043 41.4355 66.8957 41.0919 66.7485L40.822 66.638C40.552 66.5276 40.3189 66.4172 40.3066 66.1595C40.2944 65.8773 40.552 65.7546 40.7852 65.7423C40.9324 65.7301 41.0674 65.7546 41.1778 65.8037C41.2514 65.8405 41.2882 65.8896 41.3128 65.9632L41.3987 66.2331L41.5459 66.2209L41.5214 65.6074C41.2637 65.5092 40.9324 65.5092 40.7974 65.5215C40.2453 65.546 39.8281 65.9018 39.8526 66.4172C39.8772 66.8221 40.1839 67.0184 40.5152 67.1534L40.7852 67.2638C41.006 67.362 41.2637 67.4847 41.276 67.7792C41.2882 68.1104 41.0306 68.2945 40.7361 68.3068C40.5766 68.319 40.3925 68.2822 40.2944 68.2209C40.2085 68.1718 40.1839 68.135 40.1471 68.0614L40.0612 67.7546L39.914 67.7669L39.9508 68.4417C40.1471 68.5276 40.4539 68.5644 40.6993 68.5522C41.2514 68.5154 41.779 68.1718 41.7545 67.5215ZM38.8588 65.6442L37.779 65.5583L37.7668 65.6319L38.1103 65.7546C38.1717 65.7669 38.1717 65.816 38.1594 65.9141L38.049 67.3374C38.0367 67.4847 38.0367 67.6196 38.0244 67.681H38.0122C37.9999 67.5951 37.9017 67.4233 37.8404 67.3374L36.6747 65.4724L35.7177 65.3988L35.7054 65.4847L36.049 65.6074C36.1103 65.6319 36.1103 65.6687 36.098 65.7669L35.914 68C35.9017 68.0982 35.9017 68.135 35.8404 68.1472L35.5582 68.2209V68.2945L36.6379 68.3804V68.3068L36.2944 68.1841C36.233 68.1595 36.233 68.1227 36.233 68.0245L36.3557 66.3927C36.368 66.2822 36.368 66.1718 36.368 66.1104H36.3925C36.4048 66.1963 36.4661 66.2945 36.5275 66.3804L37.9017 68.5276L38.233 68.5522L38.4416 65.9509C38.4539 65.8528 38.4539 65.816 38.5152 65.8037L38.7974 65.7423L38.8588 65.6442ZM34.3066 68.0245L34.1839 67.9141C34.1349 67.865 34.1226 67.8405 34.1103 67.7423L33.7422 64.9448L33.3373 64.8466L31.7054 67.1779C31.6441 67.2515 31.6072 67.2884 31.5459 67.3006L31.3864 67.3497L31.3741 67.4111L32.2576 67.6196L32.2698 67.5583L32.0244 67.4111C31.9753 67.3865 31.9508 67.3374 32.0122 67.2515L32.3925 66.6871L33.4232 66.9203L33.4968 67.5951C33.5091 67.6933 33.4723 67.7301 33.4109 67.7301L33.1287 67.7546L33.1165 67.816L34.2821 68.0859L34.3066 68.0245ZM25.325 62.5767C25.0428 62.4049 24.7361 62.5031 24.5888 62.7362C24.4416 62.9693 24.5152 63.2393 24.7729 63.3865C25.0551 63.5583 25.3496 63.4601 25.4845 63.227C25.6318 62.9939 25.5827 62.7362 25.325 62.5767ZM20.8588 58.2822L20.3925 57.7792L20.3557 57.816L20.4416 58.0123C20.4661 58.0491 20.4539 58.0859 20.3925 58.1227L19.914 58.319L19.3619 57.7301L19.595 57.2761C19.6318 57.2025 19.6686 57.2025 19.7054 57.227L19.8895 57.3252L19.9263 57.2884L19.3128 56.6258L19.276 56.6626L19.3005 56.7853C19.3128 56.8344 19.3128 56.8589 19.276 56.9325L18.3312 58.8466L18.5398 59.0798L20.5398 58.3068C20.6134 58.2822 20.6379 58.2822 20.687 58.2945L20.8097 58.3313L20.8588 58.2822ZM18.3189 57.1288C18.8833 56.6871 18.9569 56.0982 18.503 55.5092C18.3189 55.2761 18.1103 55.0675 17.8649 54.8957L17.3496 55.2884C17.2882 55.3374 17.2637 55.3497 17.2269 55.3252L17.0428 55.2025L16.9938 55.2393L17.6195 56.0491L17.6686 56.0123L17.5459 55.7423C17.5336 55.7055 17.5459 55.681 17.6072 55.6319L18.0244 55.3129C18.1226 55.362 18.2207 55.4356 18.3189 55.5583C18.6625 56 18.4293 56.4417 17.9753 56.7853C17.5582 57.1043 17.0919 57.1534 16.7484 56.7117C16.6257 56.5644 16.5643 56.4172 16.5398 56.27C16.5275 56.2086 16.5275 56.1718 16.5643 56.1227L16.6747 55.9632L16.6134 55.8773L16.2453 56.1595C16.3189 56.3927 16.4661 56.6135 16.6134 56.8221C17.0551 57.3865 17.7299 57.5828 18.3189 57.1288ZM15.8158 55.1902L17.2514 54.2699C17.3128 54.2331 17.3373 54.2209 17.3741 54.2454L17.5459 54.3804L17.595 54.3558L16.7115 52.9816L16.2821 53.1534L16.3189 53.2515L16.5888 53.227C16.6379 53.227 16.687 53.2393 16.7238 53.3006L17.0306 53.7792C17.0674 53.8282 17.0674 53.8773 17.006 53.9264L16.3189 54.3558L16.0244 53.9019C15.9876 53.8405 15.9753 53.816 15.9999 53.7792L16.1103 53.6319L16.0612 53.5706L15.5459 53.9019L15.5827 53.9632L15.7668 53.9264C15.8158 53.9141 15.8281 53.9387 15.8649 54L16.1594 54.454L15.5091 54.8712L15.1778 54.3558C15.141 54.2945 15.141 54.2454 15.1655 54.1963L15.2882 54.0491L15.2392 53.9632L14.8833 54.1963L15.7422 55.5338L15.7913 55.5092L15.7422 55.3006C15.7299 55.2515 15.7422 55.2393 15.8158 55.1902ZM14.5888 53.1902L16.0858 52.4172C16.1471 52.3804 16.1717 52.3804 16.2085 52.4049L16.368 52.5522L16.4171 52.5276L16.049 51.8037L15.9999 51.8282L16.049 52.0982C16.0612 52.1473 16.0367 52.1595 15.9753 52.1963L14.8711 52.7607C14.7974 52.7976 14.7238 52.8466 14.687 52.8589L14.6747 52.8466C14.7238 52.8098 14.7606 52.7239 14.7974 52.6503L15.6195 50.908L15.5091 50.6871L13.7545 51.5951C13.6931 51.6319 13.6686 51.6442 13.6318 51.6074L13.4723 51.4601L13.4232 51.4847L13.8036 52.2086L13.8526 52.1841L13.7913 51.9141C13.779 51.865 13.8036 51.8528 13.8649 51.816L14.822 51.3252C14.9201 51.2761 15.0183 51.227 15.0551 51.2025L15.0674 51.2147C15.0183 51.2638 14.9447 51.3865 14.9201 51.4601L14.1962 52.9448L14.5275 53.5828L14.5766 53.5583L14.5152 53.2884C14.503 53.2393 14.5275 53.2147 14.5888 53.1902ZM14.1962 50.5399C14.822 50.2945 15.0674 49.6933 14.822 49.0675C14.7115 48.7976 14.5275 48.589 14.3066 48.4417L14.2207 48.5399C14.3434 48.6381 14.4661 48.773 14.5398 48.9571C14.7484 49.4847 14.4416 49.9141 13.9631 50.1104C13.5459 50.2822 13.0428 50.2945 12.8465 49.8037C12.8097 49.6933 12.7852 49.5828 12.7852 49.4601C12.7974 49.3865 12.822 49.3497 12.8711 49.3129L13.0674 49.1657L13.0306 49.0552L12.552 49.2515C12.552 49.4233 12.5888 49.6319 12.687 49.865C12.9447 50.5031 13.5214 50.8098 14.1962 50.5399ZM12.4416 48.2945L14.0735 47.7914C14.1471 47.7669 14.1717 47.7669 14.1962 47.8037L14.3189 47.9877L14.368 47.9755L13.8895 46.4172L13.4232 46.4663L13.4355 46.5644L13.6931 46.6135C13.7422 46.6258 13.779 46.6503 13.8036 46.7117L13.9753 47.2638C13.9876 47.3252 13.9876 47.362 13.9017 47.3865L13.1533 47.6196L12.9938 47.1043C12.9692 47.0307 12.9692 47.0061 13.006 46.9816L13.1533 46.8712L13.1287 46.7976L12.5398 46.9816L12.5643 47.0552L12.7484 47.0675C12.7974 47.0675 12.8097 47.092 12.822 47.1657L12.9815 47.681L12.233 47.9141L12.049 47.3252C12.0244 47.2515 12.0367 47.2025 12.0858 47.1779L12.233 47.0675L12.2085 46.9693L11.8036 47.092L12.2698 48.6135L12.3189 48.6012L12.3312 48.3926C12.3434 48.3313 12.3557 48.319 12.4416 48.2945ZM11.5214 44.7485L13.1901 44.4785C13.2637 44.4663 13.2882 44.4663 13.3128 44.5153L13.4109 44.6994L13.46 44.6871L13.3373 43.8773L13.2882 43.8896L13.2514 44.1718C13.2514 44.2209 13.2269 44.2331 13.141 44.2454L11.914 44.4417C11.8281 44.454 11.7545 44.4663 11.7054 44.4785V44.4663C11.7668 44.4417 11.8281 44.3804 11.8772 44.319L13.2023 42.9325L13.1655 42.6871L11.2146 42.9939C11.141 43.0061 11.1165 43.0061 11.0919 42.9693L10.9938 42.773L10.9324 42.7853L11.0674 43.5951L11.1287 43.5828L11.1533 43.3006C11.1533 43.2515 11.1778 43.2515 11.2514 43.2393L12.3066 43.0675C12.4171 43.0552 12.5152 43.0307 12.5643 43.0184V43.0307C12.503 43.0552 12.3925 43.1534 12.3434 43.2147L11.1901 44.3926L11.3005 45.1043L11.3619 45.092L11.3864 44.8098C11.4232 44.773 11.4477 44.7607 11.5214 44.7485ZM10.7852 41.2761L12.822 41.9509C12.8956 41.9755 12.9201 42 12.9447 42.0368L13.0183 42.135H13.0674L13.0306 41.4479H12.9815L12.9201 41.6565C12.9079 41.7055 12.8833 41.7301 12.8097 41.7055L12.3189 41.546L12.2698 40.7485L12.7361 40.5522C12.8097 40.5276 12.8342 40.5399 12.8465 40.589L12.9201 40.7853H12.9692L12.9201 39.8896H12.8711L12.8097 40C12.7852 40.0491 12.7729 40.0614 12.6993 40.0982L10.7484 40.9693L10.7852 41.2761ZM10.7606 39.6933L11.2882 39.7055V39.6074L11.0183 39.5338C10.9692 39.5215 10.9447 39.4847 10.9447 39.3988L10.9569 38.9448L12.7238 38.9816C12.7974 38.9816 12.822 38.9939 12.8342 39.0307L12.8956 39.2515H12.9447L12.9692 38.2822H12.9201L12.8465 38.5031C12.8342 38.5522 12.8097 38.5522 12.7361 38.5522L10.9569 38.5153L10.9692 38.0736C10.9692 37.9877 11.006 37.9509 11.0428 37.9387L11.325 37.8773V37.7792L10.7974 37.7669L10.7606 39.6933ZM10.8588 37.1411H10.9079L10.9938 36.9448C11.006 36.908 11.0306 36.908 11.1165 36.908L12.8097 37.0675C12.8833 37.0798 12.9079 37.0798 12.9201 37.1288L12.9692 37.3374H13.0183L13.1042 36.3927H13.0551L12.9692 36.589C12.9569 36.6258 12.9201 36.638 12.8465 36.6258L11.1533 36.4663C11.0796 36.454 11.0551 36.454 11.0428 36.4049L10.9938 36.1963H10.9324L10.8588 37.1411ZM12.0735 35.8037C12.8097 35.9264 13.2637 35.5583 13.3741 34.908C13.4723 34.2945 13.0919 33.7423 12.4416 33.6319C11.6563 33.4969 11.2269 33.9264 11.1287 34.5276C11.0306 35.092 11.3864 35.6933 12.0735 35.8037ZM11.4846 32.8957L11.5459 32.908L11.6931 32.6749C11.7177 32.6381 11.7422 32.638 11.8158 32.6626L13.4477 33.1166C13.5214 33.1411 13.5459 33.1534 13.5459 33.1902L13.5582 33.3988L13.6072 33.4111L13.8281 32.6258L13.779 32.6135L13.6318 32.8466C13.6072 32.8834 13.5827 32.8834 13.5091 32.8712L12.3189 32.5399C12.233 32.5153 12.1594 32.5031 12.1103 32.4908V32.4785C12.1717 32.4785 12.2576 32.454 12.3312 32.4172L14.1103 31.7055L14.1839 31.4601L12.2821 30.9325C12.2085 30.908 12.1839 30.908 12.1839 30.8589L12.1717 30.638L12.1226 30.6258L11.9017 31.4111L11.9508 31.4233L12.098 31.1902C12.1226 31.1534 12.1471 31.1534 12.2207 31.1779L13.2637 31.4601C13.3619 31.4847 13.4723 31.5092 13.5091 31.5215V31.5338C13.4355 31.5338 13.3005 31.5828 13.2392 31.6074L11.6931 32.2086L11.4846 32.8957ZM12.5888 29.2025L14.1594 30.6626C14.2085 30.7117 14.233 30.7485 14.233 30.7976L14.2576 30.9203L14.3066 30.9448L14.552 30.3068L14.503 30.2822L14.368 30.4417C14.3434 30.4785 14.3066 30.4908 14.2453 30.4417L13.8649 30.0982L14.1471 29.3497L14.6502 29.362C14.7238 29.362 14.7484 29.3865 14.7361 29.4356L14.7238 29.6442L14.7729 29.6565L15.0919 28.8221L15.0428 28.7976L14.9447 28.8712C14.9079 28.908 14.8833 28.908 14.8097 28.908L12.6747 28.8834L12.5888 29.2025ZM13.3496 27.4847L13.3987 27.5092L13.5459 27.3497C13.5704 27.3129 13.595 27.3252 13.6686 27.362L15.2023 28.1104C15.2637 28.1473 15.2882 28.1595 15.2882 28.1963L15.2514 28.4172L15.3005 28.4417L16.0122 27.0061L15.5827 26.6994L15.5214 26.773L15.7299 27.0307C15.7545 27.0675 15.7668 27.1166 15.7422 27.1779L15.5091 27.6442C15.4846 27.6933 15.4477 27.7301 15.3741 27.6933L13.8772 26.9571C13.8036 26.9203 13.779 26.908 13.7913 26.8589L13.8404 26.6012L13.7913 26.5767L13.3496 27.4847ZM14.3803 25.4479L14.4293 25.4724L14.5888 25.3252C14.6257 25.2884 14.6502 25.3006 14.7115 25.3497L16.1717 26.2209C16.233 26.2577 16.2576 26.27 16.2453 26.319L16.1962 26.5276L16.2453 26.5522L17.0796 25.1411L16.7238 24.8344L16.6502 24.908L16.7852 25.1411C16.8097 25.1779 16.822 25.227 16.7852 25.2884L16.4907 25.7792C16.4661 25.8282 16.4171 25.8528 16.3557 25.816L15.6809 25.4111L15.9631 24.9448C15.9999 24.8834 16.0244 24.8589 16.0612 24.8712L16.2453 24.908L16.2821 24.8344L15.7545 24.5154L15.7177 24.589L15.8281 24.7362C15.8526 24.773 15.8404 24.7976 15.8036 24.8589L15.5214 25.3252L14.8588 24.9203L15.1778 24.3927C15.2146 24.319 15.2637 24.3068 15.3128 24.319L15.4968 24.3558L15.5459 24.27L15.1901 24.0491L14.3803 25.4479ZM16.3557 22.3681L16.3925 22.4049L16.5766 22.2945C16.6134 22.27 16.6379 22.2822 16.6993 22.3313L18.0244 23.3988C18.0858 23.4479 18.098 23.4601 18.0858 23.5092L18.0122 23.7178L18.049 23.7546L18.7115 22.9203C19.1778 22.3436 19.1533 21.6442 18.6134 21.227C18.0244 20.7485 17.4968 20.9693 17.0674 21.4969L16.3557 22.3681ZM18.2085 20.1227L18.2453 20.1595L18.4293 20.0614C18.4661 20.0368 18.4907 20.0491 18.552 20.1104L19.779 21.2884C19.8281 21.3374 19.8526 21.362 19.8281 21.3988L19.7299 21.5951L19.7668 21.6319L20.9079 20.454L20.6379 20.0736L20.552 20.1227L20.6379 20.3804C20.6502 20.4295 20.6502 20.4785 20.6011 20.5276L20.2085 20.9448C20.1717 20.9816 20.1226 21.0061 20.0612 20.9448L19.4968 20.3927L19.8772 20C19.9263 19.9509 19.9508 19.9264 19.9876 19.9509L20.1594 20.0246L20.2207 19.9632L19.779 19.5338L19.7177 19.5951L19.8036 19.7669C19.8281 19.8037 19.8036 19.8282 19.7545 19.8773L19.3741 20.27L18.8097 19.7301L19.2392 19.2884C19.3005 19.227 19.3373 19.227 19.3864 19.2515L19.5582 19.3374L19.6318 19.2638L19.325 18.9693L18.2085 20.1227ZM20.822 17.5828L20.8588 17.6196L21.0674 17.546C21.1042 17.5338 21.1287 17.546 21.1778 17.6074L22.2453 18.9325C22.2944 18.9939 22.3066 19.0061 22.2821 19.0552L22.1594 19.2393L22.1962 19.2761L23.4355 18.2822L23.1778 17.816L23.0796 17.8528L23.1533 18.1718C23.1655 18.2209 23.1533 18.27 23.1042 18.319L22.6993 18.6503C22.6625 18.6871 22.6134 18.6994 22.552 18.6381L21.5091 17.3374C21.46 17.2761 21.4477 17.2515 21.4723 17.2147L21.6318 17.0061L21.595 16.9693L20.822 17.5828ZM23.3864 15.5951L23.8281 17.6933C23.8404 17.7669 23.8404 17.8037 23.8158 17.8405L23.7668 17.9509L23.7913 17.9877L24.368 17.6074L24.3434 17.5706L24.1471 17.6319C24.098 17.6442 24.0612 17.6319 24.049 17.5583L23.914 17.0552L24.5766 16.6135L24.9815 16.9203C25.0428 16.9693 25.0428 16.9939 25.006 17.043L24.8833 17.2147L24.9079 17.2515L25.6563 16.7485L25.6318 16.7117H25.5091C25.46 16.7117 25.4355 16.7117 25.3741 16.6626L23.6441 15.4233L23.3864 15.5951ZM26.4048 14.5276C26.5398 14.8098 26.8097 14.8344 27.0919 14.8344H27.3128C27.4845 14.8344 27.7054 14.8466 27.8158 15.043C27.9263 15.2638 27.7913 15.4724 27.595 15.5706C27.4846 15.6196 27.3496 15.6565 27.2637 15.6442C27.1901 15.6442 27.1533 15.6196 27.1165 15.5706L26.9692 15.3865L26.8711 15.4356L27.0919 15.8896C27.2514 15.8896 27.4723 15.8282 27.6441 15.7423C28.0367 15.546 28.2944 15.1534 28.0858 14.7117C27.9508 14.4295 27.6809 14.3804 27.3864 14.3804H27.1655C26.9447 14.3804 26.7484 14.3804 26.6625 14.1963C26.5643 14 26.7115 13.8405 26.8588 13.7546C26.9569 13.7055 27.0551 13.681 27.1533 13.681C27.2146 13.681 27.2514 13.7055 27.3005 13.7423L27.4355 13.9019L27.5336 13.8528L27.325 13.4356C27.1165 13.4479 26.8956 13.546 26.7974 13.5951C26.4171 13.8037 26.2207 14.1718 26.4048 14.5276ZM27.9508 13.1166L27.9753 13.1657L28.1839 13.1534C28.233 13.1534 28.2453 13.1779 28.2698 13.2393L28.9079 14.8221C28.9324 14.8957 28.9447 14.9203 28.9079 14.9448L28.7484 15.092L28.7729 15.1411L30.2944 14.5276L30.1839 14.0736L30.0858 14.0859L30.0612 14.3558C30.049 14.4049 30.0367 14.454 29.9631 14.4785L29.4355 14.6871C29.3741 14.7117 29.3373 14.7117 29.3005 14.6258L29.006 13.8896L29.5091 13.6933C29.5827 13.6687 29.6072 13.6565 29.6318 13.6933L29.7545 13.8282L29.8281 13.8037L29.595 13.2393L29.5214 13.2638V13.4601C29.5214 13.5092 29.4968 13.5215 29.4355 13.546L28.9447 13.7423L28.6502 13.0184L29.2146 12.7853C29.2882 12.7607 29.3373 12.773 29.3741 12.8098L29.4968 12.9571L29.595 12.9203L29.4355 12.5276L27.9508 13.1166ZM28.5398 12.6871L28.6257 12.7239L29.0306 12.0368C29.0674 11.9755 29.0551 11.9387 29.0428 11.8896L28.6625 12.0491L28.5398 12.6871ZM30.4539 13.3129C30.6502 13.9509 31.2269 14.2577 31.8649 14.0614C32.1471 13.9755 32.368 13.8037 32.5398 13.6074L32.4539 13.5092C32.3434 13.6196 32.1962 13.7301 31.9999 13.7914C31.46 13.9632 31.0551 13.6196 30.9079 13.1166C30.7729 12.6871 30.8097 12.1841 31.3128 12.0246C31.4232 11.9877 31.5336 11.9755 31.6686 12C31.7422 12.0123 31.779 12.0368 31.8036 12.0982L31.9385 12.3068L32.049 12.27L31.9017 11.7792C31.7299 11.7669 31.5091 11.7914 31.2882 11.8528C30.6011 12.0614 30.2453 12.6135 30.4539 13.3129ZM32.5398 11.5583L32.552 11.6074L32.7606 11.6319C32.7974 11.6319 32.822 11.6565 32.8342 11.7301L33.0674 12.8834C33.1655 13.3497 33.4355 13.6442 34.049 13.5215C34.6993 13.3865 34.7974 12.9448 34.7115 12.4785L34.4907 11.3988C34.4784 11.3252 34.4784 11.3006 34.5152 11.2761L34.6993 11.1657L34.687 11.1166L33.914 11.2761L33.9263 11.3252L34.1349 11.3497C34.1717 11.3497 34.1839 11.3742 34.2085 11.4479L34.4416 12.589C34.5152 12.9448 34.4416 13.2147 34.0858 13.2884C33.7299 13.362 33.5582 13.1043 33.4968 12.8221L33.2514 11.6319C33.2392 11.5583 33.2392 11.5338 33.276 11.5092L33.46 11.3988L33.4477 11.3497L32.5398 11.5583ZM35.3373 11.0184V11.0675L35.5459 11.1166C35.5827 11.1288 35.595 11.1534 35.6072 11.227L35.7913 12.9203C35.8036 12.9939 35.8036 13.0184 35.7545 13.043L35.5582 13.1288V13.1779L36.503 13.0798V13.0307L36.2944 12.9816C36.2576 12.9693 36.2453 12.9448 36.233 12.8712L36.049 11.0798L36.1962 11.0675C36.4907 11.0307 36.7238 11.092 36.7606 11.4601C36.7974 11.7914 36.5888 11.9509 36.3066 11.9877L36.2207 12L37.1287 13.0184L37.7054 12.9571L37.6931 12.908L37.595 12.8589C37.5459 12.8344 37.5214 12.8098 37.4723 12.7607L36.7361 11.9632C36.9938 11.8773 37.2391 11.681 37.2023 11.3497C37.1533 10.9203 36.7484 10.8589 36.3557 10.908L35.3373 11.0184ZM38.0735 10.773V10.8221L38.2821 10.8834C38.3312 10.8957 38.3312 10.9203 38.3312 10.9939L38.3803 12.6994C38.3803 12.773 38.3803 12.7976 38.3312 12.8221L38.1226 12.8957V12.9448L39.0674 12.9203V12.8712L38.8588 12.8098C38.822 12.7976 38.8097 12.773 38.8097 12.6994L38.7729 10.9939C38.7729 10.9203 38.7729 10.8957 38.822 10.8712L39.0183 10.7976V10.7362L38.0735 10.773ZM39.6072 11.2515L39.7054 11.2638L39.779 10.9939C39.7913 10.9448 39.8281 10.9203 39.914 10.9203L40.368 10.9448L40.2944 12.7117C40.2944 12.7853 40.2821 12.8098 40.2453 12.8221L40.0244 12.8834V12.9325L40.9938 12.9693V12.9203L40.7729 12.8466C40.7361 12.8344 40.7238 12.7976 40.7361 12.7239L40.8097 10.9448L41.2514 10.9693C41.3373 10.9693 41.3741 11.0061 41.3864 11.0552L41.4355 11.3374H41.5336L41.5582 10.8098L39.6318 10.7362L39.6072 11.2515ZM41.914 13.0307L43.5336 13.2393L43.6686 12.7976L43.5704 12.7607L43.4232 12.9816C43.3987 13.0184 43.3496 13.0552 43.276 13.043L42.7115 12.9693C42.6502 12.9571 42.6134 12.9448 42.6257 12.8589L42.7238 12.0736L43.2637 12.1473C43.3373 12.1595 43.3618 12.1595 43.3741 12.2086L43.4232 12.3927L43.4968 12.4049L43.5704 11.8037L43.4968 11.7914L43.4109 11.9632C43.3864 12 43.3619 12 43.2882 11.9877L42.7484 11.9141L42.8465 11.1411L43.46 11.2147C43.5336 11.227 43.5704 11.2638 43.5827 11.3129L43.6195 11.4969L43.7177 11.5092L43.7668 11.092L42.1839 10.8957L42.1717 10.9448L42.368 11.043C42.4171 11.0552 42.4171 11.092 42.4048 11.1657L42.1962 12.8589C42.1839 12.9325 42.1839 12.9571 42.1349 12.9693L41.9263 13.0061L41.914 13.0307ZM42.9079 10.773L42.9692 10.8466L43.6563 10.4417C43.7054 10.4049 43.7299 10.3681 43.7299 10.319L43.3128 10.27L42.9079 10.773ZM45.2269 13.546L46.2453 13.8282C46.9569 14.0246 47.5827 13.7178 47.7668 13.0552C47.9631 12.319 47.5582 11.9264 46.8956 11.7423L45.7913 11.4479L45.779 11.4969L45.9631 11.6196C45.9999 11.6442 45.9999 11.6687 45.9753 11.7423L45.5336 13.3742C45.5091 13.4479 45.5091 13.4724 45.46 13.4724L45.2392 13.4847L45.2269 13.546ZM47.8404 14.2822L49.3741 14.8466L49.6072 14.4417L49.5214 14.3804L49.325 14.5522C49.2882 14.589 49.2392 14.6012 49.1778 14.5767L48.6379 14.3804C48.5888 14.3558 48.552 14.3313 48.5766 14.2454L48.8465 13.5092L49.3496 13.6933C49.4232 13.7178 49.4477 13.7301 49.4477 13.7792V13.9632L49.5214 13.9877L49.7299 13.4111L49.6563 13.3865L49.5336 13.5338C49.5091 13.5706 49.4723 13.5583 49.4109 13.5338L48.9079 13.3497L49.1778 12.6258L49.7545 12.8344C49.8281 12.8589 49.8526 12.908 49.8526 12.9571L49.8404 13.1411L49.9385 13.1779L50.0858 12.7853L48.5888 12.2331L48.5643 12.2822L48.7361 12.4172C48.7729 12.4417 48.7606 12.4663 48.7361 12.5399L48.1471 14.135C48.1226 14.2086 48.1103 14.2331 48.0612 14.2331L47.8404 14.2209V14.2822ZM50.1962 14.589L49.9876 15.043C50.0858 15.1657 50.2698 15.3006 50.4416 15.3742C50.8342 15.5583 51.3128 15.5215 51.5091 15.0675C51.6441 14.7853 51.5214 14.5399 51.3373 14.319L51.2023 14.1473C51.0551 13.9755 50.9447 13.8282 51.0306 13.6442C51.1165 13.4479 51.3373 13.4601 51.4968 13.5338C51.595 13.5828 51.6809 13.6442 51.7422 13.7178C51.779 13.7669 51.7913 13.816 51.779 13.8773L51.7422 14.0859L51.8404 14.135L52.0367 13.7178C51.9017 13.5583 51.6809 13.4479 51.5827 13.3988C51.2023 13.227 50.7974 13.3129 50.6379 13.6687C50.503 13.9509 50.6502 14.1841 50.822 14.3927L50.9692 14.5644C51.0796 14.6994 51.2146 14.8834 51.1165 15.0798C51.006 15.3006 50.7729 15.3252 50.5643 15.2393C50.4539 15.1902 50.3434 15.1043 50.2944 15.0307C50.2576 14.9693 50.2453 14.9325 50.2576 14.8712L50.3066 14.6381L50.1962 14.589ZM52.822 16.4908C52.9079 16.6258 53.0796 16.7853 53.2392 16.8834C53.6073 17.1166 54.0858 17.1288 54.3434 16.7117C54.5152 16.4417 54.4171 16.1841 54.2576 15.9509L54.1349 15.7669C54.0122 15.5828 53.914 15.4111 54.0244 15.2393C54.1349 15.0552 54.3557 15.092 54.503 15.1779C54.6011 15.2393 54.6625 15.3129 54.7238 15.3865C54.7606 15.4356 54.7606 15.4847 54.7484 15.546L54.687 15.7423L54.7729 15.8037L55.0183 15.4111C54.8956 15.2393 54.6993 15.1043 54.6011 15.043C54.2453 14.8221 53.8281 14.8589 53.6318 15.1902C53.4723 15.4479 53.5827 15.7055 53.7299 15.9387L53.8526 16.1227C53.9508 16.27 54.049 16.4663 53.9385 16.6503C53.8036 16.8589 53.5704 16.8589 53.3741 16.7485C53.276 16.6871 53.1778 16.589 53.1287 16.5031C53.0919 16.4417 53.0919 16.4049 53.1165 16.3436L53.1901 16.1104L53.0919 16.0491L52.822 16.4908ZM55.006 17.8528L54.7974 17.7792L54.7729 17.816L55.5336 18.3804L55.5704 18.3436L55.4477 18.1718C55.4232 18.135 55.4355 18.1104 55.4723 18.0491L55.8649 17.5092L56.9447 17.0184C57.0183 16.9816 57.0428 16.9816 57.0919 16.9816L57.2146 16.9939L57.2514 16.9448L56.687 16.5276L56.6502 16.5644L56.7852 16.7485C56.8097 16.7853 56.8097 16.8344 56.7483 16.8589L55.9017 17.2638L56.0367 16.3313C56.049 16.27 56.0858 16.2454 56.1349 16.2577L56.3312 16.319L56.368 16.27L55.6195 15.7178L55.5827 15.7669L55.6318 15.8773C55.6441 15.9264 55.6441 15.9509 55.6441 16.0246L55.4968 17.2515L55.1165 17.7669C55.0674 17.8528 55.0551 17.865 55.006 17.8528ZM57.276 17.7546C57.0796 17.9877 57.141 18.2577 57.2514 18.5031L57.3373 18.7117C57.4109 18.8712 57.4845 19.0798 57.3373 19.2515C57.1778 19.4356 56.9324 19.3988 56.7729 19.2515C56.687 19.1779 56.6011 19.0552 56.5766 18.9816C56.552 18.908 56.5643 18.8712 56.5888 18.8221L56.6993 18.6135L56.6134 18.5399L56.2821 18.9203C56.3434 19.0675 56.4907 19.2515 56.6257 19.3742C56.9569 19.6565 57.4232 19.7546 57.7422 19.3865C57.9508 19.1534 57.9017 18.8834 57.779 18.6135L57.6931 18.4172C57.6072 18.2209 57.5336 18.0368 57.6563 17.8773C57.8036 17.7178 58.0122 17.7792 58.1348 17.9019C58.2207 17.9755 58.2821 18.0614 58.3189 18.1473C58.3434 18.2086 58.3434 18.2454 58.3189 18.3068L58.2207 18.4908L58.3066 18.5644L58.6134 18.2086C58.5275 18.0246 58.3434 17.8528 58.2698 17.7792C57.9508 17.4847 57.5336 17.4601 57.276 17.7546ZM58.7852 18.9939L58.8588 19.0675L59.1042 18.9203C59.141 18.8957 59.1901 18.908 59.2514 18.9571L59.5704 19.2761L58.3066 20.5154C58.2576 20.5644 58.233 20.5767 58.1962 20.5644L57.9876 20.454L57.9508 20.4908L58.6379 21.1902L58.6747 21.1534L58.5643 20.9448C58.5398 20.908 58.5643 20.8834 58.6134 20.8344L59.8772 19.5951L60.1839 19.9141C60.2453 19.9755 60.2453 20.0246 60.2207 20.0614L60.0735 20.3068L60.1471 20.3804L60.5152 20.0123L59.1533 18.6258L58.7852 18.9939ZM60.8833 20.5031L60.9569 20.6994C60.9815 20.7362 60.9569 20.7607 60.8956 20.8098L59.5827 21.9019C59.5214 21.9509 59.5091 21.9632 59.46 21.9387L59.276 21.8282L59.2391 21.8528L60.2821 23.1166L60.687 22.8957L60.6379 22.8098L60.3803 22.8589C60.3312 22.8712 60.2821 22.8712 60.233 22.8098L59.8649 22.3681C59.8281 22.319 59.8158 22.2822 59.8772 22.2209L60.4907 21.7178L60.8342 22.135C60.8833 22.1963 60.8956 22.2086 60.8711 22.2577L60.7852 22.4172L60.8342 22.4785L61.3005 22.0859L61.2514 22.0246L61.0674 22.0859C61.0183 22.0982 61.006 22.0859 60.9569 22.0246L60.6134 21.6074L61.2146 21.1166L61.6073 21.5828C61.6563 21.6442 61.6563 21.6933 61.6318 21.7423L61.5336 21.9019L61.595 21.9755L61.914 21.7055L60.8956 20.4785L60.8833 20.5031ZM61.6318 20.3681L61.6686 21.1657L61.7668 21.1779L61.9631 20.5522L61.6931 20.2331C61.6563 20.2577 61.6318 20.2945 61.6318 20.3681ZM62.3803 22.6503L60.9692 23.5951C60.9079 23.6319 60.8833 23.6442 60.8465 23.6196L60.6747 23.4847L60.6257 23.5092L61.0551 24.1595L61.1042 24.135L61.0306 23.9019C61.0183 23.8528 61.0428 23.8405 61.1042 23.7914L62.1594 23.0798C62.2944 22.9939 62.3434 22.9571 62.3803 22.9325L62.3925 22.9448C62.3312 23.0061 62.2821 23.0798 62.233 23.1534L61.3005 24.5031L61.4109 24.6749L63.0183 24.3313C63.1533 24.3068 63.2637 24.2822 63.3128 24.27L63.325 24.2822C63.2637 24.319 63.1655 24.3804 63.1042 24.4295L62.0122 25.1534C61.9508 25.1902 61.9263 25.2025 61.8895 25.1779L61.7177 25.043L61.6809 25.0675L62.1962 25.8405L62.2453 25.816L62.1839 25.6074C62.1717 25.5706 62.1962 25.546 62.2576 25.4969L63.6686 24.5522C63.7299 24.5154 63.7545 24.5031 63.7913 24.5276L63.9631 24.6626L64.0122 24.6381L63.595 24.0123L62.1103 24.3313C61.9876 24.3558 61.9017 24.3804 61.8281 24.4172V24.4049C61.9017 24.3436 61.9508 24.2822 62.0244 24.1718L62.8956 22.9448L62.4539 22.2945L62.4048 22.3313L62.4661 22.5522C62.4661 22.589 62.4416 22.6135 62.3803 22.6503ZM64.2453 25.5828L62.7361 26.3804C62.6747 26.4172 62.6502 26.4172 62.6134 26.3927L62.4539 26.2454L62.4048 26.27L63.1655 27.7178L63.6072 27.5828L63.5827 27.4847H63.3128C63.2637 27.4847 63.2146 27.4724 63.1778 27.4111L62.9079 26.908C62.8833 26.8589 62.871 26.8098 62.9447 26.773L63.6441 26.4049L63.9017 26.8834C63.9385 26.9448 63.9508 26.9693 63.914 27.0061L63.7913 27.1534L63.8281 27.227L64.368 26.9448L64.3312 26.8712L64.1471 26.8957C64.098 26.8957 64.0858 26.8834 64.049 26.8098L63.7913 26.3313L64.4784 25.9632L64.7606 26.5031C64.7974 26.5767 64.7852 26.6258 64.7606 26.6626L64.6257 26.7976L64.6747 26.8834L65.0428 26.6871L64.2944 25.2761L64.2453 25.3006L64.2821 25.5092C64.3312 25.5215 64.3066 25.546 64.2453 25.5828ZM64.8956 27.6319C64.6134 27.7546 64.5643 28.0246 64.552 28.2945L64.5398 28.5153C64.5275 28.6994 64.503 28.9203 64.3066 29.0061C64.0735 29.1043 63.8772 28.9693 63.7913 28.7607C63.7422 28.6503 63.7177 28.5154 63.7299 28.4295C63.7422 28.3558 63.7668 28.319 63.8036 28.2822L63.9999 28.135L63.9508 28.0368L63.4846 28.2331C63.4723 28.3927 63.5214 28.6135 63.6072 28.7853C63.779 29.1779 64.1594 29.4724 64.6134 29.2761C64.8956 29.1534 64.9692 28.8834 64.9815 28.6012L64.9938 28.3804C65.006 28.1595 65.0183 27.9632 65.2023 27.8896C65.3987 27.8037 65.5582 27.9509 65.6318 28.1104C65.6686 28.2086 65.6931 28.3068 65.6931 28.4049C65.6931 28.4663 65.6686 28.5031 65.6195 28.5399L65.46 28.6749L65.4968 28.773L65.9263 28.589C65.9263 28.3804 65.8404 28.1473 65.7913 28.0491C65.6195 27.6933 65.2514 27.4847 64.8956 27.6319ZM66.5275 30.8589L64.8833 31.3129C64.8097 31.3374 64.7852 31.3374 64.7606 31.3006L64.6379 31.1166L64.5888 31.1288L64.8711 32.1473C65.0674 32.8589 65.6563 33.2393 66.3066 33.0552C67.0428 32.8466 67.1655 32.2945 66.9815 31.6319L66.6747 30.5399L66.6256 30.5522L66.6134 30.7607C66.6257 30.8221 66.6011 30.8344 66.5275 30.8589ZM66.7361 33.5706L66.6502 33.6442C66.822 33.865 67.0796 34.0491 67.3741 33.9877C67.5214 33.9632 67.7299 33.8528 67.6931 33.7055C67.6809 33.6687 67.6563 33.6196 67.6072 33.5706L67.46 33.4356L67.4109 33.4479C67.4109 33.6074 67.2882 33.7178 67.1533 33.7423C67.006 33.7669 66.8588 33.7055 66.7361 33.5706ZM67.7913 35.5215L67.6441 34.589L67.595 34.6012L67.5582 34.8098C67.5459 34.8589 67.5336 34.8589 67.4477 34.8712L65.7668 35.1288C65.6931 35.1411 65.6686 35.1411 65.6441 35.1043L65.5459 34.908L65.4968 34.9203L65.6441 35.8528L65.6931 35.8405L65.7299 35.6196C65.7422 35.5706 65.7668 35.5706 65.8404 35.5583L67.5214 35.3006C67.595 35.2884 67.6195 35.2884 67.6441 35.3252L67.7422 35.5215H67.7913ZM67.8281 36.1595L67.779 36.4295C67.7668 36.4785 67.7422 36.4785 67.6686 36.4908L65.9876 36.6135C65.914 36.6135 65.8895 36.6135 65.8772 36.5767L65.7913 36.3804H65.7422L65.8036 37.1902H65.8526L65.914 36.9203C65.9263 36.8712 65.9508 36.8712 66.0244 36.8589L67.2637 36.773C67.3496 36.7607 67.4355 36.7607 67.4723 36.7485V36.7607C67.4109 36.7853 67.3373 36.8344 67.2882 36.8957L65.8158 38.1595L65.8281 38.4049L67.7913 38.2699C67.8649 38.2577 67.8895 38.27 67.914 38.3068L67.9999 38.5031H68.049L67.9876 37.6933H67.9385L67.8772 37.9632C67.8649 38.0123 67.8404 38.0123 67.7668 38.0246L66.6993 38.0982C66.5888 38.1104 66.4784 38.1104 66.4416 38.1227V38.1104C66.5029 38.0982 66.6134 38 66.6747 37.9509L67.9385 36.8712L67.8895 36.1595H67.8281ZM70.0858 39.3865C70.0858 56.3313 56.3557 70.0614 39.4109 70.0614C22.4661 70.0614 8.73608 56.3313 8.73608 39.3865C8.73608 22.4417 22.4661 8.71167 39.4109 8.71167C56.3557 8.71167 70.0858 22.4417 70.0858 39.3865ZM12.1594 35.3497C12.9079 35.4724 13.1655 35.2025 13.2269 34.8834C13.276 34.5644 13.1165 34.2209 12.368 34.0982C11.6072 33.9755 11.3373 34.2454 11.2882 34.5522C11.2392 34.8466 11.3864 35.2147 12.1594 35.3497ZM13.2269 29.3129C13.1287 29.3129 13.0306 29.3129 12.9569 29.2884V29.3006C13.0183 29.3252 13.0919 29.3988 13.1778 29.4724L13.7299 29.9755L13.9753 29.3374L13.2269 29.3129ZM11.4232 41.1166C11.3373 41.1534 11.2514 41.1902 11.1655 41.2025V41.2147C11.2269 41.2147 11.325 41.2515 11.4355 41.2761L12.1471 41.4969L12.1103 40.8221L11.4232 41.1166ZM24.4293 16.5031L23.8404 16.0614C23.7668 16 23.6809 15.9509 23.6441 15.8896L23.6318 15.9019C23.6563 15.9509 23.6809 16.0614 23.7054 16.1718L23.8649 16.8957L24.4293 16.5031ZM47.3005 12.9571C47.4477 12.4172 47.3128 12.0123 46.8097 11.8773L46.4293 11.7792L45.9753 13.4601C45.9508 13.546 45.9876 13.5706 46.049 13.5951L46.2821 13.6565C46.6625 13.7546 47.1164 13.6319 47.3005 12.9571ZM33.2882 65.3497H33.276C33.2514 65.4233 33.1778 65.546 33.0919 65.6687L32.5398 66.4785L33.4109 66.6749L33.3005 65.7055C33.2882 65.5828 33.276 65.4479 33.2882 65.3497ZM61.5704 55.7669C60.9692 55.3006 60.6134 55.4111 60.4171 55.6687C60.2207 55.9264 60.1962 56.3068 60.7974 56.773C61.4109 57.2393 61.7668 57.1288 61.9753 56.8834C62.1471 56.6381 62.1839 56.2454 61.5704 55.7669ZM19.276 57.8896L19.7422 58.3804L19.0551 58.6626C18.9447 58.6994 18.8588 58.7485 18.8097 58.7853L18.7974 58.773C18.8465 58.7239 18.8956 58.6381 18.9447 58.5522L19.276 57.8896Z" fill="black" fill-opacity="0.5"/>
  <path d="M27.9018 21.914C28.1349 21.6564 28.3681 21.3864 28.3681 21.3864C28.3681 21.3864 28.0981 21.5582 27.9754 21.6686C27.865 21.7791 27.7791 21.8895 27.7791 21.8895C27.7791 21.8895 27.6932 21.9018 27.6196 21.9999C27.546 22.0981 27.4724 22.1349 27.4724 22.1349L27.5337 22.2085C27.546 22.2208 27.6687 22.1717 27.9018 21.914ZM28.4417 21.1165C28.4417 21.1165 28.3681 21.1533 28.3435 21.1533H28.319C28.319 21.1533 28.1963 21.2146 28.1227 21.276C28.049 21.3496 28.049 21.4232 28.049 21.4232C28.049 21.4232 27.9754 21.4478 27.9141 21.5459C27.8527 21.6441 27.7055 21.7791 27.7055 21.7791L27.6319 21.73L27.4233 21.9386C27.4233 21.9386 27.4478 21.9631 27.4478 22.0122V22.0613C27.4478 22.0613 27.7546 21.8159 27.9632 21.6564C28.1717 21.4969 28.4417 21.2883 28.4417 21.2883C28.4417 21.2883 28.4294 21.2637 28.5398 21.1656C28.6625 21.0674 29.0429 20.7116 29.0429 20.7116L29.0674 20.6257C29.0674 20.6257 28.7607 20.822 28.6257 20.9324C28.5153 21.0061 28.4417 21.1165 28.4417 21.1165ZM28.3803 20.9202C28.4908 20.822 28.7116 20.6625 28.7116 20.6625C28.7116 20.6625 28.5276 20.6134 28.4171 20.7361C28.2944 20.8588 28.1717 21.0306 28.1717 21.0306C28.1717 21.0306 28.2699 21.0183 28.3803 20.9202ZM27.8405 21.0919C27.8405 21.0919 27.7178 21.1656 27.6073 21.2515C27.4969 21.3373 27.4355 21.4355 27.4355 21.4355V21.5091L27.6932 21.3251C27.6932 21.3251 27.7178 21.3128 27.7668 21.2637C27.8282 21.2146 27.9141 21.2269 27.9141 21.2269L28.0122 21.141C28.0122 21.141 28.0245 21.1165 28.049 21.0183C28.0736 20.9324 28.1963 20.822 28.1963 20.822C28.1963 20.822 28.049 20.8956 27.9754 20.957C27.8773 21.0183 27.8405 21.0919 27.8405 21.0919ZM19.2883 51.8281C19.3128 51.914 19.5705 52.2208 19.5705 52.2208L19.7178 52.2576C19.7178 52.2576 19.6441 52.1349 19.546 52.0245C19.4355 51.914 19.2883 51.8281 19.2883 51.8281ZM27.0306 21.3128L26.6748 21.595C26.6748 21.595 26.9325 21.5214 27.1288 21.411C27.3251 21.2883 27.3865 21.2024 27.4601 21.1778C27.5337 21.1533 27.5705 21.1533 27.5705 21.1533L27.9263 20.8956C27.9263 20.8956 27.865 20.9202 27.8527 20.8956C27.8405 20.8588 27.8282 20.8465 27.8282 20.8465C27.8282 20.8465 27.5337 20.9815 27.3619 21.0429C27.2024 21.0919 27.092 21.0919 26.9202 21.2024C26.7484 21.3128 26.7116 21.3619 26.6257 21.4478C26.5398 21.5337 26.4908 21.5827 26.4908 21.5827L26.6748 21.5214L27.0306 21.3128ZM27.3742 22.4171C27.411 22.3067 27.3987 22.184 27.1656 22.4539L27.1165 22.6748L27.2392 22.6011C27.2392 22.6011 27.3251 22.5153 27.3742 22.4171ZM23.411 25.1165C23.411 25.1656 23.3497 25.276 23.1779 25.5214C23.0061 25.7668 22.8098 26.0858 22.8098 26.0858C22.8098 26.0858 22.9202 26.0122 23.0552 25.9263C23.1901 25.8404 23.276 25.865 23.276 25.865C23.276 25.865 23.3128 25.8036 23.3742 25.7177C23.4355 25.6318 23.5951 25.5705 23.8527 25.2883C24.1104 25.0061 23.9141 25.0306 23.9141 25.0306C23.9141 25.0306 24 24.9692 24.1717 24.8711C24.3435 24.7729 24.5644 24.5398 24.5644 24.5398C24.5644 24.5398 24.3313 24.4171 24.5767 24.4416C24.7239 24.4539 24.7116 24.3067 24.7116 24.3067L24.503 24.2821C24.3067 24.2576 24.1963 24.4416 24.1963 24.4416C24.1963 24.4416 24.1227 24.5643 24 24.7238C23.8895 24.8834 23.6564 25.0429 23.6564 25.0429L23.9386 24.6502C23.9386 24.6502 23.9509 24.5766 23.7914 24.6993C23.6319 24.8343 23.411 25.0797 23.411 25.1165ZM24.0981 24.1103C24 24.2208 23.7791 24.4784 23.7791 24.4784C23.7791 24.4784 24.0122 24.3803 24.1595 24.2699C24.3067 24.1472 24.4171 23.9754 24.4171 23.9754C24.4171 23.9754 24.3803 23.9386 24.4171 23.8404L24.2208 23.9386C24.2208 23.9263 24.1963 23.9999 24.0981 24.1103ZM19.3619 51.3987L19.3374 51.2637L19.2515 51.2269C19.1779 51.1901 19.0306 50.9815 19.0306 50.9815L18.6871 50.5275L18.6012 50.4662C18.5153 50.4048 18.0736 49.7791 18.0736 49.7791C17.9754 49.6686 17.8527 49.6564 17.8527 49.6564L17.8895 49.8772L18.0245 49.9386C18.0245 49.9386 18.0122 49.8281 18.1595 50.0367C18.3067 50.2453 18.5889 50.6257 18.5889 50.6257L18.7484 50.7484C18.7484 50.7484 18.773 50.8097 18.8466 50.9324C18.9202 51.0551 18.9938 51.141 18.9938 51.141L19.1901 51.3496L19.1779 51.411C19.1656 51.4723 19.227 51.5459 19.227 51.5459C19.227 51.5459 19.2883 51.5582 19.3619 51.6073C19.4478 51.6564 19.5214 51.7545 19.5214 51.7545L19.7178 51.7913C19.7178 51.7423 19.6564 51.6318 19.5828 51.5459C19.4969 51.4478 19.3619 51.3987 19.3619 51.3987ZM23.8895 25.73C23.8895 25.73 24.4049 25.3864 24.6625 25.1778C24.9202 24.9815 24.7362 24.9079 24.7362 24.9079L24.8343 24.6993C24.8343 24.6993 24.8098 24.4662 24.4171 24.8588C24.0368 25.2515 23.9263 25.3128 23.73 25.5091C23.546 25.7054 23.3619 25.8772 23.3619 25.8772V25.9876C23.3619 25.9876 23.5951 25.8527 23.7668 25.6686C23.9632 25.4723 23.8895 25.73 23.8895 25.73ZM36.8221 19.6809C36.9325 19.7054 37.3128 19.914 37.3128 19.914C37.3128 19.914 37.3374 19.8404 37.411 19.7668C37.4846 19.6932 37.6564 19.6318 37.6564 19.6318C37.6564 19.6318 37.2883 19.6318 37.2147 19.5091C37.1288 19.3864 36.8221 19.3373 36.8221 19.3373C36.8221 19.3373 36.773 19.2269 36.4662 19.1042C36.2699 19.0306 35.9386 19.0429 35.9386 19.0429C35.9386 19.0429 36.2822 19.1533 36.4049 19.2515C36.5276 19.3496 36.2454 19.3373 36.0613 19.2392C35.8773 19.141 35.5582 19.1165 35.5582 19.1165C35.5582 19.1165 36.3926 19.4478 36.503 19.5705C36.6135 19.6932 36.4049 19.8895 36.4049 19.8895L36.6748 20.1472C36.6748 20.1472 36.8711 20.0981 37.0429 20.1472L37.2147 20.1962L37.4969 20.0367C37.4969 20.0367 36.8466 19.8527 36.8834 19.865C36.8957 19.8895 36.4662 19.595 36.8221 19.6809ZM26.9202 23.0061C26.9816 23.0183 27.0552 22.9692 27.1288 22.8956C27.2147 22.822 27.227 22.7116 27.227 22.7116C27.227 22.7116 26.9079 23.0061 26.9202 23.0061ZM28.5767 21.4846C28.5153 21.5827 28.4294 21.6318 28.4294 21.6318L28.4908 21.5214C28.4908 21.5214 28.4417 21.5459 28.3803 21.5827C28.319 21.6196 28.1717 21.7668 28.0613 21.8772C27.9509 21.9877 27.73 22.2453 27.73 22.2453L27.6564 22.6748L27.6687 22.7607L27.4846 22.6993C27.4846 22.6993 27.276 22.9447 27.2147 22.9938C27.1533 23.0429 27.092 23.1778 27.092 23.1778L27.0306 23.2637L26.957 23.1533C26.957 23.1533 26.7852 23.2637 26.6994 23.2883C26.6135 23.3251 26.6871 23.2269 26.6871 23.2269L26.6012 23.2024L26.5889 23.1288L26.773 22.9079L26.8343 22.7975L26.8466 22.7484C26.8589 22.6993 26.8711 22.6625 26.8711 22.6625L26.7607 22.6993L26.4908 22.9938C26.4908 22.9938 26.454 23.0429 26.3926 23.1165C26.3313 23.1901 26.2944 23.1901 26.2944 23.1901C26.2944 23.1901 26.2822 23.3742 26.2086 23.46C26.1472 23.5459 26.0736 23.6196 26.0736 23.6196C26.0736 23.6196 26.0368 23.6809 25.9386 23.7791C25.8527 23.8772 25.7791 23.8895 25.7791 23.8895L25.5828 24.0613C25.5828 24.0613 25.4233 24.233 25.3374 24.3435C25.1165 24.6011 25.2392 24.7484 25.2147 24.7852C25.1533 24.8834 25.2147 25.0061 25.2147 25.0061L25.3374 25.0919L25.3619 25.1656L25.4601 25.1288L25.4355 25.2269L25.4601 25.3373L25.5705 25.276L25.6196 25.3373C25.6196 25.3373 25.7178 25.2146 25.7791 25.1778C25.8405 25.141 25.8527 25.1778 25.8527 25.1778L25.9263 25.0306H25.865L26.0736 24.9202L26.2576 24.6134L26.1963 24.5766C26.1963 24.5766 26.2331 24.5275 26.2699 24.4784C26.3067 24.4294 26.3067 24.368 26.3067 24.368L26.1717 24.3926L26.2086 24.2699C26.2086 24.2699 26.1227 24.2821 26.049 24.2944C25.9754 24.3067 25.9386 24.2699 25.9386 24.2699L25.9754 24.0245L25.9263 24.0367C25.8773 24.049 26 23.9386 26 23.9386L26.1717 23.7054L26.2822 23.4846C26.2822 23.4846 26.2699 23.5337 26.2576 23.5827C26.2454 23.6318 26.2699 23.6809 26.2699 23.6809L26.4294 23.5459C26.4294 23.5459 26.4171 23.6809 26.4171 23.7668C26.4171 23.8527 26.3803 23.9263 26.3803 23.9263L26.4171 23.9631C26.4171 23.9631 26.4294 23.9631 26.454 23.9263C26.4908 23.8772 26.5276 23.8527 26.5276 23.8527L26.5521 24.0122L26.6257 24.0245C26.6871 24.0367 26.6748 24.0735 26.6257 24.1349C26.5889 24.1962 26.454 24.2821 26.454 24.2821L26.5153 24.3067C26.5153 24.3067 26.6135 24.2576 26.7116 24.1962C26.7975 24.1349 26.7607 24.2208 26.7607 24.2208L26.9202 24.1103C26.9202 24.1103 26.9938 24.049 27.0674 23.9508C27.1411 23.8527 27.1533 23.8036 27.1533 23.8036L27.1043 23.8159C27.0552 23.8281 27.1288 23.7545 27.1779 23.6932C27.227 23.6318 27.4355 23.4969 27.4355 23.4969C27.4355 23.4969 27.5705 23.3987 27.6932 23.2392C27.8036 23.0797 27.8895 23.2024 27.8895 23.2024L28.2454 22.8465L28.4662 22.6748C28.4662 22.6748 28.4908 22.6257 28.5398 22.503C28.5889 22.3803 28.6503 22.4907 28.6503 22.4907L28.8098 22.2821C28.8098 22.2821 28.7484 22.2576 28.7607 22.184C28.7852 22.1103 28.773 22.1472 28.9447 22.0981C29.1165 22.049 29.1656 22.0981 29.1656 22.0981L29.3987 21.8527L29.3619 21.8036H29.4601C29.4601 21.8036 29.8773 21.4355 30.0981 21.2883C30.3067 21.1288 30.4049 20.957 30.4049 20.957L30.5521 20.822C30.5521 20.822 30.9202 20.5153 31.1043 20.2085C31.3006 19.9018 31.546 19.2883 31.546 19.2883L31.5092 19.276C31.5092 19.276 31.4233 19.3251 31.3251 19.3987C31.2392 19.46 30.9325 19.6318 30.9325 19.6318C30.9325 19.6318 30.8711 19.6564 30.6993 19.7791C30.5276 19.9018 30.4662 19.8895 30.4662 19.8895L30.3067 20.0122C30.3067 20.0122 30.2822 20.0367 30.2208 20.0981C30.1595 20.1594 30.1104 20.1472 30.1104 20.1472C30.1104 20.1472 29.9754 20.2453 29.8527 20.3557C29.7178 20.4662 29.7055 20.4171 29.7055 20.4171L29.5705 20.5521C29.4355 20.687 29.2147 20.8343 29.0797 20.9447C28.9325 21.0674 28.6748 21.3005 28.6748 21.3005C28.6748 21.3005 28.638 21.3864 28.5767 21.4846ZM21.3128 26.7484C21.3251 26.8956 21.4233 26.9324 21.4233 26.9324C21.4233 26.9324 21.5951 26.822 21.6319 26.687C21.6687 26.5521 21.7178 26.4539 21.7178 26.4539C21.7178 26.4539 21.7914 26.503 21.7914 26.6011C21.7914 26.6993 21.7668 26.7238 21.7668 26.7238C21.7668 26.7238 22.0368 26.5153 22.1227 26.3312C22.2086 26.1472 22.3313 25.8404 22.503 25.6318C22.6748 25.4232 22.8098 25.3742 22.8098 25.3742C22.8098 25.3742 22.9938 25.1288 23.2638 24.8834C23.5214 24.638 23.7055 24.4907 23.7055 24.4907C23.7055 24.4907 24 24.184 24.049 24.0735C24.0981 23.9631 24.1104 23.914 24.1104 23.914L23.1043 24.7729C23.1043 24.7729 23.5582 24.3312 23.6809 24.1717C23.8036 24.0122 23.5582 24.184 23.5582 24.184C23.5582 24.184 23.7178 23.9876 23.8895 23.7668C24.0613 23.5459 24.2699 23.2883 24.2699 23.2883C24.2699 23.2883 23.8527 23.3005 23.5092 23.5214C23.1656 23.7545 23.0674 23.8772 23.0674 23.8772C23.0674 23.8772 23.092 23.9508 23.0674 24.0367C23.0429 24.1226 23.0061 24.1717 23.0061 24.1717L22.8711 23.9999L22.5153 24.3803C22.5153 24.3803 22.503 24.4171 22.4908 24.5275C22.4785 24.638 22.4662 24.7607 22.3681 24.9079C22.2699 25.0674 22.1595 25.2269 22.1595 25.2269C22.1595 25.2269 22.1472 25.0674 22.1963 24.9447C22.2454 24.8343 22.2576 24.8097 22.2576 24.8097L22.2208 24.6011C22.2208 24.6011 21.9018 24.822 21.7668 25.0429C21.6441 25.2637 21.6564 25.3742 21.5092 25.5337C21.3497 25.6932 21.1288 25.914 21.1288 25.914C21.1288 25.914 21.1656 25.9631 21.1656 26.0613C21.1656 26.1594 21.1288 26.2453 21.1288 26.2453L21.3865 26.1472L21.411 26.2453L21.6564 26.1226L21.4846 26.2944C21.4846 26.2944 21.4601 26.5398 21.3251 26.4784C21.2024 26.4171 21.1901 26.3557 21.1901 26.3557C21.1901 26.3557 21.0797 26.4294 21.0306 26.5275C20.9693 26.638 20.9693 26.6625 20.9693 26.6625C20.9693 26.6625 21.0552 26.6502 21.1165 26.638C21.1901 26.6257 21.2147 26.6502 21.1779 26.7238L21.1411 26.7975C21.1165 26.822 21.3128 26.6011 21.3128 26.7484ZM18.6503 36.4416C18.6503 36.4416 18.9079 36.368 18.9079 36.3557V36.049L18.6994 36.1104L18.6503 36.4416ZM20.3313 32.8343C20.3313 32.8343 20.2086 32.8588 20.1349 33.0183C20.0736 33.1656 20.0736 33.1901 20.0736 33.1901V33.3742L20.3803 32.9447L20.3313 32.8343ZM20.184 32.5153C20.2576 32.4171 20.2331 32.4416 20.2331 32.4416L20.049 32.3312C20.049 32.3312 19.9018 32.3803 19.8282 32.4907C19.7546 32.6011 19.7668 32.7238 19.7668 32.7238C19.7668 32.7238 20.1104 32.6134 20.184 32.5153ZM26.7362 22.4907L26.6257 22.503L26.5644 22.5766L26.7239 22.5398L26.7362 22.4907ZM20.773 52.7484C20.9079 52.7729 21.1656 52.9202 21.1656 52.9202C21.1656 52.7975 21.0429 52.7238 20.9079 52.6257C20.773 52.5275 20.5521 52.2821 20.3435 52.1594C20.1349 52.0367 19.9018 51.9508 19.9018 51.9508C19.9018 51.9508 20 52.0367 20.0613 52.1226C20.1227 52.2085 20.184 52.3067 20.184 52.3067L20.2454 52.3558C20.3067 52.4048 20.319 52.4907 20.319 52.4907L19.9018 52.2331L20.0981 52.4785C20.0981 52.4785 20.2208 52.5153 20.3558 52.6012C20.503 52.687 20.6257 52.8711 20.6257 52.8711C20.6257 52.8711 20.6503 52.7361 20.773 52.7484ZM17.9509 37.4969L17.865 37.6441C17.865 37.6441 18.0368 37.8527 18.0368 37.8281C18.0368 37.8036 18.0613 37.7423 18.0368 37.6196C18 37.4846 17.9509 37.4969 17.9509 37.4969ZM35.1901 62.6748C35.1901 62.6748 35.3251 62.5153 35.546 62.4785C35.7668 62.4416 36.0245 62.4785 36.0245 62.4785L36.1227 62.3312C36.1227 62.3312 35.9018 62.2944 35.9141 62.1717L35.9263 62.049C35.9263 62.049 35.7791 61.9018 35.5092 61.6564C35.2392 61.411 34.9079 61.2392 34.9079 61.2392C34.9079 61.2392 35.092 61.0551 35.0429 60.9324L35.0061 60.7975C35.0061 60.7975 35.2638 60.5889 35.2515 60.4294C35.2392 60.2699 35.1779 60.184 35.1779 60.184L34.5767 59.7423C34.5767 59.7423 34.454 59.7177 34.3313 59.7177C34.2086 59.7177 34.1104 59.7545 34.1104 59.7545L33.6564 59.6318L33.2638 59.4846C33.2638 59.4846 32.957 59.3496 32.6257 59.3373C32.2944 59.3128 32.2576 59.3987 32.2576 59.3987L32.0981 59.3373L31.4724 59.276L31.3251 59.411L31.1779 59.2392C31.1779 59.2392 31.1288 59.1901 31.0306 59.141C30.9325 59.0919 30.7975 59.141 30.7975 59.141L30.6625 59.0797L29.9632 58.9079C29.9632 58.9079 29.8405 58.8956 29.8527 58.9692C29.865 59.0429 29.7914 59.0797 29.7914 59.0797L29.6932 58.8343L29.4724 58.7607C29.4724 58.7607 29.3742 58.8465 29.276 58.8097C29.1779 58.7729 29.0797 58.7607 29.0797 58.7607L29.1288 58.9079L28.8466 58.8956L28.8098 58.7239C28.8098 58.7239 28.9816 58.6134 28.9447 58.4662C28.8957 58.3189 28.7362 58.3189 28.7362 58.3189L28.2208 57.9508L28.0613 57.7545L27.73 57.6196L27.4355 57.4355L26.5889 57.1533C26.5889 57.1533 26.5276 57.1901 26.3558 57.1533C26.184 57.1288 26.049 57.1042 26.049 57.1042L25.9754 57.0061L25.6319 56.8097L25.5214 56.8588L25.4478 56.7116L24.6871 56.2331L24.4294 56.184L24.454 56.0981L23.7178 55.6073H23.9263C23.9263 55.6073 23.8405 55.5337 23.6319 55.4846C23.4355 55.4478 23.2515 55.5337 23.2515 55.5337L22.9938 55.3373C22.9938 55.3373 22.6994 55.3005 22.5889 55.2269C22.4785 55.1533 22.3926 54.9815 22.3926 54.9815L21.9632 54.7607H21.8036L22.1227 55.2269L22.0613 55.2515C22.0613 55.2515 21.8527 55.0674 21.8405 54.9692C21.8282 54.8834 21.8159 54.8465 21.7546 54.7484C21.6932 54.6502 21.5951 54.5521 21.5951 54.5521L21.6564 54.4907L21.4724 54.3067L21.3497 54.4539L21.1043 54.3435C21.1043 54.3435 21.1165 54.5153 21.1779 54.5766C21.2392 54.638 21.2392 54.7975 21.2392 54.7975L20.6871 54.2331L20.5767 54.1962C20.6625 54.3067 20.7484 54.4171 20.8466 54.5275C20.8343 54.4785 20.8466 54.4539 20.9202 54.5275C21.1901 54.8097 21.8405 55.5459 22.1104 55.865C22.2086 55.9754 22.2699 56.0735 22.2944 56.1472C25.9754 59.9018 30.8957 62.4539 36.3803 63.1533C36.2208 63.0429 36.0245 62.9324 35.865 62.8711C35.5337 62.8097 35.1901 62.6748 35.1901 62.6748ZM56.1717 52.184C56.1963 52.368 56.2331 52.3803 56.2331 52.3803C56.2331 52.3803 56.1472 52.6257 56.2944 52.638C56.3926 52.638 56.4171 52.638 56.4171 52.638C56.4171 52.6502 56.454 52.7116 56.4417 52.7729C56.4294 52.8465 56.4049 52.8956 56.4049 52.8956L56.6012 52.8465L56.4908 52.4416L56.3313 52.4171C56.3313 52.4171 56.4049 52.2085 56.3681 52.049C56.3312 51.8772 56.2331 51.9018 56.2086 51.7545C56.2331 51.7668 56.1472 51.9999 56.1717 52.184ZM56.9202 51.2392C56.9202 51.2392 57.3619 50.8588 57.5092 50.4907C57.6564 50.1226 57.8405 49.865 57.8405 49.865C57.8405 49.865 57.5092 49.9508 57.3128 50.1226C57.1165 50.2944 56.9938 50.4171 56.9938 50.4171L56.9202 51.2392ZM57.3251 52.5398H57.2024C57.2024 52.5398 57.2147 52.7852 57.1656 52.957C57.1043 53.1656 57.0061 53.2637 57.0061 53.2637V53.6318H57.1901C57.1901 53.6318 57.1533 53.3496 57.2515 53.141C57.3619 52.9202 57.3251 52.5398 57.3251 52.5398ZM46.0736 53.8527C46 53.6318 45.9754 53.5582 45.9754 53.5582C45.9754 53.5582 45.865 53.9018 45.3128 53.46L45.2147 53.6686C45.2147 53.6686 45.6564 53.6441 45.8282 53.7913C46 53.9386 46.0122 54.1349 46.0122 54.1349C46.0122 54.1349 46.1595 54.0735 46.0736 53.8527ZM58.503 27.4478L58.0122 26.6134L57.8773 26.7484L58.2208 27.4478H58.503ZM57.7791 24.8834L57.6319 24.638L57.4601 24.6625C57.2883 24.687 57.0184 24.3803 57.0184 24.3803C57.1656 24.6993 57.5582 24.9447 57.5582 24.9447L57.7791 24.8834ZM57.5092 29.9386C57.3497 29.6686 57.1901 29.5459 57.0061 29.2515C57.0061 29.2515 57.1165 29.6196 57.0797 29.7668C57.0552 29.914 57.0061 30.0245 57.0061 30.0245L57.3374 30.6257L57.5582 30.4662C57.5828 30.4662 57.6687 30.2085 57.5092 29.9386ZM63.411 38.9202C63.3374 38.3558 63.227 37.4355 63.1288 36.9692C62.9938 36.2576 62.8343 35.7177 62.8343 35.7177V36.4416L62.6257 36.1349L62.5521 35.9877C62.4908 35.8404 62.3435 35.9263 62.3435 35.9263L62.0859 35.5214C62.0859 35.5214 61.9754 35.9876 61.7178 36.4907C61.4601 36.9938 61.0674 37.2883 61.0674 37.2883L60.7607 36.8956L60.5889 37.5214L60.3926 37.6686C60.3926 37.6686 60.3313 37.595 60.1227 37.6073C59.9141 37.6196 59.8036 37.7177 59.8036 37.7177C59.8036 37.7177 59.276 37.1288 59.0552 37.3619C58.8343 37.6073 59.0184 37.8159 59.0184 37.8159L58.8957 37.9754H59.0674L59.3619 38.3312L59.5092 38.2699L60.1349 38.9447L60.049 38.3558C60.049 38.3558 60.1472 38.503 60.2454 38.7729C60.3435 39.0429 60.4417 39.0551 60.4417 39.0551L60.5276 38.7607C60.5276 38.7607 60.7852 38.6134 60.8221 38.2208C60.8466 37.8281 60.8343 37.2146 60.8343 37.2146C60.8343 37.2146 60.9325 37.4232 61.0306 37.7054C61.1288 37.9754 61.2883 37.9877 61.2883 37.9877L61.5092 37.7054L61.7546 37.9508C61.7546 37.9508 61.7914 38.4907 61.7546 38.8711C61.7178 39.2392 61.8282 39.46 61.8282 39.46C61.8282 39.46 61.7791 39.5459 61.7055 39.7423C61.6319 39.9386 61.7055 40.049 61.7055 40.049C61.7055 40.049 61.6687 40.1349 61.5582 40.3189C61.4478 40.503 61.5582 40.7116 61.5582 40.7116C61.5582 40.7116 61.3742 41.0551 61.227 41.2515C61.0797 41.4478 61.1779 41.73 61.1779 41.73L60.7239 42.6257C60.7239 42.6257 60.6871 42.822 60.5276 43.141C60.3803 43.46 60.0859 43.6809 60.0859 43.6809C60.0859 43.6809 60.0122 43.8404 59.9509 44.049C59.8895 44.2453 59.6564 44.3926 59.6564 44.3926L59.3006 43.6932C59.3006 43.6932 59.3374 43.3987 59.2147 43.2637C59.092 43.1165 58.7484 43.0061 58.7484 43.0061C58.7484 43.0061 58.773 42.9202 58.6257 42.7729C58.4785 42.6257 58.2454 42.687 58.2454 42.687L57.9754 42.5643C57.9754 42.5643 57.9754 42.2576 57.73 41.9508C57.4724 41.6318 57.2515 41.865 57.2515 41.865C57.2515 41.865 57.0797 41.6073 56.6257 41.2515C56.1717 40.8956 56.0368 41.0551 56.0368 41.0551L55.8895 40.5153C55.8895 40.5153 55.865 40.6257 55.8895 40.8465C55.9141 41.0674 55.9141 41.2883 55.9141 41.2883L55.73 41.2515C55.546 41.2146 55.1165 40.9324 55.1165 40.9324C55.1165 40.9324 55.1411 41.0183 55.2638 41.1778C55.3865 41.3251 55.9141 41.595 55.9141 41.595C55.9141 41.595 56.0368 41.7791 56.184 41.9263C56.3312 42.0735 56.7607 42.3067 56.7607 42.3067L56.8098 42.5643C56.8589 42.822 57.0797 42.638 57.0797 42.638L57.3497 42.7484L57.7914 43.6441C57.7914 43.6441 58.2454 43.6686 58.3067 43.8036C58.3681 43.9386 58.6135 44.3926 58.6135 44.3926L58.9202 44.2576C58.9202 44.2576 59.2638 44.3312 59.4724 44.4907C59.6809 44.638 59.5337 44.822 59.5337 44.822C59.5337 44.822 59.7055 44.9079 59.8282 44.9938C59.9509 45.0674 60.2208 44.5643 60.6012 44.049C60.9816 43.5337 61.1901 43.1288 61.1901 43.1288C61.1901 43.1288 61.227 43.276 61.1901 43.5582C61.1656 43.8527 61.0552 44.4539 60.8589 45.46C60.6625 46.4662 59.8405 47.865 59.3497 48.8834C58.8589 49.8895 58.4662 50.8097 58.4662 50.8097L58.5766 50.8343C58.5766 50.8343 58.6012 50.9079 58.5276 51.0919C58.4417 51.276 58.4294 51.6932 58.4294 51.6932L58.5766 51.6318C58.5766 51.6318 58.5521 51.73 58.4294 52.1472C58.3067 52.5643 58.0368 53.1165 57.5582 53.73C57.0797 54.3435 56.4908 54.8956 56.4908 54.8956C56.4908 54.8956 56.3681 55.4846 56.184 55.7668C56 56.049 55.3987 56.5275 55.3987 56.5275C55.3987 56.5275 55.3128 56.7239 54.957 57.1165C54.5889 57.4969 53.4601 58.5521 52.957 58.9324C52.4417 59.3128 51.5582 59.6932 51.5582 59.6932C51.5582 59.6932 51.6932 59.5091 51.73 59.3864C51.7668 59.2515 51.6687 59.1165 51.6687 59.1165L51.4478 59.0306C51.4478 59.0306 51.4724 58.4171 51.2638 58.1594C51.0552 57.9018 50.8098 57.9263 50.8098 57.9263C50.8098 57.9263 50.8098 57.7791 50.8711 57.4969C50.9325 57.2146 51.0306 56.957 51.0306 56.957C51.0306 56.957 51.5214 56.4416 51.5337 56.2944C51.546 56.1472 51.2392 55.914 51.2392 55.914C51.2392 55.914 51.3742 55.6564 51.1533 55.411C50.9447 55.1656 50.7362 55.0919 50.1963 55.0061C49.6564 54.9324 49.5951 54.6502 49.5951 54.6502C49.5951 54.6502 49.7178 54.5275 49.7178 54.368C49.7178 54.2085 49.6932 54.1349 49.7668 54.0367C49.8405 53.9263 50.0245 53.5214 49.6441 53.3373C49.2638 53.1533 48.9325 53.5214 48.6993 53.6809C48.4662 53.8404 48.1227 53.8527 48.1227 53.8527C48.1227 53.8527 48.0122 53.6686 47.8036 53.5827C47.5828 53.5091 47.1779 53.6196 47.1779 53.6196L45.8282 54.503L45.276 54.822C45.276 54.822 45.227 54.8465 44.957 54.8711C44.6871 54.8956 44.3926 55.0674 43.9754 55.1656C43.5582 55.2637 43.2147 55.6318 43.2147 55.6318C43.2147 55.6318 42.7239 55.595 42.184 55.5337C45.4355 53.1165 49.6073 49.3619 52.1717 44.6134C52.6994 43.6441 53.1533 42.5521 53.546 41.3742L53.9877 41.2024C53.9877 41.2024 54.0736 41.0183 54.2331 40.7361C54.3926 40.4539 54.6503 40.4662 54.8957 40.3557C55.1411 40.2453 55.2883 40.0981 55.2883 40.0981C55.2883 40.0981 55.3128 39.6196 55.2883 39.0061C55.2638 38.4048 54.9693 38.1104 54.9693 38.1104L54.9202 37.9386C54.9202 37.9386 54.9325 37.7423 54.8957 37.7054C54.8098 37.6196 54.7362 37.914 54.7362 37.914L54.4908 37.9754C54.4908 37.9754 54.4785 38.1472 54.4049 38.3189C54.3926 38.3435 54.3803 38.368 54.3681 38.3926C54.5767 37.4355 54.7607 36.4294 54.8957 35.3987C54.9079 35.3987 54.9079 35.3987 54.9079 35.3987C54.9079 35.3987 55.1043 35.141 55.092 34.9815C55.092 34.9079 55.0429 34.8097 54.9816 34.7116C55.0797 33.9263 55.1411 33.1165 55.2024 32.2944L55.4601 32.8834C55.4601 32.8834 55.7055 32.8343 55.9141 33.0797C56.1104 33.3373 57.1779 33.5705 57.1779 33.5705C57.1779 33.5705 56.9325 33.8404 57.1779 34.2453C57.4233 34.6502 57.5828 34.8465 57.5828 34.8465L57.865 34.6625C57.865 34.6625 58.1595 34.8465 58.3926 34.5275C58.6257 34.2085 58.7239 34.0613 58.7239 34.0613C58.7239 34.0613 58.5398 33.9631 58.3681 33.7177C58.2086 33.46 58.1349 33.3373 58.1349 33.3373C58.1349 33.3373 57.8159 33.3864 57.6564 33.141C57.4969 32.8834 57.4355 32.7975 57.4355 32.7975C57.4355 32.7975 57.0674 32.6625 57.0184 32.4784C56.9693 32.3067 56.9325 32.2453 56.9325 32.2453L56.7362 32.3803L56.0368 32.1594L56.1963 31.8772C56.1963 31.8772 55.865 31.6932 56 31.5459C56.1349 31.3987 56.2822 31.276 56.2822 31.276C56.2822 31.276 56.0245 31.1042 55.9632 30.957C55.9018 30.8097 55.7546 30.7238 55.7546 30.7238C55.7546 30.7238 55.4601 30.822 55.3497 31.2392C55.3006 31.411 55.2638 31.6196 55.2392 31.7913C55.276 30.9324 55.3006 30.0735 55.3006 29.1901C55.3006 29.1901 54.9938 28.7607 51.7791 27.0797C49.8405 26.0735 47.9141 25.1778 46.1472 24.4294L46.1717 24.3926L45.9632 23.914C45.9632 23.914 46.0245 23.7913 45.9877 23.595C45.9509 23.3987 45.9754 23.2637 45.9754 23.2637L46.2208 23.4846C46.2208 23.4846 46.2576 23.7054 46.3558 23.6073C46.454 23.5091 46.4171 23.3987 46.4171 23.3987L46.319 23.2024C46.319 23.2024 46.4662 23.1288 46.4294 22.9815C46.3926 22.8343 46.3558 22.687 46.3558 22.687L46.7484 22.9202L46.8098 22.822L46.6257 22.7238L46.5767 22.5153L46.0368 22.3926C46.0368 22.3926 45.9386 22.4907 45.8527 22.4416C45.7791 22.3926 45.7178 22.3926 45.7178 22.3926L45.73 22.4662C45.73 22.4662 45.5828 22.4662 45.4478 22.3926C45.3006 22.3312 45.2515 22.2453 45.2515 22.2453C45.2515 22.2453 45.7178 22.3557 45.8895 22.2453C46.0613 22.1349 46.1595 21.9263 46.1595 21.9263H46.4049L46.5644 21.9876L46.5276 21.8772L46.9816 21.8036L47.4846 21.8527L46.9938 21.5459L46.9447 21.6318C46.9447 21.6318 46.9079 21.6441 46.7607 21.6073C46.6012 21.5705 46.5153 21.5459 46.5153 21.5459L46.6257 21.6932L46.1104 21.5459C46.1104 21.5459 46.1472 21.5091 46 21.4478C45.8527 21.3864 45.4601 21.3496 45.4601 21.3496L45.1779 21.2269L44.9938 20.9938L43.9018 20.5275L44.0368 20.3435L44.2331 20.2699L43.9018 20.0367L44.2944 19.8159L43.8282 19.595L44.2331 19.5459L43.4969 19.4355C43.4969 19.4355 43.5214 19.3251 43.3987 19.141C43.276 18.957 43.1533 18.8588 43.1533 18.8588L43.3865 18.8956C43.3865 18.8956 43.276 18.7484 42.9938 18.822C42.7116 18.8956 42.7607 19.0183 42.2086 18.7975C41.6564 18.5889 41.2883 18.3067 41.1411 18.2944C40.9938 18.2699 40.7607 18.2453 40.7607 18.2453L40.6993 18.1226L40.8466 18.0858C40.8466 18.0858 40.7484 18.0367 40.638 18.0122C40.5276 17.9876 40.4417 17.9386 40.4417 17.9386L40.2331 17.9754L40.1717 17.8281C40.1717 17.8281 40.1349 17.8404 40.0122 17.8649C39.8895 17.8895 39.6441 17.8772 39.3128 17.8527C38.9816 17.8281 38.4785 17.7913 38.4785 17.7913L38.6748 17.6809C38.6748 17.6809 38.8466 17.7668 38.957 17.7054C39.0552 17.6564 39.0429 17.6073 39.0429 17.6073H39.6809C39.6809 17.6073 39.5582 17.5705 39.3987 17.5705L39.2392 17.5582L38.9938 17.4723C38.9938 17.4723 39.3251 17.3128 39.73 17.2637C40.1349 17.2146 41.1533 17.2883 41.6073 17.3496C42.0613 17.411 42.822 17.5214 42.822 17.5214C42.822 17.5214 42.503 17.3619 42.2699 17.3373C42.0368 17.3128 41.9632 17.3251 41.9632 17.3251L41.5828 17.2515L41.546 17.141L41.7914 17.1165L41.2883 16.9079L41.6441 16.8465C41.6441 16.8465 41.6687 16.7484 41.4478 16.687C41.227 16.6257 40.7239 16.687 40.7239 16.687L40.5521 16.6625L40.4417 16.5275C40.4417 16.5275 40.7239 16.4171 41.0306 16.368C41.3374 16.3189 41.4355 16.4048 41.4355 16.4048L41.9509 16.1594L40.9325 16.233L41.092 16.1594L40.9938 16.0981C40.9938 16.0981 40.822 16.1349 40.6012 16.0981C40.3803 16.0613 40.2208 16.0122 40.2208 16.0122C40.2208 16.0122 39.9877 16.0735 39.7055 16.1226C39.4233 16.1717 39.1656 16.2085 39.1656 16.2085L38.7484 16.0613C38.7484 16.0613 38.4785 16.1103 38.3803 16.0735C38.2944 16.0367 38.822 15.8159 38.822 15.8159C38.822 15.8159 38.7362 15.7913 38.3803 15.8159C38.0245 15.8404 37.7668 15.8527 37.7668 15.8527C37.7668 15.8527 37.8282 15.7791 37.9877 15.73C38.1472 15.6809 38.2208 15.6564 38.2208 15.6564C38.2208 15.6564 37.4355 15.6686 37.1779 15.7177C36.9202 15.7668 36.6503 15.8527 36.6503 15.8527C36.6503 15.8527 37.092 15.6441 36.7362 15.7177C36.3803 15.7791 36.3558 15.9018 36.3558 15.9018C36.3558 15.9018 36.2331 15.9018 36.0368 15.9386C35.8405 15.9754 35.6687 16.0122 35.6687 16.0122C35.6687 16.0122 35.3497 15.9754 35.092 15.9876C34.8343 16.0122 34.7607 16.0122 34.7607 16.0122L34.8466 15.9508L34.4049 16.1226L34.1472 16.1472L34.4908 15.9018C36.0859 15.5705 37.73 15.3987 39.411 15.3987C52.5153 15.3864 63.1533 25.8772 63.411 38.9202ZM20.7484 32.7116L20.8711 32.6625L20.9202 32.5153L20.8711 32.4048H20.7852L20.7484 32.7116ZM58.6257 52.7729C58.4417 53.0797 58.3926 53.3128 58.3926 53.3128C58.3926 53.3128 58.2454 53.6196 58.0613 53.8527C57.8773 54.0735 57.5092 54.7729 57.5092 54.7729H57.6073C57.6073 54.7729 58.0859 54.2576 58.4662 53.6932C58.4662 53.6932 59.3374 52.3312 59.5828 51.8527C59.8405 51.3742 60 50.8711 59.9877 50.6625C59.9877 50.6625 59.6687 51.3128 59.3742 51.7545C59.0797 52.1962 58.8098 52.4662 58.6257 52.7729ZM38.5398 16.2699L38.0981 16.503L38.9325 16.3557L38.5398 16.2699ZM20.5153 30.8343C20.184 31.3128 20.1472 31.3864 20.1472 31.3864C20.1472 31.3864 20.0859 31.3251 20.0122 31.4723L19.9386 31.6196C19.9386 31.6196 20.0981 31.595 20.0122 31.7423C19.9141 31.9018 19.8895 31.9754 19.8895 31.9754C19.8895 31.9754 20.0122 32.0245 20.1104 31.9263L20.1963 31.8281L20.2944 31.8159C20.2944 31.8159 20.3926 31.6073 20.454 31.6196C20.5276 31.6318 20.4294 31.7668 20.4294 31.7668C20.4294 31.7668 20.5398 31.8036 20.4908 31.8772C20.4417 31.9508 20.3926 31.9999 20.3926 31.9999L20.5276 32.233C20.5276 32.233 20.6871 32.1594 20.7362 32.0122C20.773 31.8772 20.6135 31.8527 20.6135 31.8527C20.6135 31.8527 20.773 31.7423 20.7852 31.4846C20.7975 31.2392 20.8343 31.0429 20.8343 31.0429C20.8343 31.0429 20.8098 30.8956 20.8466 30.687C20.8957 30.4784 20.9202 30.4171 20.9202 30.4171C20.9202 30.4171 20.8466 30.3557 20.5153 30.8343ZM21.9018 26.9815C21.7914 27.0429 21.7914 27.0797 21.73 27.1533C21.6564 27.2392 21.4969 27.2269 21.4969 27.2269C21.4969 27.2269 21.4724 27.2269 21.411 27.4232C21.3374 27.6196 21.3251 27.9018 21.3251 27.9018L21.5582 27.8159C21.5582 27.8159 21.5705 27.73 21.6564 27.6196C21.73 27.5214 21.9141 27.3742 21.9141 27.3742C21.9141 27.3742 21.8773 27.3251 21.8773 27.2269C21.8773 27.1288 22.0368 26.9447 22.0368 26.9447C22.0368 26.9447 22.0122 26.9079 21.9018 26.9815ZM20.9938 32.4048V32.6625C20.9938 32.6625 21.1165 32.6257 21.1165 32.5153C21.1043 32.3926 20.9938 32.4048 20.9938 32.4048ZM19.1165 39.4478L19.1411 39.3005C19.1411 39.3005 18.9447 39.2515 18.8589 39.3987C18.7852 39.5582 18.8098 39.6686 18.8098 39.6686L19.1165 39.4478ZM18.6257 40.6625C18.6257 40.6625 18.5276 40.4416 18.5644 40.2944L18.3681 40.368L18.6257 40.6625ZM17.9509 42.2453C17.9509 42.2453 17.865 42.1226 17.8159 42.2085L17.7668 42.3067C17.7668 42.3067 17.73 42.1717 17.6073 42.1226C17.4846 42.0735 17.3251 42.1226 17.3497 42.2576C17.3742 42.4171 17.5951 42.4171 17.5951 42.4171C17.5951 42.4171 17.6932 42.6502 17.8036 42.638C17.9263 42.6257 17.9509 42.2453 17.9509 42.2453ZM17.3619 42.4662C17.2638 42.3926 17.1656 42.4662 17.1656 42.4662C17.1656 42.4662 17.1165 42.2576 16.9938 42.3435L16.8711 42.4294C16.8711 42.4294 16.7607 42.368 16.8098 42.2208C16.8098 42.2208 16.638 42.4907 16.7607 42.6625C16.8711 42.822 17.4233 42.6625 17.4233 42.6625C17.4233 42.6625 17.4601 42.5521 17.3619 42.4662ZM16.822 41.0061C16.822 41.2637 16.7116 41.5459 16.7116 41.5459C16.7116 41.5459 16.957 41.411 16.9079 41.6932C16.8711 41.9754 16.8711 42.1104 16.8711 42.1104L17.0184 41.9877C17.0184 41.9877 17.0306 41.7668 17.0797 41.595C17.1288 41.4232 17.1533 41.3251 17.1533 41.3251L17.2883 41.6932L17.3865 41.5705L17.2638 40.8588C17.2638 40.8588 16.8834 40.4785 16.8466 40.2576C16.7975 40.0245 16.8343 39.4969 16.8343 39.4969C16.8343 39.4969 16.7116 39.3987 16.7239 39.2269C16.7362 39.0429 16.7484 38.9447 16.7484 38.9447L16.5767 38.5766C16.5767 38.5766 16.4908 38.7975 16.3681 38.8343C16.2454 38.8711 16.1595 38.8343 16.1595 38.8343L16 39.0797H16.1472C16.1472 39.0797 16.0736 39.3987 16.2331 39.3987C16.3926 39.411 16.4785 39.3128 16.4785 39.3128C16.4785 39.3128 16.3926 39.4723 16.454 39.6932C16.5276 39.914 16.7239 39.9999 16.7239 39.9999L16.8343 40.4784C16.8343 40.4784 16.773 40.3435 16.638 40.233C16.503 40.1226 16.3435 40.1226 16.2699 40.5398C16.1963 40.957 16.1717 41.5459 16.2086 41.7177C16.2331 41.8895 16.2944 41.9018 16.2944 41.9018C16.2944 41.9018 16.4049 41.7668 16.4171 41.3496C16.4417 40.9324 16.5153 40.7484 16.5153 40.7484L16.6994 40.5275C16.6871 40.5398 16.822 40.7484 16.822 41.0061ZM16.638 38.4539L16.7362 38.049L16.638 37.9631C16.638 37.9631 16.5889 38.0367 16.5521 38.2085C16.5276 38.368 16.638 38.4539 16.638 38.4539ZM20 38.2085C20.0736 38.3435 20.2454 38.4171 20.2454 38.4171C20.2454 38.4171 20.1717 38.2699 20.184 38.184C20.1963 38.0981 20.2331 38.0245 20.2576 38.0981L20.2944 38.1717L20.3803 38.0858C20.3803 38.0858 20.3681 38.0122 20.319 37.9263C20.2699 37.8404 20.1963 37.7791 20.1963 37.7791C20.1963 37.7791 19.9263 38.0735 20 38.2085ZM20.9079 38.687C20.8711 38.7852 20.8711 38.822 20.8711 38.822L20.9693 39.0797C20.9693 39.0797 20.9325 38.8588 21.0061 38.7484C21.1165 38.5889 21.1533 38.7729 21.2515 38.7852C21.3497 38.7975 21.4478 38.7484 21.4478 38.7484V38.5275C21.4478 38.5275 21.2638 38.6011 21.2638 38.4539C21.276 38.3067 21.2515 38.2699 21.2515 38.2699C21.2515 38.2699 21.1901 38.5275 21.0306 38.4784C20.8711 38.4294 20.8589 38.4048 20.8589 38.4048C20.8589 38.4048 20.9447 38.5889 20.9079 38.687ZM21.9018 38.9447C21.9018 38.9447 22.0122 39.0797 22 39.1533C21.9754 39.2269 21.9509 39.3251 21.9509 39.3251L22.3558 38.9938L22.2699 38.9447C22.2699 38.9447 22.1472 39.1042 21.9018 38.9447ZM19.8895 42.9202C19.8895 42.9202 19.7546 42.8711 19.276 42.9938C18.7975 43.1165 18.9447 43.4969 19.0552 43.7177C19.1779 43.9263 19.0552 43.9508 19.0552 43.9508C19.0552 43.9508 19.0674 43.9877 18.822 43.9877C18.5767 43.9877 18.638 44.0981 18.638 44.0981C18.638 44.0981 18.6012 44.1103 18.3681 44.0858C18.1227 44.0613 18.2208 44.4294 18.2208 44.4294C18.2208 44.4294 18 44.957 17.9509 45.3251C17.9018 45.7054 18 45.9386 18 45.9386L17.9263 46.1962C17.9263 46.1962 17.8895 46.1962 17.73 46.2576C17.5705 46.3312 17.4846 46.6134 17.4846 46.6134L17.3251 46.638C17.3251 46.638 17.2883 46.7238 17.3006 46.9202C17.3128 47.1165 17.4724 47.6441 17.7178 48.2576C17.9632 48.8711 18.0368 49.2883 18.0368 49.2883H17.9632C17.9632 49.2883 17.7668 48.8956 17.5214 48.3803C17.276 47.8527 17.0306 47.0429 17.0306 47.0429H16.9079C16.9079 47.0429 16.9693 46.9202 16.6625 46.4171C16.3558 45.914 16.5644 46.5643 16.5644 46.5643L16.4785 46.4171C15.8036 44.1962 15.4355 41.8404 15.4355 39.3864C15.4355 31.3987 19.3374 24.3312 25.3374 19.9631C25.092 20.2085 25.1288 20.2085 25.3006 20.1103C25.5337 19.9754 26.1227 19.7177 26.1227 19.7177L25.8773 19.9386H26.2699C26.2699 19.9386 26.2454 19.9631 26.1595 20.0367C26.0736 20.1226 26.1963 20.1226 26.1963 20.1226C26.1963 20.1226 25.8405 20.2821 25.6319 20.4416C25.4355 20.6011 25.1288 20.7852 24.6257 21.141C24.1227 21.4969 24.0736 21.6686 24.0736 21.6686C24.0736 21.6686 23.5337 22.1226 23.2392 22.368C22.9447 22.6257 22.7484 22.8711 22.7484 22.8711L22.9693 22.8343C22.9693 22.8343 22.9447 22.8465 22.8466 23.1288C22.7484 23.411 23.1288 23.1778 23.1288 23.1778C23.1288 23.1778 22.822 23.46 22.4417 23.7668C22.0613 24.0735 22.503 23.8281 22.503 23.8281L22.2699 23.9999C22.0368 24.1717 22.2331 24.1349 22.2331 24.1349C22.2331 24.1349 22.1472 24.3189 22.0245 24.4539C21.9018 24.5889 21.7055 24.8711 21.4478 25.3619C21.2024 25.8527 21.0552 25.8895 21.0552 25.8895C21.0552 25.8895 21.0797 25.6318 20.8711 25.9508C20.6748 26.2699 20.6503 26.4784 20.7484 26.4784C20.8343 26.4907 20.8957 26.4907 20.8957 26.4907C20.8957 26.4907 20.3558 27.2269 20.5767 27.0306C20.7975 26.8343 20.822 26.8097 20.822 26.8097L21.092 26.7607L21.1533 26.8097C21.1533 26.8097 20.9447 27.0061 20.9202 27.141C20.8957 27.276 20.9079 27.3251 20.9079 27.3251C20.9079 27.3251 20.6503 27.7913 20.7607 27.7668L20.8711 27.7423C20.8711 27.7423 20.8466 28.1472 20.9816 27.9386L21.1043 27.73C21.1043 27.73 21.3128 27.5582 21.276 27.8036L21.227 28.0613C21.227 28.0613 20.7239 28.503 20.9202 28.3926C21.1165 28.2821 21.1901 28.2085 21.1901 28.2085C21.1901 28.2085 21.3251 28.3067 21.4969 28.0858C21.6564 27.865 21.6441 27.8036 21.6441 27.8036C21.6441 27.8036 21.7546 27.6932 21.8773 27.6073C21.9263 27.5705 21.9754 27.5459 22 27.5337C22 27.4355 22.0122 27.3251 22.0613 27.2146C22.1963 26.8711 22.3681 26.7361 22.4662 26.6748L22.5644 26.6134C22.5644 26.6134 22.7607 26.3557 22.9202 26.2208C23.092 26.0858 23.2392 26.0245 23.3742 25.9018V25.9876C23.3742 25.9876 23.2638 26.233 23.0797 26.4907C22.8957 26.7484 22.7484 26.8956 22.6257 27.141C22.4908 27.3864 22.4908 27.3619 22.4908 27.3619C22.4908 27.3619 22.2208 27.46 22.184 27.5705C22.1472 27.6564 22.2086 27.8772 22.2086 27.8772L22.1595 27.914C22.1104 27.9508 22.0368 27.9999 21.9754 28.0735C21.8895 28.1962 21.8895 28.3067 22.0122 28.2085C22.1349 28.1103 22.1717 28.0613 22.1717 28.0613C22.1717 28.0613 22.1595 28.3067 22.0122 28.503C21.865 28.6993 21.6441 28.8465 21.546 29.0674C21.4478 29.276 21.3742 29.5091 21.3742 29.5091C21.3742 29.5091 21.5705 29.3005 21.7546 29.1778C21.9386 29.0551 22.1472 28.7238 22.1472 28.7238C22.1472 28.7238 22.2699 28.7729 22.3558 28.6134C22.4417 28.4539 22.4662 28.3803 22.5767 28.2576C22.6871 28.1349 22.7852 28.1472 22.7852 28.1472C22.7852 28.1472 22.8711 28.4784 22.7607 28.7607C22.6503 29.0551 22.5276 29.2024 22.5276 29.2024L22.3681 29.276L22.3313 29.0919C22.3313 29.0919 22.2086 29.2146 22.1104 29.5459C22.0122 29.8772 22.0122 29.9386 22.0122 29.9386C22.0122 29.9386 21.8895 30.0858 21.7055 30.1962C21.5214 30.3189 21.276 30.3926 21.276 30.3926C21.276 30.3926 21.1901 30.233 21.1901 30.2208C21.1901 30.1962 21.276 30.0245 21.276 30.0245C21.276 30.0245 21.227 30.0981 21.1901 30.0245C21.1533 29.9508 21.1411 29.9386 21.1411 29.9386C21.1411 29.9386 21.0429 30.0245 21.0429 30.1103C21.0552 30.1962 21.0429 30.2453 21.0429 30.2453C21.0429 30.2453 20.9325 30.2944 20.7852 30.4294C20.638 30.5643 20.5889 30.6134 20.5889 30.6134C20.5889 30.6134 20.503 30.5521 20.5398 30.3435C20.5767 30.1349 20.6135 30.0245 20.6135 30.0245C20.6135 30.0245 20.4171 30.2699 20.4294 30.4294C20.4417 30.5889 20.5398 30.6993 20.5398 30.6993L19.9386 31.2392C19.9386 31.2392 19.9632 30.8588 19.8159 31.0551C19.6564 31.2515 19.5337 31.2392 19.5337 31.2392C19.5337 31.2392 19.5582 31.3864 19.4233 31.4723C19.2883 31.5582 19.227 31.3864 19.227 31.3864C19.227 31.3864 19.2392 31.4232 19.1288 31.5582C19.0184 31.6932 18.8343 31.73 18.8343 31.73C18.8343 31.73 18.7484 31.8772 18.5889 32.0367C18.4294 32.1962 18.184 32.4048 18.0122 32.7607C17.8405 33.1288 17.8159 33.2269 17.8159 33.2269C17.8159 33.2269 17.9754 33.276 17.8773 33.46C17.7791 33.6441 17.7178 33.8895 17.6932 34.0245L17.6687 34.1472L17.4724 34.3189C17.4724 34.3189 17.7423 34.2821 17.7668 34.4907C17.7914 34.6993 17.8527 34.8711 17.8405 35.1165C17.8282 35.3619 17.8036 35.4723 17.8036 35.4723C17.8036 35.4723 17.8527 35.6196 17.8895 35.7054C17.9263 35.7913 17.9386 35.8772 17.9386 35.9877C17.9386 36.0981 17.9263 36.1594 17.9263 36.1594C17.9263 36.1594 18.0122 36.1594 18.0859 36.2699C18.1595 36.3803 18.1717 36.4294 18.1717 36.4294L18.2822 36.4539L18.0859 36.9079C18.0859 36.9079 18.0981 37.0797 18 37.276C17.9018 37.46 17.8527 37.6073 17.8895 37.8895C17.9263 38.1717 17.9386 38.3189 17.9263 38.4171L17.9141 38.5153L18.0245 38.7116C18.0245 38.7116 18.049 38.5766 18.1595 38.4784C18.2699 38.3803 18.319 38.3312 18.319 38.3312C18.319 38.3312 18.3067 37.9876 18.4171 37.6564C18.5153 37.3251 18.5276 36.9324 18.5276 36.9324C18.5276 36.9324 18.8589 36.9202 19.0429 36.7729C19.227 36.6134 19.3987 36.3312 19.4478 36.0367C19.4969 35.7423 19.546 35.4232 19.5337 35.276C19.5214 35.1288 19.4969 35.0919 19.4969 35.0919L19.5582 34.9324C19.5582 34.9324 19.8036 34.7484 19.9263 34.5643C20.049 34.3803 20.1472 33.8404 20.1472 33.8404C20.1472 33.8404 20.3926 33.7423 20.4171 33.5705C20.4417 33.3864 20.4294 33.3251 20.4294 33.3251L20.5889 33.0061L20.7484 32.957C20.7484 32.957 20.8711 33.2392 21.0184 33.3128C21.1656 33.3742 21.2147 33.3251 21.2147 33.3251C21.2147 33.3251 21.276 33.4355 21.2515 33.7791C21.227 34.1226 21.2147 34.2453 21.3619 34.3312C21.5092 34.4171 21.5337 34.4539 21.5337 34.4539C21.5337 34.4539 21.4601 34.5521 21.3374 34.8097C21.2147 35.0674 21.2147 35.2024 21.2147 35.2024C21.2147 35.2024 21.0306 35.5091 21.092 35.6686C21.1656 35.8404 21.1779 35.8772 21.1779 35.8772C21.1779 35.8772 21.1288 36.184 21.3374 36.1104C21.5337 36.0367 21.6073 35.8895 21.6073 35.8895C21.6073 35.8895 21.6932 35.9508 21.8405 35.6932L21.9877 35.4232L22.2208 35.0551L22.3067 35.0797C22.3067 35.0797 22.2331 35.3496 22.2331 35.5827C22.2331 35.8159 22.2454 35.9018 22.2454 35.9018C22.2454 35.9018 22.1717 36.2699 22.2086 36.5889C22.2454 36.9079 22.3067 37.2146 22.3067 37.2146C22.3067 37.2146 21.9877 37.3742 22.1104 37.6196C22.2208 37.8772 22.3313 38.049 22.3313 38.049C22.3313 38.049 22.2208 38.1349 22.3558 38.2085C22.4908 38.2821 22.5767 38.3312 22.5767 38.3312C22.5767 38.3312 22.503 38.4294 22.638 38.5153C22.773 38.6011 22.9202 38.6134 22.9202 38.6134L22.4049 38.9324C22.4049 38.9324 22.7607 38.8343 22.8343 38.9324C22.9079 39.0306 22.7484 39.1901 22.7484 39.1901C22.7484 39.1901 23.0184 39.0429 23.1043 39.2392C23.1901 39.4355 22.9938 39.73 22.9938 39.73C22.9938 39.73 23.1656 39.8281 23.0306 40.0122C22.8957 40.1962 22.638 40.3067 22.638 40.3067C22.638 40.3067 22.3803 40.1717 22.2576 40.3067C22.1472 40.4416 22.1472 40.5398 22.1472 40.5398L21.8405 40.7238C21.8405 40.7238 21.7423 40.7361 21.2392 40.5766C20.7239 40.4171 20.4294 40.2699 20.4294 40.2699C20.4294 40.2699 20.2208 40.4416 20.1717 40.5398C20.1227 40.638 20.1227 40.7238 20.1227 40.7238C20.1227 40.7238 19.9509 40.6011 19.7178 40.8711C19.4846 41.141 19.1656 41.4969 19.1656 41.4969H19.3006C19.3006 41.4969 19.5951 41.0919 19.8405 40.9815C20.0859 40.8711 20.4908 40.7975 20.638 41.0306C20.7852 41.2637 20.4662 41.4969 20.4662 41.4969L20.319 41.3864L20.184 41.3987C20.184 41.3987 20.2699 41.411 20.319 41.4969C20.3681 41.5827 20.3681 41.6196 20.3681 41.6196L20.503 41.5582L20.6012 41.6441C20.6012 41.6441 20.454 41.7423 20.4785 41.9754C20.503 42.2085 20.5276 42.3312 20.5276 42.3312C20.5276 42.3312 20.6625 42.4048 20.6871 42.4294C20.9816 42.8588 21.1288 42.6625 21.1288 42.6625L21.3251 42.9815C21.3251 42.9815 20.9202 43.0674 20.6625 43.1533C20.4049 43.2392 20.3681 43.3987 20.3681 43.3987L20.184 43.4969C20.184 43.4969 20.0245 43.1288 20.0981 42.9815C20.184 42.8465 20.3435 42.7361 20.1227 42.7239C19.8036 42.7116 19.8895 42.9202 19.8895 42.9202ZM36.6012 22.3926C36.6012 22.3926 36.6871 22.368 36.9325 22.5643C37.1901 22.7484 37.2515 22.9079 37.2515 22.9079L37.5582 22.8711L37.4233 22.4662C37.4233 22.4662 36.3926 22.1226 36.1963 21.9386C36.0122 21.7668 36.6135 21.7423 36.6135 21.7423L36.319 21.1901L35.3987 21.0919C35.3987 21.0919 35.6319 21.2637 35.5092 21.6318C35.411 21.9263 35.2147 22.0613 35.2147 22.0613C35.2147 22.0613 35.3742 22.503 35.9754 22.8097C36.2208 22.9324 36.5644 23.3373 36.5644 23.3373L36.9079 23.4969C37.0061 23.4723 37.092 23.4355 37.1779 23.411L36.6012 22.3926ZM36.4049 17.0551L37.0674 16.9815L38.0981 16.6502H36.7116L36.2086 16.7729C36.2086 16.7729 36.503 16.822 36.454 16.9447L36.4049 17.0551ZM26.6503 22.3067L26.3926 22.5398L26.3681 22.6134L26.6625 22.3557L26.6503 22.3067ZM36.9325 18.2944C37.6319 18.2085 37.9141 17.9754 37.9141 17.9754L38.638 17.9876L37.6809 17.8036C37.6809 17.8036 37.0061 17.9999 36.6012 18.0613C36.1963 18.1103 35.2147 18.2208 35.2147 18.2208C35.2147 18.2208 36.2331 18.3803 36.9325 18.2944ZM21.7914 53.2515L21.8159 53.1533C21.8159 53.1533 21.7178 53.0429 21.4233 52.9815L21.4724 53.141L21.7914 53.2515ZM20.8711 42.6257L21.0429 42.3803C21.0429 42.3803 20.7975 42.368 20.5767 42.2085L20.8711 42.6257ZM21.6196 42.7607C21.6196 42.7361 21.3865 42.687 21.411 42.2576L21.1165 42.6257L21.2638 42.9324C21.2515 42.9202 21.6196 42.7729 21.6196 42.7607ZM23.0306 42.638L23.411 42.7239C23.411 42.7239 23.4969 42.503 23.5092 42.3189C23.5214 42.1226 23.4724 41.9631 23.3619 42.0858L23.2515 42.2085C23.2515 42.2085 23.2024 42.0367 23.3128 41.9263L23.4233 41.8159L23.4355 41.6932C23.4355 41.6932 23.1656 41.9263 23.2392 41.7423C23.3006 41.5582 23.3742 41.4355 23.3742 41.4355C23.3742 41.4355 23.3619 41.2392 23.1165 41.2637C22.8589 41.3005 22.8834 41.0797 22.8834 41.0797C22.8834 41.0797 22.638 41.0061 22.7362 40.7852C22.8343 40.5643 22.9938 40.2944 22.9938 40.2944C22.9938 40.2944 22.7607 40.1717 22.4785 40.638C22.184 41.1165 21.9877 41.6441 21.9018 41.7177C21.8282 41.7913 21.73 41.8527 21.73 41.8527L21.8036 42.0735C21.8036 42.0735 21.9877 42.0245 22.184 42.0735C22.3681 42.1226 22.3558 42.1226 22.3558 42.1226C22.3558 42.1226 22.7116 42.1594 22.7116 42.2576C22.7116 42.3557 22.5276 42.503 22.5276 42.503H22.7852C22.7852 42.503 22.9079 42.3557 22.9816 42.2453C23.0674 42.1349 23.1656 42.0735 23.092 42.3312C23.0306 42.5889 23.0306 42.638 23.0306 42.638ZM24.2454 55.8527L24.1595 55.6318H23.9877C23.9877 55.6318 24.049 55.6809 24.0859 55.7177C24.1227 55.7668 24.0859 55.8036 24.0859 55.8036L24.2454 55.8527ZM43.9018 20.3189L43.3987 20.2208L43.4724 20.3435L43.8036 20.4662L43.9018 20.3189ZM41.1165 19.914L40.3681 19.73L40.4539 19.9386C40.4539 19.9386 40.5889 19.9754 40.822 20.1226C41.0552 20.2699 40.8711 20.4784 40.8711 20.4784L41.6319 21.276C41.6319 21.276 41.73 21.2269 42.3558 21.6564C42.9938 22.0858 43.4478 22.368 43.4478 22.368C43.4478 22.368 43.6441 22.7361 44.3067 22.8097C44.9693 22.8956 45.2638 22.5521 45.2638 22.5521L45.0552 22.368C45.0552 22.368 44.8098 22.4416 44.4294 22.368C44.0368 22.3067 43.3865 21.8895 42.4908 21.2392C41.5828 20.5889 41.1165 19.914 41.1165 19.914ZM21.1165 40.8834C20.8466 40.6134 20.7362 40.6257 20.7362 40.6257C20.7362 40.6257 20.638 40.7607 20.8957 40.9815C21.1411 41.2146 21.2515 41.2269 21.2515 41.2269C21.2515 41.2269 21.3865 41.1533 21.1165 40.8834ZM44.9447 23.8159C44.9816 23.8281 45.5337 24.184 45.5337 24.184L45.4846 23.7054C45.4846 23.6932 44.9079 23.7913 44.9447 23.8159ZM26.4294 22.957L26.6503 22.6993C26.6503 22.6993 26.5644 22.7729 26.5767 22.6993C26.5889 22.6257 26.6135 22.6011 26.6135 22.6011C26.6135 22.6011 26.4294 22.6993 26.3803 22.7607C26.3313 22.822 26.2822 22.8711 26.2822 22.8711C26.2822 22.8711 26.2576 22.8343 26.3067 22.7729C26.3558 22.7116 26.4049 22.6625 26.4049 22.6625C26.4049 22.6625 26.3435 22.6993 26.319 22.6502L26.3067 22.5889C26.3067 22.5889 26.1963 22.6502 26.1717 22.6993C26.1472 22.7607 26.1349 22.7975 26.1349 22.7975L26.0736 22.7729L26.0245 22.8834L25.8773 22.9324V23.0061L25.73 23.1165C25.73 23.1165 25.7791 23.1778 25.7914 23.2392C25.8036 23.3005 25.8036 23.3128 25.73 23.3251C25.6564 23.3251 25.5951 23.3373 25.5951 23.3373L25.3006 23.6073L25.3251 23.7668C25.3251 23.7668 25.4478 23.6686 25.5582 23.5827C25.6687 23.4969 25.7423 23.4846 25.7423 23.4846C25.7423 23.4846 25.9263 23.3128 26.0613 23.2146C26.2208 23.1288 26.4294 22.957 26.4294 22.957ZM26.2331 21.7668C26.1349 21.8281 26.0981 21.9018 26.0981 21.9018L26.5889 21.6564H26.503C26.5153 21.6441 26.3313 21.7054 26.2331 21.7668ZM25.1656 24.3803C25.1656 24.3803 25.3619 24.1717 25.5092 24.0245C25.6687 23.8772 25.7914 23.6686 25.7914 23.6686H25.7178C25.7178 23.6686 25.5092 23.7913 25.3251 23.9754C25.1533 24.1349 25.1656 24.3803 25.1656 24.3803ZM25.3374 22.6257C25.3374 22.6257 25.1533 22.7361 25.0674 22.8465C24.9816 22.957 25.0674 22.9938 25.1779 22.9815C25.2883 22.9692 25.3374 22.9692 25.3374 22.9692L25.2883 23.141C25.2883 23.141 25.3742 23.1656 25.5337 23.0674C25.6932 22.9692 25.73 22.9202 25.73 22.9202C25.73 22.9202 25.8773 22.8834 26.0368 22.7361C26.1963 22.5889 26.2208 22.5398 26.2208 22.5398L26.0981 22.5275C26.0981 22.5275 26.1963 22.4539 26.3803 22.2944C26.5644 22.1349 26.8957 21.8772 26.8957 21.8772C26.8957 21.8772 26.6625 21.9386 26.4662 22.1103C26.2699 22.2821 26.2331 22.3189 26.1963 22.3435C26.1595 22.3557 26.1227 22.368 26.1227 22.368C26.1227 22.368 25.9018 22.6134 25.8527 22.5889C25.8159 22.5643 25.8282 22.503 25.8282 22.503C25.8282 22.503 26.2208 22.1962 26.4294 22.0122C26.638 21.8281 26.773 21.6686 26.773 21.6686L26.7484 21.6318L25.8036 22.1103C25.8036 22.1103 25.5828 22.2699 25.5337 22.4048C25.4846 22.5398 25.5582 22.6748 25.5582 22.6748L25.5214 22.6993L25.3374 22.6257ZM25.4969 23.141C25.411 23.2269 25.3987 23.3005 25.3987 23.3005L25.4724 23.276L25.6932 23.0551C25.6809 23.0551 25.5828 23.0674 25.4969 23.141ZM25.7668 23.5827H25.6809L25.5828 23.6809L25.7178 23.6318L25.7668 23.5827ZM54.4417 39.1656C54.6135 39.0183 54.6748 38.8097 54.6748 38.8097C54.6748 38.8097 54.6503 38.7116 54.7239 38.4539C54.7239 38.4539 54.6012 38.7361 54.503 38.7729C54.4049 38.8097 54.319 38.8465 54.319 38.8465C54.319 38.8465 54.4049 38.9447 54.319 38.9938C54.2944 39.0061 54.2699 39.0183 54.2576 39.0183C54.2454 39.0674 54.2331 39.1165 54.2208 39.1656C54.2454 39.2146 54.3313 39.2637 54.4417 39.1656ZM23.0429 29.0061C23.092 28.9447 23.0429 28.9202 23.0429 28.9202L22.7239 29.1533L22.7852 29.2269C22.7852 29.2269 22.9938 29.0797 23.0429 29.0061ZM22.3681 31.8159C22.3681 31.8159 22.319 31.9508 22.2454 32.0613C22.1717 32.1717 22.0368 32.2944 22.0368 32.2944L22.2944 32.4171C22.2944 32.4171 22.3435 32.3067 22.3681 32.1226V31.8159ZM23.546 32.4539C23.4969 32.5521 23.4724 32.6257 23.4724 32.6257L23.3497 32.3803C23.3497 32.3803 23.3865 32.2085 23.3987 31.9631C23.411 31.7177 23.3497 31.3987 23.3497 31.3987C23.3497 31.3987 23.1656 31.73 23.0552 31.9876C22.9447 32.233 23.0552 32.4662 23.0552 32.4662C23.1043 32.7975 23.0306 32.9324 23.0306 32.9324C22.9938 33.0797 23.0306 33.2515 23.0306 33.2515C23.0306 33.2515 22.9938 33.3619 22.8589 33.595C22.7116 33.8281 22.638 33.9877 22.638 33.9877C22.638 33.9877 22.6135 33.6932 22.5398 33.4969C22.4662 33.3005 22.2454 32.957 22.2454 32.957C22.2454 32.957 22.3067 33.3742 22.3313 33.6073C22.3558 33.8404 22.2944 34.2208 22.2944 34.2208C22.2944 34.2208 22.049 33.9877 21.8895 33.6932C21.7178 33.3987 21.7178 32.9692 21.7178 32.9692L21.8773 32.8711C21.8773 32.8711 21.8405 32.8097 21.8036 32.6134C21.7791 32.4171 21.8159 32.1962 21.8159 32.1962L21.6687 32.1594C21.5214 32.1226 21.2392 32.1103 21.2392 32.1103C21.2392 32.1103 21.2024 32.0367 21.2392 31.8159C21.276 31.595 21.5214 31.5459 21.5214 31.5459L21.6196 31.3251C21.6196 31.3251 21.6687 31.4846 21.7914 31.6196C21.9141 31.7545 22.1472 31.6441 22.1472 31.6441L22.2331 31.2269C22.2331 31.2269 22.5767 30.9447 22.7239 30.8097C22.8711 30.687 22.8711 30.7607 22.8711 30.7607L23.2515 30.0367L23.1779 29.9508C23.092 29.865 23.2147 29.7668 23.2147 29.7668L23.0306 29.8036C23.0306 29.8036 23.0674 29.7054 23.1288 29.6073C23.1901 29.5091 23.2392 29.46 23.2392 29.46L23.0306 29.4846L23.1043 29.3128C23.1043 29.3128 23.1656 29.3251 23.2392 29.3128C23.3128 29.3005 23.3006 29.2024 23.3128 29.0306C23.3251 28.8711 23.3497 28.7238 23.3497 28.7238L23.6196 28.3557L23.5337 28.3435L23.6196 28.0367C23.6196 28.0367 23.4846 28.0367 23.4724 28.1717C23.4601 28.3067 23.3251 28.5766 23.3251 28.5766L23.227 28.5398C23.227 28.5398 23.227 28.4048 23.1533 28.3926C23.0797 28.3803 23.1533 28.6257 23.1533 28.6257L23.0552 28.6625C23.0552 28.6625 23.0429 28.4294 22.9938 28.2944C22.9447 28.1594 22.8466 28.0981 22.8466 28.0981L22.8589 28.0122C22.8711 27.9263 22.7607 27.9508 22.7607 27.9508L22.8589 27.7054C22.8589 27.7054 22.6871 27.6318 22.7975 27.411C22.9202 27.1901 23.1043 26.9938 23.1043 26.9938V27.2269H23.1901L23.2515 27.0306C23.2515 27.0306 23.1411 26.8588 23.2883 26.687C23.4355 26.5153 23.6564 26.2944 23.9632 26.0122C24.2699 25.73 24.5644 25.4846 24.7852 25.4232C24.9938 25.3619 24.9202 25.6196 24.9202 25.6196C24.9202 25.6196 24.7607 25.7177 24.6012 25.8281C24.4417 25.9386 24.0736 26.3312 24.0736 26.3312C24.0736 26.3312 24.3435 26.1349 24.5644 25.9508C24.7852 25.7668 25.1043 25.7913 25.1901 25.9508C25.276 26.1103 25.2638 26.233 25.1901 26.4539C25.1043 26.6625 24.9202 26.8343 24.9202 26.8343C24.9202 26.8343 24.9325 26.7852 24.8466 26.687C24.7607 26.5889 24.5153 26.8711 24.5153 26.8711C24.5153 26.8711 24.7484 26.7975 24.8098 26.8588C24.8589 26.9202 24.8466 27.1042 24.8466 27.1042C24.8466 27.1042 24.8221 27.1656 24.7484 27.46C24.6871 27.6809 24.6994 28.1472 24.6871 28.5521C23.8773 28.9692 23.4724 29.2146 23.4724 29.2146C23.4355 30.3067 23.4724 31.3864 23.546 32.4539ZM23.1411 23.6196L23.1779 23.6318C23.1779 23.6318 23.3128 23.5705 23.4478 23.4723C23.5828 23.3742 23.7055 23.3742 23.7055 23.3742C23.7055 23.3742 23.8527 23.2515 23.9754 23.2392C24.0859 23.2269 24.3067 23.2392 24.3067 23.2392L25.0306 22.6011C25.0306 22.6011 25.0184 22.5398 25.092 22.4539C25.1533 22.3557 25.3374 22.1717 25.3374 22.1717C25.3374 22.1717 25.276 22.184 25.2515 22.1472C25.227 22.1103 25.2515 22.0735 25.2515 22.0735C25.2515 22.0735 24.8957 22.3435 24.7852 22.3926C24.6871 22.4416 24.3926 22.5766 24.3926 22.5766C24.3926 22.5766 24.2086 22.6993 24.0613 22.7729C23.9141 22.8588 23.73 22.9079 23.73 22.9079C23.73 22.9079 23.6319 23.0306 23.4846 23.1778C23.3374 23.3251 23.092 23.5337 23.092 23.5337C23.092 23.5337 23.1656 23.5337 23.2147 23.5459C23.2638 23.5459 23.1411 23.6196 23.1411 23.6196ZM22.3558 34.6502L22.4785 34.4539L22.4417 34.233L22.2699 34.4539L22.3558 34.6502ZM31.0674 21.4355L31.2638 20.5398L30.8957 21.2392L31.1165 20.5398L30.7239 20.8097L29.4969 22.0245L29.5582 22.1717L29.0061 22.8097L28.9693 22.6993L28.773 22.7975C28.5766 22.8956 28.2944 22.9938 28.184 23.2269C28.0736 23.4478 27.9509 23.8159 27.9509 23.8159L28.0859 23.8281C28.2208 23.8404 28.0613 24.0613 28.0613 24.0613L27.9141 23.9754L27.8895 24.1962L27.7546 23.9754C27.7546 23.9754 27.5582 24.1962 27.5582 24.3803C27.5582 24.5643 27.3128 24.638 27.3128 24.638L27.2515 25.1042L27.6932 24.9938L27.8773 25.6196L27.6564 25.9876L27.3251 27.2392C27.7914 27.0183 28.3067 26.7852 28.8589 26.5398C30.0368 26.0245 31.1779 25.5582 32.2576 25.141C32.2576 25.1165 32.2699 25.1042 32.2699 25.0797C32.319 24.8711 32.4662 24.9324 32.5889 25.0183C32.6257 25.0061 32.6748 24.9815 32.7116 24.9692L32.6993 24.6502L32.3803 24.1594L32.5398 24.1226C32.5398 24.1226 32.503 23.4969 32.6012 23.0183C32.6993 22.5398 33.0061 21.7423 32.9693 21.5337C32.9447 21.3128 32.6257 21.2883 32.6257 21.2883L31.9754 22.4416C31.9754 22.4416 32 22.2453 32.1227 22.0245C32.2331 21.8036 32.3681 21.2024 32.3681 21.2024L32.0245 21.5337L32.1717 21.1901L32 21.1778L31.6687 21.4846C31.6687 21.4846 31.73 21.276 31.7668 21.2269C31.8036 21.1901 32.0613 20.9938 32.2086 20.9938C32.3558 20.9938 32.4294 20.6502 32.3067 20.3435C32.184 20.0367 32.0368 19.7668 32.0368 19.7668C32.0368 19.7668 31.8895 19.865 31.7423 20.0245C31.5951 20.184 31.411 20.5153 31.411 20.5153L31.0674 21.4355ZM22.9816 30.2821L23.0429 30.1103L22.9816 29.9386L22.822 30.184L22.9816 30.2821ZM21.8405 54.5643L21.7914 54.6502L22.0245 54.8097L21.8405 54.5643ZM22.9079 29.7054C22.9079 29.7054 22.9816 29.9386 22.7484 30.1472C22.5153 30.3557 22.3558 30.3435 22.3558 30.3435C22.3558 30.3435 22.454 30.1103 22.6012 29.9263C22.7362 29.7423 22.9079 29.7054 22.9079 29.7054Z" fill="black" fill-opacity="0.5"/>
  <path d="M51.7795 27.1043C44.7489 23.4478 37.9881 21.4355 37.9881 21.4355C41.1292 24.8589 43.3624 28.6625 44.6016 32.5767H44.663C45.5832 32.5767 46.6016 32.4662 47.7427 32.2331C47.9513 32.1963 48.1231 32.2944 48.2212 32.4785C48.3071 32.638 48.2949 32.8221 48.1967 32.957C44.982 37.6196 44.9452 41.4724 48.074 44.4049C48.1967 44.5153 48.2335 44.6748 48.1844 44.8098C48.1231 44.9693 47.939 45.0429 47.755 44.9938C46.9084 44.7239 46.0127 44.5644 45.1538 44.5276C44.0495 49.4601 41.3501 54.5153 37.4482 58.638C37.4482 58.638 47.4728 53.3006 52.1722 44.6257C54.2213 40.8343 55.301 35.227 55.301 29.2147C55.301 29.2147 55.0065 28.7852 51.7795 27.1043Z" fill="black" fill-opacity="0.5"/>
  <path d="M39.4846 56.2821C35.7423 53.0183 32.6994 45.9386 32.6994 39.7177C32.6994 39.3987 32.7116 39.0674 32.7239 38.7484C31.8282 37.9631 30.6748 37.3496 29.2883 36.8956C29.0797 36.822 28.9447 36.6625 28.957 36.4785C28.9693 36.2944 29.1288 36.1472 29.3374 36.1104C30.8221 35.8772 32.1227 35.4232 33.2515 34.7484C34.2576 30.1104 36.5767 25.7545 39.5582 23.2883C39.4355 23.1288 39.3006 22.9693 39.1779 22.822C38.1717 23.1042 33.7423 24.3803 28.8466 26.5521C25.2883 28.1226 23.4355 29.2269 23.4355 29.2269C23.4355 35.2392 24.503 40.8588 26.5521 44.638C30.503 51.9263 37.1288 55.8404 39.0674 56.7975C39.2147 56.6257 39.3497 56.4539 39.4846 56.2821Z" fill="black" fill-opacity="0.5"/>
  <path d="M47.1903 44.2823C44.4418 41.2761 44.6013 37.3252 47.6565 32.8099C46.5522 33.0185 45.5706 33.1289 44.6626 33.1289C41.5706 33.1289 39.4602 31.9019 38.0246 29.2761C36.724 33.3129 34.0123 35.7669 29.9387 36.5522C32.3804 37.4479 34.0737 38.8958 34.8835 40.7731C35.632 42.5031 35.5706 44.5645 34.724 46.4786C35.632 46.5154 36.7117 46.7853 37.7547 47.043C38.5399 47.2393 39.362 47.4356 40.0737 47.5338C39.9142 46.8344 40.0492 46.1841 40.4541 45.6197C41.1903 44.6013 42.8099 43.9878 44.7608 43.9878C45.5584 43.9878 46.3804 44.0859 47.1903 44.2823Z" fill="black" fill-opacity="0.5"/>
</svg>