<svg xmlns="http://www.w3.org/2000/svg" width="128" height="40" viewBox="0 0 128 40" fill="none">
  <g clip-path="url(#clip0_758_3309)">
    <path fill-rule="evenodd" clip-rule="evenodd" d="M18.4281 0.451445C21.7512 0.293632 25.683 1.00154 26.4134 3.34618C27.6128 7.1878 21.5302 12.7879 16.2277 15.5384C14.9291 16.2147 14.1446 16.3951 13.8154 16.35C13.4998 16.3049 13.4547 15.9938 13.5539 15.7818C13.7433 15.376 14.6 14.5554 15.7407 13.6626C21.7106 9.0004 23.6494 5.57811 22.5222 4.19387C21.8008 3.3056 18.7798 2.68788 15.637 2.68788C14.7803 2.68788 12.5394 2.88627 12.3094 2.10172C12.1291 1.44792 15.132 0.604749 18.4281 0.451445ZM11.4031 18.0634C14.2528 17.8965 17.7112 18.397 19.6545 19.885C20.1997 20.3028 20.6094 20.8723 20.8324 21.5219C21.0554 22.1716 21.0817 22.8727 20.908 23.5372C19.7808 27.9605 15.5965 33.3126 6.299 37.4248C3.33662 38.7324 1.01452 39.2328 0.527549 38.8811C2.05636e-06 38.5069 1.52403 35.5896 1.98394 34.6202C3.47189 31.482 5.32056 28.4249 7.13316 25.6294C7.80048 24.6013 8.82852 22.8158 9.75737 22.9556C10.5915 23.0863 9.61759 24.9846 8.97281 26.1885C7.89066 28.213 4.92377 33.8356 5.90673 34.1693C8.07102 34.9178 18.2432 27.1804 16.7417 22.8699C16.0474 20.8679 11.6286 20.6786 8.85107 20.6786C7.58856 20.6786 4.82007 20.9761 4.66676 20.0067C4.50444 19.114 8.8646 18.2122 11.4031 18.0634Z" fill="black" fill-opacity="0.5"/>
    <path fill-rule="evenodd" clip-rule="evenodd" d="M33.4024 13.3244C35.1113 13.6356 36.5046 13.8745 36.8247 14.596C37.1854 15.4121 35.3187 15.4617 34.3809 15.4842C29.8854 15.5699 27.171 15.6601 27.0358 17.1886C26.8599 19.1545 28.9611 21.1339 31.0307 23.9069C32.9245 26.4454 35.0752 28.9479 34.4575 31.279C33.682 34.1872 30.1199 34.7959 26.7292 34.8004C23.4827 34.8004 20.4031 34.2819 19.109 34.0249C17.4993 33.7093 17.7383 32.9112 18.1666 32.6542C18.6491 32.3701 21.386 32.3611 23.2888 32.2484C24.8534 32.1582 29.403 32.1582 30.1109 30.9949C30.9811 29.5701 28.8484 27.1263 26.896 24.5697C24.4612 21.3819 21.7783 18.0859 23.1986 15.6826C25.0338 12.5715 30.3995 12.7834 33.4024 13.3244ZM103.499 22.0492C107.106 22.0492 108.504 20.8138 109.072 17.9596L109.928 13.5093C109.987 13.2117 109.807 13.1215 109.581 13.1215H107.836L107.354 15.6826L107.083 17.0443L106.853 18.2256C106.533 19.8398 105.487 20.5658 103.72 20.5658C101.772 20.5658 101.253 19.8579 101.555 18.2256L101.659 17.6981L102.06 15.6826L102.543 13.1215H100.793C100.568 13.1215 100.356 13.2117 100.297 13.5093L99.4406 17.9596C98.8545 21.0933 100.415 22.0492 103.499 22.0492ZM42.1453 26.8738C41.8838 28.1047 42.8442 28.6954 44.7966 29.9083C46.9338 31.2339 47.4208 31.3331 47.2224 32.032C47.0691 32.5956 46.5054 32.6181 45.545 32.6181H41.744C41.3111 32.6181 41.0586 32.7985 40.982 33.1817L40.8332 33.9618H45.6262C47.8221 33.9618 49.1973 33.8265 49.6978 32.4829C49.8432 32.1524 49.8873 31.7863 49.8247 31.4308C49.7621 31.0753 49.5956 30.7463 49.3461 30.4854C48.948 30.0867 48.4882 29.7548 47.9844 29.5025C45.2429 27.9514 44.526 27.771 44.7019 27.0226C44.7966 26.5987 45.0896 26.5852 46.1222 26.5852H49.3371C49.7699 26.5852 50.0224 26.4048 50.0946 26.0216L50.2524 25.21H46.1853C43.8812 25.21 42.497 25.2145 42.1453 26.8738ZM63.2923 26.8738C63.0353 28.1047 63.9957 28.6954 65.9481 29.9083C68.0853 31.2339 68.5723 31.3331 68.3739 32.032C68.2161 32.5956 67.6525 32.6181 66.6966 32.6181H62.891C62.4581 32.6181 62.2101 32.7985 62.1335 33.1817L61.9802 33.9618H66.7777C68.9736 33.9618 70.3488 33.8265 70.8448 32.4829C70.992 32.1531 71.0375 31.787 70.9757 31.4312C70.9138 31.0754 70.7474 30.7462 70.4976 30.4854C70.0979 30.0866 69.6366 29.7547 69.1314 29.5025C66.3945 27.9514 65.6775 27.771 65.8489 27.0226C65.9481 26.5987 66.2366 26.5852 67.2692 26.5852H70.4886C70.9169 26.5852 71.1694 26.4048 71.2461 26.0216L71.4039 25.21H67.3368C65.0282 25.21 63.6485 25.219 63.2968 26.8783L63.2923 26.8738ZM116.895 26.8738C116.633 28.1047 117.594 28.6954 119.546 29.9083C121.683 31.2339 122.17 31.3331 121.972 32.032C121.814 32.5956 121.255 32.6181 120.295 32.6181H116.489C116.061 32.6181 115.808 32.7985 115.731 33.1817L115.583 33.9618H120.376C122.572 33.9618 123.947 33.8265 124.447 32.4829C124.593 32.1526 124.638 31.7863 124.575 31.4307C124.513 31.075 124.346 30.746 124.096 30.4854C123.696 30.0862 123.235 29.7543 122.729 29.5025C119.992 27.9514 119.276 27.771 119.451 27.0226C119.542 26.5987 119.839 26.5852 120.872 26.5852H124.087C124.519 26.5852 124.767 26.4048 124.844 26.0216L125.002 25.21H120.935C118.631 25.21 117.246 25.2145 116.895 26.8738ZM85.2419 20.3809C85.3894 20.0505 85.4352 19.6836 85.3734 19.327C85.3115 18.9705 85.1449 18.6404 84.8947 18.3789C84.4955 17.9771 84.0342 17.6421 83.5285 17.387C80.7916 15.8404 80.0746 15.6646 80.246 14.9161C80.3452 14.4923 80.6383 14.4742 81.6708 14.4742H84.8857C85.3186 14.4742 85.5666 14.2984 85.6432 13.9151L85.801 13.0945H81.7339C79.4299 13.0945 78.0456 13.108 77.6894 14.7628C77.4324 15.9937 78.3928 16.5889 80.3452 17.8018C82.4824 19.1274 82.9694 19.2266 82.771 19.9255C82.6132 20.4891 82.0541 20.5117 81.0937 20.5117H77.2926C76.8552 20.5117 76.6073 20.692 76.5306 21.0753L76.3818 21.8553H81.1748C83.3707 21.8553 84.7459 21.7201 85.2464 20.3764L85.2419 20.3809ZM75.0291 20.3809C75.1755 20.0499 75.2202 19.6829 75.1576 19.3265C75.0949 18.97 74.9278 18.6402 74.6774 18.3789C74.279 17.9781 73.8194 17.6433 73.3157 17.387C70.5698 15.8404 69.8573 15.6646 70.0332 14.9161C70.1234 14.4923 70.4165 14.4742 71.4535 14.4742H74.6639C75.1013 14.4742 75.3493 14.2984 75.4259 13.9151L75.5837 13.0945H71.5166C69.208 13.0945 67.8283 13.108 67.4766 14.7628C67.2151 15.9937 68.1755 16.5889 70.1279 17.8018C72.2606 19.1274 72.7521 19.2266 72.5537 19.9255C72.4004 20.4891 71.8368 20.5117 70.8764 20.5117H67.0753C66.6379 20.5117 66.39 20.692 66.3088 21.0753L66.16 21.8553H70.9575C73.1534 21.8553 74.5286 21.7246 75.0291 20.3809ZM119.632 13.1215C119.199 13.1215 118.955 13.2703 118.892 13.595L118.721 14.4787H122.157L120.723 21.8553H122.265C122.698 21.8553 122.95 21.675 123.036 21.2331L124.353 14.4787H127.22C127.626 14.4787 127.77 14.2984 127.843 13.9422L128 13.1215H119.632ZM44.7109 15.5519C44.4945 15.5519 44.3276 15.6961 44.3051 15.8449L43.1327 21.8553H48.3045C51.2038 21.8553 53.2103 20.7777 53.837 17.4366C54.3059 14.9431 53.2238 13.1215 50.2749 13.1215H44.0165L43.9894 13.2343C43.8497 13.8204 43.9218 14.4697 44.9138 14.4697H49.4588C51.6502 14.4697 51.9613 15.5654 51.5239 17.4907C51.0956 19.3844 50.3471 20.3584 48.7013 20.5072H45.5901L46.5505 15.5473L44.7109 15.5519ZM118.405 21.0392C118.482 20.656 118.347 20.5072 117.999 20.5072H113.31L114.69 13.4191C114.717 13.2703 114.609 13.1215 114.419 13.1215H112.553L110.857 21.8553H118.247L118.405 21.0392ZM104.455 25.2325H102.48L98.647 28.6367L96.1401 25.2325H94.1651C93.8405 25.2325 93.6646 25.4354 93.597 25.7916L92.0053 33.9618H93.6872C94.0389 33.9618 94.2328 33.7814 94.2959 33.4613L95.4863 27.3472L97.4161 30.0976C97.4607 30.1805 97.5271 30.2496 97.6082 30.2973C97.6893 30.345 97.7819 30.3695 97.876 30.3682H98.7462C98.8534 30.3626 98.9584 30.3358 99.0551 30.2894C99.1519 30.2429 99.2385 30.1778 99.3099 30.0976L102.313 27.3472L101.122 33.4613C101.059 33.7859 101.186 33.9618 101.542 33.9618H103.219L104.806 25.7916C104.874 25.4354 104.784 25.2325 104.455 25.2325ZM83.533 25.7916L81.9459 33.9618H90.0169L90.1837 33.0871C90.2559 32.7309 90.1657 32.6136 89.7599 32.6136H84.3987L84.8541 30.269H89.593C89.7283 30.269 89.8275 30.1788 89.8501 30.0616L90.0304 29.1327C90.053 29.0155 89.9898 28.9253 89.8546 28.9253H85.1202L85.5711 26.5852H90.7428C90.9863 26.5852 91.2298 26.5852 91.2974 26.2605L91.4958 25.2325H84.2094C83.8306 25.2325 83.6052 25.4084 83.533 25.7916ZM107.494 25.7916L105.902 33.9618H113.973L114.144 33.0871C114.212 32.7309 114.126 32.6136 113.72 32.6136H108.359L108.815 30.269H113.554C113.689 30.269 113.788 30.1788 113.811 30.0616L113.991 29.1327C114.014 29.0155 113.946 28.9253 113.815 28.9253H109.076L109.527 26.5852H114.703C114.947 26.5852 115.19 26.5852 115.254 26.2605L115.452 25.2325H108.17C107.791 25.2325 107.57 25.4084 107.494 25.7916ZM59.0945 25.5256L58.3234 29.5025C56.9707 29.9173 53.4628 30.6748 54.0084 27.8657L54.5224 25.2325H52.6782C52.4618 25.2325 52.2995 25.3768 52.2724 25.5256L51.8035 27.9243C50.9197 32.4829 55.2348 31.8606 58.0303 31.0039L57.4532 33.9618H58.9953C59.4326 33.9618 59.6806 33.7814 59.7708 33.3441L61.3444 25.228H59.4777C59.2883 25.228 59.1215 25.3768 59.0945 25.5256ZM82.1488 26.0486L82.3066 25.2325H73.947C73.5141 25.2325 73.2706 25.3768 73.203 25.7059L73.0316 26.5852H76.4675L75.0381 33.9618H76.5802C77.0131 33.9618 77.261 33.7814 77.3512 33.3441L78.6633 26.5807H81.5355C81.9413 26.5807 82.0811 26.4048 82.1488 26.0486ZM58.0845 16.7918C58.4136 15.0919 59.4056 14.4742 61.1731 14.4742C63.0443 14.4742 63.5358 15.1776 63.2292 16.7918L63.13 17.3193C63.0894 17.4997 63.0082 17.9686 62.5213 17.9686H57.8545L58.0799 16.7963L58.0845 16.7918ZM55.4467 21.8553H57.1015L57.5795 19.3168H62.7242L62.2462 21.8553H63.8965C64.1129 21.8553 64.3203 21.7651 64.379 21.4721L65.2357 17.0623C65.8669 13.7167 63.9777 13.0043 61.4301 13.0043C58.382 13.0043 56.6371 13.7708 55.9743 17.0623L55.1176 21.4721C55.0589 21.7651 55.2303 21.8553 55.4467 21.8553ZM90.1747 16.7918C90.5039 15.0919 91.4958 14.4742 93.2634 14.4742C95.1346 14.4742 95.626 15.1776 95.3239 16.7918L95.2202 17.3193C95.1797 17.4997 95.0985 17.9686 94.616 17.9686H89.9448L90.1747 16.7963V16.7918ZM87.5415 21.8553H89.1917L89.6742 19.3168H94.8144L94.3365 21.8553H95.9868C96.2032 21.8553 96.4106 21.7651 96.4692 21.4721L97.3259 17.0623C97.9572 13.7167 96.0679 13.0043 93.5204 13.0043C90.4723 13.0043 88.7318 13.7708 88.0645 17.0623L87.2078 21.4721C87.1492 21.7651 87.3205 21.8553 87.5415 21.8553Z" fill="black" fill-opacity="0.5"/>
  </g>
  <defs>
    <clipPath id="clip0_758_3309">
      <rect width="128" height="39.5263" fill="white"/>
    </clipPath>
  </defs>
</svg>