<svg xmlns="http://www.w3.org/2000/svg" width="125" height="29" viewBox="0 0 125 29" fill="none">
  <g clip-path="url(#clip0_758_3275)">
    <path d="M35.4312 11.9149C34.548 11.3085 32.2279 11.0495 30.5414 11.5133C30.4509 9.79943 29.5838 8.35487 27.9991 7.09443L27.4126 6.69285L27.0216 7.29548C26.2531 8.48545 25.9291 10.0715 26.0437 11.5133C26.1342 12.4017 26.4368 13.3999 27.0216 14.1244C24.8263 15.4236 22.8024 15.1286 13.8401 15.1286H0.00306372C-0.0371042 17.1933 0.287988 21.1642 2.76341 24.397C3.03708 24.7543 3.33647 25.0996 3.6621 25.4323C5.67478 27.4882 8.71576 28.9962 13.2628 29C20.2 29.0066 26.1433 25.181 29.7589 15.9323C30.9485 15.9519 34.0891 16.1497 35.6261 13.1202C35.6636 13.0694 36.0171 12.317 36.0171 12.317L35.4312 11.9155V11.9149ZM9.03335 10.0273H5.14242V13.9965H9.03335V10.0273ZM14.0597 10.0273H10.1688V13.9965H14.0597V10.0273ZM19.0866 10.0273H15.1957V13.9965H19.0866V10.0273ZM24.1135 10.0273H20.2225V13.9965H24.1135V10.0273ZM4.00647 10.0273H0.115534V13.9965H4.00647V10.0273ZM9.03335 5.0139H5.14242V8.98318H9.03335V5.0139ZM14.0597 5.0139H10.1688V8.98318H14.0597V5.0139ZM19.0866 5.0139H15.1957V8.98318H19.0866V5.0139ZM19.0866 0H15.1957V3.96927H19.0866V0Z" fill="black" fill-opacity="0.5"/>
    <path d="M124.758 22.9088C124.758 23.9436 123.962 24.756 122.926 24.756C121.89 24.756 121.083 23.9436 121.083 22.9088C121.083 21.874 121.901 21.084 122.926 21.084C123.952 21.084 124.758 21.8964 124.758 22.9088ZM121.541 22.9088C121.541 23.7212 122.13 24.3665 122.937 24.3665C123.745 24.3665 124.301 23.7212 124.301 22.9203C124.301 22.1193 123.723 21.4511 122.927 21.4511C122.132 21.4511 121.542 22.1079 121.542 22.9088H121.541ZM122.643 23.866H122.229V22.0412C122.392 22.0079 122.621 21.9855 122.915 21.9855C123.254 21.9855 123.406 22.0412 123.537 22.1193C123.636 22.1969 123.712 22.3417 123.712 22.5198C123.712 22.7203 123.559 22.876 123.342 22.9427V22.9651C123.515 23.0312 123.614 23.1651 123.669 23.4098C123.723 23.6879 123.755 23.7994 123.8 23.866H123.353C123.298 23.7994 123.265 23.6327 123.211 23.4207C123.178 23.2208 123.069 23.1317 122.839 23.1317H122.643V23.8666V23.866ZM122.654 22.8312H122.85C123.079 22.8312 123.264 22.7536 123.264 22.5646C123.264 22.3974 123.145 22.2854 122.882 22.2854C122.774 22.2854 122.697 22.2969 122.654 22.3089V22.8312Z" fill="black" fill-opacity="0.5"/>
    <path d="M54.4764 4.44115C54.2198 4.18545 53.9119 4.05542 53.5429 4.05542C53.1738 4.05542 52.8568 4.18545 52.6099 4.44115C52.3624 4.69684 52.2414 5.02465 52.2414 5.4153V11.9388C50.9721 10.8685 49.5073 10.3287 47.8411 10.3287C45.9045 10.3287 44.2485 11.0422 42.8764 12.4742C41.5042 13.9013 40.823 15.6278 40.823 17.6526C40.823 19.6774 41.5091 21.3989 42.8764 22.8309C44.2485 24.258 45.9002 24.9765 47.8411 24.9765C49.7821 24.9765 51.4156 24.2629 52.8059 22.8309C54.178 21.4181 54.8593 19.6921 54.8593 17.6526V5.4153C54.8593 5.02465 54.7334 4.69684 54.4764 4.44115ZM51.896 19.4173V19.4271C51.6673 19.9817 51.3545 20.4685 50.9582 20.8832C50.5619 21.3028 50.0948 21.6306 49.563 21.8764C49.0264 22.1223 48.4571 22.243 47.846 22.243C47.2349 22.243 46.6516 22.1223 46.115 21.8764C45.5783 21.6306 45.1162 21.3028 44.7246 20.8881C44.3326 20.4734 44.0204 19.9866 43.7917 19.4321C43.563 18.8726 43.4462 18.2798 43.4462 17.6526C43.4462 17.0254 43.563 16.4326 43.7917 15.8731C44.0204 15.3136 44.3331 14.8317 44.7246 14.4171C45.1167 14.0024 45.5832 13.6746 46.115 13.4287C46.6516 13.1828 47.2258 13.0621 47.846 13.0621C48.4662 13.0621 49.0264 13.1828 49.563 13.4287C50.0997 13.6746 50.5619 14.0024 50.9582 14.422C51.3545 14.8416 51.6673 15.3284 51.896 15.878C52.1247 16.4326 52.2414 17.021 52.2414 17.6477C52.2414 18.2743 52.1247 18.8677 51.896 19.4173Z" fill="black" fill-opacity="0.5"/>
    <path d="M112.458 14.8413C112.117 13.9731 111.599 13.1875 110.918 12.4832L110.909 12.4783C109.523 11.0512 107.866 10.3328 105.944 10.3328C104.022 10.3328 102.351 11.0463 100.979 12.4783C99.6065 13.9054 98.9258 15.6319 98.9258 17.6567C98.9258 19.6815 99.6119 21.403 100.979 22.835C102.351 24.2621 104.003 24.9806 105.944 24.9806C107.707 24.9806 109.233 24.3878 110.531 23.2016C110.782 22.9317 110.909 22.6039 110.909 22.2226C110.909 21.8412 110.788 21.5041 110.54 21.2484C110.293 20.9927 109.98 20.8627 109.607 20.8627C109.281 20.8725 108.991 20.9834 108.744 21.2052C108.352 21.5522 107.927 21.8177 107.465 21.9914C107.003 22.1652 106.499 22.2521 105.949 22.2521C105.464 22.2521 104.997 22.175 104.554 22.016C104.11 21.857 103.696 21.6396 103.327 21.3555C102.953 21.0708 102.631 20.7337 102.356 20.3333C102.081 19.9377 101.871 19.499 101.731 19.0171H111.656C112.024 19.0171 112.332 18.8871 112.589 18.6314C112.846 18.3757 112.972 18.0478 112.972 17.6572C112.972 16.6448 112.799 15.7045 112.459 14.8413H112.458ZM101.721 16.2973C101.856 15.8198 102.062 15.3811 102.337 14.9812C102.613 14.5856 102.939 14.2436 103.312 13.9589C103.69 13.6743 104.1 13.4574 104.553 13.2984C105.005 13.1394 105.467 13.0624 105.944 13.0624C106.421 13.0624 106.882 13.1394 107.329 13.2984C107.777 13.4574 108.189 13.6743 108.556 13.9589C108.93 14.2436 109.256 14.5807 109.532 14.9812C109.811 15.3767 110.022 15.8154 110.167 16.2973H101.72H101.721Z" fill="black" fill-opacity="0.5"/>
    <path d="M124.655 11.249C124.422 11.0129 124.128 10.8294 123.773 10.6944C123.419 10.5595 123.031 10.4677 122.607 10.4147C122.187 10.3617 121.79 10.3376 121.422 10.3376C120.586 10.3376 119.802 10.4775 119.065 10.7572C118.328 11.037 117.647 11.4369 117.021 11.9576V11.6975C117.021 11.3216 116.895 11.0031 116.638 10.7381C116.382 10.4731 116.079 10.3382 115.72 10.3382C115.361 10.3382 115.043 10.4731 114.787 10.7381C114.53 11.0031 114.404 11.3266 114.404 11.6975V23.6217C114.404 23.9976 114.53 24.3162 114.787 24.5811C115.043 24.8461 115.351 24.9811 115.72 24.9811C116.089 24.9811 116.386 24.8461 116.638 24.5811C116.895 24.3162 117.021 23.9927 117.021 23.6217V17.6572C117.021 17.0207 117.138 16.423 117.367 15.8635C117.595 15.304 117.908 14.8221 118.304 14.4074C118.702 13.9928 119.168 13.665 119.7 13.4284C120.236 13.1874 120.806 13.0667 121.418 13.0667C122.029 13.0667 122.607 13.1776 123.135 13.3945C123.344 13.4912 123.527 13.5393 123.685 13.5393C123.867 13.5393 124.04 13.5054 124.198 13.4333C124.357 13.3612 124.497 13.2645 124.614 13.1394C124.731 13.0142 124.823 12.8695 124.894 12.7006C124.964 12.5367 125.001 12.3581 125.001 12.1652C125.001 11.7893 124.884 11.4855 124.651 11.249H124.656H124.655Z" fill="black" fill-opacity="0.5"/>
    <path d="M69.865 14.8461C69.5244 13.9829 69.0156 13.1923 68.33 12.4788C66.9445 11.0517 65.288 10.3333 63.3653 10.3333C61.4426 10.3333 59.7726 11.0468 58.4005 12.4788C57.0284 13.9059 56.3477 15.6324 56.3477 17.6571C56.3477 19.6819 57.0337 21.4035 58.4005 22.8355C59.7726 24.2626 61.4244 24.981 63.3653 24.981C65.3062 24.981 66.9397 24.2675 68.33 22.8355C69.7022 21.4226 70.3834 19.6967 70.3834 17.6571C70.3738 16.6448 70.2013 15.7094 69.8655 14.8461H69.865ZM67.4201 19.417V19.4268C67.1914 19.9813 66.8786 20.4681 66.4823 20.8828C66.086 21.3024 65.619 21.6302 65.0871 21.8761C64.5553 22.122 63.9812 22.2427 63.3701 22.2427C62.759 22.2427 62.1758 22.122 61.6391 21.8761C61.1025 21.6302 60.6403 21.3024 60.2488 20.8877C59.8567 20.4731 59.5445 19.9863 59.3158 19.4317C59.0871 18.8722 58.9704 18.2794 58.9704 17.6522C58.9704 17.025 59.0871 16.4322 59.3158 15.8727C59.5445 15.3133 59.8573 14.8314 60.2488 14.4167C60.6408 14.002 61.1073 13.6742 61.6391 13.4284C62.1758 13.1825 62.7499 13.0618 63.3701 13.0618C63.9903 13.0618 64.5505 13.1825 65.0871 13.4284C65.6238 13.6742 66.086 14.002 66.4823 14.4216C66.8786 14.8412 67.1914 15.328 67.4201 15.8777C67.6488 16.4322 67.7655 17.0206 67.7655 17.6473C67.7655 18.274 67.6488 18.8673 67.4201 19.417Z" fill="black" fill-opacity="0.5"/>
    <path d="M97.936 11.6927C97.936 11.5096 97.8985 11.3359 97.8289 11.172C97.7587 11.0081 97.6655 10.8589 97.5488 10.7333C97.432 10.6081 97.2923 10.5065 97.1337 10.4393C96.9752 10.3721 96.8027 10.3333 96.6206 10.3333C96.3593 10.3333 96.1258 10.4011 95.9207 10.5409L88.4269 15.6281V5.42487C88.4269 5.03914 88.3011 4.71624 88.0445 4.45071C87.788 4.18573 87.4848 4.05078 87.1255 4.05078C86.7661 4.05078 86.449 4.18573 86.192 4.45071C85.9354 4.7157 85.8096 5.03914 85.8096 5.42487V23.6027C85.8096 23.9785 85.9354 24.302 86.192 24.5719C86.4485 24.8418 86.7565 24.9767 87.1255 24.9767C87.4945 24.9767 87.7928 24.8418 88.0445 24.5719C88.3011 24.302 88.4269 23.9785 88.4269 23.6027V18.8821L89.9576 17.8359L95.7482 24.62C95.9817 24.856 96.2757 24.9718 96.6255 24.9718C96.8076 24.9718 96.98 24.9379 97.1385 24.8658C97.2971 24.7981 97.4374 24.697 97.5536 24.5719C97.6704 24.4468 97.7636 24.302 97.8337 24.1332C97.9039 23.9693 97.9408 23.7906 97.9408 23.6125C97.9408 23.2557 97.8198 22.9372 97.5766 22.658L92.1872 16.3274L97.4363 12.769C97.7721 12.5329 97.9355 12.1713 97.9355 11.6839V11.6937L97.936 11.6927Z" fill="black" fill-opacity="0.5"/>
    <path d="M75.7493 14.4076C76.1504 13.9929 76.6174 13.6651 77.1541 13.4285C77.6907 13.1876 78.26 13.0668 78.8711 13.0668C79.4217 13.0668 79.9305 13.1635 80.4018 13.3558C80.8683 13.5487 81.3166 13.8333 81.7407 14.2043C81.9924 14.4114 82.2774 14.5174 82.5944 14.5174C82.9725 14.5174 83.2805 14.3873 83.5279 14.1267C83.7754 13.8661 83.8964 13.5383 83.8964 13.1477C83.8964 12.757 83.747 12.3953 83.4438 12.1161C82.1558 10.93 80.6305 10.3367 78.8711 10.3367C76.9345 10.3367 75.2785 11.0502 73.9064 12.4822C72.5342 13.9093 71.8535 15.6358 71.8535 17.6606C71.8535 19.6854 72.5396 21.4069 73.9064 22.8389C75.2785 24.266 76.9302 24.9845 78.8711 24.9845C80.6257 24.9845 82.1515 24.3917 83.4438 23.205C83.7191 22.916 83.8595 22.5832 83.8595 22.1975C83.8595 21.8118 83.7379 21.479 83.491 21.2234C83.2435 20.9677 82.9313 20.8376 82.558 20.8376C82.2409 20.8475 81.9651 20.9436 81.7322 21.1266C81.3123 21.5025 80.8736 21.7823 80.4023 21.9702C79.9358 22.1582 79.4271 22.25 78.8717 22.25C78.2606 22.25 77.6913 22.1292 77.1546 21.8883C76.618 21.6473 76.1515 21.3195 75.7498 20.9097C75.3487 20.5 75.0311 20.0083 74.8024 19.4537C74.5737 18.8942 74.4569 18.2965 74.4569 17.66C74.4569 17.0235 74.5737 16.4258 74.8024 15.8663C75.0311 15.3069 75.3481 14.825 75.7498 14.4103V14.4054L75.7493 14.4076Z" fill="black" fill-opacity="0.5"/>
  </g>
  <defs>
    <clipPath id="clip0_758_3275">
      <rect width="125" height="29" fill="white"/>
    </clipPath>
  </defs>
</svg>