<svg xmlns="http://www.w3.org/2000/svg" width="106" height="42" viewBox="0 0 106 42" fill="none">
  <g clip-path="url(#clip0_758_3285)">
    <path d="M63.4062 17.3469C64.2909 17.3469 64.9555 16.9741 65.41 16.4619V14.4295C63.7813 14.5299 62.1934 14.9417 62.1934 16.2826C62.1934 16.9146 62.6826 17.3469 63.4062 17.3469ZM65.41 12.8325V11.9085C65.41 11.1166 64.9555 10.6444 63.9566 10.6444C62.9578 10.6444 61.8978 11.0603 60.6034 11.6892L59.5841 9.55953C60.9947 8.85167 62.6418 8.35894 64.0759 8.35894C67.0938 8.35894 68.272 9.83611 68.272 12.0047V16.4219C68.272 16.9905 68.6074 17.2506 69.1364 17.2506V19.239C67.1539 19.239 66.3294 18.9429 65.7403 17.938C64.8607 18.8835 63.8812 19.4152 62.4685 19.4152C60.6237 19.4152 59.3293 18.2945 59.3293 16.6186C59.3293 14.3096 61.5044 13.109 65.41 12.8325ZM70.9118 8.59455H73.6189L73.7545 9.81562C74.523 9.01148 75.638 8.33948 76.9549 8.33948C79.3093 8.33948 80.3081 9.79616 80.3081 12.185V19.1796H77.4258V12.1041C77.4258 11.1566 77.0313 10.5081 76.0518 10.5081C75.1682 10.5081 74.4037 10.9599 73.7749 11.7476V19.1796H70.9118M54.3779 5.38206V14.5698C54.3779 15.9855 53.6889 16.7948 52.4944 16.7948C51.6892 16.7948 51.0613 16.3984 50.568 15.7294L48.6009 17.519C49.616 18.7514 50.9889 19.4193 52.6493 19.4193C55.5123 19.4193 57.3398 17.7823 57.3398 14.6251V5.38206M54.067 28.1389C52.5616 27.7547 51.2601 27.4218 51.2601 26.2981C51.2601 25.3618 52.1519 24.7297 53.4779 24.7297C54.7234 24.7297 56.0056 25.037 57.192 25.6138L58.2234 23.4093C56.6029 22.6482 55.0027 22.2763 53.3383 22.2763C50.3876 22.2763 48.3257 23.9491 48.3257 26.338C48.3257 29.3753 50.7984 30.0197 52.9836 30.5913C54.5124 30.9908 55.8344 31.336 55.8344 32.4885C55.8344 33.4965 54.9548 34.0967 53.4779 34.0967C52.1998 34.0967 50.7627 33.6645 49.4163 32.8726L48.0831 35.073C49.5478 35.9745 51.6616 36.5502 53.4973 36.5502C56.7507 36.5502 58.7728 34.9777 58.7728 32.4485C58.7728 29.3313 56.1646 28.6706 54.067 28.1389ZM61.0936 27.7742H59.4261V25.7254H61.0936V23.0846H63.977V25.7254H66.3335V27.7742H63.977V33.0396C63.977 33.8253 64.2716 34.2207 64.9402 34.2207C65.4702 34.2207 65.9594 34.0445 66.3691 33.7495L67.4291 35.4807C66.5461 36.1636 65.4652 36.5377 64.3511 36.5461C62.1526 36.5461 61.0936 35.4653 61.0936 33.0969M68.7378 25.7254H71.3858L71.5805 27.3624C72.3857 25.9416 73.3845 25.4294 74.5831 25.4294C75.0724 25.4294 75.5229 25.5093 75.8775 25.6455L75.4627 28.2864C75.0107 28.1236 74.5332 28.0438 74.0531 28.0508C72.9748 28.0508 72.2491 28.7228 71.6009 29.9428V36.3094H68.7378M99.5064 27.7742H97.8379V25.7254H99.5064V23.0846H102.389V25.7254H104.746V27.7742H102.389V33.0396C102.389 33.8253 102.684 34.2207 103.348 34.2207C103.878 34.2207 104.367 34.0445 104.782 33.7495L105.841 35.4807C104.958 36.1636 103.877 36.5377 102.763 36.5461C100.565 36.5461 99.5064 35.4653 99.5064 33.0969M87.3867 10.4036C88.7606 10.4036 89.2702 11.428 89.2702 12.7689H85.0139C85.2891 11.2324 86.2085 10.4036 87.3867 10.4036ZM87.3072 8.31489C84.3851 8.31489 82.0317 10.4046 82.0317 13.7974C82.0317 17.3418 84.2301 19.4111 87.3276 19.4111C88.8798 19.4141 90.3946 18.933 91.6634 18.0343L90.4648 16.1986C89.5852 16.7507 88.6016 17.1062 87.5426 17.1062C86.0892 17.1062 85.2606 16.3584 85.0098 14.8536H91.802C91.8784 14.4018 91.9936 13.9296 91.9936 13.1449C91.9936 10.3043 90.3292 8.31489 87.3072 8.31489ZM92.4034 27.5386C93.7732 27.5386 94.2828 28.563 94.2828 29.9029H90.0265C90.3017 28.3663 91.2251 27.5386 92.4034 27.5386ZM92.3239 25.4488C89.4017 25.4488 87.0442 27.5386 87.0442 30.9314C87.0442 34.4768 89.2427 36.5502 92.3442 36.5502C93.9128 36.5502 95.3815 36.0738 96.676 35.1693L95.4814 33.3326C94.5967 33.8857 93.6183 34.2412 92.5583 34.2412C91.1008 34.2412 90.2732 33.4934 90.0265 31.9875H96.8146C96.8941 31.5368 97.0103 31.0635 97.0103 30.2799C97.0103 27.4382 95.3418 25.4488 92.3239 25.4488ZM81.3906 27.5386C82.7645 27.5386 83.2741 28.563 83.2741 29.9029H79.0178C79.293 28.3663 80.2164 27.5386 81.3906 27.5386ZM81.3151 25.4488C78.393 25.4488 76.0355 27.5386 76.0355 30.9314C76.0355 34.4768 78.234 36.5502 81.3314 36.5502C82.9041 36.5502 84.3728 36.0738 85.6713 35.1693L84.4727 33.3326C83.589 33.8857 82.6096 34.2412 81.5506 34.2412C80.0931 34.2412 79.2655 33.4934 79.0137 31.9875H85.8069C85.8864 31.5368 86.0005 31.0635 86.0005 30.2799C86.0005 27.4423 84.3331 25.4488 81.3151 25.4488ZM6.60451 28.9226C9.42778 33.7648 14.6666 37.0183 20.6434 37.0019C29.582 36.9743 36.8359 29.6468 36.8115 20.6598C36.788 11.6728 29.4934 4.38226 20.5517 4.40582C11.613 4.42938 4.35915 11.764 4.38361 20.7479C4.38864 21.8204 4.49788 22.8898 4.70976 23.9409C4.74136 24.0731 4.87691 24.1458 5.00534 24.113L7.26191 23.5496C7.29369 23.5426 7.32377 23.5293 7.35043 23.5106C7.37708 23.4918 7.39977 23.4679 7.41721 23.4403C7.43464 23.4127 7.44646 23.3819 7.452 23.3497C7.45753 23.3174 7.45667 23.2844 7.44945 23.2526H7.45251C7.29282 22.4245 7.21159 21.5832 7.20993 20.7397C7.18955 13.3211 13.1785 7.26694 20.5598 7.24645C27.9452 7.22597 33.9688 13.2494 33.9851 20.668C34.0086 28.0867 28.0165 34.1408 20.6352 34.1613C15.746 34.1726 11.454 31.5358 9.10978 27.598C9.07834 27.5402 9.02625 27.4965 8.96401 27.4758C8.90177 27.455 8.83402 27.4588 8.77445 27.4864L6.70847 28.5825C6.64989 28.6138 6.60606 28.6672 6.58657 28.7309C6.56709 28.7947 6.57354 28.8636 6.60451 28.9226Z" fill="black" fill-opacity="0.5"/>
    <path d="M29.1316 24.2249L31.1904 25.3333C31.3127 25.3978 31.4758 25.362 31.5247 25.2298C32.1089 23.8278 32.4146 22.3244 32.4247 20.8045C32.4797 14.2494 27.2164 8.87543 20.6954 8.81909H20.5955C14.1295 8.81909 8.82644 14.1049 8.77039 20.6037C8.71943 27.1587 13.9787 32.5368 20.4997 32.589L20.5996 32.5921C23.6889 32.5921 26.5081 31.3833 28.6219 29.4155C28.7259 29.3233 28.7453 29.1635 28.6495 29.059L26.8943 27.4671C26.7904 27.3749 26.6355 27.3954 26.5437 27.4825L26.5397 27.4784C24.9036 28.9419 22.7898 29.7508 20.5996 29.7515H20.5242C15.5595 29.7074 11.558 25.6181 11.5977 20.6283C11.6375 15.6825 15.6747 11.6567 20.5955 11.6567H20.675C25.6356 11.7007 29.6412 15.7942 29.5973 20.7799C29.5889 21.841 29.3936 22.8922 29.0205 23.8848C28.9929 23.9451 28.9891 24.0137 29.0097 24.0767C29.0303 24.1398 29.0738 24.1927 29.1316 24.2249Z" fill="black" fill-opacity="0.5"/>
    <path d="M32.5084 3.81791C32.3962 3.74108 32.2454 3.76157 32.17 3.87733L30.847 5.79806C30.7706 5.91074 30.7828 6.06645 30.8949 6.14635C35.4203 9.39162 38.3832 14.7051 38.3791 20.7081C38.3791 30.5596 30.4047 38.5704 20.6027 38.5704C10.8008 38.5704 2.82531 30.5555 2.82531 20.6999C2.82531 10.8524 10.8008 2.83757 20.6068 2.84064C22.6788 2.83896 24.735 3.20339 26.6814 3.91728C26.7423 3.93914 26.8093 3.93641 26.8682 3.90966C26.9271 3.88291 26.9734 3.83423 26.9974 3.77386L27.8291 1.58064C27.8508 1.52104 27.8488 1.45532 27.8236 1.39714C27.7983 1.33896 27.7517 1.29278 27.6935 1.2682C25.425 0.427152 23.0258 -0.0022489 20.6078 8.85715e-06C9.24442 -0.0040887 0.00407692 9.28406 0 20.7029C0 32.1198 9.24442 41.412 20.6037 41.412C31.9621 41.412 41.2075 32.1239 41.2075 20.7081C41.2075 13.7422 37.7676 7.57128 32.5084 3.81791Z" fill="black" fill-opacity="0.5"/>
  </g>
  <defs>
    <clipPath id="clip0_758_3285">
      <rect width="106" height="42" fill="white"/>
    </clipPath>
  </defs>
</svg>