<svg xmlns="http://www.w3.org/2000/svg" width="119" height="25" viewBox="0 0 119 25" fill="none">
<path d="M119 11.3096V9.25023H116.401V6.04863L116.313 6.07514L113.872 6.81009L113.824 6.82448V9.25035H109.972V7.89893C109.972 7.26966 110.115 6.78811 110.396 6.46697C110.676 6.14967 111.076 5.98836 111.587 5.98836C111.954 5.98836 112.334 6.07344 112.716 6.2412L112.812 6.28334V4.1145L112.767 4.09819C112.41 3.972 111.925 3.90845 111.324 3.90845C110.566 3.90845 109.877 4.07078 109.276 4.39249C108.675 4.71465 108.202 5.17457 107.871 5.75931C107.541 6.34338 107.374 7.01796 107.374 7.76447V9.25023H105.564V11.3096H107.374V19.9856H109.972V11.3096H113.824V16.823C113.824 19.0937 114.913 20.2444 117.059 20.2444C117.412 20.2444 117.783 20.2037 118.162 20.1241C118.548 20.0423 118.811 19.9607 118.966 19.8734L119 19.8535V17.775L118.894 17.8438C118.753 17.9362 118.578 18.0118 118.372 18.068C118.165 18.1252 117.992 18.1539 117.859 18.1539C117.356 18.1539 116.984 18.0205 116.753 17.7574C116.52 17.4918 116.401 17.0275 116.401 16.378V11.3096H119ZM99.7628 18.1542C98.8199 18.1542 98.0765 17.8465 97.5526 17.2405C97.0255 16.6314 96.7584 15.763 96.7584 14.6596C96.7584 13.5213 97.0255 12.6304 97.5528 12.0105C98.077 11.3947 98.8133 11.0822 99.7416 11.0822C100.642 11.0822 101.359 11.3807 101.873 11.9698C102.389 12.5621 102.651 13.4459 102.651 14.5975C102.651 15.7632 102.405 16.6587 101.919 17.2577C101.437 17.8522 100.711 18.1542 99.7628 18.1542ZM99.8782 8.99162C98.0793 8.99162 96.6505 9.51032 95.6318 10.5333C94.6137 11.5565 94.0975 12.9724 94.0975 14.742C94.0975 16.4228 94.6014 17.7748 95.5953 18.7598C96.5892 19.7451 97.9418 20.2442 99.6152 20.2442C101.359 20.2442 102.759 19.7182 103.778 18.6811C104.796 17.645 105.312 16.2425 105.312 14.5142C105.312 12.8071 104.828 11.445 103.872 10.4666C102.917 9.48778 101.573 8.99162 99.8782 8.99162ZM89.909 8.99162C88.6854 8.99162 87.6731 9.29962 86.8999 9.90691C86.122 10.5178 85.7274 11.319 85.7274 12.2886C85.7274 12.7926 85.8125 13.2403 85.9801 13.62C86.1488 14.0009 86.4098 14.3363 86.7565 14.6178C87.1006 14.8971 87.6317 15.1896 88.3355 15.4872C88.9272 15.7267 89.3685 15.9294 89.6488 16.0891C89.9227 16.2457 90.1172 16.403 90.227 16.5563C90.3337 16.7063 90.3878 16.9115 90.3878 17.1648C90.3878 17.8861 89.8389 18.237 88.7095 18.237C88.2906 18.237 87.8128 18.1509 87.2894 17.9812C86.7696 17.8141 86.2791 17.5693 85.835 17.2555L85.7271 17.1794V19.6406L85.7667 19.6588C86.1343 19.8257 86.5977 19.9665 87.144 20.0773C87.6891 20.1882 88.1845 20.2446 88.6148 20.2446C89.9426 20.2446 91.012 19.9352 91.7922 19.3243C92.5774 18.7091 92.9753 17.889 92.9753 16.8859C92.9753 16.1623 92.7611 15.5417 92.3389 15.0413C91.9195 14.5449 91.1916 14.0892 90.1764 13.6864C89.3676 13.3669 88.8495 13.1017 88.6357 12.8982C88.4297 12.7015 88.325 12.4234 88.325 12.0712C88.325 11.759 88.4542 11.5089 88.7193 11.3064C88.9865 11.1028 89.3584 10.9993 89.8249 10.9993C90.2577 10.9993 90.7006 11.0665 91.141 11.1984C91.5811 11.3303 91.9676 11.5069 92.2903 11.7229L92.3964 11.7943V9.45957L92.3557 9.44235C92.058 9.31673 91.6655 9.20923 91.1886 9.122C90.714 9.03534 90.2835 8.99162 89.909 8.99162ZM78.955 18.1542C78.0123 18.1542 77.2687 17.8465 76.7449 17.2405C76.2177 16.6314 75.9511 15.7632 75.9511 14.6596C75.9511 13.5213 76.218 12.6304 76.7455 12.0105C77.2693 11.3947 78.0054 11.0822 78.9342 11.0822C79.8346 11.0822 80.5517 11.3807 81.0654 11.9698C81.5817 12.5621 81.8436 13.4459 81.8436 14.5975C81.8436 15.7632 81.5971 16.6587 81.1114 17.2577C80.6289 17.8522 79.9038 18.1542 78.955 18.1542ZM79.0708 8.99162C77.2715 8.99162 75.8425 9.51032 74.8243 10.5333C73.8063 11.5565 73.2897 12.9724 73.2897 14.742C73.2897 16.4235 73.7939 17.7748 74.7878 18.7598C75.7817 19.7451 77.1342 20.2442 78.8077 20.2442C80.5512 20.2442 81.9519 19.7182 82.9702 18.6811C83.9882 17.645 84.5043 16.2425 84.5043 14.5142C84.5043 12.8071 84.0201 11.445 83.0647 10.4666C82.1089 9.48778 80.7651 8.99162 79.0708 8.99162ZM69.3463 11.1094V9.25023H66.7802V19.9853H69.3463V14.4939C69.3463 13.5602 69.5615 12.793 69.986 12.2136C70.4052 11.6411 70.9637 11.351 71.6457 11.351C71.8768 11.351 72.1363 11.3885 72.4173 11.4627C72.6954 11.5364 72.8968 11.6165 73.0156 11.7008L73.1235 11.7777V9.23188L73.082 9.21432C72.843 9.11441 72.5049 9.064 72.0771 9.064C71.4322 9.064 70.8552 9.2679 70.3609 9.66937C69.927 10.0222 69.6134 10.506 69.3736 11.1094H69.3463ZM62.1847 8.99162C61.0074 8.99162 59.9573 9.24004 59.0641 9.72974C58.1691 10.2206 57.4769 10.9213 57.006 11.8124C56.5371 12.7013 56.2991 13.7396 56.2991 14.8975C56.2991 15.9118 56.5299 16.8426 56.9861 17.663C57.4425 18.4847 58.0885 19.1276 58.9063 19.5735C59.723 20.0188 60.6668 20.2445 61.7118 20.2445C62.9313 20.2445 63.9725 20.0046 64.8074 19.5314L64.8411 19.5124V17.1989L64.7332 17.2764C64.3551 17.5475 63.9325 17.7638 63.4778 17.9197C63.0242 18.0755 62.6107 18.1542 62.2481 18.1542C61.2412 18.1542 60.4329 17.8441 59.8461 17.2329C59.2581 16.6208 58.96 15.7614 58.96 14.6799C58.96 13.5917 59.2709 12.7101 59.8836 12.0597C60.4946 11.4111 61.3044 11.0822 62.2905 11.0822C63.1339 11.0822 63.9558 11.3632 64.7335 11.9183L64.8411 11.9952V9.55756L64.8063 9.5383C64.5137 9.37711 64.1146 9.244 63.6191 9.14307C63.1258 9.04237 62.6432 8.99162 62.1847 8.99162ZM54.5317 9.25035H51.9656V19.9853H54.5317V9.25035ZM53.2749 4.67716C52.8525 4.67716 52.4842 4.81864 52.1815 5.09901C51.8776 5.38017 51.7235 5.73417 51.7235 6.15194C51.7235 6.56314 51.8758 6.91068 52.1768 7.18436C52.4759 7.45725 52.8454 7.59557 53.275 7.59557C53.7045 7.59557 54.0754 7.45725 54.378 7.18482C54.6826 6.91068 54.8371 6.56325 54.8371 6.15194C54.8371 5.74878 54.6868 5.39841 54.3906 5.11034C54.0946 4.82284 53.7191 4.67716 53.2749 4.67716ZM46.8722 8.4583V19.9853H49.4911V5.00578H45.8664L41.2593 16.1322L36.7883 5.00578H33.0161V19.9852H35.4772V8.45717H35.5617L40.2829 19.9853H42.1401L46.7877 8.4583H46.8722Z" fill="black" fill-opacity="0.5"/>
<path d="M12.0719 11.8793H0V0H12.0719V11.8793Z" fill="black" fill-opacity="0.5"/>
<path d="M25.4005 11.8793H13.3289V0H25.4005V11.8793Z" fill="black" fill-opacity="0.5"/>
<path d="M12.0716 25.0001H0V13.1208H12.0716V25.0001Z" fill="black" fill-opacity="0.5"/>
<path d="M25.4005 25.0001H13.3289V13.1208H25.4005V25.0001Z" fill="black" fill-opacity="0.5"/>
</svg>