<svg xmlns="http://www.w3.org/2000/svg" width="78" height="62" viewBox="0 0 78 62" fill="none">
  <g clip-path="url(#clip0_2449_111)">
    <path fill-rule="evenodd" clip-rule="evenodd" d="M54.3369 23.0288L60.5885 16.0148L51.4088 14.0135L52.3442 4.66413L43.7409 8.44039L38.9997 0.327423L34.2617 8.43957L25.6599 4.66088L26.5932 14.0103L17.4125 16.0099L23.6631 23.0256L17.4115 30.0395L26.5912 32.0408L25.6561 41.3898L34.2591 37.6136L39.0001 45.7265L43.7381 37.6148L52.3403 41.393L51.4072 32.0436L60.5875 30.044L54.3369 23.0288ZM57.3695 28.3052L51.9543 26.453L48.3615 21.7834L53.1404 23.5588L57.3695 28.3052ZM42.8614 36.6454L39.6228 42.1901V36.3105L42.9892 31.3986L42.8614 36.6454ZM37.1885 13.6569L31.6158 11.6752L28.2815 7.17335L34.1256 9.74043L37.1885 13.6569ZM43.877 9.74162L49.7205 7.17621L46.3842 11.6752L40.813 13.6563L43.877 9.74162ZM50.1304 14.2786L47.2243 18.3997L47.389 12.4119L50.7737 7.84766L50.1304 14.2786ZM38.9999 35.0157L35.1008 29.3267L38.9999 24.036L42.899 29.3267L38.9999 35.0157ZM32.0656 19.9923L31.8758 13.0897L38.377 15.4016V22.1189L32.0656 19.9923ZM39.6228 15.4016L46.1242 13.0897L45.9342 19.9923L39.6228 22.1189V15.4016ZM27.8718 14.2761L27.2298 7.84652L30.6109 12.4116L30.7755 18.3979L27.8718 14.2761ZM37.992 23.3041L34.0943 28.5928L27.4728 26.6408L31.6774 21.1764L37.992 23.3041ZM35.0098 31.3974L38.377 36.3105V42.1912L35.1357 36.6443L35.0098 31.3974ZM40.0078 23.3041L46.3225 21.1764L50.5272 26.6408L43.9055 28.5928L40.0078 23.3041ZM58.2397 16.778L53.3207 22.2967L47.5203 20.1418L51.0048 15.2004L58.2397 16.778ZM39.0001 2.79708L42.732 9.18312L39.0001 13.9512L35.2707 9.18247L39.0001 2.79708ZM19.7613 16.7731L26.9971 15.1977L30.4798 20.1414L24.6797 22.2935L19.7613 16.7731ZM24.8593 23.5557L29.6394 21.782L26.0462 26.4524L20.6287 28.3021L24.8593 23.5557ZM20.9024 29.5254L26.4389 27.6351L32.2053 29.3348L27.2369 30.9067L20.9024 29.5254ZM27.8452 32.0205L33.7339 30.1575L33.8841 36.4172L27.1078 39.3922L27.8452 32.0205ZM44.113 36.4187L44.2655 30.1578L50.1531 32.0228L50.8889 39.3946L44.113 36.4187ZM50.7614 30.9089L45.7933 29.3351L51.5615 27.6349L57.0989 29.529L50.7614 30.9089Z" fill="black" fill-opacity="0.5"/>
    <path fill-rule="evenodd" clip-rule="evenodd" d="M0 50.4975H2.68848L3.95412 57.4822L5.81877 50.4975H8.18285L10.3963 57.6042L11.691 50.4975H14.2457L12.0601 60.9486H9.11058L7.14941 54.4281L5.14291 60.9486H2.0486L0 50.4975ZM78 60.9486H75.3114L74.0482 53.9387L72.1814 60.9486H69.8167L67.6124 53.8434L66.3093 60.9486H63.7541L65.9399 50.4975H68.8891L70.85 57.0232L72.8581 50.4975H75.9512L78 60.9486ZM19.8762 50.3167C23.278 50.3167 25.0526 52.3691 25.0526 55.7228C25.0526 59.0467 23.2487 61.1271 19.8762 61.1271C16.5051 61.1271 14.7011 59.0467 14.7011 55.7228C14.7011 52.3691 16.4754 50.3167 19.8762 50.3167ZM19.8762 59.0612C21.5478 59.0612 22.2126 57.4441 22.2126 55.7228C22.2126 53.9096 21.5478 52.3832 19.8762 52.3832C18.2049 52.3832 17.5398 53.9096 17.5398 55.7228C17.5398 57.4441 18.2049 59.0612 19.8762 59.0612ZM26.5907 50.496H29.3418V58.8812H33.6007V60.9464H26.5907V50.496ZM34.7395 50.496H41.6432V52.4728H37.4895V54.7645H41.4661V56.7396H37.4895V60.9464H34.7395L34.7395 50.496ZM43.0815 50.496H47.991C49.8252 50.496 51.3189 51.3339 51.3189 53.1322C51.3189 54.5251 50.668 55.4528 49.3372 55.7671V55.7975C50.2236 56.0372 50.2838 56.8311 50.8014 58.1036L51.8058 60.9464H48.9376L48.3469 59.0612C47.7839 57.2649 47.4298 56.815 46.4094 56.815H45.8316V60.9464H43.0815V50.496ZM45.8316 54.8395H46.5576C47.4439 54.8395 48.5682 54.8091 48.5682 53.6258C48.5682 52.6532 47.6069 52.4728 46.5576 52.4728H45.8316V54.8395ZM55.9727 50.496H59.3455L63.3231 60.9464H60.3063L59.5373 58.7169H55.6635L54.8497 60.9464H52.0541L55.9727 50.496ZM57.6594 52.6532H57.6305L56.2997 56.7396H58.8863L57.6594 52.6532Z" fill="black" fill-opacity="0.5"/>
  </g>
  <defs>
    <clipPath id="clip0_2449_111">
      <rect width="78" height="61.4545" fill="white"/>
    </clipPath>
  </defs>
</svg>