<?xml version="1.0" encoding="UTF-8" standalone="no"?>
<!-- Generator: Adobe Illustrator 26.0.0, SVG Export Plug-In . SVG Version: 6.00 Build 0)  -->

<svg
   version="1.1"
   id="Layer_1"
   x="0px"
   y="0px"
   viewBox="0 0 46 40"
   style="enable-background:new 0 0 46 40;"
   xml:space="preserve"
   sodipodi:docname="camelope logo.svg"
   inkscape:version="1.2.2 (732a01da63, 2022-12-09, custom)"
   xmlns:inkscape="http://www.inkscape.org/namespaces/inkscape"
   xmlns:sodipodi="http://sodipodi.sourceforge.net/DTD/sodipodi-0.dtd"
   xmlns="http://www.w3.org/2000/svg"
   xmlns:svg="http://www.w3.org/2000/svg"><defs
   id="defs55"><linearGradient
     id="linearGradient1267"
     gradientUnits="userSpaceOnUse"
     x1="23.002399"
     y1="42"
     x2="23.002399"
     y2="2.0465"
     gradientTransform="matrix(1,0,0,-1,0,42)">
	<stop
   offset="0"
   style="stop-color:#F29100"
   id="stop38-3" />
	<stop
   offset="1"
   style="stop-color:#EC670F"
   id="stop40-6" />
</linearGradient></defs><sodipodi:namedview
   id="namedview53"
   pagecolor="#ffffff"
   bordercolor="#000000"
   borderopacity="0.25"
   inkscape:showpageshadow="2"
   inkscape:pageopacity="0.0"
   inkscape:pagecheckerboard="0"
   inkscape:deskcolor="#d1d1d1"
   showgrid="false"
   inkscape:zoom="4"
   inkscape:cx="43"
   inkscape:cy="-7.125"
   inkscape:window-width="1846"
   inkscape:window-height="1016"
   inkscape:window-x="0"
   inkscape:window-y="0"
   inkscape:window-maximized="1"
   inkscape:current-layer="Layer_1" />
<style
   type="text/css"
   id="style18">
	.st0{fill:#FFFFFF;}
	.st1{fill:#484444;}
	.st2{fill:url(#SVGID_1_);}
	.st3{fill:url(#SVGID_00000019666355307410372800000003889290272895494073_);}
	.st4{fill:url(#SVGID_00000078009838544920653140000003022816676572672415_);}
	.st5{fill:url(#SVGID_00000155143267251231807990000005331660806572861321_);}
</style>

<path
   class="st1"
   d="M23,27.1L23,27.1C23,27.1,23,27,23,27.1z"
   id="path22" />
<linearGradient
   id="SVGID_1_"
   gradientUnits="userSpaceOnUse"
   x1="23.0419"
   y1="14.9337"
   x2="23.0419"
   y2="14.8833"
   gradientTransform="matrix(1 0 0 -1 0 42)">
	<stop
   offset="0"
   style="stop-color:#F29100"
   id="stop24" />
	<stop
   offset="1"
   style="stop-color:#EC670F"
   id="stop26" />
</linearGradient>
<path
   class="st2"
   d="M23,27.1L23,27.1C23,27.1,23,27,23,27.1z"
   id="path29" />
<linearGradient
   id="SVGID_00000159432202981495199820000013440889407401948575_"
   gradientUnits="userSpaceOnUse"
   x1="16.9034"
   y1="14.6172"
   x2="16.9034"
   y2="2.0709"
   gradientTransform="matrix(1 0 0 -1 0 42)">
	<stop
   offset="0"
   style="stop-color:#F29100"
   id="stop31" />
	<stop
   offset="1"
   style="stop-color:#EC670F"
   id="stop33" />
</linearGradient>
<path
   style="fill:url(#SVGID_00000159432202981495199820000013440889407401948575_);"
   d="M23.2,38.4c-0.2-0.3-0.4-1-0.5-1.3  c-0.1-0.3-0.5-1-0.7-1.2c-0.4-0.5-0.5-0.5-0.6-1.2c-0.2-1.1-0.8-3-1.5-4.4c-0.3-0.7-0.9-1.3-1.5-1.8c-0.5-0.4-1.5-1.2-1.7-1.2  c-1.7,0.3-2.2,2-3,3.3c-0.4,0.7-0.9,1.3-1.3,2.1c-0.3,0.7-0.3,1.5-0.8,2.1c-0.6,0.6-0.9,1.3-1.2,2.1c-0.1,0.2-0.2,1.8-0.4,2.2l0,0  l2.5-0.2c2.3,0.2,1.7,1.1,5.3,0.9l5.8-0.2C23.5,39.2,23.3,38.6,23.2,38.4L23.2,38.4z"
   id="path36" />
<linearGradient
   id="SVGID_00000089567650013081133770000010991480540068032155_"
   gradientUnits="userSpaceOnUse"
   x1="23.0024"
   y1="42"
   x2="23.0024"
   y2="2.0465"
   gradientTransform="matrix(1 0 0 -1 0 42)">
	<stop
   offset="0"
   style="stop-color:#F29100"
   id="stop38" />
	<stop
   offset="1"
   style="stop-color:#EC670F"
   id="stop40" />
</linearGradient>
<path
   style="fill:url(#SVGID_00000089567650013081133770000010991480540068032155_)"
   d="M 40.2,0 H 5.9 C 2.7,0 0.1,2.6 0.1,5.8 v 12.6 c 0.8,-0.3 2,-2.1 2.4,-2.5 0.7,-0.7 0.8,-1.7 1.1,-2.3 0.7,-1.4 0.9,-2.3 2.5,-2.3 0.8,0 1.1,0.2 1.6,0.9 0.4,0.5 1,1.4 1.3,2 0.3,0.7 0.9,1.7 1.2,1.9 0.2,0.1 0.4,0.3 0.5,0.3 0.3,0.1 0.5,-0.1 0.7,-0.2 0.2,-0.2 0.3,-0.6 0.5,-1.1 0.3,-0.7 0.6,-1.6 0.8,-1.9 0.3,-0.5 0.4,-1.1 0.8,-1.5 0.5,-0.4 1.2,-0.5 1.4,-0.5 1.1,-0.2 1.6,0.5 2.1,1 0.3,0.3 0.8,0.9 1.1,1.8 0.3,0.6 0.6,1.2 0.7,1.6 0.1,0.4 0.5,0.9 0.7,1.6 0.2,0.6 0.7,1.1 0.8,1.4 0,0 0.3,0.8 2,1.5 0.4,0.2 1.1,0.4 1.5,0.6 0.7,0.3 1.4,0.2 2.3,0.1 0.6,0 1.458767,-0.960571 1.863784,-1.729865 0.611657,-0.98103 2.055468,-3.199058 2.054197,-3.557486 -0.25347,-0.298037 -1.499685,-0.951502 -2.35799,-1.468127 -0.564955,-0.559278 -2.104851,-2.095278 -1.904851,-2.495278 0.899608,-0.215455 1.916179,0.303551 2.861604,0.865844 0.574867,0.341903 2.059163,1.302582 2.985838,1.989869 0.341754,0.253468 1.710207,0.547781 1.542448,0.09409 -0.09463,-0.255908 -0.977791,-2.537723 -1.032068,-2.813171 -0.594488,-3.0169386 0.346242,-3.7288053 0.693247,-3.3535731 0.235472,0.2546266 0.315067,0.2734916 0.35943,1.8364911 0.05176,1.823692 1.389009,4.259205 1.660969,4.453983 0.828883,0.433819 0.160604,2.123159 1.060604,2.323159 0.317157,0.777945 1.630996,2.197001 2.130996,2.697001 0.3,0.3 0.61278,0.73149 0.228633,1.155936 -0.02662,0.838476 -0.165183,0.858366 -0.365409,0.921721 -0.134193,0.461681 -0.04826,0.540369 -0.651039,0.636333 -0.629504,0.02669 -1.490967,-0.449422 -2.330156,-0.668879 C 34.300237,22.188046 33,21.2 32.7,21.8 c 0,0 -0.8,2 -2.5,3.3 -0.4,0.3 -1.3,1.1 -3.2,1.4 -0.8,0.1 -1.6,0.1 -2.5,0.1 h -1.3 c -0.3,0 -1.1,0 -1.1,0.1 L 22,26.9 c 0,0.1 0,0.3 0.1,0.3 0,0.2 0,0.3 0.1,0.5 v 1.1 c 0,0.8 0.3,1.4 0.4,2.2 0,0.8 0.5,1.7 0.9,2.4 0.2,0.3 0.4,0.3 0.5,0.6 0.1,0.4 0,0.8 0.1,1.2 0.2,1.5 0.7,3.1 1.4,4.5 v 0 c 0.9,-0.1 1.7,-0.4 2.8,-0.6 2,-0.3 4.8,-0.1 6.7,-0.3 4.6,-0.4 7.1,1.9 11.2,0.9 V 5.8 C 45.9,2.6 43.3,0 40.2,0 Z M 23,27.1 c 0,-0.1 0,0 0,0 z"
   id="path43"
   sodipodi:nodetypes="ssscssscccccccccscscccccccccssssssccscccccccssccccsccccssccccscc" />
<linearGradient
   id="SVGID_00000104673081434150911260000016506419810385994163_"
   gradientUnits="userSpaceOnUse"
   x1="6.4072"
   y1="16.4857"
   x2="6.4072"
   y2="2.3223"
   gradientTransform="matrix(1 0 0 -1 0 42)">
	<stop
   offset="0"
   style="stop-color:#F29100"
   id="stop45" />
	<stop
   offset="1"
   style="stop-color:#EC670F"
   id="stop47" />
</linearGradient>
<path
   style="fill:url(#SVGID_00000104673081434150911260000016506419810385994163_);"
   d="M10.6,32.4c0.3-0.7,0.5-1.5,0.8-2.2  c0.3-0.7,0.6-1.7,1.3-2c-0.1-0.1-1.4-0.1-1.8-0.2c-0.4,0-0.8-0.1-1.1-0.2c-0.7-0.1-1.5-0.3-2.2-0.5c-0.4-0.1-1.9-0.6-2.2-0.8  c-0.7-0.3-1.2-1.2-1.8-1.2c-0.4,0.1-0.7,0.2-0.9,0.6c-0.2,0.3-0.2,0.8-0.4,1.2c-0.1,0.4-0.4,0.8-0.6,1.2c-0.4,0.7-1.2,1.3-1.5,2  c-0.1,0.1-0.1,0.3-0.2,0.5v7.8c0.4,0.1,0.8,0.1,1.2,0.3c3.2,0.9,4,0.9,7.2,0.6l0.3,0v0c0.2-0.5,0.4-2.2,0.6-2.7  c0.1-0.4,0.3-0.7,0.4-1.1c0.1-0.4,0-0.8,0-1.1C9.5,33.5,10.3,33.2,10.6,32.4L10.6,32.4z"
   id="path50" /><path
   id="path20-5"
   style="display:inline;fill:#ffffff;stroke-width:0.999997"
   class="st0"
   d="m 32.11289,11.69132 c 0.05428,0.27545 0.93662,2.558551 1.03125,2.814459 0.167759,0.453692 -1.199262,0.157764 -1.541015,-0.0957 -0.926674,-0.687287 -2.411462,-1.646382 -2.986328,-1.988287 -0.945425,-0.562292 -1.961722,-1.082645 -2.861329,-0.867187 -0.199999,0.4 1.339343,1.936819 1.904297,2.496098 0.858304,0.516625 2.103952,1.168762 2.357422,1.4668 0.0013,0.358428 -1.443031,2.57757 -2.054687,3.558601 -0.405017,0.769296 -1.263282,1.730473 -1.863282,1.730473 -0.899999,0.1 -1.598828,0.198435 -2.298828,-0.101563 -0.38438,-0.192191 -1.035391,-0.383983 -1.441406,-0.576173 v 0.10547 c -0.100792,-0.04267 -0.195756,-0.08623 -0.259766,-0.128909 -1.699996,-0.699998 -2,-1.500002 -2,-1.500002 -0.199998,-0.299998 -0.698828,-0.800395 -0.798828,-1.400394 -0.2,-0.700001 -0.501172,-1.299612 -0.701172,-1.599613 -0.1,-0.399999 -0.49922,-0.999612 -0.699218,-1.599611 -0.3,-0.800001 -0.79961,-1.400786 -1.09961,-1.800785 -0.420525,-0.420526 -0.847161,-0.97635 -1.625,-1.025394 -0.08924,0.0043 -0.176969,0.0075 -0.27539,0.02539 -0.2,0 -0.900392,0.100001 -1.400391,0.500002 -0.4,0.4 -0.500782,1.000003 -0.800781,1.500004 -0.2,0.299999 -0.498829,1.200392 -0.798828,1.900394 -0.2,0.5 -0.300001,0.89961 -0.5,1.099612 -0.183659,0.09183 -0.371718,0.258247 -0.632813,0.208984 -0.08158,0.01887 -0.167255,0.02563 -0.267578,-0.0078 -0.2,-0.1 -0.4,-0.200783 -0.5,-0.300782 C 9.7996095,15.905409 9.200389,15.005012 8.80039,14.205013 8.500391,13.605012 7.899608,12.705009 7.499609,12.20501 7.023196,11.538029 6.71642,11.332862 5.997656,11.314381 c -1.498595,0.04132 -1.714985,0.924111 -2.398438,2.291021 -0.299999,0.600001 -0.39961,1.600785 -1.099609,2.300785 -0.4,0.400002 -1.60039103,2.200007 -2.400391,2.500007 v -0.11136 c -0.06725,0.04071 -0.136334,0.08775 -0.199218,0.11133 v 12.400415 c 0.1,-0.2 0.09922,-0.3 0.199218,-0.500001 0.3,-0.699999 1.100001,-1.300003 1.5,-2.000003 0.2,-0.399998 0.49961,-0.801173 0.59961,-1.201175 0.1,-0.299998 0.200391,-0.899223 0.40039,-1.19922 0.2,-0.400016 0.600392,-0.499626 0.900391,-0.599625 0.599999,-0.1 1.100783,0.799218 1.800781,1.19922 0.3,0.1 1.69922,0.600783 2.199219,0.800783 0.699999,0.2 1.49922,0.299999 2.199219,0.500001 0.499998,0.199999 0.900781,0.19922 1.300781,0.19922 0.4,0 1.700781,0.09922 1.800781,0.199218 -0.699998,0.3 -1.100781,1.300002 -1.300781,2.000005 -0.3,0.7 -0.400783,1.501175 -0.800781,2.201177 -0.4,0.8 -1.1,1.100004 -1,2.000004 0,0.399998 0.1,0.699609 0,1.099611 -0.1,0.4 -0.198438,0.699613 -0.398438,1.099613 -0.199999,0.5 -0.301563,2.201177 -0.601562,2.701177 l 1.5,-0.201194 c 0.2,-0.399999 0.30039,-1.999224 0.40039,-2.199223 0.3,-0.800002 0.601174,-1.499613 1.201172,-2.099614 0.6,-0.599998 0.49883,-1.401567 0.798828,-2.101566 0.3,-0.8 0.800782,-1.399614 1.300782,-2.099613 0.799998,-1.300001 1.300002,-2.998837 3,-3.298837 0.199998,0 1.19922,0.699222 1.699218,1.199221 0.5,0.500001 1.100002,1.100786 1.5,1.800785 0.7,1.400001 1.200002,3.298447 1.5,4.398448 0.1,0.599998 0.19961,0.701173 0.59961,1.201174 0.2,0.199998 0.601172,0.899222 0.701172,1.199221 0.1,0.300001 0.3,0.900785 0.5,1.300785 0.1,0.199999 0.3,0.798829 0.5,1.298829 h 1.40039 C 24.600392,38.305001 24.099998,36.70499 23.9,35.204992 23.8,34.80499 24.00039,34.405771 23.80039,34.00577 c -0.1,-0.300001 -0.3,-0.399611 -0.5,-0.59961 C 22.900392,32.706159 22.5,31.805764 22.4,31.005763 22.4,30.205764 22.099609,29.60654 21.999609,28.80654 v -1.101544 c 0,-0.2 3.91e-4,-0.3 -0.09961,-0.500001 0,0 3.9e-4,-0.198827 -0.09961,-0.298828 l 0.09961,-0.201171 c 0,-0.100001 0.799609,-0.09961 1.099609,-0.09961 h 0.199219 1.101562 c 0.899998,0 1.700002,3.91e-4 2.5,-0.09961 0.27359,-0.0432 0.520293,-0.09921 0.753907,-0.160154 h 0.199218 c 1.388951,-0.362304 2.102887,-0.98342 2.445313,-1.24024 1.699998,-1.300002 2.5,-3.298836 2.5,-3.298836 0.299999,-0.599999 1.601172,0.386719 2.201172,-0.11328 0.839188,0.219458 1.700574,0.696613 2.330078,0.669924 0.602778,-0.09596 0.516198,-0.175039 0.65039,-0.636721 0.200226,-0.06337 0.338615,-0.0834 0.365235,-0.921876 0.384146,-0.424447 0.07148,-0.856252 -0.228516,-1.156254 C 37.517187,19.148322 36.203483,17.728999 35.886327,16.95105 34.986328,16.751052 35.654662,15.062601 34.82578,14.628781 34.55382,14.434004 33.396268,11.983485 33.165624,10.173694 32.839267,7.6128709 34.358565,3.4534143 34.123093,3.1987878 32.324509,5.8391665 31.50366,8.5670736 32.11289,11.69132 Z"
   sodipodi:nodetypes="cccsccccccccccccccccccccccssccssccccccccccccsccccsccccscccscccsscccccccscccscscccccccccsccscc" />
</svg>
