<svg width="293" height="293" viewBox="0 0 293 293" fill="none" xmlns="http://www.w3.org/2000/svg">
<mask id="mask0_2992_12729" style="mask-type:alpha" maskUnits="userSpaceOnUse" x="0" y="0" width="293" height="293">
<circle cx="146.5" cy="146.5" r="146.5" fill="#D9D9D9"/>
</mask>
<g mask="url(#mask0_2992_12729)">
<path d="M293 146.5C293 227.41 227.41 293 146.5 293C65.5903 293 0 227.41 0 146.5C0 65.5903 65.5903 0 146.5 0C227.41 0 293 65.5903 293 146.5Z" fill="white"/>
<path d="M293 146.5C293 227.41 227.41 293 146.5 293C65.5903 293 0 227.41 0 146.5C0 65.5903 65.5903 0 146.5 0C227.41 0 293 65.5903 293 146.5Z" fill="white"/>
<path d="M66.5 112.499C67 112.166 68.2 111.399 69 110.999C70 110.499 70 105.499 74.5 104.499C79 103.499 82.5 101.999 85.5 98.9994C88.5 95.9994 85 93.4995 89.5 92.9995C94 92.4995 95.7816 79.3936 96.5 76.9991C98 71.9996 100.042 65.7818 102.5 63.4996C110.5 56.0717 111.732 61.8251 115.5 63.4997C120 65.4999 120.06 72.0299 125 74.4994C130 76.9991 131.5 83.4998 138.5 86.4996C145.5 89.4994 150.895 72.3607 153.5 70.4999C160.5 65.5 160.636 62.2894 163 61C168.5 57.9997 169.549 58.359 174 59.9991C183.5 63.4998 179.5 82.9997 182 84.9999C184.5 87 182.5 101.5 186 107C189.5 112.499 193.5 123.5 200 122C206.5 120.5 208 117 208.5 114.5C209 112 213.5 98.9996 215.5 96.9996C217.5 94.9996 219.5 89.9996 221 89.4996C222.5 88.9996 222 88.4996 222 86.4996C222 84.4996 220.5 84.4996 223 83.4996C225.5 82.4996 232 80.4996 235 79.9996C238 79.4996 238 78.9996 241 79.9996C244 80.9996 250 85.9997 250 86.9996C250 87.9994 252.5 90.4996 253.5 90.4996C254.3 90.4996 255.167 92.1662 255.5 92.9995C257.167 93.3329 260.7 94.1996 261.5 94.9996C262.5 95.9996 263.5 98.9994 264 98.9994C264.5 98.9994 268 104 266 104.5C264 105 265 109 261.5 108C258 107 256.5 110 255 109C253.5 108 250.5 106 248 108C245.5 110 241.5 110.5 238.5 109.5C235.5 108.5 232.5 109.5 236 113.5C239.5 117.5 238 126 237 128C236 130 234.5 137 229.5 142C224.5 147 222 148 220.5 151C219 154 214.5 156 212.5 156C210.5 156 207.5 158 205.5 158C203.5 158 201 160 198.5 159C196 158 189.5 155 187 156C187.333 158 187.4 162.5 185 164.5C183 172 178.8 187.2 178 188C177 189 177.5 193 177 193C176.5 193 177 196.5 177 201C177 205.5 175 208.5 174.5 211C174 213.5 173.5 221.5 174 223.5C174.5 225.5 175 228 180.5 228.5C186 229 187 230 187 231.5C187 232.7 187.667 234.666 188 235.5C187 235.666 184.4 235.9 182 235.5C179 235 173.5 234.5 171.5 233C169.5 231.5 167 230.5 168 228C169 225.5 169 220 168.5 218C168 216 168.5 207.5 168.5 207C168.5 206.5 166 201 166.5 199C167 197 168 195 168 194V190.5L167.5 189C167.167 189.666 166.2 191.9 165 195.5C165.167 198 165.2 203.4 164 205C162.5 207 162.5 212 161.5 213.5C160.5 215 159.5 225.5 160.5 227.5C161.3 229.1 161.5 230.833 161.5 231.5C162 231.833 163.6 232.7 166 233.5C169 234.5 171.5 235.5 171.5 237V241H168C166.5 241 157 239 156 237C155 235 152 235.5 153.5 231.5C155 227.5 155 219 155 218.5C155 218 154.5 209 154.5 207.5C154.5 206 152.5 199 155 195.5L156.5 193C156.167 189.166 155.7 181 156.5 179C157.3 177 155.5 168.5 154.5 164.5H118C106.4 164.5 98.1667 160.833 95.5 159H91.5C92.1667 161.833 92 169.2 86 176C78.5 184.5 81 183.5 77 187C77.3333 189 77.7 193.5 76.5 195.5C75 198 75.5 201 76 203C76.5 205 75.5 209 77 213.5C78.5 218 80 220.5 80.5 222C80.9 223.2 82 224.166 82.5 224.5C84.5 224.833 88.7 225.6 89.5 226C90.5 226.5 92 225.5 92.5 228.5C92.9 230.9 92.6667 232.5 92.5 233C91.5 233.166 89.3 233.5 88.5 233.5C87.5 233.5 84.5 232.5 81.5 233C78.6308 233.478 74.8469 228.925 74.9598 228.527C74.4453 228.538 71.8402 227.902 71 219.5C70 209.5 70 205.5 67 201.5C64 197.5 63 191.5 64.5 190.5C66 189.5 67.0001 188.5 68.0001 187C68.8 185.8 69 181.833 69 180C68.1667 180.666 66.0001 182.5 64.0001 184.5C61.5001 187 61.0001 189.5 60.0001 192.5C59.0001 195.5 58.5001 205.5 57.5001 209.5C56.7001 212.7 58.1667 221.166 59.0001 225L62 227.5C63.8333 228 67.8 229.5 69 231.5C70.2 233.5 70.8333 236 71 237H68.0001C66.5 237 63.5001 236.5 60.0001 235.5C56.5 234.5 55.5 235.5 55 235.5C54.5 235.5 52 232 50.5 230C49 228 49 226 49.5 224.5C50 223 50 216.5 49.5 214.5C49.0001 212.5 49.5 209 49.5 207.5C49.5 206 46.0001 193 46.5001 190.5C47.0001 188 47.5 188 49 187C50.5 186 57.5001 176 57.5001 173.5C57.5001 171 60.0001 166.5 60.0001 165.5C60.0001 164.5 58 153 56.5 152C56.3333 155.166 55.6 162 54 164C52 166.5 54.5 170 50.5 171C50.1667 171 49.7 170.3 50.5 167.5C51.5 164 52.5 159 51 155C49.8 151.8 50.8333 150 51.5 149.5C52 145.166 53.2 135.6 54 132C55 127.5 62 116.999 66.5 112.499Z" fill="#FAF8F3" stroke="#D54000"/>
<path d="M49 114L60 129" stroke="#D54000" stroke-linecap="round" stroke-dasharray="2 2"/>
<path d="M42 132L79 134" stroke="#D54000" stroke-linecap="round" stroke-dasharray="2 2"/>
<path d="M212 84L229 91" stroke="#D54000" stroke-linecap="round" stroke-dasharray="2 2"/>
<path d="M251 99L251 131" stroke="#D54000" stroke-linecap="round" stroke-dasharray="2 2"/>
<path d="M203 52L238 89" stroke="#D54000" stroke-linecap="round" stroke-dasharray="2 2"/>
<path d="M60 95L71 117" stroke="#D54000" stroke-linecap="round" stroke-dasharray="2 2"/>
<path d="M191 99L174 117" stroke="#D54000" stroke-linecap="round" stroke-dasharray="2 2"/>
<path d="M180 154L192 161" stroke="#D54000" stroke-linecap="round" stroke-dasharray="2 2"/>
<path d="M175 177L187 179" stroke="#D54000" stroke-linecap="round" stroke-dasharray="2 2"/>
<path d="M174 197H185" stroke="#D54000" stroke-linecap="round" stroke-dasharray="2 2"/>
<path d="M173 217H184" stroke="#D54000" stroke-linecap="round" stroke-dasharray="2 2"/>
<path d="M146 176L149 133" stroke="#D54000" stroke-linecap="round" stroke-dasharray="2 2"/>
<path d="M103 171L85 145" stroke="#D54000" stroke-linecap="round" stroke-dasharray="2 2"/>
<path d="M88 179L78 179" stroke="#D54000" stroke-linecap="round" stroke-dasharray="2 2"/>
<path d="M82 196L72 196" stroke="#D54000" stroke-linecap="round" stroke-dasharray="2 2"/>
<path d="M84 213L74 213" stroke="#D54000" stroke-linecap="round" stroke-dasharray="2 2"/>
<path d="M97 229L87 229" stroke="#D54000" stroke-linecap="round" stroke-dasharray="2 2"/>
<path d="M183 233H194" stroke="#D54000" stroke-linecap="round" stroke-dasharray="2 2"/>
<path d="M210 87L189 123" stroke="#D54000" stroke-linecap="round" stroke-dasharray="2 2"/>
<path d="M149 70L117 101" stroke="#D54000" stroke-linecap="round" stroke-dasharray="2 2"/>
<path d="M86 82L78 112" stroke="#D54000" stroke-linecap="round" stroke-dasharray="2 2"/>
<path d="M86 82L110 105" stroke="#D54000" stroke-linecap="round" stroke-dasharray="2 2"/>
<path d="M150 70L178 108" stroke="#D54000" stroke-linecap="round" stroke-dasharray="2 2"/>
<path d="M84.2521 74.6364V79H83.3295V75.5121H83.304L82.3047 76.1385V75.3203L83.3849 74.6364H84.2521ZM85.2232 78.233V77.5064L87.0449 74.6364H87.6713V75.642H87.3006L86.1522 77.4595V77.4936H88.7409V78.233H85.2232ZM87.3176 79V78.0114L87.3347 77.6896V74.6364H88.1998V79H87.3176Z" fill="#D54000"/>
<path d="M148.252 63.6364V68H147.33V64.5121H147.304L146.305 65.1385V64.3203L147.385 63.6364H148.252ZM150.902 68.0597C150.584 68.0597 150.301 68.005 150.052 67.8956C149.805 67.7848 149.61 67.6328 149.466 67.4396C149.324 67.245 149.251 67.0206 149.247 66.7663H150.176C150.181 66.8729 150.216 66.9666 150.28 67.0476C150.345 67.1271 150.432 67.1889 150.54 67.233C150.648 67.277 150.769 67.299 150.904 67.299C151.045 67.299 151.169 67.2741 151.277 67.2244C151.385 67.1747 151.47 67.1058 151.531 67.0178C151.592 66.9297 151.622 66.8281 151.622 66.7131C151.622 66.5966 151.59 66.4936 151.524 66.4041C151.46 66.3132 151.368 66.2422 151.247 66.1911C151.128 66.1399 150.986 66.1143 150.821 66.1143H150.414V65.4368H150.821C150.96 65.4368 151.083 65.4126 151.19 65.3643C151.298 65.3161 151.382 65.2493 151.441 65.1641C151.501 65.0774 151.531 64.9766 151.531 64.8615C151.531 64.7521 151.504 64.6562 151.452 64.5739C151.401 64.4901 151.328 64.4247 151.235 64.3778C151.142 64.331 151.034 64.3075 150.911 64.3075C150.786 64.3075 150.671 64.3303 150.568 64.3757C150.464 64.4197 150.381 64.483 150.318 64.5653C150.256 64.6477 150.222 64.7443 150.218 64.8551H149.334C149.338 64.6037 149.41 64.3821 149.549 64.1903C149.688 63.9986 149.876 63.8487 150.112 63.7408C150.349 63.6314 150.617 63.5767 150.915 63.5767C151.216 63.5767 151.48 63.6314 151.705 63.7408C151.931 63.8501 152.107 63.9979 152.232 64.1839C152.358 64.3686 152.421 64.576 152.419 64.8061C152.421 65.0504 152.345 65.2543 152.191 65.4176C152.039 65.581 151.841 65.6847 151.597 65.7287V65.7628C151.918 65.804 152.162 65.9155 152.33 66.0973C152.499 66.2777 152.583 66.5036 152.581 66.7749C152.583 67.0234 152.511 67.2443 152.366 67.4375C152.222 67.6307 152.024 67.7827 151.771 67.8935C151.519 68.0043 151.229 68.0597 150.902 68.0597Z" fill="#D54000"/>
<path d="M205.252 79.6364V84H204.33V80.5121H204.304L203.305 81.1385V80.3203L204.385 79.6364H205.252ZM206.289 84V83.3352L207.843 81.897C207.975 81.7692 208.085 81.6541 208.175 81.5518C208.266 81.4496 208.335 81.3494 208.382 81.2514C208.428 81.152 208.452 81.0447 208.452 80.9297C208.452 80.8018 208.423 80.6918 208.365 80.5994C208.306 80.5057 208.227 80.4339 208.126 80.3842C208.025 80.3331 207.911 80.3075 207.783 80.3075C207.649 80.3075 207.533 80.3345 207.433 80.3885C207.334 80.4425 207.257 80.5199 207.203 80.6207C207.149 80.7216 207.122 80.8416 207.122 80.9808H206.247C206.247 80.6953 206.311 80.4474 206.441 80.2372C206.57 80.027 206.751 79.8643 206.984 79.7493C207.217 79.6342 207.485 79.5767 207.789 79.5767C208.102 79.5767 208.374 79.6321 208.605 79.7429C208.838 79.8523 209.019 80.0043 209.149 80.1989C209.278 80.3935 209.343 80.6165 209.343 80.8679C209.343 81.0327 209.31 81.1953 209.244 81.3558C209.181 81.5163 209.066 81.6946 208.901 81.8906C208.737 82.0852 208.504 82.3189 208.205 82.5916L207.568 83.2159V83.2457H209.4V84H206.289Z" fill="#D54000"/>
<path d="M250.295 139.062C250.087 139.062 249.901 139.026 249.737 138.953C249.574 138.879 249.445 138.771 249.349 138.627C249.256 138.482 249.209 138.302 249.209 138.086C249.209 137.904 249.242 137.751 249.309 137.628C249.376 137.504 249.467 137.405 249.582 137.33C249.697 137.254 249.827 137.197 249.974 137.159C250.121 137.121 250.276 137.094 250.438 137.078C250.629 137.058 250.782 137.04 250.898 137.023C251.015 137.004 251.099 136.977 251.152 136.942C251.205 136.906 251.231 136.854 251.231 136.784V136.771C251.231 136.636 251.188 136.532 251.103 136.458C251.019 136.384 250.9 136.347 250.745 136.347C250.582 136.347 250.452 136.384 250.355 136.456C250.259 136.527 250.195 136.616 250.163 136.724L249.324 136.656C249.366 136.457 249.45 136.286 249.575 136.141C249.7 135.994 249.862 135.882 250.059 135.804C250.258 135.724 250.488 135.685 250.749 135.685C250.931 135.685 251.105 135.706 251.271 135.749C251.439 135.791 251.587 135.857 251.717 135.947C251.847 136.036 251.95 136.151 252.026 136.292C252.101 136.431 252.138 136.598 252.138 136.793V139H251.278V138.546H251.252C251.2 138.648 251.129 138.739 251.041 138.817C250.953 138.893 250.847 138.954 250.724 138.998C250.6 139.04 250.457 139.062 250.295 139.062ZM250.555 138.435C250.689 138.435 250.807 138.409 250.909 138.357C251.011 138.303 251.092 138.23 251.15 138.139C251.208 138.048 251.237 137.945 251.237 137.83V137.483C251.209 137.501 251.17 137.518 251.12 137.534C251.072 137.548 251.017 137.562 250.956 137.575C250.895 137.586 250.834 137.597 250.773 137.607C250.712 137.615 250.656 137.623 250.607 137.63C250.5 137.646 250.407 137.67 250.327 137.705C250.248 137.739 250.186 137.785 250.142 137.843C250.098 137.9 250.076 137.971 250.076 138.056C250.076 138.18 250.121 138.274 250.21 138.339C250.301 138.403 250.416 138.435 250.555 138.435Z" fill="#D54000"/>
<path d="M197.379 52V47.6364H198.287V49.277H198.315C198.354 49.1889 198.412 49.0994 198.487 49.0085C198.564 48.9162 198.663 48.8395 198.786 48.7784C198.909 48.7159 199.063 48.6847 199.246 48.6847C199.484 48.6847 199.705 48.7472 199.906 48.8722C200.108 48.9957 200.269 49.1825 200.39 49.4325C200.511 49.6811 200.571 49.9929 200.571 50.3679C200.571 50.733 200.512 51.0412 200.394 51.2926C200.278 51.5426 200.119 51.7322 199.917 51.8615C199.717 51.9893 199.492 52.0533 199.244 52.0533C199.067 52.0533 198.918 52.0241 198.794 51.9659C198.672 51.9077 198.572 51.8345 198.494 51.7464C198.415 51.657 198.356 51.5668 198.315 51.4759H198.274V52H197.379ZM198.268 50.3636C198.268 50.5582 198.295 50.728 198.349 50.8729C198.403 51.0178 198.481 51.1307 198.583 51.2116C198.685 51.2912 198.81 51.331 198.956 51.331C199.104 51.331 199.229 51.2905 199.331 51.2095C199.433 51.1271 199.511 51.0135 199.563 50.8686C199.617 50.7223 199.644 50.554 199.644 50.3636C199.644 50.1747 199.618 50.0085 199.565 49.8651C199.513 49.7216 199.435 49.6094 199.333 49.5284C199.231 49.4474 199.105 49.407 198.956 49.407C198.808 49.407 198.683 49.446 198.581 49.5241C198.48 49.6023 198.403 49.7131 198.349 49.8565C198.295 50 198.268 50.169 198.268 50.3636Z" fill="#D54000"/>
<path d="M194.354 164V163.335L195.907 161.897C196.039 161.769 196.15 161.654 196.239 161.552C196.33 161.45 196.399 161.349 196.446 161.251C196.493 161.152 196.516 161.045 196.516 160.93C196.516 160.802 196.487 160.692 196.429 160.599C196.371 160.506 196.291 160.434 196.19 160.384C196.089 160.333 195.975 160.308 195.847 160.308C195.714 160.308 195.597 160.335 195.498 160.388C195.398 160.442 195.322 160.52 195.268 160.621C195.214 160.722 195.187 160.842 195.187 160.981H194.311C194.311 160.695 194.376 160.447 194.505 160.237C194.634 160.027 194.815 159.864 195.048 159.749C195.281 159.634 195.55 159.577 195.854 159.577C196.166 159.577 196.438 159.632 196.67 159.743C196.903 159.852 197.084 160.004 197.213 160.199C197.342 160.393 197.407 160.616 197.407 160.868C197.407 161.033 197.374 161.195 197.309 161.356C197.245 161.516 197.131 161.695 196.966 161.891C196.801 162.085 196.569 162.319 196.269 162.592L195.632 163.216V163.246H197.464V164H194.354Z" fill="#D54000"/>
<path d="M190.967 181.06C190.648 181.06 190.365 181.005 190.116 180.896C189.869 180.785 189.674 180.633 189.531 180.44C189.388 180.245 189.315 180.021 189.311 179.766H190.24C190.246 179.873 190.281 179.967 190.344 180.048C190.41 180.127 190.496 180.189 190.604 180.233C190.712 180.277 190.834 180.299 190.969 180.299C191.109 180.299 191.234 180.274 191.342 180.224C191.45 180.175 191.534 180.106 191.595 180.018C191.656 179.93 191.687 179.828 191.687 179.713C191.687 179.597 191.654 179.494 191.589 179.404C191.525 179.313 191.433 179.242 191.312 179.191C191.192 179.14 191.05 179.114 190.886 179.114H190.479V178.437H190.886C191.025 178.437 191.148 178.413 191.254 178.364C191.362 178.316 191.446 178.249 191.506 178.164C191.565 178.077 191.595 177.977 191.595 177.862C191.595 177.752 191.569 177.656 191.516 177.574C191.465 177.49 191.393 177.425 191.299 177.378C191.207 177.331 191.099 177.308 190.975 177.308C190.85 177.308 190.736 177.33 190.632 177.376C190.528 177.42 190.445 177.483 190.383 177.565C190.32 177.648 190.287 177.744 190.283 177.855H189.398C189.403 177.604 189.474 177.382 189.614 177.19C189.753 176.999 189.94 176.849 190.176 176.741C190.413 176.631 190.681 176.577 190.979 176.577C191.281 176.577 191.544 176.631 191.77 176.741C191.996 176.85 192.171 176.998 192.296 177.184C192.423 177.369 192.485 177.576 192.484 177.806C192.485 178.05 192.409 178.254 192.256 178.418C192.104 178.581 191.906 178.685 191.661 178.729V178.763C191.982 178.804 192.227 178.915 192.394 179.097C192.563 179.278 192.647 179.504 192.646 179.775C192.647 180.023 192.575 180.244 192.43 180.438C192.287 180.631 192.089 180.783 191.836 180.893C191.583 181.004 191.293 181.06 190.967 181.06Z" fill="#D54000"/>
<path d="M187.288 198.233V197.506L189.109 194.636H189.736V195.642H189.365L188.217 197.46V197.494H190.805V198.233H187.288ZM189.382 199V198.011L189.399 197.69V194.636H190.264V199H189.382Z" fill="#D54000"/>
<path d="M187.947 219.06C187.646 219.06 187.378 219.004 187.142 218.893C186.908 218.783 186.722 218.63 186.584 218.435C186.446 218.241 186.374 218.018 186.369 217.766H187.263C187.273 217.935 187.344 218.072 187.477 218.178C187.609 218.283 187.766 218.335 187.947 218.335C188.092 218.335 188.22 218.303 188.331 218.239C188.443 218.174 188.531 218.084 188.593 217.969C188.657 217.852 188.689 217.719 188.689 217.568C188.689 217.415 188.656 217.28 188.591 217.163C188.527 217.047 188.438 216.956 188.325 216.891C188.211 216.825 188.081 216.792 187.935 216.79C187.807 216.79 187.683 216.817 187.562 216.869C187.442 216.922 187.349 216.994 187.283 217.085L186.462 216.938L186.669 214.636H189.337V215.391H187.43L187.317 216.484H187.342C187.419 216.376 187.535 216.286 187.69 216.215C187.844 216.144 188.018 216.109 188.21 216.109C188.472 216.109 188.707 216.17 188.913 216.294C189.119 216.418 189.281 216.587 189.401 216.803C189.52 217.018 189.579 217.265 189.577 217.545C189.579 217.839 189.511 218.1 189.373 218.329C189.237 218.556 189.045 218.735 188.8 218.866C188.555 218.995 188.271 219.06 187.947 219.06Z" fill="#D54000"/>
<path d="M198.028 235.06C197.804 235.058 197.587 235.021 197.379 234.947C197.171 234.873 196.985 234.753 196.82 234.587C196.656 234.42 196.525 234.2 196.428 233.926C196.333 233.652 196.286 233.315 196.286 232.916C196.287 232.55 196.329 232.222 196.411 231.934C196.495 231.644 196.614 231.398 196.769 231.197C196.925 230.995 197.112 230.842 197.33 230.737C197.547 230.63 197.79 230.577 198.06 230.577C198.352 230.577 198.609 230.634 198.832 230.747C199.055 230.859 199.234 231.012 199.369 231.205C199.505 231.398 199.587 231.615 199.616 231.855H198.706C198.67 231.703 198.596 231.584 198.482 231.497C198.369 231.411 198.228 231.367 198.06 231.367C197.776 231.367 197.56 231.491 197.413 231.738C197.266 231.985 197.192 232.321 197.189 232.746H197.219C197.284 232.616 197.372 232.506 197.483 232.415C197.595 232.323 197.722 232.253 197.864 232.205C198.008 232.155 198.159 232.13 198.318 232.13C198.577 232.13 198.807 232.191 199.009 232.313C199.21 232.434 199.369 232.6 199.486 232.812C199.602 233.023 199.661 233.266 199.661 233.538C199.661 233.834 199.592 234.097 199.454 234.327C199.317 234.557 199.126 234.737 198.881 234.868C198.636 234.997 198.352 235.061 198.028 235.06ZM198.024 234.335C198.166 234.335 198.293 234.301 198.406 234.233C198.518 234.165 198.606 234.072 198.67 233.956C198.734 233.839 198.766 233.709 198.766 233.564C198.766 233.419 198.734 233.289 198.67 233.174C198.607 233.059 198.521 232.967 198.41 232.899C198.299 232.831 198.173 232.797 198.031 232.797C197.924 232.797 197.825 232.817 197.734 232.857C197.645 232.896 197.566 232.952 197.498 233.023C197.431 233.094 197.379 233.176 197.34 233.27C197.302 233.362 197.283 233.461 197.283 233.566C197.283 233.707 197.315 233.835 197.379 233.952C197.444 234.068 197.532 234.161 197.643 234.231C197.755 234.3 197.882 234.335 198.024 234.335Z" fill="#D54000"/>
<path d="M145.252 177.636V182H144.33V178.512H144.304L143.305 179.138V178.32L144.385 177.636H145.252ZM146.462 182L148.271 178.42V178.391H146.164V177.636H149.225V178.401L147.414 182H146.462Z" fill="#D54000"/>
<path d="M105.526 173L107.335 169.42V169.391H105.228V168.636H108.29V169.401L106.479 173H105.526Z" fill="#D54000"/>
<path d="M91.9815 181.06C91.6534 181.06 91.3615 181.006 91.1058 180.9C90.8516 180.792 90.652 180.645 90.5071 180.459C90.3622 180.273 90.2898 180.062 90.2898 179.826C90.2898 179.644 90.331 179.477 90.4134 179.325C90.4972 179.172 90.6108 179.045 90.7543 178.944C90.8977 178.842 91.0582 178.776 91.2358 178.748V178.718C91.0028 178.671 90.8139 178.558 90.669 178.379C90.5241 178.199 90.4517 177.989 90.4517 177.751C90.4517 177.525 90.5178 177.324 90.6499 177.148C90.782 176.97 90.9631 176.831 91.1932 176.73C91.4247 176.628 91.6875 176.577 91.9815 176.577C92.2756 176.577 92.5376 176.628 92.7678 176.73C92.9993 176.832 93.1811 176.972 93.3132 177.15C93.4453 177.326 93.5121 177.526 93.5135 177.751C93.5121 177.991 93.4382 178.2 93.2919 178.379C93.1456 178.558 92.9581 178.671 92.7294 178.718V178.748C92.9041 178.776 93.0625 178.842 93.2045 178.944C93.348 179.045 93.4616 179.172 93.5455 179.325C93.6307 179.477 93.674 179.644 93.6754 179.826C93.674 180.062 93.6009 180.273 93.456 180.459C93.3111 180.645 93.1108 180.792 92.8551 180.9C92.6009 181.006 92.3097 181.06 91.9815 181.06ZM91.9815 180.382C92.1278 180.382 92.2557 180.356 92.3651 180.303C92.4744 180.249 92.5597 180.175 92.6207 180.082C92.6832 179.987 92.7145 179.877 92.7145 179.754C92.7145 179.627 92.6825 179.516 92.6186 179.419C92.5547 179.321 92.468 179.244 92.3587 179.189C92.2493 179.132 92.1236 179.104 91.9815 179.104C91.8409 179.104 91.7152 179.132 91.6044 179.189C91.4936 179.244 91.4063 179.321 91.3423 179.419C91.2798 179.516 91.2486 179.627 91.2486 179.754C91.2486 179.877 91.2791 179.987 91.3402 180.082C91.4013 180.175 91.4872 180.249 91.598 180.303C91.7088 180.356 91.8366 180.382 91.9815 180.382ZM91.9815 178.433C92.1037 178.433 92.2124 178.408 92.3075 178.358C92.4027 178.308 92.4773 178.239 92.5312 178.151C92.5852 178.063 92.6122 177.962 92.6122 177.847C92.6122 177.733 92.5852 177.634 92.5312 177.548C92.4773 177.462 92.4034 177.394 92.3097 177.346C92.2159 177.296 92.1065 177.271 91.9815 177.271C91.858 177.271 91.7486 177.296 91.6534 177.346C91.5582 177.394 91.4837 177.462 91.4297 177.548C91.3771 177.634 91.3509 177.733 91.3509 177.847C91.3509 177.962 91.3778 178.063 91.4318 178.151C91.4858 178.239 91.5604 178.308 91.6555 178.358C91.7507 178.408 91.8594 178.433 91.9815 178.433Z" fill="#D54000"/>
<path d="M85.9325 193.577C86.157 193.577 86.3729 193.614 86.5803 193.69C86.7891 193.765 86.9751 193.885 87.1385 194.05C87.3033 194.214 87.4332 194.433 87.5284 194.706C87.625 194.977 87.674 195.31 87.6754 195.705C87.6754 196.076 87.6335 196.407 87.5497 196.698C87.4673 196.988 87.3487 197.234 87.1939 197.438C87.0391 197.641 86.8523 197.795 86.6335 197.902C86.4148 198.007 86.1705 198.06 85.9006 198.06C85.6094 198.06 85.3523 198.004 85.1293 197.891C84.9063 197.778 84.7266 197.624 84.5902 197.429C84.4553 197.233 84.3736 197.013 84.3452 196.768H85.255C85.2905 196.928 85.3651 197.051 85.4787 197.139C85.5923 197.226 85.733 197.269 85.9006 197.269C86.1847 197.269 86.4006 197.146 86.5483 196.898C86.696 196.65 86.7706 196.31 86.772 195.878H86.7422C86.6768 196.006 86.5888 196.116 86.478 196.208C86.3672 196.299 86.2401 196.369 86.0966 196.419C85.9545 196.469 85.8033 196.494 85.6428 196.494C85.3857 196.494 85.1562 196.433 84.9545 196.312C84.7528 196.192 84.5938 196.026 84.4773 195.814C84.3608 195.602 84.3026 195.361 84.3026 195.089C84.3011 194.797 84.3686 194.536 84.505 194.308C84.6413 194.079 84.8317 193.9 85.076 193.771C85.3217 193.64 85.6072 193.575 85.9325 193.577ZM85.9389 194.301C85.7955 194.301 85.6676 194.335 85.5554 194.403C85.4446 194.472 85.3565 194.563 85.2912 194.678C85.2273 194.793 85.196 194.922 85.1974 195.064C85.1974 195.207 85.2287 195.337 85.2912 195.452C85.3551 195.565 85.4418 195.656 85.5511 195.724C85.6619 195.791 85.7884 195.825 85.9304 195.825C86.0369 195.825 86.1357 195.805 86.2266 195.765C86.3175 195.725 86.3963 195.67 86.4631 195.601C86.5313 195.53 86.5845 195.448 86.6229 195.356C86.6612 195.263 86.6804 195.165 86.6804 195.062C86.679 194.924 86.6463 194.798 86.5824 194.683C86.5185 194.567 86.4304 194.475 86.3182 194.406C86.206 194.336 86.0795 194.301 85.9389 194.301Z" fill="#D54000"/>
<path d="M89.2521 210.636V215H88.3295V211.512H88.304L87.3047 212.138V211.32L88.3849 210.636H89.2521ZM92.0002 215.096C91.6337 215.094 91.3184 215.004 91.0542 214.825C90.7914 214.646 90.589 214.387 90.4469 214.048C90.3063 213.708 90.2367 213.3 90.2381 212.822C90.2381 212.347 90.3084 211.941 90.449 211.606C90.5911 211.271 90.7935 211.016 91.0563 210.841C91.3205 210.665 91.6351 210.577 92.0002 210.577C92.3652 210.577 92.6792 210.665 92.9419 210.841C93.2061 211.017 93.4093 211.273 93.5513 211.608C93.6934 211.942 93.7637 212.347 93.7623 212.822C93.7623 213.301 93.6912 213.71 93.5492 214.05C93.4086 214.389 93.2069 214.648 92.9441 214.827C92.6813 215.006 92.3667 215.096 92.0002 215.096ZM92.0002 214.331C92.2502 214.331 92.4498 214.205 92.5989 213.954C92.748 213.702 92.8219 213.325 92.8205 212.822C92.8205 212.491 92.7864 212.216 92.7182 211.996C92.6515 211.776 92.5563 211.61 92.4327 211.499C92.3105 211.388 92.1664 211.333 92.0002 211.333C91.7516 211.333 91.5527 211.457 91.4036 211.706C91.2544 211.955 91.1792 212.327 91.1777 212.822C91.1777 213.158 91.2111 213.438 91.2779 213.662C91.3461 213.885 91.4419 214.053 91.5655 214.165C91.6891 214.276 91.834 214.331 92.0002 214.331Z" fill="#D54000"/>
<path d="M100.252 226.636V231H99.3295V227.512H99.304L98.3047 228.138V227.32L99.3849 226.636H100.252ZM103.188 226.636V231H102.265V227.512H102.24L101.24 228.138V227.32L102.32 226.636H103.188Z" fill="#D54000"/>
<path d="M36.2521 129.636V134H35.3295V130.512H35.304L34.3047 131.138V130.32L35.3849 129.636H36.2521ZM38.9171 134.06C38.589 134.06 38.2971 134.006 38.0414 133.9C37.7871 133.792 37.5875 133.645 37.4426 133.459C37.2978 133.273 37.2253 133.062 37.2253 132.826C37.2253 132.644 37.2665 132.477 37.3489 132.325C37.4327 132.172 37.5463 132.045 37.6898 131.944C37.8333 131.842 37.9938 131.776 38.1713 131.748V131.718C37.9384 131.671 37.7495 131.558 37.6046 131.379C37.4597 131.199 37.3873 130.989 37.3873 130.751C37.3873 130.525 37.4533 130.324 37.5854 130.148C37.7175 129.97 37.8986 129.831 38.1287 129.73C38.3603 129.628 38.623 129.577 38.9171 129.577C39.2111 129.577 39.4732 129.628 39.7033 129.73C39.9348 129.832 40.1167 129.972 40.2488 130.15C40.3809 130.326 40.4476 130.526 40.449 130.751C40.4476 130.991 40.3738 131.2 40.2275 131.379C40.0811 131.558 39.8936 131.671 39.665 131.718V131.748C39.8397 131.776 39.998 131.842 40.1401 131.944C40.2836 132.045 40.3972 132.172 40.481 132.325C40.5662 132.477 40.6096 132.644 40.611 132.826C40.6096 133.062 40.5364 133.273 40.3915 133.459C40.2466 133.645 40.0463 133.792 39.7907 133.9C39.5364 134.006 39.2452 134.06 38.9171 134.06ZM38.9171 133.382C39.0634 133.382 39.1912 133.356 39.3006 133.303C39.41 133.249 39.4952 133.175 39.5563 133.082C39.6188 132.987 39.65 132.877 39.65 132.754C39.65 132.627 39.6181 132.516 39.5542 132.419C39.4902 132.321 39.4036 132.244 39.2942 132.189C39.1848 132.132 39.0591 132.104 38.9171 132.104C38.7765 132.104 38.6507 132.132 38.54 132.189C38.4292 132.244 38.3418 132.321 38.2779 132.419C38.2154 132.516 38.1841 132.627 38.1841 132.754C38.1841 132.877 38.2147 132.987 38.2757 133.082C38.3368 133.175 38.4228 133.249 38.5336 133.303C38.6444 133.356 38.7722 133.382 38.9171 133.382ZM38.9171 131.433C39.0392 131.433 39.1479 131.408 39.2431 131.358C39.3382 131.308 39.4128 131.239 39.4668 131.151C39.5208 131.063 39.5478 130.962 39.5478 130.847C39.5478 130.733 39.5208 130.634 39.4668 130.548C39.4128 130.462 39.339 130.394 39.2452 130.346C39.1515 130.296 39.0421 130.271 38.9171 130.271C38.7935 130.271 38.6841 130.296 38.589 130.346C38.4938 130.394 38.4192 130.462 38.3652 130.548C38.3127 130.634 38.2864 130.733 38.2864 130.847C38.2864 130.962 38.3134 131.063 38.3674 131.151C38.4213 131.239 38.4959 131.308 38.5911 131.358C38.6863 131.408 38.7949 131.433 38.9171 131.433Z" fill="#D54000"/>
<path d="M48.2521 106.636V111H47.3295V107.512H47.304L46.3047 108.138V107.32L47.3849 106.636H48.2521ZM50.964 111.06C50.7395 111.058 50.5229 111.021 50.3141 110.947C50.1067 110.873 49.9206 110.753 49.7559 110.587C49.5911 110.42 49.4604 110.2 49.3638 109.926C49.2686 109.652 49.2211 109.315 49.2211 108.916C49.2225 108.55 49.2644 108.222 49.3468 107.934C49.4306 107.644 49.5499 107.398 49.7047 107.197C49.861 106.995 50.0478 106.842 50.2651 106.737C50.4824 106.63 50.726 106.577 50.9959 106.577C51.2871 106.577 51.5442 106.634 51.7672 106.747C51.9902 106.859 52.1692 107.012 52.3042 107.205C52.4405 107.398 52.5229 107.615 52.5513 107.855H51.6415C51.606 107.703 51.5314 107.584 51.4178 107.497C51.3042 107.411 51.1635 107.367 50.9959 107.367C50.7118 107.367 50.4959 107.491 50.3482 107.738C50.2019 107.985 50.1273 108.321 50.1245 108.746H50.1543C50.2196 108.616 50.3077 108.506 50.4185 108.415C50.5307 108.323 50.6578 108.253 50.7999 108.205C50.9434 108.155 51.0946 108.13 51.2537 108.13C51.5123 108.13 51.7424 108.191 51.9441 108.313C52.1458 108.434 52.3049 108.6 52.4213 108.812C52.5378 109.023 52.5961 109.266 52.5961 109.538C52.5961 109.834 52.5272 110.097 52.3894 110.327C52.253 110.557 52.062 110.737 51.8162 110.868C51.5719 110.997 51.2878 111.061 50.964 111.06ZM50.9597 110.335C51.1017 110.335 51.2289 110.301 51.3411 110.233C51.4533 110.165 51.5414 110.072 51.6053 109.956C51.6692 109.839 51.7012 109.709 51.7012 109.564C51.7012 109.419 51.6692 109.289 51.6053 109.174C51.5428 109.059 51.4561 108.967 51.3453 108.899C51.2346 108.831 51.1081 108.797 50.9661 108.797C50.8596 108.797 50.7608 108.817 50.6699 108.857C50.5804 108.896 50.5016 108.952 50.4334 109.023C50.3667 109.094 50.3141 109.176 50.2757 109.27C50.2374 109.362 50.2182 109.461 50.2182 109.566C50.2182 109.707 50.2502 109.835 50.3141 109.952C50.3794 110.068 50.4675 110.161 50.5783 110.231C50.6905 110.3 50.8176 110.335 50.9597 110.335Z" fill="#D54000"/>
<path d="M57.2521 87.6364V92H56.3295V88.5121H56.304L55.3047 89.1385V88.3203L56.3849 87.6364H57.2521ZM59.883 92.0597C59.5819 92.0597 59.3134 92.0043 59.0776 91.8935C58.8432 91.7827 58.6571 91.63 58.5194 91.4354C58.3816 91.2408 58.3098 91.0178 58.3042 90.7663H59.199C59.209 90.9354 59.28 91.0724 59.4121 91.1776C59.5442 91.2827 59.7012 91.3352 59.883 91.3352C60.0279 91.3352 60.1557 91.3033 60.2665 91.2393C60.3787 91.174 60.4661 91.0838 60.5286 90.9688C60.5925 90.8523 60.6245 90.7187 60.6245 90.5682C60.6245 90.4148 60.5918 90.2798 60.5265 90.1634C60.4625 90.0469 60.3738 89.956 60.2601 89.8906C60.1465 89.8253 60.0165 89.7919 59.8702 89.7905C59.7424 89.7905 59.6181 89.8168 59.4973 89.8693C59.378 89.9219 59.285 89.9936 59.2182 90.0845L58.3979 89.9375L58.6046 87.6364H61.2722V88.3906H59.3652L59.2523 89.4837H59.2779C59.3546 89.3757 59.4703 89.2862 59.6252 89.2152C59.78 89.1442 59.9533 89.1087 60.1451 89.1087C60.4078 89.1087 60.6422 89.1705 60.8482 89.294C61.0542 89.4176 61.2168 89.5874 61.3361 89.8033C61.4554 90.0178 61.5144 90.2649 61.513 90.5447C61.5144 90.8388 61.4462 91.1001 61.3084 91.3288C61.1721 91.5561 60.981 91.7351 60.7353 91.8658C60.4909 91.995 60.2069 92.0597 59.883 92.0597Z" fill="#D54000"/>
</g>
</svg>
