<svg width="61" height="42" viewBox="0 0 61 42" fill="none" xmlns="http://www.w3.org/2000/svg">
<path id="Vector 1" d="M46.8983 1.4244C44.9788 1.02821 45.3603 2.29105 45.7909 2.97199C44.6835 2.97199 44.2529 11.7623 44.3144 11.948C44.3759 12.1338 43.7607 12.8147 42.7149 12.8147C41.669 12.8147 38.9006 10.8338 37.8547 9.34809C37.018 8.15953 35.4144 6.70686 34.7172 6.12909C33.1422 1.72153 30.9029 0.206951 29.98 0.000605078C26.0427 -0.0612988 26.1042 4.6434 24.4432 6.43861C22.7821 8.23382 22.7821 6.87194 20.0137 2.35295C17.2452 -2.16603 15.6457 1.4244 15.5842 1.4244C15.535 1.4244 11.2982 7.98621 9.18601 11.2671C9.16551 11.3909 8.69385 11.8738 6.97126 12.8147C4.81804 13.9909 4.94108 15.5385 3.64914 16.8385C2.3572 18.1384 1.92656 23.9574 1.92656 25.0717C1.92656 26.1859 -0.226671 29.2811 0.757662 28.9097C1.742 28.5383 2.91089 24.2669 3.21849 23.586C3.46458 23.0412 3.73117 21.8733 3.8337 21.3574C4.87956 22.3479 3.46458 28.5383 3.21849 29.2811C2.97241 30.024 2.54177 31.5716 1.92656 32.3144C1.31135 33.0573 1.61895 34.6668 2.54177 35.9667C3.28002 37.0067 2.84937 39.8254 2.54177 41.1048C3.34154 41.2286 5.0026 41.4762 5.24868 41.4762C5.55629 41.4762 5.61781 39.9905 4.94108 38.9381C4.26435 37.8858 4.38739 35.5953 4.32587 34.8525C4.26435 34.1096 4.26435 33.0573 4.75652 32.6858C5.24868 32.3144 6.17149 30.3335 6.7867 28.5383C7.27887 27.1021 8.22219 26.9907 8.63233 27.1145C8.30422 27.6716 7.70951 28.9716 7.9556 29.7145C8.2632 30.643 8.20168 32.562 7.9556 34.2334C7.70951 35.9048 7.46343 35.3477 8.81689 36.8334C9.89966 38.022 10.1703 40.1762 10.1703 41.1048L12.3851 41.2905C12.4876 40.7127 12.5081 39.1115 11.7699 37.3286C11.0316 35.5458 10.8881 34.8112 10.9086 34.6668C11.0316 33.8827 11.2531 32.1287 11.1547 31.3859C11.0316 30.4573 11.5238 28.7859 12.139 28.0431C12.7542 27.3002 12.8773 26.7431 13.3694 25.3812C13.7632 24.2917 14.1077 24.3907 14.2307 24.5764C20.6289 29.5287 26.4118 27.8573 28.5035 26.7431C30.1769 25.8517 30.6363 26.8669 30.6568 27.4859C30.2877 29.1161 29.4141 32.5868 28.8727 33.4287C28.1959 34.4811 29.0572 35.5953 28.5651 37.3286C28.1713 38.7153 28.401 40.6714 28.5651 41.4762H31.2105C30.9234 40.3 30.4107 37.8858 30.6568 37.6382C30.9644 37.3286 30.9644 36.4001 31.2105 34.8525C31.4565 33.3049 31.8872 34.0477 32.0102 34.8525C32.1087 35.4963 32.2973 36.7715 32.3794 37.3286L33.1791 41.4762L35.0863 41.7857C34.9017 40.8572 34.4095 38.7896 33.9174 37.9477C33.3089 36.9069 33.4828 36.5321 33.9033 35.6257L33.9174 35.5953C34.348 34.6668 33.8559 33.7382 33.9174 33.4287C33.9789 33.1192 33.6098 29.5287 35.0863 28.7859C36.2675 28.1916 36.6448 27.0939 36.6858 26.6193C36.4602 26.1859 36.489 24.9231 38.4084 23.3384C40.3279 21.7536 41.3819 21.8939 41.669 22.1622C42.7026 24.4898 45.8319 23.6272 47.2674 22.905C53.4195 18.9432 53.1529 11.5973 52.2506 8.41953C53.9732 8.35763 54.3423 7.61478 54.8345 6.87194C55.2282 6.27766 56.8441 5.7164 57.6029 5.51005C56.9057 5.44815 55.9418 5.36148 57.6644 5.51005C59.8176 5.69576 60.1868 5.20053 60.1253 4.89101C60.0637 4.58149 59.6331 4.51959 59.264 4.6434C58.8948 4.7672 59.0794 4.27197 59.387 3.90055C59.6946 3.52913 60.4328 4.27197 60.4944 3.77674C60.5559 3.28151 60.1252 2.47676 58.5872 1.4244C57.3568 0.582507 55.9418 1.07361 55.3881 1.4244C55.101 1.4244 54.0716 1.28821 52.2506 0.743453C50.4296 0.198697 47.9236 0.970435 46.8983 1.4244Z" fill="white"/>
</svg>
