<svg width="293" height="293" viewBox="0 0 293 293" fill="none" xmlns="http://www.w3.org/2000/svg">
<mask id="mask0_2992_10782" style="mask-type:alpha" maskUnits="userSpaceOnUse" x="0" y="0" width="293" height="293">
<circle cx="146.5" cy="146.5" r="146.5" fill="#D9D9D9"/>
</mask>
<g mask="url(#mask0_2992_10782)">
<path d="M293 146.5C293 227.41 227.41 293 146.5 293C65.5903 293 0 227.41 0 146.5C0 65.5903 65.5903 0 146.5 0C227.41 0 293 65.5903 293 146.5Z" fill="#121212"/>
<path d="M65.5 112.499C66 112.166 67.2 111.399 68 110.999C69 110.499 69 105.499 73.5 104.499C78 103.499 81.5 101.999 84.5 98.9994C87.5 95.9994 84 93.4995 88.5 92.9995C93 92.4995 94.7816 79.3936 95.5 76.9991C97 71.9996 99.042 65.7818 101.5 63.4996C109.5 56.0717 110.732 61.8251 114.5 63.4997C119 65.4999 119.06 72.0299 124 74.4994C129 76.9991 130.5 83.4998 137.5 86.4996C144.5 89.4994 149.895 72.3607 152.5 70.4999C159.5 65.5 159.636 62.2894 162 61C167.5 57.9997 168.549 58.359 173 59.9991C182.5 63.4998 178.5 82.9997 181 84.9999C183.5 87 181.5 101.5 185 107C188.5 112.499 192.5 123.5 199 122C205.5 120.5 207 117 207.5 114.5C208 112 212.5 98.9996 214.5 96.9996C216.5 94.9996 218.5 89.9996 220 89.4996C221.5 88.9996 221 88.4996 221 86.4996C221 84.4996 219.5 84.4996 222 83.4996C224.5 82.4996 231 80.4996 234 79.9996C237 79.4996 237 78.9996 240 79.9996C243 80.9996 249 85.9997 249 86.9996C249 87.9994 251.5 90.4996 252.5 90.4996C253.3 90.4996 254.167 92.1662 254.5 92.9995C256.167 93.3329 259.7 94.1996 260.5 94.9996C261.5 95.9996 262.5 98.9994 263 98.9994C263.5 98.9994 267 104 265 104.5C263 105 264 109 260.5 108C257 107 255.5 110 254 109C252.5 108 249.5 106 247 108C244.5 110 240.5 110.5 237.5 109.5C234.5 108.5 231.5 109.5 235 113.5C238.5 117.5 237 126 236 128C235 130 233.5 137 228.5 142C223.5 147 221 148 219.5 151C218 154 213.5 156 211.5 156C209.5 156 206.5 158 204.5 158C202.5 158 200 160 197.5 159C195 158 188.5 155 186 156C186.333 158 186.4 162.5 184 164.5C182 172 177.8 187.2 177 188C176 189 176.5 193 176 193C175.5 193 176 196.5 176 201C176 205.5 174 208.5 173.5 211C173 213.5 172.5 221.5 173 223.5C173.5 225.5 174 228 179.5 228.5C185 229 186 230 186 231.5C186 232.7 186.667 234.666 187 235.5C186 235.666 183.4 235.9 181 235.5C178 235 172.5 234.5 170.5 233C168.5 231.5 166 230.5 167 228C168 225.5 168 220 167.5 218C167 216 167.5 207.5 167.5 207C167.5 206.5 165 201 165.5 199C166 197 167 195 167 194V190.5L166.5 189C166.167 189.666 165.2 191.9 164 195.5C164.167 198 164.2 203.4 163 205C161.5 207 161.5 212 160.5 213.5C159.5 215 158.5 225.5 159.5 227.5C160.3 229.1 160.5 230.833 160.5 231.5C161 231.833 162.6 232.7 165 233.5C168 234.5 170.5 235.5 170.5 237V241H167C165.5 241 156 239 155 237C154 235 151 235.5 152.5 231.5C154 227.5 154 219 154 218.5C154 218 153.5 209 153.5 207.5C153.5 206 151.5 199 154 195.5L155.5 193C155.167 189.166 154.7 181 155.5 179C156.3 177 154.5 168.5 153.5 164.5H117C105.4 164.5 97.1667 160.833 94.5 159H90.5C91.1667 161.833 91 169.2 85 176C77.5 184.5 80 183.5 76 187C76.3333 189 76.7 193.5 75.5 195.5C74 198 74.5 201 75 203C75.5 205 74.5 209 76 213.5C77.5 218 79 220.5 79.5 222C79.9 223.2 81 224.166 81.5 224.5C83.5 224.833 87.7 225.6 88.5 226C89.5 226.5 91 225.5 91.5 228.5C91.9 230.9 91.6667 232.5 91.5 233C90.5 233.166 88.3 233.5 87.5 233.5C86.5 233.5 83.5 232.5 80.5 233C77.6308 233.478 73.8469 228.925 73.9598 228.527C73.4453 228.538 70.8402 227.902 70 219.5C69 209.5 69 205.5 66 201.5C63 197.5 62 191.5 63.5 190.5C65 189.5 66.0001 188.5 67.0001 187C67.8 185.8 68 181.833 68 180C67.1667 180.666 65.0001 182.5 63.0001 184.5C60.5001 187 60.0001 189.5 59.0001 192.5C58.0001 195.5 57.5001 205.5 56.5001 209.5C55.7001 212.7 57.1667 221.166 58.0001 225L61 227.5C62.8333 228 66.8 229.5 68 231.5C69.2 233.5 69.8333 236 70 237H67.0001C65.5 237 62.5001 236.5 59.0001 235.5C55.5 234.5 54.5 235.5 54 235.5C53.5 235.5 51 232 49.5 230C48 228 48 226 48.5 224.5C49 223 49 216.5 48.5 214.5C48.0001 212.5 48.5 209 48.5 207.5C48.5 206 45.0001 193 45.5001 190.5C46.0001 188 46.5 188 48 187C49.5 186 56.5001 176 56.5001 173.5C56.5001 171 59.0001 166.5 59.0001 165.5C59.0001 164.5 57 153 55.5 152C55.3333 155.166 54.6 162 53 164C51 166.5 53.5 170 49.5 171C49.1667 171 48.7 170.3 49.5 167.5C50.5 164 51.5 159 50 155C48.8 151.8 49.8333 150 50.5 149.5C51 145.166 52.2 135.6 53 132C54 127.5 61 116.999 65.5 112.499Z" fill="#121212" stroke="#C24F1E"/>
<path d="M48 114L59 129" stroke="#C24F1E" stroke-linecap="round" stroke-dasharray="2 2"/>
<path d="M41 132L78 134" stroke="#C24F1E" stroke-linecap="round" stroke-dasharray="2 2"/>
<path d="M211 84L228 91" stroke="#C24F1E" stroke-linecap="round" stroke-dasharray="2 2"/>
<path d="M250 99L250 131" stroke="#C24F1E" stroke-linecap="round" stroke-dasharray="2 2"/>
<path d="M202 52L237 89" stroke="#C24F1E" stroke-linecap="round" stroke-dasharray="2 2"/>
<path d="M59 95L70 117" stroke="#C24F1E" stroke-linecap="round" stroke-dasharray="2 2"/>
<path d="M190 99L173 117" stroke="#C24F1E" stroke-linecap="round" stroke-dasharray="2 2"/>
<path d="M179 154L191 161" stroke="#C24F1E" stroke-linecap="round" stroke-dasharray="2 2"/>
<path d="M174 177L186 179" stroke="#C24F1E" stroke-linecap="round" stroke-dasharray="2 2"/>
<path d="M173 197H184" stroke="#C24F1E" stroke-linecap="round" stroke-dasharray="2 2"/>
<path d="M172 217H183" stroke="#C24F1E" stroke-linecap="round" stroke-dasharray="2 2"/>
<path d="M145 176L148 133" stroke="#C24F1E" stroke-linecap="round" stroke-dasharray="2 2"/>
<path d="M102 171L84 145" stroke="#C24F1E" stroke-linecap="round" stroke-dasharray="2 2"/>
<path d="M87 179L77 179" stroke="#C24F1E" stroke-linecap="round" stroke-dasharray="2 2"/>
<path d="M81 196L71 196" stroke="#C24F1E" stroke-linecap="round" stroke-dasharray="2 2"/>
<path d="M83 213L73 213" stroke="#C24F1E" stroke-linecap="round" stroke-dasharray="2 2"/>
<path d="M96 229L86 229" stroke="#C24F1E" stroke-linecap="round" stroke-dasharray="2 2"/>
<path d="M182 233H193" stroke="#C24F1E" stroke-linecap="round" stroke-dasharray="2 2"/>
<path d="M209 87L188 123" stroke="#C24F1E" stroke-linecap="round" stroke-dasharray="2 2"/>
<path d="M148 70L116 101" stroke="#C24F1E" stroke-linecap="round" stroke-dasharray="2 2"/>
<path d="M85 82L77 112" stroke="#C24F1E" stroke-linecap="round" stroke-dasharray="2 2"/>
<path d="M85 82L109 105" stroke="#C24F1E" stroke-linecap="round" stroke-dasharray="2 2"/>
<path d="M149 70L177 108" stroke="#C24F1E" stroke-linecap="round" stroke-dasharray="2 2"/>
<path d="M83.2521 74.6364V79H82.3295V75.5121H82.304L81.3047 76.1385V75.3203L82.3849 74.6364H83.2521ZM84.2232 78.233V77.5064L86.0449 74.6364H86.6713V75.642H86.3006L85.1522 77.4595V77.4936H87.7409V78.233H84.2232ZM86.3176 79V78.0114L86.3347 77.6896V74.6364H87.1998V79H86.3176Z" fill="#C24F1E"/>
<path d="M147.252 63.6364V68H146.33V64.5121H146.304L145.305 65.1385V64.3203L146.385 63.6364H147.252ZM149.902 68.0597C149.584 68.0597 149.301 68.005 149.052 67.8956C148.805 67.7848 148.61 67.6328 148.466 67.4396C148.324 67.245 148.251 67.0206 148.247 66.7663H149.176C149.181 66.8729 149.216 66.9666 149.28 67.0476C149.345 67.1271 149.432 67.1889 149.54 67.233C149.648 67.277 149.769 67.299 149.904 67.299C150.045 67.299 150.169 67.2741 150.277 67.2244C150.385 67.1747 150.47 67.1058 150.531 67.0178C150.592 66.9297 150.622 66.8281 150.622 66.7131C150.622 66.5966 150.59 66.4936 150.524 66.4041C150.46 66.3132 150.368 66.2422 150.247 66.1911C150.128 66.1399 149.986 66.1143 149.821 66.1143H149.414V65.4368H149.821C149.96 65.4368 150.083 65.4126 150.19 65.3643C150.298 65.3161 150.382 65.2493 150.441 65.1641C150.501 65.0774 150.531 64.9766 150.531 64.8615C150.531 64.7521 150.504 64.6562 150.452 64.5739C150.401 64.4901 150.328 64.4247 150.235 64.3778C150.142 64.331 150.034 64.3075 149.911 64.3075C149.786 64.3075 149.671 64.3303 149.568 64.3757C149.464 64.4197 149.381 64.483 149.318 64.5653C149.256 64.6477 149.222 64.7443 149.218 64.8551H148.334C148.338 64.6037 148.41 64.3821 148.549 64.1903C148.688 63.9986 148.876 63.8487 149.112 63.7408C149.349 63.6314 149.617 63.5767 149.915 63.5767C150.216 63.5767 150.48 63.6314 150.705 63.7408C150.931 63.8501 151.107 63.9979 151.232 64.1839C151.358 64.3686 151.421 64.576 151.419 64.8061C151.421 65.0504 151.345 65.2543 151.191 65.4176C151.039 65.581 150.841 65.6847 150.597 65.7287V65.7628C150.918 65.804 151.162 65.9155 151.33 66.0973C151.499 66.2777 151.583 66.5036 151.581 66.7749C151.583 67.0234 151.511 67.2443 151.366 67.4375C151.222 67.6307 151.024 67.7827 150.771 67.8935C150.519 68.0043 150.229 68.0597 149.902 68.0597Z" fill="#C24F1E"/>
<path d="M204.252 79.6364V84H203.33V80.5121H203.304L202.305 81.1385V80.3203L203.385 79.6364H204.252ZM205.289 84V83.3352L206.843 81.897C206.975 81.7692 207.085 81.6541 207.175 81.5518C207.266 81.4496 207.335 81.3494 207.382 81.2514C207.428 81.152 207.452 81.0447 207.452 80.9297C207.452 80.8018 207.423 80.6918 207.365 80.5994C207.306 80.5057 207.227 80.4339 207.126 80.3842C207.025 80.3331 206.911 80.3075 206.783 80.3075C206.649 80.3075 206.533 80.3345 206.433 80.3885C206.334 80.4425 206.257 80.5199 206.203 80.6207C206.149 80.7216 206.122 80.8416 206.122 80.9808H205.247C205.247 80.6953 205.311 80.4474 205.441 80.2372C205.57 80.027 205.751 79.8643 205.984 79.7493C206.217 79.6342 206.485 79.5767 206.789 79.5767C207.102 79.5767 207.374 79.6321 207.605 79.7429C207.838 79.8523 208.019 80.0043 208.149 80.1989C208.278 80.3935 208.343 80.6165 208.343 80.8679C208.343 81.0327 208.31 81.1953 208.244 81.3558C208.181 81.5163 208.066 81.6946 207.901 81.8906C207.737 82.0852 207.504 82.3189 207.205 82.5916L206.568 83.2159V83.2457H208.4V84H205.289Z" fill="#C24F1E"/>
<path d="M249.295 139.062C249.087 139.062 248.901 139.026 248.737 138.953C248.574 138.879 248.445 138.771 248.349 138.627C248.256 138.482 248.209 138.302 248.209 138.086C248.209 137.904 248.242 137.751 248.309 137.628C248.376 137.504 248.467 137.405 248.582 137.33C248.697 137.254 248.827 137.197 248.974 137.159C249.121 137.121 249.276 137.094 249.438 137.078C249.629 137.058 249.782 137.04 249.898 137.023C250.015 137.004 250.099 136.977 250.152 136.942C250.205 136.906 250.231 136.854 250.231 136.784V136.771C250.231 136.636 250.188 136.532 250.103 136.458C250.019 136.384 249.9 136.347 249.745 136.347C249.582 136.347 249.452 136.384 249.355 136.456C249.259 136.527 249.195 136.616 249.163 136.724L248.324 136.656C248.366 136.457 248.45 136.286 248.575 136.141C248.7 135.994 248.862 135.882 249.059 135.804C249.258 135.724 249.488 135.685 249.749 135.685C249.931 135.685 250.105 135.706 250.271 135.749C250.439 135.791 250.587 135.857 250.717 135.947C250.847 136.036 250.95 136.151 251.026 136.292C251.101 136.431 251.138 136.598 251.138 136.793V139H250.278V138.546H250.252C250.2 138.648 250.129 138.739 250.041 138.817C249.953 138.893 249.847 138.954 249.724 138.998C249.6 139.04 249.457 139.062 249.295 139.062ZM249.555 138.435C249.689 138.435 249.807 138.409 249.909 138.357C250.011 138.303 250.092 138.23 250.15 138.139C250.208 138.048 250.237 137.945 250.237 137.83V137.483C250.209 137.501 250.17 137.518 250.12 137.534C250.072 137.548 250.017 137.562 249.956 137.575C249.895 137.586 249.834 137.597 249.773 137.607C249.712 137.615 249.656 137.623 249.607 137.63C249.5 137.646 249.407 137.67 249.327 137.705C249.248 137.739 249.186 137.785 249.142 137.843C249.098 137.9 249.076 137.971 249.076 138.056C249.076 138.18 249.121 138.274 249.21 138.339C249.301 138.403 249.416 138.435 249.555 138.435Z" fill="#C24F1E"/>
<path d="M196.379 52V47.6364H197.287V49.277H197.315C197.354 49.1889 197.412 49.0994 197.487 49.0085C197.564 48.9162 197.663 48.8395 197.786 48.7784C197.909 48.7159 198.063 48.6847 198.246 48.6847C198.484 48.6847 198.705 48.7472 198.906 48.8722C199.108 48.9957 199.269 49.1825 199.39 49.4325C199.511 49.6811 199.571 49.9929 199.571 50.3679C199.571 50.733 199.512 51.0412 199.394 51.2926C199.278 51.5426 199.119 51.7322 198.917 51.8615C198.717 51.9893 198.492 52.0533 198.244 52.0533C198.067 52.0533 197.918 52.0241 197.794 51.9659C197.672 51.9077 197.572 51.8345 197.494 51.7464C197.415 51.657 197.356 51.5668 197.315 51.4759H197.274V52H196.379ZM197.268 50.3636C197.268 50.5582 197.295 50.728 197.349 50.8729C197.403 51.0178 197.481 51.1307 197.583 51.2116C197.685 51.2912 197.81 51.331 197.956 51.331C198.104 51.331 198.229 51.2905 198.331 51.2095C198.433 51.1271 198.511 51.0135 198.563 50.8686C198.617 50.7223 198.644 50.554 198.644 50.3636C198.644 50.1747 198.618 50.0085 198.565 49.8651C198.513 49.7216 198.435 49.6094 198.333 49.5284C198.231 49.4474 198.105 49.407 197.956 49.407C197.808 49.407 197.683 49.446 197.581 49.5241C197.48 49.6023 197.403 49.7131 197.349 49.8565C197.295 50 197.268 50.169 197.268 50.3636Z" fill="#C24F1E"/>
<path d="M193.354 164V163.335L194.907 161.897C195.039 161.769 195.15 161.654 195.239 161.552C195.33 161.45 195.399 161.349 195.446 161.251C195.493 161.152 195.516 161.045 195.516 160.93C195.516 160.802 195.487 160.692 195.429 160.599C195.371 160.506 195.291 160.434 195.19 160.384C195.089 160.333 194.975 160.308 194.847 160.308C194.714 160.308 194.597 160.335 194.498 160.388C194.398 160.442 194.322 160.52 194.268 160.621C194.214 160.722 194.187 160.842 194.187 160.981H193.311C193.311 160.695 193.376 160.447 193.505 160.237C193.634 160.027 193.815 159.864 194.048 159.749C194.281 159.634 194.55 159.577 194.854 159.577C195.166 159.577 195.438 159.632 195.67 159.743C195.903 159.852 196.084 160.004 196.213 160.199C196.342 160.393 196.407 160.616 196.407 160.868C196.407 161.033 196.374 161.195 196.309 161.356C196.245 161.516 196.131 161.695 195.966 161.891C195.801 162.085 195.569 162.319 195.269 162.592L194.632 163.216V163.246H196.464V164H193.354Z" fill="#C24F1E"/>
<path d="M189.967 181.06C189.648 181.06 189.365 181.005 189.116 180.896C188.869 180.785 188.674 180.633 188.531 180.44C188.388 180.245 188.315 180.021 188.311 179.766H189.24C189.246 179.873 189.281 179.967 189.344 180.048C189.41 180.127 189.496 180.189 189.604 180.233C189.712 180.277 189.834 180.299 189.969 180.299C190.109 180.299 190.234 180.274 190.342 180.224C190.45 180.175 190.534 180.106 190.595 180.018C190.656 179.93 190.687 179.828 190.687 179.713C190.687 179.597 190.654 179.494 190.589 179.404C190.525 179.313 190.433 179.242 190.312 179.191C190.192 179.14 190.05 179.114 189.886 179.114H189.479V178.437H189.886C190.025 178.437 190.148 178.413 190.254 178.364C190.362 178.316 190.446 178.249 190.506 178.164C190.565 178.077 190.595 177.977 190.595 177.862C190.595 177.752 190.569 177.656 190.516 177.574C190.465 177.49 190.393 177.425 190.299 177.378C190.207 177.331 190.099 177.308 189.975 177.308C189.85 177.308 189.736 177.33 189.632 177.376C189.528 177.42 189.445 177.483 189.383 177.565C189.32 177.648 189.287 177.744 189.283 177.855H188.398C188.403 177.604 188.474 177.382 188.614 177.19C188.753 176.999 188.94 176.849 189.176 176.741C189.413 176.631 189.681 176.577 189.979 176.577C190.281 176.577 190.544 176.631 190.77 176.741C190.996 176.85 191.171 176.998 191.296 177.184C191.423 177.369 191.485 177.576 191.484 177.806C191.485 178.05 191.409 178.254 191.256 178.418C191.104 178.581 190.906 178.685 190.661 178.729V178.763C190.982 178.804 191.227 178.915 191.394 179.097C191.563 179.278 191.647 179.504 191.646 179.775C191.647 180.023 191.575 180.244 191.43 180.438C191.287 180.631 191.089 180.783 190.836 180.893C190.583 181.004 190.293 181.06 189.967 181.06Z" fill="#C24F1E"/>
<path d="M186.288 198.233V197.506L188.109 194.636H188.736V195.642H188.365L187.217 197.46V197.494H189.805V198.233H186.288ZM188.382 199V198.011L188.399 197.69V194.636H189.264V199H188.382Z" fill="#C24F1E"/>
<path d="M186.947 219.06C186.646 219.06 186.378 219.004 186.142 218.893C185.908 218.783 185.722 218.63 185.584 218.435C185.446 218.241 185.374 218.018 185.369 217.766H186.263C186.273 217.935 186.344 218.072 186.477 218.178C186.609 218.283 186.766 218.335 186.947 218.335C187.092 218.335 187.22 218.303 187.331 218.239C187.443 218.174 187.531 218.084 187.593 217.969C187.657 217.852 187.689 217.719 187.689 217.568C187.689 217.415 187.656 217.28 187.591 217.163C187.527 217.047 187.438 216.956 187.325 216.891C187.211 216.825 187.081 216.792 186.935 216.79C186.807 216.79 186.683 216.817 186.562 216.869C186.442 216.922 186.349 216.994 186.283 217.085L185.462 216.938L185.669 214.636H188.337V215.391H186.43L186.317 216.484H186.342C186.419 216.376 186.535 216.286 186.69 216.215C186.844 216.144 187.018 216.109 187.21 216.109C187.472 216.109 187.707 216.17 187.913 216.294C188.119 216.418 188.281 216.587 188.401 216.803C188.52 217.018 188.579 217.265 188.577 217.545C188.579 217.839 188.511 218.1 188.373 218.329C188.237 218.556 188.045 218.735 187.8 218.866C187.555 218.995 187.271 219.06 186.947 219.06Z" fill="#C24F1E"/>
<path d="M197.028 235.06C196.804 235.058 196.587 235.021 196.379 234.947C196.171 234.873 195.985 234.753 195.82 234.587C195.656 234.42 195.525 234.2 195.428 233.926C195.333 233.652 195.286 233.315 195.286 232.916C195.287 232.55 195.329 232.222 195.411 231.934C195.495 231.644 195.614 231.398 195.769 231.197C195.925 230.995 196.112 230.842 196.33 230.737C196.547 230.63 196.79 230.577 197.06 230.577C197.352 230.577 197.609 230.634 197.832 230.747C198.055 230.859 198.234 231.012 198.369 231.205C198.505 231.398 198.587 231.615 198.616 231.855H197.706C197.67 231.703 197.596 231.584 197.482 231.497C197.369 231.411 197.228 231.367 197.06 231.367C196.776 231.367 196.56 231.491 196.413 231.738C196.266 231.985 196.192 232.321 196.189 232.746H196.219C196.284 232.616 196.372 232.506 196.483 232.415C196.595 232.323 196.722 232.253 196.864 232.205C197.008 232.155 197.159 232.13 197.318 232.13C197.577 232.13 197.807 232.191 198.009 232.313C198.21 232.434 198.369 232.6 198.486 232.812C198.602 233.023 198.661 233.266 198.661 233.538C198.661 233.834 198.592 234.097 198.454 234.327C198.317 234.557 198.126 234.737 197.881 234.868C197.636 234.997 197.352 235.061 197.028 235.06ZM197.024 234.335C197.166 234.335 197.293 234.301 197.406 234.233C197.518 234.165 197.606 234.072 197.67 233.956C197.734 233.839 197.766 233.709 197.766 233.564C197.766 233.419 197.734 233.289 197.67 233.174C197.607 233.059 197.521 232.967 197.41 232.899C197.299 232.831 197.173 232.797 197.031 232.797C196.924 232.797 196.825 232.817 196.734 232.857C196.645 232.896 196.566 232.952 196.498 233.023C196.431 233.094 196.379 233.176 196.34 233.27C196.302 233.362 196.283 233.461 196.283 233.566C196.283 233.707 196.315 233.835 196.379 233.952C196.444 234.068 196.532 234.161 196.643 234.231C196.755 234.3 196.882 234.335 197.024 234.335Z" fill="#C24F1E"/>
<path d="M144.252 177.636V182H143.33V178.512H143.304L142.305 179.138V178.32L143.385 177.636H144.252ZM145.462 182L147.271 178.42V178.391H145.164V177.636H148.225V178.401L146.414 182H145.462Z" fill="#C24F1E"/>
<path d="M104.526 173L106.335 169.42V169.391H104.228V168.636H107.29V169.401L105.479 173H104.526Z" fill="#C24F1E"/>
<path d="M90.9815 181.06C90.6534 181.06 90.3615 181.006 90.1058 180.9C89.8516 180.792 89.652 180.645 89.5071 180.459C89.3622 180.273 89.2898 180.062 89.2898 179.826C89.2898 179.644 89.331 179.477 89.4134 179.325C89.4972 179.172 89.6108 179.045 89.7543 178.944C89.8977 178.842 90.0582 178.776 90.2358 178.748V178.718C90.0028 178.671 89.8139 178.558 89.669 178.379C89.5241 178.199 89.4517 177.989 89.4517 177.751C89.4517 177.525 89.5178 177.324 89.6499 177.148C89.782 176.97 89.9631 176.831 90.1932 176.73C90.4247 176.628 90.6875 176.577 90.9815 176.577C91.2756 176.577 91.5376 176.628 91.7678 176.73C91.9993 176.832 92.1811 176.972 92.3132 177.15C92.4453 177.326 92.5121 177.526 92.5135 177.751C92.5121 177.991 92.4382 178.2 92.2919 178.379C92.1456 178.558 91.9581 178.671 91.7294 178.718V178.748C91.9041 178.776 92.0625 178.842 92.2045 178.944C92.348 179.045 92.4616 179.172 92.5455 179.325C92.6307 179.477 92.674 179.644 92.6754 179.826C92.674 180.062 92.6009 180.273 92.456 180.459C92.3111 180.645 92.1108 180.792 91.8551 180.9C91.6009 181.006 91.3097 181.06 90.9815 181.06ZM90.9815 180.382C91.1278 180.382 91.2557 180.356 91.3651 180.303C91.4744 180.249 91.5597 180.175 91.6207 180.082C91.6832 179.987 91.7145 179.877 91.7145 179.754C91.7145 179.627 91.6825 179.516 91.6186 179.419C91.5547 179.321 91.468 179.244 91.3587 179.189C91.2493 179.132 91.1236 179.104 90.9815 179.104C90.8409 179.104 90.7152 179.132 90.6044 179.189C90.4936 179.244 90.4063 179.321 90.3423 179.419C90.2798 179.516 90.2486 179.627 90.2486 179.754C90.2486 179.877 90.2791 179.987 90.3402 180.082C90.4013 180.175 90.4872 180.249 90.598 180.303C90.7088 180.356 90.8366 180.382 90.9815 180.382ZM90.9815 178.433C91.1037 178.433 91.2124 178.408 91.3075 178.358C91.4027 178.308 91.4773 178.239 91.5312 178.151C91.5852 178.063 91.6122 177.962 91.6122 177.847C91.6122 177.733 91.5852 177.634 91.5312 177.548C91.4773 177.462 91.4034 177.394 91.3097 177.346C91.2159 177.296 91.1065 177.271 90.9815 177.271C90.858 177.271 90.7486 177.296 90.6534 177.346C90.5582 177.394 90.4837 177.462 90.4297 177.548C90.3771 177.634 90.3509 177.733 90.3509 177.847C90.3509 177.962 90.3778 178.063 90.4318 178.151C90.4858 178.239 90.5604 178.308 90.6555 178.358C90.7507 178.408 90.8594 178.433 90.9815 178.433Z" fill="#C24F1E"/>
<path d="M84.9325 193.577C85.157 193.577 85.3729 193.614 85.5803 193.69C85.7891 193.765 85.9751 193.885 86.1385 194.05C86.3033 194.214 86.4332 194.433 86.5284 194.706C86.625 194.977 86.674 195.31 86.6754 195.705C86.6754 196.076 86.6335 196.407 86.5497 196.698C86.4673 196.988 86.3487 197.234 86.1939 197.438C86.0391 197.641 85.8523 197.795 85.6335 197.902C85.4148 198.007 85.1705 198.06 84.9006 198.06C84.6094 198.06 84.3523 198.004 84.1293 197.891C83.9063 197.778 83.7266 197.624 83.5902 197.429C83.4553 197.233 83.3736 197.013 83.3452 196.768H84.255C84.2905 196.928 84.3651 197.051 84.4787 197.139C84.5923 197.226 84.733 197.269 84.9006 197.269C85.1847 197.269 85.4006 197.146 85.5483 196.898C85.696 196.65 85.7706 196.31 85.772 195.878H85.7422C85.6768 196.006 85.5888 196.116 85.478 196.208C85.3672 196.299 85.2401 196.369 85.0966 196.419C84.9545 196.469 84.8033 196.494 84.6428 196.494C84.3857 196.494 84.1562 196.433 83.9545 196.312C83.7528 196.192 83.5938 196.026 83.4773 195.814C83.3608 195.602 83.3026 195.361 83.3026 195.089C83.3011 194.797 83.3686 194.536 83.505 194.308C83.6413 194.079 83.8317 193.9 84.076 193.771C84.3217 193.64 84.6072 193.575 84.9325 193.577ZM84.9389 194.301C84.7955 194.301 84.6676 194.335 84.5554 194.403C84.4446 194.472 84.3565 194.563 84.2912 194.678C84.2273 194.793 84.196 194.922 84.1974 195.064C84.1974 195.207 84.2287 195.337 84.2912 195.452C84.3551 195.565 84.4418 195.656 84.5511 195.724C84.6619 195.791 84.7884 195.825 84.9304 195.825C85.0369 195.825 85.1357 195.805 85.2266 195.765C85.3175 195.725 85.3963 195.67 85.4631 195.601C85.5313 195.53 85.5845 195.448 85.6229 195.356C85.6612 195.263 85.6804 195.165 85.6804 195.062C85.679 194.924 85.6463 194.798 85.5824 194.683C85.5185 194.567 85.4304 194.475 85.3182 194.406C85.206 194.336 85.0795 194.301 84.9389 194.301Z" fill="#C24F1E"/>
<path d="M88.2521 210.636V215H87.3295V211.512H87.304L86.3047 212.138V211.32L87.3849 210.636H88.2521ZM91.0002 215.096C90.6337 215.094 90.3184 215.004 90.0542 214.825C89.7914 214.646 89.589 214.387 89.4469 214.048C89.3063 213.708 89.2367 213.3 89.2381 212.822C89.2381 212.347 89.3084 211.941 89.449 211.606C89.5911 211.271 89.7935 211.016 90.0563 210.841C90.3205 210.665 90.6351 210.577 91.0002 210.577C91.3652 210.577 91.6792 210.665 91.9419 210.841C92.2061 211.017 92.4093 211.273 92.5513 211.608C92.6934 211.942 92.7637 212.347 92.7623 212.822C92.7623 213.301 92.6912 213.71 92.5492 214.05C92.4086 214.389 92.2069 214.648 91.9441 214.827C91.6813 215.006 91.3667 215.096 91.0002 215.096ZM91.0002 214.331C91.2502 214.331 91.4498 214.205 91.5989 213.954C91.748 213.702 91.8219 213.325 91.8205 212.822C91.8205 212.491 91.7864 212.216 91.7182 211.996C91.6515 211.776 91.5563 211.61 91.4327 211.499C91.3105 211.388 91.1664 211.333 91.0002 211.333C90.7516 211.333 90.5527 211.457 90.4036 211.706C90.2544 211.955 90.1792 212.327 90.1777 212.822C90.1777 213.158 90.2111 213.438 90.2779 213.662C90.3461 213.885 90.4419 214.053 90.5655 214.165C90.6891 214.276 90.834 214.331 91.0002 214.331Z" fill="#C24F1E"/>
<path d="M99.2521 226.636V231H98.3295V227.512H98.304L97.3047 228.138V227.32L98.3849 226.636H99.2521ZM102.188 226.636V231H101.265V227.512H101.24L100.24 228.138V227.32L101.32 226.636H102.188Z" fill="#C24F1E"/>
<path d="M35.2521 129.636V134H34.3295V130.512H34.304L33.3047 131.138V130.32L34.3849 129.636H35.2521ZM37.9171 134.06C37.589 134.06 37.2971 134.006 37.0414 133.9C36.7871 133.792 36.5875 133.645 36.4426 133.459C36.2978 133.273 36.2253 133.062 36.2253 132.826C36.2253 132.644 36.2665 132.477 36.3489 132.325C36.4327 132.172 36.5463 132.045 36.6898 131.944C36.8333 131.842 36.9938 131.776 37.1713 131.748V131.718C36.9384 131.671 36.7495 131.558 36.6046 131.379C36.4597 131.199 36.3873 130.989 36.3873 130.751C36.3873 130.525 36.4533 130.324 36.5854 130.148C36.7175 129.97 36.8986 129.831 37.1287 129.73C37.3603 129.628 37.623 129.577 37.9171 129.577C38.2111 129.577 38.4732 129.628 38.7033 129.73C38.9348 129.832 39.1167 129.972 39.2488 130.15C39.3809 130.326 39.4476 130.526 39.449 130.751C39.4476 130.991 39.3738 131.2 39.2275 131.379C39.0811 131.558 38.8936 131.671 38.665 131.718V131.748C38.8397 131.776 38.998 131.842 39.1401 131.944C39.2836 132.045 39.3972 132.172 39.481 132.325C39.5662 132.477 39.6096 132.644 39.611 132.826C39.6096 133.062 39.5364 133.273 39.3915 133.459C39.2466 133.645 39.0463 133.792 38.7907 133.9C38.5364 134.006 38.2452 134.06 37.9171 134.06ZM37.9171 133.382C38.0634 133.382 38.1912 133.356 38.3006 133.303C38.41 133.249 38.4952 133.175 38.5563 133.082C38.6188 132.987 38.65 132.877 38.65 132.754C38.65 132.627 38.6181 132.516 38.5542 132.419C38.4902 132.321 38.4036 132.244 38.2942 132.189C38.1848 132.132 38.0591 132.104 37.9171 132.104C37.7765 132.104 37.6507 132.132 37.54 132.189C37.4292 132.244 37.3418 132.321 37.2779 132.419C37.2154 132.516 37.1841 132.627 37.1841 132.754C37.1841 132.877 37.2147 132.987 37.2757 133.082C37.3368 133.175 37.4228 133.249 37.5336 133.303C37.6444 133.356 37.7722 133.382 37.9171 133.382ZM37.9171 131.433C38.0392 131.433 38.1479 131.408 38.2431 131.358C38.3382 131.308 38.4128 131.239 38.4668 131.151C38.5208 131.063 38.5478 130.962 38.5478 130.847C38.5478 130.733 38.5208 130.634 38.4668 130.548C38.4128 130.462 38.339 130.394 38.2452 130.346C38.1515 130.296 38.0421 130.271 37.9171 130.271C37.7935 130.271 37.6841 130.296 37.589 130.346C37.4938 130.394 37.4192 130.462 37.3652 130.548C37.3127 130.634 37.2864 130.733 37.2864 130.847C37.2864 130.962 37.3134 131.063 37.3674 131.151C37.4213 131.239 37.4959 131.308 37.5911 131.358C37.6863 131.408 37.7949 131.433 37.9171 131.433Z" fill="#C24F1E"/>
<path d="M47.2521 106.636V111H46.3295V107.512H46.304L45.3047 108.138V107.32L46.3849 106.636H47.2521ZM49.964 111.06C49.7395 111.058 49.5229 111.021 49.3141 110.947C49.1067 110.873 48.9206 110.753 48.7559 110.587C48.5911 110.42 48.4604 110.2 48.3638 109.926C48.2686 109.652 48.2211 109.315 48.2211 108.916C48.2225 108.55 48.2644 108.222 48.3468 107.934C48.4306 107.644 48.5499 107.398 48.7047 107.197C48.861 106.995 49.0478 106.842 49.2651 106.737C49.4824 106.63 49.726 106.577 49.9959 106.577C50.2871 106.577 50.5442 106.634 50.7672 106.747C50.9902 106.859 51.1692 107.012 51.3042 107.205C51.4405 107.398 51.5229 107.615 51.5513 107.855H50.6415C50.606 107.703 50.5314 107.584 50.4178 107.497C50.3042 107.411 50.1635 107.367 49.9959 107.367C49.7118 107.367 49.4959 107.491 49.3482 107.738C49.2019 107.985 49.1273 108.321 49.1245 108.746H49.1543C49.2196 108.616 49.3077 108.506 49.4185 108.415C49.5307 108.323 49.6578 108.253 49.7999 108.205C49.9434 108.155 50.0946 108.13 50.2537 108.13C50.5123 108.13 50.7424 108.191 50.9441 108.313C51.1458 108.434 51.3049 108.6 51.4213 108.812C51.5378 109.023 51.5961 109.266 51.5961 109.538C51.5961 109.834 51.5272 110.097 51.3894 110.327C51.253 110.557 51.062 110.737 50.8162 110.868C50.5719 110.997 50.2878 111.061 49.964 111.06ZM49.9597 110.335C50.1017 110.335 50.2289 110.301 50.3411 110.233C50.4533 110.165 50.5414 110.072 50.6053 109.956C50.6692 109.839 50.7012 109.709 50.7012 109.564C50.7012 109.419 50.6692 109.289 50.6053 109.174C50.5428 109.059 50.4561 108.967 50.3453 108.899C50.2346 108.831 50.1081 108.797 49.9661 108.797C49.8596 108.797 49.7608 108.817 49.6699 108.857C49.5804 108.896 49.5016 108.952 49.4334 109.023C49.3667 109.094 49.3141 109.176 49.2757 109.27C49.2374 109.362 49.2182 109.461 49.2182 109.566C49.2182 109.707 49.2502 109.835 49.3141 109.952C49.3794 110.068 49.4675 110.161 49.5783 110.231C49.6905 110.3 49.8176 110.335 49.9597 110.335Z" fill="#C24F1E"/>
<path d="M56.2521 87.6364V92H55.3295V88.5121H55.304L54.3047 89.1385V88.3203L55.3849 87.6364H56.2521ZM58.883 92.0597C58.5819 92.0597 58.3134 92.0043 58.0776 91.8935C57.8432 91.7827 57.6571 91.63 57.5194 91.4354C57.3816 91.2408 57.3098 91.0178 57.3042 90.7663H58.199C58.209 90.9354 58.28 91.0724 58.4121 91.1776C58.5442 91.2827 58.7012 91.3352 58.883 91.3352C59.0279 91.3352 59.1557 91.3033 59.2665 91.2393C59.3787 91.174 59.4661 91.0838 59.5286 90.9688C59.5925 90.8523 59.6245 90.7187 59.6245 90.5682C59.6245 90.4148 59.5918 90.2798 59.5265 90.1634C59.4625 90.0469 59.3738 89.956 59.2601 89.8906C59.1465 89.8253 59.0165 89.7919 58.8702 89.7905C58.7424 89.7905 58.6181 89.8168 58.4973 89.8693C58.378 89.9219 58.285 89.9936 58.2182 90.0845L57.3979 89.9375L57.6046 87.6364H60.2722V88.3906H58.3652L58.2523 89.4837H58.2779C58.3546 89.3757 58.4703 89.2862 58.6252 89.2152C58.78 89.1442 58.9533 89.1087 59.1451 89.1087C59.4078 89.1087 59.6422 89.1705 59.8482 89.294C60.0542 89.4176 60.2168 89.5874 60.3361 89.8033C60.4554 90.0178 60.5144 90.2649 60.513 90.5447C60.5144 90.8388 60.4462 91.1001 60.3084 91.3288C60.1721 91.5561 59.981 91.7351 59.7353 91.8658C59.4909 91.995 59.2069 92.0597 58.883 92.0597Z" fill="#C24F1E"/>
</g>
</svg>
