<svg width="1349" height="253" viewBox="0 0 1349 253" fill="none" xmlns="http://www.w3.org/2000/svg">
<path d="M670.029 41.3984C660.802 40.4505 663.195 46.1932 665.545 49.1831C660.33 49.7084 662.455 91.1464 662.833 91.9884C663.21 92.8303 660.635 96.3163 655.709 96.8124C650.784 97.3086 636.81 89.3297 631.182 82.8567C626.68 77.6784 618.442 71.6249 614.885 69.2454C605.385 49.3176 594.124 43.2752 589.68 42.7451C571.108 44.3224 573.621 66.362 566.646 75.5709C559.671 84.7798 559.028 78.3915 543.855 58.5072C528.682 38.6228 522.845 56.2235 522.555 56.2527C522.324 56.276 505.471 89.0659 497.074 105.458C497.036 106.048 495.042 108.537 487.375 113.768C477.79 120.307 479.1 127.508 473.63 134.218C468.16 140.929 468.881 168.429 469.408 173.656C469.934 178.883 461.256 194.423 465.716 192.214C470.176 190.005 473.663 169.414 474.79 166.074C475.692 163.402 476.395 157.797 476.634 155.329C482.028 159.478 478.289 189.188 477.481 192.789C476.673 196.39 475.376 203.854 472.83 207.63C470.283 211.407 472.493 218.81 477.453 224.471C481.421 228.999 480.725 242.425 479.88 248.572C483.705 248.773 491.645 249.147 492.804 249.03C494.253 248.884 493.84 241.886 490.156 237.271C486.472 232.655 485.969 221.853 485.328 218.398C484.688 214.942 484.191 210.006 486.333 208.03C488.475 206.054 491.885 196.324 493.934 187.612C495.574 180.641 499.964 179.671 501.954 180.057C500.672 182.826 498.485 189.207 499.995 192.574C501.882 196.784 502.499 205.815 502.13 213.772C501.761 221.729 500.339 219.232 507.415 225.559C513.076 230.621 515.368 240.598 515.807 244.953L526.325 244.774C526.535 242.015 525.875 234.494 521.556 226.481C517.237 218.469 516.214 215.091 516.242 214.404C516.451 210.667 516.665 202.335 515.851 198.897C514.833 194.6 516.361 186.526 518.907 182.75C521.454 178.973 521.77 176.301 523.444 169.68C524.784 164.382 526.453 164.683 527.12 165.496C559.592 185.691 586.037 175.108 595.362 168.889C602.821 163.914 605.464 168.458 605.853 171.352C604.885 179.174 602.411 195.869 600.259 200.075C597.569 205.332 602.152 210.15 600.653 218.514C599.454 225.206 601.46 234.273 602.613 237.97L615.071 236.715C613.163 231.334 609.608 220.252 610.65 218.974C611.953 217.376 611.514 213.021 611.942 205.644C612.369 198.268 614.748 201.548 615.708 205.265C616.476 208.238 617.967 214.131 618.616 216.705L624.343 235.781L633.471 236.328C632.163 232.06 628.868 222.595 626.152 218.879C622.795 214.286 623.437 212.445 624.989 207.994L625.041 207.845C626.63 203.285 623.874 199.163 624.017 197.682C624.161 196.201 620.726 179.534 627.328 175.349C632.61 172.001 633.869 166.672 633.838 164.427C632.571 162.501 632.109 156.564 640.4 148.22C648.691 139.875 653.721 140.034 655.2 141.156C661.167 151.584 675.498 146.053 681.917 141.985C709.018 120.482 704.292 86.1502 698.541 71.6722C706.624 70.5646 708.012 66.905 709.979 63.187C711.552 60.2126 718.897 56.8133 722.373 55.4854C719.06 55.5258 714.48 55.5765 722.663 55.4562C732.891 55.306 734.396 52.8078 733.96 51.3851C733.524 49.9624 731.466 49.8763 729.786 50.6322C728.106 51.388 728.742 48.9774 730.015 47.0893C731.288 45.2011 735.116 48.3354 735.172 45.9832C735.227 43.631 732.819 40.0604 725.078 35.8535C718.886 32.4881 712.454 35.4629 710.012 37.3711C708.66 37.5072 703.748 37.3567 694.914 35.6652C686.081 33.9737 674.644 38.7825 670.029 41.3984Z" fill="#C4D9D4"/>
<path d="M261.377 8.01072C250.564 5.7826 252.713 12.8847 255.139 16.7143C248.901 16.7143 246.475 66.1506 246.821 67.195C247.168 68.2394 243.702 72.069 237.81 72.069C231.919 72.069 216.323 60.9284 210.432 52.573C205.718 45.8887 196.684 37.7189 192.757 34.4696C183.884 9.68178 171.269 1.16388 166.071 0.00340292C143.891 -0.34474 144.237 26.1141 134.88 36.2103C125.523 46.3064 125.523 38.6473 109.927 13.2329C94.3315 -12.1816 85.3208 8.01072 84.9742 8.01072C84.6969 8.01072 60.83 44.9139 48.9312 63.3655C48.8157 64.0617 46.1587 66.7773 36.4548 72.069C24.3249 78.6837 25.0181 87.3873 17.7402 94.6983C10.4622 102.009 8.03627 134.735 8.03627 141.001C8.03627 147.268 -4.09358 164.675 1.4515 162.586C6.99657 160.497 13.5813 136.475 15.3142 132.646C16.7005 129.582 18.2022 123.014 18.7799 120.113C24.6715 125.683 16.7005 160.497 15.3142 164.675C13.9279 168.853 11.5019 177.556 8.03627 181.734C4.5706 185.912 6.30344 194.964 11.5019 202.275C15.6608 208.123 13.2348 223.975 11.5019 231.17C16.0073 231.867 25.3646 233.259 26.7509 233.259C28.4837 233.259 28.8303 224.904 25.0181 218.985C21.2058 213.067 21.899 200.186 21.5524 196.008C21.2058 191.83 21.2058 185.912 23.9784 183.823C26.7509 181.734 31.9494 170.594 35.4151 160.497C38.1876 152.42 43.5017 151.794 45.8121 152.49C43.9637 155.623 40.6136 162.934 41.9999 167.112C43.7327 172.334 43.3861 183.127 41.9999 192.527C40.6136 201.926 39.2273 198.793 46.8518 207.149C52.9514 213.833 54.4763 225.948 54.4763 231.17L66.9527 232.215C67.5303 228.966 67.6458 219.96 63.487 209.934C59.3282 199.907 58.5196 195.776 58.6351 194.964C59.3282 190.554 60.5759 180.69 60.0214 176.512C59.3282 171.29 62.1008 161.89 65.5664 157.712C69.0321 153.535 69.7252 150.401 72.4978 142.742C74.7158 136.615 76.6566 137.172 77.3497 138.216C113.393 166.068 145.97 156.668 157.753 150.401C167.18 145.388 169.768 151.098 169.883 154.579C167.804 163.747 162.883 183.266 159.833 188.001C156.02 193.919 160.872 200.186 158.1 209.934C155.882 217.732 157.176 228.733 158.1 233.259H173.002C171.385 226.645 168.497 213.067 169.883 211.674C171.616 209.934 171.616 204.712 173.002 196.008C174.389 187.304 176.815 191.482 177.508 196.008C178.062 199.629 179.125 206.8 179.587 209.934L184.092 233.259L194.836 235C193.796 229.778 191.024 218.15 188.251 213.415C184.824 207.562 185.803 205.454 188.172 200.357L188.251 200.186C190.677 194.964 187.905 189.741 188.251 188.001C188.598 186.26 186.518 166.068 194.836 161.89C201.49 158.548 203.616 152.374 203.847 149.705C202.576 147.268 202.738 140.166 213.551 131.253C224.364 122.341 230.301 123.13 231.919 124.639C237.741 137.729 255.37 132.878 263.456 128.816C298.113 106.535 296.611 65.2222 291.528 47.3509C301.232 47.0027 303.312 42.825 306.084 38.6473C308.302 35.3051 317.405 32.1486 321.68 30.9881C317.752 30.64 312.322 30.1526 322.026 30.9881C334.156 32.0326 336.235 29.2474 335.889 27.5067C335.542 25.766 333.116 25.4179 331.037 26.1141C328.958 26.8104 329.997 24.0253 331.73 21.9364C333.463 19.8476 337.622 24.0253 337.968 21.2401C338.315 18.455 335.889 13.9291 327.225 8.01072C320.293 3.27598 312.322 6.03791 309.203 8.01072C307.586 8.01072 301.787 7.2448 291.528 4.18113C281.27 1.11746 267.153 5.45766 261.377 8.01072Z" fill="#C4D9D4"/>
<path d="M918.868 95.7085C914.075 95.0773 915.239 98.1138 916.42 99.711C913.696 99.9088 914.205 121.597 914.39 122.042C914.574 122.488 913.182 124.272 910.609 124.459C908.036 124.645 900.872 120.27 898.033 116.804C895.763 114.031 891.558 110.746 889.74 109.45C885.079 98.8957 879.299 95.5721 876.992 95.2296C867.294 95.7806 868.285 107.336 864.519 112.046C860.753 116.756 860.51 113.408 852.893 102.793C845.275 92.1774 841.981 101.29 841.83 101.301C841.708 101.31 832.456 118.199 827.845 126.642C827.817 126.95 826.743 128.221 822.673 130.842C817.586 134.118 818.164 137.901 815.218 141.328C812.272 144.755 812.251 159.137 812.45 161.877C812.648 164.616 807.903 172.61 810.259 171.521C812.614 170.432 814.728 159.723 815.363 157.993C815.871 156.61 816.318 153.691 816.479 152.405C819.228 154.653 816.852 170.125 816.379 171.995C815.906 173.865 815.123 177.747 813.742 179.683C812.361 181.619 813.405 185.521 815.908 188.552C817.909 190.977 817.353 197.984 816.825 201.184C818.814 201.346 822.945 201.658 823.55 201.614C824.307 201.559 824.193 197.895 822.341 195.429C820.488 192.963 820.382 187.31 820.098 185.494C819.814 183.679 819.626 181.092 820.771 180.091C821.915 179.09 823.832 174.055 825.025 169.531C825.98 165.913 828.28 165.47 829.312 165.701C828.604 167.13 827.373 170.432 828.111 172.214C829.033 174.442 829.224 179.171 828.917 183.324C828.61 187.477 827.905 186.151 831.5 189.562C834.376 192.291 835.427 197.539 835.592 199.822L841.074 199.883C841.223 198.444 840.988 194.504 838.854 190.252C836.719 186.001 836.235 184.221 836.26 183.862C836.422 181.912 836.654 177.561 836.279 175.752C835.811 173.491 836.724 169.294 838.104 167.358C839.485 165.422 839.689 164.03 840.656 160.594C841.431 157.845 842.296 158.027 842.632 158.462C859.256 169.494 873.185 164.352 878.132 161.239C882.09 158.749 883.401 161.163 883.562 162.681C882.945 166.755 881.415 175.443 880.234 177.61C878.757 180.318 881.074 182.904 880.173 187.253C879.452 190.732 880.366 195.5 880.913 197.45L887.421 196.977C886.505 194.137 884.813 188.293 885.374 187.64C886.076 186.824 885.91 184.541 886.239 180.693C886.568 176.844 887.76 178.593 888.207 180.55C888.564 182.115 889.256 185.217 889.557 186.572L892.265 196.626L897.012 197.046C896.392 194.796 894.812 189.801 893.451 187.819C891.768 185.369 892.129 184.416 893.002 182.113L893.031 182.036C893.925 179.676 892.549 177.481 892.645 176.709C892.741 175.937 891.192 167.176 894.692 165.086C897.492 163.414 898.224 160.648 898.24 159.474C897.608 158.449 897.453 155.339 901.893 151.1C906.332 146.861 908.95 147.018 909.704 147.626C912.662 153.164 920.207 150.484 923.61 148.452C938.038 137.614 936.071 119.601 933.284 111.95C937.511 111.49 938.287 109.598 939.365 107.684C940.228 106.152 944.103 104.484 945.933 103.841C944.206 103.814 941.82 103.773 946.084 103.83C951.415 103.902 952.234 102.619 952.028 101.869C951.821 101.119 950.751 101.044 949.865 101.414C948.979 101.784 949.344 100.534 950.035 99.5656C950.725 98.5975 952.674 100.292 952.737 99.0635C952.8 97.835 951.597 95.9334 947.625 93.6209C944.448 91.7708 941.055 93.2309 939.755 94.1922C939.049 94.2435 936.492 94.0925 931.914 93.0785C927.337 92.0644 921.31 94.4093 918.868 95.7085Z" fill="#C4D9D4"/>
<path d="M1115.45 89.5111C1110.71 88.5345 1111.66 91.6473 1112.72 93.3258C1109.99 93.3258 1108.92 114.994 1109.08 115.451C1109.23 115.909 1107.71 117.588 1105.13 117.588C1102.55 117.588 1095.72 112.705 1093.14 109.043C1091.08 106.113 1087.12 102.532 1085.4 101.108C1081.52 90.2435 1075.99 86.5101 1073.72 86.0015C1064.01 85.8489 1064.16 97.4458 1060.06 101.871C1055.96 106.296 1055.96 102.939 1049.13 91.7999C1042.3 80.6608 1038.36 89.5111 1038.21 89.5111C1038.09 89.5111 1027.64 105.686 1022.43 113.773C1022.37 114.078 1021.21 115.268 1016.96 117.588C1011.65 120.487 1011.95 124.302 1008.77 127.506C1005.58 130.71 1004.52 145.054 1004.52 147.801C1004.52 150.547 999.208 158.177 1001.64 157.261C1004.06 156.346 1006.95 145.817 1007.71 144.138C1008.31 142.796 1008.97 139.917 1009.22 138.645C1011.8 141.087 1008.31 156.346 1007.71 158.177C1007.1 160.008 1006.04 163.823 1004.52 165.654C1003 167.485 1003.76 171.452 1006.04 174.657C1007.86 177.22 1006.8 184.168 1006.04 187.322C1008.01 187.627 1012.11 188.237 1012.71 188.237C1013.47 188.237 1013.62 184.575 1011.95 181.981C1010.29 179.387 1010.59 173.741 1010.44 171.91C1010.29 170.079 1010.29 167.485 1011.5 166.569C1012.71 165.654 1014.99 160.771 1016.51 156.346C1017.72 152.806 1020.05 152.531 1021.06 152.836C1020.25 154.209 1018.78 157.414 1019.39 159.245C1020.15 161.534 1020 166.264 1019.39 170.384C1018.78 174.504 1018.18 173.131 1021.51 176.793C1024.19 179.723 1024.85 185.033 1024.85 187.322L1030.32 187.779C1030.57 186.355 1030.62 182.408 1028.8 178.013C1026.98 173.619 1026.62 171.808 1026.67 171.452C1026.98 169.519 1027.52 165.196 1027.28 163.365C1026.98 161.076 1028.19 156.956 1029.71 155.125C1031.23 153.294 1031.53 151.921 1032.74 148.564C1033.72 145.878 1034.57 146.122 1034.87 146.58C1050.65 158.787 1064.92 154.667 1070.08 151.921C1074.2 149.723 1075.34 152.226 1075.39 153.752C1074.48 157.77 1072.32 166.325 1070.99 168.4C1069.32 170.994 1071.44 173.741 1070.23 178.013C1069.26 181.432 1069.82 186.253 1070.23 188.237H1076.75C1076.04 185.338 1074.78 179.387 1075.39 178.776C1076.15 178.013 1076.15 175.725 1076.75 171.91C1077.36 168.095 1078.42 169.926 1078.73 171.91C1078.97 173.497 1079.43 176.64 1079.64 178.013L1081.61 188.237L1086.31 189C1085.86 186.711 1084.64 181.615 1083.43 179.539C1081.93 176.974 1082.36 176.05 1083.39 173.816L1083.43 173.741C1084.49 171.452 1083.28 169.163 1083.43 168.4C1083.58 167.637 1082.67 158.787 1086.31 156.956C1089.23 155.491 1090.16 152.785 1090.26 151.615C1089.7 150.547 1089.77 147.434 1094.51 143.528C1099.24 139.622 1101.84 139.968 1102.55 140.629C1105.1 146.366 1112.82 144.24 1116.36 142.46C1131.53 132.694 1130.88 114.587 1128.65 106.754C1132.9 106.601 1133.81 104.77 1135.02 102.939C1136 101.474 1139.98 100.091 1141.85 99.582C1140.13 99.4294 1137.76 99.2158 1142.01 99.582C1147.32 100.04 1148.23 98.8191 1148.08 98.0561C1147.92 97.2932 1146.86 97.1406 1145.95 97.4458C1145.04 97.751 1145.5 96.5302 1146.25 95.6147C1147.01 94.6991 1148.83 96.5302 1148.99 95.3095C1149.14 94.0888 1148.08 92.1051 1144.28 89.5111C1141.25 87.4359 1137.76 88.6464 1136.39 89.5111C1135.68 89.5111 1133.14 89.1754 1128.65 87.8326C1124.16 86.4898 1117.98 88.3921 1115.45 89.5111Z" fill="#C4D9D4"/>
<path d="M1321.57 67.2371C1318.52 66.9103 1319.3 68.8088 1320.07 69.7989C1318.35 69.9643 1318.98 83.6402 1319.1 83.9186C1319.23 84.197 1318.37 85.3433 1316.74 85.4995C1315.1 85.6557 1310.49 83.0017 1308.64 80.8574C1307.16 79.1419 1304.44 77.1319 1303.27 76.3414C1300.16 69.7516 1296.44 67.7408 1294.98 67.5591C1288.83 68.0513 1289.62 75.3272 1287.29 78.3551C1284.97 81.383 1284.77 79.2742 1279.78 72.6901C1274.79 66.106 1272.83 71.9046 1272.74 71.9138C1272.66 71.9211 1267.02 82.7147 1264.22 88.1105C1264.2 88.3053 1263.54 89.1234 1260.99 90.8377C1257.81 92.9805 1258.23 95.3586 1256.41 97.5645C1254.59 99.7704 1254.78 108.845 1254.94 110.571C1255.11 112.296 1252.21 117.41 1253.69 116.688C1255.17 115.966 1256.36 109.178 1256.74 108.077C1257.04 107.197 1257.28 105.349 1257.37 104.534C1259.14 105.912 1257.86 115.709 1257.58 116.896C1257.31 118.083 1256.87 120.544 1256.02 121.786C1255.17 123.028 1255.89 125.474 1257.52 127.349C1258.82 128.85 1258.57 133.279 1258.28 135.306C1259.55 135.378 1262.17 135.513 1262.56 135.476C1263.04 135.43 1262.91 133.121 1261.7 131.592C1260.49 130.064 1260.34 126.499 1260.13 125.358C1259.93 124.217 1259.77 122.587 1260.49 121.938C1261.2 121.29 1262.34 118.084 1263.04 115.213C1263.59 112.915 1265.05 112.602 1265.7 112.732C1265.27 113.644 1264.54 115.746 1265.03 116.859C1265.65 118.251 1265.84 121.232 1265.7 123.857C1265.57 126.482 1265.1 125.656 1267.43 127.754C1269.3 129.433 1270.04 132.728 1270.18 134.166L1273.66 134.123C1273.73 133.213 1273.53 130.731 1272.11 128.08C1270.7 125.43 1270.36 124.314 1270.37 124.087C1270.45 122.854 1270.53 120.105 1270.27 118.97C1269.94 117.55 1270.46 114.889 1271.31 113.647C1272.16 112.404 1272.27 111.523 1272.83 109.341C1273.29 107.595 1273.84 107.697 1274.06 107.966C1284.77 114.679 1293.54 111.227 1296.64 109.19C1299.12 107.559 1299.98 109.063 1300.11 110.018C1299.77 112.598 1298.92 118.102 1298.21 119.487C1297.31 121.218 1298.81 122.814 1298.3 125.572C1297.9 127.778 1298.54 130.773 1298.92 131.994L1303.04 131.599C1302.42 129.821 1301.26 126.159 1301.61 125.739C1302.05 125.213 1301.91 123.776 1302.06 121.342C1302.22 118.909 1303 119.995 1303.31 121.223C1303.56 122.205 1304.04 124.152 1304.25 125.002L1306.11 131.305L1309.13 131.5C1308.71 130.089 1307.64 126.961 1306.74 125.731C1305.64 124.21 1305.85 123.604 1306.38 122.138L1306.39 122.088C1306.93 120.586 1306.02 119.222 1306.07 118.734C1306.12 118.245 1305.01 112.74 1307.21 111.37C1308.96 110.273 1309.39 108.517 1309.38 107.776C1308.96 107.139 1308.82 105.179 1311.58 102.438C1314.34 99.6976 1316 99.7575 1316.49 100.13C1318.45 103.58 1323.2 101.777 1325.33 100.444C1334.34 93.3905 1332.83 82.0554 1330.96 77.2695C1333.63 76.9164 1334.1 75.711 1334.76 74.4872C1335.28 73.5082 1337.72 72.3978 1338.87 71.9649C1337.77 71.9732 1336.26 71.9829 1338.97 71.9557C1342.35 71.9217 1342.85 71.0997 1342.71 70.6297C1342.57 70.1596 1341.89 70.128 1341.33 70.3749C1340.78 70.6217 1340.99 69.8273 1341.41 69.2062C1341.84 68.5851 1343.1 69.6251 1343.12 68.8491C1343.15 68.0731 1342.35 66.8913 1339.8 65.4914C1337.76 64.3715 1335.62 65.3433 1334.81 65.9692C1334.36 66.012 1332.74 65.9549 1329.82 65.3833C1326.9 64.8118 1323.1 66.381 1321.57 67.2371Z" fill="#C4D9D4"/>
</svg>
