<?xml version="1.0" encoding="UTF-8" standalone="no"?>
<svg
   width="75"
   height="75"
   version="1.1"
   id="svg22"
   sodipodi:docname="matrix.svg"
   inkscape:version="1.2.2 (b0a8486541, 2022-12-01, custom)"
   xmlns:inkscape="http://www.inkscape.org/namespaces/inkscape"
   xmlns:sodipodi="http://sodipodi.sourceforge.net/DTD/sodipodi-0.dtd"
   xmlns="http://www.w3.org/2000/svg"
   xmlns:svg="http://www.w3.org/2000/svg">
  <defs
     id="defs26" />
  <sodipodi:namedview
     id="namedview24"
     pagecolor="#ffffff"
     bordercolor="#000000"
     borderopacity="0.25"
     inkscape:showpageshadow="2"
     inkscape:pageopacity="0.0"
     inkscape:pagecheckerboard="0"
     inkscape:deskcolor="#d1d1d1"
     showgrid="false"
     inkscape:zoom="17.466667"
     inkscape:cx="37.5"
     inkscape:cy="16.001908"
     inkscape:window-width="1846"
     inkscape:window-height="1016"
     inkscape:window-x="0"
     inkscape:window-y="0"
     inkscape:window-maximized="1"
     inkscape:current-layer="svg22" />
  <g
     fill="#2d2d2d"
     fill-rule="nonzero"
     id="g20"
     transform="translate(0,21.509)">
    <path
       d="M 0.936,0.732 V 31.25 H 3.13 v 0.732 H 0.095 V 0 h 3.034 v 0.732 z m 8.45,9.675 v 1.544 H 9.43 a 4.461,4.461 0 0 1 1.487,-1.368 c 0.58,-0.323 1.245,-0.485 1.993,-0.485 0.72,0 1.377,0.14 1.972,0.42 0.595,0.279 1.047,0.771 1.355,1.477 0.338,-0.5 0.796,-0.941 1.377,-1.323 0.58,-0.383 1.266,-0.574 2.06,-0.574 0.602,0 1.16,0.074 1.674,0.22 0.514,0.148 0.954,0.383 1.322,0.707 0.366,0.323 0.653,0.746 0.859,1.268 0.205,0.522 0.308,1.15 0.308,1.887 v 7.633 H 20.71 v -6.464 c 0,-0.383 -0.015,-0.743 -0.044,-1.082 A 2.305,2.305 0 0 0 20.424,13.385 1.473,1.473 0 0 0 19.84,12.789 c -0.257,-0.146 -0.606,-0.22 -1.047,-0.22 -0.44,0 -0.796,0.085 -1.068,0.253 -0.272,0.17 -0.485,0.39 -0.639,0.662 a 2.654,2.654 0 0 0 -0.308,0.927 7.074,7.074 0 0 0 -0.078,1.048 v 6.354 h -3.128 v -6.398 c 0,-0.338 -0.007,-0.673 -0.021,-1.004 a 2.825,2.825 0 0 0 -0.188,-0.916 1.411,1.411 0 0 0 -0.55,-0.673 c -0.258,-0.168 -0.636,-0.253 -1.135,-0.253 a 2.33,2.33 0 0 0 -0.584,0.1 1.94,1.94 0 0 0 -0.705,0.374 c -0.228,0.184 -0.422,0.449 -0.584,0.794 -0.161,0.346 -0.242,0.798 -0.242,1.357 v 6.619 H 6.434 V 10.407 Z m 16.456,1.677 a 3.751,3.751 0 0 1 1.233,-1.17 5.37,5.37 0 0 1 1.685,-0.629 9.579,9.579 0 0 1 1.884,-0.187 c 0.573,0 1.153,0.04 1.74,0.121 0.588,0.081 1.124,0.24 1.609,0.475 0.484,0.235 0.88,0.562 1.19,0.981 0.308,0.42 0.462,0.975 0.462,1.666 v 5.934 c 0,0.516 0.03,1.008 0.088,1.478 0.058,0.471 0.161,0.824 0.308,1.06 H 32.87 a 4.435,4.435 0 0 1 -0.22,-1.104 c -0.5,0.515 -1.087,0.876 -1.762,1.081 a 7.084,7.084 0 0 1 -2.071,0.31 c -0.544,0 -1.05,-0.067 -1.52,-0.2 a 3.472,3.472 0 0 1 -1.234,-0.617 2.87,2.87 0 0 1 -0.826,-1.059 c -0.199,-0.426 -0.298,-0.934 -0.298,-1.522 0,-0.647 0.114,-1.18 0.342,-1.6 0.227,-0.419 0.52,-0.753 0.881,-1.004 0.36,-0.25 0.771,-0.437 1.234,-0.562 0.462,-0.125 0.929,-0.224 1.399,-0.298 0.47,-0.073 0.932,-0.132 1.387,-0.176 0.456,-0.044 0.86,-0.11 1.212,-0.199 0.353,-0.088 0.631,-0.217 0.837,-0.386 0.206,-0.169 0.301,-0.415 0.287,-0.74 0,-0.337 -0.055,-0.606 -0.166,-0.804 a 1.217,1.217 0 0 0 -0.44,-0.464 1.737,1.737 0 0 0 -0.639,-0.22 5.292,5.292 0 0 0 -0.782,-0.055 c -0.617,0 -1.101,0.132 -1.454,0.397 -0.352,0.264 -0.558,0.706 -0.617,1.323 h -3.128 c 0.044,-0.735 0.227,-1.345 0.55,-1.83 z m 6.179,4.423 a 5.095,5.095 0 0 1 -0.639,0.165 9.68,9.68 0 0 1 -0.716,0.11 c -0.25,0.03 -0.5,0.067 -0.749,0.11 a 5.616,5.616 0 0 0 -0.694,0.177 2.057,2.057 0 0 0 -0.594,0.298 c -0.17,0.125 -0.305,0.284 -0.408,0.474 -0.103,0.192 -0.154,0.434 -0.154,0.728 0,0.28 0.051,0.515 0.154,0.706 0.103,0.192 0.242,0.342 0.419,0.453 0.176,0.11 0.381,0.187 0.617,0.231 0.234,0.044 0.477,0.066 0.726,0.066 0.617,0 1.094,-0.102 1.432,-0.309 0.338,-0.205 0.587,-0.452 0.75,-0.739 0.16,-0.286 0.26,-0.576 0.297,-0.87 0.036,-0.295 0.055,-0.53 0.055,-0.707 v -1.17 a 1.4,1.4 0 0 1 -0.496,0.277 z m 11.863,-6.1 v 2.096 h -2.291 v 5.647 c 0,0.53 0.088,0.883 0.264,1.059 0.176,0.177 0.529,0.265 1.057,0.265 0.177,0 0.345,-0.007 0.507,-0.022 0.161,-0.015 0.316,-0.037 0.463,-0.066 v 2.426 a 7.49,7.49 0 0 1 -0.882,0.089 21.67,21.67 0 0 1 -0.947,0.022 c -0.484,0 -0.944,-0.034 -1.377,-0.1 A 3.233,3.233 0 0 1 39.533,21.437 2.04,2.04 0 0 1 38.751,20.621 C 38.56,20.268 38.464,19.805 38.464,19.231 V 12.503 H 36.57 v -2.096 h 1.894 v -3.42 h 3.129 v 3.42 h 2.29 z m 4.471,0 v 2.118 h 0.044 a 3.907,3.907 0 0 1 1.454,-1.754 4.213,4.213 0 0 1 1.036,-0.497 3.734,3.734 0 0 1 1.145,-0.176 c 0.206,0 0.433,0.037 0.683,0.11 V 13.12 A 5.862,5.862 0 0 0 52.189,13.043 5.566,5.566 0 0 0 51.594,13.01 c -0.573,0 -1.058,0.096 -1.454,0.287 a 2.52,2.52 0 0 0 -0.958,0.783 3.143,3.143 0 0 0 -0.518,1.158 6.32,6.32 0 0 0 -0.154,1.434 v 5.14 H 45.382 V 10.407 Z M 54.039,8.642 V 6.06 h 3.128 V 8.642 H 54.04 Z m 3.128,1.765 V 21.812 H 54.04 V 10.407 h 3.128 z m 1.63,0 h 3.569 l 2.005,2.978 1.982,-2.978 h 3.459 l -3.745,5.339 4.208,6.067 h -3.57 l -2.378,-3.596 -2.38,3.596 h -3.502 l 4.097,-6.001 z M 74.094,31.25 V 0.732 H 71.9 V 0 h 3.035 V 31.982 H 71.9 V 31.25 Z"
       id="path18" />
  </g>
</svg>
