<svg width="27" height="20" viewBox="0 0 27 20" fill="none" xmlns="http://www.w3.org/2000/svg">
<path d="M22.5156 1.75793C22.5156 1.75793 22.5156 1.75793 22.4727 1.75793C20.8398 0.984497 19.1211 0.468872 17.3594 0.168091C17.3164 0.125122 17.2734 0.168091 17.2734 0.168091C17.0156 0.597778 16.8008 1.07043 16.6289 1.50012C14.6953 1.19934 12.7617 1.19934 10.8281 1.50012C10.6562 1.07043 10.4414 0.597778 10.1836 0.168091C10.1836 0.168091 10.1406 0.125122 10.0977 0.168091C8.33594 0.468872 6.61719 0.984497 4.98438 1.75793C4.94141 1.75793 4.94141 1.75793 4.94141 1.75793C1.67578 6.65637 0.773438 11.4259 1.20312 16.1525C1.20312 16.1525 1.20312 16.1954 1.24609 16.1954C3.13672 17.6134 5.28516 18.6876 7.5625 19.3751C7.5625 19.4181 7.60547 19.3751 7.64844 19.3751C8.12109 18.6876 8.55078 18.0001 8.9375 17.2697C8.9375 17.2267 8.9375 17.1837 8.89453 17.1407C8.20703 16.8829 7.51953 16.5822 6.91797 16.1954C6.875 16.1954 6.83203 16.1095 6.91797 16.0665C7.04688 15.9806 7.17578 15.8947 7.30469 15.7657C7.30469 15.7657 7.34766 15.7657 7.39062 15.7657C11.5156 17.6564 15.9844 17.6564 20.0664 15.7657C20.1094 15.7657 20.1094 15.7657 20.1523 15.7657C20.2812 15.8947 20.4102 15.9806 20.5391 16.0665C20.582 16.1095 20.582 16.1954 20.5391 16.1954C19.8945 16.5822 19.25 16.8829 18.5625 17.1407C18.5195 17.1837 18.5195 17.2267 18.5195 17.2697C18.9062 18.0001 19.3359 18.6876 19.8086 19.3751C19.8516 19.3751 19.8516 19.4181 19.8945 19.3751C22.1719 18.6876 24.3203 17.6134 26.2109 16.1954C26.2539 16.1954 26.2539 16.1525 26.2539 16.1525C26.7695 10.6954 25.3516 5.96887 22.5156 1.75793ZM9.53906 13.2736C8.29297 13.2736 7.26172 12.1134 7.26172 10.7384C7.26172 9.32043 8.29297 8.20325 9.53906 8.20325C10.8281 8.20325 11.8164 9.32043 11.8164 10.7384C11.8164 12.1134 10.7852 13.2736 9.53906 13.2736ZM17.918 13.2736C16.6719 13.2736 15.6836 12.1134 15.6836 10.7384C15.6836 9.32043 16.6719 8.20325 17.918 8.20325C19.207 8.20325 20.2383 9.32043 20.1953 10.7384C20.1953 12.1134 19.207 13.2736 17.918 13.2736Z" fill="#CC4D00"/>
</svg>
