<svg width="22" height="17" viewBox="0 0 22 17" fill="none" xmlns="http://www.w3.org/2000/svg">
<path d="M19.25 0.500122H2.75C1.20312 0.500122 0 1.74622 0 3.25012V14.2501C0 15.797 1.20312 17.0001 2.75 17.0001H19.25C20.7539 17.0001 22 15.797 22 14.2501V3.25012C22 1.74622 20.7539 0.500122 19.25 0.500122ZM2.75 2.56262H19.25C19.5938 2.56262 19.9375 2.90637 19.9375 3.25012V4.2384L12.7617 10.1681C11.7734 10.9845 10.1836 10.9845 9.19531 10.1681L2.0625 4.2384V3.25012C2.0625 2.90637 2.36328 2.56262 2.75 2.56262ZM19.25 14.9376H2.75C2.36328 14.9376 2.0625 14.6368 2.0625 14.2501V6.90247L7.90625 11.8009C8.76562 12.4884 9.83984 12.8751 11 12.8751C12.1172 12.8751 13.1914 12.4884 14.0508 11.8009L19.9375 6.90247V14.2501C19.9375 14.6368 19.5938 14.9376 19.25 14.9376Z" fill="#CC4D00"/>
</svg>
