<svg width="14" height="15" viewBox="0 0 14 15" fill="none" xmlns="http://www.w3.org/2000/svg">
<path opacity="0.6" d="M4.51172 11.6331C4.51172 11.6877 4.45703 11.7151 4.375 11.7151C4.29297 11.7424 4.23828 11.6877 4.23828 11.6331C4.23828 11.5784 4.29297 11.5237 4.375 11.5237C4.45703 11.5237 4.51172 11.5784 4.51172 11.6331ZM3.66406 11.4963C3.66406 11.551 3.71875 11.6331 3.80078 11.6331C3.85547 11.6604 3.9375 11.6331 3.96484 11.5784C3.96484 11.5237 3.9375 11.469 3.85547 11.4417C3.77344 11.4143 3.69141 11.4417 3.66406 11.4963ZM4.89453 11.469C4.8125 11.469 4.75781 11.5237 4.75781 11.6057C4.75781 11.6604 4.83984 11.6877 4.92188 11.6604C5.00391 11.6331 5.05859 11.6057 5.03125 11.551C5.03125 11.4963 4.94922 11.4417 4.89453 11.469ZM6.67188 0.968994C2.89844 0.968994 0 3.86743 0 7.64087C0 10.676 1.88672 13.2737 4.62109 14.2034C4.97656 14.2581 5.08594 14.0393 5.08594 13.8752C5.08594 13.6838 5.08594 12.7542 5.08594 12.1799C5.08594 12.1799 3.17188 12.5901 2.76172 11.3596C2.76172 11.3596 2.46094 10.5667 2.02344 10.3752C2.02344 10.3752 1.39453 9.93774 2.05078 9.93774C2.05078 9.93774 2.73438 9.99243 3.11719 10.6487C3.71875 11.7151 4.70312 11.4143 5.11328 11.2229C5.16797 10.7854 5.33203 10.4846 5.55078 10.2932C4.01953 10.1292 2.46094 9.9104 2.46094 7.2854C2.46094 6.51978 2.67969 6.16431 3.11719 5.67212C3.03516 5.48071 2.81641 4.76978 3.19922 3.81274C3.74609 3.64868 5.08594 4.55103 5.08594 4.55103C5.63281 4.38696 6.20703 4.33228 6.78125 4.33228C7.38281 4.33228 7.95703 4.38696 8.50391 4.55103C8.50391 4.55103 9.81641 3.62134 10.3906 3.81274C10.7734 4.76978 10.5273 5.48071 10.4727 5.67212C10.9102 6.16431 11.1836 6.51978 11.1836 7.2854C11.1836 9.9104 9.57031 10.1292 8.03906 10.2932C8.28516 10.512 8.50391 10.9221 8.50391 11.5784C8.50391 12.4807 8.47656 13.6292 8.47656 13.8479C8.47656 14.0393 8.61328 14.2581 8.96875 14.176C11.7031 13.2737 13.5625 10.676 13.5625 7.64087C13.5625 3.86743 10.4727 0.968994 6.67188 0.968994ZM2.65234 10.4026C2.59766 10.4299 2.625 10.512 2.65234 10.5667C2.70703 10.594 2.76172 10.6213 2.81641 10.594C2.84375 10.5667 2.84375 10.4846 2.78906 10.4299C2.73438 10.4026 2.67969 10.3752 2.65234 10.4026ZM2.35156 10.1838C2.32422 10.2385 2.35156 10.2659 2.40625 10.2932C2.46094 10.3206 2.51562 10.3206 2.54297 10.2659C2.54297 10.2385 2.51562 10.2112 2.46094 10.1838C2.40625 10.1565 2.37891 10.1565 2.35156 10.1838ZM3.22656 11.1682C3.19922 11.1956 3.19922 11.2776 3.28125 11.3323C3.33594 11.387 3.41797 11.4143 3.44531 11.3596C3.47266 11.3323 3.47266 11.2502 3.41797 11.1956C3.36328 11.1409 3.28125 11.1135 3.22656 11.1682ZM2.92578 10.7581C2.87109 10.7854 2.87109 10.8674 2.92578 10.9221C2.98047 10.9768 3.03516 11.0042 3.08984 10.9768C3.11719 10.9495 3.11719 10.8674 3.08984 10.8127C3.03516 10.7581 2.98047 10.7307 2.92578 10.7581Z" fill="#1A202C"/>
</svg>
