<svg width="20" height="20" viewBox="0 0 20 20" fill="none" xmlns="http://www.w3.org/2000/svg">
<path d="M4.03906 12.3282C4.03906 13.4025 3.09375 14.3478 2.01953 14.3478C0.902344 14.3478 0 13.4025 0 12.3282C0 11.2111 0.902344 10.3087 2.01953 10.3087H4.03906V12.3282ZM5.02734 12.3282C5.02734 11.2111 5.97266 10.3087 7.04688 10.3087C8.16406 10.3087 9.06641 11.2111 9.06641 12.3282V17.3556C9.06641 18.4728 8.16406 19.3751 7.04688 19.3751C5.97266 19.3751 5.02734 18.4728 5.02734 17.3556V12.3282ZM7.04688 4.20715C5.97266 4.20715 5.02734 3.26184 5.02734 2.18762C5.02734 1.07043 5.97266 0.125122 7.04688 0.125122C8.16406 0.125122 9.06641 1.07043 9.06641 2.18762V4.20715H7.04688ZM7.04688 5.19543C8.16406 5.19543 9.06641 6.09778 9.06641 7.21497C9.06641 8.33215 8.16406 9.2345 7.04688 9.2345H2.01953C0.902344 9.2345 0 8.33215 0 7.21497C0 6.09778 0.902344 5.19543 2.01953 5.19543H7.04688ZM15.168 7.21497C15.168 6.09778 16.1133 5.19543 17.1875 5.19543C18.3047 5.19543 19.25 6.09778 19.25 7.21497C19.25 8.33215 18.3047 9.2345 17.1875 9.2345H15.168V7.21497ZM14.1797 7.21497C14.1797 8.33215 13.2773 9.2345 12.1602 9.2345C11.043 9.2345 10.1406 8.33215 10.1406 7.21497V2.18762C10.1406 1.07043 11.043 0.125122 12.1602 0.125122C13.2773 0.125122 14.1797 1.07043 14.1797 2.18762V7.21497ZM12.1602 15.3361C13.2773 15.3361 14.1797 16.2814 14.1797 17.3556C14.1797 18.4728 13.2773 19.3751 12.1602 19.3751C11.043 19.3751 10.1406 18.4728 10.1406 17.3556V15.3361H12.1602ZM12.1602 14.3478C11.043 14.3478 10.1406 13.4025 10.1406 12.3282C10.1406 11.2111 11.043 10.3087 12.1602 10.3087H17.1875C18.3047 10.3087 19.25 11.2111 19.25 12.3282C19.25 13.4025 18.3047 14.3478 17.1875 14.3478H12.1602Z" fill="#CC4D00"/>
</svg>
