<svg xmlns="http://www.w3.org/2000/svg" width="97" height="25" viewBox="0 0 97 25" fill="none">
  <g clip-path="url(#clip0_901_3422)">
    <path d="M1.66152 9.84073H11.2094V12.5352L7.62895 12.8164C1.82533 13.2381 0 14.7611 0 19.0722V19.9391C0 23.1022 2.19976 25.0001 5.59301 25.0001C8.2842 25.0001 9.80531 24.3674 11.7008 22.4227H12.0051V24.4846H15.8195V5.64673H1.66152V9.84073ZM11.2094 18.9082C10.0159 20.1031 8.2608 20.8763 6.78649 20.8763C5.21858 20.8763 4.53993 20.2906 4.58673 18.9785C4.63354 17.1509 5.28878 16.7292 8.331 16.448L11.2094 16.1669C11.2094 16.1903 11.2094 18.9082 11.2094 18.9082Z" fill="white" fill-opacity="0.8"/>
    <path d="M91.3134 13.238L88.4817 12.9569C86.9138 12.7928 86.516 12.3945 86.516 11.1293C86.516 9.70006 87.0776 9.34861 89.2774 9.34861C91.2431 9.34861 91.8048 9.6532 92.0856 11.0122H96.5085C96.3915 6.51356 95.0108 5.36548 89.5348 5.36548C83.544 5.36548 82.0463 6.51356 82.0463 11.1293C82.0463 15.3467 83.1462 16.4948 87.6159 16.94L89.9561 17.1743C92.0388 17.3617 92.5536 17.76 92.5536 19.0253C92.5536 20.5717 91.9218 20.97 89.371 20.97C87.1244 20.97 86.5394 20.6185 86.4224 19.1424H81.9761C82.0931 23.805 83.5206 25 89.1838 25C95.5023 25 97.0702 23.7347 97.0702 18.6035C97 14.7844 95.8533 13.6598 91.3134 13.238Z" fill="white" fill-opacity="0.8"/>
    <path d="M67.6542 13.5895C67.6542 7.49762 65.5714 5.36548 59.5572 5.36548C53.543 5.36548 51.3198 8.13024 51.3198 14.9953C51.3198 22.4929 53.3792 25 60.0018 25C64.7758 25 66.7883 23.5473 67.467 19.4236H62.9271C62.4122 20.6888 61.874 20.97 59.9316 20.97C57.0064 20.97 56.2576 20.1499 56.0938 16.6354H67.3266C67.5372 15.6045 67.6542 14.3861 67.6542 13.5895ZM56.1406 12.91C56.1874 10.2624 57.2404 9.27832 59.7678 9.27832C62.2952 9.27832 63.1611 10.2624 63.2313 12.91H56.1406Z" fill="white" fill-opacity="0.8"/>
    <path d="M31.4049 5.64668H24.0333V0H19.3296V24.4845H24.0333V9.86411H30.7262V24.4845H35.4299V9.48923H31.4049V5.64668Z" fill="white" fill-opacity="0.8"/>
    <path d="M70.2988 6.46673V24.4845H75.0026V9.67667H80.6424V5.64668H75.0026V5.13121C75.0494 4.02999 75.3068 3.70197 76.2195 3.70197H81.3444V0H75.8216C72.0774 0 70.2988 1.14808 70.2988 6.46673Z" fill="white" fill-opacity="0.8"/>
    <path d="M38.8936 24.4846H43.5973V10.075H50.571V5.64673H38.8936V24.4846Z" fill="white" fill-opacity="0.8"/>
  </g>
  <defs>
    <clipPath id="clip0_901_3422">
      <rect width="97" height="25" fill="white"/>
    </clipPath>
  </defs>
</svg>