<svg xmlns="http://www.w3.org/2000/svg" width="120" height="24" viewBox="0 0 120 24" fill="none">
  <path d="M0 0.923828H8.7876C10.4412 0.923828 11.7336 1.33783 12.6276 2.06143C13.6356 2.90143 14.2044 4.12904 14.2044 5.60144C14.2044 7.30544 13.506 8.39263 12.0852 9.03943V9.11743C13.9452 9.73783 15.006 11.3914 15.006 13.4074C15.006 15.3202 14.2824 16.819 13.068 17.7238C12.06 18.4474 10.716 18.8098 8.958 18.8098H0.0156006V0.923828H0ZM7.92 7.92824C8.8764 7.92824 9.5484 7.41224 9.5484 6.35144C9.5484 5.34344 8.8248 4.82742 7.8948 4.82742H4.8708V7.90304H7.9188L7.92 7.92824ZM8.3592 14.8546C9.4188 14.8546 10.2192 14.209 10.2192 13.0186C10.2192 11.7778 9.3792 11.1826 8.3328 11.1826H4.8696V14.8522L8.3592 14.8546ZM15.8808 0.934631H20.4816V18.8458H15.8808V0.934631Z" fill="white" fill-opacity="0.8"/>
  <path d="M21.3994 12.4523C21.3994 8.42027 24.0094 5.68066 28.0414 5.68066C32.0734 5.68066 34.6318 8.42027 34.6318 12.4523C34.6318 16.5083 32.0734 19.2239 28.0414 19.2239C24.0094 19.2239 21.3994 16.5119 21.3994 12.4523ZM30.0838 12.4523C30.0838 10.2299 29.3602 8.80789 27.9898 8.80789C26.6194 8.80789 25.9498 10.2035 25.9498 12.4523C25.9498 14.7011 26.6218 16.0967 27.9898 16.0967C29.3602 16.1231 30.0838 14.7263 30.0838 12.4523Z" fill="white" fill-opacity="0.8"/>
  <path d="M35.2007 12.4523C35.2007 8.42027 37.8107 5.68066 41.8427 5.68066C45.8747 5.68066 48.4331 8.42027 48.4331 12.4523C48.4331 16.5083 45.8747 19.2239 41.8427 19.2239C37.8107 19.2239 35.2007 16.5119 35.2007 12.4523ZM43.8851 12.4523C43.8851 10.2299 43.1615 8.80789 41.7911 8.80789C40.4207 8.80789 39.7511 10.2035 39.7511 12.4523C39.7511 14.7011 40.4231 16.0967 41.7911 16.0967C43.1615 16.1231 43.8851 14.7263 43.8851 12.4523Z" fill="white" fill-opacity="0.8"/>
  <path d="M49.3643 6.04308H53.6399V7.95587H53.7179C54.5579 6.45587 55.7339 5.65548 57.5579 5.65548C59.1599 5.65548 60.3755 6.4571 60.9959 7.8515H61.0739C62.1083 6.1715 63.4775 5.65548 65.0279 5.65548C68.0003 5.65548 69.2663 7.85149 69.2663 10.7723V18.8363H64.7687V11.6003C64.7687 10.2827 64.3547 9.44027 63.2183 9.44027C62.1071 9.44027 61.5383 10.4747 61.5383 11.8703V18.8483H57.0923V11.6123C57.0923 10.2947 56.6783 9.45228 55.5419 9.45228C54.4307 9.45228 53.8619 10.4867 53.8619 11.8823V18.8603H49.3643V6.06827V6.04308ZM74.9519 17.1551H74.9003V18.8087H70.6355V0.899902H75.1199V7.36071H75.1979C76.0379 6.24951 77.1875 5.65669 78.8423 5.65669C82.0463 5.65669 83.9063 8.55108 83.9063 12.4007C83.9063 16.7423 81.8903 19.2503 78.5567 19.2503C77.1347 19.2503 75.7127 18.5783 74.9387 17.1563L74.9519 17.1551ZM79.3199 12.3743C79.3199 10.3067 78.5699 8.99027 77.2007 8.99027C75.8315 8.99027 74.9519 10.3079 74.9519 12.3743C74.9519 14.4143 75.8303 15.7583 77.2007 15.7583C78.5711 15.7583 79.3199 14.4407 79.3199 12.3743ZM84.4103 12.4007C84.4103 8.42028 87.0467 5.62908 90.8711 5.62908C92.7839 5.62908 94.2311 6.2231 95.3687 7.2827C96.8423 8.7047 97.5143 10.9523 97.4627 13.5635H88.8827C89.0627 15.1655 89.8391 15.9671 91.1831 15.9671C91.9583 15.9671 92.6567 15.6047 92.9411 14.7527H97.2575C96.5075 17.6735 94.2335 19.1447 91.0175 19.1447C87.0635 19.1711 84.4007 16.5083 84.4007 12.4007H84.4103ZM88.8815 11.0831H92.9651C92.8871 9.53269 92.0351 8.7311 90.9755 8.7311C89.7347 8.7311 89.0627 9.60949 88.8815 11.0831ZM102.554 8.2391H102.632C103.562 6.4559 104.778 5.78387 106.302 5.78387C106.664 5.78387 106.896 5.83548 107.025 5.91348V9.8423H106.922C104.286 9.3767 102.722 10.6175 102.722 13.5119V18.8363H98.2247V6.06827H102.489V8.2283L102.554 8.2391Z" fill="white" fill-opacity="0.8"/>
  <path d="M107.544 18.8363H111.861C112.017 19.3787 112.584 19.9223 113.67 19.9223C115.117 19.9223 115.608 19.0175 115.608 17.6999V16.7699H115.505C114.781 17.6099 113.851 18.2171 112.429 18.2171C109.663 18.2171 107.286 16.1771 107.286 12.1955C107.286 8.5259 109.251 5.68188 112.223 5.68188C113.927 5.68188 114.989 6.38028 115.661 7.46508H115.739V6.06948H120V17.1311C120 19.1711 119.277 20.7755 118.217 21.7055C117.106 22.7135 115.505 23.1011 113.693 23.1011C110.333 23.1011 107.957 21.7055 107.542 18.8363H107.544ZM115.788 11.9603C115.788 10.3583 115.038 9.08029 113.721 9.08029C112.455 9.08029 111.653 10.2179 111.653 11.9603C111.653 13.6643 112.455 14.9063 113.721 14.9063C115.038 14.9063 115.788 13.6403 115.788 11.9603Z" fill="white" fill-opacity="0.8"/>
</svg>