<svg xmlns="http://www.w3.org/2000/svg" width="125" height="29" viewBox="0 0 125 29" fill="none">
  <g clip-path="url(#clip0_901_3460)">
    <path d="M35.4312 11.9149C34.548 11.3085 32.2279 11.0495 30.5414 11.5133C30.4509 9.79943 29.5838 8.35487 27.9991 7.09443L27.4126 6.69285L27.0216 7.29548C26.2531 8.48545 25.9291 10.0715 26.0437 11.5133C26.1342 12.4017 26.4368 13.3999 27.0216 14.1244C24.8263 15.4236 22.8024 15.1286 13.8401 15.1286H0.00306372C-0.0371042 17.1933 0.287988 21.1642 2.76341 24.397C3.03708 24.7543 3.33647 25.0996 3.6621 25.4323C5.67478 27.4882 8.71576 28.9962 13.2628 29C20.2 29.0066 26.1433 25.181 29.7589 15.9323C30.9485 15.9519 34.0891 16.1497 35.6261 13.1202C35.6636 13.0694 36.0171 12.317 36.0171 12.317L35.4312 11.9155V11.9149ZM9.03335 10.0273H5.14242V13.9965H9.03335V10.0273ZM14.0597 10.0273H10.1688V13.9965H14.0597V10.0273ZM19.0866 10.0273H15.1957V13.9965H19.0866V10.0273ZM24.1135 10.0273H20.2225V13.9965H24.1135V10.0273ZM4.00647 10.0273H0.115534V13.9965H4.00647V10.0273ZM9.03335 5.0139H5.14242V8.98318H9.03335V5.0139ZM14.0597 5.0139H10.1688V8.98318H14.0597V5.0139ZM19.0866 5.0139H15.1957V8.98318H19.0866V5.0139ZM19.0866 0H15.1957V3.96927H19.0866V0Z" fill="white" fill-opacity="0.8"/>
    <path d="M124.758 22.9088C124.758 23.9436 123.962 24.756 122.926 24.756C121.89 24.756 121.083 23.9436 121.083 22.9088C121.083 21.874 121.9 21.084 122.926 21.084C123.952 21.084 124.758 21.8964 124.758 22.9088ZM121.541 22.9088C121.541 23.7212 122.13 24.3665 122.937 24.3665C123.744 24.3665 124.301 23.7212 124.301 22.9203C124.301 22.1193 123.722 21.4511 122.927 21.4511C122.132 21.4511 121.541 22.1079 121.541 22.9088H121.541ZM122.643 23.866H122.229V22.0412C122.391 22.0079 122.621 21.9855 122.915 21.9855C123.254 21.9855 123.406 22.0412 123.537 22.1193C123.636 22.1969 123.712 22.3417 123.712 22.5198C123.712 22.7203 123.559 22.876 123.342 22.9427V22.9651C123.515 23.0312 123.614 23.1651 123.668 23.4098C123.722 23.6879 123.755 23.7994 123.799 23.866H123.352C123.298 23.7994 123.264 23.6327 123.21 23.4207C123.178 23.2208 123.068 23.1317 122.839 23.1317H122.643V23.8666V23.866ZM122.653 22.8312H122.849C123.079 22.8312 123.264 22.7536 123.264 22.5646C123.264 22.3974 123.144 22.2854 122.882 22.2854C122.773 22.2854 122.697 22.2969 122.653 22.3089V22.8312Z" fill="white" fill-opacity="0.8"/>
    <path d="M54.4761 4.44115C54.2196 4.18545 53.9116 4.05542 53.5426 4.05542C53.1736 4.05542 52.8565 4.18545 52.6096 4.44115C52.3622 4.69684 52.2412 5.02465 52.2412 5.4153V11.9388C50.9719 10.8685 49.5071 10.3287 47.8409 10.3287C45.9043 10.3287 44.2483 11.0422 42.8761 12.4742C41.504 13.9013 40.8228 15.6278 40.8228 17.6526C40.8228 19.6774 41.5088 21.3989 42.8761 22.8309C44.2483 24.258 45.9 24.9765 47.8409 24.9765C49.7818 24.9765 51.4153 24.2629 52.8057 22.8309C54.1778 21.4181 54.859 19.6921 54.859 17.6526V5.4153C54.859 5.02465 54.7332 4.69684 54.4761 4.44115ZM51.8957 19.4173V19.4271C51.667 19.9817 51.3543 20.4685 50.9579 20.8832C50.5616 21.3028 50.0946 21.6306 49.5628 21.8764C49.0261 22.1223 48.4568 22.243 47.8457 22.243C47.2346 22.243 46.6514 22.1223 46.1147 21.8764C45.5781 21.6306 45.1159 21.3028 44.7244 20.8881C44.3324 20.4734 44.0201 19.9866 43.7914 19.4321C43.5627 18.8726 43.446 18.2798 43.446 17.6526C43.446 17.0254 43.5627 16.4326 43.7914 15.8731C44.0201 15.3136 44.3329 14.8317 44.7244 14.4171C45.1164 14.0024 45.5829 13.6746 46.1147 13.4287C46.6514 13.1828 47.2255 13.0621 47.8457 13.0621C48.4659 13.0621 49.0261 13.1828 49.5628 13.4287C50.0994 13.6746 50.5616 14.0024 50.9579 14.422C51.3543 14.8416 51.667 15.3284 51.8957 15.878C52.1244 16.4326 52.2412 17.021 52.2412 17.6477C52.2412 18.2743 52.1244 18.8677 51.8957 19.4173Z" fill="white" fill-opacity="0.8"/>
    <path d="M112.458 14.8413C112.117 13.9731 111.598 13.1875 110.917 12.4832L110.908 12.4783C109.522 11.0512 107.865 10.3328 105.943 10.3328C104.022 10.3328 102.35 11.0463 100.978 12.4783C99.606 13.9054 98.9253 15.6319 98.9253 17.6567C98.9253 19.6815 99.6114 21.403 100.978 22.835C102.35 24.2621 104.003 24.9806 105.943 24.9806C107.707 24.9806 109.232 24.3878 110.53 23.2016C110.781 22.9317 110.908 22.6039 110.908 22.2226C110.908 21.8412 110.787 21.5041 110.539 21.2484C110.292 20.9927 109.98 20.8627 109.606 20.8627C109.28 20.8725 108.99 20.9834 108.743 21.2052C108.351 21.5522 107.927 21.8177 107.465 21.9914C107.003 22.1652 106.499 22.2521 105.949 22.2521C105.463 22.2521 104.997 22.175 104.554 22.016C104.11 21.857 103.695 21.6396 103.326 21.3555C102.952 21.0708 102.631 20.7337 102.356 20.3333C102.08 19.9377 101.87 19.499 101.731 19.0171H111.656C112.024 19.0171 112.332 18.8871 112.589 18.6314C112.846 18.3757 112.972 18.0478 112.972 17.6572C112.972 16.6448 112.798 15.7045 112.459 14.8413H112.458ZM101.72 16.2973C101.856 15.8198 102.061 15.3811 102.336 14.9812C102.612 14.5856 102.938 14.2436 103.312 13.9589C103.69 13.6743 104.1 13.4574 104.553 13.2984C105.005 13.1394 105.466 13.0624 105.943 13.0624C106.421 13.0624 106.881 13.1394 107.328 13.2984C107.777 13.4574 108.188 13.6743 108.556 13.9589C108.93 14.2436 109.256 14.5807 109.531 14.9812C109.811 15.3767 110.022 15.8154 110.166 16.2973H101.72H101.72Z" fill="white" fill-opacity="0.8"/>
    <path d="M124.655 11.249C124.421 11.0129 124.127 10.8294 123.773 10.6944C123.418 10.5595 123.031 10.4677 122.606 10.4147C122.186 10.3617 121.789 10.3376 121.421 10.3376C120.585 10.3376 119.802 10.4775 119.065 10.7572C118.327 11.037 117.646 11.4369 117.021 11.9576V11.6975C117.021 11.3216 116.895 11.0031 116.638 10.7381C116.382 10.4731 116.078 10.3382 115.719 10.3382C115.36 10.3382 115.042 10.4731 114.786 10.7381C114.529 11.0031 114.403 11.3266 114.403 11.6975V23.6217C114.403 23.9976 114.529 24.3162 114.786 24.5811C115.042 24.8461 115.35 24.9811 115.719 24.9811C116.088 24.9811 116.386 24.8461 116.638 24.5811C116.895 24.3162 117.021 23.9927 117.021 23.6217V17.6572C117.021 17.0207 117.137 16.423 117.366 15.8635C117.595 15.304 117.908 14.8221 118.304 14.4074C118.701 13.9928 119.168 13.665 119.699 13.4284C120.236 13.1874 120.806 13.0667 121.417 13.0667C122.029 13.0667 122.606 13.1776 123.134 13.3945C123.344 13.4912 123.526 13.5393 123.685 13.5393C123.867 13.5393 124.039 13.5054 124.198 13.4333C124.356 13.3612 124.497 13.2645 124.613 13.1394C124.73 13.0142 124.823 12.8695 124.893 12.7006C124.963 12.5367 125.001 12.3581 125.001 12.1652C125.001 11.7893 124.884 11.4855 124.651 11.249H124.655H124.655Z" fill="white" fill-opacity="0.8"/>
    <path d="M69.8645 14.8461C69.5239 13.9829 69.0151 13.1923 68.3295 12.4788C66.944 11.0517 65.2875 10.3333 63.3648 10.3333C61.4421 10.3333 59.7722 11.0468 58.4 12.4788C57.0279 13.9059 56.3472 15.6324 56.3472 17.6571C56.3472 19.6819 57.0332 21.4035 58.4 22.8355C59.7722 24.2626 61.4239 24.981 63.3648 24.981C65.3057 24.981 66.9392 24.2675 68.3295 22.8355C69.7017 21.4226 70.3829 19.6967 70.3829 17.6571C70.3733 16.6448 70.2008 15.7094 69.865 14.8461H69.8645ZM67.4196 19.417V19.4268C67.1909 19.9813 66.8781 20.4681 66.4818 20.8828C66.0855 21.3024 65.6185 21.6302 65.0866 21.8761C64.5548 22.122 63.9807 22.2427 63.3696 22.2427C62.7585 22.2427 62.1753 22.122 61.6386 21.8761C61.102 21.6302 60.6398 21.3024 60.2483 20.8877C59.8562 20.4731 59.544 19.9863 59.3153 19.4317C59.0866 18.8722 58.9699 18.2794 58.9699 17.6522C58.9699 17.025 59.0866 16.4322 59.3153 15.8727C59.544 15.3133 59.8568 14.8314 60.2483 14.4167C60.6403 14.002 61.1068 13.6742 61.6386 13.4284C62.1753 13.1825 62.7494 13.0618 63.3696 13.0618C63.9898 13.0618 64.55 13.1825 65.0866 13.4284C65.6233 13.6742 66.0855 14.002 66.4818 14.4216C66.8781 14.8412 67.1909 15.328 67.4196 15.8777C67.6483 16.4322 67.765 17.0206 67.765 17.6473C67.765 18.274 67.6483 18.8673 67.4196 19.417Z" fill="white" fill-opacity="0.8"/>
    <path d="M97.9355 11.6927C97.9355 11.5096 97.898 11.3359 97.8284 11.172C97.7583 11.0081 97.6651 10.8589 97.5483 10.7333C97.4316 10.6081 97.2918 10.5065 97.1332 10.4393C96.9747 10.3721 96.8023 10.3333 96.6202 10.3333C96.3588 10.3333 96.1253 10.4011 95.9202 10.5409L88.4264 15.6281V5.42487C88.4264 5.03914 88.3006 4.71624 88.044 4.45071C87.7875 4.18573 87.4844 4.05078 87.125 4.05078C86.7656 4.05078 86.4486 4.18573 86.1915 4.45071C85.9349 4.7157 85.8091 5.03914 85.8091 5.42487V23.6027C85.8091 23.9785 85.9349 24.302 86.1915 24.5719C86.448 24.8418 86.756 24.9767 87.125 24.9767C87.494 24.9767 87.7923 24.8418 88.044 24.5719C88.3006 24.302 88.4264 23.9785 88.4264 23.6027V18.8821L89.9571 17.8359L95.7477 24.62C95.9812 24.856 96.2753 24.9718 96.625 24.9718C96.8071 24.9718 96.9795 24.9379 97.1381 24.8658C97.2966 24.7981 97.4369 24.697 97.5531 24.5719C97.6699 24.4468 97.7631 24.302 97.8332 24.1332C97.9034 23.9693 97.9403 23.7906 97.9403 23.6125C97.9403 23.2557 97.8193 22.9372 97.5762 22.658L92.1867 16.3274L97.4358 12.769C97.7716 12.5329 97.935 12.1713 97.935 11.6839V11.6937L97.9355 11.6927Z" fill="white" fill-opacity="0.8"/>
    <path d="M75.7493 14.4076C76.1504 13.9929 76.6174 13.6651 77.1541 13.4285C77.6907 13.1876 78.26 13.0668 78.8711 13.0668C79.4217 13.0668 79.9305 13.1635 80.4018 13.3558C80.8683 13.5487 81.3166 13.8333 81.7407 14.2043C81.9924 14.4114 82.2774 14.5174 82.5944 14.5174C82.9725 14.5174 83.2805 14.3873 83.5279 14.1267C83.7754 13.8661 83.8964 13.5383 83.8964 13.1477C83.8964 12.757 83.747 12.3953 83.4438 12.1161C82.1558 10.93 80.6305 10.3367 78.8711 10.3367C76.9345 10.3367 75.2785 11.0502 73.9064 12.4822C72.5342 13.9093 71.8535 15.6358 71.8535 17.6606C71.8535 19.6854 72.5396 21.4069 73.9064 22.8389C75.2785 24.266 76.9302 24.9845 78.8711 24.9845C80.6257 24.9845 82.1515 24.3917 83.4438 23.205C83.7191 22.916 83.8595 22.5832 83.8595 22.1975C83.8595 21.8118 83.7379 21.479 83.491 21.2234C83.2435 20.9677 82.9313 20.8376 82.558 20.8376C82.2409 20.8475 81.9651 20.9436 81.7322 21.1266C81.3123 21.5025 80.8736 21.7823 80.4023 21.9702C79.9358 22.1582 79.4271 22.25 78.8717 22.25C78.2606 22.25 77.6913 22.1292 77.1546 21.8883C76.618 21.6473 76.1515 21.3195 75.7498 20.9097C75.3487 20.5 75.0311 20.0083 74.8024 19.4537C74.5737 18.8942 74.4569 18.2965 74.4569 17.66C74.4569 17.0235 74.5737 16.4258 74.8024 15.8663C75.0311 15.3069 75.3481 14.825 75.7498 14.4103V14.4054L75.7493 14.4076Z" fill="white" fill-opacity="0.8"/>
  </g>
  <defs>
    <clipPath id="clip0_901_3460">
      <rect width="125" height="29" fill="white"/>
    </clipPath>
  </defs>
</svg>