<svg xmlns="http://www.w3.org/2000/svg" width="124" height="24" viewBox="0 0 124 24" fill="none">
  <path d="M7.8554 23.6301H3.18296V11.9821H0V8.18972H3.18283V5.49119C3.18283 2.29342 4.5906 0 9.2504 0C10.236 0 11.7832 0.198651 11.7832 0.198651V3.72007H10.1581C8.50218 3.72007 7.85565 4.22376 7.85565 5.61631V8.18972H11.7212L11.377 11.9821H7.85552L7.8554 23.6301ZM18.5764 7.88666C18.5084 7.88666 18.4383 7.88914 18.369 7.89088C14.0364 7.89088 12.0542 11.1499 12.0542 15.7762C12.0542 21.604 14.6254 23.9365 18.4028 23.9365C20.564 23.9365 21.984 23.0268 22.847 21.3292V23.6317H27.2912V8.19134H22.847V10.5659C22.1423 9.03815 20.6827 7.90477 18.5764 7.88666ZM19.7065 11.5352C21.5262 11.5352 22.6183 12.8045 22.6183 14.9635L22.6226 17.1686C22.6226 18.6238 21.7205 20.3262 19.7065 20.3262C16.6102 20.3262 16.6929 16.9828 16.6929 15.8693C16.6929 12.1236 18.3426 11.5352 19.7065 11.5352ZM29.0859 15.9123C29.0859 14.0361 28.9962 7.89671 36.9947 7.89671C40.2054 7.89671 41.5461 8.91762 41.5461 8.91762L40.4685 12.2598C40.4685 12.2598 39.1296 11.5225 37.3849 11.5225C35.1503 11.5225 33.7244 12.818 33.7244 15.0973L33.7269 16.7316C33.7269 18.9217 35.1027 20.3837 37.3895 20.3837C38.9789 20.3837 40.4438 19.6395 40.4438 19.6395L41.5187 22.9119C41.5187 22.9119 40.2928 23.9392 37.0171 23.9392C29.4013 23.9392 29.0861 18.4311 29.0861 15.9123H29.0859ZM67.6038 7.89088C71.9365 7.89088 73.95 11.1499 73.95 15.7762C73.95 21.604 71.3786 23.9365 67.6012 23.9365C65.44 23.9365 63.8424 23.027 62.9794 21.3292V23.6317L58.5911 23.63V0.469472L63.2503 0.0631171V10.3567C63.9227 8.55578 66.1325 7.89088 67.6038 7.89088ZM66.2976 11.5352C64.4779 11.5352 63.2503 12.8045 63.2503 14.9635L63.246 17.1686C63.2432 18.6238 64.0961 20.3262 66.2976 20.3262C69.3939 20.3262 69.3112 16.9828 69.3112 15.8693C69.3112 12.1236 67.6616 11.5352 66.2976 11.5352ZM49.6301 7.90365C44.716 7.90365 42.1217 10.583 42.1217 15.3444V16.229C42.1217 22.4089 45.7649 24 50.1084 24C54.3302 24 56.2412 22.8191 56.2412 22.8191L55.3693 19.6744C55.3693 19.6744 53.1215 20.6309 50.667 20.6309C48.1225 20.6309 47.0282 19.9823 46.7477 17.537H56.6137V15.0142C56.6137 9.84925 53.702 7.90353 49.63 7.90353L49.6301 7.90365ZM49.7486 11.0526C51.4496 11.0526 52.5518 12.0957 52.4913 14.5148H46.7563C46.8558 11.9687 48.0444 11.0526 49.7486 11.0526ZM83.2402 7.88245C78.1938 7.88245 75.5371 10.7263 75.5371 15.8227C75.5371 22.8152 80.1166 23.9407 83.2486 23.9407C87.8337 23.9407 90.8841 21.4722 90.8841 15.8862C90.8841 10.0721 87.4542 7.88245 83.2402 7.88245ZM83.1767 11.5478C85.3957 11.5478 86.275 13.2086 86.275 15.099V16.7243C86.275 19.0144 85.0447 20.339 83.1683 20.339C81.4134 20.339 80.1801 19.0999 80.1801 16.7243V15.099C80.1801 12.5654 81.6477 11.5478 83.1767 11.5478ZM100.166 7.88245C95.1195 7.88245 92.4628 10.7263 92.4628 15.8227C92.4628 22.8152 97.0424 23.9407 100.174 23.9407C104.759 23.9407 107.81 21.4722 107.81 15.8862C107.81 10.0721 104.38 7.88245 100.166 7.88245ZM100.102 11.5478C102.321 11.5478 103.201 13.2086 103.201 15.099V16.7243C103.201 19.0144 101.97 20.339 100.094 20.339C98.3392 20.339 97.1059 19.0999 97.1059 16.7243V15.099C97.1059 12.5654 98.5734 11.5478 100.102 11.5478ZM109.57 23.6301V0.469472L114.243 0.0632411V15.5869L118.879 8.18985H123.814L118.978 15.8511L124 23.6301H119.051L114.243 16.0766V23.6301H109.57Z" fill="white" fill-opacity="0.8"/>
</svg>