<svg xmlns="http://www.w3.org/2000/svg" width="106" height="42" viewBox="0 0 106 42" fill="none">
  <g clip-path="url(#clip0_901_3441)">
    <path d="M63.4065 17.3469C64.2912 17.3469 64.9557 16.9741 65.4103 16.4619V14.4295C63.7816 14.5299 62.1936 14.9417 62.1936 16.2826C62.1936 16.9146 62.6828 17.3469 63.4065 17.3469ZM65.4103 12.8325V11.9085C65.4103 11.1166 64.9557 10.6444 63.9569 10.6444C62.958 10.6444 61.898 11.0603 60.6036 11.6892L59.5844 9.55953C60.995 8.85167 62.6421 8.35894 64.0761 8.35894C67.0941 8.35894 68.2723 9.83611 68.2723 12.0047V16.4219C68.2723 16.9905 68.6076 17.2506 69.1366 17.2506V19.239C67.1542 19.239 66.3296 18.9429 65.7405 17.938C64.8609 18.8835 63.8814 19.4152 62.4688 19.4152C60.624 19.4152 59.3296 18.2945 59.3296 16.6186C59.3296 14.3096 61.5046 13.109 65.4103 12.8325ZM70.9121 8.59455H73.6192L73.7547 9.81562C74.5232 9.01148 75.6383 8.33948 76.9551 8.33948C79.3095 8.33948 80.3084 9.79616 80.3084 12.185V19.1796H77.426V12.1041C77.426 11.1566 77.0316 10.5081 76.0521 10.5081C75.1684 10.5081 74.404 10.9599 73.7751 11.7476V19.1796H70.9121M54.3781 5.38206V14.5698C54.3781 15.9855 53.6891 16.7948 52.4946 16.7948C51.6894 16.7948 51.0616 16.3984 50.5682 15.7294L48.6011 17.519C49.6163 18.7514 50.9892 19.4193 52.6495 19.4193C55.5125 19.4193 57.34 17.7823 57.34 14.6251V5.38206M54.0673 28.1389C52.5619 27.7547 51.2603 27.4218 51.2603 26.2981C51.2603 25.3618 52.1521 24.7297 53.4782 24.7297C54.7237 24.7297 56.0058 25.037 57.1922 25.6138L58.2237 23.4093C56.6031 22.6482 55.0029 22.2763 53.3385 22.2763C50.3878 22.2763 48.3259 23.9491 48.3259 26.338C48.3259 29.3753 50.7986 30.0197 52.9838 30.5913C54.5127 30.9908 55.8346 31.336 55.8346 32.4885C55.8346 33.4965 54.955 34.0967 53.4782 34.0967C52.2 34.0967 50.7629 33.6645 49.4165 32.8726L48.0834 35.073C49.548 35.9745 51.6619 36.5502 53.4975 36.5502C56.7509 36.5502 58.7731 34.9777 58.7731 32.4485C58.7731 29.3313 56.1648 28.6706 54.0673 28.1389ZM61.0938 27.7742H59.4264V25.7254H61.0938V23.0846H63.9772V25.7254H66.3337V27.7742H63.9772V33.0396C63.9772 33.8253 64.2718 34.2207 64.9404 34.2207C65.4704 34.2207 65.9597 34.0445 66.3694 33.7495L67.4294 35.4807C66.5463 36.1636 65.4655 36.5377 64.3513 36.5461C62.1528 36.5461 61.0938 35.4653 61.0938 33.0969M68.7381 25.7254H71.386L71.5807 27.3624C72.3859 25.9416 73.3848 25.4294 74.5834 25.4294C75.0726 25.4294 75.5231 25.5093 75.8778 25.6455L75.463 28.2864C75.0109 28.1236 74.5335 28.0438 74.0534 28.0508C72.975 28.0508 72.2493 28.7228 71.6011 29.9428V36.3094H68.7381M99.5066 27.7742H97.8381V25.7254H99.5066V23.0846H102.389V25.7254H104.746V27.7742H102.389V33.0396C102.389 33.8253 102.685 34.2207 103.348 34.2207C103.878 34.2207 104.367 34.0445 104.782 33.7495L105.841 35.4807C104.958 36.1636 103.877 36.5377 102.763 36.5461C100.566 36.5461 99.5066 35.4653 99.5066 33.0969M87.3869 10.4036C88.7609 10.4036 89.2705 11.428 89.2705 12.7689H85.0142C85.2894 11.2324 86.2087 10.4036 87.3869 10.4036ZM87.3074 8.31489C84.3853 8.31489 82.0319 10.4046 82.0319 13.7974C82.0319 17.3418 84.2304 19.4111 87.3278 19.4111C88.88 19.4141 90.3949 18.933 91.6636 18.0343L90.465 16.1986C89.5854 16.7507 88.6019 17.1062 87.5429 17.1062C86.0895 17.1062 85.2608 16.3584 85.0101 14.8536H91.8022C91.8787 14.4018 91.9939 13.9296 91.9939 13.1449C91.9939 10.3043 90.3295 8.31489 87.3074 8.31489ZM92.4036 27.5386C93.7734 27.5386 94.2831 28.563 94.2831 29.9029H90.0267C90.3019 28.3663 91.2254 27.5386 92.4036 27.5386ZM92.3241 25.4488C89.402 25.4488 87.0445 27.5386 87.0445 30.9314C87.0445 34.4768 89.243 36.5502 92.3445 36.5502C93.9131 36.5502 95.3818 36.0738 96.6762 35.1693L95.4817 33.3326C94.597 33.8857 93.6185 34.2412 92.5585 34.2412C91.101 34.2412 90.2734 33.4934 90.0267 31.9875H96.8148C96.8943 31.5368 97.0105 31.0635 97.0105 30.2799C97.0105 27.4382 95.342 25.4488 92.3241 25.4488ZM81.3908 27.5386C82.7647 27.5386 83.2743 28.563 83.2743 29.9029H79.018C79.2932 28.3663 80.2167 27.5386 81.3908 27.5386ZM81.3154 25.4488C78.3932 25.4488 76.0358 27.5386 76.0358 30.9314C76.0358 34.4768 78.2342 36.5502 81.3317 36.5502C82.9044 36.5502 84.3731 36.0738 85.6716 35.1693L84.473 33.3326C83.5893 33.8857 82.6098 34.2412 81.5508 34.2412C80.0933 34.2412 79.2657 33.4934 79.014 31.9875H85.8071C85.8866 31.5368 86.0008 31.0635 86.0008 30.2799C86.0008 27.4423 84.3333 25.4488 81.3154 25.4488ZM6.60475 28.9226C9.42802 33.7648 14.6669 37.0183 20.6436 37.0019C29.5823 36.9743 36.8362 29.6468 36.8117 20.6598C36.7883 11.6728 29.4936 4.38226 20.5519 4.40582C11.6133 4.42938 4.35939 11.764 4.38385 20.7479C4.38889 21.8204 4.49812 22.8898 4.71 23.9409C4.7416 24.0731 4.87716 24.1458 5.00558 24.113L7.26216 23.5496C7.29394 23.5426 7.32402 23.5293 7.35067 23.5106C7.37732 23.4918 7.40002 23.4679 7.41745 23.4403C7.43488 23.4127 7.44671 23.3819 7.45224 23.3497C7.45777 23.3174 7.45691 23.2844 7.4497 23.2526H7.45275C7.29306 22.4245 7.21184 21.5832 7.21018 20.7397C7.18979 13.3211 13.1788 7.26694 20.5601 7.24645C27.9454 7.22597 33.9691 13.2494 33.9854 20.668C34.0088 28.0867 28.0168 34.1408 20.6355 34.1613C15.7462 34.1726 11.4543 31.5358 9.11002 27.598C9.07859 27.5402 9.02649 27.4965 8.96425 27.4758C8.90201 27.455 8.83427 27.4588 8.7747 27.4864L6.70872 28.5825C6.65014 28.6138 6.60631 28.6672 6.58682 28.7309C6.56733 28.7947 6.57378 28.8636 6.60475 28.9226Z" fill="white" fill-opacity="0.8"/>
    <path d="M29.1316 24.2249L31.1904 25.3333C31.3127 25.3978 31.4758 25.362 31.5247 25.2298C32.1089 23.8278 32.4146 22.3244 32.4247 20.8045C32.4797 14.2494 27.2164 8.87543 20.6954 8.81909H20.5955C14.1295 8.81909 8.82644 14.1049 8.77039 20.6037C8.71943 27.1587 13.9787 32.5368 20.4997 32.589L20.5996 32.5921C23.6889 32.5921 26.5081 31.3833 28.6219 29.4155C28.7259 29.3233 28.7453 29.1635 28.6495 29.059L26.8943 27.4671C26.7904 27.3749 26.6355 27.3954 26.5437 27.4825L26.5397 27.4784C24.9036 28.9419 22.7898 29.7508 20.5996 29.7515H20.5242C15.5595 29.7074 11.558 25.6181 11.5977 20.6283C11.6375 15.6825 15.6747 11.6567 20.5955 11.6567H20.675C25.6356 11.7007 29.6412 15.7942 29.5973 20.7799C29.5889 21.841 29.3936 22.8922 29.0205 23.8848C28.9929 23.9451 28.9891 24.0137 29.0097 24.0767C29.0303 24.1398 29.0738 24.1927 29.1316 24.2249Z" fill="white" fill-opacity="0.8"/>
    <path d="M32.5084 3.81791C32.3962 3.74108 32.2454 3.76157 32.17 3.87733L30.847 5.79806C30.7706 5.91074 30.7828 6.06645 30.8949 6.14635C35.4203 9.39162 38.3832 14.7051 38.3791 20.7081C38.3791 30.5596 30.4047 38.5704 20.6027 38.5704C10.8008 38.5704 2.82531 30.5555 2.82531 20.6999C2.82531 10.8524 10.8008 2.83757 20.6068 2.84064C22.6788 2.83896 24.735 3.20339 26.6814 3.91728C26.7423 3.93914 26.8093 3.93641 26.8682 3.90966C26.9271 3.88291 26.9734 3.83423 26.9974 3.77386L27.8291 1.58064C27.8508 1.52104 27.8488 1.45532 27.8236 1.39714C27.7983 1.33896 27.7517 1.29278 27.6935 1.2682C25.425 0.427152 23.0258 -0.0022489 20.6078 8.85715e-06C9.24442 -0.0040887 0.00407692 9.28406 0 20.7029C0 32.1198 9.24442 41.412 20.6037 41.412C31.9621 41.412 41.2075 32.1239 41.2075 20.7081C41.2075 13.7422 37.7676 7.57128 32.5084 3.81791Z" fill="white" fill-opacity="0.8"/>
  </g>
  <defs>
    <clipPath id="clip0_901_3441">
      <rect width="106" height="42" fill="white"/>
    </clipPath>
  </defs>
</svg>