<svg xmlns="http://www.w3.org/2000/svg" width="78" height="62" viewBox="0 0 78 62" fill="none">
  <g clip-path="url(#clip0_901_3451)">
    <path fill-rule="evenodd" clip-rule="evenodd" d="M54.337 23.0288L60.5886 16.0148L51.4089 14.0135L52.3443 4.6641L43.741 8.44036L38.9998 0.327393L34.2619 8.43954L25.66 4.66085L26.5933 14.0103L17.4126 16.0099L23.6632 23.0255L17.4116 30.0395L26.5913 32.0408L25.6562 41.3898L34.2592 37.6135L39.0002 45.7265L43.7382 37.6147L52.3404 41.393L51.4073 32.0436L60.5876 30.044L54.337 23.0288ZM57.3696 28.3052L51.9544 26.453L48.3616 21.7834L53.1405 23.5588L57.3696 28.3052ZM42.8615 36.6453L39.6229 42.19V36.3105L42.9893 31.3985L42.8615 36.6453ZM37.1886 13.6569L31.6159 11.6751L28.2816 7.17332L34.1257 9.7404L37.1886 13.6569ZM43.8771 9.74159L49.7206 7.17618L46.3844 11.6751L40.8131 13.6563L43.8771 9.74159ZM50.1305 14.2786L47.2244 18.3996L47.3892 12.4119L50.7738 7.84763L50.1305 14.2786ZM39 35.0157L35.1009 29.3267L39 24.036L42.8991 29.3267L39 35.0157ZM32.0657 19.9923L31.8759 13.0897L38.3771 15.4015V22.1188L32.0657 19.9923ZM39.6229 15.4015L46.1243 13.0897L45.9343 19.9923L39.6229 22.1188V15.4015ZM27.8719 14.2761L27.2299 7.84649L30.6111 12.4115L30.7756 18.3979L27.8719 14.2761ZM37.9921 23.304L34.0945 28.5927L27.4729 26.6408L31.6775 21.1764L37.9921 23.304ZM35.0099 31.3974L38.3771 36.3105V42.1912L35.1358 36.6443L35.0099 31.3974ZM40.008 23.304L46.3226 21.1764L50.5273 26.6408L43.9056 28.5928L40.008 23.304ZM58.2398 16.778L53.3208 22.2967L47.5204 20.1417L51.005 15.2004L58.2398 16.778ZM39.0002 2.79705L42.7321 9.18308L39.0002 13.9512L35.2708 9.18244L39.0002 2.79705ZM19.7614 16.7731L26.9972 15.1976L30.4799 20.1414L24.6798 22.2935L19.7614 16.7731ZM24.8594 23.5556L29.6396 21.7819L26.0463 26.4524L20.6288 28.302L24.8594 23.5556ZM20.9026 29.5253L26.439 27.6351L32.2055 29.3348L27.237 30.9066L20.9026 29.5253ZM27.8453 32.0205L33.7341 30.1575L33.8842 36.4172L27.108 39.3922L27.8453 32.0205ZM44.1131 36.4187L44.2657 30.1578L50.1532 32.0228L50.889 39.3946L44.1131 36.4187ZM50.7616 30.9089L45.7934 29.3351L51.5616 27.6349L57.099 29.5289L50.7616 30.9089Z" fill="white" fill-opacity="0.8"/>
    <path fill-rule="evenodd" clip-rule="evenodd" d="M0 50.4975H2.68848L3.95412 57.4822L5.81877 50.4975H8.18285L10.3963 57.6042L11.691 50.4975H14.2457L12.0601 60.9486H9.11058L7.14941 54.4281L5.14291 60.9486H2.0486L0 50.4975ZM78 60.9486H75.3114L74.0482 53.9387L72.1814 60.9486H69.8167L67.6124 53.8434L66.3093 60.9486H63.7541L65.9399 50.4975H68.8891L70.85 57.0232L72.8581 50.4975H75.9512L78 60.9486ZM19.8762 50.3167C23.278 50.3167 25.0526 52.3691 25.0526 55.7228C25.0526 59.0467 23.2487 61.1271 19.8762 61.1271C16.5051 61.1271 14.7011 59.0467 14.7011 55.7228C14.7011 52.3691 16.4754 50.3167 19.8762 50.3167ZM19.8762 59.0612C21.5478 59.0612 22.2126 57.4441 22.2126 55.7228C22.2126 53.9096 21.5478 52.3832 19.8762 52.3832C18.2049 52.3832 17.5398 53.9096 17.5398 55.7228C17.5398 57.4441 18.2049 59.0612 19.8762 59.0612ZM26.5907 50.496H29.3418V58.8812H33.6007V60.9464H26.5907V50.496ZM34.7395 50.496H41.6432V52.4728H37.4895V54.7645H41.4661V56.7396H37.4895V60.9464H34.7395L34.7395 50.496ZM43.0815 50.496H47.991C49.8252 50.496 51.3189 51.3339 51.3189 53.1322C51.3189 54.5251 50.668 55.4528 49.3372 55.7671V55.7975C50.2236 56.0372 50.2838 56.8311 50.8014 58.1036L51.8058 60.9464H48.9376L48.3469 59.0612C47.7839 57.2649 47.4298 56.815 46.4094 56.815H45.8316V60.9464H43.0815V50.496ZM45.8316 54.8395H46.5576C47.4439 54.8395 48.5682 54.8091 48.5682 53.6258C48.5682 52.6532 47.6069 52.4728 46.5576 52.4728H45.8316V54.8395ZM55.9727 50.496H59.3455L63.3231 60.9464H60.3063L59.5373 58.7169H55.6635L54.8497 60.9464H52.0541L55.9727 50.496ZM57.6594 52.6532H57.6305L56.2997 56.7396H58.8863L57.6594 52.6532Z" fill="white" fill-opacity="0.8"/>
  </g>
  <defs>
    <clipPath id="clip0_901_3451">
      <rect width="78" height="61.4545" fill="white"/>
    </clipPath>
  </defs>
</svg>