<svg width="570" height="385" viewBox="0 0 570 385" fill="none" xmlns="http://www.w3.org/2000/svg">
<path d="M440.784 13.4481C422.549 9.70759 426.172 21.6303 430.264 28.0593C419.743 28.0593 415.652 111.051 416.237 112.804C416.821 114.558 410.977 120.986 401.041 120.986C391.106 120.986 364.805 102.284 354.87 88.2574C346.921 77.036 331.687 63.3209 325.063 57.8661C310.101 16.2534 288.827 1.95387 280.06 0.00571267C242.656 -0.578735 243.24 43.8393 227.46 60.7883C211.68 77.7373 211.68 64.8795 185.38 22.2148C159.08 -20.4499 143.884 13.4481 143.3 13.4481C142.832 13.4481 102.583 75.3995 82.5171 106.375C82.3223 107.544 77.8416 112.103 61.477 120.986C41.0213 132.091 42.1902 146.702 29.9168 158.976C17.6434 171.249 13.5523 226.187 13.5523 236.707C13.5523 247.227 -6.90337 276.45 2.44779 272.943C11.799 269.436 22.9035 229.109 25.8257 222.68C28.1635 217.537 30.6961 206.511 31.6702 201.64C41.6058 210.991 28.1635 269.436 25.8257 276.45C23.4879 283.463 19.3968 298.074 13.5523 305.088C7.70782 312.101 10.6301 327.297 19.3968 339.57C26.4101 349.389 22.319 376.001 19.3968 388.079C26.9946 389.248 42.7747 391.586 45.1125 391.586C48.0347 391.586 48.6192 377.559 42.1902 367.624C35.7613 357.688 36.9302 336.063 36.3458 329.05C35.7613 322.037 35.7613 312.101 40.4369 308.594C45.1125 305.088 53.8792 286.385 59.7237 269.436C64.3992 255.877 73.3608 254.825 77.2571 255.994C74.14 261.254 68.4904 273.527 70.8282 280.541C73.7504 289.307 73.166 307.425 70.8282 323.206C68.4904 338.986 66.1526 333.726 79.0104 347.752C89.2967 358.974 91.8683 379.313 91.8683 388.079L112.908 389.833C113.882 384.378 114.077 369.26 107.064 352.428C100.051 335.596 98.6869 328.66 98.8817 327.297C100.051 319.894 102.155 303.334 101.219 296.321C100.051 287.554 104.726 271.774 110.571 264.761C116.415 257.747 117.584 252.487 122.26 239.629C126 229.343 129.273 230.278 130.442 232.032C191.224 278.787 246.163 263.007 266.034 252.487C281.931 244.071 286.295 253.656 286.489 259.501C282.983 274.891 274.684 307.659 269.54 315.608C263.111 325.543 271.294 336.063 266.618 352.428C262.878 365.52 265.06 383.988 266.618 391.586H291.749C289.022 380.481 284.152 357.688 286.489 355.35C289.412 352.428 289.412 343.661 291.749 329.05C294.087 314.439 298.178 321.452 299.347 329.05C300.282 335.128 302.075 347.168 302.854 352.428L310.452 391.586L328.57 394.508C326.816 385.741 322.141 366.221 317.465 358.272C311.685 348.446 313.336 344.908 317.331 336.35L317.465 336.063C321.556 327.297 316.881 318.53 317.465 315.608C318.05 312.685 314.543 278.787 328.57 271.774C339.791 266.163 343.376 255.799 343.765 251.318C341.622 247.227 341.895 235.305 360.13 220.343C378.365 205.381 388.378 206.706 391.106 209.238C400.924 231.213 430.653 223.07 444.29 216.252C502.735 178.847 500.202 109.492 491.631 79.4907C507.995 78.9062 511.502 71.8928 516.177 64.8795C519.918 59.2688 535.269 53.9698 542.478 52.0216C535.854 51.4372 526.697 50.6189 543.062 52.0216C563.518 53.775 567.024 49.0994 566.44 46.1771C565.855 43.2549 561.764 42.6704 558.258 43.8393C554.751 45.0082 556.504 40.3326 559.427 36.826C562.349 33.3193 569.362 40.3327 569.947 35.6571C570.531 30.9815 566.44 23.3837 551.829 13.4481C540.14 5.49958 526.697 10.1362 521.437 13.4481C518.71 13.4481 508.93 12.1623 491.631 7.01911C474.331 1.87594 450.524 9.16209 440.784 13.4481Z" fill="#F1DCC3"/>
</svg>