<svg width="99" height="25" viewBox="0 0 99 25" fill="none" xmlns="http://www.w3.org/2000/svg">
<path d="M87.7615 21.831H93.0955V19.166H90.4285V16.5L87.7615 16.488V13.823H85.0955V8.509L87.7615 8.488V5.838L95.7615 5.849V8.497H90.4285V11.163H93.0955V13.832L95.7405 13.842V16.511H98.4285V21.828H95.7615L95.7405 24.497H87.7615V21.831ZM85.0955 19.188H87.7405V21.836H85.0955V19.188ZM95.7834 8.518L98.4285 8.509V11.157L95.7834 11.166V8.518ZM75.4085 8.5H72.7425V5.833H75.4085V3.188L78.0755 3.169V0.518001L86.0755 0.5V3.147L80.7425 3.166V5.833H83.4085V8.5H80.7425V24.5H75.4085V8.5ZM70.6085 16.5V8.5H67.9435V5.833H57.2765V8.5H54.6095V21.833H57.2765V24.5H67.9435V21.833H59.9435V16.5H70.6085ZM59.9425 8.5H65.2755V13.833H59.9435L59.9425 8.5ZM70.6095 21.833H67.9435V19.166H70.6095V21.833ZM38.9615 5.833H44.2945V8.5H46.9615V5.833H52.2945V11.166H44.2945V24.5H38.9615V5.833ZM19.7905 0.5H25.1235V5.833H33.1235V8.5H35.7905V24.5H30.4615V8.5H25.1235V24.5H19.7905V0.5Z" fill="#054ADA"/>
<path d="M3.02845 13.833H11.0285V8.50001H3.02845V5.83301H13.6944V8.50001H16.3614V24.5H3.03045V21.831H0.36145V16.5H3.02845V13.833ZM5.69445 16.5V21.833H11.0285V16.5H5.69445ZM0.36145 8.50001H3.02845V11.166H0.36145V8.50001Z" fill="#FF8800"/>
</svg>
