<svg width="48" height="48" viewBox="0 0 48 48" fill="none" xmlns="http://www.w3.org/2000/svg">
<rect width="48" height="48" rx="12" fill="url(#paint0_linear_304:430)"/>
<path d="M22.4531 16.5469V18.7969L23.8594 20.2031C23.5312 18.5625 24.0469 16.9219 25.2188 15.75C26.1562 14.7656 27.4219 14.2969 28.7344 14.2969H28.7812L26.0625 16.9688L26.7656 21.1875L30.9844 21.8906L33.7031 19.2188C33.7031 20.5312 33.1875 21.8438 32.2031 22.7812C31.7812 23.25 31.2656 23.5781 30.75 23.8125C30.7969 23.8594 30.8906 23.9531 30.9844 24L32.4375 25.4531C32.9062 25.1719 33.375 24.7969 33.7969 24.375C35.5781 22.6406 36.3281 19.9688 35.7188 17.5312C35.5781 16.9219 35.1562 16.5 34.5938 16.3125C33.9844 16.1719 33.375 16.3594 33 16.7344L30.2812 19.5L28.7344 19.2656L28.5 17.7188L31.2656 15C31.6406 14.625 31.8281 14.0156 31.6406 13.4531C31.5 12.8438 31.0312 12.4219 30.4688 12.2812C27.9844 11.6719 25.4062 12.375 23.625 14.2031C23.1094 14.6719 22.7344 15.1875 22.4062 15.75H22.4531V16.5469ZM16.9688 33.2812C16.3594 33.8906 15.2812 33.8906 14.6719 33.2812C14.3906 33 14.2031 32.625 14.2031 32.2031C14.2031 31.7812 14.3906 31.4062 14.6719 31.125L21 24.75L19.4062 23.1562L13.125 29.4375C12.375 30.1875 12 31.1719 12 32.1094C11.9531 33.0938 12.375 34.125 13.125 34.8281C13.8281 35.5781 14.8125 35.9531 15.7969 35.9531C16.7812 35.9531 17.7656 35.5781 18.5156 34.8281L23.25 30.1406C22.7812 29.3906 22.5 28.5469 22.5 27.6562L16.9688 33.2812ZM35.4844 30.5625L30 25.0781C28.875 24 27.2812 23.7656 25.9688 24.4219L20.9531 19.4062V16.5L15 12L12 15L16.5 20.9531H19.4062L24.375 25.9219C23.7656 27.2344 23.9531 28.875 25.0312 29.9531L30.5156 35.4375C31.2188 36.0938 32.2969 36.0938 33 35.4375L35.4844 32.9531C36.1406 32.3438 36.1406 31.2656 35.4844 30.5625Z" fill="white"/>
<defs>
<linearGradient id="paint0_linear_304:430" x1="1.05053e-06" y1="-0.445191" x2="48" y2="47.5548" gradientUnits="userSpaceOnUse">
<stop stop-color="#63B3ED"/>
<stop offset="1" stop-color="#2B6CB0"/>
</linearGradient>
</defs>
</svg>
