<svg width="149" height="28" viewBox="0 0 149 28" fill="none" xmlns="http://www.w3.org/2000/svg">
<path d="M0.210449 0.429077H11.0664C13.1342 0.429077 14.685 0.942369 15.8338 1.79786C17.0974 2.82444 17.7867 4.30728 17.7867 6.13232C17.7867 8.24252 16.9251 9.55427 15.202 10.3527V10.4668C17.4995 11.2082 18.8206 13.2614 18.8206 15.7138C18.8206 18.0521 17.9016 19.8771 16.4082 21.0178C15.1445 21.9303 13.5362 22.3295 11.3536 22.3295H0.210449V0.429077ZM9.97503 8.98394C11.1238 8.98394 11.9854 8.35659 11.9854 7.04484C11.9854 5.79013 11.1238 5.16277 9.91758 5.16277H6.18407V8.92691H9.97503V8.98394ZM10.492 17.4818C11.8131 17.4818 12.7895 16.6833 12.7895 15.2575C12.7895 13.7176 11.7556 13.0332 10.492 13.0332H6.24151V17.5388H10.492V17.4818Z" fill="black"/>
<path d="M19.7971 0.429077H25.4835V22.3866H19.7971V0.429077Z" fill="black"/>
<path d="M26.6323 14.5731C26.6323 9.61129 29.8488 6.30341 34.846 6.30341C39.8432 6.30341 43.0023 9.66832 43.0023 14.5731C43.0023 19.5349 39.8432 22.8428 34.846 22.8428C29.8488 22.8428 26.6323 19.5349 26.6323 14.5731ZM37.3159 14.5731C37.3159 11.8356 36.4543 10.1246 34.7311 10.1246C33.008 10.1246 32.2038 11.8356 32.2038 14.5731C32.2038 17.3107 33.008 19.0787 34.7311 19.0787C36.4543 19.0216 37.3159 17.3107 37.3159 14.5731Z" fill="black"/>
<path d="M43.6341 14.5731C43.6341 9.61129 46.8507 6.30341 51.8478 6.30341C56.845 6.30341 59.9467 9.61129 59.9467 14.5731C59.9467 19.5349 56.7876 22.8428 51.7904 22.8428C46.8507 22.8428 43.6341 19.5349 43.6341 14.5731ZM54.3177 14.5731C54.3177 11.8356 53.4561 10.1246 51.7329 10.1246C50.0098 10.1246 49.2056 11.8356 49.2056 14.5731C49.2056 17.3107 50.0098 19.0787 51.7329 19.0787C53.4561 19.0216 54.3177 17.3107 54.3177 14.5731Z" fill="black"/>
<path d="M61.0955 6.70266H66.3798V9.04099H66.4947C67.5286 7.21595 68.9646 6.2464 71.2621 6.2464C73.2725 6.2464 74.7659 7.21595 75.5126 8.92692H75.6274C76.8911 6.87376 78.5568 6.2464 80.5097 6.2464C84.1858 6.2464 85.7366 8.92692 85.7366 12.52V22.3295H80.2225V13.4895C80.2225 11.8926 79.7056 10.866 78.3271 10.866C76.9485 10.866 76.2593 12.1207 76.2593 13.8317V22.3295H70.7452V13.4895C70.7452 11.8926 70.2282 10.866 68.8497 10.866C67.4712 10.866 66.7819 12.1207 66.7819 13.8317V22.3295H61.0955V6.70266Z" fill="black"/>
<path d="M92.6868 20.2764H92.6293V22.3295H87.345V0.429077H92.8591V8.29955H92.974C94.0078 6.93077 95.4438 6.18935 97.4542 6.18935C101.417 6.18935 103.715 9.72536 103.715 14.4591C103.715 19.7631 101.245 22.8428 97.1095 22.8428C95.3864 22.8428 93.6058 22.0444 92.6868 20.2764ZM98.0285 14.402C98.0285 11.8926 97.1095 10.2387 95.4438 10.2387C93.7206 10.2387 92.6868 11.8926 92.6868 14.402C92.6868 16.9114 93.7781 18.5654 95.4438 18.5654C97.1095 18.5654 98.0285 16.9685 98.0285 14.402Z" fill="black"/>
<path d="M104.347 14.5161C104.347 9.61131 107.621 6.2464 112.331 6.2464C114.686 6.2464 116.466 6.98782 117.845 8.29957C119.683 10.0676 120.487 12.8051 120.43 15.9989H109.861C110.091 17.938 111.01 18.9646 112.675 18.9646C113.652 18.9646 114.513 18.5084 114.858 17.4818H120.2C119.281 21.0748 116.466 22.8428 112.503 22.8428C107.621 22.7858 104.347 19.4779 104.347 14.5161ZM109.861 12.8622H114.916C114.801 10.9801 113.767 10.0105 112.446 10.0105C110.895 9.95351 110.033 11.0371 109.861 12.8622Z" fill="black"/>
<path d="M126.69 9.38313H126.805C127.954 7.2159 129.447 6.36041 131.343 6.36041C131.802 6.36041 132.09 6.41745 132.262 6.53151V11.3222H132.147C128.873 10.7519 126.978 12.2918 126.978 15.8278V22.3865H121.406V6.70261H126.69V9.38313Z" fill="black"/>
<path d="M132.836 22.3865H138.178C138.408 23.0709 139.097 23.6983 140.418 23.6983C142.199 23.6983 142.831 22.6147 142.831 20.9607V19.8201H142.716C141.854 20.8467 140.648 21.5881 138.925 21.5881C135.536 21.5881 132.549 19.0787 132.549 14.1739C132.549 9.66831 134.962 6.18933 138.638 6.18933C140.763 6.18933 142.027 7.04482 142.888 8.35656H143.003V6.64559H148.287V20.2193C148.287 22.7287 147.426 24.6678 146.105 25.8085C144.726 27.0062 142.773 27.5195 140.533 27.5195C136.283 27.5765 133.353 25.8655 132.836 22.3865ZM143.06 13.9457C143.06 12.0066 142.141 10.4097 140.533 10.4097C138.982 10.4097 138.006 11.7785 138.006 13.9457C138.006 16.0559 138.982 17.5388 140.533 17.5388C142.084 17.5388 143.06 15.9989 143.06 13.9457Z" fill="black"/>
</svg>
