<svg width="56" height="57" viewBox="0 0 56 57" fill="none" xmlns="http://www.w3.org/2000/svg">
<g clip-path="url(#clip0_349:97)">
<g opacity="0.405" filter="url(#filter0_f_349:97)">
<path d="M53.3824 29.0211C53.3824 43.2466 41.967 54.7786 27.8854 54.7786C13.8038 54.7786 2.38843 43.2466 2.38843 29.0211C2.38843 14.7957 13.8038 3.26367 27.8854 3.26367C41.967 3.26367 53.3824 14.7957 53.3824 29.0211Z" fill="#211F46" fill-opacity="0.996078"/>
<path d="M53.3824 29.0211C53.3824 43.2466 41.967 54.7786 27.8854 54.7786C13.8038 54.7786 2.38843 43.2466 2.38843 29.0211C2.38843 14.7957 13.8038 3.26367 27.8854 3.26367C41.967 3.26367 53.3824 14.7957 53.3824 29.0211Z" stroke="#0A0B1B" stroke-width="0.92106"/>
</g>
<path d="M53.3824 29.0211C53.3824 43.2466 41.967 54.7786 27.8854 54.7786C13.8038 54.7786 2.38843 43.2466 2.38843 29.0211C2.38843 14.7957 13.8038 3.26367 27.8854 3.26367C41.967 3.26367 53.3824 14.7957 53.3824 29.0211Z" fill="url(#paint0_linear_349:97)" stroke="url(#paint1_linear_349:97)" stroke-width="1.45886"/>
<path fill-rule="evenodd" clip-rule="evenodd" d="M19.1219 47.1137C19.1219 47.1137 21.2808 47.2664 24.0582 47.0216C25.1829 46.9225 29.4533 46.503 32.6459 45.8029C32.6459 45.8029 36.5386 44.9698 38.6211 44.2023C40.8001 43.3993 41.9859 42.7178 42.5196 41.7521C42.4963 41.5542 42.6839 40.8525 41.679 40.4311C39.11 39.3535 36.1305 39.5484 30.2347 39.4234C23.6966 39.1987 21.5216 38.1044 20.363 37.2229C19.252 36.3288 19.8107 33.855 24.5711 31.676C26.9691 30.5156 36.3695 28.3743 36.3695 28.3743C33.2036 26.8094 27.3002 24.0585 26.0868 23.4644C25.0224 22.9434 23.3192 22.1589 22.95 21.2098C22.5315 20.2986 23.9386 19.5137 24.7246 19.2889C27.2561 18.5587 30.8297 18.1049 34.0822 18.0539C35.717 18.0283 35.9824 17.9231 35.9824 17.9231C38.2382 17.549 39.7232 16.0056 39.1045 13.5614C38.549 11.0665 35.6196 9.60054 32.8358 10.108C30.2142 10.586 23.8957 12.4213 23.8957 12.4213C31.7059 12.3537 33.0131 12.4841 33.5969 13.3004C33.9417 13.7824 33.4403 14.4434 31.3573 14.7836C29.0896 15.154 24.3758 15.6 24.3758 15.6C19.8537 15.8685 16.6683 15.8865 15.7129 17.9092C15.0888 19.2307 16.3785 20.3989 16.9438 21.1302C19.3327 23.7868 22.7832 25.2196 25.0042 26.2747C25.8399 26.6717 28.2919 27.4214 28.2919 27.4214C21.0864 27.0251 15.8887 29.2377 12.8398 31.7851C9.39129 34.9747 10.9168 38.7767 17.9817 41.1177C22.1546 42.5004 24.224 43.1507 30.4485 42.5901C34.1147 42.3925 34.6927 42.5101 34.7292 42.811C34.7807 43.2345 30.6571 44.2866 29.5313 44.6113C26.6673 45.4375 19.1595 47.1056 19.1219 47.1137Z" fill="white"/>
</g>
<defs>
<filter id="filter0_f_349:97" x="0.0315042" y="0.906809" width="55.7078" height="56.2286" filterUnits="userSpaceOnUse" color-interpolation-filters="sRGB">
<feFlood flood-opacity="0" result="BackgroundImageFix"/>
<feBlend mode="normal" in="SourceGraphic" in2="BackgroundImageFix" result="shape"/>
<feGaussianBlur stdDeviation="0.948207" result="effect1_foregroundBlur_349:97"/>
</filter>
<linearGradient id="paint0_linear_349:97" x1="15.2086" y1="13.637" x2="47.2368" y2="57.2058" gradientUnits="userSpaceOnUse">
<stop stop-color="#8381C5"/>
<stop offset="0.566394" stop-color="#7E55B3" stop-opacity="0.996078"/>
<stop offset="1" stop-color="#A52ECB" stop-opacity="0.992157"/>
</linearGradient>
<linearGradient id="paint1_linear_349:97" x1="48.6483" y1="44.0079" x2="19.0883" y2="8.32525" gradientUnits="userSpaceOnUse">
<stop stop-color="#411F5D"/>
<stop offset="1" stop-color="#5B2A85"/>
</linearGradient>
<clipPath id="clip0_349:97">
<rect width="56" height="56" fill="white" transform="translate(0 0.945312)"/>
</clipPath>
</defs>
</svg>
