<svg width="132" height="53" viewBox="0 0 132 53" fill="none" xmlns="http://www.w3.org/2000/svg">
<g clip-path="url(#clip0_130_918)">
<path d="M78.9589 21.4932C80.0606 21.4932 80.8882 21.0312 81.4543 20.3965V17.8784C79.426 18.0028 77.4486 18.513 77.4486 20.1744C77.4486 20.9575 78.0578 21.4932 78.9589 21.4932ZM81.4543 15.8997V14.7548C81.4543 13.7737 80.8882 13.1886 79.6443 13.1886C78.4005 13.1886 77.0805 13.7039 75.4686 14.4832L74.1993 11.8445C75.9559 10.9674 78.007 10.3569 79.7928 10.3569C83.551 10.3569 85.0183 12.1872 85.0183 14.8741V20.347C85.0183 21.0515 85.4358 21.3738 86.0946 21.3738V23.8374C83.6259 23.8374 82.5991 23.4706 81.8655 22.2255C80.7701 23.397 79.5504 24.0557 77.7913 24.0557C75.4939 24.0557 73.882 22.6672 73.882 20.5907C73.882 17.7299 76.5906 16.2423 81.4543 15.8997ZM88.3056 10.6488H91.6766L91.8454 12.1618C92.8024 11.1654 94.191 10.3328 95.8308 10.3328C98.7628 10.3328 100.007 12.1377 100.007 15.0975V23.7638H96.4172V14.9972C96.4172 13.8232 95.926 13.0198 94.7063 13.0198C93.6059 13.0198 92.654 13.5795 91.8708 14.5555V23.7638H88.3056V10.6488ZM67.7161 6.66854V18.0523C67.7161 19.8063 66.8581 20.809 65.3706 20.809C64.3679 20.809 63.586 20.3178 62.9717 19.489L60.5221 21.7064C61.7863 23.2333 63.4959 24.0608 65.5635 24.0608C69.1288 24.0608 71.4045 22.0326 71.4045 18.1208V6.66854H67.7161ZM67.329 34.8645C65.4543 34.3885 63.8335 33.976 63.8335 32.5837C63.8335 31.4236 64.9441 30.6405 66.5954 30.6405C68.1464 30.6405 69.7431 31.0213 71.2204 31.7358L72.5049 29.0045C70.4868 28.0614 68.4941 27.6007 66.4215 27.6007C62.7471 27.6007 60.1794 29.6733 60.1794 32.6332C60.1794 36.3965 63.2586 37.1948 65.9798 37.903C67.8836 38.398 69.5298 38.8258 69.5298 40.2537C69.5298 41.5026 68.4345 42.2463 66.5954 42.2463C65.0038 42.2463 63.2141 41.7107 61.5375 40.7296L59.8773 43.4559C61.7012 44.5728 64.3336 45.2862 66.6195 45.2862C70.6709 45.2862 73.189 43.3379 73.189 40.2042C73.189 36.3419 69.9411 35.5232 67.329 34.8645ZM76.0791 34.4127H74.0026V31.8742H76.0791V28.6021H79.6697V31.8742H82.6042V34.4127H79.6697V40.9365C79.6697 41.91 80.0365 42.3999 80.8691 42.3999C81.5291 42.3999 82.1384 42.1816 82.6486 41.8161L83.9686 43.9611C82.869 44.8072 81.5229 45.2707 80.1355 45.2811C77.3978 45.2811 76.0791 43.942 76.0791 41.0076V34.4127ZM85.5983 31.8742H88.8958L89.1382 33.9024C90.1409 32.142 91.3847 31.5074 92.8773 31.5074C93.4866 31.5074 94.0476 31.6064 94.4893 31.7752L93.9727 35.0473C93.4098 34.8455 92.8152 34.7467 92.2173 34.7553C90.8745 34.7553 89.9708 35.588 89.1636 37.0996V44.9879H85.5983V31.8742ZM123.914 34.4127H121.836V31.8742H123.914V28.6021H127.503V31.8742H130.439V34.4127H127.503V40.9365C127.503 41.91 127.871 42.3999 128.698 42.3999C129.358 42.3999 129.967 42.1816 130.483 41.8161L131.802 43.9611C130.702 44.8072 129.356 45.2707 127.969 45.2811C125.233 45.2811 123.914 43.942 123.914 41.0076V34.4127ZM108.821 12.8903C110.532 12.8903 111.167 14.1595 111.167 15.821H105.867C106.209 13.9171 107.354 12.8903 108.821 12.8903ZM108.722 10.3023C105.084 10.3023 102.153 12.8916 102.153 17.0953C102.153 21.4868 104.891 24.0507 108.748 24.0507C110.681 24.0543 112.567 23.4583 114.147 22.3448L112.654 20.0703C111.559 20.7545 110.334 21.1949 109.016 21.1949C107.206 21.1949 106.174 20.2683 105.862 18.4038H114.32C114.415 17.8441 114.558 17.259 114.558 16.2868C114.558 12.7672 112.486 10.3023 108.722 10.3023ZM115.069 34.1207C116.774 34.1207 117.409 35.39 117.409 37.0501H112.109C112.451 35.1463 113.601 34.1207 115.069 34.1207ZM114.97 31.5315C111.331 31.5315 108.395 34.1207 108.395 38.3244C108.395 42.7172 111.133 45.2862 114.995 45.2862C116.948 45.2862 118.777 44.696 120.389 43.5752L118.902 41.2995C117.8 41.9849 116.581 42.4253 115.261 42.4253C113.446 42.4253 112.416 41.4988 112.109 39.633H120.562C120.661 39.0745 120.805 38.4882 120.805 37.5172C120.805 33.9963 118.728 31.5328 114.97 31.5328V31.5315ZM101.355 34.1207C103.065 34.1207 103.7 35.39 103.7 37.0501H98.3998C98.7424 35.1463 99.8924 34.1207 101.355 34.1207ZM101.261 31.5315C97.6217 31.5315 94.686 34.1207 94.686 38.3244C94.686 42.7172 97.4237 45.2862 101.281 45.2862C103.239 45.2862 105.068 44.696 106.685 43.5752L105.193 41.2995C104.092 41.9849 102.873 42.4253 101.554 42.4253C99.7388 42.4253 98.7082 41.4988 98.3947 39.633H106.854C106.953 39.0745 107.095 38.4882 107.095 37.5172C107.095 34.0014 105.019 31.5328 101.261 31.5328V31.5315ZM8.22472 35.8355C11.7405 41.8351 18.2643 45.8662 25.7071 45.8459C36.8383 45.8116 45.8714 36.7328 45.8409 25.5978C45.8117 14.4629 36.7278 5.42977 25.5929 5.45896C14.4617 5.48816 5.4286 14.5758 5.45906 25.707C5.46533 27.0358 5.60136 28.3608 5.86521 29.6632C5.90456 29.8269 6.07337 29.917 6.23329 29.8764L9.04337 29.1783C9.08294 29.1696 9.1204 29.1532 9.15359 29.13C9.18678 29.1067 9.21504 29.0771 9.23675 29.0429C9.25846 29.0087 9.27318 28.9705 9.28007 28.9306C9.28697 28.8907 9.28589 28.8498 9.27691 28.8103H9.28071C9.08185 27.7843 8.98071 26.7419 8.97864 25.6968C8.95325 16.5051 16.4113 9.00392 25.603 8.97854C34.7999 8.95316 42.301 16.4162 42.3213 25.608C42.3505 34.7998 34.8887 42.3009 25.6969 42.3263C19.6084 42.3403 14.2637 39.0733 11.3445 34.1943C11.3053 34.1227 11.2405 34.0686 11.163 34.0429C11.0855 34.0172 11.0011 34.0219 10.9269 34.056L8.35418 35.4141C8.28123 35.4529 8.22665 35.519 8.20238 35.598C8.17811 35.677 8.18615 35.7624 8.22472 35.8355Z" fill="#2987EC"/>
<path d="M36.2773 30.0148L38.8411 31.3881C38.9934 31.468 39.1965 31.4236 39.2574 31.2599C39.9849 29.5227 40.3656 27.6601 40.3782 25.7768C40.4467 17.655 33.8924 10.9966 25.7718 10.9268H25.6475C17.5955 10.9268 10.9917 17.476 10.9218 25.528C10.8584 33.6499 17.4076 40.3133 25.5282 40.378L25.6525 40.3819C29.4996 40.3819 33.0103 38.8842 35.6427 36.446C35.7721 36.3317 35.7962 36.1337 35.6769 36.0043L33.4913 34.0319C33.3618 33.9177 33.1689 33.943 33.0547 34.0509L33.0496 34.0459C31.0123 35.8592 28.38 36.8614 25.6525 36.8623H25.5586C19.3762 36.8077 14.3932 31.7409 14.4427 25.5585C14.4922 19.4307 19.5196 14.4426 25.6475 14.4426H25.7465C31.9238 14.4972 36.9119 19.569 36.8573 25.7464C36.8468 27.061 36.6036 28.3635 36.1389 29.5934C36.1046 29.6681 36.0998 29.7531 36.1255 29.8312C36.1511 29.9093 36.2053 29.9749 36.2773 30.0148Z" fill="#2987EC"/>
<path d="M40.4821 4.73043C40.3425 4.63523 40.1547 4.66062 40.0607 4.80404L38.4133 7.18385C38.3181 7.32346 38.3333 7.51639 38.4729 7.61539C44.1083 11.6363 47.798 18.2198 47.7929 25.6575C47.7929 37.8637 37.8624 47.7891 25.6562 47.7891C13.45 47.7891 3.51831 37.8586 3.51831 25.6474C3.51831 13.4462 13.45 3.51577 25.6613 3.51958C28.2415 3.5175 30.802 3.96902 33.2259 4.85354C33.3018 4.88063 33.3851 4.87725 33.4585 4.8441C33.5319 4.81096 33.5896 4.75065 33.6194 4.67585L34.6551 1.95843C34.6821 1.88457 34.6796 1.80315 34.6482 1.73106C34.6168 1.65898 34.5588 1.60177 34.4863 1.57131C31.6613 0.529238 28.6736 -0.00279404 25.6626 3.34471e-06C11.5119 -0.00507358 0.00507692 11.503 0 25.6512C0 39.7967 11.5119 51.3099 25.6575 51.3099C39.8018 51.3099 51.315 39.8018 51.315 25.6575C51.315 17.0267 47.0313 9.38089 40.4821 4.73043Z" fill="#2987EC"/>
</g>
<defs>
<clipPath id="clip0_130_918">
<rect width="132" height="52.0385" fill="white"/>
</clipPath>
</defs>
</svg>
