<?xml version="1.0" encoding="utf-8"?>
<!-- Generator: Adobe Illustrator 26.0.1, SVG Export Plug-In . SVG Version: 6.00 Build 0)  -->
<svg version="1.1" id="Layer_1" xmlns="http://www.w3.org/2000/svg" xmlns:xlink="http://www.w3.org/1999/xlink" x="0px" y="0px"
	 viewBox="0 0 160 44" style="enable-background:new 0 0 160 44;" xml:space="preserve">
<style type="text/css">
	.st0{fill:#FFFFFF;}
	.st1{fill:#1A202C;}
	.st2{fill:url(#SVGID_1_);}
	.st3{fill:url(#SVGID_00000090296440831515205200000001913776022247393423_);}
	.st4{fill:url(#SVGID_00000068666670919662558360000015815730047716450477_);}
	.st5{fill:url(#SVGID_00000086683552077955393710000000136731069776306816_);}
</style>
<path class="st0" d="M26.3,38.7c-0.1-0.4,0.1-0.9-0.1-1.3c-0.1-0.4-0.4-0.4-0.5-0.7c-0.4-0.8-0.9-1.7-0.9-2.7c0-0.8-0.3-1.6-0.4-2.4
	c0-0.4,0-0.8,0-1.2c0-0.2,0-0.4-0.1-0.6c0-0.1,0-0.3-0.1-0.3l0.1-0.3c0-0.1,0.9-0.1,1.2-0.1c0.5,0,0.9,0,1.4,0.1c1,0,1.8,0,2.8-0.1
	c2.1-0.3,3-1.2,3.5-1.5C35.1,26.3,36,24,36,24c0.3-0.7,0.3-2,1-2.5c0.8-0.7,2.1-0.6,3-1c0.5-0.2,0.9-0.4,1.5-0.3
	c0.4,0.1,1.1,0.6,1.3-0.1c-0.1-0.1-0.2-0.2-0.3-0.3c0.8-0.1,0-1.8-0.3-2.2c-0.5-0.5-1.2-0.8-2-1c-1-0.3-1.9-0.6-2.8-0.4
	c-1.6,0.3-1.5-0.6-2.4-0.6c-1.1,0-3.1,0.1-3.5,1.2c-0.2,0.5-0.3,0.5-0.6,0.9c-0.2,0.3,0,0.6-0.1,1c-0.1,0.4-0.3,1.8-0.5,2.3
	c-0.3,0.8-0.7,1.8-1.4,1.8c-1,0.1-1.8,0.2-2.6-0.1c-0.5-0.2-1.3-0.5-1.7-0.6c-1.9-0.8-2.2-1.6-2.2-1.6c-0.2-0.3-0.7-0.9-0.9-1.6
	c-0.2-0.8-0.6-1.4-0.7-1.8c-0.2-0.4-0.5-1.1-0.8-1.8c-0.4-0.9-0.9-1.6-1.3-1.9c-0.6-0.5-1.1-1.3-2.3-1.1c-0.2,0-1,0.1-1.6,0.6
	c-0.4,0.3-0.5,1-0.9,1.6c-0.2,0.3-0.6,1.3-0.9,2.1c-0.2,0.6-0.3,1-0.6,1.2c-0.2,0.2-0.4,0.4-0.7,0.3c-0.2-0.1-0.4-0.2-0.6-0.3
	c-0.3-0.2-0.9-1.3-1.3-2c-0.3-0.7-1-1.7-1.4-2.2c-0.6-0.8-0.9-1-1.8-1c-1.8,0-2,1-2.8,2.5c-0.4,0.7-0.5,1.7-1.2,2.5
	C2.3,18,1,19.9,0.1,20.2v0l0,0V34l0,0v-0.1c0.1-0.2,0.1-0.4,0.2-0.5c0.4-0.7,1.2-1.4,1.6-2.2c0.2-0.4,0.5-0.8,0.7-1.3
	C2.7,29.6,2.8,29,3,28.7c0.2-0.4,0.6-0.5,1-0.6C4.7,28,5.2,29,6,29.4c0.3,0.2,1.9,0.7,2.4,0.8c0.8,0.2,1.6,0.3,2.4,0.5
	c0.4,0.1,0.8,0.1,1.3,0.2c0.4,0,1.9,0.1,1.9,0.2c-0.7,0.4-1.2,1.4-1.5,2.2c-0.3,0.8-0.5,1.7-0.8,2.4c-0.4,0.8-1.2,1.2-1.1,2.2
	c0,0.4,0.1,0.8,0,1.2c-0.1,0.5-0.3,0.8-0.4,1.3c-0.2,0.6-0.4,2.5-0.6,3l1.6-0.2l0,0c0.2-0.4,0.3-2.2,0.4-2.4
	c0.3-0.9,0.7-1.6,1.3-2.3c0.6-0.7,0.6-1.5,0.9-2.3c0.4-0.9,0.9-1.5,1.4-2.3c0.9-1.4,1.5-3.3,3.3-3.7c0.2,0,1.3,0.8,1.8,1.3
	c0.6,0.6,1.2,1.2,1.6,2c0.7,1.5,1.4,3.7,1.6,4.8c0.1,0.7,0.2,0.7,0.7,1.3c0.2,0.2,0.6,1,0.8,1.3c0.1,0.3,0.4,1,0.5,1.4
	c0.1,0.2,0.4,0.9,0.6,1.5l1.5,0c0,0,0,0,0,0c0,0,0,0,0,0c0,0,0,0,0,0C27,42.1,26.5,40.4,26.3,38.7L26.3,38.7z"/>
<path class="st1" d="M25.3,29.8L25.3,29.8C25.3,29.8,25.3,29.8,25.3,29.8z"/>
<linearGradient id="SVGID_1_" gradientUnits="userSpaceOnUse" x1="25.3356" y1="16.218" x2="25.3356" y2="16.1626" gradientTransform="matrix(1 0 0 -1 0 46)">
	<stop  offset="0" style="stop-color:#F29100"/>
	<stop  offset="1" style="stop-color:#EC670F"/>
</linearGradient>
<path class="st2" d="M25.3,29.8L25.3,29.8C25.3,29.8,25.3,29.8,25.3,29.8z"/>
<linearGradient id="SVGID_00000095312580722786645380000001324625003981611139_" gradientUnits="userSpaceOnUse" x1="18.5871" y1="15.8701" x2="18.5871" y2="2.0746" gradientTransform="matrix(1 0 0 -1 0 46)">
	<stop  offset="0" style="stop-color:#F29100"/>
	<stop  offset="1" style="stop-color:#EC670F"/>
</linearGradient>
<path style="fill:url(#SVGID_00000095312580722786645380000001324625003981611139_);" d="M25.5,42.2c-0.2-0.4-0.4-1.1-0.5-1.4
	c-0.1-0.3-0.6-1.1-0.8-1.3c-0.5-0.5-0.6-0.6-0.7-1.3c-0.2-1.2-0.9-3.4-1.6-4.8c-0.4-0.8-1-1.4-1.6-2c-0.5-0.5-1.6-1.3-1.8-1.3
	c-1.9,0.4-2.4,2.2-3.3,3.7c-0.5,0.8-1,1.5-1.4,2.3c-0.4,0.8-0.3,1.7-0.9,2.3c-0.6,0.7-1,1.4-1.3,2.3c-0.1,0.2-0.2,2-0.4,2.4l0,0
	l2.8-0.2c2.6,0.2,1.8,1.2,5.9,1l6.4-0.2C25.9,43.1,25.6,42.4,25.5,42.2L25.5,42.2z"/>
<linearGradient id="SVGID_00000157293995348393874100000005864532982483007931_" gradientUnits="userSpaceOnUse" x1="25.2919" y1="45.9795" x2="25.2919" y2="2.0479" gradientTransform="matrix(1 0 0 -1 0 46)">
	<stop  offset="0" style="stop-color:#F29100"/>
	<stop  offset="1" style="stop-color:#EC670F"/>
</linearGradient>
<path style="fill:url(#SVGID_00000157293995348393874100000005864532982483007931_);" d="M44.1,0H6.4C2.9,0,0.1,2.9,0.1,6.4v13.9
	C1,19.9,2.3,18,2.7,17.5c0.7-0.8,0.8-1.9,1.2-2.5c0.8-1.5,1-2.5,2.8-2.5c0.9,0,1.2,0.2,1.8,1C8.9,14,9.6,15,9.9,15.6
	c0.4,0.8,1,1.8,1.3,2c0.2,0.2,0.4,0.3,0.6,0.3c0.3,0.1,0.5-0.1,0.7-0.3c0.3-0.2,0.4-0.6,0.6-1.2c0.3-0.8,0.7-1.8,0.9-2.1
	c0.4-0.6,0.5-1.3,0.9-1.6c0.6-0.5,1.3-0.5,1.6-0.6c1.2-0.2,1.7,0.6,2.3,1.1c0.4,0.3,0.9,1,1.3,1.9c0.3,0.7,0.7,1.4,0.8,1.8
	c0.1,0.4,0.5,1,0.7,1.8c0.2,0.7,0.7,1.2,0.9,1.6c0,0,0.3,0.9,2.2,1.6c0.4,0.2,1.2,0.4,1.7,0.6c0.8,0.3,1.6,0.3,2.6,0.1
	c0.7,0,1.1-1,1.4-1.8c0.2-0.5,0.4-1.9,0.5-2.3c0.1-0.4-0.2-0.7,0.1-1c0.3-0.4,0.4-0.4,0.6-0.9c0.3-1.1,2.4-1.2,3.5-1.2
	c0.9,0,0.8,0.9,2.4,0.6c0.9-0.2,1.8,0.1,2.8,0.4c0.8,0.2,1.6,0.5,2,1c0.3,0.3,1,2.1,0.3,2.2c0.1,0.1,0.1,0.2,0.3,0.3
	c-0.2,0.7-0.9,0.2-1.3,0.1c-0.5-0.1-0.9,0-1.5,0.3c-0.9,0.4-2.3,0.4-3,1c-0.7,0.6-0.7,1.8-1,2.5c0,0-0.9,2.3-2.8,3.6
	c-0.5,0.4-1.4,1.2-3.5,1.5c-0.9,0.1-1.8,0.2-2.8,0.1c-0.5,0-0.9,0-1.4-0.1c-0.3,0-1.2,0-1.2,0.1l-0.1,0.3c0,0.1,0,0.3,0.1,0.3
	c0,0.2,0,0.4,0.1,0.6c0,0.4,0,0.8,0,1.2c0,0.8,0.3,1.6,0.4,2.4c0,0.9,0.5,1.9,0.9,2.7c0.2,0.3,0.4,0.3,0.5,0.7
	c0.1,0.4,0,0.8,0.1,1.3c0.2,1.7,0.7,3.4,1.5,5c0,0,0,0,0,0c0.9-0.2,1.9-0.5,3.1-0.7c2.2-0.3,5.3-0.2,7.3-0.3c5-0.5,7.8,2.1,12.3,1
	V6.4C50.5,2.9,47.7,0,44.1,0z M25.3,29.8C25.3,29.8,25.3,29.8,25.3,29.8L25.3,29.8z"/>
<linearGradient id="SVGID_00000068667360278913366410000013664633033785590662_" gradientUnits="userSpaceOnUse" x1="7.0456" y1="17.9248" x2="7.0456" y2="2.3512" gradientTransform="matrix(1 0 0 -1 0 46)">
	<stop  offset="0" style="stop-color:#F29100"/>
	<stop  offset="1" style="stop-color:#EC670F"/>
</linearGradient>
<path style="fill:url(#SVGID_00000068667360278913366410000013664633033785590662_);" d="M11.7,35.7c0.4-0.8,0.6-1.6,0.8-2.4
	c0.3-0.8,0.7-1.8,1.5-2.2c-0.1-0.1-1.6-0.2-1.9-0.2c-0.4,0-0.8-0.1-1.3-0.2c-0.8-0.2-1.7-0.3-2.4-0.5c-0.5-0.1-2-0.7-2.4-0.8
	C5.2,29,4.7,28,4,28.1c-0.4,0.1-0.8,0.2-1,0.6C2.8,29,2.7,29.6,2.6,30c-0.2,0.4-0.4,0.9-0.7,1.3c-0.5,0.8-1.3,1.5-1.6,2.2
	c-0.1,0.2-0.1,0.3-0.2,0.5v8.6c0.4,0.1,0.8,0.2,1.3,0.3c3.5,0.9,4.4,1,7.9,0.6l0.3,0v0c0.3-0.6,0.5-2.4,0.6-3
	c0.1-0.4,0.3-0.8,0.4-1.3c0.1-0.4,0-0.8,0-1.2C10.5,36.9,11.3,36.5,11.7,35.7L11.7,35.7z"/>
<path class="st1" d="M66.6,38.3c-1.7,0-3.2-0.3-4.6-0.9c-1.4-0.6-2.6-1.5-3.6-2.6c-1-1.1-1.8-2.5-2.3-4.1c-0.5-1.6-0.8-3.4-0.8-5.5
	c0-2,0.3-3.8,0.8-5.4c0.5-1.6,1.3-2.9,2.3-4c1-1.1,2.2-1.9,3.6-2.5c1.4-0.6,2.9-0.9,4.6-0.9c1.7,0,3.2,0.3,4.6,0.9
	c1.4,0.6,2.6,1.4,3.6,2.5c1,1.1,1.8,2.4,2.3,4c0.5,1.6,0.8,3.4,0.8,5.4c0,2-0.3,3.8-0.8,5.5c-0.5,1.6-1.3,3-2.3,4.1
	c-1,1.1-2.2,2-3.6,2.6C69.8,38,68.3,38.3,66.6,38.3z M66.6,33.5c1.7,0,3-0.7,4-2.2c1-1.5,1.5-3.4,1.5-6c0-2.5-0.5-4.4-1.5-5.8
	c-1-1.4-2.3-2.1-4-2.1c-1.7,0-3,0.7-4,2.1c-1,1.4-1.5,3.3-1.5,5.8c0,2.5,0.5,4.5,1.5,6C63.5,32.8,64.9,33.5,66.6,33.5z M79.8,25.6
	c0-2.1,0.3-3.9,1-5.5c0.6-1.6,1.5-3,2.6-4.1c1.1-1.1,2.4-2,3.8-2.6c1.4-0.6,3-0.9,4.6-0.9c1.5,0,3,0.3,4.2,1
	c1.3,0.6,2.3,1.4,3.1,2.3L96,19.3c-0.6-0.6-1.3-1-1.9-1.4c-0.6-0.3-1.4-0.5-2.3-0.5c-0.9,0-1.7,0.2-2.4,0.6c-0.7,0.4-1.4,0.9-2,1.6
	c-0.6,0.7-1,1.5-1.3,2.5c-0.3,1-0.5,2.1-0.5,3.4c0,2.6,0.5,4.6,1.6,6c1.1,1.4,2.6,2.1,4.4,2.1c1,0,1.9-0.2,2.7-0.6
	c0.8-0.4,1.4-0.9,2.1-1.6l3.1,3.4c-1,1.2-2.2,2.1-3.6,2.7c-1.3,0.6-2.8,0.9-4.3,0.9c-1.6,0-3.1-0.3-4.5-0.8
	c-1.4-0.5-2.7-1.4-3.7-2.4s-1.9-2.4-2.5-4C80.1,29.5,79.8,27.7,79.8,25.6z M101.3,32.6c0-2,0.8-3.5,2.5-4.6c1.7-1.1,4.4-1.9,8.1-2.2
	c-0.1-0.8-0.3-1.5-0.8-2c-0.5-0.5-1.2-0.7-2.2-0.7c-0.8,0-1.6,0.2-2.4,0.5c-0.8,0.3-1.7,0.7-2.6,1.3l-2-3.7c1.2-0.7,2.5-1.3,3.8-1.8
	c1.3-0.5,2.8-0.7,4.2-0.7c2.4,0,4.3,0.7,5.6,2.1c1.3,1.4,1.9,3.5,1.9,6.5v10.8H113l-0.4-1.9h-0.1c-0.8,0.7-1.7,1.3-2.6,1.7
	c-0.9,0.4-1.9,0.7-3,0.7c-0.9,0-1.6-0.1-2.3-0.4c-0.7-0.3-1.3-0.7-1.8-1.2c-0.5-0.5-0.9-1.1-1.1-1.8
	C101.4,34.2,101.3,33.4,101.3,32.6L101.3,32.6z M106.6,32.2c0,0.6,0.2,1.1,0.6,1.4c0.4,0.3,0.9,0.4,1.6,0.4c0.7,0,1.2-0.1,1.7-0.4
	c0.5-0.3,0.9-0.7,1.4-1.2v-3.3c-2,0.3-3.4,0.7-4.2,1.2C107,30.8,106.6,31.5,106.6,32.2L106.6,32.2z M120.8,19h4.6l0.4,2.4h0.2
	c0.8-0.8,1.6-1.5,2.5-2c0.9-0.6,2-0.9,3.2-0.9c1.3,0,2.4,0.3,3.3,0.8c0.8,0.5,1.5,1.3,2,2.3c0.8-0.9,1.7-1.6,2.6-2.2
	c0.9-0.6,2-0.9,3.3-0.9c2,0,3.5,0.7,4.5,2c1,1.4,1.4,3.2,1.4,5.6v11.7h-5.6v-11c0-1.4-0.2-2.3-0.6-2.8c-0.4-0.5-1-0.8-1.8-0.8
	c-0.9,0-2,0.6-3.2,1.8v12.8h-5.6v-11c0-1.4-0.2-2.3-0.6-2.8c-0.4-0.5-1-0.8-1.8-0.8c-1,0-2,0.6-3.2,1.8v12.8h-5.6V19z M152,11.2h5.6
	v21.1c0,0.6,0.1,1,0.3,1.2c0.2,0.2,0.4,0.3,0.7,0.3h0.3c0.1,0,0.2,0,0.4-0.1l0.7,4.2c-0.3,0.1-0.7,0.2-1.2,0.3
	c-0.5,0.1-1,0.1-1.7,0.1c-1,0-1.8-0.2-2.4-0.5c-0.7-0.3-1.2-0.7-1.6-1.3c-0.4-0.5-0.7-1.2-0.9-2C152,33.8,152,33,152,32V11.2z"/>
</svg>
