<svg width="34" height="45" viewBox="0 0 34 45" fill="none" xmlns="http://www.w3.org/2000/svg">
<g clip-path="url(#clip0_27:261)">
<path d="M21.6022 44.6069C18.4075 44.6069 16.0806 43.8412 14.6188 42.3098C13.1584 40.7791 12.4275 39.1282 12.4275 37.3591C12.4275 36.7122 12.5546 36.168 12.8094 35.7258C13.0581 35.2894 13.4191 34.9278 13.8549 34.6788C14.2965 34.4236 14.84 34.2963 15.4859 34.2963C16.1319 34.2963 16.6746 34.4236 17.117 34.6788C17.5586 34.934 17.9069 35.2835 18.1617 35.7258C18.4166 36.168 18.5437 36.7122 18.5437 37.3591C18.5437 38.1417 18.3569 38.7794 17.9834 39.273C17.6092 39.7666 17.1675 40.0894 16.6578 40.2433C17.1001 40.8551 17.7966 41.2889 18.748 41.5441C19.6994 41.8169 20.6508 41.9526 21.6022 41.9526C22.9271 41.9526 24.1249 41.5955 25.1957 40.8811C26.2657 40.166 27.0563 39.1113 27.566 37.7163C28.0758 36.3213 28.3307 34.7386 28.3307 32.9688C28.3307 31.0465 28.0498 29.404 27.4895 28.0434C26.9454 26.6653 26.1386 25.6444 25.0679 24.9806C24.0302 24.3267 22.8282 23.9816 21.6022 23.9857C20.7863 23.9857 19.7675 24.326 18.5437 25.0066L16.3011 26.1295V25.0066L26.3935 11.5312H12.4275V25.5164C12.4275 26.6737 12.6823 27.6265 13.1921 28.3753C13.7018 29.1241 14.4833 29.4982 15.5372 29.4982C16.3517 29.4982 17.1338 29.2261 17.8816 28.6812C18.6342 28.1316 19.2888 27.4589 19.8181 26.6913C19.8862 26.5373 19.9711 26.4269 20.0729 26.3587C20.1645 26.2778 20.2822 26.2326 20.4043 26.2315C20.5911 26.2315 20.8116 26.325 21.0672 26.5127C21.3052 26.7841 21.4238 27.0991 21.4238 27.4563C21.3946 27.6969 21.3519 27.9356 21.296 28.1714C20.7189 29.4644 19.9199 30.4509 18.9004 31.1315C17.9079 31.8039 16.7354 32.1598 15.5372 32.1525C12.5124 32.1525 10.4222 31.5569 9.26719 30.3665C8.11219 29.1747 7.53434 27.5583 7.53434 25.5171V11.5312H0.397919V8.92756H7.53434V3.00725L5.9033 1.37248V0.0463867H10.6434L12.4268 0.964668V8.92756L30.8787 8.87693L32.714 10.7142L21.3986 22.0458C22.0836 21.7723 22.8048 21.6004 23.5393 21.5353C24.7624 21.5353 26.1386 21.9269 27.6679 22.7095C29.2139 23.4752 30.4033 24.5306 31.2354 25.8736C32.0681 27.2011 32.6031 28.4772 32.8411 29.7021C33.096 30.9276 33.2238 32.0161 33.2238 32.9688C33.2238 35.1471 32.7646 37.1714 31.8476 39.0438C30.9299 40.9148 29.5369 42.3098 27.6679 43.2288C25.7988 44.1478 23.7767 44.6069 21.6022 44.6069Z" fill="#2C7DF7"/>
</g>
<defs>
<clipPath id="clip0_27:261">
<rect width="33" height="45" fill="white" transform="translate(0.36142)"/>
</clipPath>
</defs>
</svg>
