<?xml version="1.0" encoding="UTF-8" standalone="no"?><svg version="1.1" id="svg2" xml:space="preserve" width="780" height="342" viewBox="0 0 780 342" sodipodi:docname="UdS-Logo-mod-3.svg" inkscape:version="1.3 (0e150ed6c4, 2023-07-21)" xmlns:inkscape="http://www.inkscape.org/namespaces/inkscape" xmlns:sodipodi="http://sodipodi.sourceforge.net/DTD/sodipodi-0.dtd" xmlns="http://www.w3.org/2000/svg" xmlns:svg="http://www.w3.org/2000/svg"><defs id="defs6" /><sodipodi:namedview id="namedview4" pagecolor="#ffffff" bordercolor="#666666" borderopacity="1.0" inkscape:pageshadow="2" inkscape:pageopacity="0.0" inkscape:pagecheckerboard="0" inkscape:showpageshadow="2" inkscape:deskcolor="#d1d1d1" inkscape:zoom="1.8344059" inkscape:cx="358.42667" inkscape:cy="148.54945" inkscape:window-width="1920" inkscape:window-height="1012" inkscape:window-x="1920" inkscape:window-y="0" inkscape:window-maximized="1" inkscape:current-layer="g8" /><g id="g8" inkscape:groupmode="layer" inkscape:label="ink_ext_XXXXXX" transform="matrix(1.3333333,0,0,-1.3333333,0,297.42667)"><g id="g1" transform="translate(23.656203,-16.519464)"><g id="g10" transform="scale(0.1)"><path d="m 2548.9,1424.4 c -65.23,0 -117.08,44.32 -117.08,111.96 v 209.52 h 62.13 V 1538.6 c 0,-36.73 21.42,-58.69 54.95,-58.69 33.5,0 55.42,21.96 55.42,58.69 v 207.28 h 61.64 v -209.52 c 0,-67.64 -51.83,-111.96 -117.06,-111.96" style="fill:#094270;fill-opacity:1;fill-rule:nonzero;stroke:none" id="path12" /><path d="m 2941.23,1427.08 -126.01,195.66 v -195.66 h -62.14 v 318.81 h 55.44 l 125.97,-195.2 v 195.2 h 62.13 v -318.81 h -55.39" style="fill:#094270;fill-opacity:1;fill-rule:nonzero;stroke:none" id="path14" /><path d="m 3097.58,1745.87 h 62.13 v -318.79 h -62.13 v 318.79" style="fill:#094270;fill-opacity:1;fill-rule:nonzero;stroke:none" id="path16" /><path d="m 3367.5,1427.08 h -46.47 l -105,318.81 h 64.32 l 63.93,-207.76 63.91,207.76 h 64.78 L 3367.5,1427.08" style="fill:#094270;fill-opacity:1;fill-rule:nonzero;stroke:none" id="path18" /><path d="m 3524.8,1427.08 v 318.81 h 209.53 v -55.53 H 3586.9 v -74.76 h 125.56 v -55.54 H 3586.9 v -77.46 h 147.43 v -55.52 H 3524.8" style="fill:#094270;fill-opacity:1;fill-rule:nonzero;stroke:none" id="path20" /><path d="m 3933.65,1690.36 h -58.56 v -84.18 h 58.56 c 27.24,0 45.14,17.46 45.14,42.07 0,24.64 -17.9,42.11 -45.14,42.11 m 48.22,-263.28 -62.11,127.17 h -44.67 v -127.17 h -62.08 v 318.81 h 124.64 c 64.76,0 103.24,-44.3 103.24,-97.64 0,-44.74 -27.27,-72.48 -58.13,-83.7 l 71.09,-137.47 h -71.98" style="fill:#094270;fill-opacity:1;fill-rule:nonzero;stroke:none" id="path22" /><path d="m 4210.64,1424.4 c -48.24,0 -84.88,10.3 -116.13,42.08 l 40.2,40.31 c 20.13,-20.13 47.34,-26.88 76.87,-26.88 36.61,0 56.3,13.91 56.3,39.42 0,11.19 -3.16,20.58 -9.86,26.85 -6.24,5.84 -13.4,8.97 -28.13,11.18 l -38.45,5.37 c -27.22,4.06 -47.33,12.56 -61.69,26.48 -15.14,15.18 -22.76,35.8 -22.76,62.66 0,56.84 42.04,96.7 110.79,96.7 43.83,0 75.54,-10.73 102.76,-37.16 l -39.25,-38.95 c -20.14,19.25 -44.28,21.96 -65.29,21.96 -33.05,0 -49.16,-18.35 -49.16,-40.31 0,-8.04 2.74,-16.56 9.42,-22.82 6.26,-5.84 16.51,-10.79 29.48,-12.57 l 37.53,-5.38 c 29.02,-4.02 47.39,-12.08 60.77,-24.62 17,-16.11 24.57,-39.4 24.57,-67.59 0,-61.81 -51.35,-96.73 -117.97,-96.73" style="fill:#094270;fill-opacity:1;fill-rule:nonzero;stroke:none" id="path24" /><path d="m 4405.05,1745.87 h 62.11 v -318.79 h -62.11 v 318.79" style="fill:#094270;fill-opacity:1;fill-rule:nonzero;stroke:none" id="path26" /><path d="m 4680.74,1690.36 v -263.27 h -62.06 v 263.27 h -83.14 v 55.52 h 228.33 v -55.52 h -83.13" style="fill:#094270;fill-opacity:1;fill-rule:nonzero;stroke:none" id="path28" /><path d="m 4934.51,1833.66 h 49.64 v -56 h -49.64 z m -22.3,-181.79 -40.2,-115.98 h 79.05 z m -76.43,181.79 h 49.61 v -56 h -49.61 z m 150.59,-406.58 -18.74,56.44 H 4854.6 l -19.26,-56.44 h -64.79 l 115.76,318.81 h 48.66 l 116.19,-318.81 h -64.79" style="fill:#094270;fill-opacity:1;fill-rule:nonzero;stroke:none" id="path30" /><path d="m 5203.11,1690.36 v -263.27 h -62.14 v 263.27 h -83.06 v 55.52 h 228.3 v -55.52 h -83.1" style="fill:#094270;fill-opacity:1;fill-rule:nonzero;stroke:none" id="path32" /><path d="m 2581.98,1133.37 c -10.75,12.97 -25.02,19.72 -46.52,19.72 h -46.89 V 945.289 h 46.89 c 21.5,0 35.77,6.762 46.52,19.731 11.58,14.339 13.4,37.19 13.4,85.5 0,48.35 -1.82,68.48 -13.4,82.85 m 43.33,-213.151 c -21,-21.008 -50.93,-30.457 -84,-30.457 h -114.84 v 318.818 h 114.84 c 33.07,0 63,-9.38 84,-30.42 35.73,-35.85 32.15,-79.71 32.15,-127.64 0,-47.86 3.58,-94.469 -32.15,-130.301" style="fill:#094270;fill-opacity:1;fill-rule:nonzero;stroke:none" id="path34" /><path d="m 2735.24,889.762 v 318.818 h 209.54 v -55.5 h -147.43 v -74.79 h 125.56 v -55.52 h -125.56 v -77.481 h 147.43 v -55.527 h -209.54" style="fill:#094270;fill-opacity:1;fill-rule:nonzero;stroke:none" id="path36" /><path d="m 3111.03,887.102 c -48.27,0 -84.93,10.296 -116.2,42.089 l 40.2,40.309 c 20.12,-20.121 47.39,-26.859 76.9,-26.859 36.65,0 56.27,13.89 56.27,39.41 0,11.148 -3.14,20.569 -9.82,26.829 -6.28,5.85 -13.43,9 -28.17,11.22 l -38.39,5.34 c -27.3,4.04 -47.42,12.55 -61.68,26.45 -15.19,15.23 -22.82,35.83 -22.82,62.66 0,56.87 42.01,96.7 110.84,96.7 43.8,0 75.55,-10.72 102.78,-37.18 l -39.33,-38.9 c -20.1,19.23 -44.25,21.91 -65.23,21.91 -33.05,0 -49.16,-18.33 -49.16,-40.29 0,-8.03 2.67,-16.56 9.42,-22.86 6.22,-5.78 16.5,-10.7 29.49,-12.51 l 37.47,-5.37 c 29.06,-4.04 47.4,-12.08 60.79,-24.64 16.99,-16.12 24.54,-39.38 24.54,-67.609 0,-61.77 -51.36,-96.699 -117.9,-96.699" style="fill:#094270;fill-opacity:1;fill-rule:nonzero;stroke:none" id="path38" /><path d="m 2533.24,349.84 c -48.21,0 -84.89,10.238 -116.18,42.039 l 40.22,40.269 c 20.12,-20.078 47.38,-26.859 76.89,-26.859 36.61,0 56.3,13.922 56.3,39.41 0,11.192 -3.16,20.582 -9.88,26.903 -6.21,5.789 -13.4,8.886 -28.13,11.168 l -38.42,5.371 c -27.24,4.019 -47.33,12.519 -61.66,26.441 -15.21,15.238 -22.78,35.828 -22.78,62.688 0,56.82 42.01,96.699 110.78,96.699 43.83,0 75.53,-10.778 102.77,-37.16 l -39.29,-38.989 c -20.12,19.282 -44.23,21.981 -65.24,21.981 -33.09,0 -49.16,-18.379 -49.16,-40.321 0,-8.058 2.68,-16.589 9.39,-22.839 6.23,-5.832 16.51,-10.762 29.48,-12.532 l 37.54,-5.371 c 29.05,-4 47.34,-12.078 60.77,-24.648 16.96,-16.11 24.57,-39.328 24.57,-67.551 0,-61.809 -51.36,-96.699 -117.97,-96.699" style="fill:#094270;fill-opacity:1;fill-rule:nonzero;stroke:none" id="path40" /><path d="m 2834.41,577.27 -40.19,-116.008 h 79.07 z m 74.18,-224.801 -18.75,56.422 h -113.07 l -19.18,-56.422 h -64.83 l 115.76,318.812 h 48.69 l 116.15,-318.812 h -64.77" style="fill:#094270;fill-opacity:1;fill-rule:nonzero;stroke:none" id="path42" /><path d="m 3146.32,577.27 -40.2,-116.008 h 79.07 z m 74.15,-224.801 -18.77,56.422 h -113 l -19.25,-56.422 h -64.81 l 115.74,318.812 h 48.76 l 116.11,-318.812 h -64.78" style="fill:#094270;fill-opacity:1;fill-rule:nonzero;stroke:none" id="path44" /><path d="m 3463.09,615.75 h -58.54 v -84.172 h 58.54 c 27.24,0 45.13,17.461 45.13,42.051 0,24.652 -17.89,42.121 -45.13,42.121 m 48.28,-263.281 -62.11,127.179 h -44.71 V 352.469 h -62.12 v 318.82 h 124.7 c 64.8,0 103.2,-44.328 103.2,-97.66 0,-44.75 -27.26,-72.488 -58.06,-83.688 l 71.02,-137.472 h -71.92" style="fill:#094270;fill-opacity:1;fill-rule:nonzero;stroke:none" id="path46" /><path d="m 3652.56,352.469 v 318.82 h 62.11 v -263.32 h 144.3 v -55.5 h -206.41" style="fill:#094270;fill-opacity:1;fill-rule:nonzero;stroke:none" id="path48" /><path d="m 4034.16,577.27 -40.2,-116.008 h 79.08 z m 74.19,-224.801 -18.82,56.422 H 3976.5 l -19.21,-56.422 h -64.76 l 115.74,318.812 h 48.66 l 116.19,-318.812 h -64.77" style="fill:#094270;fill-opacity:1;fill-rule:nonzero;stroke:none" id="path50" /><path d="M 4418.44,352.469 4292.46,548.148 V 352.469 h -62.12 v 318.82 h 55.42 l 125.98,-195.238 v 195.238 h 62.12 v -318.82 h -55.42" style="fill:#094270;fill-opacity:1;fill-rule:nonzero;stroke:none" id="path52" /><path d="m 4730.33,596.09 c -10.7,12.941 -25.01,19.66 -46.43,19.66 h -46.97 V 407.988 h 46.97 c 21.42,0 35.73,6.703 46.43,19.723 11.63,14.301 13.44,37.16 13.44,85.5 0,48.348 -1.81,68.5 -13.44,82.879 m 43.38,-213.18 c -21.05,-21.031 -50.98,-30.441 -84.04,-30.441 h -114.85 v 318.82 h 114.85 c 33.06,0 62.99,-9.437 84.04,-30.437 35.7,-35.832 32.13,-79.723 32.13,-127.641 0,-47.93 3.57,-94.473 -32.13,-130.301" style="fill:#094270;fill-opacity:1;fill-rule:nonzero;stroke:none" id="path54" /><path d="m 4883.6,352.469 v 318.82 h 209.62 V 615.75 H 4945.7 v -74.789 h 125.56 V 485.422 H 4945.7 v -77.453 h 147.52 v -55.5 H 4883.6" style="fill:#094270;fill-opacity:1;fill-rule:nonzero;stroke:none" id="path56" /><path d="m 5258.96,349.84 c -48.24,0 -84.94,10.238 -116.17,42.039 l 40.23,40.269 c 20.12,-20.078 47.36,-26.859 76.83,-26.859 36.61,0 56.33,13.922 56.33,39.41 0,11.192 -3.16,20.582 -9.88,26.903 -6.25,5.789 -13.38,8.886 -28.11,11.168 l -38.44,5.371 c -27.27,4.019 -47.39,12.519 -61.66,26.441 -15.19,15.238 -22.78,35.828 -22.78,62.688 0,56.82 41.97,96.699 110.78,96.699 43.78,0 75.54,-10.778 102.82,-37.16 l -39.38,-38.989 c -20.1,19.282 -44.21,21.981 -65.23,21.981 -33.06,0 -49.12,-18.379 -49.12,-40.321 0,-8.058 2.69,-16.589 9.37,-22.839 6.26,-5.832 16.57,-10.762 29.5,-12.532 l 37.51,-5.371 c 29.08,-4 47.42,-12.078 60.78,-24.648 16.99,-16.11 24.54,-39.328 24.54,-67.551 0,-61.809 -51.33,-96.699 -117.92,-96.699" style="fill:#094270;fill-opacity:1;fill-rule:nonzero;stroke:none" id="path58" /><path d="m 1792.2,597.422 c 0,-35.172 -27.2,-63.883 -60.6,-63.883 -33.33,0 -60.47,28.711 -60.47,63.883 V 1672.23 c 0,13.05 10.37,23.69 23.13,23.69 12.82,0 23.18,-10.64 23.18,-23.69 V 830.602 c 0,-6.782 3.59,-12.672 8.68,-15.192 1.68,-0.851 3.54,-1.301 5.48,-1.301 7.89,0 14.23,7.45 14.23,16.493 v 825.138 c 0,13.07 10.39,23.71 23.17,23.71 h 0.02 c 12.77,0 23.18,-10.64 23.18,-23.71 z m -204.33,93.066 c 0,-35.226 -27.14,-63.84 -60.54,-63.84 -33.39,0 -60.55,28.614 -60.55,63.84 v 777.882 c 0,13.09 10.36,23.71 23.21,23.71 12.79,0 23.14,-10.62 23.14,-23.71 V 817.219 c 0,-9.028 6.37,-16.438 14.2,-16.438 7.83,0 14.19,7.41 14.19,16.438 v 752.471 c 0,13.04 10.35,23.66 23.21,23.66 12.78,0 23.14,-10.62 23.14,-23.66 z m -244.2,1110.292 c 0,-99.82 -79.13,-180.78 -176.78,-180.78 -73.18,0 -135.97,45.54 -162.79,110.43 -8.944,21.63 -13.885,45.4 -13.885,70.35 0,18.72 2.781,36.79 7.945,53.75 22.37,73.6 89.46,127.06 168.73,127.06 97.65,0 176.78,-80.97 176.78,-180.81 m -374.315,-154.66 60.435,-45.55 -60.435,-136.72 -59.277,136.72 z m -19.761,154.66 c 0,-99.82 -79.059,-180.78 -176.688,-180.78 -97.57,0 -176.672,80.96 -176.672,180.78 0,99.84 79.102,180.81 176.672,180.81 48.282,0 91.942,-19.84 123.832,-51.92 0.356,-0.36 0.766,-0.68 1.137,-1.04 31.965,-32.73 51.719,-77.93 51.719,-127.85 M 595.367,1340.91 c 0,13.08 10.36,23.69 23.129,23.69 3.215,0 6.27,-0.66 9.043,-1.86 8.297,-3.61 14.125,-12.02 14.125,-21.83 v -153.53 c 0,-6.79 3.606,-12.65 8.703,-15.16 1.688,-0.84 3.571,-1.29 5.531,-1.29 7.829,0 14.168,7.38 14.168,16.45 v 153.53 c 0,13.08 10.395,23.69 23.172,23.69 3.93,0 7.567,-1.1 10.821,-2.86 7.32,-3.98 12.359,-11.75 12.359,-20.83 v -277.62 c 0,-35.24 -27.18,-63.86 -60.52,-63.86 -8.347,0 -16.324,1.82 -23.55,5.03 -0.43,0.2 -0.809,0.49 -1.239,0.71 -4.199,2.01 -8.062,4.55 -11.714,7.47 -14.489,11.72 -24.028,29.95 -24.028,50.65 z m 0,-439.39 c 0,13.019 10.36,23.66 23.129,23.66 3.215,0 6.27,-0.629 9.043,-1.84 8.297,-3.61 14.125,-12.051 14.125,-21.82 v -153.5 c 0,-9.079 6.41,-16.481 14.234,-16.481 0.887,0 1.661,0.441 2.52,0.621 1,0.199 2.062,0.262 3,0.711 5.082,2.481 8.648,8.328 8.648,15.149 v 153.5 c 0,13.019 10.395,23.66 23.172,23.66 4.961,0 9.52,-1.621 13.289,-4.328 5.969,-4.274 9.891,-11.332 9.891,-19.332 V 623.91 c 0,-26.422 -15.281,-49.129 -37,-58.82 -7.23,-3.281 -15.199,-5.051 -23.52,-5.051 -33.394,0 -60.531,28.641 -60.531,63.871 z m 204.289,375.97 c 0,13.06 10.36,23.69 23.211,23.69 12.793,0 23.141,-10.63 23.141,-23.69 V 1124 c 0,-6.83 3.586,-12.69 8.699,-15.17 1.68,-0.85 3.539,-1.34 5.496,-1.34 7.832,0 14.192,7.4 14.192,16.51 v 153.49 c 0,13.06 10.351,23.69 23.21,23.69 12.79,0 23.122,-10.63 23.122,-23.69 V 999.879 c 0,-35.199 -27.129,-63.891 -60.524,-63.891 -23.586,0 -43.848,14.461 -53.855,35.321 -1.145,2.371 -2.137,4.82 -3.004,7.332 -2.235,6.711 -3.688,13.738 -3.688,21.238 z m 0,-439.412 c 0,13.113 10.36,23.75 23.211,23.75 3.188,0 6.238,-0.668 9.008,-1.879 8.293,-3.597 14.133,-12.051 14.133,-21.871 V 684.59 c 0,-9.102 6.398,-16.481 14.195,-16.481 7.832,0 14.192,7.379 14.192,16.481 v 153.488 c 0,13.113 10.351,23.75 23.21,23.75 3.18,0 6.243,-0.668 9,-1.879 8.321,-3.597 14.122,-12.051 14.122,-21.871 v -277.59 c 0,-35.226 -27.129,-63.867 -60.524,-63.867 -33.379,0 -60.547,28.641 -60.547,63.867 z m 215.034,439.412 c 0,13.06 10.35,23.69 23.16,23.69 12.84,0 23.19,-10.63 23.19,-23.69 V 1124 c 0,-4.56 1.58,-8.68 4.15,-11.65 2.57,-3.01 6.11,-4.86 10.03,-4.86 7.85,0 14.2,7.4 14.2,16.51 v 153.49 c 0,6.53 2.6,12.45 6.79,16.73 4.2,4.3 9.97,6.96 16.4,6.96 12.75,0 23.15,-10.63 23.15,-23.69 V 999.879 c 0,-35.199 -27.18,-63.891 -60.54,-63.891 -10.69,0 -20.59,3.203 -29.31,8.34 -1.77,1.043 -3.56,2.012 -5.24,3.231 -15.67,11.562 -25.98,30.679 -25.98,52.32 z m 0,-439.412 c 0,13.113 10.35,23.75 23.16,23.75 3.19,0 6.25,-0.668 9.03,-1.879 8.33,-3.597 14.16,-12.051 14.16,-21.871 V 684.59 c 0,-9.102 6.34,-16.481 14.18,-16.481 1.97,0 3.85,0.45 5.53,1.301 5.11,2.481 8.67,8.328 8.67,15.18 v 153.488 c 0,13.113 10.35,23.75 23.19,23.75 4.52,0 8.72,-1.398 12.31,-3.707 1.19,-0.762 2.28,-1.66 3.33,-2.652 0.23,-0.188 0.5,-0.379 0.71,-0.59 4.2,-4.309 6.8,-10.238 6.8,-16.801 v -277.59 c 0,-35.226 -27.18,-63.867 -60.54,-63.867 -33.4,0 -60.53,28.641 -60.53,63.867 z m 204.36,502.832 c 0,13.08 10.36,23.69 23.14,23.69 3.18,0 6.24,-0.66 9.01,-1.86 8.29,-3.61 14.12,-12.02 14.12,-21.83 v -153.53 c 0,-6.79 3.62,-12.65 8.7,-15.16 1.71,-0.84 3.55,-1.29 5.5,-1.29 7.84,0 14.19,7.38 14.19,16.45 v 153.53 c 0,13.08 10.39,23.69 23.21,23.69 3.2,0 6.24,-0.66 9.02,-1.86 8.29,-3.61 14.11,-12.02 14.11,-21.83 v -277.62 c 0,-35.24 -27.13,-63.86 -60.53,-63.86 -8.33,0 -16.27,1.82 -23.53,5.03 -2.46,1.11 -4.73,2.6 -6.99,4.04 -1.07,0.68 -2.24,1.12 -3.26,1.85 -16.08,11.49 -26.69,30.95 -26.69,52.94 z m 0,-439.39 c 0,13.019 10.36,23.66 23.14,23.66 3.18,0 6.24,-0.629 9.01,-1.84 8.29,-3.61 14.12,-12.051 14.12,-21.82 v -153.5 c 0,-9.079 6.44,-16.481 14.2,-16.481 1.34,0 2.56,0.52 3.79,0.922 0.58,0.168 1.19,0.16 1.73,0.41 5.11,2.481 8.67,8.328 8.67,15.149 v 153.5 c 0,13.019 10.39,23.66 23.21,23.66 3.2,0 6.24,-0.629 9.02,-1.84 8.29,-3.61 14.11,-12.051 14.11,-21.82 V 623.91 c 0,-26.422 -15.26,-49.129 -36.99,-58.82 -7.23,-3.281 -15.2,-5.051 -23.54,-5.051 -33.32,0 -60.47,28.641 -60.47,63.871 z M 477.988,690.34 c 0,-35.231 -27.144,-63.86 -60.504,-63.86 -33.406,0 -60.597,28.629 -60.597,63.86 v 879.22 c 0,13.04 10.441,23.66 23.23,23.66 5.078,0 9.723,-1.73 13.531,-4.56 5.809,-4.32 9.618,-11.22 9.618,-19.1 V 817.121 c 0,-9.121 6.308,-16.5 14.218,-16.5 7.793,0 14.161,7.379 14.161,16.5 v 651.149 c 0,13.03 10.351,23.62 23.203,23.62 3.179,0 6.242,-0.65 9.007,-1.85 8.313,-3.6 14.133,-12 14.133,-21.77 z M 273.656,597.27 c 0,-4.399 -0.418,-8.661 -1.238,-12.84 -1.07,-5.602 -3.063,-10.758 -5.43,-15.719 -2.148,-4.449 -4.742,-8.563 -7.758,-12.34 -11.125,-13.891 -27.531,-22.93 -46.085,-22.93 -33.399,0 -60.528,28.68 -60.528,63.829 v 1058.34 c 0,13.09 10.344,23.69 23.121,23.69 4.09,0 7.871,-1.17 11.2,-3.04 0.832,-0.48 1.64,-0.95 2.398,-1.52 5.809,-4.29 9.617,-11.22 9.617,-19.13 V 830.449 c 0,-9.051 6.363,-16.437 14.192,-16.437 7.812,0 14.195,7.386 14.195,16.437 v 841.621 c 0,13.06 10.348,23.68 23.14,23.68 9.579,0 17.825,-5.97 21.356,-14.47 1.184,-2.83 1.82,-5.92 1.82,-9.21 z M 1945.56,342.789 V 1675.21 c 0,112.36 -87,175.34 -195.81,175.34 -136.29,0 -235.55,-99.04 -292.57,-197.04 l -58.44,577.17 h -217.25 c 0,0 -68.56,-98.45 -89.08,-128.02 H 844.047 c -20.477,29.73 -88.149,128.02 -88.149,128.02 H 533.379 l -46.422,-574.69 c -57.211,97.18 -156.039,194.56 -291.211,194.56 -108.7577,0 -195.74990625,-62.98 -195.74990625,-175.34 V 342.789 H 86.8945 c 162.2815,0 311.7735,78.473 393.1835,157.52 V 270.578 H 276.215 L 193.074,106.98 h 38.465 l 87.348,62.5 H 432.258 L 391.855,124.719 377.949,-3.89063 h 34.469 L 568.145,169.48 h 247.058 l 53.613,-62.5 h 34.52 L 861.309,270.578 H 658.965 l 109.203,121.57 h 406.982 l 109.19,-121.57 H 1082 L 1040,106.98 h 34.47 l 53.63,62.5 h 247.04 L 1530.82,-3.85938 h 34.5 l -13.91,128.66838 -40.38,44.671 h 113.4 l 87.4,-62.5 h 38.38 l -83.06,163.598 h -201.81 v 229.961 c 81.39,-79.141 230.91,-157.75 393.39,-157.75 h 86.83" style="fill:#094270;fill-opacity:1;fill-rule:nonzero;stroke:none" id="path60" /><path d="m 850.234,1799.63 c 0,-43.66 -34.582,-79.09 -77.32,-79.09 -42.672,0 -77.316,35.43 -77.316,79.09 0,43.66 34.644,79.1 77.316,79.1 42.738,0 77.32,-35.44 77.32,-79.1 m 56.778,0 c 0,75.77 -60,137.19 -134.098,137.19 -74.023,0 -134.101,-61.42 -134.101,-137.19 0,-75.78 60.078,-137.17 134.101,-137.17 74.098,0 134.098,61.39 134.098,137.17" style="fill:#094270;fill-opacity:1;fill-rule:nonzero;stroke:none" id="path62" /><path d="m 1243.5,1799.63 c 0,-43.66 -34.57,-79.09 -77.34,-79.09 -42.66,0 -77.31,35.43 -77.31,79.09 0,43.66 34.65,79.1 77.31,79.1 42.77,0 77.34,-35.44 77.34,-79.1 m 56.77,0 c 0,75.77 -60,137.19 -134.11,137.19 -74.01,0 -134.08,-61.42 -134.08,-137.19 0,-75.78 60.07,-137.17 134.08,-137.17 74.11,0 134.11,61.39 134.11,137.17" style="fill:#094270;fill-opacity:1;fill-rule:nonzero;stroke:none" id="path64" /></g></g></g></svg>
