<svg clip-rule="evenodd" fill-rule="evenodd" height="1527" image-rendering="optimizeQuality" shape-rendering="geometricPrecision" text-rendering="geometricPrecision" viewBox="-.01 0 434.33 265.35" width="2500" xmlns="http://www.w3.org/2000/svg"><path d="m293.97 77.83-30.78-51.16h8.49v-26.67h-51.24v26.67h8.48l-11.77 19.54-11.76-19.55h8.48v-26.66h-51.24v26.66h8.49l-30.78 51.17h-10.99v26.66h52.26v-26.66h-9.39l16.04-26.66 6.21 10.34h-5.96v26.67h57.29v-26.67h-5.96l6.21-10.34 16.04 26.66h-9.39v26.66h52.25v-26.66z" fill="#862334"/><path d="m268.22 3.46v19.83h-11.11l34.89 58.01h9.5v19.82h-45.42v-19.82h12.01l-22.07-36.71-12.27 20.39h8.59v19.82h-50.45v-19.82h8.59l-12.28-20.39-22.08 36.7h12.02v19.83h-45.42v-19.83h9.49l34.9-58h-11.1v-19.83h44.39v19.83h-11.1l17.8 29.59 17.81-29.59h-11.11v-19.83h44.4z" fill="#fbb93c"/><path d="m264.79 6.88v13h-13.73l39.01 64.83h8.01v12.99h-38.59v-12.99h14.65l-28.13-46.74-18.3 30.42h11.21v13h-43.62v-13h11.22l-18.31-30.42-28.12 46.74h14.64v12.99h-38.58v-12.99h8l39.01-64.83h-13.73v-13h37.56v13h-13.73l23.85 39.64 23.85-39.64h-13.73v-13zm-195.29 128.39v-1.4h18.15v1.4h-1.93c-2.02 0-3.58.84-4.67 2.54-.53.79-.79 2.61-.79 5.48v20.92c0 5.18-.51 9.19-1.53 12.05-1.03 2.86-3.05 5.31-6.05 7.35s-7.07 3.06-12.24 3.06c-5.62 0-9.89-.97-12.8-2.93-2.92-1.95-4.99-4.58-6.19-7.88-.82-2.26-1.22-6.49-1.22-12.71v-20.17c0-3.17-.44-5.24-1.31-6.23s-2.28-1.48-4.23-1.48h-1.93v-1.4h22.27v1.4h-1.97c-2.13 0-3.65.68-4.55 2.01-.64.91-.95 2.82-.95 5.7v22.49c0 2 .18 4.3.55 6.89.38 2.58 1.04 4.6 2 6.05.97 1.44 2.36 2.63 4.17 3.58 1.82.93 4.04 1.4 6.67 1.4 3.37 0 6.4-.74 9.06-2.21s4.48-3.36 5.45-5.65c.97-2.3 1.47-6.19 1.47-11.67v-20.9c0-3.22-.35-5.23-1.06-6.04-.99-1.12-2.45-1.67-4.4-1.67h-1.93zm101.13 90.61h-.53c-1.61 0-2.79.48-3.53 1.42-.49.63-.73 2.12-.73 4.49v25.65c0 2 .13 3.33.38 3.96.19.49.6.91 1.23 1.26.84.47 1.71.7 2.65.7h1.43v1.08h-16.98v-1.08h1.41c1.64 0 2.83-.48 3.58-1.42.47-.63.7-2.12.7-4.49v-25.65c0-2-.13-3.33-.38-3.97-.2-.49-.6-.91-1.21-1.26a5.51 5.51 0 0 0 -2.69-.7h-1.41v-1.08h26.53l24.28 29.76v-22.89c0-2.44-.28-3.96-.83-4.57-.73-.82-1.88-1.23-3.46-1.23h-1.39v-1.08h22.83l24.28 29.76v-22.89c0-2.44-.28-3.96-.83-4.57-.73-.82-1.88-1.23-3.46-1.23h-1.39v-1.08h13.93v1.08h-1.41c-1.7 0-2.9.51-3.62 1.52-.43.63-.65 2.05-.65 4.27v33.4h-1.06l-26.09-31.92v24.41c0 2.44.27 3.96.8 4.57.75.82 1.9 1.22 3.47 1.22h1.41v1.08h-13.93v-1.08h1.4c1.71 0 2.92-.51 3.64-1.52.43-.63.65-2.05.65-4.27v-27.56c-1.15-1.34-2.02-2.23-2.61-2.66-.6-.43-1.47-.83-2.61-1.21l-.03-.01-.02-.01-.02-.01h-.01l-.02-.01h-.01l-.02-.01h-.01l-.02-.01h-.16l-.02-.01h-.01l-.03-.01-.03-.01-.03-.01-.03-.01h-.03l-.03-.01h-.01l-.03-.01h-2.32l-.05.01h-.02l-.05.01h-.09l-.05.01h-.02l-.05.01h-.02l-.05.01h-.01l-.05.01h-.01l-.05.01h-.01l-.06.01h-.01l-.06.01h-.01l-.06.01h-.01l-.06.01h-.01l-.06.01-.06.01-.06.02-.06.02-.12.04h-.01l-.05.02h-.01l-.05.02h-.01l-.05.02h-.01l-.05.02h-.01l-.05.02-.01.01-.04.02-.01.01-.04.02-.01.01-.04.02-.01.01-.04.02-.02.01-.04.02-.02.01-.03.02-.02.01-.03.02-.02.01-.03.02-.02.01-.03.02-.02.01-.03.02-.02.01-.03.02-.02.01-.03.02-.02.01-.02.02-.02.02-.02.02-.02.02-.02.01-.03.02-.02.01-.03.02-.02.01-.03.02-.02.01-.03.02-.01.01-.03.02-.01.01-.03.03-.01.01-.03.03-.01.01-.03.03-.01.01-.03.03-.01.01-.03.03-.01.01-.03.03-.01.01-.03.03-.01.01-.03.04-.01.01-.03.04v.01l-.03.04-.03.04-.03.04-.03.04-.03.05c-.43.63-.65 2.05-.65 4.27v33.4h-1.06l-26.08-31.92v24.41c0 2.44.27 3.96.8 4.57.75.82 1.9 1.22 3.47 1.22h1.41v1.08h-13.93v-1.08h1.4c1.71 0 2.92-.51 3.64-1.52.43-.63.65-2.05.65-4.27v-27.56c-1.15-1.34-2.02-2.23-2.61-2.66-.6-.43-1.47-.83-2.61-1.21l-.03-.01-.03-.01-.02-.01-.02-.01h-.01l-.02-.01h-.01l-.02-.01h-.01l-.02-.01h-.01l-.02-.01h-.17l-.02-.01h-.01l-.02-.01h-.01l-.02-.01h-.08l-.03-.01-.03-.01h-.03l-.03-.01h-1.7zm-87.97-79.74h10.65l24.28 29.76v-22.89c0-2.44-.28-3.96-.83-4.57-.73-.82-1.88-1.23-3.46-1.23h-1.4v-1.08h13.93v1.08h-1.41c-1.71 0-2.9.51-3.62 1.52-.43.63-.65 2.05-.65 4.27v33.4h-1.06l-26.08-31.92v24.41c0 2.44.27 3.97.8 4.58.75.82 1.9 1.22 3.47 1.22h1.41v1.08h-13.93v-1.08h1.39c1.71 0 2.92-.51 3.64-1.52.43-.63.65-2.05.65-4.28v-27.56c-1.15-1.34-2.02-2.23-2.61-2.66-.6-.43-1.46-.83-2.61-1.21-.57-.17-1.42-.26-2.57-.26v-1.08zm-62.92 77.77c5.13 0 9.58 1.95 13.34 5.86 3.77 3.91 5.65 8.78 5.65 14.62 0 6.02-1.89 11.01-5.69 14.99-3.79 3.98-8.38 5.96-13.77 5.96-5.44 0-10.01-1.94-13.72-5.82s-5.56-8.89-5.56-15.04c0-6.29 2.14-11.42 6.42-15.39 3.72-3.45 8.16-5.17 13.33-5.17zm95.05 41.43-19.94-43.44v34.49c0 3.18.35 5.17 1.04 5.96.95 1.06 2.45 1.6 4.52 1.6h1.84v1.4h-18.15v-1.4h1.86c2.21 0 3.76-.66 4.7-1.99.56-.82.84-2.67.84-5.57v-33.72c0-2.28-.26-3.95-.77-4.96-.36-.74-1.03-1.35-1.99-1.86-.97-.49-2.52-.74-4.65-.74v-1.4h14.8l18.61 40.37 18.45-40.37h14.65v1.4h-1.8c-2.24 0-3.82.66-4.75 1.99-.56.82-.84 2.68-.84 5.57v33.72c0 3.18.36 5.17 1.08 5.96.95 1.06 2.45 1.6 4.52 1.6h1.8v1.4h-22.12v-1.4h1.86c2.23 0 3.79-.66 4.7-1.99.56-.82.84-2.67.84-5.57v-34.49l-19.86 43.44h-1.25zm304.4-14.11h-15.35l-2.65 6.21c-.66 1.54-1 2.69-1 3.45 0 .6.29 1.13.87 1.59.57.45 1.81.75 3.72.89v1.08h-12.49v-1.08c1.65-.29 2.72-.67 3.21-1.14.99-.94 2.09-2.84 3.3-5.7l13.94-32.62h.99l13.78 32.97c1.11 2.65 2.11 4.36 3.02 5.16.91.79 2.16 1.23 3.79 1.32v1.08h-15.62v-1.08c1.57-.08 2.64-.34 3.2-.79s.83-1 .83-1.64c0-.86-.39-2.21-1.17-4.06l-2.34-5.64zm-.9-2.15-6.68-15.99-6.85 15.99zm-21.88-24.27.42 9.32h-1.11c-.22-1.63-.51-2.81-.88-3.51-.61-1.13-1.4-1.96-2.41-2.49-1.01-.54-2.32-.81-3.96-.81h-5.58v30.25c0 2.44.26 3.96.79 4.57.74.82 1.87 1.22 3.41 1.22h1.37v1.08h-16.86v-1.08h1.43c1.69 0 2.89-.51 3.61-1.52.43-.63.65-2.05.65-4.27v-30.25h-4.75c-1.85 0-3.17.14-3.95.41-1.02.37-1.87 1.08-2.6 2.13-.72 1.05-1.15 2.47-1.29 4.26h-1.11l.42-9.32h32.4zm-54.21-.9c5.13 0 9.58 1.95 13.34 5.86 3.77 3.91 5.65 8.78 5.65 14.62 0 6.02-1.89 11.01-5.69 14.99-3.79 3.98-8.38 5.96-13.77 5.96-5.44 0-10.01-1.94-13.72-5.82s-5.56-8.89-5.56-15.04c0-6.29 2.14-11.42 6.42-15.39 3.72-3.45 8.16-5.17 13.33-5.17zm-.56 2.09c-3.53 0-6.37 1.32-8.5 3.94-2.66 3.28-4 8.07-4 14.39 0 6.47 1.37 11.45 4.13 14.94 2.12 2.65 4.91 3.97 8.39 3.97 3.72 0 6.78-1.45 9.2-4.35 2.42-2.91 3.63-7.48 3.63-13.74 0-6.78-1.34-11.85-3.99-15.17-2.13-2.65-5.08-3.98-8.86-3.98zm-25.35-2.09v13.69h-1.08c-.35-2.63-.98-4.72-1.88-6.28-.91-1.55-2.2-2.79-3.89-3.71-1.67-.92-3.41-1.38-5.2-1.38-2.03 0-3.71.62-5.03 1.85-1.33 1.24-1.99 2.65-1.99 4.23 0 1.21.42 2.31 1.26 3.31 1.21 1.45 4.08 3.41 8.63 5.84 3.71 1.99 6.24 3.52 7.59 4.57 1.35 1.07 2.4 2.31 3.13 3.76s1.1 2.95 1.1 4.53c0 3-1.17 5.58-3.49 7.75-2.33 2.17-5.33 3.26-8.99 3.26-1.16 0-2.23-.09-3.25-.27-.61-.1-1.85-.46-3.76-1.08-1.89-.62-3.1-.93-3.61-.93-.49 0-.88.15-1.16.44-.28.3-.49.91-.63 1.83h-1.08v-13.57h1.08c.51 2.84 1.19 4.97 2.04 6.38.86 1.41 2.17 2.59 3.94 3.52 1.76.94 3.7 1.4 5.8 1.4 2.43 0 4.36-.65 5.77-1.93 1.41-1.3 2.12-2.82 2.12-4.57 0-.98-.27-1.96-.8-2.96-.54-1-1.37-1.92-2.49-2.79-.76-.59-2.84-1.82-6.24-3.72-3.4-1.88-5.82-3.4-7.25-4.52-1.44-1.12-2.53-2.38-3.27-3.74-.75-1.37-1.12-2.87-1.12-4.5 0-2.84 1.1-5.29 3.28-7.34s4.97-3.08 8.34-3.08c2.11 0 4.34.52 6.71 1.54 1.1.49 1.86.73 2.31.73.51 0 .93-.15 1.24-.45.32-.31.58-.91.78-1.82h1.08zm-49.72 3.05v15.66h8.73c2.26 0 3.77-.34 4.52-1.02 1.02-.9 1.57-2.47 1.69-4.72h1.08v13.81h-1.08c-.27-1.93-.55-3.18-.82-3.73-.35-.68-.93-1.22-1.72-1.6-.8-.39-2.02-.59-3.68-.59h-8.73v13.07c0 1.75.08 2.82.23 3.2.16.38.43.69.82.91.39.23 1.14.34 2.22.34h6.71c2.23 0 3.86-.16 4.87-.47s1.98-.93 2.91-1.84c1.21-1.21 2.44-3.03 3.71-5.46h1.2l-3.42 9.92h-30.54v-1.08h1.4c.94 0 1.82-.23 2.66-.68.63-.31 1.06-.78 1.28-1.41.23-.63.34-1.9.34-3.83v-25.77c0-2.51-.25-4.05-.76-4.63-.71-.78-1.87-1.17-3.52-1.17h-1.4v-1.08h30.55l.42 8.73h-1.14c-.41-2.1-.86-3.55-1.35-4.33-.5-.79-1.24-1.39-2.2-1.8-.78-.29-2.15-.44-4.12-.44h-10.86zm-213.25 0v15.54h7.17c1.66 0 2.89-.36 3.66-1.08.78-.73 1.28-2.17 1.54-4.36h1.08v13.45h-1.08c-.02-1.53-.22-2.67-.6-3.39-.39-.73-.92-1.27-1.59-1.63-.68-.37-1.67-.55-3.01-.55h-7.17v12.49c0 2 .13 3.33.38 3.96.19.49.6.91 1.21 1.26.85.47 1.74.7 2.67.7h1.41v1.08h-16.98v-1.08h1.41c1.64 0 2.83-.48 3.58-1.42.47-.63.7-2.12.7-4.49v-25.65c0-2-.13-3.33-.38-3.97-.2-.49-.6-.91-1.21-1.26a5.4 5.4 0 0 0 -2.69-.7h-1.41v-1.08h29.41l.42 8.73h-1.02c-.51-1.86-1.1-3.23-1.76-4.1-.68-.87-1.5-1.5-2.48-1.89-.99-.39-2.5-.59-4.56-.59h-8.71zm-34.15-.96c-3.53 0-6.37 1.32-8.5 3.94-2.66 3.28-3.99 8.07-3.99 14.39 0 6.47 1.37 11.45 4.13 14.94 2.12 2.65 4.91 3.97 8.39 3.97 3.72 0 6.78-1.45 9.2-4.35 2.42-2.91 3.63-7.48 3.63-13.74 0-6.78-1.34-11.85-4-15.17-2.13-2.65-5.08-3.98-8.86-3.98zm365.13-79.86h13.82v1.08h-.76c-.51 0-1.25.23-2.22.68-.98.45-1.85 1.1-2.66 1.93-.8.84-1.77 2.21-2.94 4.1l-9.53 14.89v10.08c0 2.44.28 3.97.83 4.58.75.82 1.93 1.22 3.55 1.22h1.3v1.08h-16.98v-1.08h1.42c1.69 0 2.89-.51 3.61-1.52.43-.63.65-2.05.65-4.28v-9.27l-10.84-16.76c-1.29-1.93-2.15-3.15-2.61-3.63-.46-.49-1.41-1.07-2.85-1.74-.39-.19-.95-.29-1.69-.29v-1.08h16.9v1.08h-.88c-.92 0-1.76.22-2.53.65s-1.15 1.07-1.15 1.92c0 .71.6 1.97 1.79 3.81l8.2 12.77 7.81-12.22c1.18-1.83 1.75-3.2 1.75-4.09 0-.55-.14-1.04-.42-1.47-.29-.43-.69-.77-1.22-1.01-.53-.25-1.32-.37-2.36-.37v-1.08zm-30.46 0 .42 9.32h-1.11c-.22-1.63-.51-2.81-.88-3.51-.61-1.12-1.4-1.96-2.41-2.49-1.01-.54-2.32-.81-3.96-.81h-5.58v30.25c0 2.44.26 3.97.79 4.58.74.82 1.87 1.22 3.41 1.22h1.37v1.08h-16.86v-1.08h1.43c1.69 0 2.89-.51 3.61-1.52.43-.63.65-2.05.65-4.28v-30.25h-4.75c-1.85 0-3.17.14-3.95.41-1.02.37-1.87 1.08-2.6 2.13-.72 1.05-1.15 2.47-1.29 4.27h-1.11l.42-9.32zm-36.05 38.56v1.08h-16.98v-1.08h1.41c1.64 0 2.83-.48 3.58-1.42.47-.63.7-2.12.7-4.49v-25.65c0-2-.13-3.33-.38-3.97-.2-.49-.6-.91-1.21-1.26a5.51 5.51 0 0 0 -2.69-.7h-1.41v-1.08h16.98v1.08h-1.43c-1.61 0-2.79.48-3.53 1.42-.49.63-.73 2.12-.73 4.49v25.65c0 2 .13 3.33.38 3.96.19.49.6.91 1.23 1.26.84.47 1.71.7 2.65.7h1.43zm-24.28-39.46v13.69h-1.08c-.35-2.63-.98-4.72-1.88-6.28-.91-1.55-2.2-2.79-3.89-3.71-1.67-.92-3.41-1.38-5.2-1.38-2.03 0-3.71.62-5.03 1.85s-1.99 2.65-1.99 4.23c0 1.21.42 2.31 1.26 3.31 1.22 1.45 4.09 3.41 8.63 5.84 3.71 1.99 6.24 3.52 7.59 4.57 1.35 1.07 2.4 2.31 3.13 3.76s1.09 2.95 1.09 4.53c0 3-1.16 5.58-3.49 7.75s-5.33 3.26-8.99 3.26c-1.16 0-2.23-.09-3.25-.27-.61-.1-1.85-.46-3.76-1.08-1.89-.62-3.1-.93-3.61-.93-.49 0-.88.15-1.16.44-.28.3-.49.91-.63 1.83h-1.08v-13.57h1.08c.51 2.84 1.19 4.97 2.04 6.38.86 1.41 2.17 2.59 3.93 3.52 1.76.94 3.7 1.4 5.8 1.4 2.43 0 4.36-.65 5.77-1.93 1.41-1.3 2.12-2.82 2.12-4.57 0-.98-.27-1.96-.8-2.96-.54-1-1.37-1.92-2.49-2.79-.76-.59-2.84-1.82-6.24-3.72-3.4-1.88-5.82-3.4-7.25-4.52-1.43-1.13-2.53-2.38-3.27-3.74-.75-1.37-1.12-2.87-1.12-4.5 0-2.84 1.1-5.29 3.28-7.34s4.97-3.08 8.34-3.08c2.11 0 4.34.52 6.71 1.54 1.1.49 1.86.73 2.31.73.51 0 .93-.15 1.25-.45.32-.31.58-.91.78-1.82h1.08zm-26.88 40.53h-10.61l-13.46-18.53c-.97.04-1.75.06-2.36.06-.25 0-.52-.01-.8-.02-.29-.01-.58-.02-.89-.04v11.54c0 2.49.27 4.03.82 4.63.74.86 1.84 1.28 3.32 1.28h1.54v1.08h-16.98v-1.08h1.48c1.67 0 2.87-.55 3.59-1.63.41-.6.61-2.03.61-4.28v-25.65c0-2.49-.27-4.04-.82-4.63-.76-.86-1.88-1.28-3.38-1.28h-1.48v-1.08h14.43c4.21 0 7.31.31 9.31.92 2 .62 3.7 1.76 5.08 3.4 1.4 1.65 2.09 3.61 2.09 5.89 0 2.44-.8 4.55-2.38 6.35-1.59 1.79-4.05 3.06-7.38 3.81l8.2 11.35c1.87 2.61 3.48 4.35 4.82 5.21 1.33.87 3.09 1.41 5.25 1.64v1.08zm-28.12-20.39c.37 0 .69 0 .96.01s.49.02.66.02c3.74 0 6.56-.82 8.45-2.45 1.9-1.64 2.85-3.73 2.85-6.26 0-2.47-.77-4.48-2.29-6.04-1.54-1.54-3.57-2.32-6.09-2.32-1.12 0-2.63.18-4.53.54v16.5zm-36.34-17.1v15.66h8.73c2.26 0 3.77-.34 4.52-1.02 1.02-.9 1.57-2.47 1.69-4.72h1.08v13.81h-1.08c-.27-1.93-.55-3.18-.82-3.73-.35-.68-.93-1.21-1.72-1.6-.8-.39-2.02-.59-3.68-.59h-8.73v13.07c0 1.75.08 2.82.23 3.2.16.38.43.69.82.91.39.23 1.14.34 2.22.34h6.71c2.23 0 3.86-.16 4.87-.47s1.98-.93 2.91-1.84c1.21-1.21 2.44-3.03 3.71-5.46h1.2l-3.42 9.92h-30.54v-1.08h1.41c.94 0 1.82-.23 2.66-.68.63-.31 1.06-.78 1.28-1.41.23-.63.34-1.9.34-3.83v-25.77c0-2.51-.25-4.05-.76-4.63-.71-.78-1.87-1.17-3.52-1.17h-1.41v-1.08h30.55l.42 8.73h-1.14c-.41-2.1-.86-3.55-1.35-4.33-.5-.79-1.23-1.39-2.2-1.8-.78-.29-2.15-.44-4.12-.44h-10.86zm-13.25-2.15v1.08c-1.39.26-2.46.71-3.18 1.35-1.03.96-1.94 2.43-2.74 4.41l-13.76 33.69h-1.08l-14.82-34.13c-.76-1.76-1.3-2.84-1.6-3.23-.49-.61-1.09-1.09-1.8-1.43s-1.66-.56-2.87-.66v-1.08h16.16v1.08c-1.83.18-3.02.49-3.57.94-.54.45-.82 1.02-.82 1.72 0 .97.45 2.49 1.34 4.55l10.07 23.2 9.35-22.92c.92-2.26 1.38-3.83 1.38-4.7 0-.56-.29-1.11-.85-1.61-.57-.52-1.52-.89-2.86-1.1-.1-.02-.27-.05-.5-.09v-1.08h12.13zm-43.85 38.56v1.08h-16.98v-1.08h1.4c1.65 0 2.83-.48 3.58-1.42.47-.63.7-2.12.7-4.49v-25.65c0-2-.13-3.33-.38-3.97-.2-.49-.6-.91-1.21-1.26a5.51 5.51 0 0 0 -2.69-.7h-1.4v-1.08h16.98v1.08h-1.43c-1.61 0-2.79.48-3.53 1.42-.49.63-.73 2.12-.73 4.49v25.65c0 2 .13 3.33.38 3.96.19.49.6.91 1.23 1.26.84.47 1.71.7 2.65.7h1.43z" fill="#862334"/></svg>