<svg width="640" height="462" viewBox="0 0 640 462" fill="none" xmlns="http://www.w3.org/2000/svg">
<path d="M0 20C0 8.95429 8.95431 0 20 0H620C631.046 0 640 8.9543 640 20V442C640 453.046 631.046 462 620 462H20C8.95431 462 0 453.046 0 442V20Z" fill="#1E1E1E"/>
<rect opacity="0.2" y="48" width="640" height="1" fill="white"/>
<circle cx="26" cy="25" r="5" stroke="#FC8181" stroke-width="2"/>
<circle cx="44" cy="25" r="5" stroke="#F6E05E" stroke-width="2"/>
<circle cx="62" cy="25" r="5" stroke="#70DB7E" stroke-width="2"/>
<g filter="url(#filter0_i_24:290)">
<path opacity="0.5" d="M30.4102 76.8447H32.5566V69.1338L29.9863 70.3711V69.0449L32.543 67.8281H33.9238V76.8447H36.043V78H30.4102V76.8447ZM31.1143 100.838H35.8037V102H29.6035V100.838C30.4557 99.9401 31.2008 99.1471 31.8389 98.459C32.4769 97.7708 32.9167 97.2855 33.1582 97.0029C33.6139 96.4469 33.9215 95.998 34.0811 95.6562C34.2406 95.3099 34.3203 94.9567 34.3203 94.5967C34.3203 94.027 34.1517 93.5804 33.8145 93.2568C33.4818 92.9333 33.0238 92.7715 32.4404 92.7715C32.0257 92.7715 31.5905 92.8467 31.1348 92.9971C30.679 93.1475 30.196 93.3753 29.6855 93.6807V92.2861C30.1549 92.0628 30.6152 91.8942 31.0664 91.7803C31.5221 91.6663 31.971 91.6094 32.4131 91.6094C33.4111 91.6094 34.2132 91.876 34.8193 92.4092C35.43 92.9378 35.7354 93.6328 35.7354 94.4941C35.7354 94.9316 35.6328 95.3691 35.4277 95.8066C35.2272 96.2441 34.8991 96.7272 34.4434 97.2559C34.1882 97.5521 33.8167 97.9622 33.3291 98.4863C32.846 99.0104 32.1077 99.7943 31.1143 100.838ZM33.8691 120.538C34.5391 120.716 35.0518 121.033 35.4072 121.488C35.7627 121.939 35.9404 122.505 35.9404 123.184C35.9404 124.122 35.6237 124.861 34.9902 125.398C34.3613 125.932 33.4886 126.198 32.3721 126.198C31.9027 126.198 31.4242 126.155 30.9365 126.068C30.4489 125.982 29.9704 125.856 29.501 125.692V124.318C29.9658 124.56 30.4238 124.74 30.875 124.858C31.3262 124.977 31.7751 125.036 32.2217 125.036C32.9782 125.036 33.5592 124.865 33.9648 124.523C34.3704 124.182 34.5732 123.689 34.5732 123.047C34.5732 122.454 34.3704 121.985 33.9648 121.639C33.5592 121.288 33.0101 121.112 32.3174 121.112H31.2646V119.978H32.3174C32.9508 119.978 33.4453 119.839 33.8008 119.561C34.1562 119.283 34.334 118.895 34.334 118.398C34.334 117.874 34.1676 117.473 33.835 117.195C33.5068 116.913 33.0374 116.771 32.4268 116.771C32.0212 116.771 31.6019 116.817 31.1689 116.908C30.736 116.999 30.2826 117.136 29.8086 117.318V116.047C30.36 115.901 30.8499 115.792 31.2783 115.719C31.7113 115.646 32.0941 115.609 32.4268 115.609C33.4202 115.609 34.2132 115.86 34.8057 116.361C35.4027 116.858 35.7012 117.519 35.7012 118.344C35.7012 118.904 35.5439 119.371 35.2295 119.745C34.9196 120.119 34.4661 120.383 33.8691 120.538ZM33.5889 141.052L30.3691 146.445H33.5889V141.052ZM33.3633 139.794H34.9629V146.445H36.3232V147.566H34.9629V150H33.5889V147.566H29.2617V146.261L33.3633 139.794ZM29.9795 163.794H35.1475V164.956H31.2373V167.465C31.4333 167.392 31.6292 167.34 31.8252 167.308C32.0257 167.271 32.2262 167.253 32.4268 167.253C33.484 167.253 34.3226 167.565 34.9424 168.189C35.5622 168.814 35.8721 169.659 35.8721 170.726C35.8721 171.801 35.5462 172.649 34.8945 173.269C34.2474 173.888 33.361 174.198 32.2354 174.198C31.693 174.198 31.1963 174.162 30.7451 174.089C30.2985 174.016 29.8975 173.907 29.542 173.761V172.359C29.9613 172.587 30.3828 172.758 30.8066 172.872C31.2305 172.981 31.6634 173.036 32.1055 173.036C32.8665 173.036 33.4521 172.836 33.8623 172.435C34.277 172.034 34.4844 171.464 34.4844 170.726C34.4844 169.996 34.2702 169.429 33.8418 169.023C33.418 168.618 32.8255 168.415 32.0645 168.415C31.6953 168.415 31.3353 168.458 30.9844 168.545C30.6335 168.627 30.2985 168.752 29.9795 168.921V163.794ZM35.3389 188.02V189.291C35.0518 189.122 34.7464 188.995 34.4229 188.908C34.0993 188.817 33.762 188.771 33.4111 188.771C32.5361 188.771 31.873 189.102 31.4219 189.763C30.9707 190.419 30.7451 191.387 30.7451 192.668C30.9639 192.212 31.2669 191.864 31.6543 191.622C32.0417 191.376 32.486 191.253 32.9873 191.253C33.9717 191.253 34.7327 191.556 35.2705 192.162C35.8128 192.764 36.084 193.618 36.084 194.726C36.084 195.828 35.806 196.683 35.25 197.289C34.694 197.895 33.9124 198.198 32.9053 198.198C31.7204 198.198 30.8522 197.774 30.3008 196.927C29.7493 196.075 29.4736 194.735 29.4736 192.907C29.4736 191.185 29.804 189.872 30.4648 188.97C31.1302 188.063 32.0918 187.609 33.3496 187.609C33.6868 187.609 34.0241 187.646 34.3613 187.719C34.6986 187.787 35.0244 187.887 35.3389 188.02ZM32.8779 192.333C32.29 192.333 31.8275 192.545 31.4902 192.969C31.153 193.393 30.9844 193.978 30.9844 194.726C30.9844 195.473 31.153 196.059 31.4902 196.482C31.8275 196.906 32.29 197.118 32.8779 197.118C33.4886 197.118 33.9489 196.918 34.2588 196.517C34.5687 196.111 34.7236 195.514 34.7236 194.726C34.7236 193.933 34.5687 193.336 34.2588 192.935C33.9489 192.534 33.4886 192.333 32.8779 192.333ZM29.5146 211.794H35.9404V212.382L32.29 222H30.8477L34.4023 212.956H29.5146V211.794ZM32.7754 241.153C32.1602 241.153 31.6839 241.326 31.3467 241.673C31.014 242.015 30.8477 242.5 30.8477 243.129C30.8477 243.758 31.0163 244.248 31.3535 244.599C31.6953 244.945 32.1693 245.118 32.7754 245.118C33.3952 245.118 33.8714 244.947 34.2041 244.605C34.5413 244.259 34.71 243.767 34.71 243.129C34.71 242.505 34.5391 242.019 34.1973 241.673C33.86 241.326 33.3861 241.153 32.7754 241.153ZM31.5723 240.579C30.9844 240.429 30.5241 240.148 30.1914 239.738C29.8633 239.328 29.6992 238.834 29.6992 238.255C29.6992 237.444 29.9749 236.801 30.5264 236.327C31.0778 235.849 31.8275 235.609 32.7754 235.609C33.7279 235.609 34.4798 235.849 35.0312 236.327C35.5827 236.801 35.8584 237.444 35.8584 238.255C35.8584 238.834 35.6921 239.328 35.3594 239.738C35.0312 240.148 34.5732 240.429 33.9854 240.579C34.6689 240.729 35.1908 241.033 35.5508 241.488C35.9154 241.944 36.0977 242.534 36.0977 243.259C36.0977 244.179 35.8037 244.899 35.2158 245.419C34.6279 245.938 33.8145 246.198 32.7754 246.198C31.7363 246.198 30.9229 245.941 30.335 245.426C29.7516 244.906 29.46 244.188 29.46 243.272C29.46 242.543 29.64 241.951 30 241.495C30.3646 241.035 30.8887 240.729 31.5723 240.579ZM31.0732 238.385C31.0732 238.932 31.2191 239.349 31.5107 239.636C31.8024 239.923 32.224 240.066 32.7754 240.066C33.3314 240.066 33.7552 239.923 34.0469 239.636C34.3385 239.349 34.4844 238.932 34.4844 238.385C34.4844 237.829 34.3385 237.405 34.0469 237.113C33.7598 236.822 33.3359 236.676 32.7754 236.676C32.224 236.676 31.8024 236.824 31.5107 237.12C31.2191 237.412 31.0732 237.833 31.0732 238.385ZM32.6387 265.475C33.2266 265.475 33.6868 265.263 34.0195 264.839C34.3568 264.415 34.5254 263.829 34.5254 263.082C34.5254 262.335 34.3568 261.749 34.0195 261.325C33.6868 260.901 33.2266 260.689 32.6387 260.689C32.028 260.689 31.5677 260.892 31.2578 261.298C30.9479 261.699 30.793 262.294 30.793 263.082C30.793 263.875 30.9456 264.472 31.251 264.873C31.5609 265.274 32.0234 265.475 32.6387 265.475ZM30.1777 269.788V268.517C30.4648 268.685 30.7702 268.815 31.0938 268.906C31.4173 268.993 31.7546 269.036 32.1055 269.036C32.9805 269.036 33.6413 268.708 34.0879 268.052C34.5391 267.391 34.7646 266.42 34.7646 265.14C34.5505 265.595 34.2497 265.946 33.8623 266.192C33.4749 266.434 33.0306 266.555 32.5293 266.555C31.5449 266.555 30.7816 266.252 30.2393 265.646C29.7015 265.039 29.4326 264.18 29.4326 263.068C29.4326 261.97 29.7083 261.12 30.2598 260.519C30.8158 259.912 31.5996 259.609 32.6113 259.609C33.7962 259.609 34.6644 260.035 35.2158 260.888C35.7673 261.74 36.043 263.08 36.043 264.907C36.043 266.625 35.7103 267.938 35.0449 268.845C34.3841 269.747 33.4225 270.198 32.1602 270.198C31.8275 270.198 31.4925 270.162 31.1553 270.089C30.818 270.021 30.4922 269.92 30.1777 269.788ZM21.9746 292.845H24.1211V285.134L21.5508 286.371V285.045L24.1074 283.828H25.4883V292.845H27.6074V294H21.9746V292.845ZM32.7754 283.644C33.8646 283.644 34.6872 284.088 35.2432 284.977C35.8037 285.865 36.084 287.18 36.084 288.921C36.084 290.662 35.8037 291.977 35.2432 292.865C34.6872 293.754 33.8646 294.198 32.7754 294.198C31.6862 294.198 30.8636 293.754 30.3076 292.865C29.7516 291.977 29.4736 290.662 29.4736 288.921C29.4736 287.18 29.7516 285.865 30.3076 284.977C30.8636 284.088 31.6862 283.644 32.7754 283.644ZM32.7754 293.104C33.4225 293.104 33.9033 292.76 34.2178 292.072C34.5368 291.384 34.6963 290.334 34.6963 288.921C34.6963 288.169 34.6507 287.49 34.5596 286.884L31.3057 291.977C31.6475 292.729 32.1374 293.104 32.7754 293.104ZM32.7754 284.737C32.1328 284.737 31.652 285.081 31.333 285.77C31.0186 286.458 30.8613 287.508 30.8613 288.921C30.8613 289.563 30.9046 290.165 30.9912 290.726L34.1768 285.646C33.8304 285.04 33.3633 284.737 32.7754 284.737ZM21.9746 316.845H24.1211V309.134L21.5508 310.371V309.045L24.1074 307.828H25.4883V316.845H27.6074V318H21.9746V316.845ZM30.4102 316.845H32.5566V309.134L29.9863 310.371V309.045L32.543 307.828H33.9238V316.845H36.043V318H30.4102V316.845ZM21.9746 340.845H24.1211V333.134L21.5508 334.371V333.045L24.1074 331.828H25.4883V340.845H27.6074V342H21.9746V340.845ZM31.1143 340.838H35.8037V342H29.6035V340.838C30.4557 339.94 31.2008 339.147 31.8389 338.459C32.4769 337.771 32.9167 337.285 33.1582 337.003C33.6139 336.447 33.9215 335.998 34.0811 335.656C34.2406 335.31 34.3203 334.957 34.3203 334.597C34.3203 334.027 34.1517 333.58 33.8145 333.257C33.4818 332.933 33.0238 332.771 32.4404 332.771C32.0257 332.771 31.5905 332.847 31.1348 332.997C30.679 333.147 30.196 333.375 29.6855 333.681V332.286C30.1549 332.063 30.6152 331.894 31.0664 331.78C31.5221 331.666 31.971 331.609 32.4131 331.609C33.4111 331.609 34.2132 331.876 34.8193 332.409C35.43 332.938 35.7354 333.633 35.7354 334.494C35.7354 334.932 35.6328 335.369 35.4277 335.807C35.2272 336.244 34.8991 336.727 34.4434 337.256C34.1882 337.552 33.8167 337.962 33.3291 338.486C32.846 339.01 32.1077 339.794 31.1143 340.838ZM21.9746 364.845H24.1211V357.134L21.5508 358.371V357.045L24.1074 355.828H25.4883V364.845H27.6074V366H21.9746V364.845ZM33.8691 360.538C34.5391 360.716 35.0518 361.033 35.4072 361.488C35.7627 361.939 35.9404 362.505 35.9404 363.184C35.9404 364.122 35.6237 364.861 34.9902 365.398C34.3613 365.932 33.4886 366.198 32.3721 366.198C31.9027 366.198 31.4242 366.155 30.9365 366.068C30.4489 365.982 29.9704 365.856 29.501 365.692V364.318C29.9658 364.56 30.4238 364.74 30.875 364.858C31.3262 364.977 31.7751 365.036 32.2217 365.036C32.9782 365.036 33.5592 364.865 33.9648 364.523C34.3704 364.182 34.5732 363.689 34.5732 363.047C34.5732 362.454 34.3704 361.985 33.9648 361.639C33.5592 361.288 33.0101 361.112 32.3174 361.112H31.2646V359.978H32.3174C32.9508 359.978 33.4453 359.839 33.8008 359.561C34.1562 359.283 34.334 358.895 34.334 358.398C34.334 357.874 34.1676 357.473 33.835 357.195C33.5068 356.913 33.0374 356.771 32.4268 356.771C32.0212 356.771 31.6019 356.817 31.1689 356.908C30.736 356.999 30.2826 357.136 29.8086 357.318V356.047C30.36 355.901 30.8499 355.792 31.2783 355.719C31.7113 355.646 32.0941 355.609 32.4268 355.609C33.4202 355.609 34.2132 355.86 34.8057 356.361C35.4027 356.858 35.7012 357.519 35.7012 358.344C35.7012 358.904 35.5439 359.371 35.2295 359.745C34.9196 360.119 34.4661 360.383 33.8691 360.538ZM21.9746 388.845H24.1211V381.134L21.5508 382.371V381.045L24.1074 379.828H25.4883V388.845H27.6074V390H21.9746V388.845ZM33.5889 381.052L30.3691 386.445H33.5889V381.052ZM33.3633 379.794H34.9629V386.445H36.3232V387.566H34.9629V390H33.5889V387.566H29.2617V386.261L33.3633 379.794ZM21.9746 412.845H24.1211V405.134L21.5508 406.371V405.045L24.1074 403.828H25.4883V412.845H27.6074V414H21.9746V412.845ZM29.9795 403.794H35.1475V404.956H31.2373V407.465C31.4333 407.392 31.6292 407.34 31.8252 407.308C32.0257 407.271 32.2262 407.253 32.4268 407.253C33.484 407.253 34.3226 407.565 34.9424 408.189C35.5622 408.814 35.8721 409.659 35.8721 410.726C35.8721 411.801 35.5462 412.649 34.8945 413.269C34.2474 413.888 33.361 414.198 32.2354 414.198C31.693 414.198 31.1963 414.162 30.7451 414.089C30.2985 414.016 29.8975 413.907 29.542 413.761V412.359C29.9613 412.587 30.3828 412.758 30.8066 412.872C31.2305 412.981 31.6634 413.036 32.1055 413.036C32.8665 413.036 33.4521 412.836 33.8623 412.435C34.277 412.034 34.4844 411.464 34.4844 410.726C34.4844 409.996 34.2702 409.429 33.8418 409.023C33.418 408.618 32.8255 408.415 32.0645 408.415C31.6953 408.415 31.3353 408.458 30.9844 408.545C30.6335 408.627 30.2985 408.752 29.9795 408.921V403.794ZM21.9746 436.845H24.1211V429.134L21.5508 430.371V429.045L24.1074 427.828H25.4883V436.845H27.6074V438H21.9746V436.845ZM35.3389 428.02V429.291C35.0518 429.122 34.7464 428.995 34.4229 428.908C34.0993 428.817 33.762 428.771 33.4111 428.771C32.5361 428.771 31.873 429.102 31.4219 429.763C30.9707 430.419 30.7451 431.387 30.7451 432.668C30.9639 432.212 31.2669 431.864 31.6543 431.622C32.0417 431.376 32.486 431.253 32.9873 431.253C33.9717 431.253 34.7327 431.556 35.2705 432.162C35.8128 432.764 36.084 433.618 36.084 434.726C36.084 435.828 35.806 436.683 35.25 437.289C34.694 437.895 33.9124 438.198 32.9053 438.198C31.7204 438.198 30.8522 437.774 30.3008 436.927C29.7493 436.075 29.4736 434.735 29.4736 432.907C29.4736 431.185 29.804 429.872 30.4648 428.97C31.1302 428.063 32.0918 427.609 33.3496 427.609C33.6868 427.609 34.0241 427.646 34.3613 427.719C34.6986 427.787 35.0244 427.887 35.3389 428.02ZM32.8779 432.333C32.29 432.333 31.8275 432.545 31.4902 432.969C31.153 433.393 30.9844 433.978 30.9844 434.726C30.9844 435.473 31.153 436.059 31.4902 436.482C31.8275 436.906 32.29 437.118 32.8779 437.118C33.4886 437.118 33.9489 436.918 34.2588 436.517C34.5687 436.111 34.7236 435.514 34.7236 434.726C34.7236 433.933 34.5687 433.336 34.2588 432.935C33.9489 432.534 33.4886 432.333 32.8779 432.333Z" fill="white"/>
</g>
<path d="M66.915 75.2314C66.915 75.7965 67.0176 76.2227 67.2227 76.5098C67.4323 76.7969 67.7399 76.9404 68.1455 76.9404H69.6152V78H68.0225C67.2705 78 66.6872 77.7607 66.2725 77.2822C65.8623 76.7992 65.6572 76.1156 65.6572 75.2314V68.3066H63.6406V67.3223H66.915V75.2314ZM78.0918 73.543V74.1582H72.6436V74.1992C72.6071 75.2428 72.8053 75.9925 73.2383 76.4482C73.6758 76.904 74.291 77.1318 75.084 77.1318C75.485 77.1318 75.9043 77.068 76.3418 76.9404C76.7793 76.8128 77.2464 76.6191 77.7432 76.3594V77.6104C77.2646 77.8063 76.8021 77.9521 76.3555 78.0479C75.9134 78.1481 75.485 78.1982 75.0703 78.1982C73.8809 78.1982 72.9512 77.8428 72.2812 77.1318C71.6113 76.4163 71.2764 75.432 71.2764 74.1787C71.2764 72.9574 71.6045 71.9821 72.2607 71.2529C72.917 70.5238 73.792 70.1592 74.8857 70.1592C75.861 70.1592 76.6289 70.4896 77.1895 71.1504C77.7546 71.8112 78.0553 72.6087 78.0918 73.543ZM76.834 73.1738C76.7793 72.6452 76.5856 72.1895 76.2529 71.8066C75.9248 71.4193 75.4508 71.2256 74.8311 71.2256C74.2249 71.2256 73.7259 71.4261 73.334 71.8271C72.9421 72.2282 72.7279 72.6794 72.6914 73.1807L76.834 73.1738ZM83.0684 68.1699V70.3438H85.9258V71.3213H83.0684V75.4775C83.0684 76.0426 83.1755 76.4368 83.3896 76.6602C83.6038 76.8835 83.9775 76.9951 84.5107 76.9951H85.9258V78H84.3877C83.4443 78 82.779 77.8109 82.3916 77.4326C82.0042 77.0544 81.8105 76.4027 81.8105 75.4775V71.3213H79.7666V70.3438H81.8105V68.1699H83.0684ZM66.915 171.231C66.915 171.797 67.0176 172.223 67.2227 172.51C67.4323 172.797 67.7399 172.94 68.1455 172.94H69.6152V174H68.0225C67.2705 174 66.6872 173.761 66.2725 173.282C65.8623 172.799 65.6572 172.116 65.6572 171.231V164.307H63.6406V163.322H66.915V171.231ZM78.0918 169.543V170.158H72.6436V170.199C72.6071 171.243 72.8053 171.993 73.2383 172.448C73.6758 172.904 74.291 173.132 75.084 173.132C75.485 173.132 75.9043 173.068 76.3418 172.94C76.7793 172.813 77.2464 172.619 77.7432 172.359V173.61C77.2646 173.806 76.8021 173.952 76.3555 174.048C75.9134 174.148 75.485 174.198 75.0703 174.198C73.8809 174.198 72.9512 173.843 72.2812 173.132C71.6113 172.416 71.2764 171.432 71.2764 170.179C71.2764 168.957 71.6045 167.982 72.2607 167.253C72.917 166.524 73.792 166.159 74.8857 166.159C75.861 166.159 76.6289 166.49 77.1895 167.15C77.7546 167.811 78.0553 168.609 78.0918 169.543ZM76.834 169.174C76.7793 168.645 76.5856 168.189 76.2529 167.807C75.9248 167.419 75.4508 167.226 74.8311 167.226C74.2249 167.226 73.7259 167.426 73.334 167.827C72.9421 168.228 72.7279 168.679 72.6914 169.181L76.834 169.174ZM83.0684 164.17V166.344H85.9258V167.321H83.0684V171.478C83.0684 172.043 83.1755 172.437 83.3896 172.66C83.6038 172.883 83.9775 172.995 84.5107 172.995H85.9258V174H84.3877C83.4443 174 82.779 173.811 82.3916 173.433C82.0042 173.054 81.8105 172.403 81.8105 171.478V167.321H79.7666V166.344H81.8105V164.17H83.0684ZM81.0312 190.371H84.251V197.022H86.7461V198H80.498V197.022H82.9932V191.349H81.0312V190.371ZM82.9932 187.397H84.251V188.983H82.9932V187.397ZM94.5732 187.363V188.409H93.1445C92.6934 188.409 92.3789 188.503 92.2012 188.689C92.028 188.872 91.9414 189.198 91.9414 189.667V190.344H94.5732V191.321H91.9414V198H90.6836V191.321H88.6396V190.344H90.6836V189.811C90.6836 188.972 90.875 188.354 91.2578 187.958C91.6452 187.562 92.2467 187.363 93.0625 187.363H94.5732ZM167.424 188.17V190.344H170.281V191.321H167.424V195.478C167.424 196.043 167.531 196.437 167.745 196.66C167.959 196.883 168.333 196.995 168.866 196.995H170.281V198H168.743C167.8 198 167.134 197.811 166.747 197.433C166.36 197.054 166.166 196.403 166.166 195.478V191.321H164.122V190.344H166.166V188.17H167.424ZM178.847 193.256V198H177.582V193.256C177.582 192.568 177.461 192.062 177.22 191.738C176.978 191.415 176.6 191.253 176.085 191.253C175.497 191.253 175.044 191.463 174.725 191.882C174.41 192.297 174.253 192.894 174.253 193.673V198H172.995V187.363H174.253V191.492C174.476 191.055 174.779 190.724 175.162 190.501C175.545 190.273 175.998 190.159 176.522 190.159C177.302 190.159 177.883 190.417 178.266 190.932C178.653 191.442 178.847 192.217 178.847 193.256ZM187.754 193.543V194.158H182.306V194.199C182.269 195.243 182.467 195.993 182.9 196.448C183.338 196.904 183.953 197.132 184.746 197.132C185.147 197.132 185.566 197.068 186.004 196.94C186.441 196.813 186.909 196.619 187.405 196.359V197.61C186.927 197.806 186.464 197.952 186.018 198.048C185.576 198.148 185.147 198.198 184.732 198.198C183.543 198.198 182.613 197.843 181.943 197.132C181.273 196.416 180.938 195.432 180.938 194.179C180.938 192.957 181.267 191.982 181.923 191.253C182.579 190.524 183.454 190.159 184.548 190.159C185.523 190.159 186.291 190.49 186.852 191.15C187.417 191.811 187.717 192.609 187.754 193.543ZM186.496 193.174C186.441 192.645 186.248 192.189 185.915 191.807C185.587 191.419 185.113 191.226 184.493 191.226C183.887 191.226 183.388 191.426 182.996 191.827C182.604 192.228 182.39 192.679 182.354 193.181L186.496 193.174ZM195.718 193.256V198H194.453V193.256C194.453 192.568 194.332 192.062 194.091 191.738C193.849 191.415 193.471 191.253 192.956 191.253C192.368 191.253 191.915 191.463 191.596 191.882C191.281 192.297 191.124 192.894 191.124 193.673V198H189.866V190.344H191.124V191.492C191.347 191.055 191.65 190.724 192.033 190.501C192.416 190.273 192.869 190.159 193.394 190.159C194.173 190.159 194.754 190.417 195.137 190.932C195.524 191.442 195.718 192.217 195.718 193.256ZM229.932 193.543V194.158H224.483V194.199C224.447 195.243 224.645 195.993 225.078 196.448C225.516 196.904 226.131 197.132 226.924 197.132C227.325 197.132 227.744 197.068 228.182 196.94C228.619 196.813 229.086 196.619 229.583 196.359V197.61C229.104 197.806 228.642 197.952 228.195 198.048C227.753 198.148 227.325 198.198 226.91 198.198C225.721 198.198 224.791 197.843 224.121 197.132C223.451 196.416 223.116 195.432 223.116 194.179C223.116 192.957 223.444 191.982 224.101 191.253C224.757 190.524 225.632 190.159 226.726 190.159C227.701 190.159 228.469 190.49 229.029 191.15C229.594 191.811 229.895 192.609 229.932 193.543ZM228.674 193.174C228.619 192.645 228.425 192.189 228.093 191.807C227.765 191.419 227.291 191.226 226.671 191.226C226.065 191.226 225.566 191.426 225.174 191.827C224.782 192.228 224.568 192.679 224.531 193.181L228.674 193.174ZM235.626 195.231C235.626 195.797 235.729 196.223 235.934 196.51C236.143 196.797 236.451 196.94 236.856 196.94H238.326V198H236.733C235.981 198 235.398 197.761 234.983 197.282C234.573 196.799 234.368 196.116 234.368 195.231V188.307H232.352V187.322H235.626V195.231ZM245.798 190.61V191.841C245.438 191.631 245.076 191.474 244.711 191.369C244.346 191.264 243.975 191.212 243.597 191.212C243.027 191.212 242.601 191.305 242.318 191.492C242.04 191.674 241.901 191.955 241.901 192.333C241.901 192.675 242.006 192.93 242.216 193.099C242.425 193.267 242.947 193.431 243.781 193.591L244.287 193.687C244.911 193.805 245.383 194.042 245.702 194.397C246.026 194.753 246.188 195.215 246.188 195.785C246.188 196.542 245.919 197.134 245.381 197.562C244.843 197.986 244.096 198.198 243.139 198.198C242.76 198.198 242.364 198.157 241.949 198.075C241.535 197.998 241.086 197.879 240.603 197.72V196.421C241.072 196.662 241.521 196.845 241.949 196.968C242.378 197.086 242.783 197.146 243.166 197.146C243.722 197.146 244.153 197.034 244.458 196.811C244.763 196.583 244.916 196.266 244.916 195.86C244.916 195.277 244.358 194.874 243.241 194.65L243.187 194.637L242.715 194.541C241.99 194.4 241.462 194.163 241.129 193.83C240.796 193.493 240.63 193.035 240.63 192.456C240.63 191.722 240.878 191.157 241.375 190.761C241.872 190.36 242.58 190.159 243.501 190.159C243.911 190.159 244.305 190.198 244.684 190.275C245.062 190.348 245.433 190.46 245.798 190.61ZM255.238 193.543V194.158H249.79V194.199C249.754 195.243 249.952 195.993 250.385 196.448C250.822 196.904 251.438 197.132 252.23 197.132C252.632 197.132 253.051 197.068 253.488 196.94C253.926 196.813 254.393 196.619 254.89 196.359V197.61C254.411 197.806 253.949 197.952 253.502 198.048C253.06 198.148 252.632 198.198 252.217 198.198C251.027 198.198 250.098 197.843 249.428 197.132C248.758 196.416 248.423 195.432 248.423 194.179C248.423 192.957 248.751 191.982 249.407 191.253C250.063 190.524 250.938 190.159 252.032 190.159C253.007 190.159 253.775 190.49 254.336 191.15C254.901 191.811 255.202 192.609 255.238 193.543ZM253.98 193.174C253.926 192.645 253.732 192.189 253.399 191.807C253.071 191.419 252.597 191.226 251.978 191.226C251.371 191.226 250.872 191.426 250.48 191.827C250.089 192.228 249.874 192.679 249.838 193.181L253.98 193.174Z" fill="#569CD6"/>
<path d="M162.434 70.3438L159.692 74.0078L162.7 78H161.244L159.002 74.9307L156.767 78H155.311L158.318 74.0078L155.577 70.3438H156.972L159.002 73.1123L161.019 70.3438H162.434ZM172.264 74.582H179.489V75.7373H172.264V74.582ZM172.264 71.3623H179.489V72.5176H172.264V71.3623ZM196.176 70.3438L193.435 74.0078L196.442 78H194.986L192.744 74.9307L190.509 78H189.053L192.061 74.0078L189.319 70.3438H190.714L192.744 73.1123L194.761 70.3438H196.176ZM213.464 72.0459L210.429 73.6865L213.464 75.334L212.985 76.168L210.128 74.4521V77.6377H209.15V74.4521L206.293 76.168L205.814 75.334L208.856 73.6865L205.814 72.0459L206.293 71.2051L209.15 72.9209V69.7354H210.128V72.9209L212.985 71.2051L213.464 72.0459ZM229.918 70.3438L227.177 74.0078L230.185 78H228.729L226.486 74.9307L224.251 78H222.795L225.803 74.0078L223.062 70.3438H224.456L226.486 73.1123L228.503 70.3438H229.918ZM68.6514 118.61V119.841C68.2913 119.631 67.929 119.474 67.5645 119.369C67.1999 119.264 66.8285 119.212 66.4502 119.212C65.8805 119.212 65.4544 119.305 65.1719 119.492C64.8939 119.674 64.7549 119.955 64.7549 120.333C64.7549 120.675 64.8597 120.93 65.0693 121.099C65.279 121.267 65.8008 121.431 66.6348 121.591L67.1406 121.687C67.765 121.805 68.2367 122.042 68.5557 122.397C68.8792 122.753 69.041 123.215 69.041 123.785C69.041 124.542 68.7721 125.134 68.2344 125.562C67.6966 125.986 66.9492 126.198 65.9922 126.198C65.6139 126.198 65.2174 126.157 64.8027 126.075C64.388 125.998 63.9391 125.879 63.4561 125.72V124.421C63.9255 124.662 64.3743 124.845 64.8027 124.968C65.2311 125.086 65.6367 125.146 66.0195 125.146C66.5755 125.146 67.0062 125.034 67.3115 124.811C67.6169 124.583 67.7695 124.266 67.7695 123.86C67.7695 123.277 67.2113 122.874 66.0947 122.65L66.04 122.637L65.5684 122.541C64.8438 122.4 64.3151 122.163 63.9824 121.83C63.6497 121.493 63.4834 121.035 63.4834 120.456C63.4834 119.722 63.7318 119.157 64.2285 118.761C64.7253 118.36 65.4339 118.159 66.3545 118.159C66.7646 118.159 67.1589 118.198 67.5371 118.275C67.9154 118.348 68.2868 118.46 68.6514 118.61ZM72.7051 122.206C72.7051 123.181 72.8577 123.917 73.1631 124.414C73.473 124.911 73.931 125.159 74.5371 125.159C75.1432 125.159 75.6012 124.911 75.9111 124.414C76.2256 123.913 76.3828 123.177 76.3828 122.206C76.3828 121.235 76.2256 120.502 75.9111 120.005C75.6012 119.504 75.1432 119.253 74.5371 119.253C73.931 119.253 73.473 119.501 73.1631 119.998C72.8577 120.495 72.7051 121.231 72.7051 122.206ZM76.3828 125.05C76.1777 125.428 75.8997 125.72 75.5488 125.925C75.2025 126.125 74.7992 126.226 74.3389 126.226C73.4229 126.226 72.6982 125.872 72.165 125.166C71.6364 124.455 71.3721 123.478 71.3721 122.233C71.3721 120.966 71.6364 119.975 72.165 119.26C72.6937 118.544 73.4183 118.187 74.3389 118.187C74.7946 118.187 75.1956 118.287 75.542 118.487C75.8929 118.683 76.1732 118.97 76.3828 119.349V118.371H77.6475V128.939H76.3828V125.05ZM80.2041 123.102V118.357H81.4619V123.102C81.4619 123.79 81.5827 124.296 81.8242 124.619C82.0703 124.943 82.4486 125.104 82.959 125.104C83.5514 125.104 84.0049 124.897 84.3193 124.482C84.6338 124.063 84.791 123.464 84.791 122.685V118.357H86.0557V126H84.791V124.852C84.5677 125.294 84.2624 125.629 83.875 125.856C83.4922 126.084 83.0433 126.198 82.5283 126.198C81.7445 126.198 81.1611 125.943 80.7783 125.433C80.3955 124.918 80.2041 124.141 80.2041 123.102ZM92.1055 122.151H91.6885C90.9548 122.151 90.401 122.281 90.0273 122.541C89.6582 122.796 89.4736 123.179 89.4736 123.689C89.4736 124.15 89.6126 124.507 89.8906 124.763C90.1686 125.018 90.5537 125.146 91.0459 125.146C91.7386 125.146 92.2832 124.906 92.6797 124.428C93.0762 123.945 93.2767 123.279 93.2812 122.432V122.151H92.1055ZM94.5459 121.632V126H93.2812V124.865C93.0124 125.321 92.6729 125.658 92.2627 125.877C91.8571 126.091 91.3626 126.198 90.7793 126.198C90 126.198 89.3779 125.979 88.9131 125.542C88.4482 125.1 88.2158 124.51 88.2158 123.771C88.2158 122.919 88.5007 122.272 89.0703 121.83C89.6445 121.388 90.4854 121.167 91.5928 121.167H93.2812V120.969C93.2767 120.358 93.1217 119.916 92.8164 119.643C92.5111 119.365 92.0234 119.226 91.3535 119.226C90.9251 119.226 90.4922 119.287 90.0547 119.41C89.6172 119.533 89.1911 119.713 88.7764 119.95V118.692C89.2412 118.515 89.6855 118.382 90.1094 118.296C90.5378 118.205 90.9525 118.159 91.3535 118.159C91.987 118.159 92.527 118.253 92.9736 118.439C93.4248 118.626 93.7894 118.907 94.0674 119.28C94.2406 119.508 94.3636 119.791 94.4365 120.128C94.5094 120.461 94.5459 120.962 94.5459 121.632ZM103.638 119.923C103.369 119.713 103.095 119.561 102.817 119.465C102.539 119.369 102.234 119.321 101.901 119.321C101.118 119.321 100.518 119.567 100.104 120.06C99.6888 120.552 99.4814 121.263 99.4814 122.192V126H98.2168V118.344H99.4814V119.841C99.6911 119.299 100.012 118.884 100.445 118.597C100.883 118.305 101.4 118.159 101.997 118.159C102.307 118.159 102.596 118.198 102.865 118.275C103.134 118.353 103.392 118.474 103.638 118.638V119.923ZM111.834 121.543V122.158H106.386V122.199C106.349 123.243 106.548 123.993 106.98 124.448C107.418 124.904 108.033 125.132 108.826 125.132C109.227 125.132 109.646 125.068 110.084 124.94C110.521 124.813 110.989 124.619 111.485 124.359V125.61C111.007 125.806 110.544 125.952 110.098 126.048C109.656 126.148 109.227 126.198 108.812 126.198C107.623 126.198 106.693 125.843 106.023 125.132C105.354 124.416 105.019 123.432 105.019 122.179C105.019 120.957 105.347 119.982 106.003 119.253C106.659 118.524 107.534 118.159 108.628 118.159C109.603 118.159 110.371 118.49 110.932 119.15C111.497 119.811 111.798 120.609 111.834 121.543ZM110.576 121.174C110.521 120.645 110.328 120.189 109.995 119.807C109.667 119.419 109.193 119.226 108.573 119.226C107.967 119.226 107.468 119.426 107.076 119.827C106.684 120.228 106.47 120.679 106.434 121.181L110.576 121.174ZM126.354 120.538C127.023 120.716 127.536 121.033 127.892 121.488C128.247 121.939 128.425 122.505 128.425 123.184C128.425 124.122 128.108 124.861 127.475 125.398C126.846 125.932 125.973 126.198 124.856 126.198C124.387 126.198 123.909 126.155 123.421 126.068C122.933 125.982 122.455 125.856 121.985 125.692V124.318C122.45 124.56 122.908 124.74 123.359 124.858C123.811 124.977 124.259 125.036 124.706 125.036C125.463 125.036 126.044 124.865 126.449 124.523C126.855 124.182 127.058 123.689 127.058 123.047C127.058 122.454 126.855 121.985 126.449 121.639C126.044 121.288 125.494 121.112 124.802 121.112H123.749V119.978H124.802C125.435 119.978 125.93 119.839 126.285 119.561C126.641 119.283 126.818 118.895 126.818 118.398C126.818 117.874 126.652 117.473 126.319 117.195C125.991 116.913 125.522 116.771 124.911 116.771C124.506 116.771 124.086 116.817 123.653 116.908C123.22 116.999 122.767 117.136 122.293 117.318V116.047C122.844 115.901 123.334 115.792 123.763 115.719C124.196 115.646 124.578 115.609 124.911 115.609C125.905 115.609 126.698 115.86 127.29 116.361C127.887 116.858 128.186 117.519 128.186 118.344C128.186 118.904 128.028 119.371 127.714 119.745C127.404 120.119 126.951 120.383 126.354 120.538ZM136.751 163.363V164.409H135.322C134.871 164.409 134.557 164.503 134.379 164.689C134.206 164.872 134.119 165.198 134.119 165.667V166.344H136.751V167.321H134.119V174H132.861V167.321H130.817V166.344H132.861V165.811C132.861 164.972 133.053 164.354 133.436 163.958C133.823 163.562 134.424 163.363 135.24 163.363H136.751ZM142.719 170.151H142.302C141.568 170.151 141.014 170.281 140.641 170.541C140.271 170.796 140.087 171.179 140.087 171.689C140.087 172.15 140.226 172.507 140.504 172.763C140.782 173.018 141.167 173.146 141.659 173.146C142.352 173.146 142.896 172.906 143.293 172.428C143.689 171.945 143.89 171.279 143.895 170.432V170.151H142.719ZM145.159 169.632V174H143.895V172.865C143.626 173.321 143.286 173.658 142.876 173.877C142.47 174.091 141.976 174.198 141.393 174.198C140.613 174.198 139.991 173.979 139.526 173.542C139.062 173.1 138.829 172.51 138.829 171.771C138.829 170.919 139.114 170.272 139.684 169.83C140.258 169.388 141.099 169.167 142.206 169.167H143.895V168.969C143.89 168.358 143.735 167.916 143.43 167.643C143.124 167.365 142.637 167.226 141.967 167.226C141.538 167.226 141.105 167.287 140.668 167.41C140.23 167.533 139.804 167.713 139.39 167.95V166.692C139.854 166.515 140.299 166.382 140.723 166.296C141.151 166.205 141.566 166.159 141.967 166.159C142.6 166.159 143.14 166.253 143.587 166.439C144.038 166.626 144.403 166.907 144.681 167.28C144.854 167.508 144.977 167.791 145.05 168.128C145.123 168.461 145.159 168.962 145.159 169.632ZM153.608 173.61C153.271 173.806 152.923 173.952 152.562 174.048C152.207 174.148 151.842 174.198 151.469 174.198C150.284 174.198 149.356 173.843 148.687 173.132C148.021 172.421 147.688 171.437 147.688 170.179C147.688 168.921 148.021 167.937 148.687 167.226C149.356 166.515 150.284 166.159 151.469 166.159C151.838 166.159 152.198 166.207 152.549 166.303C152.9 166.398 153.253 166.547 153.608 166.747V168.066C153.276 167.77 152.941 167.556 152.604 167.424C152.271 167.292 151.893 167.226 151.469 167.226C150.68 167.226 150.074 167.481 149.65 167.991C149.227 168.502 149.015 169.231 149.015 170.179C149.015 171.122 149.227 171.851 149.65 172.366C150.079 172.877 150.685 173.132 151.469 173.132C151.906 173.132 152.298 173.066 152.645 172.934C152.991 172.797 153.312 172.587 153.608 172.305V173.61ZM158.988 164.17V166.344H161.846V167.321H158.988V171.478C158.988 172.043 159.095 172.437 159.31 172.66C159.524 172.883 159.897 172.995 160.431 172.995H161.846V174H160.308C159.364 174 158.699 173.811 158.312 173.433C157.924 173.054 157.73 172.403 157.73 171.478V167.321H155.687V166.344H157.73V164.17H158.988ZM179.305 166.344L176.563 170.008L179.571 174H178.115L175.873 170.931L173.638 174H172.182L175.189 170.008L172.448 166.344H173.843L175.873 169.112L177.89 166.344H179.305ZM189.135 170.582H196.36V171.737H189.135V170.582ZM189.135 167.362H196.36V168.518H189.135V167.362ZM111.82 190.344L109.079 194.008L112.087 198H110.631L108.389 194.931L106.153 198H104.697L107.705 194.008L104.964 190.344H106.358L108.389 193.112L110.405 190.344H111.82ZM128.876 191.431L123.065 193.618L128.876 195.785V197.036L121.65 194.179V193.044L128.876 190.187V191.431ZM130.086 194.582H137.312V195.737H130.086V194.582ZM130.086 191.362H137.312V192.518H130.086V191.362ZM148.201 196.845H150.348V189.134L147.777 190.371V189.045L150.334 187.828H151.715V196.845H153.834V198H148.201V196.845ZM207.25 196.845H209.396V189.134L206.826 190.371V189.045L209.383 187.828H210.764V196.845H212.883V198H207.25V196.845ZM272.096 190.344L269.354 194.008L272.362 198H270.906L268.664 194.931L266.429 198H264.973L267.98 194.008L265.239 190.344H266.634L268.664 193.112L270.681 190.344H272.096ZM289.384 192.046L286.349 193.687L289.384 195.334L288.905 196.168L286.048 194.452V197.638H285.07V194.452L282.213 196.168L281.734 195.334L284.776 193.687L281.734 192.046L282.213 191.205L285.07 192.921V189.735H286.048V192.921L288.905 191.205L289.384 192.046ZM305.462 187.363V188.409H304.033C303.582 188.409 303.268 188.503 303.09 188.689C302.917 188.872 302.83 189.198 302.83 189.667V190.344H305.462V191.321H302.83V198H301.572V191.321H299.528V190.344H301.572V189.811C301.572 188.972 301.764 188.354 302.146 187.958C302.534 187.562 303.135 187.363 303.951 187.363H305.462ZM311.43 194.151H311.013C310.279 194.151 309.725 194.281 309.352 194.541C308.982 194.796 308.798 195.179 308.798 195.689C308.798 196.15 308.937 196.507 309.215 196.763C309.493 197.018 309.878 197.146 310.37 197.146C311.063 197.146 311.607 196.906 312.004 196.428C312.4 195.945 312.601 195.279 312.605 194.432V194.151H311.43ZM313.87 193.632V198H312.605V196.865C312.337 197.321 311.997 197.658 311.587 197.877C311.181 198.091 310.687 198.198 310.104 198.198C309.324 198.198 308.702 197.979 308.237 197.542C307.772 197.1 307.54 196.51 307.54 195.771C307.54 194.919 307.825 194.272 308.395 193.83C308.969 193.388 309.81 193.167 310.917 193.167H312.605V192.969C312.601 192.358 312.446 191.916 312.141 191.643C311.835 191.365 311.348 191.226 310.678 191.226C310.249 191.226 309.816 191.287 309.379 191.41C308.941 191.533 308.515 191.713 308.101 191.95V190.692C308.565 190.515 309.01 190.382 309.434 190.296C309.862 190.205 310.277 190.159 310.678 190.159C311.311 190.159 311.851 190.253 312.298 190.439C312.749 190.626 313.114 190.907 313.392 191.28C313.565 191.508 313.688 191.791 313.761 192.128C313.834 192.461 313.87 192.962 313.87 193.632ZM322.319 197.61C321.982 197.806 321.633 197.952 321.273 198.048C320.918 198.148 320.553 198.198 320.18 198.198C318.995 198.198 318.067 197.843 317.397 197.132C316.732 196.421 316.399 195.437 316.399 194.179C316.399 192.921 316.732 191.937 317.397 191.226C318.067 190.515 318.995 190.159 320.18 190.159C320.549 190.159 320.909 190.207 321.26 190.303C321.611 190.398 321.964 190.547 322.319 190.747V192.066C321.987 191.77 321.652 191.556 321.314 191.424C320.982 191.292 320.604 191.226 320.18 191.226C319.391 191.226 318.785 191.481 318.361 191.991C317.938 192.502 317.726 193.231 317.726 194.179C317.726 195.122 317.938 195.851 318.361 196.366C318.79 196.877 319.396 197.132 320.18 197.132C320.617 197.132 321.009 197.066 321.355 196.934C321.702 196.797 322.023 196.587 322.319 196.305V197.61ZM327.699 188.17V190.344H330.557V191.321H327.699V195.478C327.699 196.043 327.806 196.437 328.021 196.66C328.235 196.883 328.608 196.995 329.142 196.995H330.557V198H329.019C328.075 198 327.41 197.811 327.022 197.433C326.635 197.054 326.441 196.403 326.441 195.478V191.321H324.397V190.344H326.441V188.17H327.699ZM346.218 186.693C345.612 187.732 345.158 188.769 344.857 189.804C344.561 190.834 344.413 191.873 344.413 192.921C344.413 193.965 344.561 195.004 344.857 196.038C345.158 197.073 345.612 198.114 346.218 199.162H345.124C344.436 198.077 343.923 197.022 343.586 195.997C343.249 194.967 343.08 193.942 343.08 192.921C343.08 191.905 343.249 190.882 343.586 189.852C343.923 188.822 344.436 187.769 345.124 186.693H346.218ZM356.451 190.344L353.71 194.008L356.718 198H355.262L353.02 194.931L350.784 198H349.328L352.336 194.008L349.595 190.344H350.989L353.02 193.112L355.036 190.344H356.451ZM366.377 193.051H373.623V194.206H366.377V193.051ZM384.396 196.845H386.543V189.134L383.973 190.371V189.045L386.529 187.828H387.91V196.845H390.029V198H384.396V196.845ZM393.365 186.693H394.459C395.147 187.769 395.66 188.822 395.997 189.852C396.334 190.882 396.503 191.905 396.503 192.921C396.503 193.946 396.334 194.974 395.997 196.004C395.66 197.034 395.147 198.087 394.459 199.162H393.365C393.971 198.105 394.423 197.059 394.719 196.024C395.02 194.99 395.17 193.955 395.17 192.921C395.17 191.882 395.02 190.845 394.719 189.811C394.423 188.776 393.971 187.737 393.365 186.693ZM69.2666 235.363V236.409H67.8379C67.3867 236.409 67.0723 236.503 66.8945 236.689C66.7214 236.872 66.6348 237.198 66.6348 237.667V238.344H69.2666V239.321H66.6348V246H65.377V239.321H63.333V238.344H65.377V237.811C65.377 236.972 65.5684 236.354 65.9512 235.958C66.3385 235.562 66.9401 235.363 67.7559 235.363H69.2666ZM75.2344 242.151H74.8174C74.0837 242.151 73.5299 242.281 73.1562 242.541C72.7871 242.796 72.6025 243.179 72.6025 243.689C72.6025 244.15 72.7415 244.507 73.0195 244.763C73.2975 245.018 73.6826 245.146 74.1748 245.146C74.8675 245.146 75.4121 244.906 75.8086 244.428C76.2051 243.945 76.4056 243.279 76.4102 242.432V242.151H75.2344ZM77.6748 241.632V246H76.4102V244.865C76.1413 245.321 75.8018 245.658 75.3916 245.877C74.986 246.091 74.4915 246.198 73.9082 246.198C73.1289 246.198 72.5068 245.979 72.042 245.542C71.5771 245.1 71.3447 244.51 71.3447 243.771C71.3447 242.919 71.6296 242.272 72.1992 241.83C72.7734 241.388 73.6143 241.167 74.7217 241.167H76.4102V240.969C76.4056 240.358 76.2507 239.916 75.9453 239.643C75.64 239.365 75.1523 239.226 74.4824 239.226C74.054 239.226 73.6211 239.287 73.1836 239.41C72.7461 239.533 72.32 239.713 71.9053 239.95V238.692C72.3701 238.515 72.8145 238.382 73.2383 238.296C73.6667 238.205 74.0814 238.159 74.4824 238.159C75.1159 238.159 75.6559 238.253 76.1025 238.439C76.5537 238.626 76.9183 238.907 77.1963 239.28C77.3695 239.508 77.4925 239.791 77.5654 240.128C77.6383 240.461 77.6748 240.962 77.6748 241.632ZM86.124 245.61C85.7868 245.806 85.4382 245.952 85.0781 246.048C84.7227 246.148 84.3581 246.198 83.9844 246.198C82.7995 246.198 81.8721 245.843 81.2021 245.132C80.5368 244.421 80.2041 243.437 80.2041 242.179C80.2041 240.921 80.5368 239.937 81.2021 239.226C81.8721 238.515 82.7995 238.159 83.9844 238.159C84.3535 238.159 84.7135 238.207 85.0645 238.303C85.4154 238.398 85.7686 238.547 86.124 238.747V240.066C85.7913 239.77 85.4564 239.556 85.1191 239.424C84.7865 239.292 84.4082 239.226 83.9844 239.226C83.196 239.226 82.5898 239.481 82.166 239.991C81.7422 240.502 81.5303 241.231 81.5303 242.179C81.5303 243.122 81.7422 243.851 82.166 244.366C82.5944 244.877 83.2005 245.132 83.9844 245.132C84.4219 245.132 84.8138 245.066 85.1602 244.934C85.5065 244.797 85.8278 244.587 86.124 244.305V245.61ZM91.5039 236.17V238.344H94.3613V239.321H91.5039V243.478C91.5039 244.043 91.611 244.437 91.8252 244.66C92.0394 244.883 92.4131 244.995 92.9463 244.995H94.3613V246H92.8232C91.8799 246 91.2145 245.811 90.8271 245.433C90.4398 245.054 90.2461 244.403 90.2461 243.478V239.321H88.2021V238.344H90.2461V236.17H91.5039ZM105.593 235.794H110.761V236.956H106.851V239.465C107.047 239.392 107.243 239.34 107.438 239.308C107.639 239.271 107.84 239.253 108.04 239.253C109.097 239.253 109.936 239.565 110.556 240.189C111.175 240.814 111.485 241.659 111.485 242.726C111.485 243.801 111.16 244.649 110.508 245.269C109.861 245.888 108.974 246.198 107.849 246.198C107.306 246.198 106.81 246.162 106.358 246.089C105.912 246.016 105.511 245.907 105.155 245.761V244.359C105.575 244.587 105.996 244.758 106.42 244.872C106.844 244.981 107.277 245.036 107.719 245.036C108.48 245.036 109.065 244.836 109.476 244.435C109.89 244.034 110.098 243.464 110.098 242.726C110.098 241.996 109.883 241.429 109.455 241.023C109.031 240.618 108.439 240.415 107.678 240.415C107.309 240.415 106.949 240.458 106.598 240.545C106.247 240.627 105.912 240.752 105.593 240.921V235.794ZM68.6514 286.61V287.841C68.2913 287.631 67.929 287.474 67.5645 287.369C67.1999 287.264 66.8285 287.212 66.4502 287.212C65.8805 287.212 65.4544 287.305 65.1719 287.492C64.8939 287.674 64.7549 287.955 64.7549 288.333C64.7549 288.675 64.8597 288.93 65.0693 289.099C65.279 289.267 65.8008 289.431 66.6348 289.591L67.1406 289.687C67.765 289.805 68.2367 290.042 68.5557 290.397C68.8792 290.753 69.041 291.215 69.041 291.785C69.041 292.542 68.7721 293.134 68.2344 293.562C67.6966 293.986 66.9492 294.198 65.9922 294.198C65.6139 294.198 65.2174 294.157 64.8027 294.075C64.388 293.998 63.9391 293.879 63.4561 293.72V292.421C63.9255 292.662 64.3743 292.845 64.8027 292.968C65.2311 293.086 65.6367 293.146 66.0195 293.146C66.5755 293.146 67.0062 293.034 67.3115 292.811C67.6169 292.583 67.7695 292.266 67.7695 291.86C67.7695 291.277 67.2113 290.874 66.0947 290.65L66.04 290.637L65.5684 290.541C64.8438 290.4 64.3151 290.163 63.9824 289.83C63.6497 289.493 63.4834 289.035 63.4834 288.456C63.4834 287.722 63.7318 287.157 64.2285 286.761C64.7253 286.36 65.4339 286.159 66.3545 286.159C66.7646 286.159 67.1589 286.198 67.5371 286.275C67.9154 286.348 68.2868 286.46 68.6514 286.61ZM72.7051 290.206C72.7051 291.181 72.8577 291.917 73.1631 292.414C73.473 292.911 73.931 293.159 74.5371 293.159C75.1432 293.159 75.6012 292.911 75.9111 292.414C76.2256 291.913 76.3828 291.177 76.3828 290.206C76.3828 289.235 76.2256 288.502 75.9111 288.005C75.6012 287.504 75.1432 287.253 74.5371 287.253C73.931 287.253 73.473 287.501 73.1631 287.998C72.8577 288.495 72.7051 289.231 72.7051 290.206ZM76.3828 293.05C76.1777 293.428 75.8997 293.72 75.5488 293.925C75.2025 294.125 74.7992 294.226 74.3389 294.226C73.4229 294.226 72.6982 293.872 72.165 293.166C71.6364 292.455 71.3721 291.478 71.3721 290.233C71.3721 288.966 71.6364 287.975 72.165 287.26C72.6937 286.544 73.4183 286.187 74.3389 286.187C74.7946 286.187 75.1956 286.287 75.542 286.487C75.8929 286.683 76.1732 286.97 76.3828 287.349V286.371H77.6475V296.939H76.3828V293.05ZM80.2041 291.102V286.357H81.4619V291.102C81.4619 291.79 81.5827 292.296 81.8242 292.619C82.0703 292.943 82.4486 293.104 82.959 293.104C83.5514 293.104 84.0049 292.897 84.3193 292.482C84.6338 292.063 84.791 291.464 84.791 290.685V286.357H86.0557V294H84.791V292.852C84.5677 293.294 84.2624 293.629 83.875 293.856C83.4922 294.084 83.0433 294.198 82.5283 294.198C81.7445 294.198 81.1611 293.943 80.7783 293.433C80.3955 292.918 80.2041 292.141 80.2041 291.102ZM92.1055 290.151H91.6885C90.9548 290.151 90.401 290.281 90.0273 290.541C89.6582 290.796 89.4736 291.179 89.4736 291.689C89.4736 292.15 89.6126 292.507 89.8906 292.763C90.1686 293.018 90.5537 293.146 91.0459 293.146C91.7386 293.146 92.2832 292.906 92.6797 292.428C93.0762 291.945 93.2767 291.279 93.2812 290.432V290.151H92.1055ZM94.5459 289.632V294H93.2812V292.865C93.0124 293.321 92.6729 293.658 92.2627 293.877C91.8571 294.091 91.3626 294.198 90.7793 294.198C90 294.198 89.3779 293.979 88.9131 293.542C88.4482 293.1 88.2158 292.51 88.2158 291.771C88.2158 290.919 88.5007 290.272 89.0703 289.83C89.6445 289.388 90.4854 289.167 91.5928 289.167H93.2812V288.969C93.2767 288.358 93.1217 287.916 92.8164 287.643C92.5111 287.365 92.0234 287.226 91.3535 287.226C90.9251 287.226 90.4922 287.287 90.0547 287.41C89.6172 287.533 89.1911 287.713 88.7764 287.95V286.692C89.2412 286.515 89.6855 286.382 90.1094 286.296C90.5378 286.205 90.9525 286.159 91.3535 286.159C91.987 286.159 92.527 286.253 92.9736 286.439C93.4248 286.626 93.7894 286.907 94.0674 287.28C94.2406 287.508 94.3636 287.791 94.4365 288.128C94.5094 288.461 94.5459 288.962 94.5459 289.632ZM103.638 287.923C103.369 287.713 103.095 287.561 102.817 287.465C102.539 287.369 102.234 287.321 101.901 287.321C101.118 287.321 100.518 287.567 100.104 288.06C99.6888 288.552 99.4814 289.263 99.4814 290.192V294H98.2168V286.344H99.4814V287.841C99.6911 287.299 100.012 286.884 100.445 286.597C100.883 286.305 101.4 286.159 101.997 286.159C102.307 286.159 102.596 286.198 102.865 286.275C103.134 286.353 103.392 286.474 103.638 286.638V287.923ZM111.834 289.543V290.158H106.386V290.199C106.349 291.243 106.548 291.993 106.98 292.448C107.418 292.904 108.033 293.132 108.826 293.132C109.227 293.132 109.646 293.068 110.084 292.94C110.521 292.813 110.989 292.619 111.485 292.359V293.61C111.007 293.806 110.544 293.952 110.098 294.048C109.656 294.148 109.227 294.198 108.812 294.198C107.623 294.198 106.693 293.843 106.023 293.132C105.354 292.416 105.019 291.432 105.019 290.179C105.019 288.957 105.347 287.982 106.003 287.253C106.659 286.524 107.534 286.159 108.628 286.159C109.603 286.159 110.371 286.49 110.932 287.15C111.497 287.811 111.798 288.609 111.834 289.543ZM110.576 289.174C110.521 288.645 110.328 288.189 109.995 287.807C109.667 287.419 109.193 287.226 108.573 287.226C107.967 287.226 107.468 287.426 107.076 287.827C106.684 288.228 106.47 288.679 106.434 289.181L110.576 289.174ZM122.895 292.845H125.041V285.134L122.471 286.371V285.045L125.027 283.828H126.408V292.845H128.527V294H122.895V292.845ZM132.034 292.838H136.724V294H130.523V292.838C131.376 291.94 132.121 291.147 132.759 290.459C133.397 289.771 133.837 289.285 134.078 289.003C134.534 288.447 134.841 287.998 135.001 287.656C135.16 287.31 135.24 286.957 135.24 286.597C135.24 286.027 135.072 285.58 134.734 285.257C134.402 284.933 133.944 284.771 133.36 284.771C132.946 284.771 132.51 284.847 132.055 284.997C131.599 285.147 131.116 285.375 130.605 285.681V284.286C131.075 284.063 131.535 283.894 131.986 283.78C132.442 283.666 132.891 283.609 133.333 283.609C134.331 283.609 135.133 283.876 135.739 284.409C136.35 284.938 136.655 285.633 136.655 286.494C136.655 286.932 136.553 287.369 136.348 287.807C136.147 288.244 135.819 288.727 135.363 289.256C135.108 289.552 134.737 289.962 134.249 290.486C133.766 291.01 133.028 291.794 132.034 292.838ZM142.131 283.644C143.22 283.644 144.043 284.088 144.599 284.977C145.159 285.865 145.439 287.18 145.439 288.921C145.439 290.662 145.159 291.977 144.599 292.865C144.043 293.754 143.22 294.198 142.131 294.198C141.042 294.198 140.219 293.754 139.663 292.865C139.107 291.977 138.829 290.662 138.829 288.921C138.829 287.18 139.107 285.865 139.663 284.977C140.219 284.088 141.042 283.644 142.131 283.644ZM142.131 293.104C142.778 293.104 143.259 292.76 143.573 292.072C143.892 291.384 144.052 290.334 144.052 288.921C144.052 288.169 144.006 287.49 143.915 286.884L140.661 291.977C141.003 292.729 141.493 293.104 142.131 293.104ZM142.131 284.737C141.488 284.737 141.007 285.081 140.688 285.77C140.374 286.458 140.217 287.508 140.217 288.921C140.217 289.563 140.26 290.165 140.347 290.726L143.532 285.646C143.186 285.04 142.719 284.737 142.131 284.737Z" fill="white"/>
<path d="M102.394 70.6104V71.8408C102.034 71.6312 101.671 71.474 101.307 71.3691C100.942 71.2643 100.571 71.2119 100.192 71.2119C99.6227 71.2119 99.1966 71.3053 98.9141 71.4922C98.6361 71.6745 98.4971 71.9548 98.4971 72.333C98.4971 72.6748 98.6019 72.93 98.8115 73.0986C99.0212 73.2673 99.543 73.4313 100.377 73.5908L100.883 73.6865C101.507 73.805 101.979 74.042 102.298 74.3975C102.621 74.7529 102.783 75.2155 102.783 75.7852C102.783 76.5417 102.514 77.1341 101.977 77.5625C101.439 77.9863 100.691 78.1982 99.7344 78.1982C99.3561 78.1982 98.9596 78.1572 98.5449 78.0752C98.1302 77.9977 97.6813 77.8792 97.1982 77.7197V76.4209C97.6676 76.6624 98.1165 76.8447 98.5449 76.9678C98.9733 77.0863 99.3789 77.1455 99.7617 77.1455C100.318 77.1455 100.748 77.0339 101.054 76.8105C101.359 76.5827 101.512 76.266 101.512 75.8604C101.512 75.277 100.953 74.8737 99.8369 74.6504L99.7822 74.6367L99.3105 74.541C98.5859 74.3997 98.0573 74.1628 97.7246 73.8301C97.3919 73.4928 97.2256 73.0348 97.2256 72.4561C97.2256 71.7223 97.474 71.1572 97.9707 70.7607C98.4674 70.3597 99.1761 70.1592 100.097 70.1592C100.507 70.1592 100.901 70.1979 101.279 70.2754C101.658 70.3483 102.029 70.46 102.394 70.6104ZM106.447 74.2061C106.447 75.1813 106.6 75.9173 106.905 76.4141C107.215 76.9108 107.673 77.1592 108.279 77.1592C108.885 77.1592 109.343 76.9108 109.653 76.4141C109.968 75.9128 110.125 75.1768 110.125 74.2061C110.125 73.2354 109.968 72.5016 109.653 72.0049C109.343 71.5036 108.885 71.2529 108.279 71.2529C107.673 71.2529 107.215 71.5013 106.905 71.998C106.6 72.4948 106.447 73.2308 106.447 74.2061ZM110.125 77.0498C109.92 77.4281 109.642 77.7197 109.291 77.9248C108.945 78.1253 108.541 78.2256 108.081 78.2256C107.165 78.2256 106.44 77.8724 105.907 77.166C105.379 76.4551 105.114 75.4775 105.114 74.2334C105.114 72.9665 105.379 71.9753 105.907 71.2598C106.436 70.5443 107.16 70.1865 108.081 70.1865C108.537 70.1865 108.938 70.2868 109.284 70.4873C109.635 70.6833 109.915 70.9704 110.125 71.3486V70.3711H111.39V80.9395H110.125V77.0498ZM113.946 75.1016V70.3574H115.204V75.1016C115.204 75.7897 115.325 76.2956 115.566 76.6191C115.812 76.9427 116.191 77.1045 116.701 77.1045C117.294 77.1045 117.747 76.8971 118.062 76.4824C118.376 76.0632 118.533 75.4639 118.533 74.6846V70.3574H119.798V78H118.533V76.8516C118.31 77.2936 118.005 77.6286 117.617 77.8564C117.234 78.0843 116.785 78.1982 116.271 78.1982C115.487 78.1982 114.903 77.943 114.521 77.4326C114.138 76.9176 113.946 76.1406 113.946 75.1016ZM125.848 74.1514H125.431C124.697 74.1514 124.143 74.2812 123.77 74.541C123.4 74.7962 123.216 75.179 123.216 75.6895C123.216 76.1497 123.355 76.5075 123.633 76.7627C123.911 77.0179 124.296 77.1455 124.788 77.1455C125.481 77.1455 126.025 76.9062 126.422 76.4277C126.818 75.9447 127.019 75.2793 127.023 74.4316V74.1514H125.848ZM128.288 73.6318V78H127.023V76.8652C126.755 77.321 126.415 77.6582 126.005 77.877C125.599 78.0911 125.105 78.1982 124.521 78.1982C123.742 78.1982 123.12 77.9795 122.655 77.542C122.19 77.0999 121.958 76.5098 121.958 75.7715C121.958 74.9193 122.243 74.2721 122.812 73.8301C123.387 73.388 124.228 73.167 125.335 73.167H127.023V72.9688C127.019 72.3581 126.864 71.916 126.559 71.6426C126.253 71.3646 125.766 71.2256 125.096 71.2256C124.667 71.2256 124.234 71.2871 123.797 71.4102C123.359 71.5332 122.933 71.7132 122.519 71.9502V70.6924C122.983 70.5146 123.428 70.3825 123.852 70.2959C124.28 70.2048 124.695 70.1592 125.096 70.1592C125.729 70.1592 126.269 70.2526 126.716 70.4395C127.167 70.6263 127.532 70.9066 127.81 71.2803C127.983 71.5081 128.106 71.7907 128.179 72.1279C128.252 72.4606 128.288 72.9619 128.288 73.6318ZM137.38 71.9229C137.111 71.7132 136.838 71.5605 136.56 71.4648C136.282 71.3691 135.976 71.3213 135.644 71.3213C134.86 71.3213 134.26 71.5674 133.846 72.0596C133.431 72.5518 133.224 73.2627 133.224 74.1924V78H131.959V70.3438H133.224V71.8408C133.433 71.2985 133.755 70.8838 134.188 70.5967C134.625 70.305 135.142 70.1592 135.739 70.1592C136.049 70.1592 136.339 70.1979 136.607 70.2754C136.876 70.3529 137.134 70.4736 137.38 70.6377V71.9229ZM145.576 73.543V74.1582H140.128V74.1992C140.091 75.2428 140.29 75.9925 140.723 76.4482C141.16 76.904 141.775 77.1318 142.568 77.1318C142.969 77.1318 143.389 77.068 143.826 76.9404C144.264 76.8128 144.731 76.6191 145.228 76.3594V77.6104C144.749 77.8063 144.286 77.9521 143.84 78.0479C143.398 78.1481 142.969 78.1982 142.555 78.1982C141.365 78.1982 140.436 77.8428 139.766 77.1318C139.096 76.4163 138.761 75.432 138.761 74.1787C138.761 72.9574 139.089 71.9821 139.745 71.2529C140.401 70.5238 141.276 70.1592 142.37 70.1592C143.345 70.1592 144.113 70.4896 144.674 71.1504C145.239 71.8112 145.54 72.6087 145.576 73.543ZM144.318 73.1738C144.264 72.6452 144.07 72.1895 143.737 71.8066C143.409 71.4193 142.935 71.2256 142.315 71.2256C141.709 71.2256 141.21 71.4261 140.818 71.8271C140.426 72.2282 140.212 72.6794 140.176 73.1807L144.318 73.1738ZM103.638 167.923C103.369 167.713 103.095 167.561 102.817 167.465C102.539 167.369 102.234 167.321 101.901 167.321C101.118 167.321 100.518 167.567 100.104 168.06C99.6888 168.552 99.4814 169.263 99.4814 170.192V174H98.2168V166.344H99.4814V167.841C99.6911 167.299 100.012 166.884 100.445 166.597C100.883 166.305 101.4 166.159 101.997 166.159C102.307 166.159 102.596 166.198 102.865 166.275C103.134 166.353 103.392 166.474 103.638 166.638V167.923ZM111.834 169.543V170.158H106.386V170.199C106.349 171.243 106.548 171.993 106.98 172.448C107.418 172.904 108.033 173.132 108.826 173.132C109.227 173.132 109.646 173.068 110.084 172.94C110.521 172.813 110.989 172.619 111.485 172.359V173.61C111.007 173.806 110.544 173.952 110.098 174.048C109.656 174.148 109.227 174.198 108.812 174.198C107.623 174.198 106.693 173.843 106.023 173.132C105.354 172.416 105.019 171.432 105.019 170.179C105.019 168.957 105.347 167.982 106.003 167.253C106.659 166.524 107.534 166.159 108.628 166.159C109.603 166.159 110.371 166.49 110.932 167.15C111.497 167.811 111.798 168.609 111.834 169.543ZM110.576 169.174C110.521 168.645 110.328 168.189 109.995 167.807C109.667 167.419 109.193 167.226 108.573 167.226C107.967 167.226 107.468 167.426 107.076 167.827C106.684 168.228 106.47 168.679 106.434 169.181L110.576 169.174ZM119.866 173.61C119.529 173.806 119.18 173.952 118.82 174.048C118.465 174.148 118.1 174.198 117.727 174.198C116.542 174.198 115.614 173.843 114.944 173.132C114.279 172.421 113.946 171.437 113.946 170.179C113.946 168.921 114.279 167.937 114.944 167.226C115.614 166.515 116.542 166.159 117.727 166.159C118.096 166.159 118.456 166.207 118.807 166.303C119.158 166.398 119.511 166.547 119.866 166.747V168.066C119.534 167.77 119.199 167.556 118.861 167.424C118.529 167.292 118.15 167.226 117.727 167.226C116.938 167.226 116.332 167.481 115.908 167.991C115.484 168.502 115.272 169.231 115.272 170.179C115.272 171.122 115.484 171.851 115.908 172.366C116.337 172.877 116.943 173.132 117.727 173.132C118.164 173.132 118.556 173.066 118.902 172.934C119.249 172.797 119.57 172.587 119.866 172.305V173.61Z" fill="#DCDCAA"/>
<path d="M63.2441 94.3438H64.4609L65.5137 100.879L68.9453 94.3438H70.2988L66.1016 102H64.4746L63.2441 94.3438ZM75.166 98.1514C74.6237 98.1514 74.2204 98.1696 73.9561 98.2061C73.6917 98.238 73.4616 98.2949 73.2656 98.377C72.9557 98.5 72.7074 98.7028 72.5205 98.9854C72.3337 99.2633 72.2402 99.5687 72.2402 99.9014C72.2402 100.28 72.3564 100.583 72.5889 100.811C72.8258 101.034 73.1449 101.146 73.5459 101.146C74.2204 101.146 74.8014 100.904 75.2891 100.421C75.7812 99.9378 76.1139 99.2747 76.2871 98.4316L76.3418 98.1514H75.166ZM77.7021 97.6318L76.8477 102H75.5898L75.8086 100.865C75.4805 101.294 75.0931 101.624 74.6465 101.856C74.1999 102.084 73.7259 102.198 73.2246 102.198C72.5273 102.198 71.9691 102.009 71.5498 101.631C71.1351 101.248 70.9277 100.742 70.9277 100.113C70.9277 99.2201 71.2786 98.5068 71.9805 97.9736C72.6868 97.4359 73.6416 97.167 74.8447 97.167H76.5264L76.6084 96.75C76.6175 96.709 76.6243 96.6657 76.6289 96.6201C76.6335 96.5745 76.6357 96.5107 76.6357 96.4287C76.6357 96.0413 76.4922 95.7451 76.2051 95.54C75.918 95.3304 75.5078 95.2256 74.9746 95.2256C74.5827 95.2256 74.1589 95.2848 73.7031 95.4033C73.252 95.5173 72.7734 95.6904 72.2676 95.9229L72.5068 94.6924C72.999 94.5146 73.4661 94.3825 73.9082 94.2959C74.3503 94.2048 74.7741 94.1592 75.1797 94.1592C76.0273 94.1592 76.6859 94.346 77.1553 94.7197C77.6292 95.0934 77.8662 95.6107 77.8662 96.2715C77.8662 96.4173 77.8525 96.6087 77.8252 96.8457C77.7979 97.0827 77.7568 97.3447 77.7021 97.6318ZM82.9727 99.2109C82.9408 99.3704 82.9157 99.5117 82.8975 99.6348C82.8838 99.7578 82.877 99.8604 82.877 99.9424C82.877 100.275 82.9772 100.523 83.1777 100.688C83.3828 100.852 83.6927 100.934 84.1074 100.934H85.5498L85.3379 102H83.9229C83.1344 102 82.5465 101.856 82.1592 101.569C81.7764 101.278 81.585 100.833 81.585 100.236C81.585 100.109 81.5964 99.9538 81.6191 99.7715C81.6419 99.5892 81.6738 99.3932 81.7148 99.1836L83.1572 92.2725H80.9971L81.1953 91.2881H84.6133L82.9727 99.2109ZM103.104 94.6104L102.865 95.8408C102.542 95.6357 102.2 95.4808 101.84 95.376C101.484 95.2666 101.131 95.2119 100.78 95.2119C100.156 95.2119 99.6706 95.3281 99.3242 95.5605C98.9824 95.793 98.8115 96.1188 98.8115 96.5381C98.8115 96.9847 99.3151 97.3356 100.322 97.5908C100.391 97.609 100.441 97.6227 100.473 97.6318L100.965 97.7549C101.498 97.8962 101.897 98.1081 102.161 98.3906C102.425 98.6686 102.558 99.0173 102.558 99.4365C102.558 100.261 102.229 100.929 101.573 101.439C100.917 101.945 100.047 102.198 98.9619 102.198C98.5928 102.198 98.2077 102.157 97.8066 102.075C97.4056 101.998 96.9795 101.879 96.5283 101.72L96.7812 100.421C97.2096 100.662 97.6243 100.845 98.0254 100.968C98.431 101.086 98.8229 101.146 99.2012 101.146C99.8073 101.146 100.302 101.011 100.685 100.742C101.067 100.469 101.259 100.122 101.259 99.7031C101.259 99.252 100.812 98.9079 99.9189 98.6709C99.8369 98.6527 99.7731 98.6367 99.7275 98.623L99.2695 98.5C98.6816 98.3496 98.2487 98.1286 97.9707 97.8369C97.6973 97.5452 97.5605 97.1647 97.5605 96.6953C97.5605 95.9206 97.8613 95.3053 98.4629 94.8496C99.0645 94.3893 99.8757 94.1592 100.896 94.1592C101.298 94.1592 101.683 94.1979 102.052 94.2754C102.421 94.3483 102.772 94.46 103.104 94.6104ZM109.469 101.036C109.191 101.419 108.863 101.708 108.484 101.904C108.111 102.1 107.691 102.198 107.227 102.198C106.479 102.198 105.896 101.964 105.477 101.494C105.057 101.02 104.848 100.357 104.848 99.5049C104.848 98.8577 104.941 98.2038 105.128 97.543C105.315 96.8822 105.572 96.2965 105.9 95.7861C106.242 95.2484 106.65 94.8428 107.124 94.5693C107.603 94.2959 108.138 94.1592 108.73 94.1592C109.186 94.1592 109.567 94.2572 109.872 94.4531C110.182 94.6445 110.417 94.9339 110.576 95.3213L110.761 94.3438H112.019L109.975 104.912H108.717L109.469 101.036ZM108.744 95.2256C108.357 95.2256 108.008 95.3258 107.698 95.5264C107.388 95.7269 107.129 96.0231 106.919 96.415C106.696 96.8434 106.518 97.3219 106.386 97.8506C106.258 98.3792 106.194 98.8896 106.194 99.3818C106.194 99.9652 106.308 100.403 106.536 100.694C106.769 100.986 107.117 101.132 107.582 101.132C107.956 101.132 108.3 101.029 108.614 100.824C108.929 100.615 109.2 100.312 109.428 99.915C109.646 99.5277 109.822 99.0674 109.954 98.5342C110.086 97.9964 110.152 97.4723 110.152 96.9619C110.152 96.4014 110.029 95.973 109.783 95.6768C109.542 95.376 109.195 95.2256 108.744 95.2256ZM113.591 99.0879L114.5 94.3438H115.765L114.842 99.0879C114.81 99.2565 114.785 99.4183 114.767 99.5732C114.748 99.7282 114.739 99.8604 114.739 99.9697C114.739 100.33 114.844 100.608 115.054 100.804C115.268 100.995 115.569 101.091 115.956 101.091C116.535 101.091 117.025 100.881 117.426 100.462C117.827 100.038 118.103 99.4411 118.253 98.6709L119.094 94.3438H120.358L118.868 102H117.61L117.836 100.852C117.503 101.298 117.134 101.633 116.729 101.856C116.323 102.075 115.881 102.185 115.402 102.185C114.805 102.185 114.334 102.018 113.987 101.686C113.641 101.348 113.468 100.893 113.468 100.318C113.468 100.141 113.477 99.9469 113.495 99.7373C113.518 99.5231 113.55 99.3066 113.591 99.0879ZM125.779 98.1514C125.237 98.1514 124.834 98.1696 124.569 98.2061C124.305 98.238 124.075 98.2949 123.879 98.377C123.569 98.5 123.321 98.7028 123.134 98.9854C122.947 99.2633 122.854 99.5687 122.854 99.9014C122.854 100.28 122.97 100.583 123.202 100.811C123.439 101.034 123.758 101.146 124.159 101.146C124.834 101.146 125.415 100.904 125.902 100.421C126.395 99.9378 126.727 99.2747 126.9 98.4316L126.955 98.1514H125.779ZM128.315 97.6318L127.461 102H126.203L126.422 100.865C126.094 101.294 125.706 101.624 125.26 101.856C124.813 102.084 124.339 102.198 123.838 102.198C123.141 102.198 122.582 102.009 122.163 101.631C121.748 101.248 121.541 100.742 121.541 100.113C121.541 99.2201 121.892 98.5068 122.594 97.9736C123.3 97.4359 124.255 97.167 125.458 97.167H127.14L127.222 96.75C127.231 96.709 127.238 96.6657 127.242 96.6201C127.247 96.5745 127.249 96.5107 127.249 96.4287C127.249 96.0413 127.105 95.7451 126.818 95.54C126.531 95.3304 126.121 95.2256 125.588 95.2256C125.196 95.2256 124.772 95.2848 124.316 95.4033C123.865 95.5173 123.387 95.6904 122.881 95.9229L123.12 94.6924C123.612 94.5146 124.079 94.3825 124.521 94.2959C124.964 94.2048 125.387 94.1592 125.793 94.1592C126.641 94.1592 127.299 94.346 127.769 94.7197C128.243 95.0934 128.479 95.6107 128.479 96.2715C128.479 96.4173 128.466 96.6087 128.438 96.8457C128.411 97.0827 128.37 97.3447 128.315 97.6318ZM137.578 95.9229C137.373 95.7223 137.134 95.5719 136.86 95.4717C136.591 95.3714 136.284 95.3213 135.938 95.3213C135.19 95.3213 134.55 95.5833 134.017 96.1074C133.483 96.627 133.13 97.3402 132.957 98.2471L132.226 102H130.968L132.451 94.3438H133.709L133.436 95.8408C133.741 95.2939 134.135 94.877 134.618 94.5898C135.106 94.3027 135.657 94.1592 136.272 94.1592C136.596 94.1592 136.888 94.2025 137.147 94.2891C137.412 94.3711 137.635 94.4919 137.817 94.6514L137.578 95.9229ZM144.332 97.4951C144.359 97.3721 144.378 97.2718 144.387 97.1943C144.396 97.1123 144.4 97.0348 144.4 96.9619C144.4 96.415 144.252 95.9889 143.956 95.6836C143.66 95.3783 143.247 95.2256 142.719 95.2256C142.158 95.2256 141.646 95.4307 141.181 95.8408C140.72 96.251 140.39 96.8024 140.189 97.4951H144.332ZM144.489 101.61C144.011 101.806 143.544 101.952 143.088 102.048C142.632 102.148 142.17 102.198 141.7 102.198C140.684 102.198 139.911 101.945 139.383 101.439C138.854 100.929 138.59 100.186 138.59 99.2109C138.59 98.5 138.727 97.8027 139 97.1191C139.273 96.4355 139.652 95.8454 140.135 95.3486C140.513 94.9567 140.93 94.6582 141.386 94.4531C141.846 94.248 142.325 94.1455 142.821 94.1455C143.669 94.1455 144.346 94.4076 144.852 94.9316C145.362 95.4512 145.617 96.1462 145.617 97.0166C145.617 97.1715 145.606 97.3652 145.583 97.5977C145.56 97.8255 145.521 98.1172 145.467 98.4727H139.95C139.923 98.6185 139.902 98.7507 139.889 98.8691C139.875 98.9876 139.868 99.0924 139.868 99.1836C139.868 99.8171 140.044 100.3 140.395 100.633C140.745 100.965 141.256 101.132 141.926 101.132C142.327 101.132 142.764 101.068 143.238 100.94C143.717 100.808 144.216 100.615 144.735 100.359L144.489 101.61ZM158.66 94.3506H160.793L160.314 96.8184H158.182L158.66 94.3506ZM157.655 99.5117H159.788L159.31 102H157.177L157.655 99.5117ZM174.109 94.3438H177.329L176.03 101.022H178.525L178.327 102H172.079L172.277 101.022H174.772L175.873 95.3213H173.918L174.109 94.3438ZM176.646 91.3633H177.903L177.596 92.9561H176.338L176.646 91.3633ZM187.446 97.2559L186.523 102H185.266L186.188 97.249C186.193 97.2308 186.2 97.1989 186.209 97.1533C186.277 96.8298 186.312 96.5791 186.312 96.4014C186.312 96.0322 186.204 95.7497 185.99 95.5537C185.781 95.3532 185.478 95.2529 185.081 95.2529C184.502 95.2529 184.01 95.4648 183.604 95.8887C183.199 96.3125 182.921 96.9072 182.771 97.6729L181.93 102H180.672L182.169 94.3438H183.427L183.208 95.4922C183.55 95.0501 183.919 94.7174 184.315 94.4941C184.716 94.2708 185.14 94.1592 185.587 94.1592C186.22 94.1592 186.713 94.3255 187.063 94.6582C187.414 94.9863 187.59 95.4466 187.59 96.0391C187.59 96.1849 187.576 96.3649 187.549 96.5791C187.526 96.7933 187.492 97.0189 187.446 97.2559ZM193.783 92.1699L193.366 94.3438H196.217L196.025 95.3213H193.168L192.354 99.4775C192.327 99.6143 192.307 99.7419 192.293 99.8604C192.279 99.9743 192.272 100.081 192.272 100.182C192.272 100.482 192.361 100.694 192.539 100.817C192.717 100.936 193.038 100.995 193.503 100.995H194.918L194.72 102H193.195C192.434 102 191.874 101.875 191.514 101.624C191.158 101.369 190.98 100.972 190.98 100.435C190.98 100.321 190.99 100.186 191.008 100.031C191.026 99.8763 191.056 99.6917 191.097 99.4775L191.91 95.3213H189.866L190.058 94.3438H192.102L192.525 92.1699H193.783ZM206.327 97.0508H213.573L213.327 98.2061H206.081L206.327 97.0508ZM214.441 95.4307V94.1865L221.667 97.0439V98.1787L214.441 101.036V99.7852L220.252 97.6182L214.441 95.4307ZM233.158 94.3438H236.378L235.079 101.022H237.574L237.376 102H231.128L231.326 101.022H233.821L234.922 95.3213H232.967L233.158 94.3438ZM235.694 91.3633H236.952L236.645 92.9561H235.387L235.694 91.3633ZM246.495 97.2559L245.572 102H244.314L245.237 97.249C245.242 97.2308 245.249 97.1989 245.258 97.1533C245.326 96.8298 245.36 96.5791 245.36 96.4014C245.36 96.0322 245.253 95.7497 245.039 95.5537C244.829 95.3532 244.526 95.2529 244.13 95.2529C243.551 95.2529 243.059 95.4648 242.653 95.8887C242.248 96.3125 241.97 96.9072 241.819 97.6729L240.979 102H239.721L241.218 94.3438H242.476L242.257 95.4922C242.599 95.0501 242.968 94.7174 243.364 94.4941C243.765 94.2708 244.189 94.1592 244.636 94.1592C245.269 94.1592 245.761 94.3255 246.112 94.6582C246.463 94.9863 246.639 95.4466 246.639 96.0391C246.639 96.1849 246.625 96.3649 246.598 96.5791C246.575 96.7933 246.541 97.0189 246.495 97.2559ZM252.832 92.1699L252.415 94.3438H255.266L255.074 95.3213H252.217L251.403 99.4775C251.376 99.6143 251.355 99.7419 251.342 99.8604C251.328 99.9743 251.321 100.081 251.321 100.182C251.321 100.482 251.41 100.694 251.588 100.817C251.766 100.936 252.087 100.995 252.552 100.995H253.967L253.769 102H252.244C251.483 102 250.923 101.875 250.562 101.624C250.207 101.369 250.029 100.972 250.029 100.435C250.029 100.321 250.038 100.186 250.057 100.031C250.075 99.8763 250.104 99.6917 250.146 99.4775L250.959 95.3213H248.915L249.106 94.3438H251.15L251.574 92.1699H252.832ZM265.055 98.418H272.28V99.5938H265.055V98.418ZM265.055 95.6426H272.28V96.8047H265.055V95.6426ZM265.055 98.2402H272.28V99.3955H265.055V98.2402ZM265.055 95.7041H272.28V96.8594H265.055V95.7041ZM289.151 95.4307L283.341 97.6182L289.151 99.7852V101.036L281.926 98.1787V97.0439L289.151 94.1865V95.4307ZM298.271 91.3633L298.059 92.4092H296.637C296.204 92.4092 295.878 92.5049 295.659 92.6963C295.44 92.8831 295.285 93.2067 295.194 93.667L295.051 94.3438H297.683L297.505 95.3213H294.873L293.567 102H292.31L293.608 95.3213H291.564L291.763 94.3438H293.793L293.902 93.8105C294.076 92.931 294.381 92.3044 294.818 91.9307C295.26 91.5524 295.908 91.3633 296.76 91.3633H298.271ZM299.173 99.0879L300.082 94.3438H301.347L300.424 99.0879C300.392 99.2565 300.367 99.4183 300.349 99.5732C300.33 99.7282 300.321 99.8604 300.321 99.9697C300.321 100.33 300.426 100.608 300.636 100.804C300.85 100.995 301.151 101.091 301.538 101.091C302.117 101.091 302.607 100.881 303.008 100.462C303.409 100.038 303.685 99.4411 303.835 98.6709L304.676 94.3438H305.94L304.45 102H303.192L303.418 100.852C303.085 101.298 302.716 101.633 302.311 101.856C301.905 102.075 301.463 102.185 300.984 102.185C300.387 102.185 299.916 102.018 299.569 101.686C299.223 101.348 299.05 100.893 299.05 100.318C299.05 100.141 299.059 99.9469 299.077 99.7373C299.1 99.5231 299.132 99.3066 299.173 99.0879ZM313.979 97.2559L313.057 102H311.799L312.722 97.249C312.726 97.2308 312.733 97.1989 312.742 97.1533C312.811 96.8298 312.845 96.5791 312.845 96.4014C312.845 96.0322 312.738 95.7497 312.523 95.5537C312.314 95.3532 312.011 95.2529 311.614 95.2529C311.035 95.2529 310.543 95.4648 310.138 95.8887C309.732 96.3125 309.454 96.9072 309.304 97.6729L308.463 102H307.205L308.702 94.3438H309.96L309.741 95.4922C310.083 95.0501 310.452 94.7174 310.849 94.4941C311.25 94.2708 311.674 94.1592 312.12 94.1592C312.754 94.1592 313.246 94.3255 313.597 94.6582C313.948 94.9863 314.123 95.4466 314.123 96.0391C314.123 96.1849 314.109 96.3649 314.082 96.5791C314.059 96.7933 314.025 97.0189 313.979 97.2559ZM315.668 95.4307V94.1865L322.894 97.0439V98.1787L315.668 101.036V99.7852L321.479 97.6182L315.668 95.4307ZM62.9229 145.051H70.1689L69.9229 146.206H62.6768L62.9229 145.051ZM82.7402 142.351H84.873L84.3945 144.818H82.2617L82.7402 142.351ZM81.7354 147.512H83.8682L83.3896 150H81.2568L81.7354 147.512ZM98.1895 142.344H101.409L100.11 149.022H102.605L102.407 150H96.1592L96.3574 149.022H98.8525L99.9531 143.321H97.998L98.1895 142.344ZM100.726 139.363H101.983L101.676 140.956H100.418L100.726 139.363ZM111.526 145.256L110.604 150H109.346L110.269 145.249C110.273 145.231 110.28 145.199 110.289 145.153C110.357 144.83 110.392 144.579 110.392 144.401C110.392 144.032 110.285 143.75 110.07 143.554C109.861 143.353 109.558 143.253 109.161 143.253C108.582 143.253 108.09 143.465 107.685 143.889C107.279 144.312 107.001 144.907 106.851 145.673L106.01 150H104.752L106.249 142.344H107.507L107.288 143.492C107.63 143.05 107.999 142.717 108.396 142.494C108.797 142.271 109.22 142.159 109.667 142.159C110.3 142.159 110.793 142.326 111.144 142.658C111.494 142.986 111.67 143.447 111.67 144.039C111.67 144.185 111.656 144.365 111.629 144.579C111.606 144.793 111.572 145.019 111.526 145.256ZM117.863 140.17L117.446 142.344H120.297L120.105 143.321H117.248L116.435 147.478C116.407 147.614 116.387 147.742 116.373 147.86C116.359 147.974 116.353 148.081 116.353 148.182C116.353 148.482 116.441 148.694 116.619 148.817C116.797 148.936 117.118 148.995 117.583 148.995H118.998L118.8 150H117.275C116.514 150 115.954 149.875 115.594 149.624C115.238 149.369 115.061 148.972 115.061 148.435C115.061 148.321 115.07 148.186 115.088 148.031C115.106 147.876 115.136 147.692 115.177 147.478L115.99 143.321H113.946L114.138 142.344H116.182L116.605 140.17H117.863ZM130.086 146.418H137.312V147.594H130.086V146.418ZM130.086 143.643H137.312V144.805H130.086V143.643ZM130.086 146.24H137.312V147.396H130.086V146.24ZM130.086 143.704H137.312V144.859H130.086V143.704ZM148.611 143.868C148.611 144.383 148.743 144.78 149.008 145.058C149.272 145.336 149.648 145.475 150.136 145.475C150.801 145.475 151.359 145.188 151.811 144.613C152.262 144.039 152.487 143.319 152.487 142.453C152.487 141.897 152.351 141.464 152.077 141.154C151.804 140.844 151.423 140.689 150.936 140.689C150.279 140.689 149.728 140.995 149.281 141.605C148.835 142.216 148.611 142.97 148.611 143.868ZM146.786 149.788L147.025 148.517C147.29 148.685 147.577 148.815 147.887 148.906C148.197 148.993 148.522 149.036 148.864 149.036C149.744 149.036 150.468 148.71 151.038 148.059C151.612 147.402 152.025 146.429 152.275 145.14C151.965 145.604 151.596 145.958 151.168 146.199C150.744 146.436 150.275 146.555 149.76 146.555C148.949 146.555 148.322 146.327 147.88 145.871C147.442 145.415 147.224 144.766 147.224 143.923C147.224 143.385 147.315 142.847 147.497 142.31C147.679 141.767 147.923 141.307 148.229 140.929C148.584 140.491 148.99 140.163 149.445 139.944C149.901 139.721 150.407 139.609 150.963 139.609C151.888 139.609 152.604 139.878 153.109 140.416C153.62 140.949 153.875 141.703 153.875 142.679C153.875 143.435 153.786 144.221 153.608 145.037C153.431 145.853 153.187 146.593 152.877 147.259C152.43 148.234 151.858 148.968 151.161 149.46C150.464 149.952 149.641 150.198 148.693 150.198C148.352 150.198 148.021 150.164 147.702 150.096C147.383 150.027 147.078 149.925 146.786 149.788ZM63.2441 214.344H64.4609L65.5137 220.879L68.9453 214.344H70.2988L66.1016 222H64.4746L63.2441 214.344ZM75.166 218.151C74.6237 218.151 74.2204 218.17 73.9561 218.206C73.6917 218.238 73.4616 218.295 73.2656 218.377C72.9557 218.5 72.7074 218.703 72.5205 218.985C72.3337 219.263 72.2402 219.569 72.2402 219.901C72.2402 220.28 72.3564 220.583 72.5889 220.811C72.8258 221.034 73.1449 221.146 73.5459 221.146C74.2204 221.146 74.8014 220.904 75.2891 220.421C75.7812 219.938 76.1139 219.275 76.2871 218.432L76.3418 218.151H75.166ZM77.7021 217.632L76.8477 222H75.5898L75.8086 220.865C75.4805 221.294 75.0931 221.624 74.6465 221.856C74.1999 222.084 73.7259 222.198 73.2246 222.198C72.5273 222.198 71.9691 222.009 71.5498 221.631C71.1351 221.248 70.9277 220.742 70.9277 220.113C70.9277 219.22 71.2786 218.507 71.9805 217.974C72.6868 217.436 73.6416 217.167 74.8447 217.167H76.5264L76.6084 216.75C76.6175 216.709 76.6243 216.666 76.6289 216.62C76.6335 216.575 76.6357 216.511 76.6357 216.429C76.6357 216.041 76.4922 215.745 76.2051 215.54C75.918 215.33 75.5078 215.226 74.9746 215.226C74.5827 215.226 74.1589 215.285 73.7031 215.403C73.252 215.517 72.7734 215.69 72.2676 215.923L72.5068 214.692C72.999 214.515 73.4661 214.382 73.9082 214.296C74.3503 214.205 74.7741 214.159 75.1797 214.159C76.0273 214.159 76.6859 214.346 77.1553 214.72C77.6292 215.093 77.8662 215.611 77.8662 216.271C77.8662 216.417 77.8525 216.609 77.8252 216.846C77.7979 217.083 77.7568 217.345 77.7021 217.632ZM82.9727 219.211C82.9408 219.37 82.9157 219.512 82.8975 219.635C82.8838 219.758 82.877 219.86 82.877 219.942C82.877 220.275 82.9772 220.523 83.1777 220.688C83.3828 220.852 83.6927 220.934 84.1074 220.934H85.5498L85.3379 222H83.9229C83.1344 222 82.5465 221.856 82.1592 221.569C81.7764 221.278 81.585 220.833 81.585 220.236C81.585 220.109 81.5964 219.954 81.6191 219.771C81.6419 219.589 81.6738 219.393 81.7148 219.184L83.1572 212.272H80.9971L81.1953 211.288H84.6133L82.9727 219.211ZM104.253 211.363L104.041 212.409H102.619C102.186 212.409 101.86 212.505 101.642 212.696C101.423 212.883 101.268 213.207 101.177 213.667L101.033 214.344H103.665L103.487 215.321H100.855L99.5498 222H98.292L99.5908 215.321H97.5469L97.7451 214.344H99.7754L99.8848 213.811C100.058 212.931 100.363 212.304 100.801 211.931C101.243 211.552 101.89 211.363 102.742 211.363H104.253ZM108.908 218.151C108.366 218.151 107.963 218.17 107.698 218.206C107.434 218.238 107.204 218.295 107.008 218.377C106.698 218.5 106.45 218.703 106.263 218.985C106.076 219.263 105.982 219.569 105.982 219.901C105.982 220.28 106.099 220.583 106.331 220.811C106.568 221.034 106.887 221.146 107.288 221.146C107.963 221.146 108.544 220.904 109.031 220.421C109.523 219.938 109.856 219.275 110.029 218.432L110.084 218.151H108.908ZM111.444 217.632L110.59 222H109.332L109.551 220.865C109.223 221.294 108.835 221.624 108.389 221.856C107.942 222.084 107.468 222.198 106.967 222.198C106.27 222.198 105.711 222.009 105.292 221.631C104.877 221.248 104.67 220.742 104.67 220.113C104.67 219.22 105.021 218.507 105.723 217.974C106.429 217.436 107.384 217.167 108.587 217.167H110.269L110.351 216.75C110.36 216.709 110.367 216.666 110.371 216.62C110.376 216.575 110.378 216.511 110.378 216.429C110.378 216.041 110.234 215.745 109.947 215.54C109.66 215.33 109.25 215.226 108.717 215.226C108.325 215.226 107.901 215.285 107.445 215.403C106.994 215.517 106.516 215.69 106.01 215.923L106.249 214.692C106.741 214.515 107.208 214.382 107.65 214.296C108.092 214.205 108.516 214.159 108.922 214.159C109.77 214.159 110.428 214.346 110.897 214.72C111.371 215.093 111.608 215.611 111.608 216.271C111.608 216.417 111.595 216.609 111.567 216.846C111.54 217.083 111.499 217.345 111.444 217.632ZM119.039 221.651C118.706 221.829 118.349 221.964 117.966 222.055C117.588 222.15 117.193 222.198 116.783 222.198C115.762 222.198 114.99 221.943 114.466 221.433C113.942 220.918 113.68 220.159 113.68 219.156C113.68 218.477 113.8 217.812 114.042 217.16C114.288 216.504 114.618 215.952 115.033 215.506C115.457 215.055 115.922 214.717 116.428 214.494C116.938 214.271 117.496 214.159 118.103 214.159C118.508 214.159 118.9 214.209 119.278 214.31C119.657 214.405 120.026 214.551 120.386 214.747L120.133 215.991C119.832 215.727 119.522 215.533 119.203 215.41C118.884 215.287 118.531 215.226 118.144 215.226C117.642 215.226 117.198 215.328 116.811 215.533C116.423 215.734 116.093 216.037 115.819 216.442C115.564 216.816 115.364 217.244 115.218 217.728C115.076 218.206 115.006 218.682 115.006 219.156C115.006 219.812 115.161 220.307 115.471 220.64C115.785 220.968 116.252 221.132 116.872 221.132C117.31 221.132 117.729 221.061 118.13 220.92C118.535 220.779 118.927 220.564 119.306 220.277L119.039 221.651ZM126.299 212.17L125.882 214.344H128.732L128.541 215.321H125.684L124.87 219.478C124.843 219.614 124.822 219.742 124.809 219.86C124.795 219.974 124.788 220.081 124.788 220.182C124.788 220.482 124.877 220.694 125.055 220.817C125.232 220.936 125.554 220.995 126.019 220.995H127.434L127.235 222H125.711C124.95 222 124.389 221.875 124.029 221.624C123.674 221.369 123.496 220.972 123.496 220.435C123.496 220.321 123.505 220.186 123.523 220.031C123.542 219.876 123.571 219.692 123.612 219.478L124.426 215.321H122.382L122.573 214.344H124.617L125.041 212.17H126.299ZM141.789 214.351H143.922L143.443 216.818H141.311L141.789 214.351ZM140.784 219.512H142.917L142.438 222H140.306L140.784 219.512ZM157.238 214.344H160.458L159.159 221.022H161.654L161.456 222H155.208L155.406 221.022H157.901L159.002 215.321H157.047L157.238 214.344ZM159.774 211.363H161.032L160.725 212.956H159.467L159.774 211.363ZM170.575 217.256L169.652 222H168.395L169.317 217.249C169.322 217.231 169.329 217.199 169.338 217.153C169.406 216.83 169.44 216.579 169.44 216.401C169.44 216.032 169.333 215.75 169.119 215.554C168.91 215.353 168.606 215.253 168.21 215.253C167.631 215.253 167.139 215.465 166.733 215.889C166.328 216.312 166.05 216.907 165.899 217.673L165.059 222H163.801L165.298 214.344H166.556L166.337 215.492C166.679 215.05 167.048 214.717 167.444 214.494C167.845 214.271 168.269 214.159 168.716 214.159C169.349 214.159 169.841 214.326 170.192 214.658C170.543 214.986 170.719 215.447 170.719 216.039C170.719 216.185 170.705 216.365 170.678 216.579C170.655 216.793 170.621 217.019 170.575 217.256ZM176.912 212.17L176.495 214.344H179.346L179.154 215.321H176.297L175.483 219.478C175.456 219.614 175.436 219.742 175.422 219.86C175.408 219.974 175.401 220.081 175.401 220.182C175.401 220.482 175.49 220.694 175.668 220.817C175.846 220.936 176.167 220.995 176.632 220.995H178.047L177.849 222H176.324C175.563 222 175.003 221.875 174.643 221.624C174.287 221.369 174.109 220.972 174.109 220.435C174.109 220.321 174.118 220.186 174.137 220.031C174.155 219.876 174.185 219.692 174.226 219.478L175.039 215.321H172.995L173.187 214.344H175.23L175.654 212.17H176.912ZM189.456 217.051H196.702L196.456 218.206H189.21L189.456 217.051ZM197.57 215.431V214.187L204.796 217.044V218.179L197.57 221.036V219.785L203.381 217.618L197.57 215.431ZM216.287 214.344H219.507L218.208 221.022H220.703L220.505 222H214.257L214.455 221.022H216.95L218.051 215.321H216.096L216.287 214.344ZM218.823 211.363H220.081L219.773 212.956H218.516L218.823 211.363ZM229.624 217.256L228.701 222H227.443L228.366 217.249C228.371 217.231 228.378 217.199 228.387 217.153C228.455 216.83 228.489 216.579 228.489 216.401C228.489 216.032 228.382 215.75 228.168 215.554C227.958 215.353 227.655 215.253 227.259 215.253C226.68 215.253 226.188 215.465 225.782 215.889C225.377 216.312 225.099 216.907 224.948 217.673L224.107 222H222.85L224.347 214.344H225.604L225.386 215.492C225.728 215.05 226.097 214.717 226.493 214.494C226.894 214.271 227.318 214.159 227.765 214.159C228.398 214.159 228.89 214.326 229.241 214.658C229.592 214.986 229.768 215.447 229.768 216.039C229.768 216.185 229.754 216.365 229.727 216.579C229.704 216.793 229.67 217.019 229.624 217.256ZM235.961 212.17L235.544 214.344H238.395L238.203 215.321H235.346L234.532 219.478C234.505 219.614 234.484 219.742 234.471 219.86C234.457 219.974 234.45 220.081 234.45 220.182C234.45 220.482 234.539 220.694 234.717 220.817C234.895 220.936 235.216 220.995 235.681 220.995H237.096L236.897 222H235.373C234.612 222 234.051 221.875 233.691 221.624C233.336 221.369 233.158 220.972 233.158 220.435C233.158 220.321 233.167 220.186 233.186 220.031C233.204 219.876 233.233 219.692 233.274 219.478L234.088 215.321H232.044L232.235 214.344H234.279L234.703 212.17H235.961ZM248.184 218.418H255.409V219.594H248.184V218.418ZM248.184 215.643H255.409V216.805H248.184V215.643ZM248.184 218.24H255.409V219.396H248.184V218.24ZM248.184 215.704H255.409V216.859H248.184V215.704ZM272.28 215.431L266.47 217.618L272.28 219.785V221.036L265.055 218.179V217.044L272.28 214.187V215.431ZM281.399 211.363L281.188 212.409H279.766C279.333 212.409 279.007 212.505 278.788 212.696C278.569 212.883 278.414 213.207 278.323 213.667L278.18 214.344H280.812L280.634 215.321H278.002L276.696 222H275.438L276.737 215.321H274.693L274.892 214.344H276.922L277.031 213.811C277.204 212.931 277.51 212.304 277.947 211.931C278.389 211.552 279.036 211.363 279.889 211.363H281.399ZM282.302 219.088L283.211 214.344H284.476L283.553 219.088C283.521 219.257 283.496 219.418 283.478 219.573C283.459 219.728 283.45 219.86 283.45 219.97C283.45 220.33 283.555 220.608 283.765 220.804C283.979 220.995 284.28 221.091 284.667 221.091C285.246 221.091 285.736 220.881 286.137 220.462C286.538 220.038 286.813 219.441 286.964 218.671L287.805 214.344H289.069L287.579 222H286.321L286.547 220.852C286.214 221.298 285.845 221.633 285.439 221.856C285.034 222.075 284.592 222.185 284.113 222.185C283.516 222.185 283.045 222.018 282.698 221.686C282.352 221.348 282.179 220.893 282.179 220.318C282.179 220.141 282.188 219.947 282.206 219.737C282.229 219.523 282.261 219.307 282.302 219.088ZM297.108 217.256L296.186 222H294.928L295.851 217.249C295.855 217.231 295.862 217.199 295.871 217.153C295.939 216.83 295.974 216.579 295.974 216.401C295.974 216.032 295.867 215.75 295.652 215.554C295.443 215.353 295.14 215.253 294.743 215.253C294.164 215.253 293.672 215.465 293.267 215.889C292.861 216.312 292.583 216.907 292.433 217.673L291.592 222H290.334L291.831 214.344H293.089L292.87 215.492C293.212 215.05 293.581 214.717 293.978 214.494C294.379 214.271 294.802 214.159 295.249 214.159C295.882 214.159 296.375 214.326 296.726 214.658C297.076 214.986 297.252 215.447 297.252 216.039C297.252 216.185 297.238 216.365 297.211 216.579C297.188 216.793 297.154 217.019 297.108 217.256ZM298.797 215.431V214.187L306.022 217.044V218.179L298.797 221.036V219.785L304.607 217.618L298.797 215.431ZM62.9229 265.051H70.1689L69.9229 266.206H62.6768L62.9229 265.051ZM82.7402 262.351H84.873L84.3945 264.818H82.2617L82.7402 262.351ZM81.7354 267.512H83.8682L83.3896 270H81.2568L81.7354 267.512ZM98.1895 262.344H101.409L100.11 269.022H102.605L102.407 270H96.1592L96.3574 269.022H98.8525L99.9531 263.321H97.998L98.1895 262.344ZM100.726 259.363H101.983L101.676 260.956H100.418L100.726 259.363ZM111.526 265.256L110.604 270H109.346L110.269 265.249C110.273 265.231 110.28 265.199 110.289 265.153C110.357 264.83 110.392 264.579 110.392 264.401C110.392 264.032 110.285 263.75 110.07 263.554C109.861 263.353 109.558 263.253 109.161 263.253C108.582 263.253 108.09 263.465 107.685 263.889C107.279 264.312 107.001 264.907 106.851 265.673L106.01 270H104.752L106.249 262.344H107.507L107.288 263.492C107.63 263.05 107.999 262.717 108.396 262.494C108.797 262.271 109.22 262.159 109.667 262.159C110.3 262.159 110.793 262.326 111.144 262.658C111.494 262.986 111.67 263.447 111.67 264.039C111.67 264.185 111.656 264.365 111.629 264.579C111.606 264.793 111.572 265.019 111.526 265.256ZM117.863 260.17L117.446 262.344H120.297L120.105 263.321H117.248L116.435 267.478C116.407 267.614 116.387 267.742 116.373 267.86C116.359 267.974 116.353 268.081 116.353 268.182C116.353 268.482 116.441 268.694 116.619 268.817C116.797 268.936 117.118 268.995 117.583 268.995H118.998L118.8 270H117.275C116.514 270 115.954 269.875 115.594 269.624C115.238 269.369 115.061 268.972 115.061 268.435C115.061 268.321 115.07 268.186 115.088 268.031C115.106 267.876 115.136 267.692 115.177 267.478L115.99 263.321H113.946L114.138 262.344H116.182L116.605 260.17H117.863ZM130.086 266.418H137.312V267.594H130.086V266.418ZM130.086 263.643H137.312V264.805H130.086V263.643ZM130.086 266.24H137.312V267.396H130.086V266.24ZM130.086 263.704H137.312V264.859H130.086V263.704ZM147.422 268.838H149.562L151.072 261.038L148.666 261.558L148.905 260.3L151.312 259.794H152.699L150.936 268.838H153.048L152.822 270H147.196L147.422 268.838ZM156.623 268.838H161.299L161.08 270H154.832L155.058 268.838L157.184 266.965L157.45 266.726C159.897 264.579 161.121 263.043 161.121 262.118C161.121 261.694 160.975 261.362 160.684 261.12C160.392 260.879 159.986 260.758 159.467 260.758C159.048 260.758 158.596 260.835 158.113 260.99C157.63 261.141 157.102 261.371 156.527 261.681L156.808 260.286C157.318 260.063 157.81 259.894 158.284 259.78C158.763 259.666 159.223 259.609 159.665 259.609C160.508 259.609 161.189 259.83 161.709 260.272C162.229 260.715 162.488 261.289 162.488 261.995C162.488 262.433 162.406 262.85 162.242 263.246C162.083 263.638 161.816 264.069 161.442 264.538C161.292 264.729 161.021 265.005 160.629 265.365C160.237 265.725 159.631 266.258 158.811 266.965L156.623 268.838ZM168.381 259.609C169.47 259.573 170.211 259.994 170.603 260.874C170.999 261.754 171.04 263.068 170.726 264.818C170.411 266.573 169.894 267.906 169.174 268.817C168.454 269.729 167.549 270.201 166.46 270.232C165.371 270.264 164.63 269.843 164.238 268.968C163.846 268.088 163.805 266.773 164.115 265.023C164.434 263.269 164.951 261.936 165.667 261.024C166.387 260.113 167.292 259.641 168.381 259.609ZM166.658 269.125C167.305 269.107 167.85 268.747 168.292 268.045C168.734 267.343 169.083 266.281 169.338 264.859C169.479 264.103 169.559 263.422 169.577 262.815L165.394 268.045C165.599 268.788 166.02 269.148 166.658 269.125ZM168.183 260.717C167.54 260.735 166.998 261.095 166.556 261.797C166.114 262.499 165.763 263.561 165.503 264.982C165.384 265.625 165.318 266.229 165.305 266.794L169.413 261.578C169.181 260.981 168.771 260.694 168.183 260.717ZM62.9229 313.051H70.1689L69.9229 314.206H62.6768L62.9229 313.051ZM82.7402 310.351H84.873L84.3945 312.818H82.2617L82.7402 310.351ZM81.7354 315.512H83.8682L83.3896 318H81.2568L81.7354 315.512ZM98.1895 310.344H101.409L100.11 317.022H102.605L102.407 318H96.1592L96.3574 317.022H98.8525L99.9531 311.321H97.998L98.1895 310.344ZM100.726 307.363H101.983L101.676 308.956H100.418L100.726 307.363ZM111.526 313.256L110.604 318H109.346L110.269 313.249C110.273 313.231 110.28 313.199 110.289 313.153C110.357 312.83 110.392 312.579 110.392 312.401C110.392 312.032 110.285 311.75 110.07 311.554C109.861 311.353 109.558 311.253 109.161 311.253C108.582 311.253 108.09 311.465 107.685 311.889C107.279 312.312 107.001 312.907 106.851 313.673L106.01 318H104.752L106.249 310.344H107.507L107.288 311.492C107.63 311.05 107.999 310.717 108.396 310.494C108.797 310.271 109.22 310.159 109.667 310.159C110.3 310.159 110.793 310.326 111.144 310.658C111.494 310.986 111.67 311.447 111.67 312.039C111.67 312.185 111.656 312.365 111.629 312.579C111.606 312.793 111.572 313.019 111.526 313.256ZM117.863 308.17L117.446 310.344H120.297L120.105 311.321H117.248L116.435 315.478C116.407 315.614 116.387 315.742 116.373 315.86C116.359 315.974 116.353 316.081 116.353 316.182C116.353 316.482 116.441 316.694 116.619 316.817C116.797 316.936 117.118 316.995 117.583 316.995H118.998L118.8 318H117.275C116.514 318 115.954 317.875 115.594 317.624C115.238 317.369 115.061 316.972 115.061 316.435C115.061 316.321 115.07 316.186 115.088 316.031C115.106 315.876 115.136 315.692 115.177 315.478L115.99 311.321H113.946L114.138 310.344H116.182L116.605 308.17H117.863ZM130.086 314.418H137.312V315.594H130.086V314.418ZM130.086 311.643H137.312V312.805H130.086V311.643ZM130.086 314.24H137.312V315.396H130.086V314.24ZM130.086 311.704H137.312V312.859H130.086V311.704ZM147.422 316.838H149.562L151.072 309.038L148.666 309.558L148.905 308.3L151.312 307.794H152.699L150.936 316.838H153.048L152.822 318H147.196L147.422 316.838ZM160.547 309.236L156.274 314.445H159.508L160.547 309.236ZM160.574 307.794H162.167L160.868 314.445H162.222L162.017 315.566H160.656L160.178 318H158.824L159.296 315.566H154.962L155.208 314.261L160.574 307.794ZM168.982 309.236L164.71 314.445H167.943L168.982 309.236ZM169.01 307.794H170.603L169.304 314.445H170.657L170.452 315.566H169.092L168.613 318H167.26L167.731 315.566H163.397L163.644 314.261L169.01 307.794ZM176.816 307.609C177.906 307.573 178.646 307.994 179.038 308.874C179.435 309.754 179.476 311.068 179.161 312.818C178.847 314.573 178.329 315.906 177.609 316.817C176.889 317.729 175.985 318.201 174.896 318.232C173.806 318.264 173.066 317.843 172.674 316.968C172.282 316.088 172.241 314.773 172.551 313.023C172.87 311.269 173.387 309.936 174.103 309.024C174.823 308.113 175.727 307.641 176.816 307.609ZM175.094 317.125C175.741 317.107 176.285 316.747 176.728 316.045C177.17 315.343 177.518 314.281 177.773 312.859C177.915 312.103 177.994 311.422 178.013 310.815L173.829 316.045C174.034 316.788 174.456 317.148 175.094 317.125ZM176.618 308.717C175.976 308.735 175.433 309.095 174.991 309.797C174.549 310.499 174.198 311.561 173.938 312.982C173.82 313.625 173.754 314.229 173.74 314.794L177.849 309.578C177.616 308.981 177.206 308.694 176.618 308.717ZM185.252 307.609C186.341 307.573 187.082 307.994 187.474 308.874C187.87 309.754 187.911 311.068 187.597 312.818C187.282 314.573 186.765 315.906 186.045 316.817C185.325 317.729 184.42 318.201 183.331 318.232C182.242 318.264 181.501 317.843 181.109 316.968C180.717 316.088 180.676 314.773 180.986 313.023C181.305 311.269 181.823 309.936 182.538 309.024C183.258 308.113 184.163 307.641 185.252 307.609ZM183.529 317.125C184.176 317.107 184.721 316.747 185.163 316.045C185.605 315.343 185.954 314.281 186.209 312.859C186.35 312.103 186.43 311.422 186.448 310.815L182.265 316.045C182.47 316.788 182.891 317.148 183.529 317.125ZM185.054 308.717C184.411 308.735 183.869 309.095 183.427 309.797C182.985 310.499 182.634 311.561 182.374 312.982C182.256 313.625 182.189 314.229 182.176 314.794L186.284 309.578C186.052 308.981 185.642 308.694 185.054 308.717Z" fill="white" fill-opacity="0.6"/>
<path d="M551.441 400.27C551.113 399.941 550.648 399.75 550.211 399.75C549.773 399.75 549.309 399.941 548.98 400.27L540.23 409.02C539.984 409.266 539.82 409.566 539.738 409.895L539 413.23C538.945 413.504 539.164 413.75 539.41 413.75C539.438 413.75 539.492 413.75 539.52 413.75C539.52 413.75 541.816 413.258 542.855 413.012C543.184 412.957 543.457 412.793 543.703 412.547L552.48 403.77C553.164 403.086 553.164 401.992 552.48 401.309L551.441 400.27ZM542.773 411.617C542.719 411.699 542.637 411.727 542.555 411.754C542.062 411.863 541.27 412.027 540.586 412.191L541.023 410.168C541.051 410.086 541.078 410.004 541.16 409.949L547.75 403.332L549.418 405L542.773 411.617Z" fill="white"/>
<path d="M562.148 413H569.761V411.233H564.256V408.057H569.324V406.29H564.256V403.131H569.716V401.364H562.148V413ZM575.014 413.153C576.514 413.153 577.19 412.261 577.514 411.625H577.639V413H579.662V401.364H577.599V405.716H577.514C577.202 405.085 576.56 404.159 575.02 404.159C573.003 404.159 571.418 405.739 571.418 408.648C571.418 411.523 572.957 413.153 575.014 413.153ZM575.588 411.466C574.23 411.466 573.514 410.273 573.514 408.636C573.514 407.011 574.219 405.847 575.588 405.847C576.912 405.847 577.639 406.943 577.639 408.636C577.639 410.33 576.901 411.466 575.588 411.466ZM581.854 413H583.911V404.273H581.854V413ZM582.888 403.034C583.541 403.034 584.075 402.534 584.075 401.92C584.075 401.301 583.541 400.801 582.888 400.801C582.229 400.801 581.695 401.301 581.695 401.92C581.695 402.534 582.229 403.034 582.888 403.034ZM590.384 404.273H588.662V402.182H586.605V404.273H585.366V405.864H586.605V410.716C586.594 412.358 587.787 413.165 589.332 413.119C589.918 413.102 590.321 412.989 590.543 412.915L590.196 411.307C590.082 411.335 589.849 411.386 589.594 411.386C589.077 411.386 588.662 411.205 588.662 410.375V405.864H590.384V404.273Z" fill="white"/>
<rect x="523.5" y="384.5" width="84" height="45" rx="7.5" stroke="white" stroke-opacity="0.24"/>
<defs>
<filter id="filter0_i_24:290" x="0" y="49" width="49" height="413" filterUnits="userSpaceOnUse" color-interpolation-filters="sRGB">
<feFlood flood-opacity="0" result="BackgroundImageFix"/>
<feBlend mode="normal" in="SourceGraphic" in2="BackgroundImageFix" result="shape"/>
<feColorMatrix in="SourceAlpha" type="matrix" values="0 0 0 0 0 0 0 0 0 0 0 0 0 0 0 0 0 0 127 0" result="hardAlpha"/>
<feOffset dx="-1"/>
<feComposite in2="hardAlpha" operator="arithmetic" k2="-1" k3="1"/>
<feColorMatrix type="matrix" values="0 0 0 0 1 0 0 0 0 1 0 0 0 0 1 0 0 0 0.2 0"/>
<feBlend mode="normal" in2="shape" result="effect1_innerShadow_24:290"/>
</filter>
</defs>
</svg>
