<svg width="125" height="25" viewBox="0 0 125 25" fill="none" xmlns="http://www.w3.org/2000/svg">
<path d="M8.40883 24.1301H3.74721V12.4821H0.571625V8.68972H3.74709V5.99119C3.74709 2.79342 5.1516 0.5 9.8006 0.5C10.7839 0.5 12.3276 0.698651 12.3276 0.698651V4.22007H10.7062C9.05412 4.22007 8.40908 4.72376 8.40908 6.11631V8.68972H12.2657L11.9223 12.4821H8.40896L8.40883 24.1301ZM19.105 8.38666C19.0371 8.38666 18.9672 8.38914 18.8981 8.39088C14.5755 8.39088 12.5979 11.6499 12.5979 16.2762C12.5979 22.104 15.1632 24.4365 18.9318 24.4365C21.088 24.4365 22.5047 23.5268 23.3657 21.8292V24.1317H27.7996V8.69134H23.3657V11.0659C22.6627 9.53815 21.2064 8.40477 19.105 8.38666ZM20.2324 12.0352C22.0479 12.0352 23.1376 13.3045 23.1376 15.4635L23.1418 17.6686C23.1418 19.1238 22.2418 20.8262 20.2324 20.8262C17.1433 20.8262 17.2258 17.4828 17.2258 16.3693C17.2258 12.6236 18.8717 12.0352 20.2324 12.0352ZM29.5902 16.4123C29.5902 14.5361 29.5006 8.39671 37.4806 8.39671C40.6839 8.39671 42.0215 9.41762 42.0215 9.41762L40.9464 12.7598C40.9464 12.7598 39.6106 12.0225 37.8699 12.0225C35.6405 12.0225 34.2179 13.318 34.2179 15.5973L34.2204 17.2316C34.2204 19.4217 35.593 20.8837 37.8745 20.8837C39.4603 20.8837 40.9218 20.1395 40.9218 20.1395L41.9941 23.4119C41.9941 23.4119 40.7711 24.4392 37.503 24.4392C29.9048 24.4392 29.5903 18.9311 29.5903 16.4123H29.5902ZM68.0189 8.39088C72.3415 8.39088 74.3504 11.6499 74.3504 16.2762C74.3504 22.104 71.7849 24.4365 68.0163 24.4365C65.8601 24.4365 64.2662 23.527 63.4051 21.8292V24.1317L59.027 24.13V0.969472L63.6754 0.563117V10.8567C64.3463 9.05578 66.5511 8.39088 68.019 8.39088H68.0189ZM66.7157 12.0352C64.9002 12.0352 63.6754 13.3045 63.6754 15.4635L63.6711 17.6686C63.6684 19.1238 64.5193 20.8262 66.7157 20.8262C69.8048 20.8262 69.7223 17.4828 69.7223 16.3693C69.7223 12.6236 68.0765 12.0352 66.7157 12.0352ZM50.0868 8.40365C45.1841 8.40365 42.5958 11.083 42.5958 15.8444V16.729C42.5958 22.9089 46.2306 24.5 50.564 24.5C54.776 24.5 56.6826 23.3191 56.6826 23.3191L55.8127 20.1744C55.8127 20.1744 53.5701 21.1309 51.1213 21.1309C48.5827 21.1309 47.4909 20.4823 47.2111 18.037H57.0542V15.5142C57.0542 10.3492 54.1493 8.40353 50.0867 8.40353L50.0868 8.40365ZM50.205 11.5526C51.9021 11.5526 53.0017 12.5957 52.9414 15.0148H47.2196C47.3189 12.4687 48.5048 11.5527 50.205 11.5527V11.5526ZM83.619 8.38245C78.5843 8.38245 75.9338 11.2263 75.9338 16.3227C75.9338 23.3152 80.5027 24.4407 83.6275 24.4407C88.2019 24.4407 91.2452 21.9722 91.2452 16.3862C91.2452 10.5721 87.8233 8.38245 83.619 8.38245ZM83.5557 12.0478C85.7696 12.0478 86.6468 13.7086 86.6468 15.599V17.2243C86.6468 19.5144 85.4193 20.839 83.5473 20.839C81.7965 20.839 80.5661 19.5999 80.5661 17.2243V15.599C80.5661 13.0654 82.0302 12.0478 83.5557 12.0478ZM100.506 8.38245C95.4709 8.38245 92.8203 11.2263 92.8203 16.3227C92.8203 23.3152 97.3893 24.4407 100.514 24.4407C105.088 24.4407 108.132 21.9722 108.132 16.3862C108.132 10.5721 104.71 8.38245 100.506 8.38245ZM100.442 12.0478C102.656 12.0478 103.533 13.7086 103.533 15.599V17.2243C103.533 19.5144 102.306 20.839 100.434 20.839C98.6831 20.839 97.4526 19.5999 97.4526 17.2243V15.599C97.4526 13.0654 98.9168 12.0478 100.442 12.0478ZM109.888 24.1301V0.969472L114.55 0.563117V16.0868L119.175 8.68972H124.099L119.274 16.351L124.284 24.1301H119.347L114.55 16.5766V24.1301H109.888Z" fill="#1877F2"/>
</svg>
