<svg width="48" height="48" viewBox="0 0 48 48" fill="none" xmlns="http://www.w3.org/2000/svg">
<rect width="48" height="48" rx="12" fill="url(#paint0_linear_349:4)"/>
<path d="M32.8594 23.4844C32.625 22.9219 32.0625 22.5469 31.4531 22.5469H26.2031L29.8125 14.1094C30.0938 13.4531 29.9062 12.7031 29.2969 12.3281C28.7344 11.9062 27.9844 11.9531 27.4688 12.375L15.4688 22.875C15 23.2969 14.8594 23.9531 15.0938 24.5625C15.2812 25.125 15.8438 25.5 16.5 25.5H21.7031L18.0938 33.9375C17.8125 34.5938 18.0469 35.3438 18.6094 35.7188C18.8438 35.9062 19.1719 36 19.5 36C19.8281 36 20.2031 35.9062 20.4844 35.6719L32.4375 25.1719C32.9531 24.75 33.0938 24.0938 32.8594 23.4844ZM24.5156 18.9844L22.9688 22.5469H20.4844L24.5156 18.9844ZM23.4375 29.0625L24.9844 25.5H27.4688L23.4375 29.0625Z" fill="white"/>
<defs>
<linearGradient id="paint0_linear_349:4" x1="1.05053e-06" y1="-0.445191" x2="48" y2="47.5548" gradientUnits="userSpaceOnUse">
<stop stop-color="#4FD1C5"/>
<stop offset="1" stop-color="#2C7A7B"/>
</linearGradient>
</defs>
</svg>
