<svg width="115" height="82" viewBox="0 0 115 82" fill="none" xmlns="http://www.w3.org/2000/svg">
<circle cx="78" cy="45" r="37" fill="#EE6A1A" fill-opacity="0.1"/>
<path d="M19 38C23.9688 38 28 34.0625 28 29C28 24.0312 23.9688 20 19 20C13.9375 20 10 24.0312 10 29C10 33.9688 13.9375 38 19 38ZM19 23C22.2812 23 25 25.7188 25 29C25 32.375 22.2812 35 19 35C15.625 35 13 32.375 13 29C13 25.7188 15.625 23 19 23ZM22 41H16C9.34375 41 4 46.4375 4 53C4 54.6875 5.3125 56 7 56H31C32.5938 56 34 54.6875 34 53C34 46.4375 28.5625 41 22 41ZM7 53C7 48.125 11.0312 44 16 44H22C26.875 44 31 48.125 31 53H7ZM59.5 8H23.5C20.9688 8 19 10.0625 19 12.5V15.5C19 16.3438 19.6562 17 20.5 17C21.25 17 22 16.3438 22 15.5V12.5C22 11.75 22.6562 11 23.5 11H59.5C60.25 11 61 11.75 61 12.5V42.5C61 43.3438 60.25 44 59.5 44H58V39.5C58 37.0625 55.9375 35 53.5 35H44.5C41.9688 35 40 37.0625 40 39.5V44H37C36.1562 44 35.5 44.75 35.5 45.5C35.5 46.3438 36.1562 47 37 47H59.5C61.9375 47 64 45.0312 64 42.5V12.5C64 10.0625 61.9375 8 59.5 8ZM55 44H43V39.5C43 38.75 43.6562 38 44.5 38H53.5C54.25 38 55 38.75 55 39.5V44Z" fill="#1A202C"/>
</svg>
