<svg width="105" height="41" viewBox="0 0 105 41" fill="none" xmlns="http://www.w3.org/2000/svg">
<g clip-path="url(#clip0_130_466)">
<path d="M62.4944 16.934C63.3624 16.934 64.0144 16.57 64.4604 16.07V14.086C62.8624 14.184 61.3044 14.586 61.3044 15.895C61.3044 16.512 61.7844 16.934 62.4944 16.934ZM64.4604 12.527V11.625C64.4604 10.852 64.0144 10.391 63.0344 10.391C62.0544 10.391 61.0144 10.797 59.7444 11.411L58.7444 9.33199C60.1284 8.64099 61.7444 8.15999 63.1514 8.15999C66.1124 8.15999 67.2684 9.60199 67.2684 11.719V16.031C67.2684 16.586 67.5974 16.84 68.1164 16.84V18.781C66.1714 18.781 65.3624 18.492 64.7844 17.511C63.9214 18.434 62.9604 18.953 61.5744 18.953C59.7644 18.953 58.4944 17.859 58.4944 16.223C58.4944 13.969 60.6284 12.797 64.4604 12.527ZM69.8584 8.38999H72.5144L72.6474 9.58199C73.4014 8.79699 74.4954 8.14099 75.7874 8.14099C78.0974 8.14099 79.0774 9.56299 79.0774 11.895V18.723H76.2494V11.816C76.2494 10.891 75.8624 10.258 74.9014 10.258C74.0344 10.258 73.2844 10.699 72.6674 11.468V18.723H69.8584V8.38999ZM53.6364 5.25399V14.223C53.6364 15.605 52.9604 16.395 51.7884 16.395C50.9984 16.395 50.3824 16.008 49.8984 15.355L47.9684 17.102C48.9644 18.305 50.3114 18.957 51.9404 18.957C54.7494 18.957 56.5424 17.359 56.5424 14.277V5.25399H53.6364ZM53.3314 27.469C51.8544 27.094 50.5774 26.769 50.5774 25.672C50.5774 24.758 51.4524 24.141 52.7534 24.141C53.9754 24.141 55.2334 24.441 56.3974 25.004L57.4094 22.852C55.8194 22.109 54.2494 21.746 52.6164 21.746C49.7214 21.746 47.6984 23.379 47.6984 25.711C47.6984 28.676 50.1244 29.305 52.2684 29.863C53.7684 30.253 55.0654 30.59 55.0654 31.715C55.0654 32.699 54.2024 33.285 52.7534 33.285C51.4994 33.285 50.0894 32.863 48.7684 32.09L47.4604 34.238C48.8974 35.118 50.9714 35.68 52.7724 35.68C55.9644 35.68 57.9484 34.145 57.9484 31.676C57.9484 28.633 55.3894 27.988 53.3314 27.469ZM60.2254 27.113H58.5894V25.113H60.2254V22.535H63.0544V25.113H65.3664V27.113H63.0544V32.253C63.0544 33.02 63.3434 33.406 63.9994 33.406C64.5194 33.406 64.9994 33.234 65.4014 32.946L66.4414 34.636C65.575 35.3026 64.5145 35.6678 63.4214 35.676C61.2644 35.676 60.2254 34.621 60.2254 32.309V27.113ZM67.7254 25.113H70.3234L70.5144 26.711C71.3044 25.324 72.2844 24.824 73.4604 24.824C73.9404 24.824 74.3824 24.902 74.7304 25.035L74.3234 27.613C73.8799 27.454 73.4114 27.3761 72.9404 27.383C71.8824 27.383 71.1704 28.039 70.5344 29.23V35.445H67.7254V25.113ZM97.9134 27.113H96.2764V25.113H97.9134V22.535H100.741V25.113H103.054V27.113H100.741V32.253C100.741 33.02 101.031 33.406 101.682 33.406C102.202 33.406 102.682 33.234 103.089 32.946L104.128 34.636C103.262 35.3026 102.202 35.6678 101.108 35.676C98.9524 35.676 97.9134 34.621 97.9134 32.309V27.113ZM86.0224 10.156C87.3704 10.156 87.8704 11.156 87.8704 12.465H83.6944C83.9644 10.965 84.8664 10.156 86.0224 10.156ZM85.9444 8.11699C83.0774 8.11699 80.7684 10.157 80.7684 13.469C80.7684 16.929 82.9254 18.949 85.9644 18.949C87.4873 18.9519 88.9736 18.4823 90.2184 17.605L89.0424 15.813C88.1794 16.352 87.2144 16.699 86.1754 16.699C84.7494 16.699 83.9364 15.969 83.6904 14.5H90.3544C90.4294 14.059 90.5424 13.598 90.5424 12.832C90.5424 10.059 88.9094 8.11699 85.9444 8.11699ZM90.9444 26.883C92.2884 26.883 92.7884 27.883 92.7884 29.191H88.6124C88.8824 27.691 89.7884 26.883 90.9444 26.883ZM90.8664 24.843C87.9994 24.843 85.6864 26.883 85.6864 30.195C85.6864 33.656 87.8434 35.68 90.8864 35.68C92.4254 35.68 93.8664 35.215 95.1364 34.332L93.9644 32.539C93.0964 33.079 92.1364 33.426 91.0964 33.426C89.6664 33.426 88.8544 32.696 88.6124 31.226H95.2724C95.3504 30.786 95.4644 30.324 95.4644 29.559C95.4644 26.785 93.8274 24.844 90.8664 24.844V24.843ZM80.1394 26.883C81.4874 26.883 81.9874 27.883 81.9874 29.191H77.8114C78.0814 27.691 78.9874 26.883 80.1394 26.883ZM80.0654 24.843C77.1984 24.843 74.8854 26.883 74.8854 30.195C74.8854 33.656 77.0424 35.68 80.0814 35.68C81.6244 35.68 83.0654 35.215 84.3394 34.332L83.1634 32.539C82.2964 33.079 81.3354 33.426 80.2964 33.426C78.8664 33.426 78.0544 32.696 77.8074 31.226H84.4724C84.5504 30.786 84.6624 30.324 84.6624 29.559C84.6624 26.789 83.0264 24.844 80.0654 24.844V24.843ZM6.76439 28.234C9.53439 32.961 14.6744 36.137 20.5384 36.121C29.3084 36.094 36.4254 28.941 36.4014 20.168C36.3784 11.395 29.2214 4.27799 20.4484 4.30099C11.6784 4.32399 4.56139 11.484 4.58539 20.254C4.59033 21.3009 4.6975 22.3449 4.90539 23.371C4.93639 23.5 5.06939 23.571 5.19539 23.539L7.40939 22.989C7.44057 22.9821 7.47008 22.9692 7.49623 22.9509C7.52238 22.9325 7.54465 22.9092 7.56175 22.8823C7.57885 22.8553 7.59045 22.8253 7.59588 22.7938C7.60131 22.7623 7.60046 22.7301 7.59339 22.699H7.59639C7.43971 21.8907 7.36002 21.0693 7.35839 20.246C7.33839 13.004 13.2144 7.09399 20.4564 7.07399C27.7024 7.05399 33.6124 12.934 33.6284 20.176C33.6514 27.418 27.7724 33.328 20.5304 33.348C15.7334 33.359 11.5224 30.785 9.22239 26.941C9.19155 26.8845 9.14043 26.8419 9.07937 26.8217C9.0183 26.8014 8.95184 26.8051 8.89339 26.832L6.86639 27.902C6.80892 27.9326 6.76591 27.9847 6.74679 28.0469C6.72767 28.1091 6.734 28.1764 6.76439 28.234Z" fill="black"/>
<path d="M28.8664 23.648L30.8864 24.73C31.0064 24.793 31.1664 24.758 31.2144 24.629C31.7876 23.2603 32.0875 21.7928 32.0974 20.309C32.1514 13.91 26.9874 8.66401 20.5894 8.60901H20.4914C14.1474 8.60901 8.9444 13.769 8.8894 20.113C8.8394 26.512 13.9994 31.762 20.3974 31.813L20.4954 31.816C23.5264 31.816 26.2924 30.636 28.3664 28.715C28.4684 28.625 28.4874 28.469 28.3934 28.367L26.6714 26.813C26.5694 26.723 26.4174 26.743 26.3274 26.828L26.3234 26.824C24.7182 28.2527 22.6443 29.0423 20.4954 29.043H20.4214C15.5504 29 11.6244 25.008 11.6634 20.137C11.7024 15.309 15.6634 11.379 20.4914 11.379H20.5694C25.4364 11.422 29.3664 15.418 29.3234 20.285C29.3151 21.3208 29.1235 22.347 28.7574 23.316C28.7304 23.3749 28.7266 23.4418 28.7468 23.5034C28.767 23.5649 28.8097 23.6166 28.8664 23.648Z" fill="black"/>
<path d="M32.1794 3.72701C32.0694 3.65201 31.9214 3.67201 31.8474 3.78501L30.5494 5.66001C30.4744 5.77001 30.4864 5.92201 30.5964 6.00001C35.0364 9.16801 37.9434 14.355 37.9394 20.215C37.9394 29.832 30.1154 37.652 20.4984 37.652C10.8814 37.652 3.05642 29.828 3.05642 20.207C3.05642 10.594 10.8814 2.77001 20.5024 2.77301C22.5353 2.77137 24.5527 3.12711 26.4624 3.82401C26.5222 3.84535 26.5879 3.84268 26.6457 3.81657C26.7035 3.79046 26.7489 3.74294 26.7724 3.68401L27.5884 1.54301C27.6097 1.48482 27.6078 1.42067 27.583 1.36387C27.5582 1.30708 27.5125 1.262 27.4554 1.23801C25.2297 0.416981 22.8758 -0.00219536 20.5034 8.64627e-06C9.35442 -0.00399135 0.288424 9.06301 0.284424 20.21C0.284424 31.355 9.35442 40.426 20.4994 40.426C31.6434 40.426 40.7144 31.359 40.7144 20.215C40.7144 13.415 37.3394 7.39101 32.1794 3.72701Z" fill="black"/>
</g>
<defs>
<clipPath id="clip0_130_466">
<rect width="104" height="41" fill="white" transform="translate(0.284424)"/>
</clipPath>
</defs>
</svg>
