<svg width="373" height="325" viewBox="0 0 373 325" fill="none" xmlns="http://www.w3.org/2000/svg">
<g clip-path="url(#clip0_108:586)">
<path d="M336.311 169.135C336.36 209.351 320.821 248.019 292.961 277.011C291.281 278.77 289.556 280.487 287.786 282.161C285.089 284.728 282.301 287.195 279.423 289.562C252.497 311.753 218.883 324.223 184.004 324.961C182.842 324.987 181.676 325 180.505 325C152.688 325 117.7 310.137 85.9497 289.562C83.3229 287.86 80.7194 286.118 78.1392 284.337C76.9332 283.512 75.7331 282.676 74.5388 281.828C62.2929 273.178 50.6692 263.679 39.7533 253.4C32.6063 246.69 25.9042 239.521 19.6898 231.939C-4.70647 201.836 -10.0874 174.711 24.6937 169.135C28.8116 168.477 32.8082 167.774 36.6835 167.025C42.2969 165.946 47.6691 164.78 52.8001 163.529C59.7115 161.848 66.2049 160.026 72.2803 158.062C74.3239 157.404 76.3208 156.733 78.2708 156.049C107.101 145.919 126.397 132.71 139.531 118.378C141.759 115.952 143.813 113.497 145.693 111.012C148.569 107.231 151.182 103.255 153.512 99.1147C156.729 93.3616 159.43 87.3353 161.586 81.1062L161.704 80.764C172.155 50.6079 168.975 22.6366 180.505 13.2748C229.788 -26.7476 291.145 30.248 319.945 97.4608C321.396 100.848 322.762 104.255 324.041 107.682C324.615 109.214 325.169 110.748 325.703 112.284C327.106 116.29 328.379 120.305 329.523 124.331C329.961 125.866 330.379 127.4 330.777 128.933C331.202 130.587 331.61 132.236 331.987 133.886C334.789 145.963 336.311 157.874 336.311 169.135Z" fill="#F2F2F2"/>
<path d="M184.004 324.96C182.842 324.987 181.676 325 180.505 325C152.688 325 117.7 310.137 85.9498 289.562C83.3229 287.86 80.7194 286.118 78.1393 284.337L80.4022 270.562L148.907 261.463L183.289 287.763L184.004 324.96Z" fill="#2F2E41"/>
<path d="M187.302 78.9873H177.54C177.238 78.9874 176.948 79.1076 176.734 79.3215C176.52 79.5354 176.4 79.8254 176.4 80.1279V89.8976C176.4 90.0472 176.43 90.1952 176.487 90.3333C176.544 90.4714 176.629 90.5968 176.734 90.7023C176.84 90.8078 176.966 90.8914 177.104 90.9483C177.242 91.0052 177.391 91.0343 177.54 91.0339H187.302C187.604 91.034 187.893 90.9145 188.107 90.7015C188.321 90.4885 188.441 90.1994 188.442 89.8976V80.1279C188.441 79.8256 188.321 79.536 188.107 79.3223C187.894 79.1086 187.604 78.9882 187.302 78.9873Z" fill="white"/>
<path d="M187.302 95.6359H177.54C177.238 95.636 176.948 95.7562 176.734 95.9701C176.52 96.184 176.4 96.474 176.4 96.7765V106.546C176.4 106.696 176.43 106.844 176.487 106.982C176.544 107.12 176.629 107.245 176.734 107.351C176.84 107.456 176.966 107.54 177.104 107.597C177.242 107.654 177.391 107.683 177.54 107.682H187.302C187.604 107.683 187.893 107.563 188.107 107.35C188.321 107.137 188.441 106.848 188.442 106.546V96.7765C188.441 96.4742 188.321 96.1846 188.107 95.9709C187.894 95.7572 187.604 95.6367 187.302 95.6359Z" fill="#E6E6E6"/>
<path d="M187.302 112.284H177.54C177.238 112.285 176.948 112.405 176.734 112.619C176.52 112.833 176.4 113.123 176.4 113.425V123.19C176.4 123.34 176.429 123.489 176.486 123.627C176.543 123.766 176.627 123.892 176.733 123.998C176.839 124.104 176.965 124.188 177.103 124.245C177.242 124.302 177.39 124.331 177.54 124.331H187.302C187.604 124.331 187.894 124.211 188.108 123.997C188.322 123.783 188.442 123.493 188.442 123.19V113.425C188.441 113.123 188.321 112.833 188.107 112.619C187.894 112.406 187.604 112.285 187.302 112.284Z" fill="#E6E6E6"/>
<path d="M188.425 129.872C188.376 129.609 188.237 129.372 188.032 129.2C187.827 129.029 187.569 128.934 187.302 128.933H177.54C177.238 128.933 176.948 129.053 176.734 129.267C176.52 129.481 176.4 129.771 176.4 130.074V139.839C176.4 139.989 176.429 140.137 176.486 140.276C176.543 140.414 176.627 140.54 176.733 140.646C176.839 140.752 176.965 140.836 177.103 140.893C177.242 140.951 177.39 140.98 177.54 140.98H187.302C187.604 140.98 187.894 140.859 188.108 140.645C188.322 140.432 188.442 140.142 188.442 139.839V130.074C188.443 130.006 188.437 129.938 188.425 129.872Z" fill="#E6E6E6"/>
<path d="M187.745 145.669C187.605 145.611 187.454 145.581 187.302 145.582H177.54C177.39 145.581 177.242 145.611 177.103 145.668C176.965 145.725 176.839 145.809 176.733 145.915C176.627 146.021 176.543 146.147 176.486 146.285C176.429 146.424 176.4 146.572 176.4 146.722V156.488C176.399 156.638 176.428 156.786 176.485 156.925C176.542 157.064 176.626 157.19 176.732 157.296C176.838 157.402 176.964 157.486 177.103 157.543C177.242 157.6 177.39 157.629 177.54 157.628H187.302C187.604 157.628 187.894 157.508 188.108 157.294C188.322 157.08 188.442 156.79 188.442 156.488V146.722C188.442 146.498 188.375 146.278 188.252 146.091C188.128 145.904 187.951 145.757 187.745 145.669Z" fill="#E6E6E6"/>
<path d="M207.808 78.9873H198.046C197.744 78.9874 197.454 79.1076 197.24 79.3215C197.027 79.5354 196.906 79.8254 196.906 80.1279V89.8976C196.906 90.0472 196.936 90.1952 196.993 90.3333C197.051 90.4714 197.135 90.5968 197.241 90.7023C197.347 90.8078 197.472 90.8914 197.611 90.9483C197.749 91.0052 197.897 91.0343 198.046 91.0339H207.808C208.11 91.034 208.4 90.9145 208.613 90.7015C208.827 90.4885 208.948 90.1994 208.949 89.8976V80.1279C208.948 79.8256 208.827 79.536 208.614 79.3223C208.4 79.1086 208.111 78.9882 207.808 78.9873Z" fill="#E6E6E6"/>
<path d="M207.808 95.6359H198.046C197.744 95.636 197.454 95.7562 197.24 95.9701C197.027 96.184 196.906 96.474 196.906 96.7765V106.546C196.906 106.696 196.936 106.844 196.993 106.982C197.051 107.12 197.135 107.245 197.241 107.351C197.347 107.456 197.472 107.54 197.611 107.597C197.749 107.654 197.897 107.683 198.046 107.682H207.808C208.11 107.683 208.4 107.563 208.613 107.35C208.827 107.137 208.948 106.848 208.949 106.546V96.7765C208.948 96.4742 208.827 96.1846 208.614 95.9709C208.4 95.7572 208.111 95.6367 207.808 95.6359Z" fill="#DC5402"/>
<path d="M207.808 112.284H198.046C197.744 112.285 197.454 112.405 197.24 112.619C197.027 112.833 196.906 113.123 196.906 113.425V123.19C196.906 123.34 196.935 123.489 196.993 123.627C197.05 123.766 197.134 123.892 197.24 123.998C197.346 124.104 197.471 124.188 197.61 124.245C197.748 124.302 197.897 124.331 198.046 124.331H207.808C208.111 124.331 208.401 124.211 208.615 123.997C208.828 123.783 208.949 123.493 208.949 123.19V113.425C208.948 113.123 208.827 112.833 208.614 112.619C208.4 112.406 208.111 112.285 207.808 112.284Z" fill="#DC5402"/>
<path d="M207.808 128.933H198.046C197.807 128.933 197.575 129.009 197.381 129.149C197.187 129.289 197.043 129.487 196.968 129.714C196.927 129.829 196.906 129.951 196.906 130.074V139.839C196.906 139.989 196.935 140.137 196.992 140.276C197.05 140.414 197.134 140.54 197.24 140.646C197.345 140.752 197.471 140.836 197.61 140.893C197.748 140.951 197.897 140.98 198.046 140.98H207.808C208.111 140.98 208.401 140.859 208.615 140.645C208.828 140.432 208.949 140.141 208.949 139.839V130.074C208.948 129.771 208.827 129.482 208.614 129.268C208.4 129.054 208.111 128.934 207.808 128.933Z" fill="#DC5402"/>
<path d="M207.808 145.582H198.046C197.897 145.581 197.748 145.611 197.61 145.668C197.471 145.725 197.346 145.809 197.24 145.915C197.134 146.021 197.05 146.147 196.993 146.285C196.935 146.424 196.906 146.572 196.906 146.722V156.488C196.906 156.637 196.935 156.786 196.993 156.924C197.05 157.063 197.134 157.189 197.24 157.295C197.346 157.401 197.471 157.485 197.61 157.542C197.748 157.599 197.897 157.629 198.046 157.628H207.808C208.111 157.628 208.401 157.508 208.615 157.294C208.828 157.08 208.949 156.79 208.949 156.488V146.722C208.949 146.42 208.828 146.13 208.615 145.916C208.401 145.702 208.111 145.582 207.808 145.582Z" fill="#E6E6E6"/>
<path d="M228.315 78.9873H218.553C218.251 78.9874 217.961 79.1076 217.747 79.3215C217.533 79.5354 217.413 79.8254 217.413 80.1279V89.8976C217.413 90.0472 217.443 90.1952 217.5 90.3333C217.557 90.4714 217.641 90.5968 217.747 90.7023C217.853 90.8078 217.979 90.8914 218.117 90.9483C218.255 91.0052 218.403 91.0343 218.553 91.0339H228.315C228.617 91.034 228.906 90.9145 229.12 90.7015C229.333 90.4885 229.454 90.1994 229.455 89.8976V80.1279C229.454 79.8256 229.334 79.536 229.12 79.3223C228.907 79.1086 228.617 78.9882 228.315 78.9873Z" fill="#DC5402"/>
<path d="M228.315 95.6359H218.553C218.251 95.636 217.961 95.7562 217.747 95.9701C217.533 96.184 217.413 96.474 217.413 96.7765V106.546C217.413 106.696 217.443 106.844 217.5 106.982C217.557 107.12 217.641 107.245 217.747 107.351C217.853 107.456 217.979 107.54 218.117 107.597C218.255 107.654 218.403 107.683 218.553 107.682H228.315C228.617 107.683 228.906 107.563 229.12 107.35C229.333 107.137 229.454 106.848 229.455 106.546V96.7765C229.454 96.4742 229.334 96.1846 229.12 95.9709C228.907 95.7572 228.617 95.6367 228.315 95.6359Z" fill="#DC5402"/>
<path d="M228.315 112.284H218.553C218.251 112.285 217.961 112.405 217.747 112.619C217.533 112.833 217.413 113.123 217.413 113.425V123.19C217.412 123.34 217.442 123.489 217.499 123.627C217.556 123.766 217.64 123.892 217.746 123.998C217.852 124.104 217.978 124.188 218.116 124.245C218.255 124.302 218.403 124.331 218.553 124.331H228.315C228.617 124.331 228.907 124.211 229.121 123.997C229.335 123.783 229.455 123.493 229.455 123.19V113.425C229.454 113.123 229.334 112.833 229.12 112.619C228.907 112.406 228.617 112.285 228.315 112.284Z" fill="#E6E6E6"/>
<path d="M228.315 128.933H218.553C218.251 128.933 217.961 129.053 217.747 129.267C217.533 129.481 217.413 129.771 217.413 130.074V139.839C217.412 139.989 217.442 140.137 217.499 140.276C217.556 140.414 217.64 140.54 217.746 140.646C217.852 140.752 217.978 140.836 218.116 140.893C218.255 140.951 218.403 140.98 218.553 140.98H228.315C228.617 140.98 228.907 140.859 229.121 140.645C229.335 140.432 229.455 140.142 229.455 139.839V130.074C229.454 129.771 229.334 129.482 229.12 129.268C228.907 129.054 228.617 128.934 228.315 128.933Z" fill="#DC5402"/>
<path d="M228.315 145.582H218.553C218.403 145.581 218.255 145.611 218.116 145.668C217.978 145.725 217.852 145.809 217.746 145.915C217.64 146.021 217.556 146.147 217.499 146.285C217.442 146.424 217.412 146.572 217.413 146.722V156.488C217.412 156.637 217.442 156.786 217.499 156.924C217.556 157.063 217.64 157.189 217.746 157.295C217.852 157.401 217.978 157.485 218.116 157.542C218.255 157.599 218.403 157.629 218.553 157.628H228.315C228.617 157.628 228.907 157.508 229.121 157.294C229.335 157.08 229.455 156.79 229.455 156.488V146.722C229.455 146.42 229.335 146.13 229.121 145.916C228.907 145.702 228.617 145.582 228.315 145.582Z" fill="#DC5402"/>
<path d="M248.821 78.9873H239.059C238.757 78.9874 238.467 79.1076 238.253 79.3215C238.039 79.5354 237.919 79.8254 237.919 80.1279V89.8976C237.919 90.0472 237.949 90.1952 238.006 90.3333C238.064 90.4714 238.148 90.5968 238.254 90.7023C238.36 90.8078 238.485 90.8914 238.623 90.9484C238.762 91.0053 238.91 91.0343 239.059 91.0339H248.821C249.123 91.034 249.412 90.9145 249.626 90.7015C249.84 90.4885 249.961 90.1994 249.962 89.8976V80.1279C249.961 79.8256 249.84 79.536 249.627 79.3223C249.413 79.1086 249.123 78.9882 248.821 78.9873Z" fill="#DC5402"/>
<path d="M248.821 95.6359H239.059C238.757 95.636 238.467 95.7562 238.253 95.9701C238.039 96.184 237.919 96.474 237.919 96.7765V106.546C237.919 106.696 237.949 106.844 238.006 106.982C238.064 107.12 238.148 107.245 238.254 107.351C238.36 107.456 238.485 107.54 238.623 107.597C238.762 107.654 238.91 107.683 239.059 107.682H248.821C249.123 107.683 249.412 107.563 249.626 107.35C249.84 107.137 249.961 106.848 249.962 106.546V96.7765C249.961 96.4742 249.84 96.1846 249.627 95.9709C249.413 95.7572 249.123 95.6367 248.821 95.6359Z" fill="white"/>
<path d="M248.821 112.284H239.059C238.757 112.285 238.467 112.405 238.253 112.619C238.039 112.833 237.919 113.123 237.919 113.425V123.19C237.919 123.34 237.948 123.489 238.005 123.627C238.062 123.766 238.146 123.892 238.252 123.998C238.358 124.104 238.484 124.188 238.623 124.245C238.761 124.302 238.909 124.331 239.059 124.331H248.821C249.124 124.331 249.414 124.211 249.627 123.997C249.841 123.783 249.961 123.493 249.962 123.19V113.425C249.961 113.123 249.84 112.833 249.627 112.619C249.413 112.406 249.123 112.285 248.821 112.284Z" fill="white"/>
<path d="M248.821 128.933H239.059C238.757 128.933 238.467 129.053 238.253 129.267C238.039 129.481 237.919 129.771 237.919 130.074V139.839C237.919 139.989 237.948 140.137 238.005 140.276C238.062 140.414 238.146 140.54 238.252 140.646C238.358 140.752 238.484 140.836 238.623 140.893C238.761 140.951 238.909 140.98 239.059 140.98H248.821C249.124 140.98 249.414 140.859 249.627 140.645C249.841 140.432 249.961 140.142 249.962 139.839V130.074C249.961 129.771 249.84 129.482 249.627 129.268C249.413 129.054 249.123 128.934 248.821 128.933Z" fill="#E6E6E6"/>
<path d="M248.821 145.582H239.059C238.909 145.581 238.761 145.611 238.623 145.668C238.484 145.725 238.358 145.809 238.252 145.915C238.146 146.021 238.062 146.147 238.005 146.285C237.948 146.424 237.919 146.572 237.919 146.722V156.488C237.919 156.637 237.948 156.786 238.005 156.924C238.062 157.063 238.146 157.189 238.252 157.295C238.358 157.401 238.484 157.485 238.623 157.542C238.761 157.599 238.909 157.629 239.059 157.628H248.821C249.124 157.628 249.414 157.508 249.627 157.294C249.841 157.08 249.961 156.79 249.962 156.488V146.722C249.961 146.42 249.841 146.13 249.627 145.916C249.414 145.702 249.124 145.582 248.821 145.582Z" fill="#DC5402"/>
<path d="M269.328 78.9873H259.561C259.26 78.9883 258.971 79.109 258.758 79.3228C258.545 79.5366 258.425 79.8261 258.425 80.1279V89.8976C258.426 90.199 258.545 90.4879 258.758 90.701C258.971 90.9141 259.26 91.0338 259.561 91.0339H269.328C269.629 91.034 269.919 90.9145 270.133 90.7015C270.346 90.4885 270.467 90.1994 270.468 89.8976V80.1279C270.467 79.8256 270.347 79.536 270.133 79.3223C269.919 79.1086 269.63 78.9882 269.328 78.9873Z" fill="white"/>
<path d="M269.328 95.6359H259.561C259.26 95.6369 258.971 95.7576 258.758 95.9714C258.545 96.1852 258.425 96.4747 258.425 96.7765V106.546C258.426 106.848 258.545 107.137 258.758 107.35C258.971 107.563 259.26 107.682 259.561 107.682H269.328C269.629 107.683 269.919 107.563 270.133 107.35C270.346 107.137 270.467 106.848 270.468 106.546V96.7765C270.467 96.4742 270.347 96.1846 270.133 95.9709C269.919 95.7572 269.63 95.6367 269.328 95.6359Z" fill="white"/>
<path d="M269.328 112.284H259.561C259.26 112.285 258.971 112.406 258.758 112.62C258.545 112.834 258.425 113.123 258.425 113.425V123.19C258.425 123.34 258.454 123.488 258.511 123.626C258.568 123.765 258.651 123.89 258.757 123.996C258.862 124.102 258.988 124.186 259.126 124.244C259.264 124.301 259.412 124.331 259.561 124.331H269.328C269.63 124.331 269.92 124.211 270.134 123.997C270.348 123.783 270.468 123.493 270.468 123.19V113.425C270.467 113.123 270.347 112.833 270.133 112.619C269.919 112.406 269.63 112.285 269.328 112.284Z" fill="white"/>
<path d="M269.328 128.933H259.561C259.26 128.934 258.971 129.055 258.758 129.269C258.545 129.482 258.425 129.772 258.425 130.074V139.839C258.425 139.989 258.454 140.137 258.511 140.275C258.568 140.413 258.651 140.539 258.757 140.645C258.862 140.751 258.988 140.835 259.126 140.892C259.264 140.95 259.412 140.98 259.561 140.98H269.328C269.63 140.98 269.92 140.859 270.134 140.645C270.348 140.432 270.468 140.142 270.468 139.839V130.074C270.467 129.771 270.347 129.482 270.133 129.268C269.919 129.054 269.63 128.934 269.328 128.933Z" fill="#DC5402"/>
<path d="M269.328 145.582H259.561C259.412 145.582 259.264 145.611 259.126 145.669C258.988 145.726 258.862 145.81 258.757 145.916C258.651 146.022 258.568 146.148 258.511 146.286C258.454 146.424 258.425 146.573 258.425 146.722V156.488C258.425 156.637 258.454 156.785 258.511 156.924C258.568 157.062 258.651 157.188 258.757 157.294C258.862 157.399 258.988 157.484 259.126 157.541C259.264 157.598 259.412 157.628 259.561 157.628H269.328C269.63 157.628 269.92 157.508 270.134 157.294C270.348 157.08 270.468 156.79 270.468 156.488V146.722C270.468 146.42 270.348 146.13 270.134 145.916C269.92 145.702 269.63 145.582 269.328 145.582Z" fill="#E6E6E6"/>
<path d="M289.834 78.9873H280.068C279.766 78.9883 279.477 79.109 279.264 79.3228C279.051 79.5366 278.932 79.8261 278.932 80.1279V89.8976C278.932 90.199 279.052 90.4879 279.265 90.701C279.478 90.9141 279.766 91.0338 280.068 91.0339H289.834C290.136 91.034 290.425 90.9145 290.639 90.7015C290.853 90.4885 290.973 90.1994 290.974 89.8976V80.1279C290.973 79.8256 290.853 79.536 290.639 79.3223C290.426 79.1086 290.136 78.9882 289.834 78.9873Z" fill="white"/>
<path d="M289.834 95.6359H280.068C279.766 95.6369 279.477 95.7576 279.264 95.9714C279.051 96.1852 278.932 96.4747 278.932 96.7765V106.546C278.932 106.848 279.052 107.137 279.265 107.35C279.478 107.563 279.766 107.682 280.068 107.682H289.834C290.136 107.683 290.425 107.563 290.639 107.35C290.853 107.137 290.973 106.848 290.974 106.546V96.7765C290.974 96.4742 290.853 96.1846 290.639 95.9709C290.426 95.7572 290.136 95.6367 289.834 95.6359Z" fill="white"/>
<path d="M289.834 112.284H280.068C279.766 112.285 279.477 112.406 279.264 112.62C279.051 112.834 278.932 113.123 278.932 113.425V123.19C278.931 123.34 278.961 123.488 279.017 123.626C279.074 123.765 279.158 123.89 279.263 123.996C279.369 124.102 279.494 124.186 279.632 124.244C279.77 124.301 279.918 124.331 280.068 124.331H289.834C290.136 124.331 290.426 124.211 290.64 123.997C290.854 123.783 290.974 123.493 290.974 123.19V113.425C290.974 113.123 290.853 112.833 290.639 112.619C290.426 112.406 290.136 112.285 289.834 112.284Z" fill="#DC5402"/>
<path d="M289.834 128.933H280.068C279.766 128.934 279.477 129.055 279.264 129.269C279.051 129.482 278.932 129.772 278.932 130.074V139.839C278.931 139.989 278.961 140.137 279.017 140.275C279.074 140.413 279.158 140.539 279.263 140.645C279.369 140.751 279.494 140.835 279.632 140.892C279.77 140.95 279.918 140.98 280.068 140.98H289.834C290.136 140.98 290.426 140.859 290.64 140.645C290.854 140.432 290.974 140.142 290.974 139.839V130.074C290.973 129.771 290.853 129.482 290.639 129.268C290.426 129.054 290.136 128.934 289.834 128.933Z" fill="#E6E6E6"/>
<path d="M289.834 145.582H280.068C279.918 145.582 279.77 145.611 279.632 145.669C279.494 145.726 279.369 145.81 279.263 145.916C279.158 146.022 279.074 146.148 279.017 146.286C278.961 146.424 278.931 146.573 278.932 146.722V156.488C278.931 156.637 278.961 156.785 279.017 156.924C279.074 157.062 279.158 157.188 279.263 157.294C279.369 157.399 279.494 157.484 279.632 157.541C279.77 157.598 279.918 157.628 280.068 157.628H289.834C290.137 157.628 290.426 157.508 290.64 157.294C290.854 157.08 290.974 156.79 290.974 156.488V146.722C290.974 146.42 290.854 146.13 290.64 145.916C290.426 145.702 290.136 145.582 289.834 145.582Z" fill="white"/>
<path d="M310.341 78.9873H300.574C300.272 78.9883 299.984 79.109 299.771 79.3228C299.558 79.5366 299.438 79.8261 299.438 80.1279V89.8976C299.438 90.199 299.558 90.4879 299.771 90.701C299.984 90.9141 300.273 91.0338 300.574 91.0339H310.341C310.642 91.034 310.932 90.9145 311.145 90.7015C311.359 90.4885 311.48 90.1994 311.481 89.8976V80.1279C311.48 79.8256 311.359 79.536 311.146 79.3223C310.932 79.1086 310.643 78.9882 310.341 78.9873Z" fill="#DC5402"/>
<path d="M310.341 95.6359H300.574C300.272 95.6369 299.983 95.7576 299.771 95.9714C299.558 96.1852 299.438 96.4747 299.438 96.7765V106.546C299.438 106.848 299.558 107.137 299.771 107.35C299.984 107.563 300.273 107.682 300.574 107.682H310.341C310.642 107.683 310.932 107.563 311.145 107.35C311.359 107.137 311.48 106.848 311.481 106.546V96.7765C311.48 96.4742 311.359 96.1846 311.146 95.9709C310.932 95.7572 310.643 95.6367 310.341 95.6359Z" fill="#DC5402"/>
<path d="M310.34 112.284H300.574C300.272 112.285 299.983 112.406 299.771 112.62C299.558 112.834 299.438 113.123 299.438 113.425V123.19C299.438 123.34 299.467 123.488 299.524 123.626C299.581 123.765 299.664 123.89 299.77 123.996C299.875 124.102 300.001 124.186 300.139 124.244C300.277 124.301 300.425 124.331 300.574 124.331H310.34C310.643 124.331 310.933 124.211 311.147 123.997C311.36 123.783 311.481 123.493 311.481 123.19V113.425C311.48 113.123 311.359 112.833 311.146 112.619C310.932 112.406 310.643 112.285 310.34 112.284Z" fill="#E6E6E6"/>
<path d="M310.34 128.933H300.574C300.272 128.934 299.984 129.055 299.771 129.269C299.558 129.482 299.438 129.772 299.438 130.074V139.839C299.438 139.989 299.467 140.137 299.524 140.275C299.581 140.413 299.664 140.539 299.77 140.645C299.875 140.751 300.001 140.835 300.139 140.892C300.277 140.95 300.425 140.98 300.574 140.98H310.34C310.643 140.98 310.933 140.859 311.147 140.645C311.36 140.432 311.481 140.142 311.481 139.839V130.074C311.48 129.771 311.359 129.482 311.146 129.268C310.932 129.054 310.643 128.934 310.34 128.933Z" fill="white"/>
<path d="M310.34 145.582H300.574C300.425 145.582 300.277 145.611 300.139 145.669C300.001 145.726 299.875 145.81 299.77 145.916C299.664 146.022 299.581 146.148 299.524 146.286C299.467 146.424 299.438 146.573 299.438 146.722V156.488C299.438 156.637 299.467 156.785 299.524 156.924C299.581 157.062 299.664 157.188 299.77 157.294C299.875 157.399 300.001 157.484 300.139 157.541C300.277 157.598 300.425 157.628 300.574 157.628H310.34C310.643 157.628 310.933 157.508 311.147 157.294C311.36 157.08 311.481 156.79 311.481 156.488V146.722C311.481 146.42 311.36 146.13 311.147 145.916C310.933 145.702 310.643 145.582 310.34 145.582Z" fill="#DC5402"/>
<path d="M330.847 78.9873H321.081C320.779 78.9883 320.49 79.109 320.277 79.3228C320.064 79.5366 319.945 79.8261 319.945 80.1279V89.8976C319.945 90.199 320.064 90.4879 320.277 90.701C320.49 90.9141 320.779 91.0338 321.081 91.0339H330.847C331.149 91.034 331.438 90.9145 331.652 90.7015C331.866 90.4885 331.986 90.1994 331.987 89.8976V80.1279C331.986 79.8256 331.866 79.536 331.652 79.3223C331.439 79.1086 331.149 78.9882 330.847 78.9873Z" fill="#DC5402"/>
<path d="M330.847 95.6359H321.081C320.779 95.6369 320.49 95.7576 320.277 95.9714C320.064 96.1852 319.945 96.4747 319.945 96.7765V106.546C319.945 106.848 320.064 107.137 320.277 107.35C320.49 107.563 320.779 107.682 321.081 107.682H330.847C331.149 107.683 331.438 107.563 331.652 107.35C331.866 107.137 331.986 106.848 331.987 106.546V96.7765C331.986 96.4742 331.866 96.1846 331.652 95.9709C331.439 95.7572 331.149 95.6367 330.847 95.6359Z" fill="#DC5402"/>
<path d="M330.847 112.284H321.081C320.779 112.285 320.49 112.406 320.277 112.62C320.064 112.834 319.945 113.123 319.945 113.425V123.19C319.944 123.34 319.973 123.488 320.03 123.626C320.087 123.765 320.171 123.89 320.276 123.996C320.382 124.102 320.507 124.186 320.645 124.244C320.783 124.301 320.931 124.331 321.081 124.331H330.847C331.149 124.331 331.439 124.211 331.653 123.997C331.867 123.783 331.987 123.493 331.987 123.19V113.425C331.986 113.123 331.866 112.833 331.652 112.619C331.439 112.406 331.149 112.285 330.847 112.284Z" fill="#E6E6E6"/>
<path d="M330.847 128.933H321.081C320.779 128.934 320.49 129.055 320.277 129.269C320.064 129.482 319.945 129.772 319.945 130.074V139.839C319.944 139.989 319.973 140.137 320.03 140.275C320.087 140.413 320.171 140.539 320.276 140.645C320.382 140.751 320.507 140.835 320.645 140.892C320.783 140.95 320.931 140.98 321.081 140.98H330.847C331.149 140.98 331.439 140.859 331.653 140.645C331.867 140.432 331.987 140.142 331.987 139.839V130.074C331.986 129.771 331.866 129.482 331.652 129.268C331.439 129.054 331.149 128.934 330.847 128.933Z" fill="#DC5402"/>
<path d="M330.847 145.582H321.081C320.931 145.582 320.783 145.611 320.645 145.669C320.507 145.726 320.382 145.81 320.276 145.916C320.171 146.022 320.087 146.148 320.03 146.286C319.973 146.424 319.944 146.573 319.945 146.722V156.488C319.944 156.637 319.973 156.785 320.03 156.924C320.087 157.062 320.171 157.188 320.276 157.294C320.382 157.399 320.507 157.484 320.645 157.541C320.783 157.598 320.931 157.628 321.081 157.628H330.847C331.149 157.628 331.439 157.508 331.653 157.294C331.867 157.08 331.987 156.79 331.987 156.488V146.722C331.987 146.42 331.867 146.13 331.653 145.916C331.439 145.702 331.149 145.582 330.847 145.582Z" fill="#DC5402"/>
<path d="M351.353 78.9873H341.587C341.285 78.9883 340.996 79.109 340.783 79.3228C340.571 79.5366 340.451 79.8261 340.451 80.1279V89.8976C340.451 90.199 340.571 90.4879 340.784 90.701C340.997 90.9141 341.286 91.0338 341.587 91.0339H351.353C351.655 91.034 351.944 90.9145 352.158 90.7015C352.372 90.4885 352.493 90.1994 352.494 89.8976V80.1279C352.493 79.8256 352.372 79.536 352.159 79.3223C351.945 79.1086 351.655 78.9882 351.353 78.9873Z" fill="#E6E6E6"/>
<path d="M351.353 95.6359H341.587C341.285 95.6369 340.996 95.7576 340.783 95.9714C340.57 96.1852 340.451 96.4747 340.451 96.7765V106.546C340.451 106.848 340.571 107.137 340.784 107.35C340.997 107.563 341.286 107.682 341.587 107.682H351.353C351.655 107.683 351.944 107.563 352.158 107.35C352.372 107.137 352.493 106.848 352.494 106.546V96.7765C352.493 96.4742 352.372 96.1846 352.159 95.9709C351.945 95.7572 351.655 95.6367 351.353 95.6359Z" fill="#DC5402"/>
<path d="M351.353 112.284H341.587C341.285 112.285 340.996 112.406 340.783 112.62C340.57 112.834 340.451 113.123 340.451 113.425V123.19C340.451 123.34 340.48 123.488 340.537 123.626C340.594 123.765 340.677 123.89 340.783 123.996C340.888 124.102 341.013 124.186 341.151 124.244C341.289 124.301 341.437 124.331 341.587 124.331H351.353C351.656 124.331 351.946 124.211 352.159 123.997C352.373 123.783 352.493 123.493 352.494 123.19V113.425C352.493 113.123 352.372 112.833 352.159 112.619C351.945 112.406 351.655 112.285 351.353 112.284Z" fill="#DC5402"/>
<path d="M351.353 128.933H341.587C341.285 128.934 340.996 129.055 340.783 129.269C340.57 129.482 340.451 129.772 340.451 130.074V139.839C340.451 139.989 340.48 140.137 340.537 140.275C340.594 140.413 340.677 140.539 340.783 140.645C340.888 140.751 341.013 140.835 341.151 140.892C341.289 140.95 341.437 140.98 341.587 140.98H351.353C351.656 140.98 351.946 140.859 352.159 140.645C352.373 140.432 352.493 140.142 352.494 139.839V130.074C352.493 129.771 352.372 129.482 352.159 129.268C351.945 129.054 351.655 128.934 351.353 128.933Z" fill="#DC5402"/>
<path d="M351.353 145.582H341.587C341.437 145.582 341.289 145.611 341.151 145.669C341.013 145.726 340.888 145.81 340.783 145.916C340.677 146.022 340.594 146.148 340.537 146.286C340.48 146.424 340.451 146.573 340.451 146.722V156.488C340.451 156.637 340.48 156.785 340.537 156.924C340.594 157.062 340.677 157.188 340.783 157.294C340.888 157.399 341.013 157.484 341.151 157.541C341.289 157.598 341.437 157.628 341.587 157.628H351.353C351.656 157.628 351.946 157.508 352.159 157.294C352.373 157.08 352.493 156.79 352.494 156.488V146.722C352.493 146.42 352.373 146.13 352.159 145.916C351.946 145.702 351.656 145.582 351.353 145.582Z" fill="#E6E6E6"/>
<path d="M371.86 78.9873H362.093C361.792 78.9884 361.503 79.109 361.29 79.3228C361.077 79.5366 360.957 79.8261 360.957 80.1279V89.8976C360.958 90.199 361.077 90.4879 361.29 90.701C361.503 90.9141 361.792 91.0338 362.093 91.0339H371.86C372.161 91.034 372.451 90.9145 372.665 90.7015C372.878 90.4885 372.999 90.1994 373 89.8976V80.1279C372.999 79.8256 372.879 79.536 372.665 79.3223C372.451 79.1086 372.162 78.9882 371.86 78.9873Z" fill="#E6E6E6"/>
<path d="M371.86 95.6359H362.093C361.792 95.6369 361.503 95.7576 361.29 95.9714C361.077 96.1852 360.957 96.4747 360.957 96.7765V106.546C360.958 106.848 361.077 107.137 361.29 107.35C361.503 107.563 361.792 107.682 362.093 107.682H371.86C372.161 107.683 372.451 107.563 372.665 107.35C372.878 107.137 372.999 106.848 373 106.546V96.7765C372.999 96.4742 372.879 96.1846 372.665 95.9709C372.451 95.7572 372.162 95.6367 371.86 95.6359Z" fill="#E6E6E6"/>
<path d="M371.86 112.284H362.093C361.792 112.285 361.503 112.406 361.29 112.62C361.077 112.834 360.957 113.123 360.957 113.425V123.19C360.957 123.34 360.986 123.488 361.043 123.626C361.1 123.765 361.183 123.89 361.289 123.996C361.394 124.102 361.52 124.186 361.658 124.244C361.796 124.301 361.944 124.331 362.093 124.331H371.86C372.162 124.331 372.452 124.211 372.666 123.997C372.88 123.783 373 123.493 373 123.19V113.425C372.999 113.123 372.879 112.833 372.665 112.619C372.451 112.406 372.162 112.285 371.86 112.284Z" fill="#DC5402"/>
<path d="M371.86 128.933H362.093C361.792 128.934 361.503 129.055 361.29 129.269C361.077 129.482 360.957 129.772 360.957 130.074V139.839C360.957 139.989 360.986 140.137 361.043 140.275C361.1 140.413 361.183 140.539 361.289 140.645C361.394 140.751 361.52 140.835 361.658 140.892C361.796 140.95 361.944 140.98 362.093 140.98H371.86C372.162 140.98 372.452 140.859 372.666 140.645C372.88 140.432 373 140.142 373 139.839V130.074C372.999 129.771 372.879 129.482 372.665 129.268C372.451 129.054 372.162 128.934 371.86 128.933Z" fill="#E6E6E6"/>
<path d="M371.86 145.582H362.093C361.944 145.582 361.796 145.611 361.658 145.669C361.52 145.726 361.394 145.81 361.289 145.916C361.183 146.022 361.1 146.148 361.043 146.286C360.986 146.424 360.957 146.573 360.957 146.722V156.488C360.957 156.637 360.986 156.785 361.043 156.924C361.1 157.062 361.183 157.188 361.289 157.294C361.394 157.399 361.52 157.484 361.658 157.541C361.796 157.598 361.944 157.628 362.093 157.628H371.86C372.162 157.628 372.452 157.508 372.666 157.294C372.88 157.08 373 156.79 373 156.488V146.722C373 146.42 372.88 146.13 372.666 145.916C372.452 145.702 372.162 145.582 371.86 145.582Z" fill="#E6E6E6"/>
<path d="M147.393 289.563H147.121L147.354 289.532L147.393 289.563Z" fill="#2F2E41"/>
<path d="M124.027 107.505C140.575 107.505 153.989 94.0856 153.989 77.5322C153.989 60.9788 140.575 47.5596 124.027 47.5596C107.479 47.5596 94.0648 60.9788 94.0648 77.5322C94.0648 94.0856 107.479 107.505 124.027 107.505Z" fill="#FFB6B6"/>
<path d="M150.266 55.5568C150.266 55.5568 158.103 40.5705 140.862 39.2081C140.862 39.2081 126.164 25.8707 111.183 36.7698C111.183 36.7698 103.011 36.7698 98.5429 46.02C98.5429 46.02 92.116 43.5817 90.7037 50.1072C90.7037 50.1072 86.001 63.7311 90.7037 75.9927C95.4064 88.2542 96.9685 89.6166 96.9685 89.6166C96.9685 89.6166 89.2409 63.9096 108.051 62.5472C126.86 61.1848 147.909 49.426 149.476 64.4123C151.044 79.3986 153.402 83.0911 153.402 83.0911C153.402 83.0911 168.291 61.6876 150.266 55.5568Z" fill="#2F2E41"/>
<path d="M201.533 151.399L201.436 151.908L200.353 157.628L192.867 197.199L192.424 199.528L191.495 204.455L190.223 211.176L187.403 226.069L186.596 230.338L186.293 231.939L186.188 232.501L185.351 236.918L185.096 238.252L183.053 253.4L181.268 266.601L187.241 272.576L183.68 276.138L181.342 289.531L181.347 289.562H85.9498C82.0906 287.061 78.2869 284.483 74.5388 281.828L75.3238 275.949C75.3238 275.949 78.0252 265.451 76.8894 264.197C75.758 262.942 73.2757 260.7 73.2757 260.7L76.4026 253.4L76.8368 252.387L76.1088 237.282L76.0913 236.918L75.8501 231.939L75.8194 231.299L75.7711 230.338L74.8458 211.176L74.8282 210.86L74.5476 205.051L74.2845 199.528L74.1704 197.199L73.0434 173.891L72.2803 158.062L71.6137 144.283L74.2932 143.375L102.952 133.631L114.824 118.194L139.531 118.378L151.626 118.47L171.808 137.194L176.4 139.387L176.435 139.405L179.728 140.98L188.078 144.967L196.906 149.188L201.436 151.35L201.533 151.399Z" fill="#CACACA"/>
<path d="M118.017 244.596C116.206 245.298 114.264 245.594 112.326 245.463C110.389 245.333 108.504 244.779 106.804 243.841C105.103 242.903 103.63 241.603 102.486 240.033C101.342 238.464 100.556 236.662 100.184 234.756L53.4527 228.124L69.6976 209.742L111.584 218.858C114.826 218.444 118.108 219.235 120.807 221.08C123.507 222.925 125.435 225.696 126.228 228.869C127.021 232.041 126.623 235.395 125.11 238.293C123.596 241.192 121.073 243.435 118.017 244.596V244.596Z" fill="#FFB6B6"/>
<path d="M97.1809 211.176C96.3152 210.078 95.0898 209.321 93.7208 209.039L74.5476 205.051L72.5785 204.643C71.4342 204.404 70.3532 203.927 69.4062 203.241C68.4593 202.555 67.6678 201.677 67.0835 200.664C66.4774 199.601 66.1107 198.418 66.009 197.199C65.9177 196.09 66.0504 194.974 66.3993 193.917L73.0433 173.891L77.3542 160.897C77.8767 159.329 78.185 157.699 78.2708 156.049C78.511 151.483 77.0989 146.984 74.2932 143.375C71.8265 140.203 68.4052 137.908 64.5349 136.831C60.6645 135.753 56.5503 135.95 52.8 137.391C52.6904 137.431 52.5764 137.474 52.4667 137.518C49.7772 138.593 47.3744 140.278 45.448 142.441C43.5216 144.604 42.1245 147.186 41.3671 149.982L36.6835 167.025L27.0223 202.16C26.0552 205.681 25.8598 209.368 26.4495 212.971C27.0392 216.574 28.4002 220.007 30.4391 223.035C32.4781 226.062 35.147 228.614 38.2631 230.514C41.3792 232.414 44.8689 233.619 48.4935 234.045L76.1087 237.282L88.888 238.783C90.3657 238.96 91.856 238.575 93.0621 237.702C94.2682 236.83 95.1015 235.535 95.396 234.076C95.4167 233.996 95.4328 233.916 95.4442 233.834L95.7512 231.939L98.3518 215.979L98.3781 215.817C98.5136 215.003 98.4771 214.169 98.2709 213.369C98.0647 212.57 97.6934 211.823 97.1809 211.176Z" fill="#CACACA"/>
<path d="M147.782 245.108C149.674 245.547 151.638 245.566 153.538 245.164C155.438 244.761 157.226 243.947 158.777 242.778C160.328 241.61 161.604 240.115 162.515 238.4C163.426 236.685 163.95 234.79 164.05 232.85L209.379 219.692L190.705 203.785L150.523 218.719C147.254 218.767 144.116 220.013 141.704 222.22C139.292 224.427 137.773 227.443 137.435 230.696C137.098 233.949 137.964 237.212 139.871 239.869C141.778 242.525 144.593 244.389 147.782 245.108V245.108Z" fill="#FFB6B6"/>
<path d="M231.885 190.258L210.326 140.624C208.562 136.549 205.413 133.231 201.436 131.258C200.207 130.653 198.916 130.182 197.586 129.854C197.38 129.802 197.174 129.753 196.968 129.714C194.147 129.098 191.221 129.152 188.425 129.872C185.869 130.529 183.48 131.717 181.414 133.36C179.348 135.002 177.652 137.062 176.435 139.405C176.422 139.424 176.41 139.445 176.4 139.466C175.041 142.096 174.318 145.008 174.29 147.968C174.262 150.929 174.929 153.854 176.238 156.509L176.505 157.045L191.74 187.653C192.26 188.699 192.554 189.844 192.6 191.012C192.647 192.18 192.447 193.345 192.012 194.43C191.577 195.515 190.918 196.495 190.077 197.307C189.237 198.12 188.234 198.745 187.135 199.142L186.065 199.528L166.822 206.481C165.378 206.997 164.19 208.053 163.509 209.427C162.828 210.8 162.706 212.385 163.169 213.847L163.217 214.001L168.611 231.268C168.638 231.347 168.664 231.426 168.695 231.505C168.742 231.654 168.801 231.799 168.87 231.939C169.443 233.225 170.457 234.265 171.728 234.87C172.998 235.476 174.444 235.608 175.803 235.242L186.188 232.501L188.306 231.939L215.123 224.854C218.652 223.921 221.937 222.237 224.755 219.916C227.572 217.595 229.855 214.692 231.447 211.407C233.038 208.122 233.902 204.531 233.977 200.881C234.053 197.23 233.339 193.607 231.885 190.258L231.885 190.258Z" fill="#CACACA"/>
<path d="M19.6898 231.939C25.9042 239.522 32.6063 246.69 39.7533 253.4H237.963C239.873 253.403 241.703 254.164 243.053 255.515C244.403 256.866 245.162 258.698 245.164 260.608L245.449 310.852C257.643 305.248 269.062 298.092 279.423 289.562C282.3 287.198 285.088 284.731 287.786 282.161C289.553 280.485 291.278 278.769 292.961 277.011C305.575 263.865 315.79 248.611 323.142 231.939H19.6898Z" fill="#3F3D56"/>
<path d="M292.961 277.011C291.281 278.77 289.556 280.487 287.786 282.161H245.594V277.011H292.961Z" fill="white"/>
<path d="M201.138 112.284C200.93 111.9 200.621 111.578 200.245 111.354C199.869 111.13 199.44 111.012 199.002 111.012H55.2296C54.585 111.014 53.9674 111.271 53.512 111.727C53.0566 112.184 52.8006 112.802 52.8001 113.447V199.528H201.436V113.447C201.439 113.04 201.336 112.64 201.138 112.284Z" fill="#3F3D56"/>
<path d="M52.6699 197.198V207.82C52.6699 208.261 52.7566 208.697 52.925 209.103C53.0935 209.51 53.3404 209.88 53.6517 210.191C53.963 210.503 54.3325 210.75 54.7392 210.918C55.1459 211.087 55.5818 211.174 56.022 211.174H110.883V232.137H110.154C110.097 232.137 110.04 232.149 109.987 232.171C109.934 232.192 109.886 232.224 109.846 232.265C109.806 232.305 109.773 232.353 109.752 232.406C109.73 232.459 109.718 232.516 109.718 232.573V234.031C109.718 234.088 109.73 234.145 109.752 234.198C109.773 234.251 109.806 234.299 109.846 234.339C109.886 234.38 109.934 234.412 109.987 234.434C110.04 234.455 110.097 234.467 110.154 234.467H144.211C144.268 234.467 144.324 234.455 144.377 234.434C144.43 234.412 144.478 234.38 144.519 234.339C144.559 234.299 144.591 234.251 144.613 234.198C144.635 234.145 144.646 234.088 144.646 234.031V232.573C144.646 232.516 144.635 232.459 144.613 232.406C144.591 232.353 144.559 232.305 144.519 232.265C144.478 232.224 144.43 232.192 144.377 232.171C144.324 232.149 144.268 232.137 144.211 232.137H143.482V211.174H198.343C198.783 211.174 199.219 211.087 199.625 210.918C200.032 210.75 200.402 210.503 200.713 210.191C201.024 209.88 201.271 209.51 201.44 209.103C201.608 208.697 201.695 208.261 201.695 207.82V197.198H52.6699Z" fill="#3F3D56"/>
<path d="M125.382 166.71C132.964 166.71 139.111 160.561 139.111 152.975C139.111 145.39 132.964 139.241 125.382 139.241C117.799 139.241 111.652 145.39 111.652 152.975C111.652 160.561 117.799 166.71 125.382 166.71Z" fill="#DC5402"/>
<path d="M160.362 75.8945H158.169C158.169 59.3117 141.763 48.4452 125.213 48.4364C122.805 48.4294 120.403 48.663 118.043 49.1339C115.385 49.6648 112.626 50.3009 109.916 51.13C99.2289 54.4071 89.3178 60.7419 89.3178 75.8945C89.3155 78.8372 89.6898 81.7682 90.4317 84.6158L88.3091 85.1686C87.5218 82.1401 87.1239 79.0236 87.125 75.8945C87.125 62.6546 92.5586 53.5604 101.944 48.1381C106.877 45.2866 112.898 43.4484 119.797 42.5535C122.667 42.1714 125.569 42.0833 128.458 42.2903C147.491 43.659 160.362 58.2588 160.362 75.8945Z" fill="#DC5402"/>
<path d="M164.015 77.1096L163.151 70.7222C162.938 69.1091 162.162 67.6235 160.959 66.5283C160.186 65.8143 159.262 65.2853 158.255 64.9813C157.249 64.6772 156.186 64.6062 155.148 64.7735L153.775 64.9621C153.4 65.0116 153.038 65.1351 152.71 65.3257C152.383 65.5162 152.096 65.7699 151.868 66.072C151.637 66.3731 151.468 66.7169 151.371 67.0836C151.274 67.4503 151.25 67.8326 151.302 68.2085L153.297 82.9224C153.379 83.5221 153.648 84.0808 154.065 84.5193C154.482 84.9578 155.027 85.254 155.622 85.3659C155.798 85.4012 155.977 85.4189 156.157 85.4186C156.286 85.4185 156.415 85.4098 156.543 85.3922L158.077 85.1861C159.013 85.0618 159.914 84.7475 160.724 84.2624C161.534 83.7773 162.236 83.1317 162.787 82.3652C162.906 82.1985 163.02 82.0274 163.125 81.8519C163.947 80.4165 164.261 78.7456 164.015 77.1096Z" fill="#DC5402"/>
<path d="M152.889 65.2297C152.487 65.4254 152.137 65.7141 151.868 66.072C151.637 66.3731 151.468 66.717 151.371 67.0837C151.274 67.4504 151.25 67.8326 151.302 68.2085L153.297 82.9224C153.379 83.5221 153.648 84.0808 154.065 84.5193C154.482 84.9578 155.027 85.254 155.622 85.366L152.889 65.2297Z" fill="white"/>
<path d="M164.015 77.1097L163.151 70.7222C162.938 69.1091 162.162 67.6235 160.959 66.5283L162.945 81.1676C162.975 81.4026 163.035 81.6327 163.125 81.852C163.947 80.4165 164.261 78.7456 164.015 77.1097Z" fill="#3F3D56"/>
<path d="M157.187 81.7119C157.787 81.6305 158.089 80.2021 157.861 78.5215C157.633 76.8408 156.962 75.5445 156.362 75.6259C155.762 75.7073 155.46 77.1357 155.688 78.8163C155.916 80.4969 156.587 81.7933 157.187 81.7119Z" fill="#3F3D56"/>
<path d="M155.872 73.8153C156.472 73.7339 156.773 72.3055 156.545 70.6249C156.317 68.9443 155.646 67.6479 155.046 67.7293C154.446 67.8108 154.145 69.2392 154.373 70.9198C154.6 72.6004 155.272 73.8968 155.872 73.8153Z" fill="#3F3D56"/>
<path d="M164.204 76.8862C164.804 76.8048 165.106 75.3764 164.878 73.6958C164.65 72.0152 163.979 70.7188 163.379 70.8002C162.779 70.8816 162.477 72.31 162.705 73.9906C162.933 75.6712 163.604 76.9676 164.204 76.8862Z" fill="#3F3D56"/>
<path d="M125.213 48.4364C122.805 48.4294 120.403 48.663 118.043 49.1339C115.385 49.6648 112.626 50.3009 109.916 51.13C105.684 50.9238 102.571 49.8271 101.944 48.1381C106.877 45.2866 112.898 43.4484 119.797 42.5535C122.667 42.1714 125.569 42.0833 128.458 42.2903C128.764 42.4696 129.028 42.7116 129.234 43.0004C129.439 43.2893 129.581 43.6184 129.651 43.9661C129.857 45.4928 128.116 47.1159 125.213 48.4364Z" fill="#3F3D56"/>
<path d="M97.216 91.1173L93.8392 77.0746C93.7188 76.5679 93.4514 76.1082 93.0706 75.753C92.6899 75.3979 92.2127 75.1632 91.6991 75.0785C91.554 75.0559 91.4074 75.0442 91.2605 75.0434C91.0537 75.0441 90.8476 75.0692 90.6466 75.118L89.3397 75.4338C87.6571 75.8409 86.2046 76.8991 85.301 78.3763C84.3975 79.8534 84.1166 81.6288 84.5201 83.3128L86.0331 89.6125C86.3785 91.0956 87.2013 92.4242 88.3749 93.3941C88.5651 93.5477 88.7643 93.6898 88.9713 93.8197C89.7064 94.2806 90.5264 94.5894 91.3828 94.7281C92.2392 94.8667 93.1147 94.8323 93.9576 94.6269L95.2601 94.311C95.6045 94.2306 95.9285 94.0798 96.2117 93.8679C96.6329 93.5607 96.9533 93.1352 97.1321 92.6454C97.3109 92.1556 97.3401 91.6237 97.216 91.1173Z" fill="#DC5402"/>
<path d="M90.1369 88.5044C90.7256 88.3627 90.8812 86.9111 90.4846 85.2622C90.0879 83.6133 89.2891 82.3914 88.7004 82.5331C88.1117 82.6749 87.956 84.1265 88.3527 85.7754C88.7494 87.4243 89.5482 88.6462 90.1369 88.5044Z" fill="#3F3D56"/>
<path d="M85.7514 89.8205C86.3401 89.6788 86.4958 88.2272 86.0991 86.5783C85.7024 84.9294 84.9036 83.7075 84.3149 83.8492C83.7262 83.991 83.5706 85.4426 83.9672 87.0915C84.3639 88.7404 85.1627 89.9622 85.7514 89.8205Z" fill="#3F3D56"/>
<path d="M97.4309 91.0646L94.0541 77.0219C93.9225 76.4738 93.6322 75.9766 93.2196 75.5927C92.8069 75.2088 92.2902 74.9551 91.7342 74.8635L96.3433 94.0434C96.7985 93.7099 97.1447 93.249 97.3383 92.7189C97.5318 92.1887 97.5641 91.6131 97.4309 91.0646Z" fill="white"/>
<path d="M85.2832 80.5315C85.19 80.141 85.0151 79.7746 84.7701 79.4567C84.2954 80.6864 84.2082 82.032 84.5201 83.3128L86.0331 89.6125C86.3785 91.0956 87.2013 92.4242 88.3749 93.3941L85.2832 80.5315Z" fill="#3F3D56"/>
</g>
<defs>
<clipPath id="clip0_108:586">
<rect width="373" height="325" fill="white"/>
</clipPath>
</defs>
</svg>
