<svg width="640" height="462" viewBox="0 0 640 462" fill="none" xmlns="http://www.w3.org/2000/svg">
<g clip-path="url(#clip0_111:597)">
<path d="M80.9529 139.378C96.4075 139.378 108.936 126.849 108.936 111.394C108.936 95.9385 96.4075 83.4094 80.9529 83.4094C65.4983 83.4094 52.9699 95.9385 52.9699 111.394C52.9699 126.849 65.4983 139.378 80.9529 139.378Z" fill="#3148D3"/>
<path d="M306.099 397C455.27 397 576.197 392.097 576.197 386.05C576.197 380.002 455.27 375.099 306.099 375.099C156.927 375.099 36 380.002 36 386.05C36 392.097 156.927 397 306.099 397Z" fill="#E6E6E6"/>
<path d="M104.741 248.815C142.705 248.815 173.482 218.037 173.482 180.071C173.482 142.104 142.705 111.327 104.741 111.327C66.7763 111.327 36 142.104 36 180.071C36 218.037 66.7763 248.815 104.741 248.815Z" fill="#EE6A1A"/>
<path d="M111.367 387.132H97.287L103.705 169.718L111.367 387.132Z" fill="#3F3D56"/>
<path d="M104.948 210.923L120.063 190.01L104.741 216.099L103.084 213.201L104.948 210.923Z" fill="#3F3D56"/>
<path d="M103.291 232.043L88.1767 211.13L103.499 237.22L105.155 234.321L103.291 232.043Z" fill="#3F3D56"/>
<path d="M539.393 387.361H525.313L531.732 169.947L539.393 387.361Z" fill="#3F3D56"/>
<path d="M532.974 211.152L548.089 190.239L532.767 216.328L531.111 213.429L532.974 211.152Z" fill="#3F3D56"/>
<path d="M531.318 232.272L516.203 211.359L531.525 237.448L533.182 234.55L531.318 232.272Z" fill="#3F3D56"/>
<path d="M315.255 387.324C385.978 387.324 443.31 329.989 443.31 259.263C443.31 188.537 385.978 131.202 315.255 131.202C244.533 131.202 187.201 188.537 187.201 259.263C187.201 329.989 244.533 387.324 315.255 387.324Z" fill="#3F3D56"/>
<path d="M315.255 376.723C380.123 376.723 432.71 324.134 432.71 259.263C432.71 194.392 380.123 141.803 315.255 141.803C250.387 141.803 197.801 194.392 197.801 259.263C197.801 324.134 250.387 376.723 315.255 376.723Z" fill="white"/>
<path d="M314.831 275.377C323.496 275.377 330.52 268.352 330.52 259.687C330.52 251.022 323.496 243.997 314.831 243.997C306.167 243.997 299.142 251.022 299.142 259.687C299.142 268.352 306.167 275.377 314.831 275.377Z" fill="#3F3D56"/>
<path d="M318.223 147.74H311.439V160.461H318.223V147.74Z" fill="#3F3D56"/>
<path d="M318.223 358.913H311.439V371.634H318.223V358.913Z" fill="#3F3D56"/>
<path d="M215.61 263.079V256.295H202.889V263.079H215.61Z" fill="#3F3D56"/>
<path d="M426.773 263.079V256.295H414.053V263.079H426.773Z" fill="#3F3D56"/>
<path d="M310.309 266.498L316.107 253.24L388.756 293.478L310.309 266.498Z" fill="#3F3D56"/>
<path d="M331.792 100.247H298.719V138.411H331.792V100.247Z" fill="#3F3D56"/>
<path d="M315.255 110.848C336.332 110.848 353.417 106.102 353.417 100.247C353.417 94.392 336.332 89.6458 315.255 89.6458C294.179 89.6458 277.093 94.392 277.093 100.247C277.093 106.102 294.179 110.848 315.255 110.848Z" fill="#3F3D56"/>
<path d="M386.703 281.949L384.583 284.918C384.583 284.918 374.83 296.367 374.406 290.854C373.982 285.342 381.615 281.525 381.615 281.525L385.855 278.981L386.703 281.949Z" fill="#FFB8B8"/>
<path d="M447.061 291.964L448.836 295.15C448.836 295.15 455.01 308.865 449.846 306.889C444.683 304.913 444.5 296.381 444.5 296.381L444.015 291.46L447.061 291.964Z" fill="#FFB8B8"/>
<path d="M437.515 235.46C444.646 235.46 450.427 229.679 450.427 222.548C450.427 215.417 444.646 209.636 437.515 209.636C430.385 209.636 424.604 215.417 424.604 222.548C424.604 229.679 430.385 235.46 437.515 235.46Z" fill="#2F2E41"/>
<path d="M436.314 328.594L438.01 339.619V343.011H447.762V338.771C447.762 338.771 448.186 331.138 446.49 329.018C444.794 326.898 436.314 328.594 436.314 328.594Z" fill="#FFB8B8"/>
<path d="M418.929 328.594L420.625 339.619V343.011H430.377V338.771C430.377 338.771 430.801 331.138 429.105 329.018C427.409 326.898 418.929 328.594 418.929 328.594Z" fill="#FFB8B8"/>
<path d="M425.492 240.034C425.492 240.034 421.741 242.011 424.303 246.508C426.865 251.006 441.897 297.535 441.897 297.535L450.569 295.073L442.921 265.647L438.542 247.152L425.492 240.034Z" fill="#EE6A1A"/>
<path d="M436.102 235.941C441.488 235.941 445.854 231.574 445.854 226.188C445.854 220.801 441.488 216.435 436.102 216.435C430.716 216.435 426.349 220.801 426.349 226.188C426.349 231.574 430.716 235.941 436.102 235.941Z" fill="#FFB8B8"/>
<path d="M440.554 227.672L439.282 247.602L430.377 241.241C430.377 241.241 433.346 229.368 432.498 228.52L440.554 227.672Z" fill="#FFB8B8"/>
<path d="M440.554 245.906L430.961 238.802C430.961 238.802 426.561 237.001 425.289 239.121C424.017 241.241 417.657 272.62 421.049 278.557C421.049 278.557 439.282 282.373 443.098 280.253L444.794 269.228C444.794 269.228 446.914 262.443 443.522 258.203L440.554 245.906Z" fill="#EE6A1A"/>
<path d="M427.833 239.545C427.833 239.545 424.441 237.001 421.473 241.241C418.505 245.481 382.887 278.981 382.887 278.981L388.823 285.766L412.144 266.26L426.985 254.386L427.833 239.545Z" fill="#EE6A1A"/>
<path d="M443.31 280.041C443.31 280.041 422.321 276.013 420.201 278.981L419.777 283.645C419.777 283.645 415.113 292.55 417.657 306.968C420.201 321.385 418.505 330.29 418.505 330.29C418.505 330.29 429.953 329.018 438.434 330.29C446.914 331.562 448.186 330.29 448.186 330.29L443.31 280.041Z" fill="#2F2E41"/>
<path d="M448.61 341.315L436.314 341.739L440.554 373.543C440.554 373.543 437.162 387.112 440.978 387.96C443.631 388.496 446.328 388.78 449.034 388.808C449.034 388.808 452.851 392.625 457.091 392.201C459.907 391.841 462.635 390.979 465.147 389.656C465.147 389.656 465.995 387.112 463.027 386.264C460.059 385.416 452.003 382.872 450.306 373.967L448.61 341.315Z" fill="#2F2E41"/>
<path d="M431.225 341.315L418.929 341.739L423.169 373.543C423.169 373.543 419.777 387.112 423.593 387.96C426.246 388.496 428.943 388.78 431.649 388.808C431.649 388.808 435.466 392.625 439.706 392.201C442.522 391.841 445.251 390.979 447.762 389.656C447.762 389.656 448.61 387.112 445.642 386.264C442.674 385.416 434.618 382.872 432.922 373.967L431.225 341.315Z" fill="#2F2E41"/>
<path d="M442.032 214.301C444.983 214.301 447.374 211.909 447.374 208.959C447.374 206.008 444.983 203.616 442.032 203.616C439.081 203.616 436.689 206.008 436.689 208.959C436.689 211.909 439.081 214.301 442.032 214.301Z" fill="#2F2E41"/>
<path d="M449.155 206.065C449.155 204.744 448.666 203.47 447.782 202.489C446.899 201.507 445.683 200.888 444.369 200.751C444.554 200.731 444.74 200.722 444.926 200.722C446.343 200.722 447.702 201.285 448.704 202.287C449.705 203.289 450.268 204.648 450.268 206.065C450.268 207.482 449.705 208.841 448.704 209.843C447.702 210.844 446.343 211.407 444.926 211.407C444.74 211.407 444.554 211.398 444.369 211.379C445.683 211.241 446.898 210.622 447.782 209.64C448.666 208.659 449.155 207.385 449.155 206.065Z" fill="#2F2E41"/>
<path d="M436.013 225.153C440.931 225.153 444.918 222.761 444.918 219.811C444.918 216.86 440.931 214.468 436.013 214.468C431.096 214.468 427.109 216.86 427.109 219.811C427.109 222.761 431.096 225.153 436.013 225.153Z" fill="#2F2E41"/>
<path d="M576.266 93.643C575.902 87.212 573.267 81.1192 568.829 76.4508C564.391 71.7825 558.439 68.8421 552.035 68.1539C545.631 67.4657 539.191 69.0744 533.862 72.6932C528.534 76.3121 524.664 81.7057 522.942 87.9126C522.613 87.9008 522.284 87.8876 521.952 87.8876C516.08 87.8887 510.367 89.791 505.666 93.3099C500.965 96.8288 497.531 101.775 495.875 107.409C491.984 105.699 487.636 105.328 483.512 106.354C479.388 107.38 475.72 109.745 473.084 113.078H557.862C560.335 113.085 562.784 112.593 565.063 111.631C567.341 110.67 569.402 109.258 571.122 107.481C572.843 105.703 574.186 103.597 575.074 101.289C575.961 98.9797 576.373 96.5157 576.285 94.0438C576.28 93.9104 576.273 93.7768 576.266 93.643Z" fill="#E6E6E6"/>
<path d="M505.393 150.845C509.424 150.845 512.692 147.576 512.692 143.544C512.692 139.513 509.424 136.244 505.393 136.244C501.361 136.244 498.093 139.513 498.093 143.544C498.093 147.576 501.361 150.845 505.393 150.845Z" fill="#E6E6E6"/>
<path d="M527.434 132.411C530.791 132.411 533.512 129.69 533.512 126.333C533.512 122.976 530.791 120.254 527.434 120.254C524.077 120.254 521.356 122.976 521.356 126.333C521.356 129.69 524.077 132.411 527.434 132.411Z" fill="#E6E6E6"/>
<path d="M557.1 166.662C561.132 166.662 564.4 163.393 564.4 159.362C564.4 155.33 561.132 152.061 557.1 152.061C553.069 152.061 549.8 155.33 549.8 159.362C549.8 163.393 553.069 166.662 557.1 166.662Z" fill="#E6E6E6"/>
<path d="M501.743 200.122C505.774 200.122 509.043 196.853 509.043 192.821C509.043 188.789 505.774 185.521 501.743 185.521C497.711 185.521 494.443 188.789 494.443 192.821C494.443 196.853 497.711 200.122 501.743 200.122Z" fill="#E6E6E6"/>
<path d="M557.1 242.098C561.132 242.098 564.4 238.83 564.4 234.798C564.4 230.766 561.132 227.498 557.1 227.498C553.069 227.498 549.8 230.766 549.8 234.798C549.8 238.83 553.069 242.098 557.1 242.098Z" fill="#E6E6E6"/>
<path d="M545.53 375.564C545.533 375.485 545.542 375.408 545.542 375.328C545.544 374.105 545.238 372.901 544.652 371.827C544.067 370.753 543.22 369.844 542.191 369.183C541.161 368.522 539.982 368.131 538.762 368.045C537.542 367.96 536.32 368.183 535.208 368.694C534.165 367.49 532.757 366.662 531.198 366.335C529.639 366.009 528.016 366.203 526.578 366.887C525.139 367.572 523.965 368.709 523.235 370.125C522.505 371.54 522.26 373.156 522.536 374.725C522.499 374.725 522.463 374.72 522.426 374.72C521.264 374.718 520.118 374.993 519.084 375.524C518.05 376.054 517.157 376.823 516.48 377.768C515.803 378.713 515.362 379.805 515.192 380.955C515.023 382.105 515.13 383.279 515.506 384.378C515.881 385.478 516.514 386.473 517.351 387.279C518.188 388.085 519.206 388.679 520.319 389.013C521.432 389.346 522.609 389.409 523.751 389.196C524.894 388.984 525.969 388.501 526.887 387.789C527.467 388.918 528.331 389.876 529.394 390.569C530.456 391.262 531.682 391.666 532.948 391.741C534.215 391.816 535.479 391.559 536.616 390.995C537.753 390.432 538.724 389.582 539.432 388.529C540.301 389.161 541.298 389.594 542.353 389.795C543.408 389.997 544.495 389.963 545.535 389.696C546.576 389.43 547.545 388.936 548.372 388.251C549.2 387.567 549.866 386.708 550.323 385.736C550.781 384.764 551.017 383.702 551.017 382.628C551.017 381.554 550.779 380.493 550.321 379.521C549.863 378.55 549.196 377.691 548.368 377.007C547.54 376.323 546.571 375.83 545.53 375.564Z" fill="#E6E6E6"/>
<path d="M563.792 208.638C565.472 208.638 566.833 207.277 566.833 205.597C566.833 203.917 565.472 202.555 563.792 202.555C562.112 202.555 560.75 203.917 560.75 205.597C560.75 207.277 562.112 208.638 563.792 208.638Z" fill="#E6E6E6"/>
<path d="M544.325 135.636C546.005 135.636 547.367 134.274 547.367 132.594C547.367 130.914 546.005 129.552 544.325 129.552C542.646 129.552 541.284 130.914 541.284 132.594C541.284 134.274 542.646 135.636 544.325 135.636Z" fill="#E6E6E6"/>
<path d="M533.984 211.072C535.664 211.072 537.026 209.71 537.026 208.03C537.026 206.35 535.664 204.988 533.984 204.988C532.304 204.988 530.942 206.35 530.942 208.03C530.942 209.71 532.304 211.072 533.984 211.072Z" fill="#E6E6E6"/>
<path d="M536.417 208.03C538.097 208.03 539.459 206.668 539.459 204.988C539.459 203.308 538.097 201.947 536.417 201.947C534.737 201.947 533.376 203.308 533.376 204.988C533.376 206.668 534.737 208.03 536.417 208.03Z" fill="#E6E6E6"/>
<path d="M538.242 204.988C539.922 204.988 541.284 203.626 541.284 201.947C541.284 200.267 539.922 198.905 538.242 198.905C536.562 198.905 535.201 200.267 535.201 201.947C535.201 203.626 536.562 204.988 538.242 204.988Z" fill="#E6E6E6"/>
<path d="M530.942 230.539C532.622 230.539 533.984 229.178 533.984 227.498C533.984 225.818 532.622 224.456 530.942 224.456C529.262 224.456 527.901 225.818 527.901 227.498C527.901 229.178 529.262 230.539 530.942 230.539Z" fill="#E6E6E6"/>
<path d="M575.958 264.607C577.638 264.607 579 263.245 579 261.565C579 259.886 577.638 258.524 575.958 258.524C574.279 258.524 572.917 259.886 572.917 261.565C572.917 263.245 574.279 264.607 575.958 264.607Z" fill="#E6E6E6"/>
<path d="M510.868 266.432C512.547 266.432 513.909 265.07 513.909 263.39C513.909 261.71 512.547 260.349 510.868 260.349C509.188 260.349 507.826 261.71 507.826 263.39C507.826 265.07 509.188 266.432 510.868 266.432Z" fill="#E6E6E6"/>
<path d="M514.517 172.745C516.197 172.745 517.559 171.384 517.559 169.704C517.559 168.024 516.197 166.662 514.517 166.662C512.838 166.662 511.476 168.024 511.476 169.704C511.476 171.384 512.838 172.745 514.517 172.745Z" fill="#E6E6E6"/>
<path d="M528.509 227.497C530.189 227.497 531.551 226.136 531.551 224.456C531.551 222.776 530.189 221.414 528.509 221.414C526.829 221.414 525.467 222.776 525.467 224.456C525.467 226.136 526.829 227.497 528.509 227.497Z" fill="#E6E6E6"/>
<path d="M525.467 222.631C527.147 222.631 528.509 221.269 528.509 219.589C528.509 217.909 527.147 216.547 525.467 216.547C523.788 216.547 522.426 217.909 522.426 219.589C522.426 221.269 523.788 222.631 525.467 222.631Z" fill="#E6E6E6"/>
</g>
<defs>
<clipPath id="clip0_111:597">
<rect width="543" height="329" fill="white" transform="translate(36 68)"/>
</clipPath>
</defs>
</svg>
