<svg width="416" height="108" viewBox="0 0 416 108" fill="none" xmlns="http://www.w3.org/2000/svg">
<path d="M7.7 42.7H48.49V54.17L33.15 55.35C8.38 57.2 0.619995 63.77 0.619995 82.15V85.86C0.619995 99.34 10.06 107.43 24.56 107.43C36.02 107.43 42.56 104.73 50.69 96.43H52V105.2H68.35V24.8H7.7V42.7ZM48.49 81.47C43.49 86.53 35.85 89.9 29.61 89.9C22.87 89.9 20.01 87.37 20.17 81.81C20.34 74.05 23.17 72.2 36.17 71.02L48.47 69.84L48.49 81.47Z" fill="#FF8800"/>
<path d="M390.85 57.2L378.71 56C371.97 55.33 370.28 53.64 370.28 48.25C370.28 42.18 372.64 40.66 382.08 40.66C390.51 40.66 392.87 42.01 394.08 47.74H412.96C412.45 28.52 406.55 23.64 383.12 23.64C357.5 23.64 351.12 28.52 351.12 48.25C351.12 66.25 355.84 71.17 374.89 73.02L384.84 74.02C393.77 74.87 395.96 76.55 395.96 81.95C395.96 88.52 393.26 90.21 382.31 90.21C372.7 90.21 370.17 88.69 369.67 82.45H350.56C351.06 102.34 357.13 107.4 381.41 107.4C408.41 107.4 415.12 102.01 415.12 80.09C415.12 63.77 410.23 59.05 390.85 57.2Z" fill="#054ADA"/>
<path d="M289.71 58.72C289.71 32.72 280.77 23.66 255.15 23.66C229.87 23.66 219.92 35.45 219.92 64.78C219.92 96.78 228.69 107.43 257.01 107.43C277.4 107.43 286.01 101.2 288.86 83.66H269.48C267.29 89.06 264.93 90.24 256.67 90.24C244.2 90.24 240.99 86.7 240.32 71.7H288.32C289.147 67.4201 289.612 63.078 289.71 58.72ZM240.49 55.85C240.66 44.56 245.21 40.34 255.99 40.34C266.28 40.34 270.49 44.56 270.83 55.85H240.49Z" fill="#054ADA"/>
<path d="M134.8 24.84H103.28V0.729996H83.22V105.24H103.28V42.87H131.93V105.24H151.99V41.19H134.8V24.84Z" fill="#054ADA"/>
<path d="M301 28.37V105.24H321.06V42H345.16V24.84H321.06V22.64C321.23 17.92 322.41 16.58 326.29 16.58H348.2V0.729996H324.6C308.59 0.729996 301 5.62 301 28.37Z" fill="#054ADA"/>
<path d="M166.82 105.24H186.88V43.71H216.72V24.84H166.82V105.24Z" fill="#054ADA"/>
</svg>
