<?xml version="1.0" encoding="utf-8"?>
<!-- Generator: Adobe Illustrator 16.0.0, SVG Export Plug-In . SVG Version: 6.00 Build 0)  -->
<!DOCTYPE svg PUBLIC "-//W3C//DTD SVG 1.1//EN" "http://www.w3.org/Graphics/SVG/1.1/DTD/svg11.dtd">
<svg version="1.1"
	 id="svg2" inkscape:version="0.48.5 r10040" sodipodi:docname="logo_red.svg" xmlns:rdf="http://www.w3.org/1999/02/22-rdf-syntax-ns#" xmlns:svg="http://www.w3.org/2000/svg" xmlns:dc="http://purl.org/dc/elements/1.1/" xmlns:cc="http://creativecommons.org/ns#" xmlns:inkscape="http://www.inkscape.org/namespaces/inkscape" xmlns:sodipodi="http://sodipodi.sourceforge.net/DTD/sodipodi-0.dtd"
	 xmlns="http://www.w3.org/2000/svg" xmlns:xlink="http://www.w3.org/1999/xlink" x="0px" y="0px" width="599.219px"
	 height="236.121px" viewBox="0 0 599.219 236.121" enable-background="new 0 0 599.219 236.121" xml:space="preserve">
<g id="g10_2_" transform="matrix(1.25,0,0,-1.25,-305.19762,573.58438)" inkscape:groupmode="layer" inkscape:label="logo_CMYK">
	<g id="g12_2_">
		<g>
			<g id="g14_2_">
				<g id="g20_3_" transform="translate(381.0791,373.4805)">
					<path id="path22_3_" inkscape:connector-curvature="0" fill="#FF0040" d="M253.372,3.762h-0.232v11.246h-6.956v-60.054h6.956
						v29.447c0,13.449,4.174,25.042,19.825,24.694v7.536C262.878,16.631,257.198,13.385,253.372,3.762 M78.172,0.053
						c0,6.144,4.753,10.317,13.563,10.317c8.695,0,14.956-3.361,16.232-12.638h7.071c-1.738,13.566-10.202,18.898-23.186,18.898
						c-13.332,0-21.1-7.188-21.1-17.158c0-23.652,38.49-11.363,38.49-28.752c0-5.797-4.754-11.13-14.84-11.13
						c-10.434,0-15.766,3.827-17.97,14.144H69.36c0.58-11.361,8.696-20.405,22.839-20.405c14.145,0,24.462,6.028,24.462,17.506
						C116.661-6.092,78.172-16.294,78.172,0.053 M151.799-40.408c-12.638,0-20.289,11.594-20.289,25.158
						c0,14.491,7.188,25.621,20.289,25.621c11.709,0,20.404-8.463,20.519-23.535C172.898-28.235,166.174-40.408,151.799-40.408
						 M152.61,16.631c-7.652,0-16.81-4.289-20.868-12.173h-0.232v10.55h-6.956v-83.704h6.956v33.272
						c4.405-7.303,12.984-11.245,21.448-11.245c18.317,0,26.78,14.956,26.78,31.766C179.738,2.835,171.971,16.631,152.61,16.631
						 M212.659-40.408c-13.332,0-20.404,10.433-20.404,25.389c0,12.985,5.797,25.389,20.404,25.389
						c14.724,0,20.288-11.245,20.405-25.389C233.063-27.888,227.266-40.408,212.659-40.408 M212.659,16.631
						c-18.548,0-27.823-14.144-27.823-31.65c0-20.984,12.52-31.417,27.823-31.65c16.811,0,27.824,12.637,27.824,31.65
						C240.483,2.603,231.44,16.631,212.659,16.631 M298.548-40.408c-5.797,0-6.028,2.552-6.028,8.462V9.211h11.245v5.797H292.52
						v16.694h-6.957V15.008h-8.462V9.211h8.462v-43.939c0-8.925,3.827-11.941,10.666-11.941c3.362,0,6.376,1.044,8,1.392v5.68
						C302.374-40.061,300.402-40.408,298.548-40.408"/>
				</g>
				
					<g id="g10_3_" transform="matrix(1.25,0,0,-1.25,-305.19762,573.58438)" inkscape:groupmode="layer" inkscape:label="logo_CMYK">
					<g id="g12_3_">
						<g>
							<g>
								<g id="g14_3_">
									<g id="g20_2_" transform="translate(381.0791,373.4805)">
										<path id="path22_2_" inkscape:connector-curvature="0" fill="#FF0040" d="M168.583-213.397
											c1.449,1.571,2.291,3.985,2.535,7.246h-18.475c0.118-3.139,1.024-5.554,2.717-7.246c1.689-1.689,3.863-2.536,6.52-2.536
											C164.778-215.934,167.011-215.086,168.583-213.397 M145.396-219.737c-3.745,4.348-5.615,10.387-5.615,18.114
											c0,8.091,1.93,14.311,5.796,18.658c3.863,4.469,9.238,6.702,16.121,6.702c5.675,0,10.384-1.386,14.129-4.166
											c3.741-2.655,6.276-6.521,7.607-11.594h-9.057c-1.449,0-2.566,0.305-3.35,0.906c-0.788,0.605-1.24,1.087-1.359,1.449
											c-0.363,0.363-0.696,0.696-0.997,0.996c-0.303,0.303-0.634,0.515-0.996,0.634c-1.449,0.846-3.2,1.269-5.251,1.269
											c-3.141,0-5.497-0.965-7.064-2.899c-1.694-1.811-2.599-4.587-2.717-8.333h31.335c0.191-0.577,0.182-3.26,0.182-3.26
											c0-7.97-1.934-14.188-5.796-18.657c-3.986-4.348-9.601-6.522-16.848-6.522
											C154.634-226.439,149.26-224.203,145.396-219.737 M133.964-146.556c-32.912,0-59.592-26.681-59.592-59.593
											c0-32.912,26.68-59.594,59.592-59.594c32.913,0,59.594,26.682,59.594,59.594
											C193.558-173.237,166.876-146.556,133.964-146.556 M133.964-281.707c-41.73,0-75.558,33.829-75.558,75.558
											c0,41.73,33.829,75.559,75.558,75.559c41.73,0,75.559-33.829,75.559-75.559
											C209.523-247.878,175.694-281.707,133.964-281.707 M121.559-190.575c-1.812,2.536-4.41,3.805-7.789,3.805
											c-3.261,0-5.797-1.269-7.608-3.805c-1.693-2.291-2.536-5.975-2.536-11.049c0-4.347,0.905-7.789,2.717-10.325
											c1.81-2.414,4.406-3.622,7.787-3.622c3.14,0,5.616,1.268,7.428,3.804c1.811,2.417,2.717,5.798,2.717,10.144
											C124.276-196.792,123.37-193.11,121.559-190.575 M117.393-226.439c-3.141,0-5.796,0.606-7.97,1.811
											c-2.536,1.45-4.469,3.322-5.796,5.616v-14.492c0-1.689-0.606-3.138-1.812-4.346c-1.208-1.206-2.657-1.812-4.346-1.812
											H91.31v41.481c0,8.575,2.473,14.371,7.426,17.389c4.95,3.02,10.325,4.529,16.121,4.529c3.018,0,6.068-0.516,9.148-1.54
											c3.078-1.025,5.524-2.686,7.336-4.981c3.622-4.71,5.433-10.806,5.433-18.295c0-7.488-1.811-13.587-5.433-18.297
											C127.718-224.084,123.068-226.439,117.393-226.439"/>
									</g>
								</g>
							</g>
						</g>
					</g>
				</g>
			</g>
			<g>
				<path fill="#FF0040" d="M723.533,405.195c0-2.195-0.373-4.164-1.12-5.907c-0.748-1.745-1.749-3.216-3.002-4.418
					c-1.254-1.201-2.707-2.118-4.361-2.75c-1.655-0.632-3.388-0.95-5.201-0.95c-1.815,0-3.548,0.317-5.202,0.95
					c-1.653,0.632-3.109,1.55-4.361,2.75c-1.255,1.202-2.256,2.673-3.002,4.418c-0.746,1.743-1.12,3.712-1.12,5.907
					c0,2.196,0.373,4.166,1.12,5.909c0.746,1.744,1.747,3.216,3.002,4.417c1.252,1.201,2.708,2.118,4.361,2.75
					c1.655,0.634,3.388,0.95,5.202,0.95c1.813,0,3.546-0.316,5.201-0.95c1.654-0.632,3.107-1.549,4.361-2.75
					c1.253-1.201,2.254-2.673,3.002-4.417C723.161,409.361,723.533,407.391,723.533,405.195z M720.611,405.195
					c0,1.705-0.266,3.261-0.799,4.669c-0.534,1.407-1.274,2.616-2.221,3.623c-0.947,1.007-2.081,1.782-3.401,2.325
					c-1.319,0.541-2.766,0.812-4.34,0.812c-1.575,0-3.021-0.27-4.341-0.812c-1.322-0.543-2.456-1.318-3.402-2.325
					c-0.946-1.007-1.688-2.216-2.221-3.623c-0.533-1.408-0.799-2.964-0.799-4.669c0-1.705,0.266-3.261,0.799-4.668
					c0.534-1.408,1.275-2.615,2.221-3.623c0.946-1.007,2.08-1.782,3.402-2.325c1.32-0.542,2.766-0.812,4.341-0.812
					c1.573,0,3.021,0.271,4.34,0.812c1.32,0.543,2.455,1.317,3.401,2.325c0.947,1.008,1.687,2.215,2.221,3.623
					C720.345,401.935,720.611,403.491,720.611,405.195z M713.811,397.485c-0.615,1.163-1.301,2.267-2.06,3.313
					c-0.761,1.046-1.423,1.879-1.981,2.499h-2.68v-5.812h-2.841v15.034c0.721,0.154,1.48,0.271,2.281,0.348
					c0.799,0.078,1.532,0.117,2.2,0.117c2.294,0,4.041-0.413,5.241-1.241c1.202-0.826,1.8-2.079,1.8-3.757
					c0-0.956-0.26-1.789-0.78-2.5c-0.52-0.71-1.26-1.259-2.22-1.646c0.267-0.311,0.573-0.697,0.92-1.163
					c0.347-0.464,0.707-0.981,1.08-1.549c0.375-0.568,0.747-1.163,1.12-1.782c0.374-0.62,0.707-1.239,1.002-1.86H713.811z
					 M707.089,405.544h1.519c1.202,0,2.202,0.162,3.002,0.484c0.799,0.322,1.2,0.988,1.2,1.996c0,0.954-0.38,1.62-1.141,1.996
					c-0.76,0.373-1.674,0.561-2.739,0.561c-0.297,0-0.6-0.007-0.923-0.02c-0.319-0.014-0.628-0.032-0.919-0.058V405.544z"/>
			</g>
		</g>
	</g>
</g>
</svg>
