<?xml version="1.0" encoding="UTF-8"?>
<svg id="Layer_1" data-name="Layer 1" xmlns="http://www.w3.org/2000/svg" version="1.1" viewBox="0 0 1293.82 388">
  <g>
    <path d="M466.43,131.33v24.96h-35.74v107.41h-26.09v-107.41h-35.55v-24.96h97.38,0Z" fill="#000" stroke-width="0"/>
    <path d="M479.48,226.45c3.28,11.85,12.16,17.77,26.66,17.77,9.33,0,16.39-3.15,21.18-9.45l19.67,11.34c-9.33,13.49-23.07,20.23-41.22,20.23-15.63,0-28.18-4.73-37.63-14.18-9.45-9.46-14.18-21.37-14.18-35.74s4.66-26.12,13.99-35.64,21.3-14.28,35.93-14.28c13.87,0,25.31,4.79,34.32,14.37,9.01,9.58,13.52,21.43,13.52,35.55,0,3.15-.32,6.49-.95,10.02h-71.29,0ZM479.1,207.54h48.22c-1.39-6.43-4.25-11.22-8.6-14.37s-9.3-4.73-14.84-4.73c-6.56,0-11.98,1.67-16.26,5.01-4.29,3.34-7.12,8.04-8.51,14.09h-.01Z" fill="#000" stroke-width="0"/>
    <path d="M589.34,185.42c2.27-6.05,6.02-10.59,11.25-13.61,5.23-3.03,11.06-4.54,17.49-4.54v27.23c-7.44-.88-14.09.63-19.95,4.54-5.86,3.91-8.79,10.4-8.79,19.48v45.19h-24.39v-94.55h24.39v16.26h0Z" fill="#000" stroke-width="0"/>
    <path d="M652.88,185.42c2.27-6.05,6.02-10.59,11.25-13.61,5.23-3.03,11.06-4.54,17.49-4.54v27.23c-7.44-.88-14.09.63-19.95,4.54-5.86,3.91-8.79,10.4-8.79,19.48v45.19h-24.39v-94.55h24.39v16.26h0Z" fill="#000" stroke-width="0"/>
    <path d="M760.28,169.15h24.39v94.55h-24.39v-11.16c-7.31,9.2-17.59,13.8-30.82,13.8s-23.42-4.82-32.43-14.47c-9.01-9.64-13.52-21.46-13.52-35.46s4.51-25.81,13.52-35.45,19.82-14.47,32.43-14.47c13.24,0,23.51,4.6,30.82,13.8v-11.16.02ZM715.28,235.62c4.92,4.98,11.16,7.47,18.72,7.47s13.83-2.49,18.81-7.47,7.47-11.38,7.47-19.19-2.49-14.21-7.47-19.19-11.25-7.47-18.81-7.47-13.8,2.49-18.72,7.47-7.38,11.38-7.38,19.19,2.46,14.21,7.38,19.19Z" fill="#000" stroke-width="0"/>
    <path d="M857.1,192.6h-21.37v39.33c0,3.28.82,5.67,2.46,7.19,1.64,1.51,4.03,2.36,7.19,2.55,3.15.19,7.06.16,11.72-.09v22.12c-16.77,1.89-28.59.31-35.46-4.73-6.87-5.04-10.31-14.06-10.31-27.04v-39.33h-16.45v-23.45h16.45v-19.1l24.39-7.37v26.47h21.37v23.45h.01Z" fill="#000" stroke-width="0"/>
    <path d="M888.3,226.45c3.28,11.85,12.16,17.77,26.66,17.77,9.33,0,16.39-3.15,21.18-9.45l19.67,11.34c-9.33,13.49-23.07,20.23-41.22,20.23-15.63,0-28.17-4.73-37.63-14.18-9.45-9.46-14.18-21.37-14.18-35.74s4.66-26.12,13.99-35.64,21.3-14.28,35.93-14.28c13.87,0,25.31,4.79,34.32,14.37s13.52,21.43,13.52,35.55c0,3.15-.32,6.49-.95,10.02h-71.29ZM887.92,207.54h48.22c-1.39-6.43-4.25-11.22-8.6-14.37s-9.3-4.73-14.84-4.73c-6.56,0-11.98,1.67-16.26,5.01-4.29,3.34-7.12,8.04-8.51,14.09h-.01Z" fill="#000" stroke-width="0"/>
    <path d="M1044.87,169.15h24.39v94.55h-24.39v-11.16c-7.31,9.2-17.59,13.8-30.82,13.8s-23.42-4.82-32.43-14.47c-9.02-9.64-13.52-21.46-13.52-35.46s4.51-25.81,13.52-35.45,19.82-14.47,32.43-14.47c13.24,0,23.51,4.6,30.82,13.8v-11.16.02ZM999.86,235.62c4.92,4.98,11.16,7.47,18.72,7.47s13.83-2.49,18.82-7.47c4.98-4.98,7.47-11.38,7.47-19.19s-2.49-14.21-7.47-19.19-11.25-7.47-18.82-7.47-13.8,2.49-18.72,7.47-7.38,11.38-7.38,19.19,2.46,14.21,7.38,19.19h0Z" fill="#000" stroke-width="0"/>
    <path d="M1192.17,166.51c10.84,0,19.51,3.53,26,10.59s9.74,16.52,9.74,28.36v58.24h-24.39v-56.54c0-5.67-1.39-10.08-4.16-13.24-2.77-3.15-6.68-4.73-11.72-4.73-5.55,0-9.87,1.83-12.95,5.48-3.09,3.66-4.63,8.95-4.63,15.88v53.14h-24.39v-56.54c0-5.67-1.39-10.08-4.16-13.24-2.77-3.15-6.68-4.73-11.72-4.73-5.42,0-9.74,1.83-12.95,5.48-3.21,3.66-4.82,8.95-4.82,15.88v53.14h-24.39v-94.55h24.39v10.02c5.67-8.44,14.43-12.67,26.28-12.67s20.17,4.54,25.72,13.62c6.3-9.08,15.69-13.62,28.17-13.62l-.02.03Z" fill="#000" stroke-width="0"/>
  </g>
  <path d="M186.61,73.29c-66.67,0-120.71,54.04-120.71,120.71s54.04,120.71,120.71,120.71,120.71-54.04,120.71-120.71-54.04-120.71-120.71-120.71ZM207.44,294.27l-37.11-31.72v-86.38l37.11,24.3v93.8ZM149.2,180.68l-37.8-33.06,103.25-35.1,37.8,32.4-103.25,35.76Z" fill="#e64415" stroke-width="0"/>
</svg>