<svg xmlns="http://www.w3.org/2000/svg" width="80" height="80" viewBox="0 0 80 80" fill="none">
  <rect width="80" height="80" rx="5" fill="white"/>
  <path d="M3.99488 0.00463867V7.90523H23.0039V12.2282L15.3852 12.9736C4.4474 14.0171 0.977539 16.6258 0.977539 24.6009V26.6878C0.977539 32.7997 5.42819 36.0046 10.9348 36.0046C13.4241 36.0046 16.1396 35.4084 18.8553 33.9922L23.0041 31.9052V35.5575H31V0.00463867H3.99488ZM23.0039 24.1537L17.8745 26.7625C15.9133 27.8805 13.8766 28.4767 12.2926 28.4767C10.3314 28.4767 8.9734 27.8058 8.9734 25.3462V23.7064C9.12431 21.0977 10.8592 20.4268 16.743 19.8306L23.0039 19.1597V24.1536V24.1537Z" 
        fill="#FF8800" 
        stroke="#FF8800" 
        stroke-width="2" 
        transform="translate(25, 22)"/>
</svg>
