<svg width="80" height="80" viewBox="0 0 80 80" fill="none" xmlns="http://www.w3.org/2000/svg">
<rect width="80" height="80" rx="5" fill="white"/>
<path fill-rule="evenodd" clip-rule="evenodd" d="M39.6726 11.032C44.7755 10.7909 50.8137 11.8779 51.9384 15.4786C53.7823 21.3803 44.437 29.9857 36.2933 34.2096C34.2973 35.2452 33.0873 35.5294 32.5833 35.4586C32.1018 35.3918 32.0278 34.9119 32.184 34.5813C32.4744 33.9611 33.7868 32.6964 35.5454 31.3225C44.7124 24.1625 47.693 18.91 45.9624 16.7807C44.8523 15.4178 40.205 14.4704 35.3796 14.4704C34.0694 14.4704 30.627 14.7743 30.2735 13.5617C29.9853 12.5679 34.6062 11.2714 39.6726 11.032Z" fill="#005386"/>
<path fill-rule="evenodd" clip-rule="evenodd" d="M28.8782 38.0916C33.2536 37.836 38.5687 38.5999 41.554 40.8844C43.0382 42.0186 44.082 44.1072 43.4776 46.5014C41.7547 53.2967 35.3235 61.5174 21.0334 67.8346C16.4895 69.8434 12.9166 70.612 12.1666 70.0731C11.3605 69.4937 13.704 65.0098 14.4092 63.5212C16.6908 58.7012 19.5407 54.0078 22.3191 49.7112C23.343 48.1298 24.9223 45.3877 26.353 45.607C27.6336 45.8036 26.1336 48.7183 25.1468 50.5718C23.4889 53.6814 18.9225 62.3205 20.429 62.8364C23.7592 63.9788 39.3841 52.0917 37.0803 45.4715C36.0123 42.3989 29.2281 42.1063 24.9554 42.1063C23.0121 42.1063 18.7675 42.5654 18.5327 41.0775C18.2791 39.7042 24.9812 38.322 28.8782 38.0916Z" fill="#005386"/>
<path fill-rule="evenodd" clip-rule="evenodd" d="M62.6717 30.8121C65.298 31.2866 67.4385 31.6539 67.9303 32.7627C68.4818 34.0192 65.6217 34.0952 64.1802 34.1249C57.2712 34.2589 53.105 34.3947 52.8967 36.7422C52.6254 39.7644 55.8492 42.8063 59.0325 47.0726C61.9409 50.9666 65.2472 54.8086 64.294 58.3925C63.1063 62.8561 57.6338 63.8004 52.4235 63.8011C47.4323 63.8057 42.7038 63.0049 40.7178 62.6104C38.2437 62.1218 38.6111 60.8995 39.2716 60.5064C40.0069 60.0673 44.2139 60.0567 47.1373 59.8831C49.5431 59.7413 56.5305 59.7452 57.6195 57.9552C58.9558 55.7646 55.6847 52.0138 52.6816 48.0862C48.9338 43.1853 44.8175 38.1264 46.9958 34.4314C49.8151 29.6507 58.062 29.9785 62.6717 30.8121Z" fill="#005386"/>
</svg>
