<svg width="80" height="80" viewBox="0 0 80 80" fill="none" xmlns="http://www.w3.org/2000/svg">
<g clip-path="url(#clip0_2300_12)">
<rect width="80" height="80" rx="5" fill="white"/>
<path d="M62.8 27.4667C65.1196 27.4667 67 25.7952 67 23.7333C67 21.6715 65.1196 20 62.8 20C60.4804 20 58.6 21.6715 58.6 23.7333C58.6 25.7952 60.4804 27.4667 62.8 27.4667Z" fill="black"/>
<path fill-rule="evenodd" clip-rule="evenodd" d="M63.1112 31.2001C65.2589 31.2001 67 32.9206 67 35.0431V53.4896C67 54.8954 66.2233 56.189 64.9747 56.8626C63.7261 57.5363 62.205 57.4824 61.0083 56.7222L43.9204 45.8666L42.0188 54.3232C41.7379 55.5723 40.8464 56.6013 39.6408 57.0679C38.4352 57.5345 37.0736 57.3776 36.0091 56.6493L20.5422 46.0676L18.6858 54.3232C18.2199 56.3951 16.1426 57.7015 14.046 57.2411C11.9495 56.7807 10.6275 54.7278 11.0934 52.656L14.2044 38.8211C14.4853 37.572 15.3768 36.543 16.5824 36.0764C17.788 35.6097 19.1496 35.7667 20.2141 36.495L35.681 47.0767L37.5374 38.8211C37.8131 37.5947 38.6781 36.579 39.8537 36.1009C41.0293 35.6228 42.3671 35.7427 43.4364 36.422L59.2224 46.4506V35.0431C59.2224 32.9206 60.9635 31.2001 63.1112 31.2001Z" fill="black"/>
</g>
<defs>
<clipPath id="clip0_2300_12">
<rect width="80" height="80" rx="5" fill="white"/>
</clipPath>
</defs>
</svg>
