<svg width="80" height="80" viewBox="0 0 80 80" fill="none" xmlns="http://www.w3.org/2000/svg">
<rect width="80" height="80" rx="5" fill="white"/>
<path d="M7.67522 49.5222C6.75859 49.5222 6 48.7636 6 47.847V32.6752C6 31.7586 6.75859 31 7.67522 31C8.59185 31 9.35044 31.7586 9.35044 32.6752V47.847C9.31883 48.7636 8.59185 49.5222 7.67522 49.5222ZM27.7146 49.5222C26.798 49.5222 26.0394 48.7636 26.0394 47.847V32.6752C26.0394 31.7586 26.798 31 27.7146 31C28.6312 31 29.3898 31.7586 29.3898 32.6752V47.847C29.3582 48.7636 28.6312 49.5222 27.7146 49.5222ZM47.8804 49.5222C46.9638 49.5222 46.2052 48.7636 46.2052 47.847V32.6752C46.2052 31.7586 46.9638 31 47.8804 31C48.7971 31 49.5557 31.7586 49.5557 32.6752V47.847C49.5557 48.7636 48.7971 49.5222 47.8804 49.5222ZM67.8566 49.5222C66.94 49.5222 66.1814 48.7636 66.1814 47.847V32.6752C66.1814 31.7586 66.94 31 67.8566 31C68.7733 31 69.5318 31.7586 69.5318 32.6752V47.847C69.5318 48.7636 68.7733 49.5222 67.8566 49.5222Z" fill="#1D1D1B"/>
<path d="M32.6138 35.0142C33.7136 35.0142 34.6051 34.1227 34.6051 33.0229C34.6051 31.9231 33.7136 31.0316 32.6138 31.0316C31.5141 31.0316 30.6225 31.9231 30.6225 33.0229C30.6225 34.1227 31.5141 35.0142 32.6138 35.0142Z" fill="#1D1D1B"/>
<path d="M73.0087 35.0142C74.1085 35.0142 75 34.1227 75 33.0229C75 31.9231 74.1085 31.0316 73.0087 31.0316C71.9089 31.0316 71.0174 31.9231 71.0174 33.0229C71.0174 34.1227 71.9089 35.0142 73.0087 35.0142Z" fill="#1D1D1B"/>
<path d="M73.0087 40.0398C74.1085 40.0398 75 39.1483 75 38.0485C75 36.9488 74.1085 36.0573 73.0087 36.0573C71.9089 36.0573 71.0174 36.9488 71.0174 38.0485C71.0174 39.1483 71.9089 40.0398 73.0087 40.0398Z" fill="#1D1D1B"/>
</svg>
