<svg width="80" height="80" viewBox="0 0 80 80" fill="none" xmlns="http://www.w3.org/2000/svg">
<rect width="80" height="80" rx="5" fill="white"/>
<path d="M16.2194 53.884C21.0153 62.0683 29.9147 67.5671 40.0675 67.5394C55.2518 67.4927 67.5741 55.1081 67.5325 39.9186C67.4927 24.7292 55.1012 12.4069 39.9117 12.4467C24.7274 12.4865 12.4051 24.8832 12.4467 40.0675C12.4552 41.8802 12.6408 43.6877 13.0007 45.4643C13.0544 45.6876 13.2847 45.8105 13.5028 45.7551L17.3361 44.8029C17.3901 44.791 17.4412 44.7686 17.4865 44.7368C17.5318 44.7051 17.5703 44.6648 17.5999 44.6181C17.6295 44.5714 17.6496 44.5194 17.659 44.4649C17.6684 44.4104 17.667 44.3547 17.6547 44.3008H17.6599C17.3886 42.9013 17.2507 41.4792 17.2478 40.0537C17.2132 27.515 27.3868 17.2825 39.9255 17.2478C52.4712 17.2132 62.7037 27.3938 62.7314 39.9325C62.7712 52.4712 52.5924 62.7037 40.0537 62.7383C31.7482 62.7574 24.4573 58.3008 20.4751 51.6453C20.4217 51.5476 20.3332 51.4737 20.2275 51.4387C20.1218 51.4037 20.0067 51.4101 19.9055 51.4566L16.396 53.3092C16.2965 53.3621 16.222 53.4523 16.1889 53.5601C16.1558 53.6678 16.1668 53.7843 16.2194 53.884Z" fill="black"/>
<path d="M54.4865 45.9439L57.9839 47.8172C58.1917 47.9263 58.4687 47.8657 58.5518 47.6423C59.5442 45.2727 60.0635 42.7318 60.0806 40.1628C60.1741 29.0836 51.2332 20.0007 40.1558 19.9055H39.9862C29.0022 19.9055 19.9938 28.8395 19.8986 39.8234C19.812 50.9026 28.746 59.9923 39.8234 60.0806L39.9931 60.0858C45.2409 60.0858 50.0299 58.0428 53.6208 54.7168C53.7974 54.561 53.8303 54.2909 53.6676 54.1143L50.6861 51.4237C50.5095 51.2679 50.2463 51.3025 50.0905 51.4497L50.0836 51.4427C47.3044 53.9164 43.7137 55.2835 39.9931 55.2847H39.865C31.4314 55.2102 24.6339 48.2985 24.7015 39.865C24.769 31.5058 31.627 24.7015 39.9862 24.7015H40.1212C48.5479 24.7759 55.3522 31.6945 55.2778 40.1212C55.2634 41.9146 54.9316 43.6913 54.2978 45.369C54.251 45.471 54.2444 45.5869 54.2794 45.6935C54.3144 45.8 54.3884 45.8895 54.4865 45.9439Z" fill="black"/>
<path d="M60.2226 11.4529C60.0322 11.323 59.7759 11.3577 59.6478 11.5533L57.4004 14.7997C57.2706 14.9901 57.2914 15.2533 57.4818 15.3883C65.1692 20.8734 70.2023 29.8541 70.1954 40C70.1954 56.6508 56.649 70.1902 39.9983 70.1902C23.3475 70.1902 9.79941 56.6438 9.79941 39.9862C9.79941 23.3423 23.3475 9.79596 40.0052 9.80115C43.5249 9.79831 47.0178 10.4142 50.3243 11.6208C50.4277 11.6578 50.5414 11.6532 50.6415 11.608C50.7417 11.5628 50.8203 11.4805 50.861 11.3784L52.2738 7.67155C52.3107 7.5708 52.3073 7.45973 52.2644 7.36139C52.2215 7.26306 52.1424 7.18502 52.0435 7.14347C48.1899 5.72196 44.1144 4.9962 40.0069 5.00001C20.7037 4.99309 5.00693 20.6916 5 39.9914C5 59.2877 20.7037 74.9931 40 74.9931C59.2946 74.9931 75 59.2946 75 40C75 28.2266 69.1566 17.7967 60.2226 11.4529Z" fill="black"/>
</svg>
