<svg width="80" height="80" viewBox="0 0 80 80" fill="none" xmlns="http://www.w3.org/2000/svg">
<g clip-path="url(#clip0_2305_96)">
<rect width="80" height="80" rx="5" fill="white"/>
<path fill-rule="evenodd" clip-rule="evenodd" d="M44.4049 7.17789C44.4051 7.17799 44.4053 7.17808 44.4054 7.17818L63.5099 18.2353C63.5103 18.2356 63.5107 18.2358 63.5111 18.236C64.4419 18.7737 65 19.7596 65 20.8241V59.0863C65 60.1512 64.4415 61.1375 63.5101 61.675C63.51 61.6751 63.51 61.6751 63.5099 61.6751L52.5336 68.0288L52.5328 68.0292C52.5265 68.0329 52.5194 68.0371 52.5121 68.0413C52.5019 68.0473 52.4884 68.055 52.4729 68.0636C52.4576 68.072 52.437 68.0831 52.4126 68.0953L52.2162 68.1938L44.3823 72.7323C41.6705 74.3032 38.318 74.3032 35.6062 72.7323L27.5645 68.0735C27.5587 68.0707 27.5528 68.0677 27.5467 68.0647C27.5089 68.0457 27.4403 68.0102 27.3577 67.9542L16.4821 61.6589L16.4759 61.6552C15.5846 61.1278 15 60.1576 15 59.0747V20.8358C15 19.7713 15.558 18.7853 16.4889 18.2477C16.4893 18.2474 16.4897 18.2472 16.4901 18.247L27.5358 11.8469L27.6063 11.8115L35.6323 7.17652C38.3528 5.60861 41.692 5.60659 44.4049 7.17789ZM37.1178 9.77031C37.1176 9.77043 37.1174 9.77055 37.1172 9.77068L29.0178 14.4481L28.9492 14.4825L17.9814 20.8374V59.07C17.9822 59.071 17.9832 59.0724 17.9846 59.0738C17.9855 59.0747 17.9866 59.0756 17.9876 59.0765C17.9881 59.0768 17.9885 59.0771 17.989 59.0774L28.9547 65.4249L28.9607 65.4279L37.0969 70.1415C38.8862 71.178 41.1022 71.178 42.8915 70.1415L51.9796 64.8765L51.9918 64.8887L62.0186 59.0847V20.8258L42.9148 9.76902C41.1268 8.73326 38.9213 8.73122 37.1178 9.77031Z" fill="#192E50"/>
<path fill-rule="evenodd" clip-rule="evenodd" d="M50.6768 28.0077L42.9374 32.5452C42.2816 32.9257 41.6715 33.5948 41.2244 34.3821C40.7775 35.1693 40.512 36.0422 40.512 36.8097V45.8861L50.6768 39.9206V28.0077ZM51.072 27.3206C51.2911 27.4507 51.3636 27.6909 51.3636 27.8961V40.3229L39.8252 47.0945V36.8097C39.8252 35.8921 40.1377 34.8998 40.6294 34.0338C41.1209 33.1682 41.8097 32.3965 42.5959 31.9402C42.5962 31.9401 42.5964 31.9399 42.5966 31.9398L50.425 27.3501L50.4263 27.3493C50.6073 27.2443 50.8513 27.1896 51.072 27.3206Z" fill="#192E50"/>
<path d="M51.014 52.9451L39.9902 59.2652C39.8959 59.312 39.8252 59.2652 39.8252 59.1716V46.5431L51.0022 40.1294V52.9451H51.014Z" fill="#192E50"/>
<path fill-rule="evenodd" clip-rule="evenodd" d="M36.9222 22.4873C38.8308 21.3997 41.1708 21.3997 43.0795 22.4873L43.0802 22.4877L51.7133 27.4343L43.0805 32.393L43.0795 32.3936C41.3873 33.3578 40.3494 35.1458 40.3494 37.0869V58.8937C40.3494 59.0281 40.2794 59.1628 40.1483 59.235C40.0146 59.3088 39.8642 59.293 39.7516 59.2248L28.6364 52.8546V30.7674C28.6364 28.5803 29.8061 26.5628 31.716 25.4743L31.7164 25.4741L36.9213 22.4878L36.9222 22.4873ZM37.2699 23.0871L37.2694 23.0874L32.0645 26.0736L32.0636 26.0741C30.3714 27.0384 29.3336 28.8263 29.3336 30.7674V52.4552L39.6522 58.3689V37.0869C39.6522 34.8998 40.8219 32.8824 42.7317 31.7939C42.7319 31.7938 42.7321 31.7937 42.7323 31.7936L50.3202 27.4351L42.7323 23.0874L42.7318 23.0871C41.0384 22.1224 38.9633 22.1224 37.2699 23.0871Z" fill="#192E50"/>
<path d="M62.5524 34.298L51.014 27.592V52.9258L62.5409 59.6318V34.298H62.5524Z" fill="#192E50"/>
<path d="M52.0629 39.7811H50.6643V52.6667H52.0629V39.7811Z" fill="#192E50"/>
<path d="M51.7774 27.2438L62.5524 33.257V35.2537L50.6643 27.4527L51.7774 27.2438Z" fill="#192E50"/>
</g>
<defs>
<clipPath id="clip0_2305_96">
<rect width="80" height="80" rx="5" fill="white"/>
</clipPath>
</defs>
</svg>
