<svg width="80" height="80" viewBox="0 0 80 80" fill="none" xmlns="http://www.w3.org/2000/svg">
<g clip-path="url(#clip0_2302_42)">
<rect width="80" height="80" rx="5" fill="white"/>
<path d="M69 26.2968V52.8645H47.0161C46.3068 55.5371 45.0305 58.0257 43.2742 60.1613H28.2129C31.4383 60.1613 34.5315 58.88 36.8122 56.5993C39.0929 54.3186 40.3742 51.2254 40.3742 48C40.3501 44.823 39.0838 41.7816 36.846 39.5263C34.6082 37.271 31.5767 35.981 28.4 35.9323H17.1742C14.4613 35.9323 12.3097 33.7806 12.3097 31.0677C12.3097 28.3548 14.4613 26.2968 17.1742 26.2968H26.3419L20.1677 19H29.3355L35.3226 26.2968H69ZM11 52.8645V41.6387C12.7974 42.6613 14.8258 43.2086 16.8935 43.229H28.1194C30.8323 43.229 32.9839 45.3806 32.9839 48.0936C32.9839 50.8065 30.8323 52.8645 28.1194 52.8645H11ZM47.0161 43.3226H69V35.8387H43.3677C45.0907 37.9827 46.3347 40.4707 47.0161 43.1355V43.3226Z" fill="black"/>
</g>
<defs>
<clipPath id="clip0_2302_42">
<rect width="80" height="80" rx="5" fill="white"/>
</clipPath>
</defs>
</svg>
