<svg width="80" height="80" viewBox="0 0 80 80" fill="none" xmlns="http://www.w3.org/2000/svg">
<rect width="80" height="80" rx="5" fill="white"/>
<path fill-rule="evenodd" clip-rule="evenodd" d="M12.2007 67.4468H68.1219V11.2031H12.2007V67.4468ZM64.5663 62.9235V63.5663H20.9295V19.9319H64.5663V62.9235Z" fill="#2A5B91"/>
<path fill-rule="evenodd" clip-rule="evenodd" d="M37.4146 52.2521H52.9295V36.4146H37.4146V52.2521ZM42.2629 42.2353H49.6966V49.669H42.2629V42.2353Z" fill="#2A5B91"/>
<path fill-rule="evenodd" clip-rule="evenodd" d="M22.2222 62.2736H62.951V21.5472H22.2222V62.2736ZM59.3954 57.7503V58.3978H27.3931V26.718H59.3954V57.7503Z" fill="#2A5B91"/>
<path fill-rule="evenodd" clip-rule="evenodd" d="M8 71.0047H72V7H8V71.0047ZM69.4146 10.5556V68.7395H10.5854V9.91037H69.4169L69.4146 10.5556Z" fill="#2A5B91"/>
<path fill-rule="evenodd" clip-rule="evenodd" d="M29.0107 57.1004H57.7801V28.0131H29.0107V57.1004ZM54.2222 52.9019V53.5495H36.1195V35.1242H54.2222V52.9019Z" fill="#2A5B91"/>
</svg>
