<svg width="80" height="80" viewBox="0 0 80 80" fill="none" xmlns="http://www.w3.org/2000/svg">
<g clip-path="url(#clip0_2305_105)">
<rect width="80" height="80" rx="5" fill="white"/>
<path d="M59.3959 54.1862L25.5757 20.366C23.7948 18.5851 20.9074 18.5851 19.1265 20.366C17.3456 22.1469 17.3456 25.0343 19.1265 26.8152L52.9467 60.6354C54.7276 62.4163 57.615 62.4163 59.3959 60.6354C61.1768 58.8545 61.1768 55.9671 59.3959 54.1862Z" fill="#44A1F5"/>
<path d="M47.7465 18.9185L37.2152 8.38713C35.5893 6.76123 32.9532 6.76123 31.3273 8.38713C29.7014 10.013 29.7014 12.6491 31.3273 14.275L41.8586 24.8064C43.4845 26.4323 46.1206 26.4323 47.7465 24.8064C49.3724 23.1805 49.3724 20.5444 47.7465 18.9185Z" fill="#046799"/>
<path d="M48.3197 66.3589L43.272 61.3111C41.771 59.8101 39.3374 59.8101 37.8363 61.3111C36.3353 62.8122 36.3353 65.2458 37.8363 66.7468L42.8841 71.7945C44.3851 73.2955 46.8187 73.2955 48.3197 71.7945C49.8207 70.2935 49.8207 67.8599 48.3197 66.3589Z" fill="#046799"/>
<path d="M33.7535 51.7934L28.7058 46.7456C27.2048 45.2446 24.7711 45.2446 23.2701 46.7456C21.7691 48.2467 21.7691 50.6803 23.2701 52.1813L28.3179 57.229C29.8189 58.73 32.2525 58.73 33.7535 57.229C35.2545 55.728 35.2545 53.2944 33.7535 51.7934Z" fill="#F4805D"/>
<path d="M53.044 33.9952C54.6349 33.9952 55.9246 32.7055 55.9246 31.1146C55.9246 29.5237 54.6349 28.2341 53.044 28.2341C51.4531 28.2341 50.1635 29.5237 50.1635 31.1146C50.1635 32.7055 51.4531 33.9952 53.044 33.9952Z" fill="#17BFA3"/>
</g>
<defs>
<clipPath id="clip0_2305_105">
<rect width="80" height="80" rx="5" fill="white"/>
</clipPath>
</defs>
</svg>
