<svg width="80" height="80" viewBox="0 0 80 80" fill="none" xmlns="http://www.w3.org/2000/svg">
<rect width="80" height="80" rx="5" fill="white"/>
<path d="M17.3081 14.3189C12.2238 14.3189 8 18.3863 8 23.2359V61.4068C8 66.2563 12.302 70.2455 17.3081 70.2455H57.5126C62.5969 70.2455 66.8989 66.1781 66.8989 61.4068V23.1577C66.8989 18.3081 62.5969 14.2407 57.5126 14.2407H17.3081V14.3189ZM30.9182 24.3309H31.7004L55.0878 49.2828L55.4007 49.5957C55.4789 48.4224 55.5572 46.7016 55.5572 44.355V29.1805L55.4007 25.426L55.3225 25.0349C56.1829 25.1131 56.8869 25.1914 57.4344 25.1914C57.6691 25.1914 58.0602 25.1131 58.6077 25.0349C58.6077 25.1131 58.6077 25.3478 58.5295 25.5825C58.5295 25.8171 58.4513 26.0518 58.4513 26.13L58.2166 30.8231L57.7473 42.0866L57.5909 52.7244L57.7473 58.0433H57.1215C55.9483 56.6354 54.9314 55.5403 54.2274 54.6799L46.4055 46.0758L33.1865 31.9964L33.1083 36.4549V43.4946V47.2491L33.1865 52.8809L33.4994 57.4176C33.1865 57.3394 32.639 57.2612 31.8568 57.2612C31.0746 57.2612 30.5271 57.3394 30.2142 57.4176C30.3706 54.6017 30.5271 52.568 30.6053 51.1601L30.9182 40.1312V24.3309ZM21.6883 25.0349L21.219 35.5945C21.1408 39.5836 21.0626 42.4777 21.0626 44.5114C21.0626 44.8243 21.0626 45.2936 21.1408 45.9976C21.1408 46.6234 21.1408 47.0927 21.1408 47.4056L21.6101 57.4958C20.5933 57.4176 19.8111 57.3394 19.3418 57.3394C18.7942 57.3394 18.012 57.4176 16.8388 57.4958L17.3081 47.2491C17.3863 46.7798 17.3863 45.9976 17.3863 44.9808C17.3863 43.9639 17.3863 43.1817 17.4645 42.7124V38.7232V35.2034L17.2298 25.1131C18.5596 25.2696 19.2635 25.3478 19.42 25.3478C20.4368 25.3478 21.219 25.2696 21.6883 25.0349Z" fill="#F36521"/>
<path d="M23.5656 9C18.4813 9 14.2575 13.0674 14.2575 17.917V56.0879C14.2575 60.9374 18.5596 65.0048 23.5656 65.0048H63.6919C68.7762 65.0048 73 60.9374 73 56.0879V17.917C73 13.0674 68.698 9 63.6919 9H23.5656ZM30.9182 24.3309H31.7004L55.0878 49.2828L55.4007 49.5957C55.4789 48.4224 55.5572 46.7016 55.5572 44.355V29.1805L55.4007 25.426L55.3225 25.0349C56.1829 25.1131 56.8869 25.1913 57.4344 25.1913C57.6691 25.1913 58.0602 25.1131 58.6077 25.0349C58.6077 25.1131 58.6077 25.3478 58.5295 25.5824C58.5295 25.8171 58.4513 26.0517 58.4513 26.13L58.2166 30.8231L57.7473 42.0866L57.5909 52.7244L57.7473 58.0433H57.1215C55.9483 56.6354 54.9314 55.5403 54.2274 54.6799L46.4055 46.0758L33.1865 31.9964L33.1083 36.4549V43.4946V47.2491L33.1865 52.8809L33.4994 57.4176C33.1865 57.3394 32.639 57.2612 31.8568 57.2612C31.0746 57.2612 30.5271 57.3394 30.2142 57.4176C30.3706 54.6017 30.5271 52.568 30.6053 51.16L30.9182 40.1312V24.3309ZM21.6883 25.0349L21.219 35.5945C21.1408 39.5836 21.0626 42.4777 21.0626 44.5114C21.0626 44.8243 21.0626 45.2936 21.1408 45.9976C21.1408 46.6233 21.1408 47.0927 21.1408 47.4055L21.6101 57.4958C20.5933 57.4176 19.8111 57.3393 19.3418 57.3393C18.7942 57.3393 18.012 57.4176 16.8388 57.4958L17.3081 47.2491C17.3863 46.7798 17.3863 45.9976 17.3863 44.9808C17.3863 43.9639 17.3863 43.1817 17.4645 42.7124V38.7232V35.2034L17.2298 25.1131C18.5596 25.2696 19.2635 25.3478 19.42 25.3478C20.4368 25.3478 21.219 25.2696 21.6883 25.0349Z" fill="#F7931C"/>
<path d="M17.3081 14.3189C16.4477 14.3189 15.6655 14.4753 14.8833 14.6318C14.414 15.6486 14.1793 16.7437 14.1793 17.8388V56.0879C14.1793 60.9374 18.4814 64.9266 23.4874 64.9266H63.692C64.5524 64.9266 65.3346 64.8484 66.1168 64.6137C66.5861 63.5969 66.8207 62.5018 66.8207 61.3285V23.0794C66.8207 18.2298 62.5187 14.1625 57.5127 14.1625H17.3081V14.3189ZM30.9182 24.3309H31.7004L55.0879 49.2828L55.4007 49.5957C55.479 48.4224 55.5572 46.7016 55.5572 44.355V29.1805L55.4007 25.426L55.3225 25.0349C56.1829 25.1131 56.8869 25.1913 57.4344 25.1913C57.6691 25.1913 58.0602 25.1131 58.6077 25.0349C58.6077 25.1131 58.6077 25.3478 58.5295 25.5824C58.5295 25.8171 58.4513 26.0517 58.4513 26.13L58.2166 30.8231L57.7473 42.0866L57.5909 52.7244L57.7473 58.0433H57.1216C55.9483 56.6354 54.9314 55.5403 54.2275 54.6799L46.4056 46.0758L33.1865 31.9964L33.1083 36.4549V43.4946V47.2491L33.1865 52.8809L33.4994 57.4176C33.1865 57.3394 32.639 57.2611 31.8568 57.2611C31.0746 57.2611 30.5271 57.3394 30.2142 57.4176C30.3707 54.6017 30.5271 52.568 30.6053 51.16L30.9182 40.1312V24.3309ZM21.6884 25.0349L21.219 35.5945C21.1408 39.5836 21.0626 42.4777 21.0626 44.5114C21.0626 44.8243 21.0626 45.2936 21.1408 45.9976C21.1408 46.6233 21.1408 47.0927 21.1408 47.4055L21.6101 57.4958C20.5933 57.4176 19.8111 57.3393 19.3418 57.3393C18.7942 57.3393 18.0121 57.4176 16.8388 57.4958L17.3081 47.2491C17.3863 46.7798 17.3863 45.9976 17.3863 44.9807C17.3863 43.9639 17.3863 43.1817 17.4645 42.7124V38.7232V35.2034L17.2299 25.1131C18.5596 25.2696 19.2636 25.3478 19.42 25.3478C20.4368 25.3478 21.219 25.2696 21.6884 25.0349Z" fill="#F04824"/>
</svg>
