<svg width="80" height="80" viewBox="0 0 80 80" fill="none" xmlns="http://www.w3.org/2000/svg">
<rect width="80" height="80" fill="#838383"/>
<g id="xenserver_svg">
<rect width="80" height="80" rx="5" fill="white"/>
<g id="Group 581">
<path id="Vector" d="M34.4652 52.7152L37.1053 58.2724L31.2709 70.5619H26.0037L34.4652 52.7152Z" fill="#3C7AB5"/>
<path id="Vector_2" d="M32.2609 17.8272L37.1316 28.3738L34.4787 34.0896L26.9808 17.8272H32.2609Z" fill="#3C7AB5"/>
<path id="Vector_3" d="M53.434 43.5065L67.2014 70.5668H61.9613L61.3541 69.3657L48.1933 43.4932L64.7863 10.0045H70L53.434 43.5065Z" fill="#3C7AB5"/>
<path id="Vector_4" d="M45.2441 43.5151L58.9986 70.5623H45.8513L34.7768 47.2509L34.7633 47.2113H34.1561L34.1426 47.2509L23.0681 70.5623H10L23.7674 43.5151L23.7545 43.5019L11.0822 17.8276H24.0581L34.0768 39.5287H34.8425H34.8554L48.5706 10H61.8372L45.2312 43.5019L45.2441 43.5151Z" fill="#273440"/>
</g>
</g>
</svg>
