<svg width="60" height="42" viewBox="0 0 60 42" fill="none" xmlns="http://www.w3.org/2000/svg">
<path d="M46.3983 1.52374C44.4788 1.13001 44.8603 2.38503 45.2909 3.06176C44.1835 3.06176 43.7529 11.7977 43.8144 11.9823C43.8759 12.1668 43.2607 12.8436 42.2149 12.8436C41.169 12.8436 38.4006 10.8749 37.3547 9.3984C36.518 8.2172 34.9144 6.77351 34.2172 6.19932C32.6422 1.81903 30.4029 0.313825 29.48 0.108756C25.5427 0.0472348 25.6042 4.72282 23.9432 6.50692C22.2821 8.29102 22.2821 6.93757 19.5137 2.44655C16.7452 -2.04447 15.1457 1.52374 15.0842 1.52374C15.035 1.52374 10.7982 8.04494 8.68601 11.3055C8.66551 11.4286 8.19385 11.9084 6.47126 12.8436C4.31804 14.0125 4.44108 15.5505 3.14914 16.8424C1.8572 18.1344 1.42656 23.9173 1.42656 25.0247C1.42656 26.1321 -0.726671 29.2081 0.257662 28.839C1.242 28.4699 2.41089 24.2249 2.71849 23.5482C2.96458 23.0068 3.23117 21.8461 3.3337 21.3334C4.37956 22.3178 2.96458 28.4699 2.71849 29.2081C2.47241 29.9464 2.04177 31.4844 1.42656 32.2226C0.811349 32.9609 1.11895 34.5604 2.04177 35.8523C2.78002 36.8859 2.34937 39.6871 2.04177 40.9586C2.84154 41.0816 4.5026 41.3277 4.74868 41.3277C5.05629 41.3277 5.11781 39.8512 4.44108 38.8053C3.76435 37.7595 3.88739 35.4832 3.82587 34.745C3.76435 34.0067 3.76435 32.9609 4.25652 32.5917C4.74868 32.2226 5.67149 30.254 6.2867 28.4699C6.77887 27.0426 7.72219 26.9318 8.13233 27.0549C7.80422 27.6086 7.20951 28.9005 7.4556 29.6387C7.7632 30.5616 7.70168 32.4687 7.4556 34.1298C7.20951 35.7908 6.96343 35.2371 8.31689 36.7136C9.39966 37.8948 9.67035 40.0358 9.67035 40.9586L11.8851 41.1431C11.9876 40.5689 12.0081 38.9776 11.2699 37.2058C10.5316 35.434 10.3881 34.704 10.4086 34.5604C10.5316 33.7812 10.7531 32.0381 10.6547 31.2998C10.5316 30.377 11.0238 28.7159 11.639 27.9777C12.2542 27.2394 12.3773 26.6857 12.8694 25.3323C13.2632 24.2495 13.6077 24.348 13.7307 24.5325C20.1289 29.4542 25.9118 27.7931 28.0035 26.6857C29.6769 25.7998 30.1363 26.8088 30.1568 27.424C29.7877 29.044 28.9141 32.4933 28.3727 33.33C27.6959 34.3759 28.5572 35.4832 28.0651 37.2058C27.6713 38.5839 27.901 40.5279 28.0651 41.3277H30.7105C30.4234 40.1588 29.9107 37.7595 30.1568 37.5134C30.4644 37.2058 30.4644 36.283 30.7105 34.745C30.9565 33.207 31.3872 33.9452 31.5102 34.745C31.6087 35.3848 31.7973 36.6521 31.8794 37.2058L32.6791 41.3277L34.5863 41.6353C34.4017 40.7125 33.9095 38.6577 33.4174 37.821C32.8089 36.7866 32.9828 36.4142 33.4033 35.5134L33.4174 35.4832C33.848 34.5604 33.3559 33.6376 33.4174 33.33C33.4789 33.0224 33.1098 29.4542 34.5863 28.7159C35.7675 28.1253 36.1448 27.0344 36.1858 26.5627C35.9602 26.1321 35.989 24.877 37.9084 23.3021C39.8279 21.7272 40.8819 21.8666 41.169 22.1332C42.2026 24.4464 45.3319 23.5892 46.7674 22.8715C52.9195 18.9341 52.6529 11.6337 51.7506 8.47559C53.4732 8.41407 53.8423 7.67582 54.3345 6.93757C54.7282 6.34697 56.3441 5.78918 57.1029 5.58411C56.4057 5.52259 55.4418 5.43646 57.1644 5.58411C59.3176 5.76867 59.6868 5.27651 59.6252 4.9689C59.5637 4.6613 59.1331 4.59978 58.764 4.72282C58.3948 4.84586 58.5794 4.35369 58.887 3.98457C59.1946 3.61544 59.9329 4.35369 59.9944 3.86153C60.0559 3.36936 59.6252 2.56959 58.0872 1.52374C56.8568 0.687057 55.4418 1.17512 54.8881 1.52374C54.6011 1.52374 53.5716 1.38839 51.7506 0.847007C49.9296 0.305622 47.4236 1.07258 46.3983 1.52374Z" fill="#D54000" fill-opacity="0.15" style="mix-blend-mode:multiply"/>
</svg>