<svg width="27" height="32" viewBox="0 0 27 32" fill="none" xmlns="http://www.w3.org/2000/svg">
<g clip-path="url(#clip0_3702_1630)">
<path d="M2.51257 6.10269L17.0846 0.405579L22.524 3.46885L22.4668 5.27245L12.3895 12.8304L7.95202 20.3025L2.51257 20.707V6.10269Z" fill="#E0C7A9"/>
<path d="M17.5427 1.07833C17.5427 1.07833 16.3403 0.276728 17.9721 0.0476988C19.604 -0.181331 24.4995 2.28074 24.4709 2.25211C24.4422 2.22348 24.4709 5.47398 24.4709 5.47398C24.4709 5.47398 22.9249 5.51578 21.8943 4.62829C21.8943 4.62829 22.0231 3.6406 20.878 2.98214C19.7328 2.32368 18.4445 1.75111 18.2441 1.46482C18.0437 1.17853 17.6715 1.17853 17.5427 1.07833Z" fill="#F28B03"/>
<path d="M21.8943 4.62828C21.9048 4.60166 23.2398 5.57303 24.4995 5.45852C24.4995 5.45852 24.478 11.8785 24.4995 11.857C24.5209 11.8356 23.638 9.38007 22.6586 8.271C21.6793 7.16192 20.4056 6.34601 21.293 5.45852C21.293 5.45852 21.6509 5.2438 21.8943 4.62828Z" fill="#C24F1E"/>
<path d="M2.5126 20.7176C2.48397 20.7202 2.5126 21.6764 2.5126 21.6764C2.5126 21.6764 24.4994 21.8622 24.4994 21.6764V11.9286C24.4994 11.9286 23.7408 9.16593 22.2521 7.82039C20.7634 6.47484 21.021 5.87363 21.2214 5.53009C21.2214 5.53009 18.1582 7.41958 16.2973 8.47885C14.4364 9.53811 12.8619 10.397 10.8865 14.2618C8.91111 18.1267 7.27928 20.2739 2.5126 20.7176Z" fill="#D54000"/>
</g>
<path d="M2.56818 30.7591H0.505682V24.9409H2.58523C3.17045 24.9409 3.67424 25.0574 4.09659 25.2904C4.51894 25.5214 4.84375 25.8538 5.07102 26.2875C5.30019 26.7212 5.41477 27.2402 5.41477 27.8444C5.41477 28.4504 5.30019 28.9712 5.07102 29.4069C4.84375 29.8425 4.51705 30.1767 4.09091 30.4097C3.66667 30.6426 3.15909 30.7591 2.56818 30.7591ZM1.7358 29.7051H2.51705C2.88068 29.7051 3.18655 29.6408 3.43466 29.512C3.68466 29.3813 3.87216 29.1796 3.99716 28.9069C4.12405 28.6322 4.1875 28.2781 4.1875 27.8444C4.1875 27.4144 4.12405 27.0631 3.99716 26.7904C3.87216 26.5176 3.68561 26.3169 3.4375 26.1881C3.18939 26.0593 2.88352 25.9949 2.51989 25.9949H1.7358V29.7051ZM10.9197 24.9409H12.1499V28.7194C12.1499 29.1436 12.0485 29.5148 11.8459 29.833C11.6451 30.1512 11.3639 30.3993 11.0021 30.5773C10.6404 30.7534 10.219 30.8415 9.73793 30.8415C9.25497 30.8415 8.83262 30.7534 8.47088 30.5773C8.10914 30.3993 7.82789 30.1512 7.62713 29.833C7.42637 29.5148 7.32599 29.1436 7.32599 28.7194V24.9409H8.55611V28.6142C8.55611 28.8358 8.6044 29.0328 8.70099 29.2051C8.79948 29.3775 8.93774 29.5129 9.11577 29.6114C9.2938 29.7099 9.50118 29.7591 9.73793 29.7591C9.97656 29.7591 10.1839 29.7099 10.3601 29.6114C10.5381 29.5129 10.6754 29.3775 10.772 29.2051C10.8705 29.0328 10.9197 28.8358 10.9197 28.6142V24.9409ZM19.0284 24.9409V30.7591H17.9659L15.4347 27.0972H15.392V30.7591H14.1619V24.9409H15.2415L17.7528 28.6H17.804V24.9409H19.0284ZM21.0447 30.7591V24.9409H24.9652V25.9551H22.2749V27.3415H24.7635V28.3557H22.2749V29.7449H24.9766V30.7591H21.0447Z" fill="#D54000"/>
<defs>
<clipPath id="clip0_3702_1630">
<rect width="22" height="21.7266" fill="white" transform="translate(2.5 0.0325317)"/>
</clipPath>
</defs>
</svg>
