<svg width="1440" height="430" viewBox="0 0 1440 430" fill="none" xmlns="http://www.w3.org/2000/svg">
<mask id="mask0_2992_4050" style="mask-type:alpha" maskUnits="userSpaceOnUse" x="-1" y="0" width="1441" height="430">
<rect x="-1" width="1441" height="430" fill="url(#paint0_linear_2992_4050)"/>
</mask>
<g mask="url(#mask0_2992_4050)">
<path d="M0 0H1439V430H0V0Z" fill="#D2E0F5" fill-opacity="0.2"/>
<path d="M-1 560V359.329C654.514 394.587 1232.8 300.134 1440 262V560H-1Z" fill="#DDEAFC"/>
<path d="M1440 342.359C820 359 10.4668 393.054 -1 391V520H1440V342.359Z" fill="#F6F9FD"/>
<path d="M454.784 58.4481C436.549 54.7076 440.172 66.6303 444.264 73.0593C433.743 73.0593 429.652 156.051 430.237 157.804C430.821 159.558 424.977 165.986 415.041 165.986C405.106 165.986 378.805 147.284 368.87 133.257C360.921 122.036 345.687 108.321 339.063 102.866C324.101 61.2534 302.827 46.9539 294.06 45.0057C256.656 44.4213 257.24 88.8393 241.46 105.788C225.68 122.737 225.68 109.879 199.38 67.2148C173.08 24.5501 157.884 58.4481 157.3 58.4481C156.832 58.4481 116.583 120.4 96.5171 151.375C96.3223 152.544 91.8416 157.103 75.477 165.986C55.0213 177.091 56.1902 191.702 43.9168 203.976C31.6434 216.249 27.5523 271.187 27.5523 281.707C27.5523 292.227 7.09663 321.45 16.4478 317.943C25.799 314.436 36.9035 274.109 39.8257 267.68C42.1635 262.537 44.6961 251.511 45.6702 246.64C55.6058 255.991 42.1635 314.436 39.8257 321.45C37.4879 328.463 33.3968 343.074 27.5523 350.088C21.7078 357.101 24.6301 372.297 33.3968 384.57C40.4101 394.389 36.319 421.001 33.3968 433.079C40.9946 434.248 56.7747 436.586 59.1125 436.586C62.0347 436.586 62.6192 422.559 56.1902 412.624C49.7613 402.688 50.9302 381.063 50.3458 374.05C49.7613 367.037 49.7613 357.101 54.4369 353.594C59.1125 350.088 67.8792 331.385 73.7237 314.436C78.3992 300.877 87.3608 299.825 91.2571 300.994C88.14 306.254 82.4904 318.527 84.8282 325.541C87.7504 334.307 87.166 352.425 84.8282 368.206C82.4904 383.986 80.1526 378.726 93.0104 392.752C103.297 403.974 105.868 424.313 105.868 433.079L126.908 434.833C127.882 429.378 128.077 414.26 121.064 397.428C114.051 380.596 112.687 373.66 112.882 372.297C114.051 364.894 116.155 348.334 115.219 341.321C114.051 332.554 118.726 316.774 124.571 309.761C130.415 302.747 131.584 297.487 136.26 284.629C140 274.343 143.273 275.278 144.442 277.032C205.224 323.787 260.163 308.007 280.034 297.487C295.931 289.071 300.295 298.656 300.489 304.501C296.983 319.891 288.684 352.659 283.54 360.608C277.111 370.543 285.294 381.063 280.618 397.428C276.878 410.52 279.06 428.988 280.618 436.586H305.749C303.022 425.481 298.152 402.688 300.489 400.35C303.412 397.428 303.412 388.661 305.749 374.05C308.087 359.439 312.178 366.452 313.347 374.05C314.282 380.128 316.075 392.168 316.854 397.428L324.452 436.586L342.57 439.508C340.816 430.741 336.141 411.221 331.465 403.272C325.685 393.446 327.336 389.908 331.331 381.35L331.465 381.063C335.556 372.297 330.881 363.53 331.465 360.608C332.05 357.685 328.543 323.787 342.57 316.774C353.791 311.163 357.376 300.799 357.765 296.318C355.622 292.227 355.895 280.305 374.13 265.343C392.365 250.381 402.378 251.706 405.106 254.238C414.924 276.213 444.653 268.07 458.29 261.252C516.735 223.847 514.202 154.492 505.631 124.491C521.995 123.906 525.502 116.893 530.177 109.879C533.918 104.269 549.269 98.9698 556.478 97.0216C549.854 96.4372 540.697 95.6189 557.062 97.0216C577.518 98.775 581.024 94.0994 580.44 91.1771C579.855 88.2549 575.764 87.6704 572.258 88.8393C568.751 90.0082 570.504 85.3326 573.427 81.826C576.349 78.3193 583.362 85.3327 583.947 80.6571C584.531 75.9815 580.44 68.3837 565.829 58.4481C554.14 50.4996 540.697 55.1362 535.437 58.4481C532.71 58.4481 522.93 57.1623 505.631 52.0191C488.331 46.8759 464.524 54.1621 454.784 58.4481Z" fill="#E2E9F3"/>
</g>
<defs>
<linearGradient id="paint0_linear_2992_4050" x1="274.988" y1="344.945" x2="651.135" y2="-398.908" gradientUnits="userSpaceOnUse">
<stop stop-color="#E6EFF7"/>
<stop offset="1" stop-color="#CFDFF6"/>
</linearGradient>
</defs>
</svg>
