<svg width="283" height="135" viewBox="0 0 283 135" fill="none" xmlns="http://www.w3.org/2000/svg">
<g opacity="0.6">
<g clip-path="url(#clip0_893_8287)">
<rect width="283" height="135" rx="4.245" fill="white"/>
<g clip-path="url(#clip1_893_8287)">
<g clip-path="url(#clip2_893_8287)">
<path d="M18.3449 10.2698L18.3448 10.2697C18.3377 10.2471 18.3265 10.235 18.3121 10.2222C18.3101 10.2203 18.3079 10.2184 18.3056 10.2165C18.2918 10.2045 18.2744 10.1894 18.2607 10.1659L18.3449 10.2698ZM18.3449 10.2698C18.354 10.2982 18.3545 10.3282 18.3534 10.3623C18.3533 10.3671 18.3531 10.3721 18.3529 10.3771C18.3518 10.4063 18.3506 10.4384 18.3553 10.4705L18.3795 10.467M18.3449 10.2698L18.3795 10.467M14.1866 7.51296V9.5813C14.2164 9.52853 14.2577 9.4779 14.2988 9.42885C14.3032 9.42358 14.3076 9.41833 14.312 9.41309C14.3571 9.35951 14.4009 9.30733 14.4329 9.25297C14.4424 9.23682 14.4521 9.22103 14.4615 9.20545C14.4929 9.15401 14.5228 9.10491 14.5422 9.05268L14.1866 7.51296ZM14.1866 7.51296C14.223 7.49632 14.2608 7.46766 14.2974 7.43413C14.3398 7.39534 14.3827 7.34825 14.4225 7.30095C14.4624 7.2536 14.4997 7.20561 14.531 7.16494C14.5356 7.15896 14.5401 7.15315 14.5444 7.14754L14.1866 7.51296ZM15.861 10.5313C15.8538 10.5786 15.8389 10.6193 15.8234 10.6614C15.8149 10.6847 15.8062 10.7084 15.7985 10.734M15.861 10.5313L16.3375 10.2018C16.3164 10.2835 16.2957 10.3639 16.2345 10.432C16.1348 10.5431 16.0699 10.6614 16.021 10.8051C16.0178 10.8147 16.0124 10.856 16.0056 10.9086C15.993 11.0063 15.9754 11.1428 15.9569 11.187M15.861 10.5313C15.8696 10.4746 15.8636 10.4201 15.8578 10.3677C15.8565 10.3556 15.8552 10.3436 15.854 10.3317C15.8441 10.2312 15.8931 10.1715 15.9462 10.1068L15.861 10.5313ZM15.7985 10.734C15.7875 10.7711 15.7757 10.841 15.7628 10.9174C15.7458 11.0183 15.7268 11.1306 15.7053 11.1939L15.7321 11.1906M15.7985 10.734L15.822 10.7409C15.8115 10.7765 15.8 10.8441 15.7872 10.9203C15.7837 10.9407 15.7802 10.9617 15.7765 10.9829C15.7679 11.0323 15.7589 11.082 15.7492 11.125C15.7438 11.1487 15.7382 11.1711 15.7321 11.1906M15.7985 10.734L15.8219 10.7411C15.8294 10.7162 15.8377 10.6935 15.8462 10.6705C15.8497 10.6609 15.8532 10.6513 15.8567 10.6414C15.8684 10.6084 15.8793 10.574 15.8853 10.535L15.8853 10.535C15.8944 10.4748 15.8879 10.4164 15.8821 10.3638C15.8808 10.352 15.8795 10.3405 15.8784 10.3294L15.8784 10.3293C15.8714 10.2585 15.8965 10.2107 15.9334 10.1621C15.9426 10.1499 15.9528 10.1374 15.9635 10.1244C15.9949 10.0862 16.0302 10.0432 16.0547 9.98996L16.0547 9.98993C16.0836 9.92679 16.1063 9.85963 16.1274 9.79319C16.1321 9.77827 16.1368 9.76341 16.1414 9.74863C16.1576 9.69717 16.1734 9.64672 16.1913 9.59828C16.2137 9.53791 16.2418 9.46656 16.2788 9.40298C16.3159 9.33903 16.3604 9.28582 16.4139 9.2585L16.4416 9.24437L16.4214 9.22075C16.4163 9.2148 16.4096 9.212 16.4065 9.21078C16.4024 9.20919 16.3979 9.20792 16.3933 9.20686C16.3842 9.20473 16.3726 9.20288 16.3598 9.20124C16.334 9.19792 16.3007 9.19512 16.2664 9.19269C16.2357 9.19051 16.2045 9.18864 16.1764 9.18695C16.1407 9.18481 16.1102 9.18298 16.0928 9.18124C16.0232 9.17417 15.9591 9.16628 15.8923 9.1528C15.8563 9.14552 15.8195 9.13832 15.7823 9.13107C15.688 9.11265 15.592 9.09389 15.5027 9.07254C15.4661 9.06367 15.3851 9.03714 15.3054 9.00926L16.3613 10.0478M15.7321 11.1906C15.7292 11.1999 15.7262 11.2085 15.7232 11.2164L15.9564 11.1871M15.7321 11.1906L15.9388 11.1647C15.9435 11.1491 15.9485 11.1262 15.9535 11.0982C15.9601 11.0619 15.9663 11.0192 15.9719 10.9775C15.9753 10.9525 15.9784 10.9281 15.9813 10.9057C15.9833 10.8906 15.9851 10.8765 15.9868 10.8635C15.9889 10.8476 15.9908 10.8337 15.9926 10.8228C15.9941 10.8128 15.9958 10.8031 15.9978 10.7973L15.9978 10.7973C16.0476 10.6508 16.114 10.5296 16.2163 10.4156L16.2163 10.4156C16.2612 10.3657 16.283 10.3081 16.3007 10.245C16.305 10.2296 16.3091 10.2136 16.3133 10.1973C16.3259 10.1485 16.3392 10.0968 16.3613 10.0478M15.9564 11.1871L15.9569 11.187M15.9564 11.1871L15.9564 11.1868L15.9569 11.187M15.9564 11.1871L15.9563 11.1867L15.9561 11.1848L15.9569 11.187M16.3613 10.0478C16.4049 9.95066 16.4595 9.86609 16.5145 9.78087L16.3613 10.0478ZM18.3795 10.467L18.3553 10.4706C18.3942 10.7322 18.4682 11.0056 18.583 11.2458M18.3795 10.467L17.1528 9.07097C17.1577 9.07196 17.1628 9.07356 17.1677 9.07542C17.1774 9.07915 17.1887 9.0847 17.2007 9.09132C17.2247 9.10463 17.254 9.12357 17.2844 9.14489C17.3452 9.18746 17.4126 9.24108 17.4546 9.28165M18.3795 10.467C18.4187 10.7303 18.4936 11.0052 18.6098 11.245M18.3795 10.467L18.6098 11.245M18.583 11.2458L18.3885 11.2519C18.3572 11.1617 18.3173 11.0628 18.301 11.0285L18.3009 11.0284C18.2873 11 18.2716 10.9574 18.256 10.9141C18.2547 10.9105 18.2533 10.9069 18.252 10.9032C18.2381 10.8645 18.2243 10.8263 18.213 10.8018L18.2129 10.8016C18.2013 10.7769 18.1782 10.7331 18.1539 10.6906C18.1298 10.6487 18.1031 10.6055 18.0843 10.5835C18.0733 10.5706 18.0638 10.5598 18.0554 10.5502C18.0343 10.5261 18.0207 10.5105 18.0099 10.4932C17.9958 10.4706 17.9867 10.4449 17.9759 10.3909C17.9375 10.1979 17.8362 9.84822 17.7163 9.60588L17.7162 9.60587C17.6528 9.4779 17.5479 9.37134 17.4546 9.28165M18.583 11.2458L18.6098 11.245M18.583 11.2458C18.5869 11.2539 18.5908 11.2619 18.5948 11.2699L18.3712 11.2769L18.6098 11.245M17.4546 9.28165C17.4546 9.28166 17.4546 9.28166 17.4546 9.28167L17.4376 9.29926L17.4546 9.28163C17.4546 9.28163 17.4546 9.28164 17.4546 9.28165ZM17.7457 7.54498C17.7385 7.53333 17.7283 7.51959 17.7159 7.50303C17.7144 7.50106 17.7129 7.49906 17.7114 7.49703C17.6997 7.48147 17.6865 7.464 17.6734 7.44508C17.6437 7.40229 17.6131 7.35056 17.5962 7.29114L17.5962 7.29113C17.5793 7.23152 17.5566 7.17657 17.5349 7.12814C17.5281 7.1132 17.5214 7.09866 17.515 7.08471C17.501 7.05439 17.4883 7.02691 17.4799 7.00439L17.4799 7.00438C17.4686 6.97413 17.4498 6.93477 17.4275 6.88822L17.4242 6.88137C17.4007 6.83236 17.3742 6.77664 17.3508 6.7186C17.293 6.57512 17.212 6.46904 17.1543 6.41757C17.1376 6.40262 17.1215 6.3869 17.1055 6.37128C17.0277 6.2951 16.9521 6.22118 16.8082 6.24959C16.8021 6.25079 16.7942 6.25191 16.7848 6.25324C16.7347 6.26034 16.6429 6.27337 16.5691 6.33525C16.5422 6.35789 16.5231 6.3938 16.5027 6.43986C16.499 6.44816 16.4953 6.45678 16.4915 6.46562C16.4748 6.50407 16.4564 6.54671 16.4314 6.58612C16.4157 6.61095 16.393 6.66086 16.3667 6.72266C16.3547 6.75069 16.3417 6.78206 16.3284 6.81399C16.3136 6.84954 16.2985 6.88578 16.2844 6.91886C16.2755 6.9397 16.2677 6.95932 16.2604 6.97785L16.2592 6.98071C16.2516 6.99992 16.2443 7.01815 16.2369 7.03469L17.7457 7.54498ZM17.7457 7.54498L17.7482 7.55073C17.7506 7.55553 17.7541 7.56217 17.7592 7.57036C17.7694 7.58676 17.786 7.60928 17.812 7.63559C17.8641 7.68822 17.9537 7.75564 18.1054 7.81949C18.1517 7.839 18.2316 7.86721 18.3015 7.89192C18.3303 7.9021 18.3575 7.91169 18.3799 7.91983L18.3875 7.89884L18.3799 7.91983C18.5149 7.96883 18.6451 7.96213 18.8047 7.9431C18.8742 7.94236 18.9241 7.89156 18.961 7.83258C18.9966 7.77562 19.0248 7.70375 19.0494 7.64082C19.0507 7.63732 19.0521 7.63385 19.0535 7.63041M17.7457 7.54498L19.0535 7.63041M19.0535 7.63041C19.0535 7.63041 19.0534 7.63041 19.0534 7.63042L19.0306 7.62147L19.0535 7.63041ZM19.0535 7.63041C19.0698 7.58868 19.0852 7.51048 19.0987 7.43777C19.101 7.42522 19.1033 7.41284 19.1055 7.40076C19.1165 7.34059 19.1261 7.2883 19.134 7.2634L19.134 7.26336C19.1444 7.23016 19.1393 7.19967 19.1354 7.1764C19.1349 7.17332 19.1344 7.17036 19.1339 7.16753L19.0535 7.63041ZM20.5767 7.51478L20.5768 7.51476C20.6639 7.47619 20.7319 7.45252 20.8277 7.47236L20.8277 7.47237C20.8442 7.4758 20.8632 7.48262 20.8811 7.48904C20.8832 7.4898 20.8853 7.49056 20.8874 7.4913C20.9082 7.4987 20.928 7.50542 20.9462 7.50869C20.9647 7.512 20.9778 7.51103 20.9868 7.5067C20.9925 7.50395 20.9988 7.49875 21.0039 7.48752C20.9967 7.48023 20.9913 7.47244 20.9869 7.46561C20.9846 7.46187 20.9822 7.45785 20.9802 7.45441C20.9793 7.45298 20.9786 7.45165 20.9779 7.45049C20.9752 7.44599 20.9732 7.44301 20.9715 7.44092L20.9426 7.40554L20.988 7.40103C20.9979 7.40005 21.0035 7.39667 21.0073 7.39264C21.0114 7.38818 21.0151 7.38086 21.0171 7.36935C21.0213 7.34572 21.0174 7.31184 21.0074 7.27344C20.9975 7.23571 20.9825 7.1963 20.967 7.16289C20.9512 7.12892 20.9359 7.10329 20.9262 7.09186L20.5767 7.51478ZM20.5767 7.51478C20.5209 7.53963 20.4551 7.55341 20.3853 7.56804C20.3668 7.57191 20.348 7.57585 20.3291 7.58006C20.2408 7.59969 20.1497 7.62539 20.0807 7.6829L20.5767 7.51478ZM20.1754 6.87835L20.1754 6.87836C20.1091 6.89133 20.0589 6.89191 20.0184 6.88451C19.9776 6.87703 19.9481 6.8617 19.9232 6.84526C19.913 6.83854 19.9038 6.83196 19.8952 6.82573C19.861 6.80115 19.8346 6.7821 19.7817 6.7821C19.6909 6.7821 19.5671 6.78439 19.4595 6.80806C19.3499 6.83216 19.268 6.87599 19.2445 6.95046C19.2306 6.99446 19.216 7.01873 19.1983 7.04036C19.1917 7.0484 19.1856 7.05516 19.1795 7.06199C19.1686 7.0741 19.1575 7.08641 19.1432 7.10642L20.1754 6.87835ZM20.1754 6.87835C20.2993 6.85405 20.419 6.88664 20.555 6.92364M20.1754 6.87835L20.555 6.92364M16.036 7.16155L16.036 7.16155L16.036 7.16155ZM16.036 7.16155C16.0678 7.17348 16.0968 7.16807 16.1211 7.15688C16.143 7.14677 16.1624 7.13124 16.1775 7.11918C16.1784 7.11845 16.1793 7.11772 16.1802 7.11701L16.036 7.16155ZM15.7248 6.7666L15.7248 6.76659C15.6731 6.66081 15.5617 6.50089 15.4966 6.41348C15.4501 6.35113 15.4155 6.31529 15.3775 6.29424C15.34 6.27348 15.2966 6.26563 15.2289 6.26563C15.1568 6.26563 15.1032 6.27574 15.0611 6.29349C15.0193 6.31112 14.9876 6.33684 14.9602 6.37017C14.9324 6.4039 14.9091 6.44536 14.8841 6.49473C14.8759 6.51084 14.8675 6.52789 14.8588 6.5457C14.8411 6.5816 14.822 6.62059 14.8 6.66122L15.7248 6.7666ZM15.7248 6.7666C15.7556 6.82956 15.7959 6.90355 15.8342 6.96621C15.8533 6.99753 15.872 7.0263 15.8889 7.04956C15.9053 7.07217 15.9214 7.09162 15.9353 7.10246L15.7248 6.7666ZM20.555 6.92364C20.5728 6.92849 20.5909 6.93342 20.6093 6.9383L20.555 6.92364ZM14.7263 6.85204C14.6991 6.92502 14.6639 7.00351 14.6033 7.07294L14.7263 6.85204ZM14.7263 6.85204C14.7348 6.8293 14.7424 6.80748 14.7496 6.78668M14.7263 6.85204L14.7496 6.78668M14.7496 6.78668C14.7661 6.73908 14.7808 6.69684 14.8 6.66122L14.7496 6.78668ZM14.7944 8.73498C14.7275 8.74589 14.6562 8.76983 14.6107 8.84364L15.1236 8.94099C15.0727 8.91752 15.029 8.87694 14.9853 8.83625C14.9775 8.82901 14.9697 8.82176 14.9618 8.81461C14.9367 8.7917 14.9108 8.76957 14.884 8.75438C14.8569 8.73901 14.827 8.72962 14.7944 8.73498ZM14.7944 8.73498L14.7984 8.75916L14.7944 8.73499C14.7944 8.73498 14.7944 8.73498 14.7944 8.73498ZM18.1054 9.72577L18.1299 9.72463L19.9143 8.0983L19.9143 8.09831L19.9143 8.09832L19.9142 8.09847L19.914 8.09916L19.9128 8.10204L19.908 8.11349C19.9037 8.12354 19.8971 8.13825 19.8883 8.15663C19.8706 8.19341 19.8438 8.24482 19.8075 8.30308C19.7349 8.4198 19.6249 8.56292 19.4747 8.67119L19.4747 8.6712C19.4671 8.67671 19.4588 8.68294 19.4497 8.68974C19.3653 8.75312 19.2145 8.86627 18.918 8.91205C18.77 8.93489 18.6312 8.93683 18.478 8.92923L18.478 8.92923C18.4677 8.92874 18.4576 8.92824 18.4475 8.92775C18.3831 8.9246 18.3206 8.92154 18.2547 8.92073L18.2546 8.92073C18.2485 8.92069 18.24 8.92056 18.2301 8.9204C18.2054 8.92001 18.1715 8.91948 18.1412 8.91988C18.1201 8.92016 18.0997 8.9209 18.0847 8.9226C18.0776 8.92341 18.0698 8.92462 18.0635 8.92685C18.0609 8.9278 18.055 8.93007 18.0502 8.93521C18.0474 8.93816 18.0443 8.94278 18.0433 8.94909C18.0432 8.94929 18.0432 8.94949 18.0432 8.94969L18.0283 8.98686L18.0241 8.98518L18.0269 9.00047L18.032 9.03006L18.0364 9.0563C18.0416 9.08518 18.0445 9.11441 18.0452 9.14374L18.0452 9.14404C18.0463 9.17336 18.0452 9.20338 18.044 9.23458L18.0438 9.23882C18.0427 9.27118 18.0415 9.30474 18.0432 9.338C18.0466 9.4059 18.0608 9.47057 18.0745 9.5331L18.075 9.5355C18.089 9.59938 18.1024 9.66116 18.1054 9.72575C18.1054 9.72575 18.1054 9.72576 18.1054 9.72577ZM17.1355 9.07063C16.9772 9.10221 16.8742 9.19592 16.7936 9.30915C16.7535 9.36554 16.7186 9.42717 16.6853 9.48861C16.678 9.50217 16.6707 9.51569 16.6634 9.52915C16.6377 9.57712 16.6123 9.62432 16.5851 9.66932L17.1355 9.07063ZM18.6205 11.2671L18.6192 11.2646L18.6196 11.2649C18.6199 11.2656 18.6202 11.2664 18.6206 11.2671C18.6208 11.2675 18.6209 11.2679 18.6211 11.2683L18.6205 11.2671ZM14.6106 8.84364C14.5922 8.87356 14.5805 8.91281 14.5709 8.9496C14.5684 8.95914 14.566 8.96851 14.5637 8.97765C14.5567 9.00532 14.5503 9.0309 14.5422 9.05266L14.6106 8.84364Z" fill="url(#paint0_linear_893_8287)" stroke="url(#paint1_linear_893_8287)" stroke-width="0.0489915"/>
<mask id="path-3-inside-1_893_8287" fill="white">
<path d="M18.2252 9.04133L18.2263 9.03835C18.2247 9.0308 18.2241 9.02909 18.2252 9.04133Z"/>
</mask>
<path d="M18.2252 9.04133L18.2263 9.03835C18.2247 9.0308 18.2241 9.02909 18.2252 9.04133Z" fill="url(#paint2_linear_893_8287)"/>
<path d="M18.2252 9.04133L18.1764 9.04582L18.271 9.05862L18.2252 9.04133ZM18.2263 9.03835L18.2722 9.05563L18.2773 9.042L18.2742 9.02778L18.2263 9.03835ZM18.271 9.05862L18.2722 9.05563L18.1805 9.02106L18.1793 9.02405L18.271 9.05862ZM18.2742 9.02778C18.2738 9.02596 18.2732 9.02353 18.2727 9.02141C18.2725 9.02068 18.2718 9.0182 18.2707 9.0154C18.2705 9.0147 18.2688 9.01007 18.2654 9.00499C18.2641 9.0031 18.2589 8.99546 18.2489 8.98979C18.2432 8.98655 18.2345 8.98317 18.2236 8.98343C18.2122 8.9837 18.2026 8.98783 18.1955 8.99309C18.1835 9.00197 18.1795 9.01342 18.1786 9.01585C18.1771 9.01996 18.1765 9.02337 18.1763 9.02492C18.1757 9.02822 18.1757 9.03089 18.1756 9.03185C18.1756 9.03415 18.1757 9.03621 18.1757 9.03726C18.1759 9.0397 18.1761 9.04267 18.1764 9.04582L18.274 9.03685C18.2737 9.03387 18.2736 9.03247 18.2736 9.03202C18.2736 9.03162 18.2736 9.03261 18.2736 9.03419C18.2736 9.03477 18.2735 9.03717 18.273 9.04027C18.2728 9.04173 18.2722 9.04505 18.2708 9.0491C18.2699 9.05147 18.2658 9.06289 18.2539 9.07174C18.2469 9.077 18.2372 9.08112 18.2259 9.08139C18.215 9.08165 18.2063 9.07827 18.2006 9.07504C18.1906 9.06939 18.1855 9.06179 18.1842 9.05995C18.1809 9.05499 18.1793 9.05053 18.1791 9.05009C18.1786 9.04871 18.1783 9.04766 18.1782 9.04728C18.178 9.0468 18.1779 9.04648 18.1779 9.0464C18.1779 9.04635 18.178 9.04696 18.1785 9.04891L18.2742 9.02778Z" fill="url(#paint3_linear_893_8287)" mask="url(#path-3-inside-1_893_8287)"/>
<mask id="path-5-inside-2_893_8287" fill="white">
<path d="M18.2252 9.04133L18.2263 9.03835C18.2247 9.0308 18.2241 9.02909 18.2252 9.04133Z"/>
</mask>
<path d="M18.2252 9.04133L18.2263 9.03835C18.2247 9.0308 18.2241 9.02909 18.2252 9.04133Z" fill="url(#paint4_linear_893_8287)"/>
<path d="M18.2252 9.04133L18.1764 9.04582L18.271 9.05862L18.2252 9.04133ZM18.2263 9.03835L18.2722 9.05563L18.2773 9.042L18.2742 9.02778L18.2263 9.03835ZM18.271 9.05862L18.2722 9.05563L18.1805 9.02106L18.1793 9.02405L18.271 9.05862ZM18.2742 9.02778C18.2738 9.02596 18.2732 9.02353 18.2727 9.02141C18.2725 9.02068 18.2718 9.0182 18.2707 9.0154C18.2705 9.0147 18.2688 9.01007 18.2654 9.00499C18.2641 9.0031 18.2589 8.99546 18.2489 8.98979C18.2432 8.98655 18.2345 8.98317 18.2236 8.98343C18.2122 8.9837 18.2026 8.98783 18.1955 8.99309C18.1835 9.00197 18.1795 9.01342 18.1786 9.01585C18.1771 9.01996 18.1765 9.02337 18.1763 9.02492C18.1757 9.02822 18.1757 9.03089 18.1756 9.03185C18.1756 9.03415 18.1757 9.03621 18.1757 9.03726C18.1759 9.0397 18.1761 9.04267 18.1764 9.04582L18.274 9.03685C18.2737 9.03387 18.2736 9.03247 18.2736 9.03202C18.2736 9.03162 18.2736 9.03261 18.2736 9.03419C18.2736 9.03477 18.2735 9.03717 18.273 9.04027C18.2728 9.04173 18.2722 9.04505 18.2708 9.0491C18.2699 9.05147 18.2658 9.06289 18.2539 9.07174C18.2469 9.077 18.2372 9.08112 18.2259 9.08139C18.215 9.08165 18.2063 9.07827 18.2006 9.07504C18.1906 9.06939 18.1855 9.06179 18.1842 9.05995C18.1809 9.05499 18.1793 9.05053 18.1791 9.05009C18.1786 9.04871 18.1783 9.04766 18.1782 9.04728C18.178 9.0468 18.1779 9.04648 18.1779 9.0464C18.1779 9.04635 18.178 9.04696 18.1785 9.04891L18.2742 9.02778Z" fill="url(#paint5_linear_893_8287)" mask="url(#path-5-inside-2_893_8287)"/>
<path d="M18.314 11.2474C18.2839 11.1625 18.2481 11.074 18.2336 11.0435C18.2335 11.0435 18.2335 11.0435 18.2335 11.0435L18.314 11.2474ZM18.314 11.2474L17.3231 11.278L17.3231 11.278L17.3225 11.2781C17.0004 11.2953 16.8719 11.2643 16.773 11.2268C16.7545 11.2198 16.7368 11.2125 16.719 11.2051C16.6387 11.1718 16.5549 11.137 16.3813 11.1252L16.3813 11.125L16.3779 11.1252L15.9675 11.1541C15.9714 11.1382 15.9751 11.1199 15.9785 11.1008C15.9852 11.0634 15.9916 11.0199 15.9972 10.978C16.0006 10.9529 16.0038 10.9281 16.0067 10.9054C16.0087 10.8904 16.0105 10.8764 16.0121 10.8639C16.0142 10.848 16.0161 10.8346 16.0177 10.8243L16.0199 10.8118L16.0207 10.8081C16.0209 10.8072 16.021 10.8069 16.021 10.8069C16.069 10.6659 16.1323 10.5506 16.2296 10.4422C16.282 10.3839 16.3063 10.3175 16.3246 10.2521C16.3296 10.2345 16.334 10.2173 16.3384 10.2002C16.3507 10.1525 16.3625 10.1066 16.3827 10.0618L16.3828 10.0618C16.4247 9.96815 16.4762 9.88856 16.5303 9.80485C16.5544 9.76746 16.5791 9.72925 16.6037 9.68861L16.6037 9.6886C16.6317 9.64243 16.6578 9.59377 16.6837 9.54563C16.6909 9.53232 16.698 9.51905 16.7051 9.50589C16.7383 9.4447 16.772 9.38529 16.8103 9.33148C16.8862 9.22474 16.9793 9.1416 17.1201 9.11294C17.1215 9.11322 17.1237 9.11386 17.127 9.11511C17.1337 9.11767 17.1427 9.122 17.1537 9.1281C17.1757 9.14024 17.2034 9.15811 17.2331 9.17893C17.2926 9.22063 17.3578 9.27263 17.3973 9.31081L17.3974 9.31085C17.4908 9.40066 17.5899 9.50201 17.6491 9.62153C17.7667 9.85887 17.8669 10.2042 17.9046 10.3943L17.9047 10.3944C17.9158 10.4503 17.9263 10.4829 17.9451 10.513C17.9581 10.534 17.9754 10.5537 17.998 10.5795C18.0059 10.5886 18.0145 10.5984 18.0238 10.6092L18.0238 10.6093C18.0392 10.6272 18.0638 10.6664 18.0881 10.7089C18.1121 10.7507 18.1345 10.7932 18.1453 10.8164L18.1675 10.806L18.314 11.2474Z" fill="url(#paint6_linear_893_8287)" stroke="url(#paint7_linear_893_8287)" stroke-width="0.0489915"/>
<path d="M14.5679 7.04063L14.568 7.04062C14.6227 6.9778 14.6555 6.9058 14.682 6.83478C14.6894 6.81489 14.6964 6.79471 14.7033 6.77475C14.7205 6.72526 14.7373 6.67707 14.7585 6.63781M14.5679 7.04063L14.7585 6.63781M14.5679 7.04063C14.5533 7.05741 14.5321 7.08505 14.507 7.11776C14.5027 7.12335 14.4983 7.12908 14.4938 7.13494C14.4625 7.17551 14.4258 7.22278 14.3866 7.26925C14.3474 7.31578 14.3061 7.36109 14.2659 7.39785C14.2385 7.42293 14.2124 7.44325 14.1886 7.45735M14.5679 7.04063L14.1886 7.45735M14.7585 6.63781C14.78 6.59794 14.7984 6.56059 14.8158 6.5252M14.7585 6.63781L14.8158 6.5252M14.1886 7.45735V5.26681C14.1886 4.71605 14.635 4.26949 15.1858 4.26949H21.2524C21.8033 4.26949 22.2496 4.71605 22.2497 5.26686V11.2515C21.9007 11.3275 21.6185 11.2693 21.3223 11.1991C21.3044 11.1948 21.2865 11.1905 21.2685 11.1862C20.9829 11.118 20.6802 11.0457 20.2949 11.0819C20.2949 11.0819 20.2949 11.0819 20.2949 11.0819L20.2972 11.1063M14.1886 7.45735L19.1168 11.1378M20.2972 11.1063C20.1625 11.1189 19.9962 11.1213 19.8222 11.1239C19.5825 11.1275 19.328 11.1312 19.1204 11.162C19.0111 11.1782 18.9158 11.2022 18.8267 11.2247C18.7565 11.2424 18.6901 11.2591 18.6239 11.2703M20.2972 11.1063C20.6784 11.0704 20.9775 11.1419 21.2633 11.2102C21.5847 11.287 21.8891 11.3597 22.2742 11.2711L20.2972 11.1063ZM18.6239 11.2703L18.6453 11.2585L18.6437 11.255L18.6438 11.255L18.6429 11.2532C18.6412 11.2498 18.6395 11.2464 18.6378 11.243M18.6239 11.2703L18.6227 11.2635L18.6227 11.2633L18.6198 11.2461C18.6258 11.2451 18.6318 11.2441 18.6378 11.243M18.6239 11.2703C18.6228 11.2683 18.6218 11.2663 18.621 11.2642C18.4992 11.02 18.4213 10.7373 18.3811 10.4668M18.6378 11.243C18.6971 11.2321 18.7568 11.2171 18.8207 11.2009C18.8301 11.1986 18.8397 11.1962 18.8493 11.1937C18.9303 11.1734 19.0178 11.1524 19.1168 11.1378M18.6378 11.243C18.5203 11.004 18.4447 10.728 18.4053 10.4633M19.1168 11.1378L19.1203 11.1614L19.1168 11.1378C19.1168 11.1378 19.1168 11.1378 19.1168 11.1378ZM18.4053 10.4633L18.3811 10.4668M18.4053 10.4633C18.4013 10.436 18.4023 10.409 18.4034 10.3797C18.4036 10.3744 18.4038 10.3691 18.404 10.3637L18.4053 10.4633ZM18.3811 10.4668C18.3768 10.4372 18.3779 10.4076 18.3789 10.3784C18.3804 10.3388 18.3819 10.2998 18.3697 10.2622M18.3811 10.4668L18.4053 10.4632L18.3697 10.2622M18.3697 10.2622C18.3594 10.2294 18.3414 10.2137 18.3228 10.1974C18.309 10.1854 18.2949 10.1731 18.2834 10.1534C18.212 10.0315 18.1383 9.87368 18.1314 9.7245C18.1283 9.65696 18.1142 9.5927 18.1002 9.52856C18.0864 9.46547 18.0726 9.4025 18.0692 9.33664C18.0675 9.30313 18.0688 9.26904 18.0701 9.23507C18.0712 9.20412 18.0723 9.17327 18.0712 9.14302L18.3931 10.2548C18.3931 10.2547 18.3931 10.2547 18.3931 10.2547L18.3697 10.2622ZM15.967 7.06372L15.9671 7.06374C15.998 7.08794 16.0278 7.10544 16.0548 7.11555L16.0548 7.11555C16.0712 7.1217 16.0862 7.11957 16.1021 7.11227C16.1184 7.10474 16.1336 7.09264 16.1498 7.0797L16.1512 7.07856C16.167 7.066 16.1798 7.04568 16.1938 7.01449C16.2007 6.9991 16.2076 6.98189 16.2153 6.96251L16.2164 6.95952C16.2238 6.94109 16.2318 6.92093 16.2409 6.89948L16.2409 6.89947C16.2557 6.86489 16.2704 6.82964 16.2849 6.79478C16.2978 6.76374 16.3106 6.73301 16.3232 6.70336C16.349 6.6426 16.3733 6.58866 16.3916 6.55977L16.3916 6.55975C16.4143 6.52394 16.4309 6.48568 16.4474 6.44745C16.4514 6.43825 16.4554 6.42904 16.4595 6.41987C16.4797 6.37425 16.5025 6.32835 16.5392 6.29759L16.5392 6.29759C16.6255 6.22524 16.7353 6.21041 16.7826 6.20403C16.7902 6.203 16.7962 6.20219 16.8003 6.2014L16.8003 6.2014C16.9716 6.16756 17.0677 6.26267 17.1458 6.34C17.1606 6.35458 17.1747 6.36853 17.1885 6.38087L17.1885 6.38088C17.2525 6.43797 17.3376 6.55059 17.3978 6.70017C17.4205 6.75657 17.4464 6.811 17.4699 6.86007L17.4738 6.86815C17.4955 6.91349 17.5153 6.95474 17.5274 6.98719C17.5351 7.00791 17.5465 7.03253 17.5599 7.06167C17.5665 7.07598 17.5737 7.09138 17.5811 7.10795C17.6032 7.15724 17.6271 7.21469 17.6449 7.27766C17.6596 7.32955 17.6868 7.37612 17.7152 7.41703C17.7278 7.43517 17.7404 7.4519 17.7521 7.46755C17.7536 7.46954 17.7551 7.47152 17.7566 7.47348C17.7694 7.49047 17.7814 7.5067 17.7902 7.52116L17.7927 7.52544L17.7923 7.52561L17.7924 7.526L17.794 7.52938C17.7955 7.53259 17.7982 7.53766 17.8023 7.54431C17.8106 7.55759 17.8249 7.57726 17.8484 7.60099C17.8954 7.64844 17.9794 7.71249 18.126 7.77421C18.1705 7.79297 18.2466 7.81987 18.3155 7.8442C18.3455 7.8548 18.3742 7.86492 18.3982 7.87365C18.522 7.91862 18.6425 7.91326 18.8018 7.89416L18.8047 7.89381V7.89398C18.8484 7.89398 18.8859 7.86259 18.921 7.80647C18.9541 7.75353 18.9807 7.68559 19.0059 7.62135C19.0071 7.61836 19.0082 7.61538 19.0094 7.6124M15.967 7.06372L19.0094 7.6124M15.967 7.06372C15.9591 7.05752 15.9465 7.04313 15.9301 7.02065C15.9143 6.99882 15.8963 6.97125 15.8775 6.94058C15.8401 6.87925 15.8005 6.80661 15.7704 6.74497C15.7166 6.63474 15.6027 6.47157 15.5374 6.38407C15.4902 6.32064 15.4504 6.27763 15.4028 6.25127C15.3547 6.22462 15.3015 6.21651 15.2305 6.21651C15.154 6.21651 15.0934 6.22721 15.0436 6.24822M15.967 7.06372L15.0436 6.24822M19.0094 7.6124C19.0237 7.57604 19.0382 7.5033 19.0521 7.42871M19.0094 7.6124L19.0521 7.42871M19.1048 7.07789L19.1049 7.07787C19.1204 7.05599 19.1354 7.0393 19.1474 7.02587C19.1529 7.0197 19.1578 7.01421 19.1619 7.00922C19.1754 6.99271 19.1872 6.97404 19.1993 6.93559L19.1993 6.93557C19.2316 6.83348 19.3392 6.78458 19.4506 6.76008C19.5639 6.73515 19.6925 6.73298 19.7833 6.73298C19.8532 6.73298 19.8936 6.76238 19.929 6.78823C19.9367 6.79384 19.9442 6.79929 19.9517 6.80423C19.973 6.81825 19.9963 6.83024 20.0288 6.83619C20.0617 6.8422 20.1054 6.8423 20.1675 6.83015L19.1048 7.07789ZM19.1048 7.07789C19.0798 7.1131 19.0828 7.1469 19.0871 7.17487M19.1048 7.07789L19.0871 7.17487M20.6235 6.89082L20.6235 6.89082C20.7539 6.92543 20.8852 6.96655 20.965 7.05991C20.9792 7.07658 20.9968 7.10718 21.013 7.14211C21.0295 7.17762 21.0456 7.21981 21.0563 7.26092C21.0669 7.30136 21.073 7.34356 21.0669 7.3778C21.0638 7.39522 21.0572 7.41229 21.0448 7.42573C21.0402 7.43072 21.0351 7.43495 21.0294 7.43842C21.0295 7.4387 21.0297 7.43898 21.0299 7.43927C21.0356 7.44819 21.0408 7.45458 21.0473 7.45873L21.0621 7.46828L21.0577 7.48536C21.0497 7.51699 21.0336 7.53918 21.0096 7.55071C20.987 7.56162 20.9616 7.56081 20.9392 7.55678C20.9165 7.55271 20.893 7.54462 20.8726 7.53732C20.8705 7.5366 20.8686 7.5359 20.8666 7.5352C20.8478 7.52848 20.8322 7.5229 20.8193 7.52021C20.7392 7.5036 20.683 7.52186 20.5981 7.55943C20.5371 7.58662 20.4645 7.60179 20.3941 7.61651C20.3763 7.62023 20.3586 7.62392 20.3413 7.62777C20.2532 7.64737 20.1727 7.6712 20.1136 7.72042L20.1136 7.72042C20.0657 7.76026 20.0401 7.8264 20.0203 7.90202C20.0142 7.92512 20.009 7.9479 20.0037 7.97066C20.0004 7.98525 19.997 7.99983 19.9935 8.01448C19.9847 8.05073 19.9748 8.0862 19.9613 8.11654L19.961 8.11716L19.9597 8.12043L19.9545 8.13273C19.95 8.14335 19.9431 8.15868 19.934 8.17773C19.9157 8.2158 19.888 8.26881 19.8507 8.32882C19.7761 8.44863 19.6621 8.59745 19.5049 8.7108M20.6235 6.89082L18.4771 8.97804L18.4784 8.95357L18.4772 8.97804C18.6324 8.98578 18.7747 8.9839 18.927 8.96034C19.2357 8.91268 19.3945 8.79347 19.4802 8.72914C19.4892 8.72237 19.4975 8.7162 19.5049 8.7108M20.6235 6.89082C20.6054 6.88602 20.5873 6.88109 20.5693 6.87618M20.6235 6.89082L20.5693 6.87618M19.5049 8.7108L19.4906 8.69093L19.505 8.71079C19.505 8.71079 19.505 8.71079 19.5049 8.7108ZM18.2038 9.04387L18.2015 9.04356L18.2009 9.03599L18.2008 9.03255C18.2008 9.03199 18.2009 9.03062 18.2011 9.02896C18.2012 9.02818 18.2015 9.02648 18.2022 9.02444L18.2022 9.0244C18.2027 9.02317 18.2046 9.01744 18.2105 9.01294C18.2141 9.01022 18.219 9.00805 18.2248 9.0079C18.2304 9.00777 18.2349 9.00954 18.2377 9.01119C18.2427 9.01408 18.2453 9.01793 18.2459 9.01885C18.2475 9.02129 18.2483 9.02354 18.2485 9.02404L18.2485 9.02409L18.2496 9.02759L18.2509 9.0329L18.2545 9.04869L18.2499 9.04697L18.2488 9.04996L18.2432 9.0492M18.2038 9.04387C18.2038 9.04379 18.2037 9.04371 18.2037 9.04363L18.2057 9.04317L18.2214 9.03961L18.2259 9.04132L18.2332 9.04065L18.2489 9.0392C18.2488 9.0396 18.2487 9.04003 18.2485 9.04047L18.2485 9.04052C18.2483 9.04117 18.2476 9.04313 18.2461 9.04551C18.2455 9.04636 18.2449 9.04727 18.2441 9.04819C18.2438 9.04852 18.2435 9.04886 18.2432 9.0492M18.2038 9.04387L18.2432 9.0492M18.2038 9.04387C18.2042 9.04453 18.2046 9.04528 18.2051 9.04606L18.2051 9.04608C18.2057 9.04697 18.2083 9.05076 18.2132 9.0536C18.216 9.05524 18.2204 9.05702 18.226 9.05688C18.2318 9.05674 18.2367 9.05457 18.2403 9.05186C18.2414 9.051 18.2424 9.0501 18.2432 9.0492M15.0436 6.24822C14.9935 6.26936 14.9556 6.30038 14.9239 6.33891M15.0436 6.24822L14.9239 6.33891M14.9239 6.33891C14.8926 6.37703 14.8672 6.42256 14.8419 6.47246M14.9239 6.33891L14.8419 6.47246M14.8419 6.47246C14.8333 6.48958 14.8246 6.50714 14.8158 6.5252M14.8419 6.47246L14.8158 6.5252M19.0587 7.393C19.0696 7.33312 19.0799 7.27671 19.0888 7.2486L19.0587 7.393ZM19.0587 7.393C19.0565 7.40483 19.0543 7.4168 19.0521 7.42871M19.0587 7.393L19.0521 7.42871M19.0871 7.17487C19.0876 7.17823 19.0881 7.18148 19.0886 7.18464M19.0871 7.17487L19.0886 7.18464M19.0886 7.18464C19.0925 7.20855 19.0955 7.22719 19.0888 7.24857L19.0886 7.18464ZM20.5693 6.87618C20.435 6.83946 20.3034 6.8035 20.1675 6.83015L20.5693 6.87618ZM18.0927 8.9464C18.0926 8.94641 18.0925 8.94642 18.0924 8.94643C18.0933 8.94939 18.0938 8.953 18.0932 8.95699C18.0928 8.95933 18.0921 8.96138 18.0912 8.96313C18.0901 8.96547 18.0887 8.96728 18.0875 8.96854C18.0856 8.97065 18.0837 8.97176 18.0829 8.97219L18.0819 8.97271L18.0815 8.97286C18.0815 8.97287 18.0817 8.97279 18.0823 8.97265L18.0844 8.97218L18.0887 8.97157L18.092 8.96342L18.0961 8.95301L18.0927 8.9464ZM18.256 8.9451L18.2557 8.96959C18.2557 8.96959 18.2558 8.96959 18.2558 8.96959L18.256 8.9451ZM18.0779 8.99842C18.0775 8.99573 18.077 8.9933 18.0766 8.99128L18.0526 8.99585L18.0753 9.00497L18.0779 8.99842Z" fill="url(#paint8_linear_893_8287)" stroke="url(#paint9_linear_893_8287)" stroke-width="0.0489915"/>
<path d="M16.3427 9.24825C16.3203 9.24574 16.2931 9.2435 16.2645 9.24147C16.2356 9.23942 16.205 9.23757 16.177 9.23589C16.14 9.23366 16.1076 9.23171 16.0895 9.2299L16.0895 9.2299C16.0192 9.22276 15.9533 9.21468 15.8842 9.20073C15.8488 9.19357 15.8123 9.18645 15.7753 9.17923C15.6807 9.16077 15.5831 9.14172 15.4928 9.1201L15.4928 9.12008C15.4535 9.11056 15.3701 9.08317 15.2908 9.05541C15.2115 9.02767 15.1334 8.99861 15.1047 8.98542L15.1047 8.98541C15.046 8.95835 14.9957 8.91146 14.9522 8.87095C14.9447 8.86397 14.9375 8.85718 14.9304 8.85072C14.9054 8.82796 14.883 8.80915 14.8614 8.79691C14.8402 8.78485 14.8217 8.7803 14.8039 8.78324L14.8039 8.78324C14.7422 8.7933 14.6883 8.81345 14.6539 8.86927L14.6539 8.86928C14.6397 8.89223 14.6295 8.92483 14.6198 8.96192C14.6176 8.97024 14.6155 8.97883 14.6133 8.98751C14.6061 9.01582 14.5988 9.04511 14.5897 9.06961L14.5897 9.06961C14.5685 9.12669 14.5352 9.18129 14.5034 9.23344C14.4943 9.2484 14.4853 9.26316 14.4767 9.27771L14.4767 9.27774C14.4425 9.33579 14.396 9.39114 14.3515 9.44406C14.3469 9.44946 14.3424 9.45485 14.3379 9.46021C14.2888 9.51891 14.244 9.57461 14.2173 9.63145C14.2064 9.65595 14.1968 9.681 14.1886 9.70651V11.0594C14.2489 11.0701 14.3123 11.0833 14.3825 11.1021C14.6675 11.1781 14.8427 11.2188 15.0161 11.2328C15.1894 11.2468 15.3618 11.2344 15.6409 11.2025L15.6794 11.1974C15.6871 11.1774 15.695 11.1488 15.7028 11.1141C15.7122 11.0723 15.7211 11.0237 15.7296 10.9744C15.7331 10.9544 15.7365 10.9342 15.7399 10.9144C15.7528 10.8377 15.765 10.7656 15.7764 10.7269L15.7764 10.7268C15.7843 10.7005 15.7935 10.6757 15.8021 10.6521C15.8055 10.6429 15.8088 10.6338 15.812 10.6249C15.8233 10.5929 15.8329 10.562 15.8382 10.5275C15.8463 10.4744 15.8408 10.4238 15.835 10.3716L16.3427 9.24825ZM16.3427 9.24825C16.3007 9.28294 16.2663 9.32947 16.238 9.37828C16.1988 9.44574 16.1695 9.52046 16.147 9.58115C16.1285 9.63089 16.1122 9.68296 16.096 9.73462C16.0914 9.74923 16.0869 9.7638 16.0823 9.77828C16.0612 9.84444 16.0393 9.9092 16.0117 9.96944L16.0339 9.97961L16.0117 9.96941C15.9901 10.0164 15.9607 10.0522 15.9305 10.0891C15.9189 10.1031 15.9073 10.1173 15.8959 10.1324C15.8553 10.1858 15.8225 10.2458 15.8311 10.3339M16.3427 9.24825L15.8311 10.3339M15.7999 10.7339C15.8076 10.7083 15.8163 10.6845 15.8248 10.6613C15.8403 10.6191 15.8552 10.5785 15.8625 10.5312C15.8711 10.4746 15.8651 10.4201 15.8593 10.3677C15.8579 10.3555 15.8566 10.3435 15.8554 10.3315M15.7999 10.7339L16.034 9.97964C16.0109 10.0298 15.9786 10.0691 15.9477 10.1067C15.8946 10.1715 15.8456 10.2311 15.8554 10.3315M15.7999 10.7339C15.7889 10.771 15.7771 10.8409 15.7642 10.9173M15.7999 10.7339L15.7642 10.9173M15.8554 10.3315L15.8311 10.3339M15.8554 10.3315L15.8311 10.3339L15.8311 10.3339M15.7642 10.9173C15.7445 11.034 15.7222 11.1659 15.6964 11.2198L15.7642 10.9173Z" fill="url(#paint10_linear_893_8287)" stroke="url(#paint11_linear_893_8287)" stroke-width="0.0489915"/>
<rect x="28.0318" y="10.2587" width="7.60562" height="0.35375" fill="url(#paint12_linear_893_8287)" stroke="url(#paint13_linear_893_8287)" stroke-width="0.176875"/>
<rect x="27.9434" y="5.57153" width="7.7825" height="2.47625" rx="1.23812" fill="url(#paint14_linear_893_8287)"/>
<rect x="41.4752" y="10.2587" width="13.2656" height="0.35375" fill="url(#paint15_linear_893_8287)" stroke="url(#paint16_linear_893_8287)" stroke-width="0.176875"/>
<rect x="41.3867" y="5.57153" width="13.4425" height="2.47625" rx="1.23812" fill="url(#paint17_linear_893_8287)"/>
<rect x="60.5767" y="10.2587" width="15.7419" height="0.35375" fill="url(#paint18_linear_893_8287)" stroke="url(#paint19_linear_893_8287)" stroke-width="0.176875"/>
<rect x="60.4883" y="5.57153" width="15.9187" height="2.47625" rx="1.23812" fill="url(#paint20_linear_893_8287)"/>
<rect x="203.76" y="6.36749" width="2.83" height="2.47625" rx="1.23812" fill="url(#paint21_linear_893_8287)"/>
<rect x="208.713" y="5.83685" width="34.3138" height="2.47625" rx="1.23812" fill="url(#paint22_linear_893_8287)"/>
<rect x="252.225" y="6.36749" width="1.23812" height="2.16672" rx="0.619062" fill="url(#paint23_linear_893_8287)"/>
<rect x="252.225" y="6.01373" width="13.7963" height="2.16672" rx="1.08336" fill="url(#paint24_linear_893_8287)"/>
<rect x="264.781" y="6.36749" width="1.23812" height="2.16672" rx="0.619062" fill="url(#paint25_linear_893_8287)"/>
</g>
</g>
<rect x="14.1504" y="33.2525" width="20.3406" height="4.9525" rx="2.47625" fill="url(#paint26_linear_893_8287)"/>
<rect x="14.1504" y="43.6881" width="116.384" height="2.47625" rx="1.23812" fill="url(#paint27_linear_893_8287)"/>
<rect x="14.1504" y="47.2256" width="116.384" height="2.47625" rx="1.23812" fill="url(#paint28_linear_893_8287)"/>
<rect x="14.1504" y="55.7156" width="116.384" height="2.47625" rx="1.23812" fill="url(#paint29_linear_893_8287)"/>
<rect x="14.1504" y="59.2531" width="116.384" height="2.47625" rx="1.23812" fill="url(#paint30_linear_893_8287)"/>
<rect x="14.1504" y="62.7906" width="116.384" height="2.47625" rx="1.23812" fill="url(#paint31_linear_893_8287)"/>
<rect x="14.1504" y="71.6344" width="116.384" height="2.47625" rx="1.23812" fill="url(#paint32_linear_893_8287)"/>
<rect x="14.1504" y="75.1719" width="116.384" height="2.47625" rx="1.23812" fill="url(#paint33_linear_893_8287)"/>
<rect x="14.1504" y="78.7094" width="116.384" height="2.47625" rx="1.23812" fill="url(#paint34_linear_893_8287)"/>
<rect x="14.1504" y="111.785" width="36.4362" height="3.09531" rx="1.54766" fill="url(#paint35_linear_893_8287)"/>
<rect x="14.1504" y="120.452" width="116.384" height="2.47625" rx="1.23812" fill="url(#paint36_linear_893_8287)"/>
<rect x="14.1504" y="123.989" width="116.384" height="2.47625" rx="1.23812" fill="url(#paint37_linear_893_8287)"/>
<rect x="14.1504" y="132.479" width="116.384" height="2.47625" rx="1.23812" fill="url(#paint38_linear_893_8287)"/>
<rect x="14.1504" y="91.7981" width="39.7969" height="4.33344" rx="2.16672" fill="url(#paint39_linear_893_8287)"/>
<rect x="14.334" y="102" width="115" height="4" rx="2" fill="url(#paint40_linear_893_8287)"/>
<rect x="164.578" y="84.9" width="25.47" height="2.16672" rx="1.08336" fill="url(#paint41_linear_893_8287)"/>
<rect x="164.578" y="87.9953" width="25.47" height="2.16672" rx="1.08336" fill="url(#paint42_linear_893_8287)"/>
<rect x="164.578" y="91.0906" width="25.47" height="2.16672" rx="1.08336" fill="url(#paint43_linear_893_8287)"/>
<rect x="164.578" y="94.1859" width="25.47" height="2.16672" rx="1.08336" fill="url(#paint44_linear_893_8287)"/>
<rect x="164.578" y="97.2812" width="25.47" height="2.16672" rx="1.08336" fill="url(#paint45_linear_893_8287)"/>
<rect x="164.578" y="100.377" width="25.47" height="2.16672" rx="1.08336" fill="url(#paint46_linear_893_8287)"/>
<rect x="164.578" y="103.472" width="25.47" height="2.16672" rx="1.08336" fill="url(#paint47_linear_893_8287)"/>
<rect x="160.334" y="53.2394" width="36.4362" height="3.09531" rx="1.54766" fill="url(#paint48_linear_893_8287)"/>
<rect x="160.334" y="61.9062" width="116.384" height="2.47625" rx="1.23812" fill="url(#paint49_linear_893_8287)"/>
<rect x="160.334" y="65.4437" width="116.384" height="2.47625" rx="1.23812" fill="url(#paint50_linear_893_8287)"/>
<rect x="160.334" y="73.9338" width="116.384" height="2.47625" rx="1.23812" fill="url(#paint51_linear_893_8287)"/>
<rect x="160.334" y="33.2525" width="39.7969" height="4.33344" rx="2.16672" fill="url(#paint52_linear_893_8287)"/>
<rect x="160.334" y="42.9807" width="181.12" height="2.47625" rx="1.23812" fill="url(#paint53_linear_893_8287)"/>
<rect x="160.334" y="117.445" width="116.384" height="2.47625" rx="1.23812" fill="url(#paint54_linear_893_8287)"/>
<rect x="160.334" y="120.982" width="116.384" height="2.47625" rx="1.23812" fill="url(#paint55_linear_893_8287)"/>
<rect x="160.334" y="129.472" width="116.384" height="2.47625" rx="1.23812" fill="url(#paint56_linear_893_8287)"/>
<rect x="160.334" y="133.01" width="116.384" height="2.47625" rx="1.23812" fill="url(#paint57_linear_893_8287)"/>
<rect opacity="0.56" x="144.528" y="33.3409" width="1.94562" height="139.378" rx="0.972812" fill="url(#paint58_linear_893_8287)" stroke="url(#paint59_linear_893_8287)" stroke-width="0.176875"/>
</g>
</g>
<defs>
<linearGradient id="paint0_linear_893_8287" x1="21.0433" y1="8.7923" x2="14.1621" y2="8.7923" gradientUnits="userSpaceOnUse">
<stop stop-color="#DBDBDB" stop-opacity="0.05"/>
<stop offset="0.5" stop-color="#DBDBDB"/>
</linearGradient>
<linearGradient id="paint1_linear_893_8287" x1="21.0433" y1="8.7923" x2="14.1621" y2="8.7923" gradientUnits="userSpaceOnUse">
<stop stop-color="#DBDBDB" stop-opacity="0.05"/>
<stop offset="0.5" stop-color="#DBDBDB"/>
</linearGradient>
<linearGradient id="paint2_linear_893_8287" x1="18.2263" y1="9.03695" x2="18.2246" y2="9.03695" gradientUnits="userSpaceOnUse">
<stop stop-color="#DBDBDB" stop-opacity="0.05"/>
<stop offset="0.5" stop-color="#DBDBDB"/>
</linearGradient>
<linearGradient id="paint3_linear_893_8287" x1="18.2263" y1="9.03695" x2="18.2246" y2="9.03695" gradientUnits="userSpaceOnUse">
<stop stop-color="#DBDBDB" stop-opacity="0.05"/>
<stop offset="0.5" stop-color="#DBDBDB"/>
</linearGradient>
<linearGradient id="paint4_linear_893_8287" x1="18.2263" y1="9.03695" x2="18.2246" y2="9.03695" gradientUnits="userSpaceOnUse">
<stop stop-color="#DBDBDB" stop-opacity="0.05"/>
<stop offset="0.5" stop-color="#DBDBDB"/>
</linearGradient>
<linearGradient id="paint5_linear_893_8287" x1="18.2263" y1="9.03695" x2="18.2246" y2="9.03695" gradientUnits="userSpaceOnUse">
<stop stop-color="#DBDBDB" stop-opacity="0.05"/>
<stop offset="0.5" stop-color="#DBDBDB"/>
</linearGradient>
<linearGradient id="paint6_linear_893_8287" x1="18.348" y1="10.2173" x2="15.9336" y2="10.2173" gradientUnits="userSpaceOnUse">
<stop stop-color="#DBDBDB" stop-opacity="0.05"/>
<stop offset="0.5" stop-color="#DBDBDB"/>
</linearGradient>
<linearGradient id="paint7_linear_893_8287" x1="18.348" y1="10.2173" x2="15.9336" y2="10.2173" gradientUnits="userSpaceOnUse">
<stop stop-color="#DBDBDB" stop-opacity="0.05"/>
<stop offset="0.5" stop-color="#DBDBDB"/>
</linearGradient>
<linearGradient id="paint8_linear_893_8287" x1="22.2742" y1="7.84037" x2="14.1641" y2="7.84037" gradientUnits="userSpaceOnUse">
<stop stop-color="#DBDBDB" stop-opacity="0.05"/>
<stop offset="0.5" stop-color="#DBDBDB"/>
</linearGradient>
<linearGradient id="paint9_linear_893_8287" x1="22.2742" y1="7.84037" x2="14.1641" y2="7.84037" gradientUnits="userSpaceOnUse">
<stop stop-color="#DBDBDB" stop-opacity="0.05"/>
<stop offset="0.5" stop-color="#DBDBDB"/>
</linearGradient>
<linearGradient id="paint10_linear_893_8287" x1="16.4043" y1="10.0324" x2="14.1641" y2="10.0324" gradientUnits="userSpaceOnUse">
<stop stop-color="#DBDBDB" stop-opacity="0.05"/>
<stop offset="0.5" stop-color="#DBDBDB"/>
</linearGradient>
<linearGradient id="paint11_linear_893_8287" x1="16.4043" y1="10.0324" x2="14.1641" y2="10.0324" gradientUnits="userSpaceOnUse">
<stop stop-color="#DBDBDB" stop-opacity="0.05"/>
<stop offset="0.5" stop-color="#DBDBDB"/>
</linearGradient>
<linearGradient id="paint12_linear_893_8287" x1="35.7259" y1="10.4403" x2="27.9434" y2="10.4403" gradientUnits="userSpaceOnUse">
<stop stop-color="#DBDBDB" stop-opacity="0.05"/>
<stop offset="0.5" stop-color="#DBDBDB"/>
</linearGradient>
<linearGradient id="paint13_linear_893_8287" x1="35.7259" y1="10.4403" x2="27.9434" y2="10.4403" gradientUnits="userSpaceOnUse">
<stop stop-color="#DBDBDB" stop-opacity="0.05"/>
<stop offset="0.5" stop-color="#DBDBDB"/>
</linearGradient>
<linearGradient id="paint14_linear_893_8287" x1="35.7259" y1="6.83138" x2="27.9434" y2="6.83138" gradientUnits="userSpaceOnUse">
<stop stop-color="#DBDBDB" stop-opacity="0.05"/>
<stop offset="0.5" stop-color="#DBDBDB"/>
</linearGradient>
<linearGradient id="paint15_linear_893_8287" x1="54.8292" y1="10.4403" x2="41.3867" y2="10.4403" gradientUnits="userSpaceOnUse">
<stop stop-color="#DBDBDB" stop-opacity="0.05"/>
<stop offset="0.5" stop-color="#DBDBDB"/>
</linearGradient>
<linearGradient id="paint16_linear_893_8287" x1="54.8292" y1="10.4403" x2="41.3867" y2="10.4403" gradientUnits="userSpaceOnUse">
<stop stop-color="#DBDBDB" stop-opacity="0.05"/>
<stop offset="0.5" stop-color="#DBDBDB"/>
</linearGradient>
<linearGradient id="paint17_linear_893_8287" x1="54.8292" y1="6.83138" x2="41.3867" y2="6.83138" gradientUnits="userSpaceOnUse">
<stop stop-color="#DBDBDB" stop-opacity="0.05"/>
<stop offset="0.5" stop-color="#DBDBDB"/>
</linearGradient>
<linearGradient id="paint18_linear_893_8287" x1="76.407" y1="10.4403" x2="60.4883" y2="10.4403" gradientUnits="userSpaceOnUse">
<stop stop-color="#DBDBDB" stop-opacity="0.05"/>
<stop offset="0.5" stop-color="#DBDBDB"/>
</linearGradient>
<linearGradient id="paint19_linear_893_8287" x1="76.407" y1="10.4403" x2="60.4883" y2="10.4403" gradientUnits="userSpaceOnUse">
<stop stop-color="#DBDBDB" stop-opacity="0.05"/>
<stop offset="0.5" stop-color="#DBDBDB"/>
</linearGradient>
<linearGradient id="paint20_linear_893_8287" x1="76.407" y1="6.83138" x2="60.4883" y2="6.83138" gradientUnits="userSpaceOnUse">
<stop stop-color="#DBDBDB" stop-opacity="0.05"/>
<stop offset="0.5" stop-color="#DBDBDB"/>
</linearGradient>
<linearGradient id="paint21_linear_893_8287" x1="206.59" y1="7.62734" x2="203.76" y2="7.62734" gradientUnits="userSpaceOnUse">
<stop stop-color="#DBDBDB" stop-opacity="0.05"/>
<stop offset="0.5" stop-color="#DBDBDB"/>
</linearGradient>
<linearGradient id="paint22_linear_893_8287" x1="243.027" y1="7.0967" x2="208.713" y2="7.09671" gradientUnits="userSpaceOnUse">
<stop stop-color="#DBDBDB" stop-opacity="0.05"/>
<stop offset="0.5" stop-color="#DBDBDB"/>
</linearGradient>
<linearGradient id="paint23_linear_893_8287" x1="253.463" y1="7.46986" x2="252.225" y2="7.46986" gradientUnits="userSpaceOnUse">
<stop stop-color="#DBDBDB" stop-opacity="0.05"/>
<stop offset="0.5" stop-color="#DBDBDB"/>
</linearGradient>
<linearGradient id="paint24_linear_893_8287" x1="266.021" y1="7.1161" x2="252.225" y2="7.1161" gradientUnits="userSpaceOnUse">
<stop stop-color="#DBDBDB" stop-opacity="0.05"/>
<stop offset="0.5" stop-color="#DBDBDB"/>
</linearGradient>
<linearGradient id="paint25_linear_893_8287" x1="266.019" y1="7.46986" x2="264.781" y2="7.46986" gradientUnits="userSpaceOnUse">
<stop stop-color="#DBDBDB" stop-opacity="0.05"/>
<stop offset="0.5" stop-color="#DBDBDB"/>
</linearGradient>
<linearGradient id="paint26_linear_893_8287" x1="34.491" y1="35.7722" x2="14.1504" y2="35.7722" gradientUnits="userSpaceOnUse">
<stop stop-color="#DBDBDB" stop-opacity="0.05"/>
<stop offset="0.5" stop-color="#DBDBDB"/>
</linearGradient>
<linearGradient id="paint27_linear_893_8287" x1="130.534" y1="44.948" x2="14.1504" y2="44.948" gradientUnits="userSpaceOnUse">
<stop stop-color="#DBDBDB" stop-opacity="0.05"/>
<stop offset="0.5" stop-color="#DBDBDB"/>
</linearGradient>
<linearGradient id="paint28_linear_893_8287" x1="130.534" y1="48.4855" x2="14.1504" y2="48.4856" gradientUnits="userSpaceOnUse">
<stop stop-color="#DBDBDB" stop-opacity="0.05"/>
<stop offset="0.5" stop-color="#DBDBDB"/>
</linearGradient>
<linearGradient id="paint29_linear_893_8287" x1="130.534" y1="56.9755" x2="14.1504" y2="56.9756" gradientUnits="userSpaceOnUse">
<stop stop-color="#DBDBDB" stop-opacity="0.05"/>
<stop offset="0.5" stop-color="#DBDBDB"/>
</linearGradient>
<linearGradient id="paint30_linear_893_8287" x1="130.534" y1="60.513" x2="14.1504" y2="60.513" gradientUnits="userSpaceOnUse">
<stop stop-color="#DBDBDB" stop-opacity="0.05"/>
<stop offset="0.5" stop-color="#DBDBDB"/>
</linearGradient>
<linearGradient id="paint31_linear_893_8287" x1="130.534" y1="64.0505" x2="14.1504" y2="64.0506" gradientUnits="userSpaceOnUse">
<stop stop-color="#DBDBDB" stop-opacity="0.05"/>
<stop offset="0.5" stop-color="#DBDBDB"/>
</linearGradient>
<linearGradient id="paint32_linear_893_8287" x1="130.534" y1="72.8942" x2="14.1504" y2="72.8943" gradientUnits="userSpaceOnUse">
<stop stop-color="#DBDBDB" stop-opacity="0.05"/>
<stop offset="0.5" stop-color="#DBDBDB"/>
</linearGradient>
<linearGradient id="paint33_linear_893_8287" x1="130.534" y1="76.4317" x2="14.1504" y2="76.4318" gradientUnits="userSpaceOnUse">
<stop stop-color="#DBDBDB" stop-opacity="0.05"/>
<stop offset="0.5" stop-color="#DBDBDB"/>
</linearGradient>
<linearGradient id="paint34_linear_893_8287" x1="130.534" y1="79.9692" x2="14.1504" y2="79.9693" gradientUnits="userSpaceOnUse">
<stop stop-color="#DBDBDB" stop-opacity="0.05"/>
<stop offset="0.5" stop-color="#DBDBDB"/>
</linearGradient>
<linearGradient id="paint35_linear_893_8287" x1="50.5866" y1="113.36" x2="14.1504" y2="113.36" gradientUnits="userSpaceOnUse">
<stop stop-color="#DBDBDB" stop-opacity="0.05"/>
<stop offset="0.5" stop-color="#DBDBDB"/>
</linearGradient>
<linearGradient id="paint36_linear_893_8287" x1="130.534" y1="121.712" x2="14.1504" y2="121.712" gradientUnits="userSpaceOnUse">
<stop stop-color="#DBDBDB" stop-opacity="0.05"/>
<stop offset="0.5" stop-color="#DBDBDB"/>
</linearGradient>
<linearGradient id="paint37_linear_893_8287" x1="130.534" y1="125.249" x2="14.1504" y2="125.249" gradientUnits="userSpaceOnUse">
<stop stop-color="#DBDBDB" stop-opacity="0.05"/>
<stop offset="0.5" stop-color="#DBDBDB"/>
</linearGradient>
<linearGradient id="paint38_linear_893_8287" x1="130.534" y1="133.739" x2="14.1504" y2="133.739" gradientUnits="userSpaceOnUse">
<stop stop-color="#DBDBDB" stop-opacity="0.05"/>
<stop offset="0.5" stop-color="#DBDBDB"/>
</linearGradient>
<linearGradient id="paint39_linear_893_8287" x1="53.9473" y1="94.0028" x2="14.1504" y2="94.0028" gradientUnits="userSpaceOnUse">
<stop stop-color="#DBDBDB" stop-opacity="0.05"/>
<stop offset="0.5" stop-color="#DBDBDB"/>
</linearGradient>
<linearGradient id="paint40_linear_893_8287" x1="129.334" y1="104.035" x2="14.334" y2="104.035" gradientUnits="userSpaceOnUse">
<stop stop-color="#DBDBDB" stop-opacity="0.05"/>
<stop offset="0.5" stop-color="#DBDBDB"/>
</linearGradient>
<linearGradient id="paint41_linear_893_8287" x1="190.048" y1="86.0024" x2="164.578" y2="86.0024" gradientUnits="userSpaceOnUse">
<stop stop-color="#DBDBDB" stop-opacity="0.05"/>
<stop offset="0.5" stop-color="#DBDBDB"/>
</linearGradient>
<linearGradient id="paint42_linear_893_8287" x1="190.048" y1="89.0977" x2="164.578" y2="89.0977" gradientUnits="userSpaceOnUse">
<stop stop-color="#DBDBDB" stop-opacity="0.05"/>
<stop offset="0.5" stop-color="#DBDBDB"/>
</linearGradient>
<linearGradient id="paint43_linear_893_8287" x1="190.048" y1="92.193" x2="164.578" y2="92.193" gradientUnits="userSpaceOnUse">
<stop stop-color="#DBDBDB" stop-opacity="0.05"/>
<stop offset="0.5" stop-color="#DBDBDB"/>
</linearGradient>
<linearGradient id="paint44_linear_893_8287" x1="190.048" y1="95.2883" x2="164.578" y2="95.2883" gradientUnits="userSpaceOnUse">
<stop stop-color="#DBDBDB" stop-opacity="0.05"/>
<stop offset="0.5" stop-color="#DBDBDB"/>
</linearGradient>
<linearGradient id="paint45_linear_893_8287" x1="190.048" y1="98.3836" x2="164.578" y2="98.3836" gradientUnits="userSpaceOnUse">
<stop stop-color="#DBDBDB" stop-opacity="0.05"/>
<stop offset="0.5" stop-color="#DBDBDB"/>
</linearGradient>
<linearGradient id="paint46_linear_893_8287" x1="190.048" y1="101.479" x2="164.578" y2="101.479" gradientUnits="userSpaceOnUse">
<stop stop-color="#DBDBDB" stop-opacity="0.05"/>
<stop offset="0.5" stop-color="#DBDBDB"/>
</linearGradient>
<linearGradient id="paint47_linear_893_8287" x1="190.048" y1="104.574" x2="164.578" y2="104.574" gradientUnits="userSpaceOnUse">
<stop stop-color="#DBDBDB" stop-opacity="0.05"/>
<stop offset="0.5" stop-color="#DBDBDB"/>
</linearGradient>
<linearGradient id="paint48_linear_893_8287" x1="196.77" y1="54.8142" x2="160.334" y2="54.8142" gradientUnits="userSpaceOnUse">
<stop stop-color="#DBDBDB" stop-opacity="0.05"/>
<stop offset="0.5" stop-color="#DBDBDB"/>
</linearGradient>
<linearGradient id="paint49_linear_893_8287" x1="276.718" y1="63.1661" x2="160.334" y2="63.1662" gradientUnits="userSpaceOnUse">
<stop stop-color="#DBDBDB" stop-opacity="0.05"/>
<stop offset="0.5" stop-color="#DBDBDB"/>
</linearGradient>
<linearGradient id="paint50_linear_893_8287" x1="276.718" y1="66.7036" x2="160.334" y2="66.7037" gradientUnits="userSpaceOnUse">
<stop stop-color="#DBDBDB" stop-opacity="0.05"/>
<stop offset="0.5" stop-color="#DBDBDB"/>
</linearGradient>
<linearGradient id="paint51_linear_893_8287" x1="276.718" y1="75.1936" x2="160.334" y2="75.1937" gradientUnits="userSpaceOnUse">
<stop stop-color="#DBDBDB" stop-opacity="0.05"/>
<stop offset="0.5" stop-color="#DBDBDB"/>
</linearGradient>
<linearGradient id="paint52_linear_893_8287" x1="200.131" y1="35.4572" x2="160.334" y2="35.4572" gradientUnits="userSpaceOnUse">
<stop stop-color="#DBDBDB" stop-opacity="0.05"/>
<stop offset="0.5" stop-color="#DBDBDB"/>
</linearGradient>
<linearGradient id="paint53_linear_893_8287" x1="341.454" y1="44.2405" x2="160.334" y2="44.2407" gradientUnits="userSpaceOnUse">
<stop stop-color="#DBDBDB" stop-opacity="0.05"/>
<stop offset="0.5" stop-color="#DBDBDB"/>
</linearGradient>
<linearGradient id="paint54_linear_893_8287" x1="276.718" y1="118.705" x2="160.334" y2="118.705" gradientUnits="userSpaceOnUse">
<stop stop-color="#DBDBDB" stop-opacity="0.05"/>
<stop offset="0.5" stop-color="#DBDBDB"/>
</linearGradient>
<linearGradient id="paint55_linear_893_8287" x1="276.718" y1="122.242" x2="160.334" y2="122.242" gradientUnits="userSpaceOnUse">
<stop stop-color="#DBDBDB" stop-opacity="0.05"/>
<stop offset="0.5" stop-color="#DBDBDB"/>
</linearGradient>
<linearGradient id="paint56_linear_893_8287" x1="276.718" y1="130.732" x2="160.334" y2="130.732" gradientUnits="userSpaceOnUse">
<stop stop-color="#DBDBDB" stop-opacity="0.05"/>
<stop offset="0.5" stop-color="#DBDBDB"/>
</linearGradient>
<linearGradient id="paint57_linear_893_8287" x1="276.718" y1="134.27" x2="160.334" y2="134.27" gradientUnits="userSpaceOnUse">
<stop stop-color="#DBDBDB" stop-opacity="0.05"/>
<stop offset="0.5" stop-color="#DBDBDB"/>
</linearGradient>
<linearGradient id="paint58_linear_893_8287" x1="146.562" y1="104.254" x2="144.439" y2="104.254" gradientUnits="userSpaceOnUse">
<stop stop-color="#DBDBDB" stop-opacity="0.05"/>
<stop offset="0.5" stop-color="#DBDBDB"/>
</linearGradient>
<linearGradient id="paint59_linear_893_8287" x1="146.562" y1="104.254" x2="144.439" y2="104.254" gradientUnits="userSpaceOnUse">
<stop stop-color="#DBDBDB" stop-opacity="0.05"/>
<stop offset="0.5" stop-color="#DBDBDB"/>
</linearGradient>
<clipPath id="clip0_893_8287">
<rect width="283" height="135" rx="4.245" fill="white"/>
</clipPath>
<clipPath id="clip1_893_8287">
<rect width="283" height="15.565" fill="white"/>
</clipPath>
<clipPath id="clip2_893_8287">
<rect width="254.7" height="15.565" fill="white" transform="translate(14.1504)"/>
</clipPath>
</defs>
</svg>
