<svg width="283" height="135" viewBox="0 0 283 135" fill="none" xmlns="http://www.w3.org/2000/svg">
<g clip-path="url(#clip0_893_8191)">
<g opacity="0.6">
<g clip-path="url(#clip1_893_8191)">
<rect width="300" height="320.625" rx="4.5" fill="white"/>
<g clip-path="url(#clip2_893_8191)">
<mask id="path-2-inside-1_893_8191" fill="white">
<path d="M19.4845 11.0957C19.4736 11.0217 19.4947 10.9481 19.4724 10.8787C19.4533 10.8182 19.4096 10.8126 19.3809 10.7634C19.3052 10.6342 19.227 10.4669 19.2198 10.3088C19.2132 10.1667 19.161 10.0384 19.1538 9.89759C19.1504 9.82966 19.1584 9.7596 19.156 9.69235C19.1552 9.65995 19.152 9.62766 19.1463 9.59575C19.1447 9.58697 19.1389 9.55082 19.1362 9.53633L19.1538 9.49229C19.146 9.47718 19.3046 9.48222 19.3518 9.48253C19.4321 9.48352 19.5075 9.48767 19.5875 9.49152C19.751 9.49962 19.9 9.49759 20.0592 9.47303C20.414 9.41824 20.5772 9.27334 20.6606 9.21309C20.9864 8.97819 21.1356 8.59414 21.1356 8.59414C21.1894 8.47417 21.1892 8.26015 21.3044 8.16433C21.4402 8.05116 21.6682 8.05932 21.8242 7.98988C21.9154 7.94953 21.9812 7.9273 22.0744 7.94662C22.1436 7.96106 22.2681 8.04119 22.2967 7.9287C22.2736 7.9138 22.2646 7.88653 22.2522 7.87142C22.3807 7.85869 22.2546 7.56054 22.2038 7.50097C22.1253 7.40905 21.9942 7.36693 21.8548 7.32995C21.6893 7.28607 21.5391 7.23543 21.3832 7.26602C21.1109 7.3193 21.1313 7.1635 20.9709 7.1635C20.7783 7.1635 20.4358 7.17295 20.3766 7.36012C20.349 7.44753 20.3206 7.45117 20.2728 7.51821C20.2319 7.57565 20.2799 7.62634 20.2594 7.69188C20.2382 7.75924 20.2071 7.99648 20.1747 8.07926C20.1198 8.21933 20.0543 8.39424 19.9335 8.39424C19.7642 8.4145 19.6311 8.42099 19.4937 8.37113C19.411 8.34111 19.2725 8.29411 19.2039 8.26524C18.8877 8.13213 18.8358 7.98651 18.8358 7.98651C18.8019 7.93042 18.7125 7.84 18.6791 7.722C18.6423 7.59206 18.5802 7.48368 18.5551 7.41606C18.5291 7.346 18.4668 7.23377 18.418 7.11245C18.3554 6.95711 18.2674 6.84119 18.2029 6.78365C18.1044 6.69588 18.0136 6.56002 17.8137 6.59949C17.7779 6.60655 17.6481 6.61242 17.5486 6.69588C17.4811 6.75249 17.4598 6.86929 17.3974 6.96781C17.3613 7.02473 17.2978 7.18801 17.2396 7.32424C17.1992 7.41865 17.1804 7.48944 17.1368 7.52418C17.1027 7.5514 17.0604 7.58656 17.0093 7.56739C16.9775 7.5555 16.9436 7.53535 16.9094 7.5086C16.8632 7.47251 16.7581 7.2937 16.6935 7.16163C16.6376 7.04711 16.5182 6.87589 16.4491 6.78318C16.3497 6.64982 16.2915 6.61601 16.1446 6.61601C15.8295 6.61601 15.8057 6.79243 15.6671 7.04898C15.6062 7.16168 15.584 7.34054 15.4618 7.48072C15.392 7.5609 15.1691 7.89063 15.0141 7.94667V7.94506L15.0137 7.94667V10.2971L15.0141 10.3003V10.2856C15.0241 10.255 15.0348 10.2256 15.0469 10.1993C15.1068 10.0716 15.2459 9.95306 15.3231 9.82192C15.3652 9.75046 15.4131 9.68045 15.4409 9.60546C15.4649 9.54085 15.4767 9.44451 15.5113 9.38848C15.5536 9.31977 15.62 9.2964 15.6881 9.28528C15.7949 9.26768 15.8855 9.4387 16.0221 9.50164C16.0803 9.52839 16.3483 9.62327 16.4287 9.64275C16.5612 9.67443 16.7082 9.70086 16.8427 9.72802C16.9147 9.74257 16.9836 9.75103 17.0578 9.75856C17.1243 9.76521 17.3735 9.77347 17.3889 9.79149C17.2623 9.8561 17.188 10.0375 17.1404 10.1658C17.0908 10.2995 17.0563 10.4484 16.9963 10.5792C16.9299 10.7237 16.7906 10.7839 16.8072 10.9523C16.8136 11.0195 16.8259 11.09 16.8147 11.1639C16.8027 11.2418 16.7712 11.3025 16.7483 11.3788C16.7189 11.4782 16.6839 11.7994 16.6386 11.8938L16.9158 11.8591L16.9162 11.8589C16.9465 11.787 16.9744 11.4831 16.9842 11.4542C17.0361 11.3018 17.1048 11.1764 17.2106 11.0586C17.3137 10.9438 17.3084 10.7957 17.3686 10.662C17.4339 10.5165 17.5216 10.4003 17.6044 10.2636C17.754 10.0164 17.8527 9.70439 18.1708 9.64093C18.2047 9.63392 18.3995 9.77435 18.4859 9.85786C18.5849 9.95301 18.693 10.0632 18.758 10.1944C18.8839 10.4487 18.9907 10.817 19.0311 11.0201C19.0543 11.1367 19.0728 11.1437 19.1517 11.2361C19.188 11.2784 19.2605 11.4107 19.2843 11.4615C19.3093 11.5157 19.3474 11.6391 19.3777 11.7021C19.3956 11.7396 19.4419 11.8548 19.4756 11.9543L19.7346 11.9462C19.7356 11.9484 19.7403 11.9456 19.7414 11.9476C19.7415 11.9476 19.7416 11.9476 19.7417 11.9475C19.7406 11.9455 19.7397 11.9432 19.7387 11.9411C19.6097 11.6821 19.5271 11.3824 19.4845 11.0957V11.0957Z"/>
</mask>
<path d="M19.4845 11.0957C19.4736 11.0217 19.4947 10.9481 19.4724 10.8787C19.4533 10.8182 19.4096 10.8126 19.3809 10.7634C19.3052 10.6342 19.227 10.4669 19.2198 10.3088C19.2132 10.1667 19.161 10.0384 19.1538 9.89759C19.1504 9.82966 19.1584 9.7596 19.156 9.69235C19.1552 9.65995 19.152 9.62766 19.1463 9.59575C19.1447 9.58697 19.1389 9.55082 19.1362 9.53633L19.1538 9.49229C19.146 9.47718 19.3046 9.48222 19.3518 9.48253C19.4321 9.48352 19.5075 9.48767 19.5875 9.49152C19.751 9.49962 19.9 9.49759 20.0592 9.47303C20.414 9.41824 20.5772 9.27334 20.6606 9.21309C20.9864 8.97819 21.1356 8.59414 21.1356 8.59414C21.1894 8.47417 21.1892 8.26015 21.3044 8.16433C21.4402 8.05116 21.6682 8.05932 21.8242 7.98988C21.9154 7.94953 21.9812 7.9273 22.0744 7.94662C22.1436 7.96106 22.2681 8.04119 22.2967 7.9287C22.2736 7.9138 22.2646 7.88653 22.2522 7.87142C22.3807 7.85869 22.2546 7.56054 22.2038 7.50097C22.1253 7.40905 21.9942 7.36693 21.8548 7.32995C21.6893 7.28607 21.5391 7.23543 21.3832 7.26602C21.1109 7.3193 21.1313 7.1635 20.9709 7.1635C20.7783 7.1635 20.4358 7.17295 20.3766 7.36012C20.349 7.44753 20.3206 7.45117 20.2728 7.51821C20.2319 7.57565 20.2799 7.62634 20.2594 7.69188C20.2382 7.75924 20.2071 7.99648 20.1747 8.07926C20.1198 8.21933 20.0543 8.39424 19.9335 8.39424C19.7642 8.4145 19.6311 8.42099 19.4937 8.37113C19.411 8.34111 19.2725 8.29411 19.2039 8.26524C18.8877 8.13213 18.8358 7.98651 18.8358 7.98651C18.8019 7.93042 18.7125 7.84 18.6791 7.722C18.6423 7.59206 18.5802 7.48368 18.5551 7.41606C18.5291 7.346 18.4668 7.23377 18.418 7.11245C18.3554 6.95711 18.2674 6.84119 18.2029 6.78365C18.1044 6.69588 18.0136 6.56002 17.8137 6.59949C17.7779 6.60655 17.6481 6.61242 17.5486 6.69588C17.4811 6.75249 17.4598 6.86929 17.3974 6.96781C17.3613 7.02473 17.2978 7.18801 17.2396 7.32424C17.1992 7.41865 17.1804 7.48944 17.1368 7.52418C17.1027 7.5514 17.0604 7.58656 17.0093 7.56739C16.9775 7.5555 16.9436 7.53535 16.9094 7.5086C16.8632 7.47251 16.7581 7.2937 16.6935 7.16163C16.6376 7.04711 16.5182 6.87589 16.4491 6.78318C16.3497 6.64982 16.2915 6.61601 16.1446 6.61601C15.8295 6.61601 15.8057 6.79243 15.6671 7.04898C15.6062 7.16168 15.584 7.34054 15.4618 7.48072C15.392 7.5609 15.1691 7.89063 15.0141 7.94667V7.94506L15.0137 7.94667V10.2971L15.0141 10.3003V10.2856C15.0241 10.255 15.0348 10.2256 15.0469 10.1993C15.1068 10.0716 15.2459 9.95306 15.3231 9.82192C15.3652 9.75046 15.4131 9.68045 15.4409 9.60546C15.4649 9.54085 15.4767 9.44451 15.5113 9.38848C15.5536 9.31977 15.62 9.2964 15.6881 9.28528C15.7949 9.26768 15.8855 9.4387 16.0221 9.50164C16.0803 9.52839 16.3483 9.62327 16.4287 9.64275C16.5612 9.67443 16.7082 9.70086 16.8427 9.72802C16.9147 9.74257 16.9836 9.75103 17.0578 9.75856C17.1243 9.76521 17.3735 9.77347 17.3889 9.79149C17.2623 9.8561 17.188 10.0375 17.1404 10.1658C17.0908 10.2995 17.0563 10.4484 16.9963 10.5792C16.9299 10.7237 16.7906 10.7839 16.8072 10.9523C16.8136 11.0195 16.8259 11.09 16.8147 11.1639C16.8027 11.2418 16.7712 11.3025 16.7483 11.3788C16.7189 11.4782 16.6839 11.7994 16.6386 11.8938L16.9158 11.8591L16.9162 11.8589C16.9465 11.787 16.9744 11.4831 16.9842 11.4542C17.0361 11.3018 17.1048 11.1764 17.2106 11.0586C17.3137 10.9438 17.3084 10.7957 17.3686 10.662C17.4339 10.5165 17.5216 10.4003 17.6044 10.2636C17.754 10.0164 17.8527 9.70439 18.1708 9.64093C18.2047 9.63392 18.3995 9.77435 18.4859 9.85786C18.5849 9.95301 18.693 10.0632 18.758 10.1944C18.8839 10.4487 18.9907 10.817 19.0311 11.0201C19.0543 11.1367 19.0728 11.1437 19.1517 11.2361C19.188 11.2784 19.2605 11.4107 19.2843 11.4615C19.3093 11.5157 19.3474 11.6391 19.3777 11.7021C19.3956 11.7396 19.4419 11.8548 19.4756 11.9543L19.7346 11.9462C19.7356 11.9484 19.7403 11.9456 19.7414 11.9476C19.7415 11.9476 19.7416 11.9476 19.7417 11.9475C19.7406 11.9455 19.7397 11.9432 19.7387 11.9411C19.6097 11.6821 19.5271 11.3824 19.4845 11.0957V11.0957Z" fill="url(#paint0_linear_893_8191)"/>
<path d="M19.4724 10.8787L19.4229 10.8943L19.423 10.8946L19.4724 10.8787ZM19.3809 10.7634L19.4258 10.7372L19.4257 10.7371L19.3809 10.7634ZM19.2198 10.3088L19.2717 10.3064L19.2717 10.3063L19.2198 10.3088ZM19.1538 9.89759L19.102 9.90021L19.102 9.90021L19.1538 9.89759ZM19.156 9.69235L19.104 9.6936L19.1041 9.69423L19.156 9.69235ZM19.1463 9.59575L19.1974 9.58669L19.1974 9.58638L19.1463 9.59575ZM19.1362 9.53633L19.088 9.51701L19.0824 9.53101L19.0851 9.54585L19.1362 9.53633ZM19.1538 9.49229L19.202 9.51162L19.2109 9.48959L19.2 9.4685L19.1538 9.49229ZM19.3518 9.48253L19.3525 9.4306L19.3522 9.4306L19.3518 9.48253ZM19.5875 9.49152L19.5901 9.43964L19.59 9.43964L19.5875 9.49152ZM20.0592 9.47303L20.0671 9.52435L20.0671 9.52435L20.0592 9.47303ZM20.6606 9.21309L20.6302 9.17097L20.6302 9.17098L20.6606 9.21309ZM21.1356 8.59414L21.0882 8.57288L21.0872 8.57533L21.1356 8.59414ZM21.3044 8.16433L21.3376 8.20426L21.3376 8.20423L21.3044 8.16433ZM21.8242 7.98988L21.8031 7.94239L21.803 7.94244L21.8242 7.98988ZM22.0744 7.94662L22.085 7.89578L22.0849 7.89577L22.0744 7.94662ZM22.2967 7.9287L22.347 7.94151L22.3562 7.9053L22.3249 7.88506L22.2967 7.9287ZM22.2522 7.87142L22.2471 7.81974L22.1506 7.82928L22.212 7.9043L22.2522 7.87142ZM22.2038 7.50097L22.2433 7.46725L22.2433 7.46724L22.2038 7.50097ZM21.8548 7.32995L21.8682 7.27975L21.8682 7.27975L21.8548 7.32995ZM21.3832 7.26602L21.3932 7.31699L21.3932 7.31698L21.3832 7.26602ZM20.3766 7.36012L20.3271 7.34446L20.3271 7.3445L20.3766 7.36012ZM20.2728 7.51821L20.2305 7.48807L20.2305 7.4881L20.2728 7.51821ZM20.2594 7.69188L20.309 7.70747L20.309 7.70739L20.2594 7.69188ZM20.1747 8.07926L20.1263 8.0603L20.1263 8.06031L20.1747 8.07926ZM19.9335 8.39424V8.34194L19.9274 8.34268L19.9335 8.39424ZM19.4937 8.37113L19.476 8.41995L19.476 8.41995L19.4937 8.37113ZM19.2039 8.26524L19.2241 8.21738L19.2241 8.21737L19.2039 8.26524ZM18.8358 7.98651L18.8857 7.9687L18.8802 7.95963L18.8358 7.98651ZM18.6791 7.722L18.6291 7.73614L18.6291 7.73617L18.6791 7.722ZM18.5551 7.41606L18.5064 7.43414L18.5064 7.43415L18.5551 7.41606ZM18.418 7.11245L18.4662 7.09304L18.4662 7.09304L18.418 7.11245ZM18.2029 6.78365L18.2375 6.74491L18.2375 6.74488L18.2029 6.78365ZM17.8137 6.59949L17.8036 6.54854L17.8036 6.54854L17.8137 6.59949ZM17.5486 6.69588L17.5152 6.65609L17.5152 6.6561L17.5486 6.69588ZM17.3974 6.96781L17.3535 6.94L17.3535 6.94L17.3974 6.96781ZM17.2396 7.32424L17.2873 7.34465L17.2873 7.34465L17.2396 7.32424ZM17.1368 7.52418L17.1045 7.48356L17.1044 7.48358L17.1368 7.52418ZM17.0093 7.56739L16.991 7.61603L16.991 7.61603L17.0093 7.56739ZM16.9094 7.5086L16.9414 7.46768L16.9413 7.46767L16.9094 7.5086ZM16.6935 7.16163L16.6469 7.18442L16.6469 7.18444L16.6935 7.16163ZM16.4491 6.78318L16.4908 6.75215L16.4908 6.75215L16.4491 6.78318ZM15.6671 7.04898L15.6214 7.0243L15.6214 7.0243L15.6671 7.04898ZM15.4618 7.48072L15.4227 7.44659L15.4227 7.4466L15.4618 7.48072ZM15.0141 7.94667H14.9622V8.02068L15.0317 7.99551L15.0141 7.94667ZM15.0141 7.94506H15.066L14.9638 7.93208L15.0141 7.94506ZM15.0137 7.94667L14.9617 7.93327V7.94667H15.0137ZM15.0137 10.2971H14.9613L14.9622 10.3036L15.0137 10.2971ZM15.0141 10.3003L14.9626 10.3069L15.066 10.3003H15.0141ZM15.0141 10.2856L14.9647 10.2694L14.9622 10.2773V10.2856H15.0141ZM15.0469 10.1993L14.9998 10.1772L14.9997 10.1776L15.0469 10.1993ZM15.3231 9.82192L15.3679 9.84829L15.3679 9.84824L15.3231 9.82192ZM15.4409 9.60546L15.4896 9.62353L15.4896 9.62351L15.4409 9.60546ZM15.5113 9.38848L15.5555 9.41576L15.5555 9.41574L15.5113 9.38848ZM15.6881 9.28528L15.6965 9.33654L15.6966 9.33653L15.6881 9.28528ZM16.0221 9.50164L16.0003 9.54881L16.0004 9.54883L16.0221 9.50164ZM16.4287 9.64275L16.4165 9.69323L16.4167 9.69326L16.4287 9.64275ZM16.8427 9.72802L16.8324 9.77893L16.8324 9.77893L16.8427 9.72802ZM17.0578 9.75856L17.0525 9.81023L17.0526 9.81024L17.0578 9.75856ZM17.3889 9.79149L17.4125 9.83775L17.4713 9.8078L17.4284 9.75772L17.3889 9.79149ZM17.1404 10.1658L17.1891 10.1838L17.1891 10.1838L17.1404 10.1658ZM16.9963 10.5792L17.0435 10.6009L17.0435 10.6008L16.9963 10.5792ZM16.8072 10.9523L16.8589 10.9474L16.8589 10.9472L16.8072 10.9523ZM16.8147 11.1639L16.866 11.1718L16.866 11.1717L16.8147 11.1639ZM16.7483 11.3788L16.6986 11.3638L16.6985 11.364L16.7483 11.3788ZM16.6386 11.8938L16.5918 11.8714L16.5506 11.9572L16.6451 11.9454L16.6386 11.8938ZM16.9158 11.8591L16.9224 11.9116L16.9322 11.9084L16.9158 11.8591ZM16.9162 11.8589L16.9326 11.9082L16.955 11.9008L16.9641 11.8791L16.9162 11.8589ZM16.9842 11.4542L16.9351 11.4374L16.935 11.4375L16.9842 11.4542ZM17.2106 11.0586L17.172 11.0239L17.172 11.0239L17.2106 11.0586ZM17.3686 10.662L17.416 10.6833L17.416 10.6832L17.3686 10.662ZM17.6044 10.2636L17.6488 10.2905L17.6488 10.2905L17.6044 10.2636ZM18.1708 9.64093L18.1809 9.69186L18.1813 9.69179L18.1708 9.64093ZM18.4859 9.85786L18.4498 9.89521L18.4499 9.8953L18.4859 9.85786ZM18.758 10.1944L18.8046 10.1714L18.8046 10.1713L18.758 10.1944ZM19.0311 11.0201L18.9802 11.0302L18.9802 11.0302L19.0311 11.0201ZM19.1517 11.2361L19.1122 11.2698L19.1123 11.2699L19.1517 11.2361ZM19.2843 11.4615L19.3314 11.4397L19.3313 11.4394L19.2843 11.4615ZM19.3777 11.7021L19.4246 11.6798L19.4245 11.6796L19.3777 11.7021ZM19.4756 11.9543L19.4264 11.971L19.4388 12.0074L19.4772 12.0062L19.4756 11.9543ZM19.7346 11.9462L19.7824 11.9257L19.7684 11.8932L19.733 11.8943L19.7346 11.9462ZM19.7414 11.9476L19.6956 11.9722L19.7118 12.0023L19.7458 11.9993L19.7414 11.9476ZM19.7417 11.9475L19.7653 11.9938L19.8132 11.9694L19.7872 11.9224L19.7417 11.9475ZM19.7387 11.9411L19.7863 11.9202L19.7852 11.9179L19.7387 11.9411ZM19.5358 11.0881C19.5313 11.057 19.5334 11.0263 19.5346 10.9871C19.5358 10.9503 19.5359 10.9067 19.5219 10.8629L19.423 10.8946C19.4311 10.9201 19.4319 10.948 19.4308 10.9839C19.4298 11.0173 19.4268 11.0604 19.4331 11.1032L19.5358 11.0881ZM19.5219 10.8631C19.5084 10.8202 19.4851 10.7961 19.4649 10.7781C19.4449 10.7602 19.4349 10.7529 19.4258 10.7372L19.336 10.7896C19.3556 10.8231 19.3819 10.8432 19.3957 10.8555C19.4093 10.8677 19.4173 10.8767 19.4229 10.8943L19.5219 10.8631ZM19.4257 10.7371C19.351 10.6096 19.2783 10.4514 19.2717 10.3064L19.1679 10.3111C19.1757 10.4824 19.2595 10.6589 19.3361 10.7896L19.4257 10.7371ZM19.2717 10.3063C19.2681 10.2302 19.2524 10.1585 19.2377 10.0916C19.2228 10.0234 19.209 9.96036 19.2057 9.89497L19.102 9.90021C19.1058 9.97562 19.1217 10.0471 19.1363 10.1138C19.1512 10.1818 19.1649 10.2452 19.1679 10.3112L19.2717 10.3063ZM19.2057 9.89497C19.2041 9.86359 19.2052 9.83125 19.2064 9.79662C19.2077 9.76276 19.2092 9.72637 19.2079 9.69046L19.1041 9.69423C19.1052 9.72557 19.1039 9.75785 19.1026 9.79281C19.1014 9.827 19.1001 9.86366 19.102 9.90021L19.2057 9.89497ZM19.2079 9.69109C19.207 9.65608 19.2036 9.62118 19.1974 9.58669L19.0952 9.6048C19.1004 9.63413 19.1033 9.66382 19.104 9.6936L19.2079 9.69109ZM19.1974 9.58638C19.1967 9.58253 19.1949 9.572 19.1929 9.55964C19.1909 9.54787 19.1887 9.53466 19.1872 9.52682L19.0851 9.54585C19.0864 9.5525 19.0884 9.56461 19.0904 9.57673C19.0923 9.58825 19.0943 9.60019 19.0952 9.60512L19.1974 9.58638ZM19.1844 9.55566L19.202 9.51162L19.1056 9.47297L19.088 9.51701L19.1844 9.55566ZM19.2 9.4685C19.204 9.47618 19.2069 9.48705 19.2048 9.49954C19.2028 9.51163 19.1969 9.52018 19.1921 9.52523C19.1841 9.53377 19.1757 9.53642 19.1756 9.53646C19.1733 9.53727 19.174 9.53671 19.1807 9.53595C19.1925 9.53462 19.2108 9.53385 19.2329 9.53356C19.2769 9.53297 19.3261 9.5343 19.3515 9.53446L19.3522 9.4306C19.3303 9.43045 19.2766 9.4291 19.2315 9.4297C19.209 9.43 19.1862 9.43079 19.169 9.43275C19.1612 9.43363 19.1504 9.43516 19.1408 9.43859C19.137 9.43994 19.1259 9.44402 19.1164 9.45415C19.1109 9.45999 19.1045 9.46937 19.1024 9.48233C19.1001 9.49568 19.1032 9.50746 19.1077 9.51609L19.2 9.4685ZM19.3512 9.53446C19.4302 9.53543 19.5045 9.53952 19.5851 9.54339L19.59 9.43964C19.5105 9.43582 19.4339 9.4316 19.3525 9.4306L19.3512 9.53446ZM19.585 9.54339C19.7505 9.55159 19.9033 9.54963 20.0671 9.52435L20.0513 9.4217C19.8967 9.44555 19.7515 9.44764 19.5901 9.43964L19.585 9.54339ZM20.0671 9.52435C20.4355 9.46746 20.6077 9.31536 20.691 9.2552L20.6302 9.17098C20.5466 9.23132 20.3925 9.36901 20.0513 9.4217L20.0671 9.52435ZM20.691 9.25522C20.8613 9.13241 20.9843 8.97162 21.0644 8.84297C21.1045 8.77842 21.1343 8.72138 21.154 8.68032C21.1639 8.65978 21.1713 8.6432 21.1763 8.63163C21.1788 8.62584 21.1806 8.6213 21.1819 8.61815C21.1826 8.61657 21.1831 8.61534 21.1834 8.61446C21.1836 8.61403 21.1837 8.61368 21.1838 8.61343C21.1839 8.6133 21.1839 8.6132 21.1839 8.61312C21.184 8.61308 21.184 8.61304 21.184 8.61301C21.184 8.613 21.184 8.61298 21.184 8.61298C21.184 8.61296 21.184 8.61295 21.1356 8.59414C21.0872 8.57533 21.0872 8.57532 21.0872 8.57531C21.0872 8.57531 21.0872 8.5753 21.0872 8.5753C21.0872 8.57529 21.0872 8.57529 21.0872 8.5753C21.0872 8.57531 21.0872 8.57535 21.0872 8.57541C21.0871 8.57553 21.087 8.57573 21.0869 8.57603C21.0867 8.57663 21.0863 8.57758 21.0858 8.57887C21.0847 8.58146 21.0831 8.5854 21.0809 8.59057C21.0764 8.60092 21.0696 8.61618 21.0604 8.63531C21.042 8.67361 21.014 8.72726 20.9762 8.78809C20.9002 8.91019 20.7857 9.05888 20.6302 9.17097L20.691 9.25522ZM21.183 8.61537C21.1985 8.58079 21.2095 8.54101 21.2189 8.50211C21.2289 8.46105 21.2367 8.42348 21.2472 8.38333C21.2681 8.30349 21.2937 8.24076 21.3376 8.20426L21.2712 8.1244C21.1998 8.18371 21.1679 8.27591 21.1467 8.35702C21.1361 8.39736 21.1267 8.44178 21.118 8.47758C21.1088 8.51554 21.0996 8.54751 21.0882 8.5729L21.183 8.61537ZM21.3376 8.20423C21.395 8.15643 21.4747 8.13215 21.568 8.1114C21.6565 8.09172 21.761 8.07484 21.8453 8.03732L21.803 7.94244C21.7314 7.97436 21.6439 7.98812 21.5455 8.01001C21.4518 8.03084 21.3496 8.05907 21.2711 8.12443L21.3376 8.20423ZM21.8452 8.03737C21.934 7.99808 21.9871 7.98158 22.0638 7.99747L22.0849 7.89577C21.9752 7.87302 21.8967 7.90098 21.8031 7.94239L21.8452 8.03737ZM22.0638 7.99746C22.0766 8.00015 22.0931 8.00619 22.1168 8.01465C22.1384 8.02233 22.1651 8.03163 22.1916 8.03638C22.2175 8.04103 22.2509 8.04284 22.2822 8.02778C22.3161 8.01141 22.3371 7.98045 22.347 7.94151L22.2464 7.9159C22.2441 7.92497 22.2414 7.92956 22.2399 7.93161C22.2386 7.93338 22.2377 7.93388 22.2371 7.9342C22.2348 7.9353 22.2273 7.93727 22.2099 7.93414C22.193 7.93111 22.1739 7.9247 22.1517 7.91681C22.1318 7.9097 22.1067 7.90031 22.085 7.89578L22.0638 7.99746ZM22.3249 7.88506C22.3228 7.8837 22.3196 7.88071 22.3143 7.87235C22.3114 7.86772 22.3094 7.86426 22.3057 7.85794C22.3025 7.85274 22.298 7.84543 22.2924 7.83854L22.212 7.9043C22.2125 7.90496 22.2138 7.90673 22.2166 7.91136C22.2187 7.91487 22.2228 7.92199 22.2265 7.92792C22.2346 7.94071 22.2475 7.9588 22.2686 7.97235L22.3249 7.88506ZM22.2573 7.9231C22.2845 7.92041 22.3089 7.90942 22.3273 7.88951C22.3448 7.8705 22.3533 7.84725 22.3571 7.82565C22.3646 7.78374 22.357 7.73459 22.3455 7.69065C22.3337 7.64528 22.316 7.59908 22.298 7.56032C22.2806 7.52278 22.2608 7.4877 22.2433 7.46725L22.1643 7.53469C22.1723 7.54402 22.1873 7.56855 22.2038 7.60407C22.2197 7.63836 22.235 7.67866 22.245 7.71688C22.2554 7.75651 22.2583 7.78801 22.2549 7.80744C22.2541 7.81182 22.2531 7.81479 22.2523 7.81667C22.2519 7.81759 22.2515 7.81819 22.2513 7.81856C22.2511 7.81892 22.2509 7.81906 22.2509 7.81907C22.2509 7.81907 22.251 7.81901 22.2511 7.81893C22.2512 7.81885 22.2513 7.81883 22.2512 7.81887C22.2511 7.81892 22.2499 7.81946 22.2471 7.81974L22.2573 7.9231ZM22.2433 7.46724C22.1527 7.36122 22.0054 7.31616 21.8682 7.27975L21.8415 7.38015C21.9831 7.4177 22.0978 7.45687 22.1643 7.5347L22.2433 7.46724ZM21.8682 7.27975C21.7085 7.23744 21.5438 7.18157 21.3732 7.21506L21.3932 7.31698C21.5343 7.28928 21.67 7.33469 21.8415 7.38015L21.8682 7.27975ZM21.3732 7.21505C21.3096 7.22751 21.2666 7.22703 21.2358 7.22139C21.2058 7.21589 21.1843 7.20496 21.1637 7.19138C21.1236 7.16496 21.0711 7.11157 20.9709 7.11157V7.21543C21.0311 7.21543 21.0486 7.23994 21.1065 7.2781C21.1349 7.29681 21.1694 7.31484 21.2171 7.32357C21.2641 7.33216 21.3207 7.33117 21.3932 7.31699L21.3732 7.21505ZM20.9709 7.11157C20.8746 7.11157 20.7358 7.1138 20.6126 7.1409C20.4936 7.16707 20.3659 7.2216 20.3271 7.34446L20.4261 7.37579C20.4464 7.31148 20.5196 7.26769 20.6349 7.24234C20.7459 7.21792 20.8746 7.21543 20.9709 7.21543V7.11157ZM20.3271 7.3445C20.3151 7.38232 20.3042 7.39914 20.2921 7.41394C20.2812 7.42727 20.2549 7.45387 20.2305 7.48807L20.3151 7.54835C20.3385 7.51551 20.3503 7.50676 20.3725 7.47967C20.3934 7.45403 20.4105 7.42533 20.4261 7.37575L20.3271 7.3445ZM20.2305 7.4881C20.1978 7.53405 20.2023 7.57866 20.2072 7.60992C20.2123 7.64297 20.2157 7.6578 20.2099 7.67637L20.309 7.70739C20.3237 7.66043 20.3134 7.61714 20.3098 7.5941C20.306 7.56927 20.307 7.55982 20.3151 7.54832L20.2305 7.4881ZM20.2099 7.6763C20.198 7.71395 20.1841 7.79529 20.1702 7.87031C20.1554 7.95038 20.1403 8.02461 20.1263 8.0603L20.223 8.09822C20.2415 8.05113 20.2582 7.96535 20.2723 7.88926C20.2874 7.80813 20.2996 7.73717 20.309 7.70747L20.2099 7.6763ZM20.1263 8.06031C20.0982 8.13197 20.07 8.2055 20.0348 8.26173C19.9986 8.31948 19.9656 8.34231 19.9335 8.34231V8.44618C20.0223 8.44618 20.0823 8.38155 20.1228 8.31683C20.1643 8.25058 20.1962 8.16662 20.223 8.09821L20.1263 8.06031ZM19.9274 8.34268C19.7589 8.36282 19.6365 8.3677 19.5114 8.32231L19.476 8.41995C19.6257 8.47428 19.7694 8.46618 19.9397 8.44581L19.9274 8.34268ZM19.5114 8.32232C19.4264 8.29143 19.291 8.24559 19.2241 8.21738L19.1837 8.3131C19.2539 8.34264 19.3957 8.3908 19.476 8.41995L19.5114 8.32232ZM19.2241 8.21737C19.0713 8.15307 18.9852 8.08696 18.9382 8.03942C18.9146 8.01562 18.9007 7.9963 18.8929 7.98386C18.889 7.97763 18.8867 7.97309 18.8855 7.97054C18.8848 7.96926 18.8845 7.96847 18.8844 7.96821C18.8843 7.96808 18.8843 7.96809 18.8844 7.96823C18.8844 7.9683 18.8845 7.9684 18.8845 7.96854C18.8845 7.96861 18.8846 7.96869 18.8846 7.96877C18.8846 7.96882 18.8846 7.96886 18.8847 7.96891C18.8847 7.96893 18.8847 7.96897 18.8847 7.96898C18.8847 7.96902 18.8847 7.96906 18.8358 7.98651C18.7869 8.00395 18.7869 8.00399 18.7869 8.00403C18.7869 8.00405 18.7869 8.00409 18.7869 8.00411C18.787 8.00417 18.787 8.00423 18.787 8.00429C18.787 8.00441 18.7871 8.00454 18.7871 8.00468C18.7872 8.00496 18.7874 8.00528 18.7875 8.00563C18.7878 8.00633 18.7881 8.00716 18.7885 8.00813C18.7893 8.01008 18.7904 8.01255 18.7918 8.01551C18.7947 8.02144 18.7989 8.02931 18.8048 8.03882C18.8166 8.05785 18.8354 8.08324 18.8644 8.11249C18.9223 8.17104 19.0203 8.2443 19.1838 8.3131L19.2241 8.21737ZM18.8802 7.95963C18.8702 7.943 18.8566 7.92475 18.8432 7.90693C18.8293 7.88838 18.8146 7.86906 18.7999 7.84787C18.7705 7.8055 18.7435 7.75885 18.729 7.70784L18.6291 7.73617C18.6481 7.80315 18.6824 7.86071 18.7146 7.90706C18.7306 7.93024 18.7467 7.95142 18.7602 7.96929C18.7741 7.98788 18.7845 8.00197 18.7913 8.01338L18.8802 7.95963ZM18.729 7.70786C18.7096 7.63933 18.6837 7.57709 18.6601 7.52439C18.6355 7.46957 18.6156 7.42967 18.6038 7.39796L18.5064 7.43415C18.5198 7.47006 18.5434 7.51817 18.5653 7.56693C18.5882 7.61781 18.6117 7.67474 18.6291 7.73614L18.729 7.70786ZM18.6038 7.39798C18.5897 7.36015 18.5663 7.31191 18.5419 7.26103C18.517 7.20899 18.4899 7.15198 18.4662 7.09304L18.3698 7.13185C18.3949 7.19424 18.4234 7.254 18.4483 7.30592C18.4737 7.359 18.4944 7.40191 18.5064 7.43414L18.6038 7.39798ZM18.4662 7.09304C18.401 6.93127 18.3086 6.80842 18.2375 6.74491L18.1683 6.82239C18.2261 6.87397 18.3098 6.98295 18.3698 7.13186L18.4662 7.09304ZM18.2375 6.74488C18.151 6.66784 18.0356 6.50273 17.8036 6.54854L17.8237 6.65044C17.9915 6.61731 18.0579 6.72392 18.1684 6.82242L18.2375 6.74488ZM17.8036 6.54854C17.7778 6.55364 17.628 6.56152 17.5152 6.65609L17.582 6.73567C17.6682 6.66333 17.778 6.65947 17.8237 6.65044L17.8036 6.54854ZM17.5152 6.6561C17.4712 6.69301 17.445 6.74694 17.4236 6.79506C17.4008 6.84663 17.3821 6.89498 17.3535 6.94L17.4412 6.99562C17.4751 6.94212 17.4983 6.88281 17.5186 6.8372C17.5404 6.78814 17.5585 6.75536 17.582 6.73567L17.5152 6.6561ZM17.3535 6.94C17.3327 6.97275 17.3062 7.03207 17.279 7.09594C17.2495 7.1652 17.2223 7.23259 17.1918 7.30383L17.2873 7.34465C17.3151 7.27966 17.3487 7.1973 17.3746 7.13663C17.4027 7.07057 17.4259 7.01979 17.4412 6.99562L17.3535 6.94ZM17.1918 7.30383C17.1814 7.32817 17.1724 7.35094 17.1644 7.37127C17.1562 7.3919 17.1491 7.40962 17.142 7.42531C17.1275 7.45761 17.1161 7.4743 17.1045 7.48356L17.1692 7.56481C17.2012 7.53933 17.2209 7.50325 17.2368 7.46786C17.2449 7.44972 17.2529 7.42986 17.2609 7.40958C17.2691 7.38899 17.2776 7.36752 17.2873 7.34465L17.1918 7.30383ZM17.1044 7.48358C17.086 7.49831 17.072 7.50939 17.0577 7.51603C17.0454 7.5217 17.0367 7.52222 17.0275 7.51876L16.991 7.61603C17.0329 7.63173 17.071 7.62426 17.1012 7.61034C17.1293 7.59738 17.1535 7.57727 17.1692 7.56479L17.1044 7.48358ZM17.0275 7.51876C17.002 7.50923 16.9727 7.4922 16.9414 7.46768L16.8774 7.54953C16.9145 7.5785 16.953 7.60177 16.991 7.61603L17.0275 7.51876ZM16.9413 7.46767C16.9361 7.46356 16.9245 7.45099 16.9073 7.42722C16.891 7.40483 16.8723 7.37623 16.8527 7.34405C16.8134 7.27974 16.7718 7.20344 16.7402 7.13882L16.6469 7.18444C16.6799 7.25189 16.723 7.33103 16.764 7.39816C16.7845 7.43171 16.8048 7.46284 16.8232 7.48825C16.8407 7.51228 16.8596 7.5356 16.8774 7.54954L16.9413 7.46767ZM16.7402 7.13884C16.682 7.01956 16.5599 6.84494 16.4908 6.75215L16.4075 6.81421C16.4765 6.90683 16.5933 7.07467 16.6469 7.18442L16.7402 7.13884ZM16.4908 6.75215C16.4402 6.68429 16.3953 6.6349 16.3398 6.60415C16.2832 6.57279 16.2216 6.56407 16.1446 6.56407V6.66794C16.2145 6.66794 16.2554 6.67613 16.2895 6.69501C16.3247 6.71451 16.3587 6.74871 16.4075 6.81422L16.4908 6.75215ZM16.1446 6.56407C16.0612 6.56407 15.9933 6.57573 15.9364 6.59973C15.8788 6.624 15.8354 6.65968 15.7995 6.70329C15.7644 6.74603 15.7365 6.79644 15.7095 6.84963C15.6818 6.90444 15.6557 6.96076 15.6214 7.0243L15.7128 7.07367C15.7477 7.00893 15.7766 6.94699 15.8022 6.89656C15.8285 6.84451 15.8523 6.80272 15.8798 6.76928C15.9065 6.73672 15.9368 6.71226 15.9767 6.69543C16.0173 6.67834 16.0705 6.66794 16.1446 6.66794V6.56407ZM15.6214 7.0243C15.5887 7.08484 15.565 7.16602 15.5388 7.23642C15.5111 7.31067 15.4776 7.38353 15.4227 7.44659L15.501 7.51484C15.5682 7.43773 15.6069 7.35107 15.6361 7.27267C15.6667 7.19042 15.6846 7.12583 15.7128 7.07366L15.6214 7.0243ZM15.4227 7.4466C15.4038 7.46821 15.3753 7.5058 15.343 7.5478C15.31 7.59077 15.2713 7.64048 15.2302 7.68928C15.1889 7.7382 15.146 7.78528 15.1045 7.82318C15.0622 7.8619 15.0253 7.88737 14.9964 7.89783L15.0317 7.99551C15.0803 7.97795 15.1294 7.94119 15.1747 7.89982C15.2208 7.85763 15.267 7.80676 15.3096 7.75622C15.3523 7.70556 15.3921 7.6543 15.4253 7.61114C15.4593 7.56701 15.4849 7.53332 15.501 7.51483L15.4227 7.4466ZM15.066 7.94667V7.94506H14.9622V7.94667H15.066ZM14.9638 7.93208L14.9634 7.93369L15.064 7.95965L15.0644 7.95804L14.9638 7.93208ZM14.9617 7.94667V10.2971H15.0656V7.94667H14.9617ZM14.9622 10.3036L14.9626 10.3069L15.0656 10.2938L15.0652 10.2905L14.9622 10.3036ZM15.066 10.3003V10.2856H14.9622V10.3003H15.066ZM15.0634 10.3017C15.0732 10.2719 15.0831 10.2446 15.094 10.221L14.9997 10.1776C14.9864 10.2065 14.975 10.238 14.9647 10.2694L15.0634 10.3017ZM15.0939 10.2213C15.1205 10.1645 15.1658 10.1079 15.2183 10.0452C15.269 9.98472 15.3265 9.91845 15.3679 9.84829L15.2784 9.79555C15.2425 9.85653 15.1918 9.91509 15.1387 9.97854C15.0873 10.0399 15.0331 10.1063 14.9998 10.1772L15.0939 10.2213ZM15.3679 9.84824C15.4073 9.78123 15.4597 9.70424 15.4896 9.62353L15.3922 9.58739C15.3665 9.65667 15.323 9.71969 15.2784 9.7956L15.3679 9.84824ZM15.4896 9.62351C15.5028 9.588 15.5129 9.54301 15.5223 9.50692C15.5327 9.46743 15.5427 9.43639 15.5555 9.41576L15.4671 9.3612C15.4452 9.39661 15.432 9.44175 15.4219 9.48059C15.4108 9.52283 15.403 9.55831 15.3922 9.58741L15.4896 9.62351ZM15.5555 9.41574C15.5861 9.36611 15.634 9.34674 15.6965 9.33654L15.6798 9.23403C15.606 9.24605 15.5212 9.27343 15.4671 9.36121L15.5555 9.41574ZM15.6966 9.33653C15.7076 9.33471 15.7211 9.33696 15.7405 9.34799C15.7607 9.35941 15.7826 9.37758 15.8089 9.40162C15.8581 9.44648 15.9227 9.51301 16.0003 9.54881L16.0438 9.45448C15.9849 9.42733 15.9359 9.37688 15.8789 9.32489C15.8522 9.30051 15.8229 9.27529 15.7918 9.25763C15.7599 9.23958 15.722 9.22705 15.6797 9.23404L15.6966 9.33653ZM16.0004 9.54883C16.0321 9.56342 16.1161 9.59463 16.1999 9.62394C16.2838 9.65329 16.3734 9.68278 16.4165 9.69322L16.441 9.59227C16.4037 9.58324 16.319 9.55556 16.2342 9.5259C16.1494 9.49622 16.0702 9.46661 16.0438 9.45445L16.0004 9.54883ZM16.4167 9.69326C16.5503 9.72522 16.6995 9.75209 16.8324 9.77893L16.853 9.67712C16.7169 9.64964 16.5721 9.62364 16.4408 9.59224L16.4167 9.69326ZM16.8324 9.77893C16.9069 9.79397 16.9777 9.80264 17.0525 9.81023L17.063 9.70689C16.9895 9.69943 16.9225 9.69116 16.853 9.67712L16.8324 9.77893ZM17.0526 9.81024C17.0866 9.81364 17.169 9.81761 17.2388 9.82256C17.2749 9.82513 17.3084 9.82797 17.3334 9.83119C17.3461 9.83281 17.3553 9.83438 17.3612 9.83575C17.3642 9.83646 17.3651 9.83681 17.3645 9.83659C17.3642 9.83646 17.3627 9.83586 17.3605 9.8346C17.3587 9.83351 17.3541 9.83065 17.3495 9.82526L17.4284 9.75772C17.4186 9.74624 17.4062 9.74138 17.4023 9.73986C17.3964 9.73753 17.3902 9.73585 17.3848 9.73459C17.3739 9.73204 17.3606 9.72995 17.3467 9.72816C17.3185 9.72455 17.2826 9.72154 17.2462 9.71896C17.1709 9.71362 17.0955 9.71014 17.0629 9.70689L17.0526 9.81024ZM17.3654 9.74522C17.2889 9.78422 17.2324 9.85586 17.1901 9.92865C17.1474 10.0022 17.1157 10.0832 17.0917 10.1477L17.1891 10.1838C17.2128 10.12 17.242 10.0462 17.2799 9.98082C17.3183 9.91471 17.3623 9.86337 17.4125 9.83775L17.3654 9.74522ZM17.0917 10.1477C17.0664 10.2161 17.0447 10.2888 17.0228 10.3578C17.0005 10.4278 16.9777 10.4952 16.9491 10.5575L17.0435 10.6008C17.0749 10.5323 17.0993 10.4599 17.1218 10.3893C17.1445 10.3178 17.1649 10.2492 17.1891 10.1838L17.0917 10.1477ZM16.9491 10.5575C16.9191 10.6229 16.8757 10.6641 16.8292 10.7254C16.7843 10.7847 16.7454 10.8548 16.7555 10.9574L16.8589 10.9472C16.8524 10.8814 16.8749 10.8372 16.912 10.7881C16.9476 10.7412 17.0072 10.68 17.0435 10.6009L16.9491 10.5575ZM16.7555 10.9572C16.7624 11.0296 16.7733 11.0904 16.7633 11.1561L16.866 11.1717C16.8785 11.0895 16.8648 11.0094 16.8589 10.9474L16.7555 10.9572ZM16.7633 11.156C16.7581 11.1902 16.7485 11.2213 16.7367 11.2546C16.7253 11.2867 16.7105 11.3241 16.6986 11.3638L16.7981 11.3937C16.809 11.3572 16.8215 11.3261 16.8346 11.2893C16.8472 11.2537 16.8593 11.2155 16.866 11.1718L16.7633 11.156ZM16.6985 11.364C16.6827 11.4176 16.6658 11.5281 16.6483 11.6293C16.6393 11.6815 16.6299 11.7325 16.6201 11.7761C16.61 11.821 16.6003 11.8536 16.5918 11.8714L16.6854 11.9163C16.6995 11.8869 16.7113 11.844 16.7214 11.7989C16.7318 11.7526 16.7415 11.6995 16.7506 11.6471C16.7693 11.5392 16.7846 11.4394 16.7981 11.3935L16.6985 11.364ZM16.6451 11.9454L16.9222 11.9106L16.9093 11.8076L16.6321 11.8423L16.6451 11.9454ZM16.9322 11.9084L16.9326 11.9082L16.8999 11.8097L16.8994 11.8098L16.9322 11.9084ZM16.9641 11.8791C16.9742 11.855 16.9824 11.8171 16.9894 11.7786C16.9966 11.7384 17.0034 11.6919 17.0094 11.6474C17.0153 11.6033 17.0208 11.5591 17.0252 11.5263C17.0274 11.5096 17.0294 11.4955 17.031 11.485C17.033 11.4725 17.0339 11.4694 17.0334 11.4709L16.935 11.4375C16.9321 11.4462 16.93 11.4589 16.9284 11.4689C16.9266 11.4807 16.9245 11.4958 16.9222 11.5127C16.9176 11.5472 16.9125 11.5889 16.9064 11.6335C16.9005 11.6775 16.894 11.7223 16.8871 11.7602C16.88 11.7999 16.8734 11.8269 16.8684 11.8388L16.9641 11.8791ZM17.0334 11.4709C17.0833 11.3242 17.1488 11.2052 17.2493 11.0933L17.172 11.0239C17.0608 11.1477 16.9888 11.2794 16.9351 11.4374L17.0334 11.4709ZM17.2492 11.0933C17.3089 11.0269 17.3359 10.9519 17.3557 10.8814C17.3763 10.808 17.388 10.7454 17.416 10.6833L17.3213 10.6406C17.289 10.7123 17.2733 10.7906 17.2557 10.8534C17.2373 10.919 17.2155 10.9754 17.172 11.0239L17.2492 11.0933ZM17.416 10.6832C17.4796 10.5415 17.5625 10.4329 17.6488 10.2905L17.5599 10.2367C17.4806 10.3676 17.3882 10.4915 17.3213 10.6407L17.416 10.6832ZM17.6488 10.2905C17.687 10.2273 17.7223 10.1596 17.7569 10.0957C17.792 10.031 17.8271 9.96916 17.8667 9.91348C17.9453 9.80305 18.0393 9.72012 18.1809 9.69186L18.1606 9.59C17.9841 9.62521 17.8698 9.73002 17.7821 9.85326C17.7386 9.91441 17.701 9.98092 17.6656 10.0462C17.6297 10.1123 17.5965 10.1763 17.5599 10.2367L17.6488 10.2905ZM18.1813 9.69179C18.1771 9.69266 18.1738 9.69266 18.172 9.69258C18.1702 9.69249 18.169 9.69227 18.1688 9.69222C18.1683 9.69213 18.1693 9.69229 18.172 9.69334C18.1775 9.69544 18.1859 9.69939 18.1971 9.70557C18.2192 9.71781 18.2477 9.73617 18.2789 9.75798C18.3412 9.8017 18.4092 9.85596 18.4498 9.89521L18.522 9.82051C18.4762 9.77625 18.4036 9.71854 18.3385 9.67292C18.3059 9.65006 18.274 9.62941 18.2473 9.61468C18.2341 9.60738 18.221 9.60085 18.209 9.59628C18.203 9.594 18.1962 9.59179 18.1892 9.59037C18.1828 9.5891 18.1722 9.58761 18.1603 9.59007L18.1813 9.69179ZM18.4499 9.8953C18.549 9.99056 18.6509 10.0953 18.7115 10.2175L18.8046 10.1713C18.7351 10.0312 18.6208 9.91545 18.5219 9.82042L18.4499 9.8953ZM18.7115 10.2174C18.8348 10.4665 18.9404 10.8301 18.9802 11.0302L19.0821 11.01C19.0411 10.8039 18.9331 10.4309 18.8046 10.1714L18.7115 10.2174ZM18.9802 11.0302C18.9922 11.0906 19.0041 11.1288 19.0265 11.1647C19.0466 11.1969 19.0761 11.2275 19.1122 11.2698L19.1912 11.2024C19.1485 11.1523 19.1292 11.1332 19.1146 11.1097C19.1022 11.0898 19.0933 11.0663 19.0821 11.01L18.9802 11.0302ZM19.1123 11.2699C19.1268 11.2868 19.1517 11.3262 19.1776 11.3715C19.2028 11.4154 19.2262 11.4599 19.2373 11.4836L19.3313 11.4394C19.3186 11.4123 19.2938 11.3652 19.2677 11.3198C19.2424 11.2756 19.213 11.2277 19.1911 11.2023L19.1123 11.2699ZM19.2371 11.4833C19.2485 11.5078 19.2633 11.5493 19.2802 11.5962C19.2963 11.6409 19.3144 11.6903 19.3309 11.7246L19.4245 11.6796C19.4107 11.651 19.3946 11.6071 19.3779 11.5609C19.3619 11.5167 19.3452 11.4694 19.3314 11.4397L19.2371 11.4833ZM19.3308 11.7244C19.3475 11.7594 19.3931 11.8726 19.4264 11.971L19.5248 11.9376C19.4907 11.837 19.4437 11.7198 19.4246 11.6798L19.3308 11.7244ZM19.4772 12.0062L19.7362 11.9981L19.733 11.8943L19.474 11.9024L19.4772 12.0062ZM19.6869 11.9667C19.6889 11.9714 19.6918 11.9762 19.6955 11.9805C19.6993 11.9849 19.7035 11.9883 19.7079 11.991C19.7164 11.9963 19.7244 11.9979 19.7293 11.9986C19.7343 11.9992 19.7383 11.999 19.7402 11.9989C19.7423 11.9988 19.744 11.9985 19.7442 11.9985C19.745 11.9984 19.7441 11.9985 19.743 11.9986C19.742 11.9987 19.7391 11.9989 19.7352 11.9986C19.7315 11.9982 19.7246 11.9972 19.717 11.9932C19.7086 11.9889 19.7008 11.9818 19.6956 11.9722L19.7871 11.923C19.7817 11.9129 19.7735 11.9055 19.7646 11.9009C19.7565 11.8967 19.7491 11.8955 19.7447 11.8951C19.7403 11.8947 19.7367 11.8949 19.735 11.8951C19.734 11.8951 19.7332 11.8952 19.7326 11.8953C19.7322 11.8953 19.7317 11.8954 19.7316 11.8954C19.7311 11.8955 19.7322 11.8953 19.7335 11.8952C19.7348 11.8952 19.7382 11.895 19.7425 11.8955C19.7468 11.8961 19.7543 11.8976 19.7624 11.9026C19.7665 11.9051 19.7705 11.9084 19.7741 11.9126C19.7777 11.9167 19.7804 11.9212 19.7824 11.9257L19.6869 11.9667ZM19.7458 11.9993C19.7528 11.9987 19.7594 11.9968 19.7653 11.9938L19.7182 11.9012C19.7239 11.8983 19.7302 11.8964 19.7369 11.8959L19.7458 11.9993ZM19.7872 11.9224C19.7875 11.9229 19.7876 11.9232 19.7863 11.9202L19.6912 11.962C19.6918 11.9633 19.6938 11.9681 19.6963 11.9726L19.7872 11.9224ZM19.7852 11.9179C19.6591 11.6649 19.5779 11.3708 19.5358 11.088L19.4331 11.1033C19.4763 11.3941 19.5602 11.6993 19.6922 11.9643L19.7852 11.9179Z" fill="url(#paint1_linear_893_8191)" mask="url(#path-2-inside-1_893_8191)"/>
<mask id="path-4-inside-2_893_8191" fill="white">
<path d="M19.3209 9.58441L19.3221 9.58124C19.3204 9.57325 19.3197 9.57143 19.3209 9.58441Z"/>
</mask>
<path d="M19.3209 9.58441L19.3221 9.58124C19.3204 9.57325 19.3197 9.57143 19.3209 9.58441Z" fill="url(#paint2_linear_893_8191)"/>
<path d="M19.3209 9.58441L19.2692 9.58917L19.3695 9.60273L19.3209 9.58441ZM19.3221 9.58124L19.3707 9.59957L19.3762 9.58512L19.3728 9.57005L19.3221 9.58124ZM19.3695 9.60273L19.3707 9.59957L19.2735 9.56292L19.2723 9.56609L19.3695 9.60273ZM19.3728 9.57005C19.3724 9.56811 19.3718 9.56554 19.3712 9.56329C19.371 9.56252 19.3703 9.55988 19.3692 9.55692C19.3689 9.55618 19.3672 9.55127 19.3635 9.54589C19.3622 9.54388 19.3567 9.53578 19.3461 9.52977C19.34 9.52634 19.3308 9.52276 19.3192 9.52303C19.3072 9.52332 19.297 9.52769 19.2894 9.53327C19.2768 9.54268 19.2725 9.55482 19.2715 9.5574C19.27 9.56175 19.2693 9.56536 19.2691 9.56701C19.2685 9.57051 19.2684 9.57334 19.2684 9.57435C19.2683 9.5768 19.2684 9.57898 19.2685 9.58009C19.2686 9.58267 19.2689 9.58583 19.2692 9.58917L19.3726 9.57965C19.3724 9.5765 19.3722 9.57502 19.3722 9.57454C19.3722 9.57412 19.3723 9.57516 19.3722 9.57683C19.3722 9.57746 19.3722 9.58 19.3716 9.58328C19.3714 9.58483 19.3708 9.58835 19.3692 9.59264C19.3683 9.59516 19.364 9.60726 19.3514 9.61665C19.3439 9.62222 19.3337 9.62658 19.3217 9.62687C19.3101 9.62715 19.3009 9.62357 19.2949 9.62014C19.2843 9.61416 19.2788 9.6061 19.2775 9.60415C19.274 9.59888 19.2723 9.59416 19.2721 9.59369C19.2715 9.59223 19.2712 9.59111 19.2711 9.59071C19.2709 9.59021 19.2708 9.58987 19.2708 9.58978C19.2708 9.58973 19.271 9.59038 19.2714 9.59244L19.3728 9.57005Z" fill="url(#paint3_linear_893_8191)" mask="url(#path-4-inside-2_893_8191)"/>
<mask id="path-6-inside-3_893_8191" fill="white">
<path d="M19.3209 9.58441L19.3221 9.58124C19.3204 9.57325 19.3197 9.57143 19.3209 9.58441Z"/>
</mask>
<path d="M19.3209 9.58441L19.3221 9.58124C19.3204 9.57325 19.3197 9.57143 19.3209 9.58441Z" fill="url(#paint4_linear_893_8191)"/>
<path d="M19.3209 9.58441L19.2692 9.58917L19.3695 9.60273L19.3209 9.58441ZM19.3221 9.58124L19.3707 9.59957L19.3762 9.58512L19.3728 9.57005L19.3221 9.58124ZM19.3695 9.60273L19.3707 9.59957L19.2735 9.56292L19.2723 9.56609L19.3695 9.60273ZM19.3728 9.57005C19.3724 9.56811 19.3718 9.56554 19.3712 9.56329C19.371 9.56252 19.3703 9.55988 19.3692 9.55692C19.3689 9.55618 19.3672 9.55127 19.3635 9.54589C19.3622 9.54388 19.3567 9.53578 19.3461 9.52977C19.34 9.52634 19.3308 9.52276 19.3192 9.52303C19.3072 9.52332 19.297 9.52769 19.2894 9.53327C19.2768 9.54268 19.2725 9.55482 19.2715 9.5574C19.27 9.56175 19.2693 9.56536 19.2691 9.56701C19.2685 9.57051 19.2684 9.57334 19.2684 9.57435C19.2683 9.5768 19.2684 9.57898 19.2685 9.58009C19.2686 9.58267 19.2689 9.58583 19.2692 9.58917L19.3726 9.57965C19.3724 9.5765 19.3722 9.57502 19.3722 9.57454C19.3722 9.57412 19.3723 9.57516 19.3722 9.57683C19.3722 9.57746 19.3722 9.58 19.3716 9.58328C19.3714 9.58483 19.3708 9.58835 19.3692 9.59264C19.3683 9.59516 19.364 9.60726 19.3514 9.61665C19.3439 9.62222 19.3337 9.62658 19.3217 9.62687C19.3101 9.62715 19.3009 9.62357 19.2949 9.62014C19.2843 9.61416 19.2788 9.6061 19.2775 9.60415C19.274 9.59888 19.2723 9.59416 19.2721 9.59369C19.2715 9.59223 19.2712 9.59111 19.2711 9.59071C19.2709 9.59021 19.2708 9.58987 19.2708 9.58978C19.2708 9.58973 19.271 9.59038 19.2714 9.59244L19.3728 9.57005Z" fill="url(#paint5_linear_893_8191)" mask="url(#path-6-inside-3_893_8191)"/>
<path d="M18.1452 9.63454L18.1452 9.63453L18.1452 9.63454ZM16.9266 11.8241C16.9307 11.8073 16.9346 11.7879 16.9382 11.7676C16.9454 11.728 16.9521 11.6819 16.9581 11.6375C16.9617 11.6109 16.9651 11.5846 16.9682 11.5605C16.9702 11.5446 16.9721 11.5298 16.9739 11.5165C16.9761 11.4997 16.9781 11.4854 16.9798 11.4745L16.9821 11.4613L16.9829 11.4573C16.9832 11.4564 16.9833 11.4561 16.9833 11.4561C17.0341 11.3066 17.1013 11.1844 17.2044 11.0695C17.26 11.0076 17.2857 10.9373 17.3052 10.868C17.3104 10.8494 17.3151 10.831 17.3198 10.813C17.3328 10.7624 17.3453 10.7138 17.3668 10.6662L17.3668 10.6662C17.4113 10.567 17.4658 10.4826 17.5231 10.3939C17.5488 10.3542 17.5749 10.3137 17.601 10.2706L17.601 10.2706C17.6307 10.2217 17.6584 10.1701 17.6858 10.1191C17.6934 10.105 17.701 10.0909 17.7085 10.0769C17.7437 10.0121 17.7794 9.94909 17.82 9.89204C17.9005 9.7789 17.9991 9.69076 18.1484 9.66038C18.1498 9.66068 18.1522 9.66135 18.1557 9.66268C18.1628 9.6654 18.1724 9.66999 18.1841 9.67645C18.2073 9.68932 18.2367 9.70826 18.2682 9.73033C18.3313 9.77454 18.4004 9.82966 18.4423 9.87014L18.4424 9.87018L16.9266 11.8241ZM18.7092 10.1995C18.8338 10.4511 18.94 10.8172 18.9801 11.0188L18.9801 11.0188C18.9919 11.0781 19.003 11.1127 19.0229 11.1445C19.0368 11.1668 19.0551 11.1877 19.0791 11.2151C19.0875 11.2247 19.0966 11.2351 19.1064 11.2466L19.1064 11.2466C19.1227 11.2656 19.1488 11.3072 19.1746 11.3522C19.2 11.3965 19.2237 11.4416 19.2352 11.4661L19.2587 11.4551L19.2352 11.466C19.2462 11.4899 19.2601 11.5284 19.2753 11.5706C19.2766 11.574 19.2778 11.5775 19.2791 11.5809C19.2954 11.6261 19.3129 11.674 19.3288 11.707L18.7092 10.1995Z" fill="url(#paint6_linear_893_8191)" stroke="url(#paint7_linear_893_8191)" stroke-width="0.0519345"/>
<path d="M15.4418 7.46357L15.4418 7.46356C15.4999 7.39696 15.5346 7.32064 15.5627 7.24535C15.5705 7.22427 15.578 7.20288 15.5853 7.18172C15.6036 7.12925 15.6213 7.07818 15.6438 7.03655C15.6666 6.99428 15.6861 6.9547 15.7045 6.91718C15.7139 6.89803 15.7231 6.87942 15.7323 6.86127C15.7591 6.80837 15.7859 6.76011 15.8192 6.7197C15.8528 6.67885 15.8929 6.64597 15.946 6.62356C15.9988 6.60129 16.0631 6.58995 16.1442 6.58995C16.2194 6.58995 16.2759 6.59855 16.3269 6.6268L15.4418 7.46357ZM15.4418 7.46357C15.4263 7.48135 15.4038 7.51066 15.3772 7.54533C15.3726 7.55125 15.368 7.55733 15.3632 7.56354C15.3301 7.60656 15.2911 7.65666 15.2496 7.70592C15.208 7.75525 15.1643 7.80328 15.1217 7.84225C15.0926 7.86884 15.0649 7.89038 15.0396 7.90533V5.5832C15.0396 4.99935 15.5129 4.52597 16.0968 4.52597H22.5278C23.1118 4.52597 23.5849 4.99935 23.585 5.58325V11.9274M15.4418 7.46357L23.611 11.9482M16.925 7.48805L16.925 7.48807C16.9577 7.51372 16.9894 7.53227 17.018 7.54299L17.018 7.54299C17.0353 7.54951 17.0513 7.54725 17.0681 7.53951C17.0854 7.53153 17.1015 7.51871 17.1187 7.50499L17.1202 7.50378M16.925 7.48805L17.1202 7.50378M16.925 7.48805C16.9165 7.48148 16.9031 7.46622 16.8858 7.44239C16.869 7.41925 16.8499 7.39002 16.8301 7.35751C16.7904 7.29249 16.7484 7.21549 16.7165 7.15015C16.6594 7.0333 16.5387 6.86033 16.4695 6.76758L16.925 7.48805ZM17.1202 7.50378C17.1369 7.49046 17.1505 7.46893 17.1653 7.43586M17.1202 7.50378L17.1653 7.43586M17.2153 7.31394L17.2153 7.31393C17.231 7.27728 17.2465 7.2399 17.2619 7.20295C17.2756 7.17005 17.2891 7.13747 17.3025 7.10604C17.3299 7.04163 17.3556 6.98445 17.375 6.95382L17.375 6.95381C17.3991 6.91584 17.4167 6.87529 17.4342 6.83476C17.4384 6.825 17.4426 6.81524 17.447 6.80552C17.4684 6.75717 17.4926 6.70851 17.5315 6.6759L17.5315 6.67589C17.6229 6.5992 17.7394 6.58348 17.7896 6.57671C17.7976 6.57562 17.804 6.57477 17.8082 6.57393L17.8082 6.57392C17.9899 6.53805 18.0918 6.63888 18.1746 6.72085C18.1902 6.73631 18.2051 6.7511 18.2198 6.76418L18.2198 6.76419C18.2876 6.82471 18.3778 6.94409 18.4416 7.10265C18.4657 7.16245 18.4932 7.22015 18.5181 7.27216C18.5195 7.27503 18.5209 7.27789 18.5222 7.28074L17.2153 7.31394ZM17.2153 7.31394C17.2056 7.33667 17.1971 7.35804 17.1893 7.37758M17.2153 7.31394L17.1893 7.37758M18.8603 7.9775L18.8598 7.97768L18.86 7.9781L18.8616 7.98168C18.8633 7.98508 18.8661 7.99046 18.8705 7.9975C18.8793 8.01159 18.8944 8.03244 18.9193 8.0576C18.9691 8.10789 19.0582 8.17579 19.2136 8.24122C19.2608 8.2611 19.3415 8.28962 19.4145 8.31541L18.8603 7.9775ZM18.8603 7.9775L18.8576 7.97296M18.8603 7.9775L18.8576 7.97296M18.8576 7.97296C18.8483 7.95764 18.8355 7.94043 18.822 7.92242C18.8205 7.92034 18.8189 7.91825 18.8173 7.91614C18.8048 7.89955 18.7915 7.88181 18.7781 7.86258C18.7481 7.81921 18.7192 7.76984 18.7036 7.71484C18.6847 7.64809 18.6594 7.58718 18.636 7.53493C18.6281 7.51737 18.6205 7.50104 18.6135 7.48587C18.5992 7.45499 18.5872 7.42889 18.579 7.40693L18.8576 7.97296ZM20.2512 7.50307L20.2513 7.50305C20.2678 7.47985 20.2836 7.46216 20.2964 7.44792C20.3022 7.44138 20.3074 7.43556 20.3118 7.43028C20.3261 7.41277 20.3385 7.39298 20.3514 7.35222L20.3514 7.35219C20.3857 7.24398 20.4997 7.19214 20.6178 7.16617C20.7379 7.13974 20.8742 7.13744 20.9705 7.13744C21.0446 7.13744 21.0874 7.16861 21.125 7.19601C21.1331 7.20196 21.141 7.20773 21.149 7.21297C21.1715 7.22783 21.1963 7.24054 21.2307 7.24685C21.2656 7.25322 21.3119 7.25333 21.3778 7.24045C21.5218 7.21219 21.6613 7.25032 21.8037 7.28924C21.8228 7.29445 21.8419 7.29968 21.8611 7.30476L21.8611 7.30476C21.9994 7.34145 22.1386 7.38504 22.2231 7.48401C22.2382 7.50168 22.2568 7.53412 22.274 7.57115C22.2915 7.60879 22.3086 7.65352 22.32 7.6971C22.3311 7.73996 22.3376 7.7847 22.3311 7.82099C22.3279 7.83946 22.3209 7.85755 22.3078 7.8718C22.3029 7.87709 22.2974 7.88158 22.2914 7.88526C22.2916 7.88556 22.2918 7.88585 22.2919 7.88615C22.2979 7.89562 22.3035 7.90239 22.3104 7.90679L22.3261 7.91691L22.3215 7.93501C22.3129 7.96855 22.2959 7.99207 22.2705 8.00429C22.2465 8.01586 22.2196 8.015 22.1958 8.01073C22.1717 8.00641 22.1468 7.99783 22.1251 7.9901C22.123 7.98934 22.1209 7.98859 22.1188 7.98785L20.2512 7.50307ZM20.2512 7.50307C20.2247 7.5404 20.2278 7.57622 20.2324 7.60587C20.233 7.60944 20.2335 7.61288 20.234 7.61623C20.2381 7.64158 20.2413 7.66134 20.2342 7.684L20.2512 7.50307ZM20.6754 9.23406C20.842 9.11391 20.9629 8.95615 21.0419 8.82914C21.0815 8.76552 21.1108 8.70934 21.1302 8.66897C21.1399 8.64879 21.1471 8.63254 21.152 8.62127L21.1575 8.60824L21.1589 8.60477L21.1591 8.60412C21.1735 8.57196 21.1839 8.53436 21.1933 8.49592C21.197 8.48039 21.2006 8.46494 21.2041 8.44947C21.2097 8.42535 21.2152 8.4012 21.2216 8.3767C21.2426 8.29654 21.2698 8.22643 21.3206 8.1842L21.3206 8.18419L20.0628 9.4986C20.3899 9.44808 20.5583 9.32171 20.6492 9.25351C20.6587 9.24633 20.6674 9.2398 20.6754 9.23406ZM20.6754 9.23406L20.6602 9.213L20.6754 9.23406C20.6754 9.23406 20.6754 9.23406 20.6754 9.23406ZM19.1665 9.51187C19.1665 9.51186 19.1667 9.51178 19.1672 9.51165L19.1696 9.51116L19.1741 9.5105L19.1775 9.50187L19.1819 9.49083L19.1783 9.48382C19.1782 9.48383 19.1781 9.48384 19.178 9.48385C19.179 9.48699 19.1795 9.49081 19.1788 9.49505C19.1784 9.49753 19.1776 9.4997 19.1767 9.50155C19.1755 9.50404 19.1741 9.50595 19.1728 9.5073C19.1707 9.50953 19.1688 9.5107 19.168 9.51116L19.1669 9.51171L19.1665 9.51187ZM19.1665 9.51187C19.1665 9.51187 19.1665 9.51187 19.1665 9.51187H19.1665ZM21.5128 11.7476C21.3711 11.7608 21.1962 11.7634 21.0116 11.7662C20.9767 11.7667 20.9416 11.7672 20.9062 11.7678C20.6844 11.7716 20.4557 11.7784 20.2639 11.8068C20.159 11.8224 20.0662 11.8446 19.9803 11.8662C19.9701 11.8687 19.96 11.8713 19.95 11.8738C19.8823 11.8909 19.819 11.9068 19.7562 11.9183C19.6316 11.6651 19.5514 11.3725 19.5097 11.0918L21.5152 11.7734M21.5128 11.7476L21.5152 11.7734M21.5128 11.7476C21.5128 11.7476 21.5128 11.7476 21.5128 11.7476L21.5152 11.7734M21.5128 11.7476C21.9213 11.7092 22.2422 11.7859 22.5449 11.8582C22.5639 11.8628 22.5829 11.8673 22.6019 11.8718C22.9159 11.9463 23.215 12.0079 23.585 11.9274M21.5152 11.7734C21.9193 11.7354 22.2364 11.8112 22.5393 11.8836C22.8801 11.965 23.2028 12.0421 23.611 11.9482M23.585 11.9274V11.9482H23.611M23.585 11.9274C23.5917 11.9259 23.5985 11.9244 23.6052 11.9229L23.611 11.9482M19.5858 9.51736C19.5756 9.51687 19.5654 9.51637 19.5553 9.51588C19.4864 9.51252 19.4205 9.5093 19.3511 9.5084L19.3514 9.48244L19.5858 9.51736ZM19.5858 9.51736C19.5858 9.51736 19.5859 9.51736 19.5859 9.51736L19.5871 9.49143L19.5858 9.51736ZM19.2961 9.58715L19.2937 9.58682L19.293 9.5788L19.2929 9.57514C19.2929 9.57471 19.2929 9.57379 19.2931 9.57262C19.2931 9.57222 19.2932 9.57179 19.2932 9.57134C19.2934 9.57051 19.2937 9.56871 19.2944 9.56655C19.2948 9.56533 19.2969 9.55918 19.3032 9.55436C19.307 9.55148 19.3122 9.54917 19.3184 9.54902C19.3243 9.54887 19.329 9.55076 19.332 9.55251C19.3373 9.55556 19.34 9.55965 19.3407 9.56062C19.3425 9.5633 19.3434 9.56576 19.3435 9.56618L19.3447 9.56989L19.346 9.57552L19.3478 9.58313L19.345 9.59043L19.3438 9.5936L19.3379 9.5928M19.2961 9.58715C19.2961 9.58706 19.296 9.58698 19.296 9.58689L19.2981 9.58641L19.3147 9.58263L19.3195 9.58444L19.3272 9.58373L19.3439 9.58219C19.3438 9.58262 19.3436 9.58307 19.3435 9.58355L19.3435 9.58359C19.3432 9.58428 19.3425 9.58637 19.3409 9.58889C19.3403 9.58979 19.3396 9.59075 19.3388 9.59172C19.3385 9.59208 19.3382 9.59244 19.3379 9.5928M19.2961 9.58715L19.3379 9.5928M19.2961 9.58715C19.2965 9.58785 19.2969 9.58864 19.2975 9.58947L19.2975 9.58949C19.2981 9.59044 19.3008 9.59445 19.306 9.59746C19.309 9.59921 19.3137 9.60108 19.3196 9.60094C19.3258 9.60079 19.331 9.59849 19.3348 9.59561C19.3359 9.59471 19.337 9.59375 19.3379 9.5928M17.1893 7.37758L17.1881 7.38075M17.1893 7.37758L17.1881 7.38075M17.1881 7.38075C17.1799 7.4013 17.1726 7.41955 17.1653 7.43586M17.1881 7.38075L17.1653 7.43586M19.93 8.36837C19.7611 8.38862 19.6334 8.3943 19.5022 8.34664L20.2023 7.83711C20.2 7.84965 20.1977 7.86233 20.1953 7.87496C20.1807 7.95403 20.1652 8.03115 20.1501 8.06969L20.1501 8.06969C20.1488 8.07284 20.1476 8.076 20.1464 8.07916C20.1197 8.14727 20.0915 8.21929 20.0564 8.27541C20.0192 8.33491 19.9794 8.36819 19.9331 8.36819V8.368L19.93 8.36837ZM19.1556 9.69225C19.1567 9.72432 19.1555 9.75703 19.1543 9.78983C19.153 9.82585 19.1516 9.86198 19.1534 9.8975C19.157 9.96732 19.1716 10.0341 19.1862 10.101C19.2011 10.1689 19.2161 10.2371 19.2194 10.3087C19.2266 10.4668 19.3048 10.6341 19.3805 10.7633C19.3927 10.7842 19.4076 10.7973 19.4222 10.81L19.1556 9.69225ZM21.8343 8.01351C21.9243 7.97371 21.9837 7.95436 22.0687 7.97195L21.8342 8.01354C21.8343 8.01353 21.8343 8.01352 21.8343 8.01351Z" fill="url(#paint8_linear_893_8191)" stroke="url(#paint9_linear_893_8191)" stroke-width="0.0519345"/>
<path d="M16.4283 9.64267C16.5234 9.66545 16.626 9.68547 16.7261 9.70501C16.7654 9.71268 16.8044 9.72028 16.8423 9.72794C16.9143 9.74248 16.9832 9.75095 17.0573 9.75848C17.0761 9.76036 17.1095 9.76236 17.148 9.76468C17.2182 9.7689 17.3056 9.77415 17.3536 9.78155C17.3431 9.78829 17.3329 9.79573 17.3232 9.80377M16.4283 9.64267L15.0396 11.7237V10.2896C15.0484 10.2625 15.0585 10.236 15.0701 10.21C15.0984 10.1497 15.1459 10.0907 15.198 10.0285C15.2027 10.0228 15.2075 10.0171 15.2124 10.0113C15.2595 9.95524 15.3088 9.89657 15.3451 9.83503L15.3451 9.835C15.3542 9.81957 15.3637 9.80393 15.3734 9.78807C15.4071 9.73279 15.4425 9.6749 15.4649 9.6144L15.4649 9.61439C15.4745 9.58843 15.4823 9.55738 15.4899 9.52737C15.4922 9.51817 15.4945 9.50906 15.4968 9.50024C15.5071 9.46092 15.5179 9.42636 15.5329 9.40203L15.5329 9.40203C15.5694 9.34286 15.6266 9.32149 15.6919 9.31083L15.692 9.31082C15.7108 9.30771 15.7304 9.31253 15.7529 9.32532C15.7758 9.3383 15.7996 9.35823 15.826 9.38236C15.8335 9.38921 15.8413 9.39641 15.8492 9.40381C15.8952 9.44675 15.9486 9.49645 16.0108 9.52514L16.0108 9.52516C16.0413 9.53913 16.124 9.56994 16.2081 9.59935C16.2922 9.62877 16.3805 9.65781 16.4222 9.6679L16.4223 9.66792C16.518 9.69084 16.6214 9.71103 16.7217 9.73061C16.7609 9.73826 16.7996 9.74581 16.8371 9.7534C16.9104 9.76819 16.9803 9.77675 17.0547 9.78431L17.0548 9.78432C17.0739 9.78623 17.1083 9.7883 17.1475 9.79066C17.1772 9.79245 17.2096 9.7944 17.2403 9.79658C17.2706 9.79873 17.2994 9.80111 17.3232 9.80377M16.4283 9.64267C16.3479 9.62319 16.0799 9.52831 16.0217 9.50156C15.9636 9.47478 15.9138 9.42843 15.8675 9.38537C15.8051 9.32723 15.749 9.27509 15.6877 9.2852M16.4283 9.64267L15.6877 9.2852M17.3232 9.80377C17.2787 9.84054 17.2422 9.88987 17.2122 9.94161L17.3232 9.80377ZM15.6877 9.2852C15.6196 9.29631 15.5532 9.31968 15.5108 9.38839L15.6877 9.2852ZM15.9169 11.9076C15.7331 11.8927 15.5473 11.8496 15.2452 11.769L16.785 10.9946C16.7911 11.0499 16.797 11.1035 16.7884 11.1599C16.7828 11.1964 16.7726 11.2292 16.7606 11.2631C16.7572 11.2725 16.7537 11.2821 16.7501 11.292C16.7409 11.3169 16.7313 11.3432 16.7229 11.3712L16.7229 11.3713C16.7107 11.4123 16.6978 11.4887 16.6841 11.57C16.6806 11.591 16.677 11.6124 16.6733 11.6336C16.6643 11.6858 16.6548 11.7374 16.6448 11.7817C16.6365 11.8185 16.6282 11.8488 16.62 11.87L16.5793 11.8754C16.2833 11.9092 16.1006 11.9224 15.9169 11.9076ZM17.1157 10.1567C17.0961 10.2094 17.0788 10.2646 17.0617 10.3194C17.0568 10.3348 17.052 10.3503 17.0471 10.3656C17.0248 10.4358 17.0016 10.5044 16.9723 10.5683C16.9494 10.6181 16.9182 10.6561 16.8862 10.6951C16.8739 10.71 16.8616 10.7251 16.8495 10.741C16.8065 10.7977 16.7717 10.8612 16.7808 10.9546L17.1157 10.1567Z" fill="url(#paint10_linear_893_8191)" stroke="url(#paint11_linear_893_8191)" stroke-width="0.0519345"/>
<rect x="29.7148" y="10.875" width="8.0625" height="0.375" fill="url(#paint12_linear_893_8191)" stroke="url(#paint13_linear_893_8191)" stroke-width="0.1875"/>
<rect x="29.6211" y="5.90625" width="8.25" height="2.625" rx="1.3125" fill="url(#paint14_linear_893_8191)"/>
<rect x="43.9648" y="10.875" width="14.0625" height="0.375" fill="url(#paint15_linear_893_8191)" stroke="url(#paint16_linear_893_8191)" stroke-width="0.1875"/>
<rect x="43.8711" y="5.90625" width="14.25" height="2.625" rx="1.3125" fill="url(#paint17_linear_893_8191)"/>
<rect x="64.2148" y="10.875" width="16.6875" height="0.375" fill="url(#paint18_linear_893_8191)" stroke="url(#paint19_linear_893_8191)" stroke-width="0.1875"/>
<rect x="64.1211" y="5.90625" width="16.875" height="2.625" rx="1.3125" fill="url(#paint20_linear_893_8191)"/>
<rect x="216" y="6.75" width="3" height="2.625" rx="1.3125" fill="url(#paint21_linear_893_8191)"/>
<rect x="221.25" y="6.1875" width="36.375" height="2.625" rx="1.3125" fill="url(#paint22_linear_893_8191)"/>
<rect x="267.375" y="6.75" width="1.3125" height="2.29688" rx="0.65625" fill="url(#paint23_linear_893_8191)"/>
<rect x="267.375" y="6.375" width="14.625" height="2.29688" rx="1.14844" fill="url(#paint24_linear_893_8191)"/>
<rect x="280.688" y="6.75" width="1.3125" height="2.29688" rx="0.65625" fill="url(#paint25_linear_893_8191)"/>
</g>
<rect x="213.666" y="35.25" width="40.5" height="18.2969" rx="3.28125" fill="url(#paint26_linear_893_8191)"/>
<rect x="213.666" y="57.5469" width="40.5" height="18.2969" rx="3.28125" fill="url(#paint27_linear_893_8191)"/>
<rect x="213.666" y="79.8438" width="40.5" height="18.2969" rx="3.28125" fill="url(#paint28_linear_893_8191)"/>
<rect x="213.666" y="102.141" width="40.5" height="18.2969" rx="3.28125" fill="url(#paint29_linear_893_8191)"/>
<rect x="213.666" y="124.438" width="40.5" height="18.2969" rx="3.28125" fill="url(#paint30_linear_893_8191)"/>
<path fill-rule="evenodd" clip-rule="evenodd" d="M146.916 50.1248H82.416C81.6701 50.1248 80.9547 49.8285 80.4273 49.3011C79.8998 48.7736 79.6035 48.0582 79.6035 47.3123C79.6035 46.5664 79.8998 45.851 80.4273 45.3236C80.9547 44.7961 81.6701 44.4998 82.416 44.4998H146.916C147.662 44.4998 148.377 44.7961 148.904 45.3236C149.432 45.851 149.728 46.5664 149.728 47.3123C149.728 48.0582 149.432 48.7736 148.904 49.3011C148.377 49.8285 147.662 50.1248 146.916 50.1248ZM76.79 61.3748H152.54C153.286 61.3748 154.001 61.0785 154.528 60.5511C155.056 60.0236 155.352 59.3083 155.352 58.5623C155.352 57.8164 155.056 57.1011 154.528 56.5736C154.001 56.0462 153.286 55.7498 152.54 55.7498H76.79C76.0441 55.7498 75.3287 56.0462 74.8013 56.5736C74.2738 57.1011 73.9775 57.8164 73.9775 58.5623C73.9775 59.3083 74.2738 60.0236 74.8013 60.5511C75.3287 61.0785 76.0441 61.3748 76.79 61.3748ZM71.1641 66.9998H158.164C158.91 66.9998 159.625 67.2961 160.152 67.8236C160.68 68.351 160.976 69.0664 160.976 69.8123V134.688C160.976 135.434 160.68 136.149 160.152 136.676C159.625 137.204 158.91 137.5 158.164 137.5H71.1641C70.4181 137.5 69.7028 137.204 69.1753 136.676C68.6479 136.149 68.3516 135.434 68.3516 134.688V69.8123C68.3516 69.0664 68.6479 68.351 69.1753 67.8236C69.7028 67.2961 70.4181 66.9998 71.1641 66.9998ZM73.9766 131.875H155.351V72.6248H73.9766V131.875ZM100.825 124.082C100.325 124.091 99.8326 123.967 99.397 123.723C98.9619 123.478 98.5999 123.122 98.348 122.691C98.0961 122.26 97.9635 121.77 97.9637 121.27V83.2296C97.964 82.7305 98.0971 82.2405 98.3493 81.8098C98.6016 81.3792 98.9639 81.0234 99.3991 80.779C99.8343 80.5346 100.327 80.4104 100.826 80.4192C101.325 80.428 101.812 80.5694 102.239 80.8289L133.396 99.8493C133.807 100.1 134.147 100.453 134.383 100.874C134.619 101.294 134.743 101.768 134.743 102.25C134.743 102.732 134.619 103.206 134.383 103.627C134.147 104.047 133.807 104.4 133.396 104.651L102.239 123.671C101.812 123.931 101.324 124.073 100.825 124.082ZM126.533 102.25L103.586 88.2438V116.256L126.533 102.25Z" fill="url(#paint31_linear_893_8191)"/>
</g>
</g>
</g>
<defs>
<linearGradient id="paint0_linear_893_8191" x1="22.3082" y1="9.32042" x2="15.0137" y2="9.32042" gradientUnits="userSpaceOnUse">
<stop stop-color="#DBDBDB" stop-opacity="0.05"/>
<stop offset="0.5" stop-color="#DBDBDB"/>
</linearGradient>
<linearGradient id="paint1_linear_893_8191" x1="22.3082" y1="9.32042" x2="15.0137" y2="9.32042" gradientUnits="userSpaceOnUse">
<stop stop-color="#DBDBDB" stop-opacity="0.05"/>
<stop offset="0.5" stop-color="#DBDBDB"/>
</linearGradient>
<linearGradient id="paint2_linear_893_8191" x1="19.3221" y1="9.57976" x2="19.3203" y2="9.57976" gradientUnits="userSpaceOnUse">
<stop stop-color="#DBDBDB" stop-opacity="0.05"/>
<stop offset="0.5" stop-color="#DBDBDB"/>
</linearGradient>
<linearGradient id="paint3_linear_893_8191" x1="19.3221" y1="9.57976" x2="19.3203" y2="9.57976" gradientUnits="userSpaceOnUse">
<stop stop-color="#DBDBDB" stop-opacity="0.05"/>
<stop offset="0.5" stop-color="#DBDBDB"/>
</linearGradient>
<linearGradient id="paint4_linear_893_8191" x1="19.3221" y1="9.57976" x2="19.3203" y2="9.57976" gradientUnits="userSpaceOnUse">
<stop stop-color="#DBDBDB" stop-opacity="0.05"/>
<stop offset="0.5" stop-color="#DBDBDB"/>
</linearGradient>
<linearGradient id="paint5_linear_893_8191" x1="19.3221" y1="9.57976" x2="19.3203" y2="9.57976" gradientUnits="userSpaceOnUse">
<stop stop-color="#DBDBDB" stop-opacity="0.05"/>
<stop offset="0.5" stop-color="#DBDBDB"/>
</linearGradient>
<linearGradient id="paint6_linear_893_8191" x1="19.4501" y1="10.8311" x2="16.8906" y2="10.8311" gradientUnits="userSpaceOnUse">
<stop stop-color="#DBDBDB" stop-opacity="0.05"/>
<stop offset="0.5" stop-color="#DBDBDB"/>
</linearGradient>
<linearGradient id="paint7_linear_893_8191" x1="19.4501" y1="10.8311" x2="16.8906" y2="10.8311" gradientUnits="userSpaceOnUse">
<stop stop-color="#DBDBDB" stop-opacity="0.05"/>
<stop offset="0.5" stop-color="#DBDBDB"/>
</linearGradient>
<linearGradient id="paint8_linear_893_8191" x1="23.611" y1="8.31135" x2="15.0137" y2="8.31135" gradientUnits="userSpaceOnUse">
<stop stop-color="#DBDBDB" stop-opacity="0.05"/>
<stop offset="0.5" stop-color="#DBDBDB"/>
</linearGradient>
<linearGradient id="paint9_linear_893_8191" x1="23.611" y1="8.31135" x2="15.0137" y2="8.31135" gradientUnits="userSpaceOnUse">
<stop stop-color="#DBDBDB" stop-opacity="0.05"/>
<stop offset="0.5" stop-color="#DBDBDB"/>
</linearGradient>
<linearGradient id="paint10_linear_893_8191" x1="17.3885" y1="10.635" x2="15.0137" y2="10.635" gradientUnits="userSpaceOnUse">
<stop stop-color="#DBDBDB" stop-opacity="0.05"/>
<stop offset="0.5" stop-color="#DBDBDB"/>
</linearGradient>
<linearGradient id="paint11_linear_893_8191" x1="17.3885" y1="10.635" x2="15.0137" y2="10.635" gradientUnits="userSpaceOnUse">
<stop stop-color="#DBDBDB" stop-opacity="0.05"/>
<stop offset="0.5" stop-color="#DBDBDB"/>
</linearGradient>
<linearGradient id="paint12_linear_893_8191" x1="37.8711" y1="11.0674" x2="29.6211" y2="11.0674" gradientUnits="userSpaceOnUse">
<stop stop-color="#DBDBDB" stop-opacity="0.05"/>
<stop offset="0.5" stop-color="#DBDBDB"/>
</linearGradient>
<linearGradient id="paint13_linear_893_8191" x1="37.8711" y1="11.0674" x2="29.6211" y2="11.0674" gradientUnits="userSpaceOnUse">
<stop stop-color="#DBDBDB" stop-opacity="0.05"/>
<stop offset="0.5" stop-color="#DBDBDB"/>
</linearGradient>
<linearGradient id="paint14_linear_893_8191" x1="37.8711" y1="7.24178" x2="29.6211" y2="7.24178" gradientUnits="userSpaceOnUse">
<stop stop-color="#DBDBDB" stop-opacity="0.05"/>
<stop offset="0.5" stop-color="#DBDBDB"/>
</linearGradient>
<linearGradient id="paint15_linear_893_8191" x1="58.1211" y1="11.0674" x2="43.8711" y2="11.0674" gradientUnits="userSpaceOnUse">
<stop stop-color="#DBDBDB" stop-opacity="0.05"/>
<stop offset="0.5" stop-color="#DBDBDB"/>
</linearGradient>
<linearGradient id="paint16_linear_893_8191" x1="58.1211" y1="11.0674" x2="43.8711" y2="11.0674" gradientUnits="userSpaceOnUse">
<stop stop-color="#DBDBDB" stop-opacity="0.05"/>
<stop offset="0.5" stop-color="#DBDBDB"/>
</linearGradient>
<linearGradient id="paint17_linear_893_8191" x1="58.1211" y1="7.24178" x2="43.8711" y2="7.24178" gradientUnits="userSpaceOnUse">
<stop stop-color="#DBDBDB" stop-opacity="0.05"/>
<stop offset="0.5" stop-color="#DBDBDB"/>
</linearGradient>
<linearGradient id="paint18_linear_893_8191" x1="80.9961" y1="11.0674" x2="64.1211" y2="11.0674" gradientUnits="userSpaceOnUse">
<stop stop-color="#DBDBDB" stop-opacity="0.05"/>
<stop offset="0.5" stop-color="#DBDBDB"/>
</linearGradient>
<linearGradient id="paint19_linear_893_8191" x1="80.9961" y1="11.0674" x2="64.1211" y2="11.0674" gradientUnits="userSpaceOnUse">
<stop stop-color="#DBDBDB" stop-opacity="0.05"/>
<stop offset="0.5" stop-color="#DBDBDB"/>
</linearGradient>
<linearGradient id="paint20_linear_893_8191" x1="80.9961" y1="7.24178" x2="64.1211" y2="7.24178" gradientUnits="userSpaceOnUse">
<stop stop-color="#DBDBDB" stop-opacity="0.05"/>
<stop offset="0.5" stop-color="#DBDBDB"/>
</linearGradient>
<linearGradient id="paint21_linear_893_8191" x1="219" y1="8.08553" x2="216" y2="8.08553" gradientUnits="userSpaceOnUse">
<stop stop-color="#DBDBDB" stop-opacity="0.05"/>
<stop offset="0.5" stop-color="#DBDBDB"/>
</linearGradient>
<linearGradient id="paint22_linear_893_8191" x1="257.625" y1="7.52303" x2="221.25" y2="7.52303" gradientUnits="userSpaceOnUse">
<stop stop-color="#DBDBDB" stop-opacity="0.05"/>
<stop offset="0.5" stop-color="#DBDBDB"/>
</linearGradient>
<linearGradient id="paint23_linear_893_8191" x1="268.688" y1="7.91859" x2="267.375" y2="7.91859" gradientUnits="userSpaceOnUse">
<stop stop-color="#DBDBDB" stop-opacity="0.05"/>
<stop offset="0.5" stop-color="#DBDBDB"/>
</linearGradient>
<linearGradient id="paint24_linear_893_8191" x1="282" y1="7.54359" x2="267.375" y2="7.54359" gradientUnits="userSpaceOnUse">
<stop stop-color="#DBDBDB" stop-opacity="0.05"/>
<stop offset="0.5" stop-color="#DBDBDB"/>
</linearGradient>
<linearGradient id="paint25_linear_893_8191" x1="282" y1="7.91859" x2="280.688" y2="7.91859" gradientUnits="userSpaceOnUse">
<stop stop-color="#DBDBDB" stop-opacity="0.05"/>
<stop offset="0.5" stop-color="#DBDBDB"/>
</linearGradient>
<linearGradient id="paint26_linear_893_8191" x1="254.166" y1="44.5589" x2="213.666" y2="44.5589" gradientUnits="userSpaceOnUse">
<stop stop-color="#DBDBDB" stop-opacity="0.05"/>
<stop offset="0.5" stop-color="#DBDBDB"/>
</linearGradient>
<linearGradient id="paint27_linear_893_8191" x1="254.166" y1="66.8558" x2="213.666" y2="66.8558" gradientUnits="userSpaceOnUse">
<stop stop-color="#DBDBDB" stop-opacity="0.05"/>
<stop offset="0.5" stop-color="#DBDBDB"/>
</linearGradient>
<linearGradient id="paint28_linear_893_8191" x1="254.166" y1="89.1527" x2="213.666" y2="89.1527" gradientUnits="userSpaceOnUse">
<stop stop-color="#DBDBDB" stop-opacity="0.05"/>
<stop offset="0.5" stop-color="#DBDBDB"/>
</linearGradient>
<linearGradient id="paint29_linear_893_8191" x1="254.166" y1="111.45" x2="213.666" y2="111.45" gradientUnits="userSpaceOnUse">
<stop stop-color="#DBDBDB" stop-opacity="0.05"/>
<stop offset="0.5" stop-color="#DBDBDB"/>
</linearGradient>
<linearGradient id="paint30_linear_893_8191" x1="254.166" y1="133.746" x2="213.666" y2="133.746" gradientUnits="userSpaceOnUse">
<stop stop-color="#DBDBDB" stop-opacity="0.05"/>
<stop offset="0.5" stop-color="#DBDBDB"/>
</linearGradient>
<linearGradient id="paint31_linear_893_8191" x1="160.976" y1="91.8158" x2="68.3516" y2="91.8158" gradientUnits="userSpaceOnUse">
<stop stop-color="#DBDBDB" stop-opacity="0.05"/>
<stop offset="0.5" stop-color="#DBDBDB"/>
</linearGradient>
<clipPath id="clip0_893_8191">
<rect width="283" height="135" fill="white"/>
</clipPath>
<clipPath id="clip1_893_8191">
<rect width="300" height="320.625" rx="4.5" fill="white"/>
</clipPath>
<clipPath id="clip2_893_8191">
<rect width="300" height="16.5" fill="white"/>
</clipPath>
</defs>
</svg>
