<?xml version="1.0" encoding="UTF-8"?>
<svg xmlns="http://www.w3.org/2000/svg" id="Calque_1" data-name="Calque 1" viewBox="0 0 2274.5 583.6">
  <defs>
    <style>
      .cls-1 {
        stroke-width: 6px;
      }

      .cls-1, .cls-2 {
        fill: none;
        stroke: #192e50;
        stroke-miterlimit: 10;
      }

      .cls-2 {
        stroke-width: 25.7px;
      }

      .cls-3 {
        fill: #192e50;
        stroke-width: 0px;
      }
    </style>
  </defs>
  <path class="cls-3" d="M1623.7,134.3c-27.5,0-49.9,22.4-49.9,49.8v224.4c0,27.5,22.4,49.7,49.9,49.7h600.9c27.5,0,49.9-22.2,49.9-49.7v-224.4c0-27.5-22.4-49.8-49.9-49.8h-600.9ZM2120.1,184.1c47.7,0,87.4,37.1,87.4,108.1-1.3,65.4-41.8,116.4-106.9,116.4s-83.5-37.5-83.5-108.8,43.8-115.6,102.9-115.6ZM1712.7,186h3.6c32.9,0,72.6,13.5,72.6,67.1s-35.5,69-78.9,69-11.5-.6-17.4-1.9c.7,33.2,1.6,73.9,2.9,84h-35.8v-5.2c0-28.6.8-56.9.4-82.2,0-55.5,2.9-108.4-9-123.2l2.3-5.7,59.1-2h0ZM1898.2,186.5c32.9,0,72.8,13.1,72.8,66.7s-18.4,52.6-45.4,62.7c7.9,3.9,66.3,81.5,75.5,88.4h-44.4c-11.8-24-43.8-58.5-64.8-82.2-5.9,0-11.5-.6-17.4-1.9.7,33.2,1.6,73.9,2.9,84h-35.8v-5.2c0-28.6.8-56.9.4-82.2,0-55.5,2.8-108.4-9-123.2l2.3-5.7c60.5-1.6,61.5-1.6,62.8-1.6ZM1711.4,204.4l-17.7.7c-1,11.8-1,58.1-1,87.7v9.9c4.6,2.3,10.2,3,20.7,3,25.3,0,46.4-17.4,46.4-45.4,0-41.7-27.7-56.6-48.4-55.9ZM1893.2,204.4l-17.7.7c-1,11.8-1,58.1-1,87.7v9.9c4.6,2.3,10.2,3,20.7,3,25.3,0,46.4-17.4,46.4-45.4,0-42.4-27.7-56.6-48.4-55.9ZM2108.7,204.4c-31.9,0-56,38.1-56,84.8s28,99.7,63.8,99.7,55.2-38.5,55.2-85.5-29.2-99-63.1-99Z"/>
  <path class="cls-3" d="M670.9,184.1c47.7,0,87.5,37.1,87.5,108.1-1.3,65.4-41.8,116.3-106.9,116.3s-83.5-37.5-83.5-108.8,43.7-115.7,102.9-115.7h0ZM667.3,388.8c31.6,0,55.2-38.5,55.2-85.4s-29.3-98.9-63.1-98.9-55.9,38.1-55.9,84.8,27.9,99.6,63.8,99.6"/>
  <path class="cls-3" d="M961.2,354.3c-11.8,21.7-39.8,31.9-58.9,31.9-49.6,0-73.6-48.3-73.6-99.6s19.7-82.8,65.1-82.8,42.1,24.6,42.1,33.2l5.3,4.3c11.5-4.9,20.7-23.3,20.7-29.9-7.2-14.8-35.8-27.3-64.1-27.3-63.1,0-105.2,48.3-105.2,116.7s33.5,107.8,95.3,107.8,74.6-18.7,74.6-47.3-.3-4.9-1.3-6.9"/>
  <path class="cls-3" d="M1077.9,369.1c-3.3,6.9-18.4,15.8-34.9,15.8s-25.6-13.1-25.6-24.3c0-31.9,61.2-32.5,61.5-32.5,0,0-1,34.2-1,41.1h0ZM1112.8,382.6c-3-6.2-4.6-22.3-4.6-34.2,0-50,.6-56.9.6-63.8,0-33.5-23.3-47-59.5-47s-52.6,10.5-52.6,30.2,7.6,14.8,15.8,14.8,7.9-1,11.2-3.3c0-1-.3-2.3-.3-3.3,0-11.8,9.9-23.3,25.3-23.3,26.6,0,30.9,21.7,30.9,47.7s-.3,13.1-.7,19.7c-8.2-2-16.4-3.3-24.7-3.3-35.5,0-66.4,17.4-66.4,49.3s14.1,42.4,45.1,42.4,40.8-12.2,47-32.2c0,4.9,3,32.2,25,32.2s24.3-4.3,30.6-8.2v-5.9c-1,0-16.4.7-22.7-11.8"/>
  <path class="cls-3" d="M1405.7,404.3c-5.9-27.9-2.6-113.7-3.3-127.5-.7-20-16.4-39.1-39.5-39.1s-50.3,19.1-60.5,34.5c-3-18.4-18.1-34.5-39.1-34.5-32.2,0-53.3,21-63.1,37.5,1-6.2,1.6-9.2,1.6-9.2,1-15.1-1-27.6-16.8-27.6s-23.3,4.6-29.3,8.2v5.9s17.4,1.3,16.8,39.8l-1.3,110.8v1.3h32.9c-1.3-6.2-2.6-14.8-2.6-24.6-.7-34.8-.7-80.2-.7-93.7,7.2-8.5,22.4-22.3,46.4-22.3,21,.3,27,14.5,26.6,46l-.7,78.9c-.3,5.9,0,11.2.7,15.8h32.2c-5.6-25-3.6-101.9-3.3-121.9,7.6-7.9,22-18.7,44.1-18.7,21,.3,27,14.5,26.6,46l-.7,78.9c-.3,5.9,0,11.2.7,15.8h32.2"/>
  <path class="cls-3" d="M1497.8,404.3c-.7-3.6-1.6-8.2-2-13.8-1.6-36.5-2.6-133.4.3-181.1,2.3-35.5,2.6-53.2-19.7-53.2s-27,8.2-27,8.2v5.9c9.5,1.3,15.4,11.2,15.4,29.6,0,0,.7,118,0,199.5v4.9h32.9"/>
  <path class="cls-2" d="M316.8,522c.2-.1.5-.3.7-.4l94.3-54.4c4-2.3,6.4-6.5,6.4-11.1V127.4c0-4.6-2.4-8.8-6.4-11.1L247.1,21.3c-19.4-11.2-43.3-11.2-62.8,0l-69.5,40c-.2.1-.4.2-.6.3L19.3,116.4c-4,2.3-6.4,6.5-6.4,11.1v328.5c0,4.6,2.5,8.8,6.4,11.1l94.3,54.4c.2.2.5.3.7.4l69.8,40.3c19.4,11.2,43.4,11.2,62.8,0l69.8-40.3Z"/>
  <path class="cls-1" d="M310.4,291.4l-94.8,54.8v-83.3c0-14.5,10.1-32.1,22.7-39.3l68.4-39.5c2.1-1.2,3.7-.2,3.7,2.1v105.2Z"/>
  <path class="cls-3" d="M310.4,402.7l-93.5,54c-.8.4-1.4,0-1.4-.8v-107.9s94.8-54.8,94.8-54.8v109.5Z"/>
  <path class="cls-1" d="M310.4,182.3l-69.8-40.3c-15.5-8.9-34.5-8.9-50,0l-44.8,25.9c-15.5,8.9-25,25.4-25,43.3v189.8l94.2,54.4c.3.2.6,0,.6-.3v-189.1c0-17.9,9.5-34.4,25-43.3l69.8-40.4Z"/>
  <path class="cls-3" d="M410.3,243.1l-99.8-57.6v217.6s99.7,57.6,99.7,57.6v-217.6Z"/>
  <rect class="cls-3" x="306.4" y="291.1" width="13.2" height="110"/>
  <polygon class="cls-3" points="316.4 182.2 410.3 234 410.3 251.2 306.7 184 316.4 182.2"/>
</svg>
