<?xml version="1.0" encoding="utf-8"?>
<!-- Generator: Adobe Illustrator 27.4.0, SVG Export Plug-In . SVG Version: 6.00 Build 0)  -->
<svg version="1.1" id="Layer_1" xmlns="http://www.w3.org/2000/svg" xmlns:xlink="http://www.w3.org/1999/xlink" x="0px" y="0px"
	 width="1045px" height="164px" viewBox="0 0 1045 164" style="enable-background:new 0 0 1045 164;" xml:space="preserve">
<style type="text/css">
	.st0{fill:#273440;}
	.st1{fill:#3C7AB5;}
</style>
<g>
	<g>
		<path class="st0" d="M221.4021454,136.8638763c-7.0400391,0.3399658-12.7900391,0.5100098-17.2600098,0.5100098
			c-5.960022,0-10.6000366-0.8400269-13.9199829-2.5400391c-3.3200073-1.6900024-5.6500244-4.6699829-7-8.9399948
			c-0.5599976-1.7599487-1.0100098-3.8199463-1.3300171-6.1900024h33.2199707
			c12.3200073,0,21.0200195-2.2399902,26.1000366-6.6999512c5.0700073-4.4700317,7.539978-11.3099976,7.4099731-20.5200195
			c-0.1400146-11.5100098-3.9599609-20.1699829-11.4799805-26c-7.5100098-5.8200073-20-8.7299805-37.4700317-8.7299805
			c-12.7299805,0-23.0199585,1.6999512-30.8699951,5.0799561c-7.8599854,3.3800049-13.539978,8.9300537-17.0700073,16.6500244
			c-3.5199585,7.7199707-5.2699585,18.2199707-5.2699585,31.4899902c0,11.9100342,1.75,21.7600021,5.2699585,29.5499802
			c3.5300293,7.7900391,9.25,13.5400391,17.1700439,17.2600098c7.9199829,3.7300415,18.4500122,5.5900269,31.5799561,5.5900269
			c5.1500244,0,10.4300537-0.2399902,15.8400269-0.710022c5.4199829-0.4799805,10.6699829-1.289978,15.75-2.4400024
			c5.0700073-1.1499634,9.710022-2.7399902,13.9099731-4.7700195l-3.0499878-20.5199585
			C235.6221161,135.8838959,228.4421234,136.5338593,221.4021454,136.8638763z M182.9121552,90.2538986
			c1.1499634-3.9299927,3.1199951-6.5700073,5.8899536-7.9200439c2.7800293-1.3599854,6.7399902-2.0299683,11.8900146-2.0299683
			c5.6799927,0,9.710022,0.8099976,12.0800171,2.4299927c2.3699951,1.6300049,3.6199951,4.6099854,3.7600098,8.9400024
			c0,3.5200195-0.6500244,6.1300049-1.9299927,7.8200073c-1.2900391,1.7000122-4.2400513,2.539978-8.8400269,2.539978h-24.4500122
			C181.5321503,97.0739059,182.0621185,93.153862,182.9121552,90.2538986z"/>
		<path class="st0" d="M370.282135,85.5838547v75.350029h-33.3099976V95.9338913
			c0-3.7800293-0.710022-6.4299927-2.1300049-7.9199829c-1.4200439-1.4900513-3.960022-2.2300415-7.6199951-2.2300415
			c-3.9300537,0-8.0200195,0.6799927-12.2900391,2.0300293c-3.4500122,1.0999756-7.5499878,2.7299805-12.289978,4.8899536
			v68.2300339h-33.3099976V60.3938522h26.6099854l2.9299927,15.1200562c6.6400146-5.6700439,13.4800415-10,20.5300293-12.9900513
			c7.5199585-3.1799927,14.8599854-4.7699585,22.039978-4.7699585
			C360.6720886,57.7538986,370.282135,67.0338669,370.282135,85.5838547z"/>
		<path class="st0" d="M445.2308044,18.1473618c7.0395203,0,14.7572937,0.3733845,23.1567383,1.1167297
			c8.3925781,0.746769,16.5180054,2.3362255,24.3727722,4.7717915l-2.0313416,22.7490826
			c-6.0940552-0.2671928-13.2740173-0.4727249-21.5295715-0.6097488
			c-8.2624512-0.1301689-16.3844299-0.2021065-24.3728027-0.2021065c-3.3878784,0-6.2961731,0.1370201-8.7351685,0.4076385
			c-2.4355469,0.2706184-4.3675537,0.7433472-5.7891541,1.4216042c-1.4216309,0.6782608-2.4355774,1.7949905-3.0453186,3.3501892
			c-0.6097717,1.5586243-0.9146423,3.6242332-0.9146423,6.1968231c0,3.9256783,1.0482178,6.8716507,3.1481018,8.8344955
			c2.0964355,1.9628372,5.7891846,3.8263397,11.0679321,5.5836487l26.4075928,9.344902
			c11.3728027,4.0626984,19.2584229,9.3414764,23.6602783,15.8431702c4.398407,6.4982681,6.6010132,15.0278931,6.6010132,25.5922852
			c0,7.8547974-0.9146118,14.4558258-2.7404175,19.8031158c-1.8292542,5.350708-4.84375,9.5435791-9.0400391,12.5923157
			c-4.1962891,3.0453186-9.7182922,5.2479553-16.5522461,6.6010437c-6.8408508,1.3530884-15.2026062,2.0313416-25.0853271,2.0313416
			c-4.6039429,0-11.3077393-0.3048706-20.1079712-0.9146118c-8.8036804-0.6097565-18.8233948-2.1992035-30.0592041-4.7717896
			l2.0313416-24.3762207c8.1219788,0.1370239,15.1957397,0.3048706,21.2247009,0.5104065
			c6.0221252,0.2021027,11.2734985,0.3391266,15.7404175,0.4042053c4.4669189,0.0719452,8.1253967,0.1027679,10.9685974,0.1027679
			c5.1452026,0,9.0708618-0.3048706,11.7804871-0.9146118c2.7061768-0.6097565,4.6347656-1.7264862,5.7891846-3.3501892
			c1.1475525-1.6271362,1.7264709-3.994194,1.7264709-7.1114502c0-2.8432083-0.4076538-5.1074905-1.2194824-6.8031387
			c-0.8118591-1.6922226-2.1341248-3.076149-3.9599609-4.1620483c-1.8292236-1.0824738-4.3024902-2.0998611-7.4128723-3.0487366
			l-28.2333984-10.3588638c-10.9686279-4.1928787-18.7206421-9.4750748-23.256073-15.8431778
			c-4.5388489-6.3612442-6.8065491-14.7572708-6.8065491-25.1846466c0-7.9883842,1.0173645-14.5894203,3.0487366-19.8031082
			c2.0313416-5.2102623,5.1451721-9.242136,9.3414612-12.0853424c4.1963196-2.8432083,9.6497803-4.8403034,16.3501587-5.9912891
			C427.4590454,18.7262802,435.6152954,18.1473618,445.2308044,18.1473618z"/>
		<path class="st0" d="M589.6421509,136.8638763c-7.039978,0.3399658-12.7999878,0.5100098-17.2700195,0.5100098
			c-5.9599609,0-10.5899658-0.8400269-13.9099731-2.5400391c-3.3200073-1.6900024-5.6600342-4.6699829-7-8.9399948
			c-0.5599976-1.7599487-1.0100098-3.8199463-1.3300171-6.1900024h33.210022
			c12.3200073,0,21.0199585-2.2399902,26.0999756-6.6999512c5.0800171-4.4700317,7.5499878-11.3099976,7.4199829-20.5200195
			c-0.1399536-11.5100098-3.9599609-20.1699829-11.4799805-26c-7.5200195-5.8200073-20.0100098-8.7299805-37.4799805-8.7299805
			c-12.7200317,0-23.0200195,1.6999512-30.8699951,5.0799561c-7.8500366,3.3800049-13.5400391,8.9300537-17.0599976,16.6500244
			c-3.5200195,7.7199707-5.2800293,18.2199707-5.2800293,31.4899902c0,11.9100342,1.7600098,21.7600021,5.2800293,29.5499802
			c3.5199585,7.7900391,9.2399902,13.5400391,17.1599731,17.2600098c7.9299927,3.7300415,18.4500122,5.5900269,31.5900269,5.5900269
			c5.1399536,0,10.4199829-0.2399902,15.8399658-0.710022c5.4199829-0.4799805,10.6600342-1.289978,15.7399902-2.4400024
			c5.0800171-1.1499634,9.710022-2.7399902,13.9100342-4.7700195l-3.0400391-20.5199585
			C603.8621216,135.8838959,596.6821289,136.5338593,589.6421509,136.8638763z M551.1521606,90.2538986
			c1.1499634-3.9299927,3.1099854-6.5700073,5.8899536-7.9200439c2.7700195-1.3599854,6.7300415-2.0299683,11.8800049-2.0299683
			c5.6900024,0,9.7200317,0.8099976,12.0900269,2.4299927c2.3599854,1.6300049,3.6199951,4.6099854,3.7600098,8.9400024
			c0,3.5200195-0.6500244,6.1300049-1.9400024,7.8200073c-1.2800293,1.7000122-4.2299805,2.539978-8.8300171,2.539978h-24.460022
			C549.762146,97.0739059,550.302124,93.153862,551.1521606,90.2538986z"/>
		<path class="st0" d="M712.5221558,57.7538986l-3.0499878,30.4699707h-8.9400024c-4.3300171,0-9,0.5400391-14.0100098,1.6199951
			c-4.2399902,0.9200439-9.4500122,2.3300171-15.6400146,4.210022v66.8799973h-33.3099976V60.3938522h26l3.0599976,14.9800415
			c6.4500122-5.6000366,13.0100098-9.8800049,19.6900024-12.8500366c7.1699829-3.1799927,14.1500244-4.7699585,20.9199829-4.7699585
			H712.5221558z"/>
		<path class="st0" d="M832.9688721,60.39468l-32.2960815,92.6200409c-0.8118286,2.4355621-2.164917,4.364151-4.0592651,5.7857513
			c-1.8977661,1.4216003-4.1346436,2.1341095-6.7037964,2.1341095h-28.6376343
			c-2.5759888,0-4.8094482-0.7125092-6.7037964-2.1341095c-1.8977661-1.4216003-3.2508545-3.3501892-4.0626831-5.7857513
			L718.2095337,60.39468h35.1392822l16.8571167,60.9336967c0.8153076,2.9802246,1.5244141,6.0597992,2.1341553,9.2421341
			c0.6097412,3.1823425,1.2503052,6.1933899,1.9285889,9.0366058h2.6410522
			c0.6748657-2.9768066,1.3531494-6.0221252,2.0313721-9.1393738c0.6748657-3.1138229,1.3530884-6.1591415,2.0313721-9.1393661
			L797.6275024,60.39468H832.9688721z"/>
		<path class="st0" d="M897.5541992,57.7535782c17.4703369,0,29.9598999,2.9151459,37.4755249,8.7351532
			c7.515686,5.8234406,11.338623,14.4900818,11.475647,25.9965057c0.1335449,9.2113037-2.3362427,16.0452805-7.4129028,20.515625
			c-5.0800781,4.4669189-13.7810059,6.703804-26.0993042,6.703804h-55.8569946v-17.6724167h46.512085
			c4.6005249,0,7.5465088-0.8426895,8.8345337-2.5383377c1.2880249-1.6922226,1.9320068-4.2990646,1.9320068-7.8205338
			c-0.1370239-4.3333206-1.3908081-7.3101196-3.7578125-8.9372559c-2.3704834-1.6237106-6.3989258-2.4355698-12.0853882-2.4355698
			c-5.1485596,0-9.1085205,0.6782608-11.8832397,2.0313492c-2.7746582,1.353096-4.7409668,3.994194-5.8884888,7.9198761
			c-1.1544189,3.9291077-1.7265015,9.749115-1.7265015,17.4668808c0,7.8547897,0.6748657,13.9145889,2.0313721,18.1793976
			c1.3496704,4.2648163,3.6859131,7.2450409,7.005249,8.9372711c3.315918,1.6956329,7.9541016,2.5383301,13.9146118,2.5383301
			c4.4669189,0,10.2218018-0.1678619,17.2647705-0.5069885c7.0394897-0.3357086,14.2160034-0.9831238,21.529541-1.9320068
			l3.0453491,20.515625c-4.199707,2.0313416-8.8345337,3.6242371-13.9111938,4.7717896
			c-5.0800781,1.1509857-10.3280029,1.9628448-15.7438354,2.4389954c-5.4157715,0.4727173-10.697998,0.7125092-15.8397217,0.7125092
			c-13.1369629,0-23.6636963-1.8634949-31.5869751-5.5870667c-7.9199219-3.7235718-13.640564-9.4750824-17.1620483-17.2647858
			c-3.5214233-7.7862701-5.2787476-17.6347275-5.2787476-29.5522232c0-13.2705765,1.7573242-23.7630386,5.2787476-31.48423
			c3.5214844-7.7177658,9.2078857-13.2671585,17.0626831-16.6550293
			C874.5345459,59.4492264,884.8248901,57.7535782,897.5541992,57.7535782z"/>
		<path class="st0" d="M993.2196045,60.39468l4.0626831,19.9058723l3.2474365,2.8432083v77.7908249h-33.3100586V60.39468
			H993.2196045z M1042.1706543,57.7535782l-3.0487061,30.4668503h-8.9372559c-4.333374,0-9.0057373,0.5446625-14.013916,1.6237106
			c-5.0115967,1.0858994-11.3728638,2.8466339-19.0940552,5.282196l-2.2334595-18.4842682
			c6.9059448-6.2242279,13.9454346-10.9309311,21.1254272-14.1132698c7.1730957-3.1823387,14.147522-4.775219,20.9198608-4.775219
			H1042.1706543z"/>
	</g>
	<polygon class="st1" points="65.0127487,113.5095901 72.0282745,128.2771301 56.5242348,160.9346161 42.5274353,160.9346161 	"/>
	<polygon class="st1" points="59.155056,20.7996273 72.0985031,48.8257713 65.0487137,64.0146637 45.1240005,20.7996273 	"/>
	<polygon class="st1" points="115.4197235,89.0386581 152.0046082,160.9478149 138.0797424,160.9478149 136.4663086,157.7560577 
		101.4931488,89.0035477 145.5868378,0.0120221 159.4414825,0.0120221 	"/>
	<polygon class="st0" points="93.6562653,89.0617523 130.2068939,160.935791 95.2696991,160.935791 65.8407974,98.9889908 
		65.8048325,98.8836594 64.191391,98.8836594 64.155426,98.9889908 34.7265205,160.935791 0,160.935791 36.5848808,89.0617523 
		36.5506248,89.0266342 2.8757498,20.8008003 37.3573418,20.8008003 63.9807243,78.4682312 66.0155029,78.4682312 
		66.0497589,78.4682312 102.495903,0 137.7499542,0 93.6220093,89.0266342 	"/>
	<g>
		<path class="st0" d="M1022.0831299,144.9406891v3.3227844h-14.3530884v-3.3227844H1022.0831299z M1017.0749512,144.9406891
			v15.9938965h-4.336731v-15.9938965H1017.0749512z M1042.0780029,144.9406891c0.9523926,0,1.4730225,0.5172577,1.5587158,1.5552063
			l0.5446777,14.4386902h-3.956543l-0.5892334-12.7533264h-0.3768311l-2.4012451,9.0503082
			c-0.1678467,0.8974915-0.7296143,1.3462372-1.6820068,1.3462372h-2.5690918c-0.9558105,0-1.5141602-0.4487457-1.6820068-1.3462372
			l-2.4012451-9.0503082h-0.4213867l-0.50354,12.7533264h-3.956543l0.5892334-14.4386902
			c0.0548096-1.0379486,0.5617676-1.5552063,1.5140381-1.5552063h3.9976807c0.4487305,0,0.8153076,0.1096191,1.0961914,0.3357086
			s0.4624023,0.5617981,0.5480957,1.0105438l1.9354248,7.1970825c0.0855713,0.3939362,0.1540527,0.7844391,0.2088623,1.1783905
			c0.0583496,0.3939362,0.1268311,0.7878723,0.2124023,1.1783752h0.2946777
			c0.1096191-0.3905029,0.1951904-0.7912903,0.253418-1.1989288c0.0548096-0.4076538,0.1234131-0.7913055,0.2089844-1.1578369
			l1.8087158-7.1970825c0.1712646-0.8975067,0.7159424-1.3462524,1.6442871-1.3462524H1042.0780029z"/>
	</g>
</g>
</svg>
