<?xml version="1.0" encoding="utf-8"?>
<!-- Generator: Adobe Illustrator 16.0.0, SVG Export Plug-In . SVG Version: 6.00 Build 0)  -->
<!DOCTYPE svg PUBLIC "-//W3C//DTD SVG 1.1 Basic//EN" "http://www.w3.org/Graphics/SVG/1.1/DTD/svg11-basic.dtd">
<svg version="1.1" baseProfile="basic" id="Layer_1"
	 xmlns="http://www.w3.org/2000/svg" xmlns:xlink="http://www.w3.org/1999/xlink" x="0px" y="0px" width="1635.92px"
	 height="627.66px" viewBox="0 0 1635.92 627.66" xml:space="preserve">
<polygon style="fill:#C4002A;" points="413.629,1229.62 272.674,1229.62 525.655,1067.393 585.358,963.983 103.689,963.983 
	180.963,1097.827 275.416,1037.258 416.373,1037.258 219.05,1163.794 344.523,1381.12 442.789,1210.921 "/>
<g>
	<path style="fill:#C4002A;" d="M345.106,1486.906c-40.771,0-77.291-21.088-97.682-56.404l-232.13-402.053
		c-20.392-35.316-20.392-77.482,0-112.798c20.391-35.316,56.91-56.405,97.693-56.405h464.25c40.782,0,77.302,21.088,97.693,56.405
		c20.391,35.316,20.391,77.482,0,112.798l-9.977-5.759l9.977,5.759l-232.131,402.053
		C422.408,1465.818,385.888,1486.906,345.106,1486.906z M112.987,882.28c-32.448,0-61.511,16.781-77.741,44.888
		c-16.229,28.106-16.229,61.657,0,89.764l232.13,402.053c16.219,28.107,45.281,44.888,77.729,44.888
		c32.459,0,61.522-16.781,77.741-44.888l232.13-402.053c16.229-28.107,16.229-61.657,0-89.764
		c-16.219-28.107-45.281-44.888-77.74-44.888H112.987z"/>
</g>
<polygon style="fill:#C4002A;" points="2019.81,2478.568 1947.63,2478.568 2077.176,2395.496 2107.749,2342.542 1861.097,2342.542 
	1900.667,2411.081 1949.034,2380.064 2021.215,2380.064 1920.17,2444.86 1984.422,2556.148 2034.742,2468.993 "/>
<g>
	<path style="fill:#C4002A;" d="M1984.721,2610.318c-20.878,0-39.579-10.799-50.021-28.883l-118.869-205.882
		c-10.441-18.085-10.441-39.677,0-57.761c10.442-18.084,29.143-28.884,50.026-28.884h237.731c20.884,0,39.584,10.799,50.026,28.884
		c10.441,18.084,10.441,39.676,0,57.761l-5.108-2.949l5.108,2.949l-118.869,205.882
		C2024.305,2599.52,2005.605,2610.318,1984.721,2610.318z M1865.858,2300.704c-16.616,0-31.498,8.593-39.809,22.986
		s-8.311,31.573,0,45.966l118.869,205.882c8.305,14.393,23.188,22.985,39.804,22.985c16.621,0,31.504-8.593,39.809-22.985
		l118.869-205.882c8.311-14.393,8.311-31.573,0-45.966c-8.305-14.393-23.188-22.986-39.81-22.986H1865.858z"/>
</g>
<g>
	<g>
		<path style="fill:#121322;" d="M1165.446,1272.56c-54.353,0-98.414-44.062-98.414-98.413c0-54.352,44.061-98.413,98.414-98.413
			c35.101,0,65.874,18.395,83.281,46.057l-125.904,37.188l12.921,43.746l127.646-37.703c0.003,0.032,0.01,0.062,0.013,0.094
			l50.245-14.84c-11.462-71.621-73.351-126.404-148.201-126.404c-82.996,0-150.276,67.28-150.276,150.275
			c0,82.995,67.281,150.275,150.276,150.275c73.758,0,134.981-53.182,147.722-123.264l-60.161,17.77
			C1236.7,1250.742,1203.653,1272.56,1165.446,1272.56z"/>
		<path style="fill:#121322;" d="M1485.645,1023.871c-82.995,0-150.276,67.28-150.276,150.275
			c0,82.995,67.281,150.275,150.276,150.275c82.995,0,150.275-67.28,150.275-150.275
			C1635.92,1091.151,1568.64,1023.871,1485.645,1023.871z M1485.645,1272.56c-54.353,0-98.414-44.062-98.414-98.413
			c0-54.352,44.062-98.413,98.414-98.413c54.352,0,98.413,44.061,98.413,98.413
			C1584.058,1228.498,1539.997,1272.56,1485.645,1272.56z"/>
		<polygon style="fill:#121322;" points="1001.546,1036.477 761.059,1036.477 761.059,1091.666 899.024,1091.666 745.667,1311.816 
			1001.546,1311.816 1001.546,1256.635 851.388,1256.635 		"/>
	</g>
</g>
<g>
	<path style="fill:#231F20;" d="M2790.797,2495.054c1.111,0,2.068,0.4,2.869,1.199c0.799,0.801,1.2,1.758,1.2,2.87
		c0,1.113-0.418,2.122-1.253,3.025c-5.287,4.592-11.514,6.887-18.677,6.887c-7.862,0-14.574-2.781-20.139-8.348
		c-5.566-5.564-8.348-12.276-8.348-20.138c0-7.931,2.781-14.677,8.348-20.243c5.564-5.564,12.276-8.348,20.139-8.348
		c7.163,0,13.39,2.295,18.677,6.887c0.903,0.835,1.356,1.878,1.356,3.13c0,1.114-0.4,2.071-1.199,2.87
		c-0.801,0.801-1.758,1.2-2.87,1.2c-0.975,0-1.844-0.277-2.608-0.835c-3.756-3.407-8.209-5.113-13.355-5.113
		c-5.635,0-10.435,2-14.399,6c-3.966,4.001-5.948,8.817-5.948,14.452s1.982,10.435,5.948,14.399
		c3.965,3.965,8.765,5.947,14.399,5.947c5.146,0,9.6-1.669,13.355-5.009C2788.987,2495.332,2789.822,2495.054,2790.797,2495.054z"/>
	<path style="fill:#231F20;" d="M2803.527,2456.028c0-1.112,0.399-2.069,1.2-2.869c0.799-0.799,1.756-1.2,2.869-1.2
		c1.112,0,2.069,0.401,2.869,1.2c0.8,0.8,1.2,1.757,1.2,2.869v4.487c5.703-5.703,12.485-8.556,20.348-8.556
		c4.033,0,7.686,0.696,10.956,2.087c0.626,0.208,1.216,0.558,1.773,1.043c0.765,0.835,1.147,1.81,1.147,2.922s-0.4,2.07-1.199,2.869
		c-0.801,0.801-1.758,1.2-2.87,1.2c-0.696,0-1.288-0.139-1.773-0.417c-2.436-1.043-5.113-1.565-8.034-1.565
		c-5.635,0-10.435,2-14.399,6c-3.966,4.001-5.948,8.817-5.948,14.452v24.416c0,1.113-0.4,2.07-1.2,2.869
		c-0.8,0.801-1.757,1.2-2.869,1.2c-1.113,0-2.07-0.399-2.869-1.2c-0.801-0.799-1.2-1.756-1.2-2.869V2456.028z"/>
	<path style="fill:#231F20;" d="M2896.707,2495.157c1.111,0,2.068,0.401,2.869,1.2c0.799,0.801,1.2,1.758,1.2,2.87
		c0,1.113-0.384,2.086-1.148,2.921c-5.287,4.592-11.514,6.887-18.677,6.887c-7.862,0-14.574-2.781-20.139-8.348
		c-5.566-5.564-8.348-12.276-8.348-20.138c0-7.931,2.781-14.677,8.348-20.243c5.564-5.564,12.276-8.348,20.139-8.348
		c7.93,0,14.676,2.783,20.242,8.348c5.564,5.566,8.348,12.312,8.348,20.243c0,1.113-0.401,2.07-1.2,2.869
		c-0.8,0.801-1.757,1.2-2.869,1.2h-44.45c0.694,3.896,2.538,7.34,5.53,10.33c3.965,3.965,8.765,5.947,14.399,5.947
		c5.146,0,9.529-1.634,13.146-4.904C2894.862,2495.437,2895.731,2495.157,2896.707,2495.157z M2900.984,2476.48
		c-0.695-3.966-2.54-7.443-5.529-10.435c-3.966-3.965-8.801-5.948-14.504-5.948c-5.635,0-10.435,1.983-14.399,5.948
		c-2.992,2.991-4.836,6.469-5.53,10.435H2900.984z"/>
	<path style="fill:#231F20;" d="M2966.617,2500.479c-5.705,5.704-12.521,8.556-20.451,8.556c-7.862,0-14.574-2.781-20.139-8.348
		c-5.566-5.564-8.348-12.276-8.348-20.138c0-7.931,2.781-14.677,8.348-20.243c5.564-5.564,12.276-8.348,20.139-8.348
		c7.93,0,14.676,2.783,20.242,8.348c5.564,5.566,8.348,12.312,8.348,20.243v24.416c0,1.113-0.401,2.07-1.2,2.869
		c-0.8,0.801-1.757,1.2-2.869,1.2c-1.113,0-2.07-0.399-2.869-1.2c-0.801-0.799-1.2-1.756-1.2-2.869V2500.479z M2946.166,2460.098
		c-5.635,0-10.435,2-14.399,6c-3.966,4.001-5.948,8.817-5.948,14.452s1.982,10.435,5.948,14.399
		c3.965,3.965,8.765,5.947,14.399,5.947c5.703,0,10.538-1.982,14.504-5.947c3.965-3.965,5.947-8.765,5.947-14.399
		s-1.982-10.451-5.947-14.452C2956.704,2462.098,2951.869,2460.098,2946.166,2460.098z"/>
	<path style="fill:#231F20;" d="M3006.71,2500.896c1.175,0,2.159,0.401,2.955,1.2c0.795,0.801,1.193,1.758,1.193,2.869
		c0,1.113-0.399,2.07-1.195,2.869c-0.797,0.801-1.783,1.2-2.961,1.2c-13.508,0-20.261-6.782-20.261-20.347v-28.591h-4.069
		c-1.113,0-2.07-0.399-2.869-1.2c-0.801-0.799-1.2-1.756-1.2-2.87c0-1.112,0.399-2.069,1.2-2.869c0.799-0.799,1.756-1.2,2.869-1.2
		h4.069v-20.347c0-1.112,0.399-2.069,1.2-2.869c0.799-0.799,1.756-1.2,2.869-1.2c1.112,0,2.069,0.401,2.87,1.2
		c0.799,0.8,1.199,1.757,1.199,2.869v20.347h8.243c1.112,0,2.069,0.401,2.87,1.2c0.799,0.8,1.199,1.757,1.199,2.869
		c0,1.114-0.4,2.071-1.199,2.87c-0.801,0.8-1.758,1.2-2.87,1.2h-8.243v28.591C2994.581,2496.827,2998.625,2500.896,3006.71,2500.896
		z"/>
	<path style="fill:#231F20;" d="M3032.353,2439.751c0,1.392-0.506,2.592-1.514,3.6c-1.009,1.009-2.209,1.513-3.6,1.513
		c-1.393,0-2.592-0.504-3.6-1.513c-1.009-1.007-1.513-2.208-1.513-3.6c0-1.391,0.504-2.591,1.513-3.6
		c1.008-1.007,2.207-1.513,3.6-1.513c1.391,0,2.591,0.505,3.6,1.513C3031.847,2437.16,3032.353,2438.36,3032.353,2439.751z
		 M3023.17,2456.028c0-1.112,0.399-2.069,1.2-2.869c0.799-0.799,1.756-1.2,2.869-1.2c1.112,0,2.069,0.401,2.87,1.2
		c0.799,0.8,1.199,1.757,1.199,2.869v48.938c0,1.113-0.4,2.07-1.199,2.869c-0.801,0.801-1.758,1.2-2.87,1.2
		c-1.113,0-2.07-0.399-2.869-1.2c-0.801-0.799-1.2-1.756-1.2-2.869V2456.028z"/>
	<path style="fill:#231F20;" d="M3072.943,2507.888c-0.766,0.767-1.739,1.147-2.921,1.147c-1.185,0-2.157-0.381-2.922-1.147
		c-0.209-0.209-0.418-0.556-0.626-1.044l-22.643-49.25c-0.209-0.486-0.313-1.008-0.313-1.565c0-1.112,0.399-2.069,1.2-2.869
		c0.799-0.799,1.756-1.2,2.869-1.2c1.112,0,2.087,0.383,2.922,1.148c0.277,0.279,0.521,0.662,0.73,1.147l18.782,40.903
		l18.781-40.903c0.209-0.486,0.452-0.869,0.73-1.147c0.835-0.765,1.809-1.148,2.922-1.148c1.111,0,2.068,0.401,2.869,1.2
		c0.799,0.8,1.2,1.757,1.2,2.869c0,0.558-0.104,1.08-0.313,1.565l-22.643,49.25
		C3073.361,2507.332,3073.152,2507.679,3072.943,2507.888z"/>
	<path style="fill:#231F20;" d="M3146.505,2495.157c1.111,0,2.068,0.401,2.869,1.2c0.799,0.801,1.2,1.758,1.2,2.87
		c0,1.113-0.384,2.086-1.148,2.921c-5.287,4.592-11.514,6.887-18.677,6.887c-7.862,0-14.574-2.781-20.139-8.348
		c-5.566-5.564-8.348-12.276-8.348-20.138c0-7.931,2.781-14.677,8.348-20.243c5.564-5.564,12.276-8.348,20.139-8.348
		c7.93,0,14.676,2.783,20.242,8.348c5.564,5.566,8.348,12.312,8.348,20.243c0,1.113-0.401,2.07-1.2,2.869
		c-0.8,0.801-1.757,1.2-2.869,1.2h-44.45c0.694,3.896,2.538,7.34,5.53,10.33c3.965,3.965,8.765,5.947,14.399,5.947
		c5.146,0,9.529-1.634,13.146-4.904C3144.661,2495.437,3145.53,2495.157,3146.505,2495.157z M3150.783,2476.48
		c-0.695-3.966-2.54-7.443-5.529-10.435c-3.966-3.965-8.801-5.948-14.504-5.948c-5.635,0-10.435,1.983-14.399,5.948
		c-2.992,2.991-4.836,6.469-5.53,10.435H3150.783z"/>
</g>
<g>
	<path style="fill:#121322;" d="M2412.708,2513.801c-28.857,0-52.25-23.393-52.25-52.25s23.393-52.25,52.25-52.25
		c18.636,0,34.974,9.767,44.216,24.452l-66.845,19.744l6.86,23.226l67.77-20.017c0.001,0.017,0.005,0.033,0.007,0.05l26.676-7.879
		c-6.085-38.025-38.943-67.111-78.684-67.111c-44.063,0-79.785,35.721-79.785,79.785s35.722,79.785,79.785,79.785
		c39.16,0,71.665-28.235,78.429-65.443l-31.94,9.434C2450.54,2502.218,2432.994,2513.801,2412.708,2513.801z"/>
	<path style="fill:#121322;" d="M2582.709,2381.767c-44.063,0-79.785,35.721-79.785,79.785s35.722,79.785,79.785,79.785
		c44.064,0,79.785-35.721,79.785-79.785S2626.774,2381.767,2582.709,2381.767z M2582.709,2513.801
		c-28.857,0-52.25-23.393-52.25-52.25s23.393-52.25,52.25-52.25c28.856,0,52.25,23.393,52.25,52.25
		S2611.566,2513.801,2582.709,2513.801z"/>
	<polygon style="fill:#121322;" points="2325.691,2388.459 2198.011,2388.459 2198.011,2417.761 2271.259,2417.761 
		2189.839,2534.643 2325.691,2534.643 2325.691,2505.346 2245.968,2505.346 	"/>
</g>
<path style="fill:#121322;" d="M2708.201,2443.323c-10.067,0-18.229,8.161-18.229,18.228c0,10.068,8.161,18.228,18.229,18.228
	s18.229-8.16,18.229-18.228C2726.429,2451.484,2718.268,2443.323,2708.201,2443.323z M2708.201,2473.488
	c-6.593,0-11.938-5.344-11.938-11.937s5.345-11.938,11.938-11.938s11.938,5.344,11.938,11.938S2714.793,2473.488,2708.201,2473.488z
	"/>
<g>
	<path style="fill:#231F20;" d="M2754.589,2859.551c0,1.111-0.4,2.068-1.2,2.869c-0.8,0.799-1.757,1.2-2.869,1.2
		c-1.113,0-2.07-0.401-2.869-1.2c-0.801-0.801-1.2-1.758-1.2-2.869v-48.833c0-7.931,2.781-14.677,8.348-20.243
		c5.564-5.564,12.276-8.348,20.139-8.348c7.93,0,14.676,2.783,20.242,8.348c5.564,5.566,8.348,12.312,8.348,20.243
		c0,7.861-2.783,14.573-8.348,20.138c-5.566,5.566-12.312,8.348-20.242,8.348c-7.862,0-14.574-2.781-20.139-8.348
		c-0.07-0.068-0.141-0.139-0.209-0.208V2859.551z M2754.589,2810.718c0,5.635,1.982,10.435,5.948,14.399
		c3.965,3.965,8.765,5.947,14.399,5.947c5.703,0,10.538-1.982,14.504-5.947c3.965-3.965,5.947-8.765,5.947-14.399
		s-1.982-10.451-5.947-14.452c-3.966-3.999-8.801-6-14.504-6c-5.635,0-10.435,2.001-14.399,6
		C2756.572,2800.267,2754.589,2805.083,2754.589,2810.718z"/>
	<path style="fill:#231F20;" d="M2860.603,2830.647c-5.705,5.704-12.521,8.556-20.451,8.556c-7.862,0-14.574-2.781-20.139-8.348
		c-5.566-5.564-8.348-12.276-8.348-20.138c0-7.931,2.781-14.677,8.348-20.243c5.564-5.564,12.276-8.348,20.139-8.348
		c7.93,0,14.676,2.783,20.242,8.348c5.564,5.566,8.348,12.312,8.348,20.243v24.416c0,1.113-0.401,2.07-1.2,2.869
		c-0.8,0.801-1.757,1.2-2.869,1.2c-1.113,0-2.07-0.399-2.869-1.2c-0.801-0.799-1.2-1.756-1.2-2.869V2830.647z M2840.152,2790.266
		c-5.635,0-10.435,2.001-14.399,6c-3.966,4.001-5.948,8.817-5.948,14.452s1.982,10.435,5.948,14.399
		c3.965,3.965,8.765,5.947,14.399,5.947c5.703,0,10.538-1.982,14.504-5.947c3.965-3.965,5.947-8.765,5.947-14.399
		s-1.982-10.451-5.947-14.452C2850.69,2792.267,2845.855,2790.266,2840.152,2790.266z"/>
	<path style="fill:#231F20;" d="M2890.132,2769.919c0,1.393-0.506,2.593-1.514,3.6c-1.009,1.01-2.209,1.514-3.6,1.514
		c-1.393,0-2.592-0.504-3.6-1.514c-1.009-1.007-1.513-2.207-1.513-3.6c0-1.391,0.504-2.591,1.513-3.6
		c1.008-1.008,2.207-1.513,3.6-1.513c1.391,0,2.591,0.505,3.6,1.513C2889.626,2767.328,2890.132,2768.528,2890.132,2769.919z
		 M2880.95,2786.196c0-1.111,0.399-2.068,1.2-2.869c0.799-0.799,1.756-1.2,2.869-1.2c1.112,0,2.069,0.401,2.87,1.2
		c0.799,0.801,1.199,1.758,1.199,2.869v48.938c0,1.113-0.4,2.07-1.199,2.869c-0.801,0.801-1.758,1.2-2.87,1.2
		c-1.113,0-2.07-0.399-2.869-1.2c-0.801-0.799-1.2-1.756-1.2-2.869V2786.196z"/>
	<path style="fill:#231F20;" d="M2950.235,2761.676c0-1.112,0.399-2.069,1.2-2.869c0.799-0.799,1.756-1.2,2.869-1.2
		c1.112,0,2.069,0.401,2.869,1.2c0.799,0.8,1.2,1.757,1.2,2.869v49.042c0,7.861-2.783,14.573-8.348,20.138
		c-5.566,5.566-12.312,8.348-20.242,8.348c-7.862,0-14.574-2.781-20.139-8.348c-5.566-5.564-8.348-12.276-8.348-20.138
		c0-7.931,2.781-14.677,8.348-20.243c5.564-5.564,12.276-8.348,20.139-8.348c7.93,0,14.676,2.783,20.242,8.348
		c0.068,0.07,0.139,0.141,0.209,0.209V2761.676z M2950.235,2810.718c0-5.635-1.982-10.451-5.947-14.452
		c-3.966-3.999-8.801-6-14.504-6c-5.635,0-10.435,2.001-14.399,6c-3.966,4.001-5.948,8.817-5.948,14.452s1.982,10.435,5.948,14.399
		c3.965,3.965,8.765,5.947,14.399,5.947c5.703,0,10.538-1.982,14.504-5.947C2948.252,2821.152,2950.235,2816.353,2950.235,2810.718z
		"/>
</g>
<g>
	<path style="fill:#121322;" d="M2412.708,2843.969c-28.857,0-52.25-23.393-52.25-52.25c0-28.855,23.393-52.249,52.25-52.249
		c18.636,0,34.974,9.767,44.216,24.452l-66.845,19.744l6.86,23.226l67.77-20.017c0.001,0.017,0.005,0.032,0.007,0.05l26.676-7.879
		c-6.085-38.025-38.943-67.111-78.684-67.111c-44.063,0-79.785,35.721-79.785,79.784c0,44.064,35.722,79.785,79.785,79.785
		c39.16,0,71.665-28.235,78.429-65.443l-31.94,9.434C2450.54,2832.386,2432.994,2843.969,2412.708,2843.969z"/>
	<path style="fill:#121322;" d="M2582.709,2711.935c-44.063,0-79.785,35.721-79.785,79.784c0,44.064,35.722,79.785,79.785,79.785
		c44.064,0,79.785-35.721,79.785-79.785C2662.495,2747.655,2626.774,2711.935,2582.709,2711.935z M2582.709,2843.969
		c-28.857,0-52.25-23.393-52.25-52.25c0-28.855,23.393-52.249,52.25-52.249c28.856,0,52.25,23.394,52.25,52.249
		C2634.959,2820.576,2611.566,2843.969,2582.709,2843.969z"/>
	<polygon style="fill:#121322;" points="2325.691,2718.627 2198.011,2718.627 2198.011,2747.929 2271.259,2747.929 
		2189.839,2864.811 2325.691,2864.811 2325.691,2835.515 2245.968,2835.515 	"/>
</g>
<path style="fill:#121322;" d="M2708.201,2773.491c-10.067,0-18.229,8.161-18.229,18.228c0,10.068,8.161,18.229,18.229,18.229
	s18.229-8.16,18.229-18.229C2726.429,2781.652,2718.268,2773.491,2708.201,2773.491z M2708.201,2803.656
	c-6.593,0-11.938-5.344-11.938-11.938c0-6.592,5.345-11.938,11.938-11.938s11.938,5.346,11.938,11.938
	C2720.138,2798.312,2714.793,2803.656,2708.201,2803.656z"/>
<g>
	<path style="fill:#231F20;" d="M2795.388,3166.172c-5.705,5.703-12.521,8.555-20.451,8.555c-7.862,0-14.574-2.781-20.139-8.348
		c-5.566-5.564-8.348-12.276-8.348-20.138c0-7.931,2.781-14.677,8.348-20.243c5.564-5.564,12.276-8.348,20.139-8.348
		c7.93,0,14.676,2.783,20.242,8.348c5.564,5.566,8.348,12.312,8.348,20.243v24.416c0,1.113-0.401,2.07-1.2,2.869
		c-0.8,0.801-1.757,1.2-2.869,1.2c-1.113,0-2.07-0.399-2.869-1.2c-0.801-0.799-1.2-1.756-1.2-2.869V3166.172z M2774.937,3125.789
		c-5.635,0-10.435,2.001-14.399,6c-3.966,4.001-5.948,8.817-5.948,14.452s1.982,10.435,5.948,14.399
		c3.965,3.965,8.765,5.947,14.399,5.947c5.703,0,10.538-1.982,14.504-5.947c3.965-3.965,5.947-8.765,5.947-14.399
		s-1.982-10.451-5.947-14.452C2785.475,3127.79,2780.64,3125.789,2774.937,3125.789z"/>
	<path style="fill:#231F20;" d="M2811.666,3121.72c0-1.111,0.399-2.068,1.2-2.869c0.799-0.799,1.756-1.2,2.869-1.2
		c1.112,0,2.069,0.401,2.869,1.2c0.8,0.801,1.2,1.758,1.2,2.869v3.34c5.077-4.938,11.199-7.409,18.365-7.409
		c7.304,0,13.546,2.593,18.729,7.773c5.181,5.184,7.773,11.426,7.773,18.73v26.503c0,1.113-0.401,2.07-1.2,2.869
		c-0.801,0.801-1.758,1.2-2.869,1.2c-1.113,0-2.07-0.399-2.869-1.2c-0.801-0.799-1.2-1.756-1.2-2.869v-26.503
		c0-5.077-1.792-9.407-5.374-12.991c-3.583-3.582-7.914-5.374-12.99-5.374c-5.079,0-9.409,1.792-12.991,5.374
		c-3.584,3.584-5.374,7.914-5.374,12.991v26.503c0,1.113-0.4,2.07-1.2,2.869c-0.8,0.801-1.757,1.2-2.869,1.2
		c-1.113,0-2.07-0.399-2.869-1.2c-0.801-0.799-1.2-1.756-1.2-2.869V3121.72z"/>
	<path style="fill:#231F20;" d="M2921.749,3166.172c-5.705,5.703-12.521,8.555-20.451,8.555c-7.862,0-14.574-2.781-20.139-8.348
		c-5.566-5.564-8.348-12.276-8.348-20.138c0-7.931,2.781-14.677,8.348-20.243c5.564-5.564,12.276-8.348,20.139-8.348
		c7.93,0,14.676,2.783,20.242,8.348c5.564,5.566,8.348,12.312,8.348,20.243v24.416c0,1.113-0.401,2.07-1.2,2.869
		c-0.8,0.801-1.757,1.2-2.869,1.2c-1.113,0-2.07-0.399-2.869-1.2c-0.801-0.799-1.2-1.756-1.2-2.869V3166.172z M2901.297,3125.789
		c-5.635,0-10.435,2.001-14.399,6c-3.966,4.001-5.948,8.817-5.948,14.452s1.982,10.435,5.948,14.399
		c3.965,3.965,8.765,5.947,14.399,5.947c5.703,0,10.538-1.982,14.504-5.947c3.965-3.965,5.947-8.765,5.947-14.399
		s-1.982-10.451-5.947-14.452C2911.835,3127.79,2907,3125.789,2901.297,3125.789z"/>
	<path style="fill:#231F20;" d="M2938.026,3097.304c0-1.112,0.399-2.069,1.2-2.869c0.799-0.799,1.756-1.2,2.869-1.2
		c1.112,0,2.069,0.401,2.869,1.2c0.8,0.8,1.2,1.757,1.2,2.869v69.284h4.069c1.112,0,2.069,0.401,2.87,1.2
		c0.799,0.801,1.199,1.758,1.199,2.869c0,1.113-0.4,2.07-1.199,2.869c-0.801,0.801-1.758,1.2-2.87,1.2h-8.139
		c-1.113,0-2.07-0.399-2.869-1.2c-0.801-0.799-1.2-1.756-1.2-2.869V3097.304z"/>
	<path style="fill:#231F20;" d="M2982.477,3170.553l-19.617-46.954c-0.278-0.557-0.417-1.183-0.417-1.879
		c0-1.111,0.399-2.068,1.2-2.869c0.799-0.799,1.756-1.2,2.869-1.2c1.112,0,2.087,0.385,2.922,1.148
		c0.417,0.487,0.73,1.009,0.939,1.564l16.486,39.547l16.59-39.547c0.209-0.556,0.522-1.077,0.939-1.564
		c0.835-0.764,1.809-1.148,2.922-1.148c1.111,0,2.068,0.401,2.869,1.2c0.799,0.801,1.2,1.758,1.2,2.869
		c0,0.696-0.175,1.322-0.521,1.879l-30.364,72.832c-0.209,0.556-0.521,1.077-0.939,1.564c-0.835,0.765-1.81,1.148-2.922,1.148
		c-1.113,0-2.07-0.401-2.869-1.2c-0.801-0.801-1.2-1.758-1.2-2.869c0-0.626,0.173-1.253,0.522-1.879L2982.477,3170.553z"/>
	<path style="fill:#231F20;" d="M3047.926,3166.588c1.175,0,2.159,0.401,2.955,1.2c0.795,0.801,1.193,1.758,1.193,2.869
		c0,1.113-0.399,2.07-1.195,2.869c-0.797,0.801-1.783,1.2-2.961,1.2c-13.508,0-20.261-6.782-20.261-20.346v-28.592h-4.069
		c-1.113,0-2.07-0.399-2.869-1.199c-0.801-0.799-1.2-1.756-1.2-2.87c0-1.111,0.399-2.068,1.2-2.869c0.799-0.799,1.756-1.2,2.869-1.2
		h4.069v-20.347c0-1.112,0.399-2.069,1.2-2.869c0.799-0.799,1.756-1.2,2.869-1.2c1.112,0,2.069,0.401,2.87,1.2
		c0.799,0.8,1.199,1.757,1.199,2.869v20.347h8.243c1.112,0,2.069,0.401,2.87,1.2c0.799,0.801,1.199,1.758,1.199,2.869
		c0,1.114-0.4,2.071-1.199,2.87c-0.801,0.8-1.758,1.199-2.87,1.199h-8.243v28.592
		C3035.796,3162.519,3039.84,3166.588,3047.926,3166.588z"/>
	<path style="fill:#231F20;" d="M3073.569,3105.443c0,1.393-0.506,2.592-1.514,3.599c-1.009,1.01-2.209,1.514-3.6,1.514
		c-1.393,0-2.592-0.504-3.6-1.514c-1.009-1.007-1.513-2.206-1.513-3.599c0-1.392,0.504-2.592,1.513-3.601
		c1.008-1.007,2.207-1.513,3.6-1.513c1.391,0,2.591,0.506,3.6,1.513C3073.063,3102.852,3073.569,3104.052,3073.569,3105.443z
		 M3064.386,3121.72c0-1.111,0.399-2.068,1.2-2.869c0.799-0.799,1.756-1.2,2.869-1.2c1.112,0,2.069,0.401,2.87,1.2
		c0.799,0.801,1.199,1.758,1.199,2.869v48.938c0,1.113-0.4,2.07-1.199,2.869c-0.801,0.801-1.758,1.2-2.87,1.2
		c-1.113,0-2.07-0.399-2.869-1.2c-0.801-0.799-1.2-1.756-1.2-2.869V3121.72z"/>
	<path style="fill:#231F20;" d="M3129.081,3160.745c1.111,0,2.068,0.4,2.869,1.199c0.799,0.801,1.2,1.758,1.2,2.87
		c0,1.113-0.418,2.122-1.253,3.025c-5.287,4.592-11.514,6.887-18.677,6.887c-7.862,0-14.574-2.781-20.139-8.348
		c-5.566-5.564-8.348-12.276-8.348-20.138c0-7.931,2.781-14.677,8.348-20.243c5.564-5.564,12.276-8.348,20.139-8.348
		c7.163,0,13.39,2.296,18.677,6.887c0.903,0.835,1.356,1.879,1.356,3.131c0,1.113-0.4,2.07-1.199,2.869
		c-0.801,0.801-1.758,1.2-2.87,1.2c-0.975,0-1.844-0.276-2.608-0.835c-3.756-3.407-8.209-5.113-13.355-5.113
		c-5.635,0-10.435,2.001-14.399,6c-3.966,4.001-5.948,8.817-5.948,14.452s1.982,10.435,5.948,14.399
		c3.965,3.965,8.765,5.947,14.399,5.947c5.146,0,9.6-1.668,13.355-5.009C3127.27,3161.023,3128.105,3160.745,3129.081,3160.745z"/>
	<path style="fill:#231F20;" d="M3151.931,3146.241c-3.13-1.183-5.287-2.4-6.469-3.652c-2.436-2.364-3.652-5.251-3.652-8.66
		c0-3.34,1.252-6.261,3.757-8.766c4.938-5.008,11.337-7.513,19.199-7.513c8.485,0,15.79,3.409,21.912,10.226
		c0.556,0.696,0.799,1.497,0.73,2.4c0,1.113-0.401,2.071-1.2,2.869c-0.801,0.801-1.758,1.2-2.869,1.2
		c-1.114,0-2.019-0.348-2.713-1.043c-0.696-0.695-1.184-1.217-1.461-1.565c-3.966-3.965-8.766-5.948-14.399-5.948
		c-5.635,0-10.157,1.774-13.565,5.322c-0.766,0.975-1.147,2.156-1.147,3.549c0.068,1.6,0.903,2.678,2.504,3.233l25.043,8.348
		c3.061,1.113,5.217,2.295,6.47,3.548c2.434,2.365,3.651,5.253,3.651,8.66c0,3.339-1.288,6.262-3.86,8.765
		c-4.87,5.009-11.235,7.513-19.095,7.513c-8.557,0-15.86-3.407-21.912-10.225c-0.488-0.695-0.73-1.496-0.73-2.4
		c0-1.112,0.381-2.069,1.147-2.87c0.765-0.799,1.738-1.199,2.922-1.199c1.111,0,1.999,0.349,2.66,1.043
		c0.66,0.696,1.164,1.218,1.514,1.565c3.965,3.965,8.765,5.947,14.399,5.947c5.634,0,10.121-1.773,13.46-5.321
		c0.835-0.974,1.252-2.155,1.252-3.548c-0.14-1.6-0.975-2.677-2.504-3.234L3151.931,3146.241z"/>
</g>
<g>
	<path style="fill:#121322;" d="M2412.708,3179.492c-28.857,0-52.25-23.393-52.25-52.249s23.393-52.25,52.25-52.25
		c18.636,0,34.974,9.767,44.216,24.452l-66.845,19.744l6.86,23.226l67.77-20.017c0.001,0.017,0.005,0.033,0.007,0.05l26.676-7.879
		c-6.085-38.025-38.943-67.11-78.684-67.11c-44.063,0-79.785,35.72-79.785,79.784c0,44.063,35.722,79.784,79.785,79.784
		c39.16,0,71.665-28.235,78.429-65.443l-31.94,9.435C2450.54,3167.909,2432.994,3179.492,2412.708,3179.492z"/>
	<path style="fill:#121322;" d="M2582.709,3047.459c-44.063,0-79.785,35.72-79.785,79.784c0,44.063,35.722,79.784,79.785,79.784
		c44.064,0,79.785-35.721,79.785-79.784C2662.495,3083.179,2626.774,3047.459,2582.709,3047.459z M2582.709,3179.492
		c-28.857,0-52.25-23.393-52.25-52.249s23.393-52.25,52.25-52.25c28.856,0,52.25,23.394,52.25,52.25
		S2611.566,3179.492,2582.709,3179.492z"/>
	<polygon style="fill:#121322;" points="2325.691,3054.151 2198.011,3054.151 2198.011,3083.452 2271.259,3083.452 
		2189.839,3200.335 2325.691,3200.335 2325.691,3171.038 2245.968,3171.038 	"/>
</g>
<path style="fill:#121322;" d="M2708.201,3109.015c-10.067,0-18.229,8.161-18.229,18.229s8.161,18.229,18.229,18.229
	s18.229-8.161,18.229-18.229S2718.268,3109.015,2708.201,3109.015z M2708.201,3139.181c-6.593,0-11.938-5.345-11.938-11.938
	s5.345-11.938,11.938-11.938s11.938,5.345,11.938,11.938S2714.793,3139.181,2708.201,3139.181z"/>
<g>
	<g>
		<path style="fill:#231F20;" d="M4238.094,3487.059c-51.756,0-93.713,41.718-93.713,93.18c0,51.463,41.957,93.181,93.713,93.181
			s93.712-41.718,93.712-93.181C4331.806,3528.776,4289.85,3487.059,4238.094,3487.059z M4238.094,3641.262
			c-33.895,0-61.371-27.321-61.371-61.023c0-33.701,27.477-61.022,61.371-61.022s61.371,27.321,61.371,61.022
			C4299.465,3613.94,4271.989,3641.262,4238.094,3641.262z"/>
		<polygon style="fill:#231F20;" points="4138.337,3494.875 3988.37,3494.875 3988.37,3529.096 4074.405,3529.096 
			3978.771,3665.603 4138.337,3665.603 4138.337,3631.387 4044.698,3631.387 		"/>
	</g>
	<g>
		<path style="fill:#231F20;" d="M4278.63,3349.784l106.765-31.356c0.003,0.026,0.009,0.051,0.012,0.078l42.025-12.342
			c-9.586-59.566-61.352-105.129-123.959-105.129c-69.419,0-125.693,55.956-125.693,124.981s56.274,124.98,125.693,124.98
			c61.693,0,112.902-44.229,123.559-102.516l-50.321,14.779c-13.638,26.459-41.28,44.604-73.237,44.604
			c-45.462,0-82.315-36.644-82.315-81.848c0-45.203,36.854-81.849,82.315-81.849c29.359,0,55.098,15.299,69.658,38.305
			l-105.309,30.929L4278.63,3349.784z"/>
		<path style="fill:#231F20;" d="M4571.295,3201.035c-69.42,0-125.694,55.956-125.694,124.981s56.274,124.98,125.694,124.98
			c69.418,0,125.693-55.955,125.693-124.98S4640.713,3201.035,4571.295,3201.035z M4571.295,3407.864
			c-45.463,0-82.315-36.644-82.315-81.848c0-45.203,36.853-81.849,82.315-81.849c45.461,0,82.314,36.646,82.314,81.849
			C4653.61,3371.221,4616.756,3407.864,4571.295,3407.864z"/>
		<path style="fill:#231F20;" d="M4089.999,3303.754c-24.586-5.907-40.625-11.428-48.166-16.528
			c-7.539-5.111-11.31-12.473-11.31-22.151c0-9.655,3.771-16.857,11.31-21.628c7.541-4.771,17.184-7.157,28.973-7.157
			c11.744,0,23.694,2.045,35.804,6.135c12.11,4.089,21.706,9.314,28.79,15.676l21.592-30.33
			c-10.967-9.088-23.991-16.131-39.07-21.129c-15.082-4.998-30.275-7.497-45.584-7.497c-23.763,0-43.687,5.964-59.795,17.892
			c-16.109,11.928-24.174,28.91-24.174,50.947c0,22.038,7.082,38.384,21.249,49.062c7.083,5.68,15.194,10.291,24.334,13.791
			c9.14,3.543,22.505,7.406,40.099,11.586c17.594,4.226,30.002,8.86,37.199,13.973c7.196,5.111,10.783,12.268,10.783,21.469
			s-3.838,16.608-11.47,22.152c-7.677,5.588-18.005,8.359-31.028,8.359c-26.048,0-51.182-10.45-75.4-31.352l-25.362,30.33
			c29.018,25.673,62.263,38.509,99.735,38.509c25.59,0,46.268-6.475,62.033-19.425s23.648-29.83,23.648-50.619
			c0-20.787-6.238-36.509-18.668-47.187C4133.045,3317.953,4114.538,3309.661,4089.999,3303.754z"/>
	</g>
	<path style="fill:#231F20;" d="M4600.653,3597.932l79.478-23.343c0.002,0.021,0.007,0.039,0.009,0.059l31.283-9.188
		c-7.136-44.343-45.67-78.259-92.276-78.259c-51.677,0-93.568,41.653-93.568,93.037s41.892,93.038,93.568,93.038
		c45.925,0,84.046-32.926,91.979-76.314l-37.46,11.002c-10.153,19.696-30.729,33.204-54.52,33.204
		c-33.843,0-61.276-27.279-61.276-60.93c0-33.649,27.434-60.929,61.276-60.929c21.856,0,41.017,11.389,51.854,28.515l-78.394,23.023
		L4600.653,3597.932z"/>
	<g>
		<path style="fill:#231F20;" d="M4470.311,3493.891v104.261c-0.105-0.118-0.225-0.236-0.331-0.368
			c-2.977-3.25-5.914-6.315-8.878-9.275l-112.768-107.893v186.422h34.691v-103.999c2.328,2.604,4.711,5.092,7.197,7.485
			l114.885,109.67v-186.303H4470.311z"/>
	</g>
</g>
<g>
	<polygon style="fill:#231F20;" points="4221.809,3727.22 3979.534,3727.22 3979.534,3899.109 4060.139,3899.109 4060.139,4106.832 
		4232.03,4106.832 4232.03,3727.22 4221.809,3727.22 	"/>
	<path style="fill:#231F20;" d="M4726.985,4077.91c-34.516-27.281-71.811-51.188-111.366-71.289
		c-94.983-50.471-155.302-55.903-155.302-55.903l-0.008-0.001v-51.607h246.338v-171.89h-418.228v16.729v155.16v113.125h0.001v94.598
		c64.168-0.847,119.426,6.791,166.979,19.791c70.204,20.869,133.87,56.904,187.222,104.307c5.979,5.797,11.611,11.588,16.846,17.324
		l124.525-124.526C4764.399,4106.838,4745.387,4091.68,4726.985,4077.91z"/>
</g>
<g>
	<polygon style="fill:#363837;" points="1466.113,4630.863 1390.995,4630.863 1390.995,4684.158 1415.987,4684.158 
		1415.987,4748.562 1469.282,4748.562 1469.282,4630.863 1466.113,4630.863 	"/>
	<path style="fill:#363837;" d="M1540.06,4700.16v-16.002h76.377v-53.295h-129.672v5.188v48.107v35.074l0,0v29.33
		c2.654-0.136,5.326-0.206,8.014-0.206c41.295,0,78.776,16.325,106.347,42.871l26.709-47.481
		C1602.924,4722.74,1572.975,4707.523,1540.06,4700.16z"/>
</g>
<g>
	<g>
		<path style="fill:#363837;" d="M1610.528,4402.809c-32.184,0-58.274,25.943-58.274,57.944s26.09,57.944,58.274,57.944
			c32.184,0,58.274-25.943,58.274-57.944S1642.712,4402.809,1610.528,4402.809z M1610.528,4498.699
			c-21.077,0-38.163-16.989-38.163-37.946c0-20.958,17.086-37.946,38.163-37.946c21.077,0,38.163,16.988,38.163,37.946
			C1648.691,4481.71,1631.605,4498.699,1610.528,4498.699z"/>
		<polygon style="fill:#363837;" points="1548.495,4407.67 1455.238,4407.67 1455.238,4428.949 1508.739,4428.949 1449.27,4513.836 
			1548.495,4513.836 1548.495,4492.559 1490.266,4492.559 		"/>
	</g>
	<g>
		<path style="fill:#363837;" d="M1252.774,4471.312l49.423-14.516c0.001,0.013,0.004,0.024,0.005,0.037l19.454-5.714
			c-4.438-27.573-28.4-48.665-57.382-48.665c-32.135,0-58.185,25.902-58.185,57.855s26.05,57.855,58.185,57.855
			c28.559,0,52.264-20.475,57.196-47.457l-23.293,6.842c-6.314,12.248-19.109,20.648-33.903,20.648
			c-21.045,0-38.104-16.963-38.104-37.889s17.06-37.889,38.104-37.889c13.591,0,25.506,7.082,32.246,17.731l-48.749,14.317
			L1252.774,4471.312z"/>
		<path style="fill:#363837;" d="M1388.251,4402.455c-32.135,0-58.185,25.902-58.185,57.855s26.05,57.855,58.185,57.855
			s58.185-25.902,58.185-57.855S1420.386,4402.455,1388.251,4402.455z M1388.251,4498.199c-21.045,0-38.104-16.963-38.104-37.889
			s17.06-37.889,38.104-37.889c21.044,0,38.104,16.963,38.104,37.889S1409.296,4498.199,1388.251,4498.199z"/>
		<path style="fill:#363837;" d="M1165.454,4450.005c-11.381-2.734-18.806-5.29-22.296-7.651c-3.491-2.365-5.236-5.773-5.236-10.254
			c0-4.47,1.745-7.803,5.236-10.012c3.49-2.209,7.954-3.312,13.412-3.312c5.437,0,10.968,0.945,16.574,2.839
			s10.048,4.312,13.327,7.257l9.996-14.04c-5.077-4.207-11.106-7.468-18.086-9.78c-6.981-2.314-14.015-3.471-21.101-3.471
			c-11,0-20.223,2.76-27.68,8.281c-7.457,5.521-11.19,13.383-11.19,23.584c0,10.202,3.279,17.77,9.836,22.712
			c3.279,2.63,7.034,4.765,11.265,6.384c4.23,1.641,10.418,3.429,18.562,5.363c8.144,1.957,13.887,4.102,17.219,6.469
			c3.332,2.365,4.993,5.679,4.993,9.938c0,4.26-1.777,7.688-5.31,10.254c-3.554,2.588-8.334,3.871-14.363,3.871
			c-12.058,0-23.692-4.838-34.903-14.514l-11.741,14.04c13.433,11.884,28.822,17.826,46.168,17.826
			c11.846,0,21.418-2.997,28.716-8.991c7.298-5.995,10.947-13.81,10.947-23.433s-2.888-16.9-8.642-21.843
			C1185.381,4456.578,1176.814,4452.739,1165.454,4450.005z"/>
	</g>
	<path style="fill:#363837;" d="M1835.983,4471.755l49.423-14.515c0.001,0.012,0.003,0.023,0.004,0.036l19.455-5.714
		c-4.438-27.574-28.4-48.664-57.382-48.664c-32.135,0-58.185,25.902-58.185,57.854s26.05,57.854,58.185,57.854
		c28.558,0,52.264-20.475,57.196-47.455l-23.294,6.842c-6.313,12.248-19.109,20.646-33.902,20.646
		c-21.045,0-38.104-16.963-38.104-37.888s17.06-37.889,38.104-37.889c13.591,0,25.505,7.082,32.245,17.731l-48.748,14.317
		L1835.983,4471.755z"/>
	<g>
		<path style="fill:#363837;" d="M1754.931,4407.058v64.834c-0.066-0.073-0.14-0.147-0.206-0.229
			c-1.851-2.02-3.677-3.926-5.521-5.767l-70.124-67.093v115.925h21.572v-64.671c1.448,1.62,2.929,3.166,4.476,4.655l71.441,68.196
			v-115.851H1754.931z"/>
	</g>
</g>
<g>
	<path style="fill:#363837;" d="M1346.406,4593.731l-4.654-15.219l-0.016-0.063c-0.53-1.779-0.896-3.183-1.097-4.21v0.46
		c0,0.488-0.021,1.041-0.063,1.66c-0.042,0.621-0.106,1.322-0.19,2.105l-1.716,15.267h-4.893l3.717-25.212h5.528l4.56,14.742
		c0.201,0.637,0.381,1.293,0.54,1.971s0.292,1.361,0.397,2.049c0.105-0.688,0.232-1.365,0.381-2.033
		c0.148-0.668,0.323-1.329,0.524-1.986l4.623-14.742h5.497l3.717,25.212h-4.877l-1.731-15.267c-0.096-0.773-0.162-1.456-0.199-2.05
		c-0.037-0.593-0.056-1.175-0.056-1.747v-0.429c-0.117,0.593-0.257,1.213-0.421,1.858c-0.164,0.646-0.394,1.451-0.69,2.415
		l-4.687,15.219H1346.406z"/>
	<path style="fill:#363837;" d="M1408.419,4593.731v-25.212h19.159v4.973h-13.535v4.877h12.661v4.687h-12.661v5.704h13.535v4.972
		H1408.419z"/>
	<path style="fill:#363837;" d="M1473.516,4593.731v-25.212h19.159v4.973h-13.535v4.877h12.662v4.687h-12.662v5.704h13.535v4.972
		H1473.516z"/>
	<path style="fill:#363837;" d="M1536.196,4573.396v-4.877h19.985v4.877h-7.196v20.335h-5.592v-20.335H1536.196z"/>
	<path style="fill:#363837;" d="M1600.498,4568.52h5.592v13.949c0,2.372,0.307,4.104,0.921,5.193
		c0.614,1.092,1.573,1.637,2.875,1.637c1.313,0,2.277-0.545,2.892-1.637c0.614-1.09,0.921-2.821,0.921-5.193v-13.949h5.592v14.123
		c0,3.803-0.794,6.688-2.383,8.658s-3.929,2.955-7.022,2.955c-3.082,0-5.417-0.984-7.006-2.955
		c-1.588-1.971-2.382-4.855-2.382-8.658V4568.52z"/>
	<path style="fill:#363837;" d="M1671.646,4584.01v9.722h-5.624v-25.212h10.533c2.753,0,4.858,0.646,6.314,1.939
		c1.456,1.292,2.184,3.16,2.184,5.607c0,2.584-0.757,4.554-2.271,5.91c-1.515,1.355-3.717,2.033-6.609,2.033H1671.646z
		 M1671.646,4579.735h2.542c1.938,0,3.272-0.259,4.003-0.778c0.731-0.518,1.096-1.419,1.096-2.701c0-1.323-0.333-2.234-1.001-2.732
		c-0.667-0.497-2.033-0.746-4.098-0.746h-2.542V4579.735z"/>
</g>
<g>
	<g>
		<path style="fill:#363837;" d="M2663.885,3990.766c-20.091,0-36.378,16.287-36.378,36.377c0,20.091,16.287,36.377,36.378,36.377
			c20.09,0,36.377-16.286,36.377-36.377C2700.262,4007.053,2683.975,3990.766,2663.885,3990.766z M2663.885,4050.966
			c-13.158,0-23.823-10.666-23.823-23.823c0-13.156,10.665-23.822,23.823-23.822c13.156,0,23.822,10.666,23.822,23.822
			C2687.708,4040.3,2677.042,4050.966,2663.885,4050.966z"/>
		<polygon style="fill:#363837;" points="2625.161,3993.818 2566.947,3993.818 2566.947,4007.178 2600.344,4007.178 
			2563.221,4060.469 2625.161,4060.469 2625.161,4047.111 2588.813,4047.111 		"/>
	</g>
	<g>
		<path style="fill:#363837;" d="M2440.562,4033.772l30.852-9.112c0,0.008,0.002,0.015,0.003,0.022l12.144-3.587
			c-2.771-17.311-17.729-30.552-35.82-30.552c-20.06,0-36.321,16.262-36.321,36.321s16.262,36.321,36.321,36.321
			c17.827,0,32.625-12.854,35.704-29.793l-14.541,4.296c-3.941,7.689-11.929,12.962-21.164,12.962
			c-13.137,0-23.786-10.649-23.786-23.786s10.649-23.786,23.786-23.786c8.484,0,15.921,4.446,20.129,11.132l-30.43,8.988
			L2440.562,4033.772z"/>
		<path style="fill:#363837;" d="M2525.131,3990.544c-20.06,0-36.321,16.262-36.321,36.321s16.262,36.321,36.321,36.321
			s36.321-16.262,36.321-36.321S2545.191,3990.544,2525.131,3990.544z M2525.131,4050.651c-13.137,0-23.786-10.649-23.786-23.786
			s10.649-23.786,23.786-23.786s23.787,10.649,23.787,23.786S2538.268,4050.651,2525.131,4050.651z"/>
		<path style="fill:#363837;" d="M2386.054,4020.396c-7.105-1.717-11.74-3.321-13.918-4.804c-2.179-1.485-3.269-3.625-3.269-6.438
			c0-2.806,1.09-4.898,3.269-6.285s4.965-2.08,8.372-2.08c3.394,0,6.847,0.595,10.346,1.783c3.499,1.188,6.272,2.707,8.319,4.556
			l6.239-8.814c-3.169-2.642-6.933-4.688-11.29-6.14c-4.357-1.453-8.748-2.18-13.172-2.18c-6.867,0-12.624,1.733-17.279,5.199
			c-4.655,3.467-6.985,8.402-6.985,14.807s2.046,11.154,6.14,14.258c2.047,1.65,4.391,2.991,7.032,4.008
			c2.641,1.029,6.503,2.152,11.587,3.367c5.084,1.229,8.669,2.575,10.749,4.061s3.116,3.565,3.116,6.239
			c0,2.675-1.109,4.827-3.314,6.438c-2.218,1.623-5.203,2.429-8.966,2.429c-7.527,0-14.79-3.037-21.789-9.111l-7.329,8.814
			c8.385,7.461,17.992,11.19,28.819,11.19c7.395,0,13.37-1.881,17.926-5.645c4.555-3.764,6.833-8.669,6.833-14.711
			c0-6.041-1.803-10.609-5.395-13.713C2398.493,4024.521,2393.145,4022.112,2386.054,4020.396z"/>
	</g>
	<path style="fill:#363837;" d="M2804.622,4034.051l30.852-9.113c0,0.008,0.002,0.016,0.003,0.023l12.144-3.588
		c-2.77-17.311-17.729-30.551-35.819-30.551c-20.06,0-36.321,16.262-36.321,36.32c0,20.061,16.262,36.321,36.321,36.321
		c17.827,0,32.625-12.854,35.704-29.792l-14.541,4.295c-3.941,7.689-11.929,12.963-21.163,12.963
		c-13.137,0-23.786-10.65-23.786-23.787s10.649-23.785,23.786-23.785c8.483,0,15.922,4.445,20.129,11.131l-30.431,8.988
		L2804.622,4034.051z"/>
	<g>
		<path style="fill:#363837;" d="M2754.026,3993.434v40.702c-0.041-0.046-0.087-0.092-0.129-0.144
			c-1.155-1.269-2.295-2.465-3.445-3.621l-43.774-42.12v72.777h13.467v-40.601c0.903,1.018,1.828,1.988,2.794,2.923l44.596,42.813
			v-72.73H2754.026z"/>
	</g>
	<g>
		<polygon style="fill:#363837;" points="2944.007,3952.738 2872.964,3952.738 2872.964,4003.143 2896.6,4003.143 2896.6,4064.054 
			2947.004,4064.054 2947.004,3952.738 2944.007,3952.738 		"/>
		<path style="fill:#363837;" d="M3013.944,4018.275v-15.133h72.234v-50.404H2963.54v4.906v45.498v33.172l0,0v27.739
			c2.511-0.13,5.037-0.195,7.579-0.195c39.056,0,74.504,15.439,100.579,40.546l25.261-44.906
			C3073.399,4039.631,3045.074,4025.239,3013.944,4018.275z"/>
	</g>
	<path style="fill:#363837;" d="M2845.653,3952.971c-9.203,0-16.663,7.461-16.663,16.664s7.46,16.664,16.663,16.664
		c9.204,0,16.664-7.461,16.664-16.664S2854.857,3952.971,2845.653,3952.971z M2845.653,3980.547
		c-6.026,0-10.912-4.885-10.912-10.912s4.886-10.913,10.912-10.913c6.027,0,10.914,4.886,10.914,10.913
		S2851.68,3980.547,2845.653,3980.547z"/>
</g>
<g>
	<g>
		<path style="fill:#363837;" d="M1369.554,3968.371c-20.09,0-36.376,16.287-36.376,36.377c0,20.091,16.286,36.377,36.376,36.377
			s36.377-16.286,36.377-36.377C1405.931,3984.658,1389.644,3968.371,1369.554,3968.371z M1369.554,4028.571
			c-13.157,0-23.823-10.666-23.823-23.823c0-13.156,10.666-23.822,23.823-23.822s23.823,10.666,23.823,23.822
			C1393.376,4017.905,1382.71,4028.571,1369.554,4028.571z"/>
		<polygon style="fill:#363837;" points="1330.831,3971.424 1272.616,3971.424 1272.616,3984.783 1306.013,3984.783 
			1268.891,4038.074 1330.831,4038.074 1330.831,4024.717 1294.482,4024.717 		"/>
	</g>
	<g>
		<path style="fill:#363837;" d="M1146.231,4011.378l30.851-9.112c0.001,0.008,0.002,0.015,0.003,0.022l12.144-3.587
			c-2.77-17.311-17.729-30.552-35.819-30.552c-20.06,0-36.321,16.262-36.321,36.321s16.262,36.321,36.321,36.321
			c17.827,0,32.625-12.854,35.704-29.792l-14.541,4.295c-3.941,7.689-11.929,12.962-21.163,12.962
			c-13.137,0-23.786-10.649-23.786-23.786s10.649-23.786,23.786-23.786c8.484,0,15.921,4.446,20.129,11.132l-30.431,8.988
			L1146.231,4011.378z"/>
		<path style="fill:#363837;" d="M1230.801,3968.149c-20.06,0-36.321,16.262-36.321,36.321s16.262,36.321,36.321,36.321
			s36.321-16.262,36.321-36.321S1250.86,3968.149,1230.801,3968.149z M1230.801,4028.257c-13.137,0-23.786-10.649-23.786-23.786
			s10.649-23.786,23.786-23.786s23.786,10.649,23.786,23.786S1243.938,4028.257,1230.801,4028.257z"/>
		<path style="fill:#363837;" d="M1091.723,3998.001c-7.104-1.717-11.739-3.321-13.918-4.804c-2.179-1.485-3.269-3.625-3.269-6.438
			c0-2.806,1.089-4.898,3.269-6.285c2.179-1.387,4.965-2.08,8.372-2.08c3.394,0,6.847,0.594,10.346,1.783
			c3.5,1.188,6.272,2.707,8.319,4.556l6.239-8.814c-3.169-2.642-6.933-4.688-11.29-6.14c-4.358-1.453-8.749-2.18-13.172-2.18
			c-6.866,0-12.624,1.733-17.278,5.199c-4.655,3.467-6.985,8.402-6.985,14.807s2.047,11.154,6.14,14.258
			c2.046,1.65,4.391,2.991,7.032,4.008c2.641,1.029,6.503,2.152,11.587,3.367c5.084,1.229,8.669,2.575,10.749,4.061
			c2.08,1.485,3.117,3.565,3.117,6.239s-1.109,4.827-3.315,6.438c-2.218,1.624-5.203,2.43-8.966,2.43
			c-7.527,0-14.79-3.036-21.788-9.111l-7.329,8.814c8.385,7.46,17.992,11.19,28.82,11.19c7.395,0,13.37-1.881,17.926-5.645
			c4.555-3.764,6.833-8.669,6.833-14.711c0-6.041-1.802-10.609-5.394-13.713C1104.162,4002.127,1098.814,3999.718,1091.723,3998.001
			z"/>
	</g>
	<path style="fill:#363837;" d="M1510.291,4011.656l30.852-9.113c0.001,0.008,0.002,0.016,0.003,0.023l12.144-3.588
		c-2.771-17.311-17.729-30.551-35.82-30.551c-20.06,0-36.321,16.262-36.321,36.32c0,20.061,16.261,36.321,36.321,36.321
		c17.827,0,32.625-12.854,35.704-29.792l-14.541,4.295c-3.941,7.689-11.929,12.963-21.164,12.963
		c-13.137,0-23.786-10.65-23.786-23.787s10.649-23.785,23.786-23.785c8.484,0,15.922,4.445,20.129,11.131l-30.431,8.988
		L1510.291,4011.656z"/>
	<g>
		<path style="fill:#363837;" d="M1459.695,3971.039v40.702c-0.042-0.046-0.087-0.093-0.128-0.144
			c-1.156-1.269-2.296-2.465-3.446-3.621l-43.774-42.12v72.777h13.466v-40.601c0.904,1.018,1.829,1.988,2.794,2.923l44.596,42.813
			v-72.73H1459.695z"/>
	</g>
</g>
<g>
	<path style="fill:#363837;" d="M1736.919,4016.938c-0.247-1.266-0.681-1.509-1.985-1.34c-1.637,0.211-3.282,0.451-4.928,0.479
		c-1.943,0.033-3.132-1.121-3.387-3.059c-0.098-0.738-0.14-1.488-0.141-2.232c-0.011-5.715-0.006-11.429-0.006-17.143
		c0-0.348,0-0.695,0-1.131c0.438,0,0.756,0,1.074,0c2.24,0,4.48,0.006,6.72-0.002c1.303-0.004,1.505-0.217,1.51-1.541
		c0.004-1.201,0.007-2.402-0.001-3.604c-0.007-1.102-0.268-1.395-1.369-1.406c-2.272-0.021-4.545-0.004-6.818-0.01
		c-0.344,0-0.688-0.029-1.116-0.05c0-0.443,0-0.794,0-1.146c0-2.564-0.005-5.13,0.003-7.695c0.002-0.602-0.032-1.17-0.652-1.492
		c-0.26,0-0.52,0-0.779,0c-1.681,0.43-3.354,0.891-5.046,1.275c-0.918,0.209-1.324,0.725-1.317,1.634c0.006,0.845,0,1.688,0,2.532
		c0,1.613,0,3.226,0,4.945c-1.409,0-2.698-0.014-3.988,0.004c-1.042,0.013-1.338,0.306-1.35,1.326
		c-0.015,1.201-0.006,2.402-0.003,3.604c0.003,1.392,0.229,1.617,1.645,1.624c1.217,0.007,2.435,0.001,3.697,0.001
		c0,3.505-0.015,6.848,0.004,10.19c0.024,4.057-0.051,8.12,0.155,12.169c0.185,3.632,1.798,6.568,5.442,7.771
		c4.068,1.343,8.196,0.931,12.267-0.189c0.878-0.241,1.245-0.869,1.069-1.789
		C1737.381,4019.422,1737.162,4018.178,1736.919,4016.938z"/>
	<path style="fill:#363837;" d="M1642.936,3996.529c-0.49-3.32-1.772-6.281-4.55-8.306c-4.504-3.283-9.485-3.526-14.636-1.875
		c-2.389,0.766-4.4,2.181-6.056,4.25c-0.559-0.616-0.98-1.15-1.471-1.611c-4.642-4.364-12.922-4.848-18.335-1.065
		c-3.681,2.571-5.5,6.232-5.583,10.609c-0.145,7.663-0.057,15.33-0.06,22.995c0,1.126,0.258,1.386,1.368,1.396
		c1.624,0.016,3.248,0.006,4.872,0.004c1.573,0,1.718-0.143,1.718-1.719c0.002-6.982-0.018-13.967,0.02-20.949
		c0.006-1.12,0.11-2.288,0.438-3.351c1.486-4.821,7.843-6.291,11.253-2.626c1.454,1.562,1.844,3.513,1.836,5.586
		c-0.014,3.864-0.004,7.729-0.004,11.595c0,3.312-0.006,6.626,0.003,9.938c0.003,1.289,0.248,1.52,1.547,1.524
		c1.494,0.007,2.988,0.002,4.481,0.001c1.783,0,1.88-0.094,1.88-1.852c0.001-6.983,0.01-13.967-0.007-20.949
		c-0.004-1.524,0.273-2.952,1.016-4.299c2.492-4.513,8.852-4.789,11.486-0.473c0.893,1.461,1.056,3.102,1.054,4.778
		c-0.01,7.081-0.006,14.161-0.002,21.241c0,1.309,0.236,1.546,1.514,1.552c1.591,0.007,3.183,0.003,4.774,0.001
		c1.543-0.002,1.669-0.123,1.67-1.662c0.002-7.145,0.01-14.29-0.009-21.436C1643.152,3998.728,1643.097,3997.616,1642.936,3996.529z
		"/>
	<path style="fill:#363837;" d="M1802.205,3990.273c-2.461-3.201-5.853-4.473-9.768-4.595c-3.711-0.116-7.159,0.618-10.034,3.169
		c-0.099,0.088-0.266,0.097-0.472,0.166c0-0.572,0.002-1.057,0-1.541c-0.007-1.232-0.248-1.5-1.462-1.516
		c-1.526-0.02-3.053-0.016-4.579-0.002c-1.164,0.01-1.393,0.254-1.394,1.457c-0.002,16.399-0.002,32.799,0.001,49.199
		c0,1.187,0.3,1.484,1.5,1.493c1.559,0.012,3.118,0.005,4.676,0.003c1.588-0.002,1.78-0.191,1.782-1.797
		c0.004-4.676,0.001-9.354,0.001-14.029c0-0.349,0-0.697,0-1.342c3.158,2.279,6.49,2.607,9.953,2.415
		c6.626-0.369,11.821-5.196,12.278-11.845c0.305-4.428,0.236-8.889,0.149-13.332
		C1804.781,3995.321,1803.99,3992.598,1802.205,3990.273z M1796.704,4011.489c-0.396,2.693-2.552,4.608-5.267,4.989
		c-1.955,0.274-3.88,0.227-5.637-0.859c-2.186-1.352-3.133-3.477-3.246-5.887c-0.159-3.432-0.123-6.877-0.052-10.315
		c0.059-2.875,1.462-5.038,4.076-6.228c2.573-1.17,5.203-1.117,7.587,0.526c1.858,1.282,2.636,3.257,2.753,5.442
		c0.102,1.876,0.021,3.762,0.021,5.643c0.066,0.003,0.131,0.006,0.196,0.008C1797.004,4007.037,1797.027,4009.289,1796.704,4011.489
		z"/>
	<path style="fill:#363837;" d="M1671.119,3987.301c-3.208-1.77-6.691-2.133-10.285-1.789c-6.771,0.648-12.057,5.242-12.77,11.953
		c-0.511,4.809-0.457,9.75,0.008,14.569c0.52,5.396,3.901,8.907,9.081,10.54c3.547,1.118,7.146,1.094,10.751,0.208
		c3.63-0.892,6.475-2.874,8.495-6.03c0.683-1.066,0.601-1.549-0.429-2.262c-1.014-0.701-2.032-1.395-3.052-2.086
		c-1.241-0.843-1.496-0.809-2.525,0.341c-1.363,1.521-2.923,2.767-4.9,3.386c-3.429,1.076-8.029,0.127-9.233-4.082
		c-0.523-1.83-0.506-3.812-0.753-5.883c0.709,0,1.064,0,1.418,0c6.202,0,12.403,0.001,18.605-0.002c1.822,0,2.617-0.751,2.64-2.588
		c0.022-1.721,0.067-3.45-0.079-5.16C1677.675,3993.537,1675.481,3989.705,1671.119,3987.301z M1670.141,4000.297
		c-4.706,0-9.423,0-14.268,0c-0.204-2.854,0.299-5.426,2.893-6.967c2.767-1.645,5.705-1.604,8.507-0.025
		C1669.496,3994.559,1670.57,3997.342,1670.141,4000.297z"/>
	<path style="fill:#363837;" d="M1705.125,3987.307c-3.206-1.771-6.689-2.137-10.284-1.797c-6.77,0.643-12.062,5.232-12.78,11.943
		c-0.514,4.808-0.459,9.75,0.003,14.568c0.518,5.396,3.892,8.91,9.072,10.549c3.547,1.121,7.146,1.1,10.751,0.215
		c3.594-0.88,6.426-2.826,8.446-5.941c0.76-1.171,0.689-1.631-0.438-2.404c-0.989-0.679-1.979-1.355-2.973-2.029
		c-1.251-0.848-1.505-0.816-2.527,0.326c-1.362,1.521-2.92,2.771-4.897,3.391c-3.431,1.076-8.045,0.169-9.28-4.155
		c-0.514-1.8-0.471-3.758-0.7-5.806c0.682,0,1.035,0,1.388,0c6.202,0,12.403,0.001,18.604-0.002c1.832,0,2.627-0.742,2.653-2.576
		c0.023-1.72,0.067-3.449-0.078-5.159C1711.675,3993.549,1709.483,3989.715,1705.125,3987.307z M1704.128,4000.332
		c-4.746,0-9.44,0-14.128,0c-0.64-2.144,0.353-5.193,2.124-6.571c2.431-1.892,6.386-2.118,9.076-0.523
		C1703.409,3994.548,1704.578,3997.328,1704.128,4000.332z"/>
	<path style="fill:#363837;" d="M1767.527,3985.957c-1.526-0.018-3.053-0.006-4.579-0.004c-1.641,0.001-1.874,0.223-1.876,1.839
		c-0.005,4.222,0.007,8.444-0.004,12.667c-0.008,3.149,0.052,6.303-0.086,9.447c-0.171,3.871-3.23,6.638-7.135,6.619
		c-2.527-0.013-4.756-0.707-6.181-2.986c-0.908-1.453-1.092-3.099-1.092-4.772c-0.001-7.113,0.001-14.226-0.002-21.339
		c0-1.137-0.243-1.443-1.313-1.463c-1.786-0.035-3.573-0.017-5.359-0.008c-0.868,0.004-1.303,0.436-1.3,1.329
		c0.016,7.633-0.021,15.266,0.055,22.897c0.03,3.1,0.773,6.068,2.715,8.574c3.116,4.021,7.44,4.928,12.2,4.447
		c2.784-0.283,5.362-1.206,7.777-3.277c0,0.789,0.03,1.266-0.006,1.736c-0.07,0.918,0.314,1.297,1.245,1.273
		c1.656-0.041,3.313-0.007,4.969-0.013c1.302-0.005,1.466-0.159,1.466-1.462c0.003-11.335,0.003-22.67,0-34.006
		C1769.019,3986.261,1768.736,3985.971,1767.527,3985.957z"/>
	<path style="fill:#363837;" d="M1830.121,4003.683c-3.06-1.45-6.323-2.466-9.447-3.79c-1.137-0.482-2.282-1.145-3.156-1.999
		c-1.373-1.343-1.042-3.467,0.541-4.556c1.543-1.061,3.291-1.335,5.111-1.09c2.601,0.351,4.847,1.553,6.993,2.994
		c0.978,0.657,1.333,0.574,2.042-0.332c0.8-1.022,1.593-2.05,2.374-3.086c0.668-0.887,0.611-1.189-0.214-1.975
		c-5.163-4.908-15.121-5.865-21.192-1.793c-5.125,3.438-5.634,11.393-0.878,15.309c1.938,1.596,4.213,2.506,6.53,3.361
		c2.396,0.885,4.809,1.738,7.142,2.768c1.477,0.65,2.232,1.919,2.063,3.627c-0.163,1.646-1.137,2.62-2.585,3.22
		c-1.821,0.755-3.675,0.677-5.531,0.171c-2.361-0.643-4.147-2.094-5.513-4.076c-0.521-0.756-1.072-0.904-1.883-0.469
		c-1.254,0.674-2.538,1.295-3.821,1.914c-0.762,0.367-1.054,0.936-0.578,1.642c0.9,1.335,1.731,2.771,2.869,3.88
		c3.028,2.953,6.887,3.824,10.078,3.914c3.26,0.041,5.564-0.272,7.762-1.15c3.903-1.561,6.522-4.229,6.962-8.566
		C1836.257,4008.987,1834.216,4005.625,1830.121,4003.683z"/>
</g>
<path style="fill:#363837;" d="M1574.623,3952.42c-9.203,0-16.664,7.46-16.664,16.663s7.461,16.664,16.664,16.664
	s16.664-7.461,16.664-16.664S1583.826,3952.42,1574.623,3952.42z M1574.623,3979.996c-6.027,0-10.913-4.887-10.913-10.913
	s4.886-10.913,10.913-10.913s10.913,4.887,10.913,10.913S1580.649,3979.996,1574.623,3979.996z"/>
<g>
	<polygon style="fill:#C4002A;" points="2647.787,376.318 2505.379,376.318 2760.966,212.419 2821.285,107.945 2334.653,107.945 
		2412.724,243.168 2508.149,181.975 2650.559,181.975 2451.203,309.814 2577.969,529.38 2677.247,357.427 	"/>
	<g>
		<path style="fill:#C4002A;" d="M2578.557,636.256c-41.191,0-78.087-21.306-98.688-56.986l-234.522-406.196
			c-20.601-35.68-20.601-78.28,0-113.96s57.497-56.986,98.7-56.986h469.033c41.202,0,78.099,21.306,98.7,56.986
			c20.601,35.68,20.601,78.28,0,113.96l-10.08-5.818l10.08,5.818l-234.522,406.196
			C2656.656,614.95,2619.76,636.256,2578.557,636.256z M2344.046,25.4c-32.782,0-62.145,16.954-78.542,45.35
			c-16.396,28.396-16.396,62.292,0,90.688l234.522,406.196c16.386,28.396,45.748,45.35,78.53,45.35
			c32.794,0,62.156-16.954,78.542-45.35l234.522-406.196c16.396-28.396,16.396-62.292,0-90.688
			c-16.386-28.396-45.748-45.35-78.542-45.35H2344.046z"/>
	</g>
</g>
<g>
	<g>
		<path style="fill:#121322;" d="M2561.937,894.206c-35.65,0-64.55-28.9-64.55-64.55c0-35.65,28.9-64.55,64.55-64.55
			c23.023,0,43.207,12.066,54.624,30.209l-82.581,24.392l8.476,28.693l83.723-24.729c0.002,0.021,0.007,0.041,0.01,0.062
			l32.955-9.734c-7.518-46.977-48.111-82.909-97.206-82.909c-54.438,0-98.567,44.129-98.567,98.566s44.13,98.566,98.567,98.566
			c48.379,0,88.535-34.882,96.892-80.849l-39.46,11.655C2608.673,879.896,2586.997,894.206,2561.937,894.206z"/>
		<path style="fill:#121322;" d="M2771.958,731.089c-54.437,0-98.566,44.129-98.566,98.566s44.13,98.566,98.566,98.566
			s98.566-44.129,98.566-98.566S2826.394,731.089,2771.958,731.089z M2771.958,894.206c-35.65,0-64.55-28.9-64.55-64.55
			c0-35.65,28.899-64.55,64.55-64.55s64.55,28.9,64.55,64.55C2836.507,865.305,2807.608,894.206,2771.958,894.206z"/>
		<polygon style="fill:#121322;" points="2454.434,739.357 2296.698,739.357 2296.698,775.557 2387.189,775.557 2286.602,919.954 
			2454.434,919.954 2454.434,883.761 2355.944,883.761 		"/>
	</g>
</g>
<path style="fill:#C4002A;" d="M3841.69,59.114c-20.602-35.68-57.498-56.986-98.7-56.986h-469.033
	c-41.203,0-78.099,21.306-98.7,56.986c-20.601,35.68-20.601,78.28,0,113.96l234.522,406.196
	c20.602,35.68,57.497,56.986,98.688,56.986c41.203,0,78.099-21.306,98.699-56.986l234.523-406.196l-10.08-5.818l10.08,5.818
	C3862.291,137.395,3862.291,94.794,3841.69,59.114z M3690.876,212.419L3435.29,376.318h142.407l29.46-18.891l-99.278,171.953
	l-126.766-219.565l199.355-127.84h-142.409l-95.426,61.193l-78.07-135.223h486.632L3690.876,212.419z"/>
<g>
	<g>
		<path style="fill:#121322;" d="M3491.847,894.206c-35.65,0-64.551-28.9-64.551-64.55c0-35.65,28.9-64.55,64.551-64.55
			c23.022,0,43.206,12.066,54.624,30.209l-82.581,24.392l8.476,28.693l83.723-24.729c0.002,0.021,0.007,0.041,0.009,0.062
			l32.956-9.734c-7.518-46.977-48.111-82.909-97.206-82.909c-54.438,0-98.567,44.129-98.567,98.566s44.13,98.566,98.567,98.566
			c48.378,0,88.535-34.882,96.892-80.849l-39.46,11.655C3538.583,879.896,3516.907,894.206,3491.847,894.206z"/>
		<path style="fill:#121322;" d="M3701.868,731.089c-54.438,0-98.567,44.129-98.567,98.566s44.13,98.566,98.567,98.566
			c54.437,0,98.566-44.129,98.566-98.566S3756.304,731.089,3701.868,731.089z M3701.868,894.206c-35.65,0-64.551-28.9-64.551-64.55
			c0-35.65,28.9-64.55,64.551-64.55c35.649,0,64.55,28.9,64.55,64.55C3766.417,865.305,3737.517,894.206,3701.868,894.206z"/>
		<polygon style="fill:#121322;" points="3384.344,739.357 3226.608,739.357 3226.608,775.557 3317.1,775.557 3216.511,919.954 
			3384.344,919.954 3384.344,883.761 3285.854,883.761 		"/>
	</g>
</g>
<g>
	<g>
		<path style="fill:#121322;" d="M1165.446,413.313c-54.353,0-98.414-44.062-98.414-98.414c0-54.352,44.061-98.413,98.414-98.413
			c35.101,0,65.874,18.395,83.281,46.056l-125.904,37.188l12.921,43.746l127.646-37.703c0.003,0.032,0.01,0.062,0.013,0.094
			l50.245-14.84c-11.462-71.621-73.351-126.404-148.201-126.404c-82.996,0-150.276,67.28-150.276,150.275
			c0,82.996,67.281,150.275,150.276,150.275c73.758,0,134.981-53.182,147.722-123.264l-60.161,17.77
			C1236.7,391.496,1203.653,413.313,1165.446,413.313z"/>
		<path style="fill:#121322;" d="M1485.645,164.625c-82.995,0-150.276,67.28-150.276,150.275
			c0,82.996,67.281,150.275,150.276,150.275c82.995,0,150.275-67.28,150.275-150.275
			C1635.92,231.905,1568.64,164.625,1485.645,164.625z M1485.645,413.313c-54.353,0-98.414-44.062-98.414-98.414
			c0-54.352,44.062-98.413,98.414-98.413c54.352,0,98.413,44.061,98.413,98.413C1584.058,369.252,1539.997,413.313,1485.645,413.313
			z"/>
		<polygon style="fill:#121322;" points="1001.546,177.23 761.059,177.23 761.059,232.42 899.024,232.42 745.667,452.57 
			1001.546,452.57 1001.546,397.389 851.388,397.389 		"/>
	</g>
</g>
<path style="fill:#C4002A;" d="M674.93,56.404C654.539,21.088,618.019,0,577.237,0h-464.25C72.204,0,35.685,21.088,15.294,56.404
	c-20.392,35.316-20.392,77.482,0,112.798l232.13,402.053c20.391,35.316,56.911,56.405,97.682,56.405
	c40.782,0,77.302-21.089,97.693-56.405L674.93,169.202l-9.977-5.758l9.977,5.758C695.321,133.886,695.321,91.721,674.93,56.404z
	 M525.655,208.146l-252.98,162.227h140.955l29.159-18.699l-98.265,170.199L219.05,304.548l197.323-126.536H275.416l-94.453,60.569
	l-77.274-133.844h481.668L525.655,208.146z"/>
<g>
	<path style="fill:#363837;" d="M987.387,3533.789c-3.401-0.656-6.93-0.887-10.401-0.904c-17.55-0.088-35.101-0.041-52.651-0.041
		c-0.894,0-1.787,0-2.771,0c0,37.427,0,74.569,0,111.781c0.736,0.031,1.278,0.077,1.82,0.077
		c18.377,0.002,36.755,0.024,55.132-0.029c2.468-0.008,4.969-0.212,7.398-0.639c8.957-1.575,15.514-6.191,17.778-15.372
		c0.868-3.517,1.062-7.266,1.089-10.912c0.113-15.252,0.067-30.506,0.039-45.759c-0.012-6.154,0.096-12.321-0.243-18.461
		C1003.968,3542.442,998.229,3535.882,987.387,3533.789z M984.153,3618.486c-0.476,5.93-2.957,8.519-8.879,8.611
		c-10.559,0.166-21.124,0.098-31.686,0.114c-0.44,0.001-0.88-0.128-1.464-0.218c0-25.473,0-50.868,0-76.541
		c3.672,0,7.229,0,10.786,0c6.521,0,13.043-0.04,19.563,0.025c1.915,0.02,3.857,0.186,5.732,0.558
		c2.983,0.592,4.871,2.516,5.448,5.505c0.347,1.789,0.543,3.637,0.547,5.459c0.04,17.91,0.027,35.821,0.023,53.732
		C984.225,3616.65,984.226,3617.572,984.153,3618.486z"/>
</g>
<g>
	<path style="fill:#363837;" d="M1112.141,3559.807c-12.118-0.254-24.25-0.234-36.37,0.016c-10.667,0.22-17.915,7.402-18.195,18.131
		c-0.345,13.222-0.245,26.454-0.286,39.682c-0.011,3.488,0.03,6.987,0.277,10.465c0.597,8.391,5.437,14.07,13.599,15.826
		c2.58,0.555,5.281,0.724,7.929,0.746c9.922,0.084,19.846,0.033,29.769,0.033c0.968,0,1.936,0,3.121,0
		c0,1.939,0.003,3.487-0.001,5.034c-0.026,9.89-2.068,11.938-11.952,11.944c-12.863,0.007-25.727,0.002-38.59,0.002
		c-0.975,0-1.949,0-3.02,0c0,5.378,0,10.382,0,15.316c0.336,0.14,0.501,0.27,0.667,0.27c17.546-0.018,35.099,0.229,52.638-0.179
		c9.748-0.226,15.962-5.738,17.864-14.605c0.573-2.668,0.735-5.467,0.741-8.206c0.055-24.256,0.034-48.512,0.026-72.768
		c0-1.377-0.04-2.758-0.138-4.132C1129.469,3566.741,1122.818,3560.031,1112.141,3559.807z M1111.985,3628.906
		c-2.671,0-5.034,0.004-7.396,0c-7.254-0.015-14.51,0.054-21.763-0.077c-5.347-0.097-7.022-1.853-7.047-7.268
		c-0.057-12.673-0.061-25.346,0-38.018c0.029-5.901,1.849-7.926,7.653-8.033c7.247-0.134,14.506-0.021,21.751,0.216
		c4.747,0.156,6.454,1.827,6.572,6.648c0.23,9.36,0.185,18.727,0.226,28.091C1112.006,3616.506,1111.985,3622.545,1111.985,3628.906
		z"/>
</g>
<g>
	<path style="fill:#363837;" d="M1676.903,3567.476c-2.854-5.458-8.219-7.561-14.064-7.663c-12.485-0.218-24.98-0.25-37.464,0.006
		c-10.551,0.217-17.54,7.038-18.048,17.637c-0.418,8.706-0.266,17.441-0.256,26.164c0.009,8.172-0.078,16.356,0.322,24.513
		c0.411,8.396,5.466,14.057,13.599,15.812c2.314,0.5,4.731,0.72,7.102,0.729c16.533,0.061,33.067,0.034,49.6,0.027
		c0.705,0,1.41-0.09,2.135-0.139c0-5.186,0-10.174,0-15.293c-1.22,0-2.226,0-3.231,0c-13.686-0.001-27.372,0.016-41.058-0.022
		c-1.824-0.005-3.658-0.207-5.468-0.456c-2.895-0.398-4.346-2.271-4.509-5.062c-0.171-2.932-0.07-5.877-0.192-8.812
		c-0.062-1.475,0.476-2.028,1.952-2.332c7.449-1.533,14.867-3.212,22.298-4.832c10.114-2.205,20.229-4.403,30.409-6.619
		c0-8.009,0.307-15.645-0.136-23.236C1679.685,3574.358,1678.551,3570.629,1676.903,3567.476z M1625.69,3598.83
		c0-6.554-0.196-13.002,0.1-19.429c0.113-2.466,2.183-4.132,4.764-4.164c8.806-0.11,17.615-0.129,26.421-0.014
		c2.685,0.036,4.542,1.786,4.922,4.396c0.512,3.51,0.588,7.083,0.87,10.891C1650.051,3593.364,1637.822,3596.107,1625.69,3598.83z"
		/>
</g>
<g>
	<path style="fill:#363837;" d="M1281.296,3559.971c-2.072-0.344-4.212-0.376-6.32-0.38c-14.796-0.03-29.592-0.017-44.387-0.018
		c-0.889,0-1.778,0-2.703,0c0,5.245,0,10.132,0,15.177c1.25,0,2.254,0,3.259,0c12.866,0,25.731-0.015,38.598,0.018
		c1.644,0.005,3.301,0.163,4.926,0.414c2.666,0.413,4.362,2.018,4.626,4.71c0.313,3.185,0.361,6.395,0.546,10.036
		c-1.571,0-2.655-0.006-3.738,0.001c-11.118,0.06-22.241-0.061-33.353,0.233c-10.696,0.283-17.86,7.592-18.136,18.248
		c-0.166,6.427-0.237,12.877,0.12,19.29c0.419,7.527,4.074,13.16,11.481,15.506c3.178,1.007,6.662,1.375,10.018,1.435
		c10.105,0.18,20.216,0.084,30.325,0.047c1.738-0.007,3.49-0.151,5.211-0.402c7.574-1.102,12.85-5.992,14.512-13.47
		c0.356-1.601,0.613-3.261,0.618-4.896c0.047-15.989,0.207-31.981-0.034-47.967
		C1296.711,3567.775,1291.112,3561.6,1281.296,3559.971z M1279.312,3624.035c-0.135,3.541-1.979,5.118-5.53,5.163
		c-8.622,0.107-17.247,0.111-25.869-0.006c-3.774-0.051-5.544-1.562-5.737-5.253c-0.253-4.831-0.206-9.705,0.136-14.529
		c0.231-3.254,1.991-4.946,5.183-4.994c10.615-0.162,21.234-0.062,31.888-0.062
		C1279.382,3611.033,1279.56,3617.542,1279.312,3624.035z"/>
</g>
<g>
	<path style="fill:#363837;" d="M1482.365,3559.813c-11.936-0.25-23.886-0.255-35.822,0.001
		c-10.921,0.234-18.035,7.316-18.415,18.207c-0.286,8.165-0.057,16.349-0.057,24.523c-0.042,0-0.084,0.001-0.127,0.001
		c0,7.718-0.21,15.442,0.048,23.15c0.41,12.2,6.809,18.64,18.984,18.913c11.572,0.261,23.158,0.259,34.729,0.001
		c11.059-0.247,18.24-6.81,18.479-17.446c0.374-16.621,0.376-33.264-0.008-49.884
		C1499.936,3566.766,1492.828,3560.033,1482.365,3559.813z M1482.041,3607.94c-0.027,5.315-0.016,10.642-0.339,15.942
		c-0.209,3.426-1.694,4.793-5.128,4.853c-8.162,0.14-16.329,0.159-24.49,0.001c-3.981-0.076-5.646-2.081-5.719-6.547
		c-0.109-6.604-0.028-13.212-0.028-19.818c-0.006,0-0.012,0-0.017,0c0-6.147-0.039-12.295,0.01-18.442
		c0.052-6.474,1.891-8.37,8.37-8.467c6.33-0.095,12.663-0.087,18.992-0.003c6.345,0.085,8.141,1.771,8.289,8.26
		C1482.164,3591.789,1482.082,3599.866,1482.041,3607.94z"/>
</g>
<g>
	<path style="fill:#363837;" d="M1571.029,3559.805c-11.658-0.23-23.332-0.293-34.979,0.132c-3.572,0.131-7.384,1.567-10.546,3.359
		c-5.733,3.25-7.582,9.056-7.625,15.272c-0.151,21.583-0.113,43.168-0.131,64.752c-0.001,0.422,0.182,0.844,0.27,1.229
		c6.077,0,12.009,0,18.174,0c0-1.145,0-2.134,0-3.123c0-18.279-0.001-36.557,0.002-54.836c0-1.285-0.038-2.577,0.065-3.855
		c0.396-4.86,2.185-6.857,7.014-7.085c5.683-0.267,11.383-0.194,17.076-0.204c9.279-0.016,11.071,1.799,11.074,11.114
		c0.005,18.278,0.001,36.557,0.001,54.835c0,1.056,0,2.111,0,3.184c6.267,0,12.111,0,18.202,0c0-22.365,0.192-44.408-0.081-66.444
		C1589.407,3566.951,1582.22,3560.027,1571.029,3559.805z"/>
</g>
<g>
	<path style="fill:#363837;" d="M1409.95,3560.289c-2.579-0.539-5.279-0.676-7.925-0.685c-17.088-0.059-34.176-0.032-51.264-0.025
		c-0.884,0.001-1.769,0.092-2.67,0.142c0,5.335,0,10.416,0,15.788c15.049,0,29.874,0,45.13,0c-0.79,1.024-1.247,1.686-1.772,2.286
		c-13.296,15.215-26.654,30.377-39.85,45.678c-2.296,2.662-4.467,5.689-5.732,8.926c-2.307,5.907,0.711,10.657,6.935,11.758
		c2.067,0.364,4.196,0.521,6.297,0.525c17.639,0.041,35.278,0.025,52.917,0.018c0.878,0,1.756-0.091,2.635-0.14
		c0-5.376,0-10.477,0-15.769c-14.825,0-29.49,0-44.807,0c0.851-1.088,1.262-1.67,1.729-2.202
		c13.206-15.05,26.497-30.026,39.558-45.2c2.392-2.778,4.415-6.16,5.62-9.608C1418.759,3566.041,1415.894,3561.53,1409.95,3560.289z
		"/>
</g>
<g>
	<path style="fill:#363837;" d="M1201.478,3532.958c-6.285,0-12.218,0-18.313,0c0,37.244,0,74.388,0,111.544
		c6.167,0,12.168,0,18.354,0c0-23.045,0-45.885,0-69.132c5.525,0,10.875,0,16.269,0c0-5.422,0-10.436,0-15.851
		c-5.482,0-10.831,0-16.31,0C1201.478,3550.498,1201.478,3541.877,1201.478,3532.958z"/>
</g>
<g>
	<path style="fill:#363837;" d="M1314.398,3644.586c6.089,0,12.023,0,18.125,0c0-39.244,0-78.22,0-117.227
		c-6.124,0-12.056,0-18.125,0C1314.398,3566.488,1314.398,3605.477,1314.398,3644.586z"/>
</g>
<g>
	<path style="fill:#363837;" d="M1147.914,3644.563c6.139,0,12.072,0,18.082,0c0-28.36,0-56.577,0-84.832
		c-6.122,0-12.058,0-18.082,0C1147.914,3588.109,1147.914,3616.328,1147.914,3644.563z"/>
</g>
<g>
	<path style="fill:#363837;" d="M1022.176,3644.474c6.196,0,12.197,0,18.101,0c0-28.383,0-56.534,0-84.754
		c-6.116,0-12.053,0-18.101,0C1022.176,3588.091,1022.176,3616.314,1022.176,3644.474z"/>
</g>
<g>
	<path style="fill:#363837;" d="M1031.104,3521.577c-6.409,0.012-11.533,5.089-11.587,11.477
		c-0.054,6.513,4.845,11.394,11.483,11.443c6.792,0.05,11.892-4.827,11.874-11.355
		C1042.857,3526.602,1037.731,3521.566,1031.104,3521.577z"/>
</g>
<g>
	<path style="fill:#363837;" d="M1157.017,3521.577c-6.526-0.079-11.76,5.062-11.773,11.565c-0.013,6.505,4.914,11.34,11.571,11.354
		c6.677,0.016,11.691-4.739,11.778-11.169C1168.681,3526.781,1163.633,3521.658,1157.017,3521.577z"/>
</g>
<path style="fill:#363837;" d="M1389.011,3694.138c0-2.065,1.643-3.768,3.771-3.768h0.786c1.643,0,2.737,0.851,3.463,2.006
	l12.89,20.179l12.942-20.24c0.793-1.275,1.887-1.944,3.404-1.944h0.793c2.129,0,3.768,1.702,3.768,3.768v35.618
	c0,2.066-1.639,3.708-3.768,3.708c-2.006,0-3.708-1.702-3.708-3.708v-25.528l-10.395,15.621c-0.79,1.217-1.761,1.945-3.159,1.945
	c-1.339,0-2.31-0.729-3.1-1.945l-10.335-15.498v25.466c0,2.068-1.639,3.647-3.708,3.647c-2.062,0-3.646-1.579-3.646-3.647V3694.138z
	"/>
<path style="fill:#363837;" d="M1441.746,3729.393v-35.01c0-2.129,1.639-3.77,3.768-3.77h24.742c1.82,0,3.341,1.52,3.341,3.343
	c0,1.884-1.521,3.343-3.341,3.343h-21.033v11.062h18.296c1.825,0,3.345,1.52,3.345,3.403c0,1.823-1.521,3.282-3.345,3.282h-18.296
	v11.427h21.337c1.821,0,3.341,1.521,3.341,3.343c0,1.885-1.521,3.344-3.341,3.344h-25.045
	C1443.385,3733.16,1441.746,3731.519,1441.746,3729.393z"/>
<path style="fill:#363837;" d="M1482.456,3729.393v-35.01c0-2.129,1.639-3.77,3.768-3.77h24.737c1.821,0,3.341,1.52,3.341,3.343
	c0,1.884-1.52,3.343-3.341,3.343h-21.029v11.062h18.296c1.821,0,3.341,1.52,3.341,3.403c0,1.823-1.521,3.282-3.341,3.282h-18.296
	v11.427h21.333c1.821,0,3.341,1.521,3.341,3.343c0,1.885-1.521,3.344-3.341,3.344h-25.042
	C1484.094,3733.16,1482.456,3731.519,1482.456,3729.393z"/>
<path style="fill:#363837;" d="M1533.614,3697.542h-10.331c-1.943,0-3.463-1.58-3.463-3.464c0-1.885,1.521-3.465,3.463-3.465h28.264
	c1.884,0,3.404,1.58,3.404,3.465c0,1.884-1.52,3.464-3.404,3.464h-10.394v32.214c0,2.066-1.702,3.708-3.771,3.708
	c-2.062,0-3.768-1.642-3.768-3.708V3697.542z"/>
<path style="fill:#363837;" d="M1561.864,3715.107v-21.09c0-2.067,1.639-3.709,3.768-3.709c2.065,0,3.708,1.642,3.708,3.709v20.786
	c0,7.902,4.072,12.097,10.754,12.097c6.626,0,10.702-3.951,10.702-11.793v-21.09c0-2.067,1.639-3.709,3.768-3.709
	c2.065,0,3.708,1.642,3.708,3.709v20.725c0,12.705-7.176,19.087-18.297,19.087
	C1568.91,3733.829,1561.864,3727.447,1561.864,3715.107z"/>
<path style="fill:#363837;" d="M1608.521,3694.383c0-2.129,1.639-3.77,3.768-3.77h13.009c9.968,0,16.168,5.652,16.168,14.223v0.122
	c0,9.542-7.661,14.525-17.021,14.525h-8.448v10.272c0,2.066-1.639,3.708-3.708,3.708c-2.128,0-3.768-1.642-3.768-3.708V3694.383z
	 M1624.689,3712.738c5.651,0,9.178-3.161,9.178-7.598v-0.123c0-4.983-3.586-7.596-9.178-7.596h-8.692v15.316H1624.689z"/>
<path style="fill:#363837;" d="M1648.014,3728.418c-0.853-0.607-1.461-1.641-1.461-2.856c0-1.945,1.58-3.464,3.526-3.464
	c1.035,0,1.702,0.305,2.188,0.668c3.527,2.796,7.294,4.377,11.915,4.377c4.617,0,7.535-2.188,7.535-5.349v-0.122
	c0-3.039-1.702-4.68-9.604-6.503c-9.055-2.188-14.162-4.863-14.162-12.704v-0.121c0-7.294,6.078-12.339,14.525-12.339
	c5.351,0,9.664,1.397,13.498,3.951c0.849,0.485,1.639,1.521,1.639,2.978c0,1.945-1.58,3.466-3.527,3.466
	c-0.73,0-1.338-0.183-1.947-0.548c-3.278-2.126-6.438-3.222-9.782-3.222c-4.376,0-6.927,2.249-6.927,5.045v0.122
	c0,3.282,1.943,4.741,10.146,6.687c8.996,2.188,13.617,5.408,13.617,12.46v0.122c0,7.962-6.26,12.702-15.197,12.702
	C1658.223,3733.768,1652.753,3731.943,1648.014,3728.418z"/>
<path style="fill:#363837;" d="M1768.503,3689.343c-0.422,0-0.853-0.048-1.275-0.145l-64.583-14.848
	c-1.987-0.456-3.578-1.941-4.171-3.89c-0.597-1.951-0.104-4.07,1.291-5.558l44.54-47.51c1.379-1.472,3.434-2.116,5.407-1.661
	c1.969,0.441,3.557,1.893,4.172,3.813l20.043,62.358c0.627,1.95,0.16,4.086-1.228,5.596
	C1771.607,3688.688,1770.079,3689.343,1768.503,3689.343z M1714.852,3665.468l45.163,10.383l-14.017-43.607L1714.852,3665.468z"/>
<g>
	<g>
		<path style="fill:#363837;" d="M973.559,3338.08c-2.238-0.432-4.559-0.584-6.844-0.596c-11.547-0.058-23.095-0.026-34.642-0.026
			c-0.588,0-1.176,0-1.824,0c0,24.625,0,49.063,0,73.547c0.484,0.021,0.841,0.051,1.198,0.051
			c12.092,0.002,24.183,0.016,36.274-0.02c1.624-0.005,3.269-0.139,4.868-0.42c5.894-1.036,10.208-4.074,11.697-10.114
			c0.571-2.313,0.698-4.78,0.716-7.18c0.075-10.035,0.044-20.07,0.026-30.107c-0.008-4.049,0.063-8.106-0.16-12.146
			C984.469,3343.773,980.693,3339.456,973.559,3338.08z M971.431,3393.807c-0.313,3.902-1.946,5.605-5.842,5.666
			c-6.948,0.109-13.898,0.064-20.848,0.075c-0.29,0.001-0.579-0.084-0.964-0.144c0-16.76,0-33.469,0-50.36c2.416,0,4.757,0,7.097,0
			c4.291,0,8.582-0.026,12.872,0.017c1.26,0.014,2.538,0.122,3.771,0.367c1.963,0.389,3.205,1.655,3.585,3.621
			c0.228,1.178,0.358,2.394,0.36,3.593c0.026,11.784,0.018,23.569,0.016,35.353C971.479,3392.599,971.479,3393.205,971.431,3393.807
			z"/>
	</g>
	<g>
		<path style="fill:#363837;" d="M1055.642,3355.198c-7.974-0.167-15.956-0.155-23.93,0.011c-7.019,0.145-11.788,4.87-11.972,11.929
			c-0.227,8.699-0.161,17.405-0.188,26.109c-0.007,2.295,0.02,4.597,0.183,6.885c0.392,5.521,3.577,9.258,8.947,10.413
			c1.698,0.365,3.475,0.477,5.217,0.491c6.528,0.055,13.058,0.021,19.587,0.022c0.637,0,1.273,0,2.053,0
			c0,1.275,0.002,2.293,0,3.312c-0.017,6.507-1.361,7.854-7.864,7.858c-8.463,0.005-16.927,0.001-25.391,0.001
			c-0.641,0-1.282,0-1.986,0c0,3.539,0,6.831,0,10.078c0.221,0.092,0.33,0.177,0.439,0.177c11.544-0.012,23.094,0.15,34.633-0.117
			c6.414-0.148,10.502-3.775,11.754-9.609c0.377-1.756,0.483-3.597,0.488-5.399c0.036-15.959,0.022-31.919,0.017-47.878
			c0-0.906-0.026-1.814-0.09-2.719C1067.043,3359.761,1062.667,3355.346,1055.642,3355.198z M1055.539,3400.663
			c-1.757,0-3.312,0.003-4.867-0.001c-4.773-0.009-9.547,0.036-14.319-0.051c-3.518-0.063-4.621-1.219-4.637-4.781
			c-0.038-8.338-0.04-16.676,0-25.014c0.019-3.883,1.216-5.215,5.036-5.286c4.768-0.088,9.544-0.013,14.311,0.143
			c3.124,0.103,4.246,1.202,4.324,4.374c0.151,6.158,0.122,12.321,0.149,18.482
			C1055.554,3392.504,1055.539,3396.478,1055.539,3400.663z"/>
	</g>
	<g>
		<path style="fill:#363837;" d="M1427.231,3360.244c-1.878-3.591-5.408-4.975-9.253-5.043c-8.215-0.143-16.436-0.164-24.649,0.005
			c-6.942,0.143-11.541,4.63-11.875,11.604c-0.275,5.728-0.175,11.476-0.168,17.215c0.006,5.377-0.051,10.762,0.212,16.128
			c0.271,5.524,3.596,9.249,8.947,10.403c1.522,0.329,3.113,0.473,4.673,0.479c10.878,0.041,21.756,0.023,32.635,0.019
			c0.464,0,0.928-0.059,1.405-0.091c0-3.412,0-6.694,0-10.062c-0.803,0-1.464,0-2.126,0c-9.004,0-18.009,0.01-27.014-0.015
			c-1.2-0.003-2.407-0.136-3.598-0.3c-1.904-0.263-2.859-1.495-2.966-3.331c-0.113-1.929-0.046-3.866-0.127-5.798
			c-0.041-0.97,0.313-1.335,1.284-1.534c4.901-1.009,9.782-2.113,14.671-3.179c6.654-1.451,13.31-2.898,20.008-4.355
			c0-5.27,0.202-10.294-0.09-15.289C1429.062,3364.772,1428.316,3362.318,1427.231,3360.244z M1393.536,3380.874
			c0-4.312-0.129-8.556,0.065-12.783c0.075-1.622,1.436-2.719,3.135-2.74c5.794-0.073,11.59-0.085,17.384-0.009
			c1.767,0.023,2.988,1.175,3.238,2.893c0.337,2.31,0.387,4.66,0.573,7.166C1409.564,3377.277,1401.519,3379.083,1393.536,3380.874z
			"/>
	</g>
	<g>
		<path style="fill:#363837;" d="M1166.939,3355.307c-1.363-0.227-2.771-0.248-4.159-0.25c-9.735-0.021-19.47-0.012-29.205-0.012
			c-0.585,0-1.17,0-1.779,0c0,3.45,0,6.666,0,9.984c0.822,0,1.483,0,2.144,0c8.465,0,16.931-0.009,25.396,0.013
			c1.082,0.003,2.172,0.106,3.242,0.272c1.754,0.271,2.87,1.327,3.043,3.099c0.207,2.095,0.238,4.208,0.36,6.603
			c-1.034,0-1.747-0.003-2.459,0.001c-7.315,0.04-14.634-0.04-21.945,0.154c-7.038,0.187-11.751,4.995-11.933,12.007
			c-0.109,4.229-0.156,8.473,0.079,12.691c0.276,4.953,2.68,8.658,7.554,10.202c2.091,0.662,4.383,0.905,6.591,0.944
			c6.649,0.118,13.302,0.055,19.953,0.03c1.144-0.004,2.296-0.1,3.429-0.265c4.983-0.725,8.455-3.942,9.548-8.862
			c0.234-1.054,0.404-2.146,0.407-3.222c0.031-10.52,0.136-21.042-0.023-31.56
			C1177.081,3360.441,1173.397,3356.378,1166.939,3355.307z M1165.633,3397.458c-0.089,2.329-1.302,3.367-3.639,3.396
			c-5.673,0.071-11.348,0.073-17.021-0.004c-2.483-0.033-3.647-1.027-3.775-3.456c-0.167-3.178-0.135-6.385,0.09-9.56
			c0.152-2.141,1.31-3.254,3.41-3.286c6.984-0.106,13.972-0.04,20.981-0.04C1165.68,3388.902,1165.796,3393.186,1165.633,3397.458z"
			/>
	</g>
	<g>
		<path style="fill:#363837;" d="M1299.234,3355.202c-7.854-0.164-15.716-0.167-23.569,0.001
			c-7.186,0.154-11.867,4.813-12.116,11.979c-0.188,5.372-0.038,10.757-0.038,16.136c-0.028,0-0.055,0-0.083,0
			c0,5.078-0.138,10.16,0.032,15.232c0.27,8.027,4.479,12.264,12.491,12.444c7.614,0.171,15.237,0.17,22.85,0
			c7.277-0.163,12.001-4.48,12.159-11.479c0.246-10.937,0.247-21.886-0.005-32.821
			C1310.795,3359.777,1306.118,3355.347,1299.234,3355.202z M1299.021,3386.868c-0.017,3.497-0.01,7.001-0.223,10.489
			c-0.138,2.254-1.115,3.154-3.374,3.192c-5.37,0.093-10.744,0.105-16.114,0.001c-2.62-0.05-3.714-1.369-3.763-4.307
			c-0.072-4.346-0.019-8.693-0.019-13.04c-0.004,0-0.008,0-0.011,0c0-4.045-0.026-8.091,0.007-12.135
			c0.034-4.259,1.244-5.507,5.507-5.571c4.165-0.062,8.332-0.057,12.496-0.001c4.175,0.056,5.356,1.165,5.454,5.434
			C1299.102,3376.241,1299.047,3381.556,1299.021,3386.868z"/>
	</g>
	<g>
		<path style="fill:#363837;" d="M1357.571,3355.197c-7.67-0.152-15.351-0.193-23.014,0.086c-2.351,0.086-4.859,1.031-6.939,2.211
			c-3.771,2.138-4.988,5.958-5.017,10.049c-0.1,14.2-0.074,28.402-0.087,42.604c0,0.277,0.12,0.556,0.178,0.809
			c3.999,0,7.901,0,11.958,0c0-0.753,0-1.404,0-2.055c0-12.027-0.001-24.054,0.002-36.08c0-0.846-0.025-1.695,0.043-2.537
			c0.26-3.197,1.438-4.512,4.615-4.661c3.739-0.176,7.489-0.128,11.235-0.135c6.105-0.01,7.285,1.184,7.286,7.313
			c0.003,12.025,0.001,24.053,0.001,36.078c0,0.695,0,1.391,0,2.095c4.124,0,7.969,0,11.976,0c0-14.715,0.127-29.218-0.053-43.718
			C1369.664,3359.898,1364.935,3355.344,1357.571,3355.197z"/>
	</g>
	<g>
		<path style="fill:#363837;" d="M1251.587,3355.516c-1.696-0.354-3.473-0.444-5.214-0.45c-11.243-0.039-22.486-0.022-33.729-0.017
			c-0.582,0-1.164,0.06-1.756,0.093c0,3.511,0,6.854,0,10.388c9.901,0,19.655,0,29.693,0c-0.52,0.674-0.82,1.109-1.166,1.505
			c-8.748,10.011-17.537,19.986-26.22,30.054c-1.51,1.751-2.939,3.744-3.771,5.873c-1.518,3.886,0.468,7.012,4.563,7.735
			c1.36,0.24,2.761,0.343,4.144,0.347c11.605,0.026,23.211,0.016,34.817,0.011c0.578,0,1.156-0.06,1.734-0.092
			c0-3.537,0-6.894,0-10.375c-9.754,0-19.403,0-29.48,0c0.56-0.716,0.83-1.099,1.138-1.449c8.689-9.901,17.434-19.756,26.027-29.739
			c1.574-1.828,2.905-4.053,3.698-6.322C1257.384,3359.3,1255.499,3356.332,1251.587,3355.516z"/>
	</g>
	<g>
		<path style="fill:#363837;" d="M1114.421,3337.533c-4.135,0-8.039,0-12.049,0c0,24.505,0,48.943,0,73.391
			c4.058,0,8.006,0,12.076,0c0-15.162,0-30.19,0-45.485c3.636,0,7.155,0,10.705,0c0-3.567,0-6.866,0-10.429
			c-3.607,0-7.126,0-10.731,0C1114.421,3349.073,1114.421,3343.401,1114.421,3337.533z"/>
	</g>
	<g>
		<path style="fill:#363837;" d="M1188.719,3410.979c4.006,0,7.911,0,11.925,0c0-25.82,0-51.465,0-77.129c-4.029,0-7.932,0-11.925,0
			C1188.719,3359.595,1188.719,3385.247,1188.719,3410.979z"/>
	</g>
	<g>
		<path style="fill:#363837;" d="M1079.179,3410.965c4.039,0,7.942,0,11.896,0c0-18.66,0-37.226,0-55.816c-4.027,0-7.933,0-11.896,0
			C1079.179,3373.82,1079.179,3392.387,1079.179,3410.965z"/>
	</g>
	<g>
		<path style="fill:#363837;" d="M996.449,3410.906c4.077,0,8.024,0,11.91,0c0-18.676,0-37.197,0-55.766c-4.024,0-7.93,0-11.91,0
			C996.449,3373.809,996.449,3392.379,996.449,3410.906z"/>
	</g>
</g>
<g>
	<path style="fill:#363837;" d="M1002.323,3328.998c-4.216,0.007-7.588,3.348-7.623,7.551c-0.036,4.285,3.187,7.496,7.555,7.529
		c4.469,0.033,7.824-3.176,7.812-7.472C1010.056,3332.304,1006.684,3328.99,1002.323,3328.998z"/>
</g>
<g>
	<path style="fill:#363837;" d="M1085.168,3328.998c-4.293-0.053-7.737,3.33-7.746,7.609c-0.008,4.279,3.233,7.461,7.613,7.471
		c4.394,0.01,7.693-3.119,7.75-7.349C1092.843,3332.422,1089.522,3329.051,1085.168,3328.998z"/>
</g>
<g>
	<path style="fill:#363837;" d="M1472.811,3371.488c0-1.359,1.081-2.479,2.481-2.479h0.517c1.081,0,1.8,0.561,2.279,1.32
		l8.481,13.276l8.515-13.316c0.522-0.84,1.242-1.28,2.24-1.28h0.522c1.4,0,2.479,1.12,2.479,2.479v23.435
		c0,1.36-1.079,2.44-2.479,2.44c-1.32,0-2.439-1.12-2.439-2.44v-16.796l-6.839,10.278c-0.52,0.8-1.159,1.279-2.079,1.279
		c-0.881,0-1.52-0.479-2.04-1.279l-6.8-10.198v16.756c0,1.361-1.078,2.4-2.44,2.4c-1.356,0-2.398-1.039-2.398-2.4V3371.488z"/>
	<path style="fill:#363837;" d="M1507.508,3394.684v-23.034c0-1.401,1.078-2.48,2.479-2.48h16.279c1.198,0,2.198,1.001,2.198,2.2
		c0,1.238-1,2.199-2.198,2.199h-13.839v7.277h12.038c1.201,0,2.201,1.001,2.201,2.24c0,1.199-1,2.159-2.201,2.159h-12.038v7.519
		h14.039c1.198,0,2.198,1,2.198,2.199c0,1.24-1,2.2-2.198,2.2h-16.479C1508.586,3397.163,1507.508,3396.084,1507.508,3394.684z"/>
	<path style="fill:#363837;" d="M1534.293,3394.684v-23.034c0-1.401,1.078-2.48,2.479-2.48h16.277c1.198,0,2.198,1.001,2.198,2.2
		c0,1.238-1,2.199-2.198,2.199h-13.837v7.277h12.039c1.198,0,2.198,1.001,2.198,2.24c0,1.199-1,2.159-2.198,2.159h-12.039v7.519
		h14.037c1.198,0,2.198,1,2.198,2.199c0,1.24-1,2.2-2.198,2.2h-16.477C1535.372,3397.163,1534.293,3396.084,1534.293,3394.684z"/>
	<path style="fill:#363837;" d="M1567.954,3373.728h-6.797c-1.278,0-2.279-1.039-2.279-2.278c0-1.241,1-2.28,2.279-2.28h18.597
		c1.24,0,2.24,1.039,2.24,2.28c0,1.239-1,2.278-2.24,2.278h-6.838v21.195c0,1.36-1.12,2.44-2.481,2.44
		c-1.357,0-2.479-1.08-2.479-2.44V3373.728z"/>
	<path style="fill:#363837;" d="M1586.541,3385.285v-13.877c0-1.359,1.079-2.439,2.479-2.439c1.359,0,2.44,1.08,2.44,2.439v13.678
		c0,5.199,2.679,7.959,7.076,7.959c4.36,0,7.041-2.6,7.041-7.76v-13.877c0-1.359,1.079-2.439,2.479-2.439
		c1.359,0,2.439,1.08,2.439,2.439v13.637c0,8.359-4.721,12.559-12.038,12.559
		C1591.177,3397.604,1586.541,3393.404,1586.541,3385.285z"/>
	<path style="fill:#363837;" d="M1617.24,3371.649c0-1.401,1.078-2.48,2.479-2.48h8.559c6.559,0,10.638,3.72,10.638,9.358v0.08
		c0,6.278-5.041,9.557-11.199,9.557h-5.558v6.759c0,1.36-1.079,2.44-2.439,2.44c-1.401,0-2.479-1.08-2.479-2.44V3371.649z
		 M1627.877,3383.727c3.718,0,6.039-2.08,6.039-5v-0.08c0-3.279-2.359-4.998-6.039-4.998h-5.719v10.078H1627.877z"/>
	<path style="fill:#363837;" d="M1643.224,3394.043c-0.561-0.399-0.961-1.079-0.961-1.879c0-1.28,1.039-2.279,2.32-2.279
		c0.681,0,1.12,0.2,1.439,0.439c2.32,1.84,4.799,2.88,7.839,2.88c3.038,0,4.958-1.439,4.958-3.52v-0.08c0-2-1.12-3.079-6.319-4.278
		c-5.958-1.439-9.318-3.2-9.318-8.359v-0.079c0-4.8,3.999-8.119,9.557-8.119c3.521,0,6.358,0.92,8.881,2.601
		c0.559,0.319,1.079,1,1.079,1.959c0,1.279-1.04,2.279-2.321,2.279c-0.48,0-0.88-0.119-1.281-0.359
		c-2.157-1.399-4.235-2.12-6.437-2.12c-2.879,0-4.558,1.479-4.558,3.319v0.08c0,2.16,1.278,3.119,6.675,4.399
		c5.919,1.439,8.959,3.559,8.959,8.198v0.08c0,5.238-4.119,8.357-9.999,8.357
		C1649.941,3397.562,1646.342,3396.362,1643.224,3394.043z"/>
</g>
<path style="fill:#363837;" d="M1448.733,3365.004c-0.099-0.26-0.169-0.536-0.208-0.818l-5.923-43.197
	c-0.183-1.33,0.36-2.654,1.42-3.474c1.061-0.822,2.48-1.013,3.72-0.502l39.616,16.326c1.228,0.506,2.103,1.619,2.283,2.939
	c0.188,1.314-0.335,2.629-1.374,3.456l-33.693,26.871c-1.054,0.84-2.477,1.051-3.729,0.549
	C1449.859,3366.761,1449.1,3365.974,1448.733,3365.004z M1450.914,3326.428l4.142,30.208l23.562-18.792L1450.914,3326.428z"/>
<polygon style="fill:#121322;" points="3701.451,1682.189 3560.497,1682.189 3813.476,1519.962 3873.179,1416.553 
	3391.511,1416.553 3468.785,1550.396 3563.238,1489.828 3704.195,1489.828 3506.872,1616.364 3632.344,1833.69 3730.61,1663.491 "/>
<g>
	<path style="fill:#121322;" d="M3632.927,1939.476c-40.771,0-77.29-21.088-97.682-56.404l-232.13-402.053
		c-20.392-35.316-20.392-77.482,0-112.798c20.391-35.316,56.91-56.405,97.692-56.405h464.25c40.782,0,77.302,21.088,97.692,56.405
		c20.392,35.316,20.392,77.481,0,112.798l-9.977-5.759l9.977,5.759l-232.13,402.053
		C3710.23,1918.388,3673.709,1939.476,3632.927,1939.476z M3400.808,1334.85c-32.448,0-61.511,16.781-77.74,44.887
		c-16.229,28.107-16.229,61.657,0,89.764l232.13,402.052c16.219,28.107,45.281,44.888,77.729,44.888
		c32.46,0,61.522-16.78,77.741-44.888l232.131-402.052c16.229-28.107,16.229-61.657,0-89.764
		c-16.219-28.106-45.281-44.887-77.741-44.887H3400.808z"/>
</g>
<g>
	<g>
		<path style="fill:#121322;" d="M4453.268,1725.129c-54.354,0-98.415-44.061-98.415-98.413c0-54.352,44.062-98.413,98.415-98.413
			c35.101,0,65.873,18.396,83.28,46.057l-125.904,37.188l12.922,43.746l127.645-37.703c0.003,0.032,0.011,0.062,0.014,0.094
			l50.245-14.84c-11.463-71.621-73.352-126.404-148.201-126.404c-82.996,0-150.277,67.28-150.277,150.275
			c0,82.996,67.281,150.275,150.277,150.275c73.758,0,134.98-53.182,147.721-123.264l-60.161,17.77
			C4524.522,1703.312,4491.474,1725.129,4453.268,1725.129z"/>
		<path style="fill:#121322;" d="M4773.467,1476.44c-82.996,0-150.276,67.28-150.276,150.275
			c0,82.996,67.28,150.275,150.276,150.275c82.994,0,150.274-67.28,150.274-150.275
			C4923.742,1543.721,4856.461,1476.44,4773.467,1476.44z M4773.467,1725.129c-54.354,0-98.414-44.061-98.414-98.413
			c0-54.352,44.061-98.413,98.414-98.413c54.352,0,98.412,44.062,98.412,98.413
			C4871.879,1681.068,4827.819,1725.129,4773.467,1725.129z"/>
		<polygon style="fill:#121322;" points="4289.368,1489.046 4048.881,1489.046 4048.881,1544.236 4186.846,1544.236 
			4033.489,1764.386 4289.368,1764.386 4289.368,1709.205 4139.209,1709.205 		"/>
	</g>
</g>
</svg>
